<?xml version="1.0" encoding="UTF-8" standalone="no"?>
<!-- Created with Inkscape (http://www.inkscape.org/) -->

<svg
   width="210mm"
   height="297mm"
   viewBox="0 0 210 297"
   version="1.1"
   id="svg5"
   inkscape:version="1.1 (c4e8f9e, 2021-05-24)"
   sodipodi:docname="drawing.svg"
   xmlns:inkscape="http://www.inkscape.org/namespaces/inkscape"
   xmlns:sodipodi="http://sodipodi.sourceforge.net/DTD/sodipodi-0.dtd"
   xmlns="http://www.w3.org/2000/svg"
   xmlns:svg="http://www.w3.org/2000/svg">
  <sodipodi:namedview
     id="namedview7"
     pagecolor="#ffffff"
     bordercolor="#666666"
     borderopacity="1.0"
     inkscape:pageshadow="2"
     inkscape:pageopacity="0.0"
     inkscape:pagecheckerboard="0"
     inkscape:document-units="mm"
     showgrid="false"
     inkscape:zoom="1.754102"
     inkscape:cx="86.368978"
     inkscape:cy="163.61648"
     inkscape:window-width="1440"
     inkscape:window-height="830"
     inkscape:window-x="0"
     inkscape:window-y="23"
     inkscape:window-maximized="1"
     inkscape:current-layer="g2676"
     inkscape:snap-text-baseline="true" />
  <defs
     id="defs2">
    <linearGradient
       id="linearGradient9758"
       inkscape:swatch="solid">
      <stop
         style="stop-color:#000000;stop-opacity:1;"
         offset="0"
         id="stop9756" />
    </linearGradient>
  </defs>
  <g
     inkscape:label="Layer 1"
     inkscape:groupmode="layer"
     id="layer1">
    <g
       id="g2676"
       transform="matrix(0.00254,0,0,0.00254,-5.5383152,118.68579)">
      <g
         style="fill:#000000;fill-opacity:1;stroke:#000000;stroke-linecap:round;stroke-linejoin:round;stroke-opacity:1"
         id="g1101" />
      <g
         style="fill:#c2c200;fill-opacity:0;stroke:#c2c200;stroke-width:-0.000393701;stroke-linecap:round;stroke-linejoin:round;stroke-opacity:1"
         id="g1103" />
      <g
         style="fill:#840000;fill-opacity:0;stroke:#840000;stroke-width:39.3701;stroke-linecap:round;stroke-linejoin:round;stroke-opacity:1"
         id="g1117" />
      <g
         style="fill:#840000;fill-opacity:1;stroke:#840000;stroke-width:39.3701;stroke-linecap:round;stroke-linejoin:round;stroke-opacity:1"
         id="g1123" />
      <g
         style="fill:#840000;fill-opacity:1;stroke:#840000;stroke-width:39.3701;stroke-linecap:round;stroke-linejoin:round;stroke-opacity:1"
         id="g1129" />
      <g
         style="fill:#840000;fill-opacity:1;stroke:#840000;stroke-width:39.3701;stroke-linecap:round;stroke-linejoin:round;stroke-opacity:1"
         id="g1135" />
      <g
         style="fill:#840000;fill-opacity:1;stroke:#840000;stroke-width:39.3701;stroke-linecap:round;stroke-linejoin:round;stroke-opacity:1"
         id="g1141" />
      <g
         style="fill:#840000;fill-opacity:1;stroke:#840000;stroke-width:39.3701;stroke-linecap:round;stroke-linejoin:round;stroke-opacity:1"
         id="g1149" />
      <g
         style="fill:#840000;fill-opacity:1;stroke:#840000;stroke-width:39.3701;stroke-linecap:round;stroke-linejoin:round;stroke-opacity:1"
         id="g1155" />
      <g
         style="fill:#840000;fill-opacity:1;stroke:#840000;stroke-width:591;stroke-linecap:round;stroke-linejoin:round;stroke-opacity:1"
         id="g1157" />
      <g
         style="fill:#840000;fill-opacity:1;stroke:#840000;stroke-width:39.3701;stroke-linecap:round;stroke-linejoin:round;stroke-opacity:1"
         id="g1201" />
      <g
         style="fill:#840000;fill-opacity:1;stroke:#840000;stroke-width:39.3701;stroke-linecap:round;stroke-linejoin:round;stroke-opacity:1"
         id="g1207" />
      <g
         style="fill:#840000;fill-opacity:1;stroke:#840000;stroke-width:629.921;stroke-linecap:round;stroke-linejoin:round;stroke-opacity:1"
         id="g1209" />
      <g
         style="fill:#840000;fill-opacity:1;stroke:#840000;stroke-width:39.3701;stroke-linecap:round;stroke-linejoin:round;stroke-opacity:1"
         id="g1233" />
      <g
         style="fill:#840000;fill-opacity:1;stroke:#840000;stroke-width:39.3701;stroke-linecap:round;stroke-linejoin:round;stroke-opacity:1"
         id="g1239" />
      <g
         style="fill:#840000;fill-opacity:1;stroke:#840000;stroke-width:39.3701;stroke-linecap:round;stroke-linejoin:round;stroke-opacity:1"
         id="g1245" />
      <g
         style="fill:#840000;fill-opacity:1;stroke:#840000;stroke-width:39.3701;stroke-linecap:round;stroke-linejoin:round;stroke-opacity:1"
         id="g1251" />
      <g
         style="fill:#840000;fill-opacity:1;stroke:#840000;stroke-width:39.3701;stroke-linecap:round;stroke-linejoin:round;stroke-opacity:1"
         id="g1257" />
      <g
         style="fill:#840000;fill-opacity:1;stroke:#840000;stroke-width:39.3701;stroke-linecap:round;stroke-linejoin:round;stroke-opacity:1"
         id="g1263" />
      <g
         style="fill:#840000;fill-opacity:1;stroke:#840000;stroke-width:39.3701;stroke-linecap:round;stroke-linejoin:round;stroke-opacity:1"
         id="g1269" />
      <g
         style="fill:#840000;fill-opacity:1;stroke:#840000;stroke-width:39.3701;stroke-linecap:round;stroke-linejoin:round;stroke-opacity:1"
         id="g1275" />
      <g
         style="fill:#840000;fill-opacity:1;stroke:#840000;stroke-width:39.3701;stroke-linecap:round;stroke-linejoin:round;stroke-opacity:1"
         id="g1281" />
      <g
         style="fill:#840000;fill-opacity:1;stroke:#840000;stroke-width:39.3701;stroke-linecap:round;stroke-linejoin:round;stroke-opacity:1"
         id="g1287" />
      <g
         style="fill:#840000;fill-opacity:1;stroke:#840000;stroke-width:1181.1;stroke-linecap:round;stroke-linejoin:round;stroke-opacity:1"
         id="g1289" />
      <g
         style="fill:#840000;fill-opacity:1;stroke:#840000;stroke-width:39.3701;stroke-linecap:round;stroke-linejoin:round;stroke-opacity:1"
         id="g1299" />
      <g
         style="fill:#840000;fill-opacity:1;stroke:#840000;stroke-width:39.3701;stroke-linecap:round;stroke-linejoin:round;stroke-opacity:1"
         id="g1305" />
      <g
         style="fill:#840000;fill-opacity:1;stroke:#840000;stroke-width:1181.1;stroke-linecap:round;stroke-linejoin:round;stroke-opacity:1"
         id="g1307" />
      <g
         style="fill:#840000;fill-opacity:1;stroke:#840000;stroke-width:39.3701;stroke-linecap:round;stroke-linejoin:round;stroke-opacity:1"
         id="g1317" />
      <g
         style="fill:#840000;fill-opacity:1;stroke:#840000;stroke-width:39.3701;stroke-linecap:round;stroke-linejoin:round;stroke-opacity:1"
         id="g1323" />
      <g
         style="fill:#840000;fill-opacity:1;stroke:#840000;stroke-width:1181.1;stroke-linecap:round;stroke-linejoin:round;stroke-opacity:1"
         id="g1325" />
      <g
         style="fill:#840000;fill-opacity:1;stroke:#840000;stroke-width:39.3701;stroke-linecap:round;stroke-linejoin:round;stroke-opacity:1"
         id="g1335" />
      <g
         style="fill:#840000;fill-opacity:1;stroke:#840000;stroke-width:39.3701;stroke-linecap:round;stroke-linejoin:round;stroke-opacity:1"
         id="g1341" />
      <g
         style="fill:#840000;fill-opacity:1;stroke:#840000;stroke-width:1181.1;stroke-linecap:round;stroke-linejoin:round;stroke-opacity:1"
         id="g1343" />
      <g
         style="fill:#840000;fill-opacity:1;stroke:#840000;stroke-width:39.3701;stroke-linecap:round;stroke-linejoin:round;stroke-opacity:1"
         id="g1353" />
      <g
         style="fill:#840000;fill-opacity:1;stroke:#840000;stroke-width:39.3701;stroke-linecap:round;stroke-linejoin:round;stroke-opacity:1"
         id="g1359" />
      <g
         style="fill:#840000;fill-opacity:1;stroke:#840000;stroke-width:1181.1;stroke-linecap:round;stroke-linejoin:round;stroke-opacity:1"
         id="g1361" />
      <g
         style="fill:#840000;fill-opacity:1;stroke:#840000;stroke-width:39.3701;stroke-linecap:round;stroke-linejoin:round;stroke-opacity:1"
         id="g1371" />
      <g
         style="fill:#840000;fill-opacity:1;stroke:#840000;stroke-width:39.3701;stroke-linecap:round;stroke-linejoin:round;stroke-opacity:1"
         id="g1377" />
      <g
         style="fill:#840000;fill-opacity:1;stroke:#840000;stroke-width:1181.1;stroke-linecap:round;stroke-linejoin:round;stroke-opacity:1"
         id="g1379" />
      <g
         style="fill:#840000;fill-opacity:1;stroke:#840000;stroke-width:39.3701;stroke-linecap:round;stroke-linejoin:round;stroke-opacity:1"
         id="g1389" />
      <g
         style="fill:#840000;fill-opacity:1;stroke:#840000;stroke-width:39.3701;stroke-linecap:round;stroke-linejoin:round;stroke-opacity:1"
         id="g1395" />
      <g
         style="fill:#840000;fill-opacity:1;stroke:#840000;stroke-width:1181.1;stroke-linecap:round;stroke-linejoin:round;stroke-opacity:1"
         id="g1397" />
      <g
         style="fill:#840000;fill-opacity:1;stroke:#840000;stroke-width:39.3701;stroke-linecap:round;stroke-linejoin:round;stroke-opacity:1"
         id="g1407" />
      <g
         style="fill:#840000;fill-opacity:1;stroke:#840000;stroke-width:39.3701;stroke-linecap:round;stroke-linejoin:round;stroke-opacity:1"
         id="g1413" />
      <g
         style="fill:#840000;fill-opacity:1;stroke:#840000;stroke-width:1181.1;stroke-linecap:round;stroke-linejoin:round;stroke-opacity:1"
         id="g1415" />
      <g
         style="fill:#840000;fill-opacity:1;stroke:#840000;stroke-width:39.3701;stroke-linecap:round;stroke-linejoin:round;stroke-opacity:1"
         id="g1425" />
      <g
         style="fill:#840000;fill-opacity:1;stroke:#840000;stroke-width:39.3701;stroke-linecap:round;stroke-linejoin:round;stroke-opacity:1"
         id="g1431" />
      <g
         style="fill:#840000;fill-opacity:1;stroke:#840000;stroke-width:1181.1;stroke-linecap:round;stroke-linejoin:round;stroke-opacity:1"
         id="g1433" />
      <g
         style="fill:#840000;fill-opacity:1;stroke:#840000;stroke-width:39.3701;stroke-linecap:round;stroke-linejoin:round;stroke-opacity:1"
         id="g1443" />
      <g
         style="fill:#840000;fill-opacity:1;stroke:#840000;stroke-width:39.3701;stroke-linecap:round;stroke-linejoin:round;stroke-opacity:1"
         id="g1449" />
      <g
         style="fill:#840000;fill-opacity:1;stroke:#840000;stroke-width:1181.1;stroke-linecap:round;stroke-linejoin:round;stroke-opacity:1"
         id="g1451" />
      <g
         style="fill:#840000;fill-opacity:1;stroke:#840000;stroke-width:39.3701;stroke-linecap:round;stroke-linejoin:round;stroke-opacity:1"
         id="g1461" />
      <g
         style="fill:#840000;fill-opacity:1;stroke:#840000;stroke-width:39.3701;stroke-linecap:round;stroke-linejoin:round;stroke-opacity:1"
         id="g1467" />
      <g
         style="fill:#840000;fill-opacity:1;stroke:#840000;stroke-width:1181.1;stroke-linecap:round;stroke-linejoin:round;stroke-opacity:1"
         id="g1469" />
      <g
         style="fill:#840000;fill-opacity:1;stroke:#840000;stroke-width:39.3701;stroke-linecap:round;stroke-linejoin:round;stroke-opacity:1"
         id="g1479" />
      <g
         style="fill:#840000;fill-opacity:1;stroke:#840000;stroke-width:39.3701;stroke-linecap:round;stroke-linejoin:round;stroke-opacity:1"
         id="g1485" />
      <g
         style="fill:#840000;fill-opacity:1;stroke:#840000;stroke-width:1181.1;stroke-linecap:round;stroke-linejoin:round;stroke-opacity:1"
         id="g1487" />
      <g
         style="fill:#840000;fill-opacity:1;stroke:#840000;stroke-width:39.3701;stroke-linecap:round;stroke-linejoin:round;stroke-opacity:1"
         id="g1497" />
      <g
         style="fill:#840000;fill-opacity:1;stroke:#840000;stroke-width:39.3701;stroke-linecap:round;stroke-linejoin:round;stroke-opacity:1"
         id="g1503" />
      <g
         style="fill:#840000;fill-opacity:1;stroke:#840000;stroke-width:1181.1;stroke-linecap:round;stroke-linejoin:round;stroke-opacity:1"
         id="g1505" />
      <g
         style="fill:#840000;fill-opacity:1;stroke:#840000;stroke-width:39.3701;stroke-linecap:round;stroke-linejoin:round;stroke-opacity:1"
         id="g1515" />
      <g
         style="fill:#840000;fill-opacity:1;stroke:#840000;stroke-width:39.3701;stroke-linecap:round;stroke-linejoin:round;stroke-opacity:1"
         id="g1521" />
      <g
         style="fill:#840000;fill-opacity:1;stroke:#840000;stroke-width:39.3701;stroke-linecap:round;stroke-linejoin:round;stroke-opacity:1"
         id="g1527" />
      <g
         style="fill:#840000;fill-opacity:1;stroke:#840000;stroke-width:39.3701;stroke-linecap:round;stroke-linejoin:round;stroke-opacity:1"
         id="g1533" />
      <g
         style="fill:#840000;fill-opacity:1;stroke:#840000;stroke-width:39.3701;stroke-linecap:round;stroke-linejoin:round;stroke-opacity:1"
         id="g1539" />
      <g
         style="fill:#840000;fill-opacity:1;stroke:#840000;stroke-width:39.3701;stroke-linecap:round;stroke-linejoin:round;stroke-opacity:1"
         id="g1545" />
      <g
         style="fill:#840000;fill-opacity:1;stroke:#840000;stroke-width:39.3701;stroke-linecap:round;stroke-linejoin:round;stroke-opacity:1"
         id="g1551" />
      <g
         style="fill:#840000;fill-opacity:1;stroke:#840000;stroke-width:39.3701;stroke-linecap:round;stroke-linejoin:round;stroke-opacity:1"
         id="g1557" />
      <g
         style="fill:#840000;fill-opacity:1;stroke:#840000;stroke-width:39.3701;stroke-linecap:round;stroke-linejoin:round;stroke-opacity:1"
         id="g1563" />
      <g
         style="fill:#c2c2c2;fill-opacity:1;stroke:#c2c2c2;stroke-width:39.3701;stroke-linecap:round;stroke-linejoin:round;stroke-opacity:1"
         id="g1565" />
      <g
         style="fill:#c2c2c2;fill-opacity:1;stroke:#c2c2c2;stroke-width:39.3701;stroke-linecap:round;stroke-linejoin:round;stroke-opacity:1"
         id="g1571" />
      <g
         style="fill:#c2c2c2;fill-opacity:1;stroke:#c2c2c2;stroke-width:39.3701;stroke-linecap:round;stroke-linejoin:round;stroke-opacity:1"
         id="g1577" />
      <g
         style="fill:#c2c200;fill-opacity:1;stroke:#c2c200;stroke-width:39.3701;stroke-linecap:round;stroke-linejoin:round;stroke-opacity:1"
         id="g1579" />
      <g
         style="fill:#ffffff;fill-opacity:1;stroke:#ffffff;stroke-width:393.701;stroke-linecap:round;stroke-linejoin:round;stroke-opacity:1"
         id="g1585" />
      <g
         style="fill:#ffffff;fill-opacity:1;stroke:#ffffff;stroke-width:39.3701;stroke-linecap:round;stroke-linejoin:round;stroke-opacity:1"
         id="g1591" />
      <g
         style="fill:#ffffff;fill-opacity:1;stroke:#ffffff;stroke-width:39.3701;stroke-linecap:round;stroke-linejoin:round;stroke-opacity:1"
         id="g1597" />
      <g
         style="fill:#ffffff;fill-opacity:1;stroke:#ffffff;stroke-width:39.3701;stroke-linecap:round;stroke-linejoin:round;stroke-opacity:1"
         id="g1603" />
      <g
         style="fill:#ffffff;fill-opacity:1;stroke:#ffffff;stroke-width:39.3701;stroke-linecap:round;stroke-linejoin:round;stroke-opacity:1"
         id="g1609" />
      <g
         style="fill:#ffffff;fill-opacity:1;stroke:#ffffff;stroke-width:39.3701;stroke-linecap:round;stroke-linejoin:round;stroke-opacity:1"
         id="g1615" />
      <g
         style="fill:#ffffff;fill-opacity:1;stroke:#ffffff;stroke-width:39.3701;stroke-linecap:round;stroke-linejoin:round;stroke-opacity:1"
         id="g1621" />
      <g
         style="fill:#ffffff;fill-opacity:1;stroke:#ffffff;stroke-width:39.3701;stroke-linecap:round;stroke-linejoin:round;stroke-opacity:1"
         id="g1627" />
      <g
         style="fill:#ffffff;fill-opacity:1;stroke:#ffffff;stroke-width:39.3701;stroke-linecap:round;stroke-linejoin:round;stroke-opacity:1"
         id="g1633" />
      <g
         style="fill:#ffffff;fill-opacity:1;stroke:#ffffff;stroke-width:39.3701;stroke-linecap:round;stroke-linejoin:round;stroke-opacity:1"
         id="g1639" />
      <g
         style="fill:#ffffff;fill-opacity:1;stroke:#ffffff;stroke-width:39.3701;stroke-linecap:round;stroke-linejoin:round;stroke-opacity:1"
         id="g1645" />
      <g
         style="fill:#ffffff;fill-opacity:1;stroke:#ffffff;stroke-width:39.3701;stroke-linecap:round;stroke-linejoin:round;stroke-opacity:1"
         id="g1651" />
      <g
         style="fill:#ffffff;fill-opacity:1;stroke:#ffffff;stroke-width:39.3701;stroke-linecap:round;stroke-linejoin:round;stroke-opacity:1"
         id="g1657" />
      <g
         style="fill:#ffffff;fill-opacity:1;stroke:#ffffff;stroke-width:39.3701;stroke-linecap:round;stroke-linejoin:round;stroke-opacity:1"
         id="g1663" />
      <g
         style="fill:#ffffff;fill-opacity:1;stroke:#ffffff;stroke-width:39.3701;stroke-linecap:round;stroke-linejoin:round;stroke-opacity:1"
         id="g1669" />
      <g
         style="fill:#ffffff;fill-opacity:1;stroke:#ffffff;stroke-width:39.3701;stroke-linecap:round;stroke-linejoin:round;stroke-opacity:1"
         id="g1675" />
      <g
         style="fill:#ffffff;fill-opacity:1;stroke:#ffffff;stroke-width:39.3701;stroke-linecap:round;stroke-linejoin:round;stroke-opacity:1"
         id="g1681" />
      <g
         style="fill:#ffffff;fill-opacity:1;stroke:#ffffff;stroke-width:39.3701;stroke-linecap:round;stroke-linejoin:round;stroke-opacity:1"
         id="g1687" />
      <g
         style="fill:#ffffff;fill-opacity:1;stroke:#ffffff;stroke-width:39.3701;stroke-linecap:round;stroke-linejoin:round;stroke-opacity:1"
         id="g1693" />
      <g
         style="fill:#ffffff;fill-opacity:1;stroke:#ffffff;stroke-width:39.3701;stroke-linecap:round;stroke-linejoin:round;stroke-opacity:1"
         id="g1699" />
      <g
         style="fill:#ffffff;fill-opacity:1;stroke:#ffffff;stroke-width:39.3701;stroke-linecap:round;stroke-linejoin:round;stroke-opacity:1"
         id="g1705" />
      <g
         style="fill:#ffffff;fill-opacity:1;stroke:#ffffff;stroke-width:39.3701;stroke-linecap:round;stroke-linejoin:round;stroke-opacity:1"
         id="g1711" />
      <g
         style="fill:#ffffff;fill-opacity:1;stroke:#ffffff;stroke-width:39.3701;stroke-linecap:round;stroke-linejoin:round;stroke-opacity:1"
         id="g1717" />
      <g
         style="fill:#ffffff;fill-opacity:1;stroke:#ffffff;stroke-width:39.3701;stroke-linecap:round;stroke-linejoin:round;stroke-opacity:1"
         id="g1723" />
      <g
         style="fill:#ffffff;fill-opacity:1;stroke:#ffffff;stroke-width:39.3701;stroke-linecap:round;stroke-linejoin:round;stroke-opacity:1"
         id="g1729" />
      <g
         style="fill:#ffffff;fill-opacity:1;stroke:#ffffff;stroke-width:39.3701;stroke-linecap:round;stroke-linejoin:round;stroke-opacity:1"
         id="g1735" />
      <g
         style="fill:#ffffff;fill-opacity:1;stroke:#ffffff;stroke-width:39.3701;stroke-linecap:round;stroke-linejoin:round;stroke-opacity:1"
         id="g1741" />
      <g
         style="fill:#ffffff;fill-opacity:1;stroke:#ffffff;stroke-width:39.3701;stroke-linecap:round;stroke-linejoin:round;stroke-opacity:1"
         id="g1747" />
      <g
         style="fill:#ffffff;fill-opacity:1;stroke:#ffffff;stroke-width:39.3701;stroke-linecap:round;stroke-linejoin:round;stroke-opacity:1"
         id="g1753" />
      <g
         style="fill:#ffffff;fill-opacity:1;stroke:#ffffff;stroke-width:39.3701;stroke-linecap:round;stroke-linejoin:round;stroke-opacity:1"
         id="g1759" />
      <g
         style="fill:#ffffff;fill-opacity:1;stroke:#ffffff;stroke-width:39.3701;stroke-linecap:round;stroke-linejoin:round;stroke-opacity:1"
         id="g1765" />
      <g
         style="fill:#ffffff;fill-opacity:1;stroke:#ffffff;stroke-width:39.3701;stroke-linecap:round;stroke-linejoin:round;stroke-opacity:1"
         id="g1771" />
      <g
         style="fill:#ffffff;fill-opacity:1;stroke:#ffffff;stroke-width:39.3701;stroke-linecap:round;stroke-linejoin:round;stroke-opacity:1"
         id="g1777" />
      <g
         style="fill:#ffffff;fill-opacity:1;stroke:#ffffff;stroke-width:39.3701;stroke-linecap:round;stroke-linejoin:round;stroke-opacity:1"
         id="g1783" />
      <g
         style="fill:#ffffff;fill-opacity:1;stroke:#ffffff;stroke-width:39.3701;stroke-linecap:round;stroke-linejoin:round;stroke-opacity:1"
         id="g1789" />
      <g
         style="fill:#ffffff;fill-opacity:1;stroke:#ffffff;stroke-width:39.3701;stroke-linecap:round;stroke-linejoin:round;stroke-opacity:1"
         id="g1795" />
      <g
         style="fill:#ffffff;fill-opacity:1;stroke:#ffffff;stroke-width:39.3701;stroke-linecap:round;stroke-linejoin:round;stroke-opacity:1"
         id="g1801" />
      <g
         style="fill:#ffffff;fill-opacity:1;stroke:#ffffff;stroke-width:39.3701;stroke-linecap:round;stroke-linejoin:round;stroke-opacity:1"
         id="g1807" />
      <g
         style="fill:#ffffff;fill-opacity:1;stroke:#ffffff;stroke-width:39.3701;stroke-linecap:round;stroke-linejoin:round;stroke-opacity:1"
         id="g1813" />
      <g
         style="fill:#ffffff;fill-opacity:1;stroke:#ffffff;stroke-width:39.3701;stroke-linecap:round;stroke-linejoin:round;stroke-opacity:1"
         id="g1819" />
      <g
         style="fill:#ffffff;fill-opacity:1;stroke:#ffffff;stroke-width:39.3701;stroke-linecap:round;stroke-linejoin:round;stroke-opacity:1"
         id="g1825" />
      <g
         style="fill:#ffffff;fill-opacity:1;stroke:#ffffff;stroke-width:39.3701;stroke-linecap:round;stroke-linejoin:round;stroke-opacity:1"
         id="g1831" />
      <g
         style="fill:#ffffff;fill-opacity:1;stroke:#ffffff;stroke-width:39.3701;stroke-linecap:round;stroke-linejoin:round;stroke-opacity:1"
         id="g1837" />
      <g
         style="fill:#ffffff;fill-opacity:1;stroke:#ffffff;stroke-width:39.3701;stroke-linecap:round;stroke-linejoin:round;stroke-opacity:1"
         id="g1843" />
      <g
         style="fill:#ffffff;fill-opacity:1;stroke:#ffffff;stroke-width:39.3701;stroke-linecap:round;stroke-linejoin:round;stroke-opacity:1"
         id="g1849" />
      <g
         style="fill:#ffffff;fill-opacity:1;stroke:#ffffff;stroke-width:39.3701;stroke-linecap:round;stroke-linejoin:round;stroke-opacity:1"
         id="g1855" />
      <g
         style="fill:#ffffff;fill-opacity:1;stroke:#ffffff;stroke-width:39.3701;stroke-linecap:round;stroke-linejoin:round;stroke-opacity:1"
         id="g1861" />
      <g
         style="fill:#ffffff;fill-opacity:1;stroke:#ffffff;stroke-width:39.3701;stroke-linecap:round;stroke-linejoin:round;stroke-opacity:1"
         id="g1867" />
      <g
         style="fill:#ffffff;fill-opacity:1;stroke:#ffffff;stroke-width:39.3701;stroke-linecap:round;stroke-linejoin:round;stroke-opacity:1"
         id="g1873" />
      <g
         style="fill:#ffffff;fill-opacity:1;stroke:#ffffff;stroke-width:39.3701;stroke-linecap:round;stroke-linejoin:round;stroke-opacity:1"
         id="g1879" />
      <g
         style="fill:#ffffff;fill-opacity:1;stroke:#ffffff;stroke-width:39.3701;stroke-linecap:round;stroke-linejoin:round;stroke-opacity:1"
         id="g1885" />
      <g
         style="fill:#ffffff;fill-opacity:1;stroke:#ffffff;stroke-width:39.3701;stroke-linecap:round;stroke-linejoin:round;stroke-opacity:1"
         id="g1891" />
      <g
         style="fill:#ffffff;fill-opacity:1;stroke:#ffffff;stroke-width:39.3701;stroke-linecap:round;stroke-linejoin:round;stroke-opacity:1"
         id="g1897" />
      <g
         style="fill:#ffffff;fill-opacity:1;stroke:#ffffff;stroke-width:39.3701;stroke-linecap:round;stroke-linejoin:round;stroke-opacity:1"
         id="g1903" />
      <g
         style="fill:#ffffff;fill-opacity:1;stroke:#ffffff;stroke-width:39.3701;stroke-linecap:round;stroke-linejoin:round;stroke-opacity:1"
         id="g1909" />
      <g
         style="fill:#ffffff;fill-opacity:1;stroke:#ffffff;stroke-width:39.3701;stroke-linecap:round;stroke-linejoin:round;stroke-opacity:1"
         id="g1915" />
      <g
         style="fill:#ffffff;fill-opacity:1;stroke:#ffffff;stroke-width:39.3701;stroke-linecap:round;stroke-linejoin:round;stroke-opacity:1"
         id="g1921" />
      <g
         style="fill:#ffffff;fill-opacity:1;stroke:#ffffff;stroke-width:39.3701;stroke-linecap:round;stroke-linejoin:round;stroke-opacity:1"
         id="g1927" />
      <g
         style="fill:#ffffff;fill-opacity:1;stroke:#ffffff;stroke-width:39.3701;stroke-linecap:round;stroke-linejoin:round;stroke-opacity:1"
         id="g1933" />
      <g
         style="fill:#ffffff;fill-opacity:1;stroke:#ffffff;stroke-width:39.3701;stroke-linecap:round;stroke-linejoin:round;stroke-opacity:1"
         id="g1939" />
      <g
         style="fill:#ffffff;fill-opacity:1;stroke:#ffffff;stroke-width:39.3701;stroke-linecap:round;stroke-linejoin:round;stroke-opacity:1"
         id="g1945" />
      <g
         style="fill:#ffffff;fill-opacity:1;stroke:#ffffff;stroke-width:39.3701;stroke-linecap:round;stroke-linejoin:round;stroke-opacity:1"
         id="g1951" />
      <g
         style="fill:#ffffff;fill-opacity:1;stroke:#ffffff;stroke-width:39.3701;stroke-linecap:round;stroke-linejoin:round;stroke-opacity:1"
         id="g1957" />
      <g
         style="fill:#ffffff;fill-opacity:1;stroke:#ffffff;stroke-width:39.3701;stroke-linecap:round;stroke-linejoin:round;stroke-opacity:1"
         id="g1963" />
      <g
         style="fill:#ffffff;fill-opacity:1;stroke:#ffffff;stroke-width:39.3701;stroke-linecap:round;stroke-linejoin:round;stroke-opacity:1"
         id="g1969" />
      <g
         style="fill:#ffffff;fill-opacity:1;stroke:#ffffff;stroke-width:39.3701;stroke-linecap:round;stroke-linejoin:round;stroke-opacity:1"
         id="g1975" />
      <g
         style="fill:#ffffff;fill-opacity:1;stroke:#ffffff;stroke-width:0;stroke-linecap:round;stroke-linejoin:round;stroke-opacity:1"
         id="g1979"
         transform="translate(-11788.01,-52300.271)">
        <circle
           cx="19935.301"
           cy="13464.6"
           r="137.795"
           id="circle1977" />
      </g>
      <g
         style="fill:#ffffff;fill-opacity:1;stroke:#ffffff;stroke-width:39.3701;stroke-linecap:round;stroke-linejoin:round;stroke-opacity:1"
         id="g1981" />
      <g
         style="fill:#ffffff;fill-opacity:1;stroke:#ffffff;stroke-width:39.3701;stroke-linecap:round;stroke-linejoin:round;stroke-opacity:1"
         id="g1987" />
      <g
         style="fill:#ffffff;fill-opacity:1;stroke:#ffffff;stroke-width:39.3701;stroke-linecap:round;stroke-linejoin:round;stroke-opacity:1"
         id="g1993" />
      <g
         style="fill:#ffffff;fill-opacity:1;stroke:#ffffff;stroke-width:39.3701;stroke-linecap:round;stroke-linejoin:round;stroke-opacity:1"
         id="g1999" />
      <g
         style="fill:#ffffff;fill-opacity:1;stroke:#ffffff;stroke-width:39.3701;stroke-linecap:round;stroke-linejoin:round;stroke-opacity:1"
         id="g2005" />
      <g
         style="fill:#ffffff;fill-opacity:1;stroke:#ffffff;stroke-width:39.3701;stroke-linecap:round;stroke-linejoin:round;stroke-opacity:1"
         id="g2011" />
      <g
         style="fill:#ffffff;fill-opacity:1;stroke:#ffffff;stroke-width:39.3701;stroke-linecap:round;stroke-linejoin:round;stroke-opacity:1"
         id="g2017" />
      <g
         style="fill:#ffffff;fill-opacity:1;stroke:#ffffff;stroke-width:39.3701;stroke-linecap:round;stroke-linejoin:round;stroke-opacity:1"
         id="g2023" />
      <g
         style="fill:#ffffff;fill-opacity:1;stroke:#ffffff;stroke-width:39.3701;stroke-linecap:round;stroke-linejoin:round;stroke-opacity:1"
         id="g2029" />
      <g
         style="fill:#ffffff;fill-opacity:1;stroke:#ffffff;stroke-width:39.3701;stroke-linecap:round;stroke-linejoin:round;stroke-opacity:1"
         id="g2035" />
      <g
         style="fill:#ffffff;fill-opacity:1;stroke:#ffffff;stroke-width:39.3701;stroke-linecap:round;stroke-linejoin:round;stroke-opacity:1"
         id="g2041" />
      <g
         style="fill:#ffffff;fill-opacity:1;stroke:#ffffff;stroke-width:39.3701;stroke-linecap:round;stroke-linejoin:round;stroke-opacity:1"
         id="g2047" />
      <g
         style="fill:#ffffff;fill-opacity:1;stroke:#ffffff;stroke-width:39.3701;stroke-linecap:round;stroke-linejoin:round;stroke-opacity:1"
         id="g2053" />
      <g
         style="fill:#ffffff;fill-opacity:1;stroke:#ffffff;stroke-width:39.3701;stroke-linecap:round;stroke-linejoin:round;stroke-opacity:1"
         id="g2059" />
      <g
         style="fill:#ffffff;fill-opacity:1;stroke:#ffffff;stroke-width:39.3701;stroke-linecap:round;stroke-linejoin:round;stroke-opacity:1"
         id="g2065" />
      <g
         style="fill:#ffffff;fill-opacity:1;stroke:#ffffff;stroke-width:39.3701;stroke-linecap:round;stroke-linejoin:round;stroke-opacity:1"
         id="g2071" />
      <g
         style="fill:#ffffff;fill-opacity:1;stroke:#ffffff;stroke-width:39.3701;stroke-linecap:round;stroke-linejoin:round;stroke-opacity:1"
         id="g2077" />
      <g
         style="fill:#ffffff;fill-opacity:1;stroke:#ffffff;stroke-width:39.3701;stroke-linecap:round;stroke-linejoin:round;stroke-opacity:1"
         id="g2083" />
      <g
         style="fill:#ffffff;fill-opacity:1;stroke:#ffffff;stroke-width:39.3701;stroke-linecap:round;stroke-linejoin:round;stroke-opacity:1"
         id="g2089" />
      <g
         style="fill:#ffffff;fill-opacity:1;stroke:#ffffff;stroke-width:39.3701;stroke-linecap:round;stroke-linejoin:round;stroke-opacity:1"
         id="g2095" />
      <g
         style="fill:#ffffff;fill-opacity:1;stroke:#ffffff;stroke-width:39.3701;stroke-linecap:round;stroke-linejoin:round;stroke-opacity:1"
         id="g2101" />
      <g
         style="fill:#ffffff;fill-opacity:1;stroke:#ffffff;stroke-width:39.3701;stroke-linecap:round;stroke-linejoin:round;stroke-opacity:1"
         id="g2107" />
      <g
         style="fill:#ffffff;fill-opacity:1;stroke:#ffffff;stroke-width:39.3701;stroke-linecap:round;stroke-linejoin:round;stroke-opacity:1"
         id="g2113" />
      <g
         style="fill:#ffffff;fill-opacity:1;stroke:#ffffff;stroke-width:39.3701;stroke-linecap:round;stroke-linejoin:round;stroke-opacity:1"
         id="g2119" />
      <g
         style="fill:#ffffff;fill-opacity:1;stroke:#ffffff;stroke-width:39.3701;stroke-linecap:round;stroke-linejoin:round;stroke-opacity:1"
         id="g2125" />
      <g
         style="fill:#ffffff;fill-opacity:1;stroke:#ffffff;stroke-width:39.3701;stroke-linecap:round;stroke-linejoin:round;stroke-opacity:1"
         id="g2131" />
      <g
         style="fill:#ffffff;fill-opacity:1;stroke:#ffffff;stroke-width:39.3701;stroke-linecap:round;stroke-linejoin:round;stroke-opacity:1"
         id="g2137" />
      <g
         style="fill:#ffffff;fill-opacity:1;stroke:#ffffff;stroke-width:39.3701;stroke-linecap:round;stroke-linejoin:round;stroke-opacity:1"
         id="g2143" />
      <g
         style="fill:#000000;fill-opacity:1;stroke:#000000;stroke-width:39.3701;stroke-linecap:round;stroke-linejoin:round;stroke-opacity:1"
         id="g2145" />
      <path
         id="rect4832"
         style="fill:#0000ff;fill-rule:evenodd;stroke-width:135.499"
         d="m 7884.5734,-45348.734 h 2922.4396 c 390.091,0 704.134,314.044 704.134,704.134 v 28906.692 c 0,390.091 -314.043,704.135 -704.134,704.135 H 7884.5734 c -390.0905,0 -704.1344,-314.044 -704.1344,-704.135 V -44644.6 c 0,-390.09 314.0439,-704.134 704.1344,-704.134 z" />
      <g
         id="g17302"
         transform="translate(0,71.950172)">
        <path
           id="rect5134"
           style="fill:#0000ff;fill-rule:evenodd;stroke-width:106.901"
           d="m 18298.916,-41286.828 h 4377.222 c 859.556,0 1551.546,691.99 1551.546,1551.546 v 4377.222 c 0,859.557 -691.99,1551.547 -1551.546,1551.547 h -4377.222 c -859.557,0 -1551.547,-691.99 -1551.547,-1551.547 v -4377.222 c 0,-859.556 691.99,-1551.546 1551.547,-1551.546 z" />
        <path
           id="rect5134-9"
           style="fill:#0000ff;fill-rule:evenodd;stroke-width:106.901"
           d="m 18912.723,-33806.305 h 3149.606 v 1181.103 h -3149.606 z" />
      </g>
      <path
         id="rect5136"
         style="fill:#0000ff;fill-rule:evenodd;stroke-width:94.1416"
         d="m 13553.065,-46018.027 h 2845.299 c 411.459,0 742.705,331.246 742.705,742.704 v 2845.3 c 0,411.458 -331.246,742.704 -742.705,742.704 h -2845.299 c -411.458,0 -742.705,-331.246 -742.705,-742.704 v -2845.3 c 0,-411.458 331.247,-742.704 742.705,-742.704 z" />
      <g
         aria-label="Neutral 
Switch"
         id="text51781"
         style="font-size:1181.1px;line-height:1.25;stroke-width:104.167">
        <path
           d="m 18209.221,-44076.027 h -141.293 l -407.157,-768.177 v 768.177 h -106.691 v -858.72 h 177.05 l 371.4,701.278 v -701.278 h 106.691 z"
           id="path192685" />
        <path
           d="m 18968.17,-44386.873 h -474.631 q 0,59.401 17.878,103.807 17.878,43.83 49.02,72.089 29.989,27.682 70.935,41.523 41.523,13.841 91.12,13.841 65.745,0 132.067,-25.952 66.898,-26.529 95.157,-51.904 h 5.767 v 118.225 q -54.787,23.069 -111.882,38.64 -57.094,15.571 -119.955,15.571 -160.325,0 -250.292,-86.506 -89.966,-87.083 -89.966,-246.832 0,-158.018 85.929,-250.868 86.507,-92.85 227.224,-92.85 130.336,0 200.694,76.125 70.935,76.126 70.935,216.266 z m -105.537,-83.047 q -0.577,-85.352 -43.253,-132.066 -42.1,-46.713 -128.607,-46.713 -87.083,0 -138.986,51.327 -51.328,51.327 -58.248,127.452 z"
           id="path192687" />
        <path
           d="m 19666.565,-44076.027 h -108.421 v -71.512 q -54.788,43.253 -104.961,66.321 -50.174,23.069 -110.728,23.069 -101.501,0 -158.019,-61.708 -56.517,-62.285 -56.517,-182.24 v -418.114 h 108.421 v 366.787 q 0,49.02 4.614,84.199 4.613,34.603 19.608,59.401 15.571,25.375 40.369,36.91 24.799,11.534 72.089,11.534 42.1,0 91.697,-21.915 50.174,-21.915 93.427,-55.941 v -480.975 h 108.421 z"
           id="path192689" />
        <path
           d="m 20214.439,-44081.794 q -30.566,8.073 -66.899,13.264 -35.755,5.19 -64.014,5.19 -98.617,0 -149.945,-53.057 -51.327,-53.057 -51.327,-170.129 v -342.565 h -73.242 v -91.12 h 73.242 v -185.124 h 108.422 v 185.124 h 223.763 v 91.12 h -223.763 v 293.545 q 0,50.75 2.306,79.585 2.307,28.259 16.148,53.058 12.688,23.068 34.603,34.026 22.492,10.38 68.052,10.38 26.528,0 55.364,-7.497 28.835,-8.074 41.523,-13.264 h 5.767 z"
           id="path192691" />
        <path
           d="m 20747.894,-44601.986 h -5.767 q -24.221,-5.767 -47.29,-8.074 -22.492,-2.883 -53.634,-2.883 -50.173,0 -96.887,22.491 -46.713,21.915 -89.966,57.094 v 457.331 h -108.422 v -644.184 h 108.422 v 95.157 q 64.591,-51.904 113.611,-73.242 49.597,-21.915 100.924,-21.915 28.259,0 40.947,1.73 12.687,1.153 38.062,5.19 z"
           id="path192693" />
        <path
           d="m 21351.709,-44076.027 h -107.845 v -68.629 q -14.418,9.804 -39.216,27.682 -24.222,17.302 -47.29,27.682 -27.106,13.265 -62.285,21.915 -35.179,9.228 -82.469,9.228 -87.083,0 -147.638,-57.671 -60.554,-57.671 -60.554,-147.061 0,-73.242 31.142,-118.225 31.719,-45.56 89.967,-71.512 58.824,-25.952 141.293,-35.18 82.47,-9.227 177.05,-13.841 v -16.724 q 0,-36.909 -13.264,-61.131 -12.688,-24.222 -36.91,-38.063 -23.068,-13.264 -55.364,-17.878 -32.295,-4.614 -67.475,-4.614 -42.676,0 -95.157,11.534 -52.48,10.958 -108.421,32.296 h -5.767 v -110.151 q 31.719,-8.651 91.697,-19.032 59.977,-10.38 118.225,-10.38 68.052,0 118.225,11.534 50.751,10.957 87.66,38.063 36.333,26.528 55.364,68.628 19.032,42.1 19.032,104.384 z m -107.845,-158.595 v -179.357 q -49.597,2.884 -117.072,8.651 -66.898,5.767 -106.114,16.724 -46.714,13.265 -75.549,41.523 -28.836,27.682 -28.836,76.703 0,55.364 33.449,83.623 33.45,27.682 102.078,27.682 57.094,0 104.384,-21.915 47.29,-22.492 87.66,-53.634 z"
           id="path192695" />
        <path
           d="m 21671.205,-44076.027 h -108.421 v -897.36 h 108.421 z"
           id="path192697" />
        <path
           d="m 18178.079,-42844.754 q 0,50.174 -23.645,99.194 -23.068,49.021 -65.168,83.046 -46.137,36.91 -107.845,57.671 -61.131,20.762 -147.637,20.762 -92.85,0 -167.246,-17.302 -73.818,-17.301 -150.521,-51.327 v -143.023 h 8.074 q 65.168,54.21 150.521,83.622 85.353,29.413 160.325,29.413 106.115,0 164.939,-39.793 59.401,-39.793 59.401,-106.115 0,-57.094 -28.259,-84.199 -27.682,-27.106 -84.776,-42.1 -43.253,-11.534 -94.003,-19.031 -50.174,-7.498 -106.692,-19.032 -114.188,-24.222 -169.552,-82.469 -54.787,-58.825 -54.787,-152.828 0,-107.845 91.12,-176.473 91.12,-69.205 231.26,-69.205 90.543,0 166.092,17.301 75.549,17.301 133.797,42.677 v 134.949 h -8.074 q -49.021,-41.523 -129.183,-68.628 -79.586,-27.682 -163.209,-27.682 -91.696,0 -147.637,38.063 -55.364,38.063 -55.364,98.04 0,53.634 27.682,84.2 27.682,30.565 97.464,46.713 36.909,8.074 104.961,19.608 68.051,11.535 115.341,23.645 95.734,25.376 144.178,76.703 48.443,51.327 48.443,143.6 z"
           id="path192699" />
        <path
           d="m 19163.098,-43243.836 -167.822,644.184 h -100.348 l -165.515,-496.547 -164.362,496.547 h -99.771 l -169.552,-644.184 h 113.035 l 118.225,498.853 160.902,-498.853 h 89.39 l 164.939,498.853 111.881,-498.853 z"
           id="path192701" />
        <path
           d="m 19435.881,-43351.681 h -122.262 v -112.458 h 122.262 z m -6.92,752.029 h -108.421 v -644.184 h 108.421 z"
           id="path192703" />
        <path
           d="m 19979.141,-42605.419 q -30.565,8.073 -66.898,13.264 -35.756,5.19 -64.015,5.19 -98.617,0 -149.944,-53.057 -51.327,-53.057 -51.327,-170.129 v -342.565 h -73.242 v -91.12 h 73.242 v -185.124 h 108.421 v 185.124 h 223.763 v 91.12 h -223.763 v 293.545 q 0,50.75 2.307,79.585 2.307,28.259 16.148,53.058 12.688,23.068 34.602,34.025 22.492,10.381 68.052,10.381 26.529,0 55.364,-7.497 28.836,-8.074 41.523,-13.264 h 5.767 z"
           id="path192705" />
        <path
           d="m 20586.992,-42640.022 q -54.21,25.952 -103.23,40.37 -48.444,14.417 -103.231,14.417 -69.782,0 -128.03,-20.184 -58.247,-20.762 -99.77,-62.285 -42.1,-41.523 -65.169,-104.961 -23.068,-63.438 -23.068,-148.214 0,-158.019 86.506,-247.985 87.084,-89.967 229.531,-89.967 55.364,0 108.421,15.571 53.634,15.572 98.04,38.063 v 120.532 h -5.767 q -49.597,-38.639 -102.654,-59.401 -52.48,-20.761 -102.654,-20.761 -92.273,0 -145.907,62.284 -53.058,61.708 -53.058,181.664 0,116.495 51.904,179.356 52.481,62.285 147.061,62.285 32.872,0 66.898,-8.651 34.026,-8.65 61.131,-22.491 23.645,-12.111 44.407,-25.376 20.761,-13.841 32.872,-23.645 h 5.767 z"
           id="path192707" />
        <path
           d="m 21265.202,-42599.652 h -108.421 v -366.787 q 0,-44.407 -5.19,-83.046 -5.191,-39.217 -19.032,-61.132 -14.417,-24.221 -41.523,-35.755 -27.105,-12.111 -70.358,-12.111 -44.407,0 -92.85,21.915 -48.444,21.915 -92.851,55.94 v 480.976 h -108.421 v -897.36 h 108.421 v 324.688 q 50.751,-42.1 104.961,-65.745 54.211,-23.645 111.305,-23.645 104.385,0 159.172,62.861 54.787,62.861 54.787,181.087 z"
           id="path192709" />
      </g>
      <g
         aria-label="Buttons"
         id="text51781-8"
         style="font-size:1181.1px;line-height:1.25;stroke-width:104.167">
        <path
           d="m 19067.968,-31443.187 q 0,64.014 -24.221,113.035 -24.222,49.02 -65.168,80.739 -48.444,38.063 -106.692,54.21 -57.671,16.148 -147.06,16.148 h -304.503 v -858.719 h 254.329 q 94.003,0 140.717,6.92 46.713,6.921 89.39,28.836 47.29,24.798 68.628,64.014 21.338,38.64 21.338,92.85 0,61.132 -31.142,104.385 -31.142,42.676 -83.046,68.628 v 4.614 q 87.083,17.878 137.257,76.702 50.173,58.248 50.173,147.638 z m -192.044,-386.972 q 0,-31.142 -10.38,-52.481 -10.381,-21.338 -33.45,-34.602 -27.105,-15.571 -65.744,-19.032 -38.64,-4.037 -95.734,-4.037 h -136.103 v 247.985 h 147.637 q 53.634,0 85.353,-5.19 31.719,-5.767 58.824,-23.068 27.106,-17.302 38.063,-44.407 11.534,-27.682 11.534,-65.168 z m 73.242,391.585 q 0,-51.904 -15.571,-82.469 -15.571,-30.566 -56.517,-51.904 -27.682,-14.418 -67.475,-18.455 -39.216,-4.613 -95.734,-4.613 h -179.356 v 319.496 h 151.097 q 74.973,0 122.839,-7.497 47.867,-8.074 78.433,-28.835 32.295,-22.492 47.29,-51.327 14.994,-28.836 14.994,-74.396 z"
           id="path192652" />
        <path
           d="m 19755.405,-31179.055 h -108.421 v -71.512 q -54.787,43.254 -104.961,66.322 -50.174,23.068 -110.728,23.068 -101.501,0 -158.018,-61.708 -56.518,-62.284 -56.518,-182.24 v -418.114 h 108.422 v 366.787 q 0,49.021 4.613,84.2 4.614,34.602 19.608,59.401 15.572,25.375 40.37,36.909 24.798,11.534 72.089,11.534 42.099,0 91.696,-21.915 50.174,-21.914 93.427,-55.94 v -480.976 h 108.421 z"
           id="path192654" />
        <path
           d="m 20303.279,-31184.822 q -30.566,8.074 -66.898,13.265 -35.756,5.19 -64.015,5.19 -98.617,0 -149.944,-53.057 -51.327,-53.058 -51.327,-170.129 v -342.566 h -73.242 v -91.12 h 73.242 v -185.123 h 108.421 v 185.123 h 223.763 v 91.12 h -223.763 v 293.545 q 0,50.751 2.307,79.586 2.307,28.259 16.148,53.057 12.687,23.069 34.602,34.026 22.492,10.381 68.052,10.381 26.528,0 55.364,-7.497 28.835,-8.074 41.523,-13.265 h 5.767 z"
           id="path192656" />
        <path
           d="m 20769.26,-31184.822 q -30.566,8.074 -66.898,13.265 -35.756,5.19 -64.015,5.19 -98.617,0 -149.944,-53.057 -51.327,-53.058 -51.327,-170.129 v -342.566 h -73.243 v -91.12 h 73.243 v -185.123 h 108.421 v 185.123 h 223.763 v 91.12 h -223.763 v 293.545 q 0,50.751 2.307,79.586 2.306,28.259 16.147,53.057 12.688,23.069 34.603,34.026 22.492,10.381 68.052,10.381 26.528,0 55.364,-7.497 28.835,-8.074 41.523,-13.265 h 5.767 z"
           id="path192658" />
        <path
           d="m 21449.776,-31500.858 q 0,157.441 -80.739,248.561 -80.739,91.12 -216.266,91.12 -136.68,0 -217.419,-91.12 -80.162,-91.12 -80.162,-248.561 0,-157.442 80.162,-248.562 80.739,-91.697 217.419,-91.697 135.527,0 216.266,91.697 80.739,91.12 80.739,248.562 z m -111.881,0 q 0,-125.146 -49.02,-185.701 -49.021,-61.131 -136.104,-61.131 -88.236,0 -137.256,61.131 -48.444,60.555 -48.444,185.701 0,121.109 49.02,183.97 49.021,62.284 136.68,62.284 86.507,0 135.527,-61.707 49.597,-62.285 49.597,-184.547 z"
           id="path192660" />
        <path
           d="M 22156.822,-31179.055 H 22048.4 v -366.787 q 0,-44.406 -5.19,-83.046 -5.19,-39.216 -19.031,-61.131 -14.418,-24.222 -41.523,-35.756 -27.106,-12.111 -70.359,-12.111 -44.406,0 -92.85,21.915 -48.444,21.915 -92.85,55.941 v 480.975 h -108.421 v -644.184 h 108.421 v 71.512 q 50.75,-42.099 104.961,-65.745 54.21,-23.645 111.305,-23.645 104.384,0 159.171,62.862 54.788,62.861 54.788,181.086 z"
           id="path192662" />
        <path
           d="m 22825.804,-31364.755 q 0,88.236 -73.242,144.754 -72.665,56.517 -198.965,56.517 -71.511,0 -131.489,-16.724 -59.401,-17.301 -99.771,-37.486 v -121.686 h 5.767 q 51.327,38.64 114.189,61.708 62.861,22.492 120.532,22.492 71.512,0 111.881,-23.069 40.37,-23.068 40.37,-72.665 0,-38.063 -21.915,-57.671 -21.915,-19.608 -84.199,-33.449 -23.069,-5.19 -60.555,-12.111 -36.909,-6.92 -67.475,-14.994 -84.776,-22.492 -120.532,-65.745 -35.179,-43.83 -35.179,-107.268 0,-39.793 16.148,-74.972 16.724,-35.179 50.173,-62.861 32.296,-27.106 81.893,-42.677 50.174,-16.148 111.881,-16.148 57.671,0 116.496,14.418 59.401,13.841 98.617,34.026 v 115.918 h -5.767 q -41.523,-30.565 -100.924,-51.327 -59.401,-21.338 -116.495,-21.338 -59.402,0 -100.348,23.068 -40.946,22.492 -40.946,67.475 0,39.793 24.798,59.978 24.222,20.185 78.433,32.872 29.989,6.921 66.898,13.841 37.486,6.921 62.285,12.688 75.548,17.301 116.495,59.401 40.946,42.677 40.946,113.035 z"
           id="path192664" />
      </g>
      <g
         aria-label="Volvo Penta
D2-40 Engine Control"
         transform="rotate(90)"
         id="text51781-8-4"
         style="font-size:1181.1px;line-height:1.25;-inkscape-font-specification:sans-serif;stroke-width:104.167">
        <path
           d="m -27903.08,-18910.786 -312.577,858.72 h -152.251 l -312.576,-858.72 h 122.262 l 269.323,755.489 269.323,-755.489 z"
           id="path192577" />
        <path
           d="m -27232.368,-18373.87 q 0,157.442 -80.739,248.562 -80.739,91.12 -216.266,91.12 -136.68,0 -217.419,-91.12 -80.163,-91.12 -80.163,-248.562 0,-157.442 80.163,-248.562 80.739,-91.696 217.419,-91.696 135.527,0 216.266,91.696 80.739,91.12 80.739,248.562 z m -111.881,0 q 0,-125.146 -49.021,-185.7 -49.02,-61.131 -136.103,-61.131 -88.236,0 -137.257,61.131 -48.443,60.554 -48.443,185.7 0,121.109 49.02,183.97 49.02,62.285 136.68,62.285 86.506,0 135.527,-61.708 49.597,-62.285 49.597,-184.547 z"
           id="path192579" />
        <path
           d="m -26954.394,-18052.066 h -108.421 v -897.36 h 108.421 z"
           id="path192581" />
        <path
           d="m -26181.604,-18696.25 -260.673,644.184 h -108.998 l -258.942,-644.184 h 117.649 l 199.541,512.694 197.811,-512.694 z"
           id="path192583" />
        <path
           d="m -25490.707,-18373.87 q 0,157.442 -80.739,248.562 -80.739,91.12 -216.266,91.12 -136.68,0 -217.419,-91.12 -80.163,-91.12 -80.163,-248.562 0,-157.442 80.163,-248.562 80.739,-91.696 217.419,-91.696 135.527,0 216.266,91.696 80.739,91.12 80.739,248.562 z m -111.881,0 q 0,-125.146 -49.021,-185.7 -49.02,-61.131 -136.103,-61.131 -88.236,0 -137.257,61.131 -48.443,60.554 -48.443,185.7 0,121.109 49.02,183.97 49.02,62.285 136.68,62.285 86.507,0 135.527,-61.708 49.597,-62.285 49.597,-184.547 z"
           id="path192585" />
        <path
           d="m -24336.712,-18651.267 q 0,57.094 -20.185,106.114 -19.608,48.444 -55.364,84.2 -44.407,44.407 -104.961,66.898 -60.555,21.915 -152.828,21.915 h -114.188 v 320.074 h -114.189 v -858.72 h 232.991 q 77.279,0 130.913,13.264 53.634,12.688 95.157,40.37 49.02,32.872 75.548,81.893 27.106,49.02 27.106,123.992 z m -118.802,2.884 q 0,-44.407 -15.571,-77.279 -15.572,-32.873 -47.291,-53.634 -27.682,-17.878 -63.438,-25.376 -35.179,-8.074 -89.389,-8.074 h -113.035 v 343.142 h 96.31 q 69.205,0 112.458,-12.111 43.253,-12.687 70.359,-39.793 27.105,-27.682 38.063,-58.247 11.534,-30.566 11.534,-68.628 z"
           id="path192587" />
        <path
           d="m -23655.042,-18362.913 h -474.631 q 0,59.401 17.877,103.808 17.878,43.83 49.021,72.089 29.989,27.682 70.935,41.523 41.523,13.841 91.12,13.841 65.745,0 132.066,-25.952 66.899,-26.529 95.157,-51.904 h 5.767 v 118.225 q -54.787,23.069 -111.881,38.64 -57.094,15.571 -119.956,15.571 -160.325,0 -250.291,-86.506 -89.967,-87.083 -89.967,-246.832 0,-158.018 85.93,-250.868 86.506,-92.85 227.223,-92.85 130.336,0 200.695,76.125 70.935,76.126 70.935,216.266 z m -105.538,-83.046 q -0.576,-85.353 -43.253,-132.066 -42.1,-46.713 -128.606,-46.713 -87.083,0 -138.987,51.327 -51.327,51.327 -58.247,127.452 z"
           id="path192589" />
        <path
           d="m -22952.034,-18052.066 h -108.421 v -366.787 q 0,-44.407 -5.19,-83.046 -5.191,-39.217 -19.032,-61.132 -14.418,-24.221 -41.523,-35.756 -27.105,-12.11 -70.358,-12.11 -44.407,0 -92.851,21.915 -48.443,21.914 -92.85,55.94 v 480.976 h -108.421 v -644.184 h 108.421 v 71.512 q 50.751,-42.1 104.961,-65.745 54.211,-23.645 111.305,-23.645 104.385,0 159.172,62.861 54.787,62.861 54.787,181.087 z"
           id="path192591" />
        <path
           d="m -22408.774,-18057.833 q -30.565,8.073 -66.898,13.264 -35.756,5.19 -64.015,5.19 -98.617,0 -149.944,-53.057 -51.327,-53.057 -51.327,-170.129 v -342.565 h -73.242 v -91.12 h 73.242 v -185.124 h 108.421 v 185.124 h 223.763 v 91.12 h -223.763 v 293.545 q 0,50.75 2.307,79.585 2.307,28.259 16.148,53.058 12.688,23.068 34.602,34.025 22.492,10.381 68.052,10.381 26.529,0 55.364,-7.497 28.836,-8.074 41.523,-13.264 h 5.767 z"
           id="path192593" />
        <path
           d="m -21776.701,-18052.066 h -107.845 v -68.629 q -14.417,9.804 -39.216,27.682 -24.222,17.302 -47.29,27.682 -27.105,13.265 -62.285,21.915 -35.179,9.228 -82.469,9.228 -87.083,0 -147.637,-57.671 -60.555,-57.671 -60.555,-147.061 0,-73.242 31.142,-118.225 31.719,-45.56 89.967,-71.512 58.824,-25.952 141.294,-35.18 82.469,-9.227 177.049,-13.841 v -16.724 q 0,-36.91 -13.264,-61.131 -12.688,-24.222 -36.909,-38.063 -23.069,-13.264 -55.364,-17.878 -32.296,-4.614 -67.475,-4.614 -42.677,0 -95.157,11.534 -52.481,10.958 -108.422,32.296 h -5.767 v -110.151 q 31.719,-8.651 91.697,-19.032 59.978,-10.38 118.225,-10.38 68.052,0 118.226,11.534 50.75,10.957 87.66,38.063 36.332,26.528 55.364,68.628 19.031,42.1 19.031,104.384 z m -107.845,-158.595 v -179.357 q -49.597,2.884 -117.072,8.651 -66.898,5.767 -106.114,16.724 -46.713,13.265 -75.549,41.523 -28.835,27.682 -28.835,76.703 0,55.364 33.449,83.622 33.449,27.683 102.077,27.683 57.094,0 104.385,-21.915 47.29,-22.492 87.659,-53.634 z"
           id="path192595" />
        <path
           d="m -27854.637,-17004.186 q 0,117.072 -51.327,212.229 -50.75,95.157 -135.527,147.637 -58.824,36.333 -131.489,52.481 -72.089,16.148 -190.314,16.148 h -216.843 v -858.72 h 214.536 q 125.723,0 199.541,18.455 74.396,17.878 125.723,49.597 87.66,54.787 136.68,145.907 49.02,91.12 49.02,216.266 z m -119.379,-1.73 q 0,-100.924 -35.179,-170.129 -35.179,-69.206 -104.961,-108.998 -50.75,-28.836 -107.844,-39.793 -57.095,-11.535 -136.68,-11.535 h -107.268 v 662.639 h 107.268 q 82.469,0 143.6,-12.111 61.708,-12.111 113.035,-44.983 64.015,-40.946 95.734,-107.845 32.295,-66.898 32.295,-167.245 z"
           id="path192597" />
        <path
           d="m -27110.106,-16575.691 h -581.322 v -120.533 q 60.554,-51.903 121.109,-103.807 61.131,-51.904 113.611,-103.231 110.728,-107.268 151.675,-170.129 40.946,-63.438 40.946,-136.68 0,-66.899 -44.406,-104.385 -43.83,-38.062 -122.839,-38.062 -52.481,0 -113.612,18.454 -61.131,18.455 -119.379,56.518 h -5.767 v -121.109 q 40.946,-20.185 108.998,-36.91 68.628,-16.724 132.643,-16.724 132.066,0 207.039,64.015 74.972,63.438 74.972,172.436 0,49.02 -12.688,91.696 -12.111,42.1 -36.332,80.163 -22.492,35.756 -53.058,70.358 -29.989,34.603 -73.242,76.703 -61.708,60.554 -127.452,117.648 -65.745,56.518 -122.839,104.961 h 461.943 z"
           id="path192599" />
        <path
           d="m -26584.147,-16899.225 h -359.866 v -104.384 h 359.866 z"
           id="path192601" />
        <path
           d="m -25800.976,-16817.332 h -127.453 v 241.641 h -110.728 v -241.641 h -411.193 v -132.644 l 415.807,-484.435 h 106.114 v 524.805 h 127.453 z m -238.181,-92.274 v -387.548 l -332.761,387.548 z"
           id="path192603" />
        <path
           d="m -25069.709,-17005.34 q 0,231.261 -72.665,339.682 -72.089,107.845 -224.34,107.845 -154.558,0 -226.07,-109.575 -70.935,-109.575 -70.935,-336.798 0,-228.954 72.088,-337.952 72.089,-109.574 224.917,-109.574 154.558,0 225.493,111.304 71.512,110.729 71.512,335.068 z m -151.675,261.826 q 20.185,-46.713 27.106,-109.574 7.497,-63.438 7.497,-152.252 0,-87.659 -7.497,-152.251 -6.921,-64.591 -27.682,-109.574 -20.185,-44.407 -55.364,-66.899 -34.603,-22.491 -89.39,-22.491 -54.211,0 -89.967,22.491 -35.179,22.492 -55.941,68.052 -19.608,42.676 -27.105,111.305 -6.92,68.628 -6.92,150.521 0,89.966 6.343,150.521 6.344,60.554 27.106,108.421 19.031,44.983 53.634,68.628 35.179,23.646 92.85,23.646 54.21,0 89.966,-22.492 35.756,-22.492 55.364,-68.052 z"
           id="path192605" />
        <path
           d="m -23894.376,-16575.691 h -565.752 v -858.72 h 565.752 v 101.501 h -451.564 v 235.297 h 451.564 v 101.501 h -451.564 v 318.92 h 451.564 z"
           id="path192607" />
        <path
           d="m -23182.717,-16575.691 h -108.422 v -366.787 q 0,-44.407 -5.19,-83.046 -5.19,-39.217 -19.031,-61.132 -14.418,-24.221 -41.523,-35.756 -27.106,-12.11 -70.359,-12.11 -44.407,0 -92.85,21.915 -48.444,21.914 -92.85,55.94 v 480.976 h -108.422 v -644.184 h 108.422 v 71.512 q 50.75,-42.1 104.961,-65.745 54.21,-23.645 111.305,-23.645 104.384,0 159.171,62.861 54.788,62.861 54.788,181.087 z"
           id="path192609" />
        <path
           d="m -22451.45,-16648.933 q 0,163.785 -74.396,240.487 -74.395,76.702 -228.953,76.702 -51.327,0 -100.347,-7.497 -48.444,-6.92 -95.734,-20.185 v -110.728 h 5.767 q 26.529,10.381 84.199,25.375 57.671,15.572 115.342,15.572 55.364,0 91.697,-13.265 36.333,-13.264 56.517,-36.909 20.185,-22.492 28.836,-54.211 8.651,-31.719 8.651,-70.935 v -58.824 q -49.021,39.216 -94.004,58.824 -44.407,19.032 -113.612,19.032 -115.341,0 -183.393,-83.047 -67.475,-83.622 -67.475,-235.297 0,-83.046 23.068,-143.024 23.645,-60.554 64.015,-104.384 37.486,-40.946 91.12,-63.438 53.634,-23.068 106.691,-23.068 55.941,0 93.427,11.534 38.063,10.957 80.163,34.026 l 6.92,-27.682 h 101.501 z m -108.421,-103.808 v -351.216 q -43.254,-19.608 -80.74,-27.682 -36.909,-8.651 -73.818,-8.651 -89.39,0 -140.717,59.978 -51.328,59.978 -51.328,174.166 0,108.422 38.063,164.362 38.063,55.941 126.3,55.941 47.29,0 94.58,-17.878 47.867,-18.455 87.66,-49.02 z"
           id="path192611" />
        <path
           d="m -22121.573,-17327.72 h -122.262 v -112.458 h 122.262 z m -6.92,752.029 h -108.422 v -644.184 h 108.422 z"
           id="path192613" />
        <path
           d="m -21374.158,-16575.691 h -108.421 v -366.787 q 0,-44.407 -5.19,-83.046 -5.191,-39.217 -19.032,-61.132 -14.418,-24.221 -41.523,-35.756 -27.105,-12.11 -70.358,-12.11 -44.407,0 -92.851,21.915 -48.443,21.914 -92.85,55.94 v 480.976 h -108.421 v -644.184 h 108.421 v 71.512 q 50.751,-42.1 104.961,-65.745 54.211,-23.645 111.305,-23.645 104.385,0 159.172,62.861 54.787,62.861 54.787,181.087 z"
           id="path192615" />
        <path
           d="m -20626.167,-16886.538 h -474.631 q 0,59.401 17.878,103.808 17.878,43.83 49.02,72.089 29.989,27.682 70.935,41.523 41.523,13.841 91.12,13.841 65.745,0 132.067,-25.952 66.898,-26.529 95.157,-51.904 h 5.767 v 118.225 q -54.787,23.069 -111.882,38.64 -57.094,15.571 -119.955,15.571 -160.325,0 -250.292,-86.506 -89.966,-87.083 -89.966,-246.832 0,-158.018 85.929,-250.868 86.507,-92.85 227.224,-92.85 130.336,0 200.694,76.125 70.935,76.126 70.935,216.266 z m -105.537,-83.046 q -0.577,-85.353 -43.253,-132.066 -42.1,-46.713 -128.607,-46.713 -87.083,0 -138.986,51.327 -51.327,51.327 -58.248,127.452 z"
           id="path192617" />
        <path
           d="m -19374.708,-16637.976 q -31.719,13.841 -57.67,25.952 -25.376,12.111 -66.899,25.375 -35.179,10.958 -76.702,18.455 -40.946,8.074 -90.543,8.074 -93.427,0 -170.129,-25.952 -76.126,-26.529 -132.643,-82.47 -55.365,-54.787 -86.507,-138.986 -31.142,-84.777 -31.142,-196.658 0,-106.115 29.989,-189.737 29.989,-83.623 86.506,-141.294 54.787,-55.941 132.066,-85.353 77.856,-29.412 172.436,-29.412 69.206,0 137.834,16.724 69.205,16.725 153.404,58.825 v 135.526 h -8.65 q -70.935,-59.401 -140.717,-86.506 -69.782,-27.105 -149.368,-27.105 -65.168,0 -117.648,21.338 -51.904,20.761 -92.851,65.168 -39.792,43.253 -62.284,109.575 -21.915,65.744 -21.915,152.251 0,90.543 24.222,155.711 24.798,65.168 63.438,106.115 40.369,42.676 94.003,63.438 54.211,20.184 114.189,20.184 82.469,0 154.558,-28.258 72.088,-28.259 134.95,-84.776 h 8.073 z"
           id="path192619" />
        <path
           d="m -18671.7,-16897.495 q 0,157.442 -80.739,248.562 -80.739,91.12 -216.266,91.12 -136.68,0 -217.419,-91.12 -80.163,-91.12 -80.163,-248.562 0,-157.442 80.163,-248.562 80.739,-91.696 217.419,-91.696 135.527,0 216.266,91.696 80.739,91.12 80.739,248.562 z m -111.881,0 q 0,-125.146 -49.021,-185.7 -49.02,-61.131 -136.103,-61.131 -88.236,0 -137.257,61.131 -48.443,60.554 -48.443,185.7 0,121.109 49.02,183.97 49.02,62.285 136.68,62.285 86.506,0 135.527,-61.708 49.597,-62.285 49.597,-184.547 z"
           id="path192621" />
        <path
           d="m -17964.655,-16575.691 h -108.421 v -366.787 q 0,-44.407 -5.191,-83.046 -5.19,-39.217 -19.031,-61.132 -14.418,-24.221 -41.523,-35.756 -27.105,-12.11 -70.358,-12.11 -44.407,0 -92.851,21.915 -48.443,21.914 -92.85,55.94 v 480.976 h -108.421 v -644.184 h 108.421 v 71.512 q 50.751,-42.1 104.961,-65.745 54.211,-23.645 111.305,-23.645 104.384,0 159.172,62.861 54.787,62.861 54.787,181.087 z"
           id="path192623" />
        <path
           d="m -17421.395,-16581.459 q -30.565,8.074 -66.898,13.265 -35.756,5.19 -64.015,5.19 -98.617,0 -149.944,-53.057 -51.327,-53.057 -51.327,-170.129 v -342.565 h -73.242 v -91.12 h 73.242 v -185.124 h 108.421 v 185.124 h 223.763 v 91.12 h -223.763 v 293.545 q 0,50.75 2.307,79.585 2.307,28.259 16.148,53.058 12.687,23.068 34.602,34.025 22.492,10.381 68.052,10.381 26.529,0 55.364,-7.497 28.836,-8.074 41.523,-13.264 h 5.767 z"
           id="path192625" />
        <path
           d="m -16887.938,-17101.65 h -5.767 q -24.222,-5.767 -47.291,-8.074 -22.491,-2.883 -53.634,-2.883 -50.173,0 -96.887,22.491 -46.713,21.915 -89.966,57.094 v 457.331 h -108.422 v -644.184 h 108.422 v 95.157 q 64.591,-51.904 113.611,-73.242 49.597,-21.915 100.924,-21.915 28.259,0 40.947,1.73 12.687,1.153 38.063,5.19 z"
           id="path192627" />
        <path
           d="m -16235.681,-16897.495 q 0,157.442 -80.74,248.562 -80.739,91.12 -216.265,91.12 -136.68,0 -217.42,-91.12 -80.162,-91.12 -80.162,-248.562 0,-157.442 80.162,-248.562 80.74,-91.696 217.42,-91.696 135.526,0 216.265,91.696 80.74,91.12 80.74,248.562 z m -111.882,0 q 0,-125.146 -49.02,-185.7 -49.02,-61.131 -136.103,-61.131 -88.237,0 -137.257,61.131 -48.444,60.554 -48.444,185.7 0,121.109 49.021,183.97 49.02,62.285 136.68,62.285 86.506,0 135.526,-61.708 49.597,-62.285 49.597,-184.547 z"
           id="path192629" />
        <path
           d="m -15957.708,-16575.691 h -108.421 v -897.36 h 108.421 z"
           id="path192631" />
      </g>
      <g
         id="g192448">
        <g
           aria-label="Oil"
           id="text18332"
           style="font-size:1111.11px;line-height:1.25;stroke-width:104.167">
          <path
             d="m 6049.1734,-22420.63 q 49.3706,54.253 75.4122,132.921 26.5842,78.667 26.5842,178.493 0,99.827 -27.1267,179.037 -26.5842,78.667 -74.8697,131.293 -49.9132,54.796 -118.2725,82.465 -67.8167,27.669 -155.1647,27.669 -85.1779,0 -155.1648,-28.212 -69.4444,-28.211 -118.2725,-81.922 -48.828,-53.711 -75.4122,-131.836 -26.0417,-78.125 -26.0417,-178.494 0,-98.741 26.0417,-176.866 26.0416,-78.667 75.9548,-134.548 47.743,-53.169 118.2724,-81.38 71.072,-28.212 154.6223,-28.212 86.8054,0 155.7073,28.754 69.4443,28.212 117.7299,80.838 z m -9.7656,311.414 q 0,-157.335 -70.5295,-242.513 -70.5294,-85.72 -192.5996,-85.72 -123.1553,0 -193.6847,85.72 -69.9869,85.178 -69.9869,242.513 0,158.963 71.6145,243.598 71.6145,84.093 192.0571,84.093 120.4426,0 191.5146,-84.093 71.6145,-84.635 71.6145,-243.598 z"
             id="path192450" />
          <path
             d="m 6422.9794,-22413.035 h -115.0172 v -105.794 h 115.0172 z m -6.5104,707.465 h -101.9964 v -606.011 h 101.9964 z"
             id="path192452" />
          <path
             d="m 6722.4582,-21705.57 h -101.9964 v -844.183 h 101.9964 z"
             id="path192454" />
        </g>
        <g
           aria-label="Coolant"
           id="text31102"
           style="font-size:1111.11px;line-height:1.25;stroke-width:104.167">
          <path
             d="m 3235.5908,-19034.961 q -29.8394,13.021 -54.2534,24.414 -23.8715,11.393 -62.934,23.872 -33.0946,10.308 -72.157,17.361 -38.5199,7.595 -85.1779,7.595 -87.8905,0 -160.0476,-24.414 -71.6145,-24.956 -124.7828,-77.582 -52.0833,-51.541 -81.3801,-130.751 -29.2969,-79.752 -29.2969,-185.004 0,-99.826 28.2118,-178.494 28.2118,-78.667 81.3801,-132.921 51.5408,-52.626 124.2403,-80.295 73.2421,-27.669 162.2178,-27.669 65.1041,0 129.6656,15.733 65.1041,15.734 144.3141,55.339 v 127.496 h -8.138 q -66.7317,-55.882 -132.3783,-81.381 -65.6467,-25.499 -140.5164,-25.499 -61.3064,0 -110.677,20.074 -48.828,19.531 -87.348,61.306 -37.4348,40.69 -58.5937,103.082 -20.6163,61.849 -20.6163,143.229 0,85.178 22.7865,146.484 23.329,61.307 59.6787,99.826 37.9774,40.148 88.4331,59.679 50.9982,18.989 107.4218,18.989 77.5824,0 145.3991,-26.584 67.8168,-26.584 126.953,-79.753 h 7.5955 z"
             id="path192457" />
          <path
             d="m 3896.94,-19279.101 q 0,148.112 -75.9548,233.832 -75.9548,85.72 -203.4503,85.72 -128.5806,0 -204.5354,-85.72 -75.4123,-85.72 -75.4123,-233.832 0,-148.112 75.4123,-233.832 75.9548,-86.263 204.5354,-86.263 127.4955,0 203.4503,86.263 75.9548,85.72 75.9548,233.832 z m -105.2517,0 q 0,-117.73 -46.1154,-174.696 -46.1154,-57.509 -128.038,-57.509 -83.0078,0 -129.1232,57.509 -45.5728,56.966 -45.5728,174.696 0,113.932 46.1154,173.068 46.1154,58.594 128.5806,58.594 81.3801,0 127.4955,-58.051 46.6579,-58.594 46.6579,-173.611 z"
             id="path192459" />
          <path
             d="m 4571.8526,-19279.101 q 0,148.112 -75.9548,233.832 -75.9548,85.72 -203.4503,85.72 -128.5806,0 -204.5354,-85.72 -75.4123,-85.72 -75.4123,-233.832 0,-148.112 75.4123,-233.832 75.9548,-86.263 204.5354,-86.263 127.4955,0 203.4503,86.263 75.9548,85.72 75.9548,233.832 z m -105.2517,0 q 0,-117.73 -46.1154,-174.696 -46.1154,-57.509 -128.038,-57.509 -83.0078,0 -129.1232,57.509 -45.5728,56.966 -45.5728,174.696 0,113.932 46.1154,173.068 46.1154,58.594 128.5806,58.594 81.3801,0 127.4955,-58.051 46.6579,-58.594 46.6579,-173.611 z"
             id="path192461" />
          <path
             d="m 4833.3539,-18976.367 h -101.9964 v -844.183 h 101.9964 z"
             id="path192463" />
          <path
             d="m 5507.1816,-18976.367 h -101.4539 v -64.562 q -13.5634,9.223 -36.8924,26.042 -22.7864,16.276 -44.4878,26.042 -25.4991,12.478 -58.5937,20.616 -33.0945,8.68 -77.5823,8.68 -81.9227,0 -138.8888,-54.253 -56.9661,-54.253 -56.9661,-138.346 0,-68.902 29.2969,-111.22 29.8393,-42.86 84.6353,-67.274 55.3385,-24.414 132.9209,-33.095 77.5824,-8.68 166.558,-13.02 v -15.734 q 0,-34.722 -12.4783,-57.509 -11.9358,-22.786 -34.7222,-35.807 -21.7014,-12.478 -52.0833,-16.818 -30.3819,-4.341 -63.4765,-4.341 -40.1475,0 -89.5181,10.851 -49.3706,10.308 -101.9965,30.382 h -5.4253 v -103.624 q 29.8394,-8.138 86.2629,-17.904 56.4236,-9.765 111.2195,-9.765 64.0191,0 111.2195,10.85 47.7431,10.309 82.4652,35.808 34.1797,24.956 52.0833,64.561 17.9037,39.605 17.9037,98.199 z m -101.4539,-149.197 v -168.728 q -46.658,2.712 -110.1345,8.138 -62.9339,5.425 -99.8263,15.733 -43.9452,12.479 -71.0719,39.063 -27.1268,26.041 -27.1268,72.157 0,52.083 31.467,78.667 31.467,26.042 96.0286,26.042 53.7109,0 98.1987,-20.616 44.4878,-21.159 82.4652,-50.456 z"
             id="path192465" />
          <path
             d="m 6211.3909,-18976.367 h -101.9964 v -345.052 q 0,-41.775 -4.8828,-78.125 -4.8828,-36.892 -17.9037,-57.508 -13.5633,-22.787 -39.0624,-33.638 -25.4991,-11.393 -66.1892,-11.393 -41.7751,0 -87.348,20.616 -45.5729,20.617 -87.348,52.626 v 452.474 H 5704.664 v -606.011 h 101.9964 v 67.274 q 47.743,-39.605 98.7412,-61.849 50.9982,-22.243 104.7091,-22.243 98.1987,0 149.7395,59.136 51.5407,59.136 51.5407,170.356 z"
             id="path192467" />
          <path
             d="m 6722.4581,-18981.793 q -28.7543,7.596 -62.934,12.479 -33.6371,4.883 -60.2213,4.883 -92.7733,0 -141.0589,-49.914 -48.2855,-49.913 -48.2855,-160.047 v -322.265 h -68.9018 v -85.721 h 68.9018 v -174.153 h 101.9964 v 174.153 h 210.5033 v 85.721 h -210.5033 v 276.149 q 0,47.743 2.1702,74.87 2.1701,26.584 15.1909,49.913 11.9358,21.702 32.5521,32.01 21.1588,9.765 64.019,9.765 24.9566,0 52.0833,-7.053 27.1267,-7.595 39.0624,-12.478 h 5.4254 z"
             id="path192469" />
        </g>
        <g
           aria-label="Buzzer"
           id="text31102-0"
           style="font-size:1111.11px;line-height:1.25;stroke-width:104.167">
          <path
             d="m 3667.448,-16531.996 q 0,60.221 -22.7864,106.336 -22.7865,46.116 -61.3064,75.955 -45.5729,35.807 -100.3688,50.998 -54.2534,15.191 -138.3462,15.191 h -286.4581 v -807.833 h 239.2576 q 88.4331,0 132.3783,6.51 43.9453,6.511 84.0928,27.127 44.4878,23.329 64.5616,60.221 20.0738,36.35 20.0738,87.348 0,57.509 -29.2969,98.199 -29.2968,40.148 -78.1249,64.562 v 4.34 q 81.9227,16.818 129.1231,72.157 47.2005,54.796 47.2005,138.889 z m -180.6639,-364.041 q 0,-29.297 -9.7656,-49.37 -9.7656,-20.074 -31.467,-32.552 -25.4991,-14.649 -61.8489,-17.904 -36.3498,-3.798 -90.0606,-3.798 h -128.0381 v 233.29 h 138.8887 q 50.4557,0 80.2951,-4.883 29.8394,-5.425 55.3385,-21.701 25.4991,-16.276 35.8072,-41.775 10.8507,-26.042 10.8507,-61.307 z m 68.9019,368.381 q 0,-48.828 -14.6485,-77.582 -14.6484,-28.755 -53.1683,-48.828 -26.0416,-13.564 -63.4765,-17.362 -36.8923,-4.34 -90.0607,-4.34 h -168.7281 v 300.564 h 142.1439 q 70.5295,0 115.5598,-7.053 45.0304,-7.595 73.7847,-27.127 30.3819,-21.158 44.4878,-48.285 14.1059,-27.127 14.1059,-69.987 z"
             id="path192472" />
          <path
             d="m 4314.1487,-16283.516 h -101.9964 v -67.274 q -51.5408,40.69 -98.7412,62.392 -47.2005,21.701 -104.1666,21.701 -95.486,0 -148.6544,-58.051 -53.1683,-58.594 -53.1683,-171.441 v -393.337 h 101.9964 v 345.051 q 0,46.116 4.3403,79.21 4.3403,32.552 18.4462,55.881 14.6484,23.872 37.9773,34.723 23.329,10.85 67.8168,10.85 39.605,0 86.263,-20.616 47.2004,-20.616 87.8905,-52.626 v -452.473 h 101.9964 z"
             id="path192474" />
          <path
             d="m 4954.3391,-16283.516 h -489.3658 v -75.412 l 353.1897,-445.42 h -345.5943 v -85.178 h 472.5473 v 72.699 l -354.8173,447.048 h 364.0404 z"
             id="path192476" />
          <path
             d="m 5538.1057,-16283.516 h -489.3658 v -75.412 l 353.1897,-445.42 h -345.5943 v -85.178 h 472.5473 v 72.699 l -354.8173,447.048 h 364.0404 z"
             id="path192478" />
          <path
             d="m 6189.6893,-16575.942 h -446.5056 q 0,55.881 16.8185,97.657 16.8186,41.232 46.1154,67.816 28.2118,26.042 66.7317,39.063 39.0625,13.021 85.7204,13.021 61.8489,0 124.2404,-24.414 62.9339,-24.957 89.5181,-48.828 h 5.4253 v 111.219 q -51.5407,21.701 -105.2516,36.35 -53.7109,14.648 -112.8471,14.648 -150.8245,0 -235.4598,-81.38 -84.6354,-81.923 -84.6354,-232.204 0,-148.655 80.8376,-236.003 81.3802,-87.348 213.7585,-87.348 122.6127,0 188.8019,71.615 66.7317,71.614 66.7317,203.45 z m -99.2838,-78.124 q -0.5425,-80.296 -40.69,-124.241 -39.605,-43.945 -120.9851,-43.945 -81.9227,0 -130.7508,48.285 -48.2855,48.286 -54.7959,119.901 z"
             id="path192480" />
          <path
             d="m 6722.458,-16778.307 h -5.4253 q -22.7865,-5.425 -44.4878,-7.595 -21.1589,-2.713 -50.4557,-2.713 -47.2005,0 -91.1458,21.159 -43.9452,20.616 -84.6353,53.711 v 430.229 h -101.9964 v -606.01 h 101.9964 v 89.518 q 60.7638,-48.828 106.8792,-68.902 46.658,-20.616 94.9435,-20.616 26.5842,0 38.52,1.627 11.9357,1.085 35.8072,4.883 z"
             id="path192482" />
        </g>
        <g
           aria-label="Charge"
           id="text37488"
           style="font-size:1181.1px;line-height:1.25;stroke-width:104.167">
          <path
             d="m 3330.2558,-24443.884 q -31.719,13.841 -57.6709,25.952 -25.3751,12.111 -66.8982,25.375 -35.1792,10.957 -76.7023,18.455 -40.9463,8.074 -90.5433,8.074 -93.4269,0 -170.1291,-25.952 -76.1256,-26.529 -132.6431,-82.47 -55.3641,-54.787 -86.5064,-138.987 -31.1422,-84.776 -31.1422,-196.657 0,-106.115 29.9888,-189.738 29.9889,-83.622 86.5064,-141.293 54.7873,-55.941 132.0663,-85.353 77.8557,-29.412 172.436,-29.412 69.2051,0 137.8335,16.724 69.205,16.725 153.4045,58.824 v 135.527 h -8.6506 q -70.9352,-59.401 -140.717,-86.506 -69.7818,-27.106 -149.3676,-27.106 -65.1681,0 -117.6486,21.339 -51.9038,20.761 -92.8502,65.168 -39.7929,43.253 -62.2845,109.574 -21.915,65.745 -21.915,152.252 0,90.543 24.2218,155.711 24.7985,65.168 63.438,106.114 40.3696,42.677 94.0035,63.438 54.2107,20.185 114.1884,20.185 82.4694,0 154.558,-28.258 72.0886,-28.259 134.9499,-84.777 h 8.0739 z"
             id="path192485" />
          <path
             d="M 4022.8833,-24381.6 H 3914.462 v -366.787 q 0,-44.406 -5.1904,-83.046 -5.1903,-39.216 -19.0314,-61.131 -14.4177,-24.222 -41.523,-35.756 -27.1053,-12.111 -70.3585,-12.111 -44.4066,0 -92.8501,21.915 -48.4436,21.915 -92.8502,55.941 v 480.975 h -108.4213 v -897.359 h 108.4213 v 324.687 q 50.7504,-42.099 104.961,-65.744 54.2107,-23.646 111.3049,-23.646 104.3843,0 159.1716,62.862 54.7874,62.861 54.7874,181.086 z"
             id="path192487" />
          <path
             d="m 4732.2354,-24381.6 h -107.8446 v -68.628 q -14.4177,9.804 -39.2162,27.682 -24.2218,17.301 -47.2902,27.682 -27.1053,13.264 -62.2845,21.915 -35.1793,9.227 -82.4694,9.227 -87.0831,0 -147.6375,-57.671 -60.5545,-57.67 -60.5545,-147.06 0,-73.242 31.1423,-118.226 31.719,-45.56 89.9666,-71.512 58.8243,-25.951 141.2937,-35.179 82.4694,-9.227 177.0497,-13.841 v -16.724 q 0,-36.91 -13.2643,-61.132 -12.6876,-24.221 -36.9094,-38.062 -23.0684,-13.265 -55.3641,-17.878 -32.2957,-4.614 -67.4749,-4.614 -42.6765,0 -95.157,11.534 -52.4805,10.958 -108.4213,32.296 h -5.7671 v -110.152 q 31.719,-8.65 91.6968,-19.031 59.9777,-10.381 118.2253,-10.381 68.0517,0 118.2253,11.535 50.7504,10.957 87.6598,38.062 36.3327,26.529 55.3641,68.629 19.0314,42.099 19.0314,104.384 z m -107.8446,-158.595 v -179.356 q -49.597,2.883 -117.0719,8.651 -66.8983,5.767 -106.1145,16.724 -46.7134,13.264 -75.5489,41.523 -28.8354,27.682 -28.8354,76.702 0,55.365 33.4491,83.623 33.4491,27.682 102.0775,27.682 57.0942,0 104.3843,-21.915 47.2902,-22.491 87.6598,-53.634 z"
             id="path192489" />
          <path
             d="m 5344.1236,-24907.558 h -5.7671 q -24.2217,-5.767 -47.2901,-8.074 -22.4917,-2.884 -53.6339,-2.884 -50.1737,0 -96.8871,22.492 -46.7135,21.915 -89.9666,57.094 v 457.33 h -108.4213 v -644.184 h 108.4213 v 95.157 q 64.5914,-51.903 113.6116,-73.242 49.597,-21.915 100.9241,-21.915 28.2587,0 40.9463,1.731 12.6876,1.153 38.0628,5.19 z"
             id="path192491" />
          <path
             d="m 5969.8528,-24454.842 q 0,163.786 -74.3954,240.488 -74.3955,76.702 -228.9535,76.702 -51.3271,0 -100.3474,-7.497 -48.4435,-6.92 -95.7337,-20.185 v -110.728 h 5.7671 q 26.5287,10.381 84.1995,25.375 57.6709,15.571 115.3418,15.571 55.3641,0 91.6968,-13.264 36.3326,-13.264 56.5174,-36.909 20.1849,-22.492 28.8355,-54.211 8.6506,-31.719 8.6506,-70.935 v -58.824 q -49.0202,39.216 -94.0035,58.824 -44.4066,19.031 -113.6117,19.031 -115.3418,0 -183.3935,-83.046 -67.4749,-83.623 -67.4749,-235.297 0,-83.046 23.0684,-143.024 23.645,-60.554 64.0147,-104.384 37.486,-40.947 91.12,-63.438 53.6339,-23.069 106.6911,-23.069 55.9408,0 93.4269,11.535 38.0628,10.957 80.1625,34.025 l 6.9205,-27.682 h 101.5008 z m -108.4213,-103.807 v -351.216 q -43.2531,-19.608 -80.7392,-27.682 -36.9094,-8.651 -73.8188,-8.651 -89.3899,0 -140.717,59.978 -51.3271,59.978 -51.3271,174.166 0,108.421 38.0628,164.362 38.0628,55.941 126.2993,55.941 47.2901,0 94.5803,-17.878 47.8668,-18.455 87.6597,-49.02 z"
             id="path192493" />
          <path
             d="m 6722.458,-24692.446 h -474.6315 q 0,59.401 17.878,103.808 17.878,43.83 49.0203,72.088 29.9888,27.683 70.9352,41.524 41.523,13.841 91.12,13.841 65.7448,0 132.0663,-25.952 66.8983,-26.529 95.157,-51.904 h 5.7671 v 118.225 q -54.7874,23.069 -111.8815,38.64 -57.0942,15.571 -119.9555,15.571 -160.3251,0 -250.2917,-86.507 -89.9666,-87.083 -89.9666,-246.831 0,-158.018 85.9296,-250.868 86.5064,-92.851 227.2234,-92.851 130.3362,0 200.6947,76.126 70.9352,76.126 70.9352,216.266 z m -105.5377,-83.046 q -0.5768,-85.353 -43.2532,-132.066 -42.0998,-46.714 -128.6061,-46.714 -87.0831,0 -138.9869,51.327 -51.3271,51.328 -58.2476,127.453 z"
             id="path192495" />
        </g>
        <g
           aria-label="On/Off"
           id="text37488-4"
           style="font-size:1181.11px;line-height:1.25;stroke-width:104.167">
          <path
             d="m 3465.1783,-44240.371 q 52.4809,57.672 80.1632,141.295 28.259,83.624 28.259,189.739 0,106.116 -28.8357,190.316 -28.259,83.623 -79.5865,139.564 -53.0577,58.249 -125.7237,87.661 -72.0892,29.412 -164.9401,29.412 -90.5441,0 -164.9402,-29.989 -73.8194,-29.989 -125.7236,-87.084 -51.9043,-57.094 -80.1632,-140.141 -27.6823,-83.047 -27.6823,-189.739 0,-104.962 27.6823,-188.009 27.6822,-83.623 80.7399,-143.025 50.7508,-56.518 125.7236,-86.507 75.5495,-29.989 164.3635,-29.989 92.2742,0 165.5169,30.566 73.8193,29.989 125.1469,85.93 z m -10.3809,331.034 q 0,-167.247 -74.9728,-257.791 -74.9728,-91.121 -204.7334,-91.121 -130.9141,0 -205.8869,91.121 -74.396,90.544 -74.396,257.791 0,168.977 76.1262,258.945 76.1262,89.39 204.1567,89.39 128.0305,0 203.58,-89.39 76.1262,-89.968 76.1262,-258.945 z"
             id="path192498" />
          <path
             d="m 4284.6886,-43480.262 h -108.4222 v -366.79 q 0,-44.407 -5.1904,-83.047 -5.1904,-39.216 -19.0316,-61.131 -14.4178,-24.222 -41.5234,-35.756 -27.1055,-12.111 -70.359,-12.111 -44.407,0 -92.851,21.915 -48.4439,21.915 -92.8509,55.941 v 480.979 h -108.4222 v -644.189 h 108.4222 v 71.512 q 50.7508,-42.1 104.9619,-65.745 54.2111,-23.645 111.3058,-23.645 104.3852,0 159.173,62.862 54.7878,62.861 54.7878,181.088 z"
             id="path192500" />
          <path
             d="m 4882.7409,-44377.628 -413.5039,1072.687 h -99.7714 l 411.7736,-1072.687 z"
             id="path192502" />
          <path
             d="m 5679.7593,-44240.371 q 52.481,57.672 80.1632,141.295 28.259,83.624 28.259,189.739 0,106.116 -28.8357,190.316 -28.2589,83.623 -79.5865,139.564 -53.0577,58.249 -125.7236,87.661 -72.0892,29.412 -164.9402,29.412 -90.544,0 -164.9401,-29.989 -73.8194,-29.989 -125.7237,-87.084 -51.9042,-57.094 -80.1632,-140.141 -27.6822,-83.047 -27.6822,-189.739 0,-104.962 27.6822,-188.009 27.6823,-83.623 80.74,-143.025 50.7508,-56.518 125.7236,-86.507 75.5495,-29.989 164.3634,-29.989 92.2742,0 165.5169,30.566 73.8194,29.989 125.1469,85.93 z m -10.3808,331.034 q 0,-167.247 -74.9728,-257.791 -74.9728,-91.121 -204.7335,-91.121 -130.914,0 -205.8868,91.121 -74.3961,90.544 -74.3961,257.791 0,168.977 76.1262,258.945 76.1263,89.39 204.1567,89.39 128.0305,0 203.58,-89.39 76.1263,-89.968 76.1263,-258.945 z"
             id="path192504" />
          <path
             d="m 6307.2241,-44272.667 h -5.7671 q -17.8782,-5.19 -46.7139,-10.38 -28.8357,-5.768 -50.7508,-5.768 -69.7824,0 -101.5016,31.143 -31.1426,30.566 -31.1426,111.306 v 21.915 h 195.506 v 91.121 h -192.0457 v 553.068 h -108.4222 v -553.068 h -73.2427 v -91.121 h 73.2427 v -21.339 q 0,-114.766 57.0947,-175.897 57.0946,-61.709 164.9401,-61.709 36.333,0 65.1687,3.461 29.4124,3.46 53.6344,8.074 z"
             id="path192506" />
          <path
             d="m 6722.458,-44272.667 h -5.7672 q -17.8781,-5.19 -46.7138,-10.38 -28.8357,-5.768 -50.7508,-5.768 -69.7824,0 -101.5016,31.143 -31.1426,30.566 -31.1426,111.306 v 21.915 h 195.506 v 91.121 h -192.0457 v 553.068 h -108.4222 v -553.068 h -73.2427 v -91.121 h 73.2427 v -21.339 q 0,-114.766 57.0947,-175.897 57.0946,-61.709 164.9401,-61.709 36.333,0 65.1687,3.461 29.4124,3.46 53.6344,8.074 z"
             id="path192508" />
        </g>
        <g
           aria-label="0v"
           id="text61065"
           style="font-size:1181.1px;line-height:1.25;stroke-width:104.167">
          <path
             d="m 5979.6571,-41207.816 q 0,231.26 -72.6654,339.681 -72.0886,107.845 -224.3398,107.845 -154.558,0 -226.0699,-109.575 -70.9352,-109.574 -70.9352,-336.798 0,-228.953 72.0886,-337.951 72.0887,-109.575 224.9165,-109.575 154.558,0 225.4933,111.305 71.5119,110.728 71.5119,335.068 z m -151.6745,261.826 q 20.1848,-46.714 27.1053,-109.575 7.4972,-63.438 7.4972,-152.251 0,-87.66 -7.4972,-152.251 -6.9205,-64.592 -27.682,-109.575 -20.1848,-44.407 -55.3641,-66.898 -34.6025,-22.492 -89.3899,-22.492 -54.2106,0 -89.9666,22.492 -35.1792,22.491 -55.9407,68.051 -19.6081,42.677 -27.1053,111.305 -6.9206,68.629 -6.9206,150.521 0,89.967 6.3438,150.521 6.3438,60.555 27.1054,108.422 19.0314,44.983 53.6339,68.628 35.1792,23.645 92.8501,23.645 54.2107,0 89.9666,-22.492 35.756,-22.491 55.3641,-68.051 z"
             id="path192511" />
          <path
             d="m 6722.4582,-41422.352 -260.6724,644.184 h -108.998 l -258.9424,-644.184 h 117.6487 l 199.5413,512.694 197.8112,-512.694 z"
             id="path192513" />
        </g>
        <g
           aria-label="12v"
           id="text66763"
           style="font-size:1181.1px;line-height:1.25;stroke-width:104.167">
          <path
             d="M 5179.7614,-38048.387 H 4714.934 v -87.659 h 178.7798 v -575.556 H 4714.934 v -78.432 q 36.3326,0 77.8557,-5.768 41.523,-6.343 62.8613,-17.878 26.5286,-14.417 41.523,-36.332 15.5712,-22.492 17.878,-59.978 h 89.3899 v 773.944 h 175.3195 z"
             id="path192516" />
          <path
             d="m 5980.8102,-38048.387 h -581.3227 v -120.532 q 60.5545,-51.904 121.1089,-103.808 61.1312,-51.903 113.6117,-103.23 110.7281,-107.268 151.6744,-170.13 40.9464,-63.438 40.9464,-136.68 0,-66.898 -44.4066,-104.384 -43.8299,-38.063 -122.839,-38.063 -52.4805,0 -113.6117,18.455 -61.1311,18.455 -119.3787,56.517 h -5.7671 v -121.108 q 40.9463,-20.185 108.998,-36.91 68.6283,-16.724 132.643,-16.724 132.0664,0 207.0385,64.014 74.9722,63.438 74.9722,172.436 0,49.021 -12.6876,91.697 -12.1109,42.1 -36.3326,80.163 -22.4917,35.756 -53.0573,70.358 -29.9888,34.603 -73.242,76.702 -61.7079,60.555 -127.4527,117.649 -65.7448,56.517 -122.839,104.961 h 461.9439 z"
             id="path192518" />
          <path
             d="m 6722.4579,-38692.571 -260.6724,644.184 h -108.998 l -258.9424,-644.184 h 117.6487 l 199.5413,512.695 197.8112,-512.695 z"
             id="path192520" />
        </g>
        <g
           aria-label="12v"
           id="text75003"
           style="font-size:1181.1px;line-height:1.25;stroke-width:104.167">
          <path
             d="M 5179.7614,-35319.184 H 4714.934 v -87.659 h 178.7798 v -575.556 H 4714.934 v -78.432 q 36.3326,0 77.8557,-5.767 41.523,-6.344 62.8613,-17.878 26.5286,-14.418 41.523,-36.333 15.5712,-22.492 17.878,-59.978 h 89.3899 v 773.944 h 175.3195 z"
             id="path192523" />
          <path
             d="m 5980.8102,-35319.184 h -581.3227 v -120.532 q 60.5545,-51.904 121.1089,-103.807 61.1312,-51.904 113.6117,-103.231 110.7281,-107.268 151.6744,-170.129 40.9464,-63.438 40.9464,-136.68 0,-66.899 -44.4066,-104.385 -43.8299,-38.063 -122.839,-38.063 -52.4805,0 -113.6117,18.455 -61.1311,18.455 -119.3787,56.518 h -5.7671 v -121.109 q 40.9463,-20.185 108.998,-36.91 68.6283,-16.724 132.643,-16.724 132.0664,0 207.0385,64.014 74.9722,63.438 74.9722,172.436 0,49.021 -12.6876,91.697 -12.1109,42.1 -36.3326,80.163 -22.4917,35.756 -53.0573,70.358 -29.9888,34.603 -73.242,76.703 -61.7079,60.554 -127.4527,117.648 -65.7448,56.518 -122.839,104.961 h 461.9439 z"
             id="path192525" />
          <path
             d="m 6722.4579,-35963.368 -260.6724,644.184 h -108.998 l -258.9424,-644.184 h 117.6487 l 199.5413,512.695 197.8112,-512.695 z"
             id="path192527" />
        </g>
        <g
           aria-label="Start"
           id="text81941"
           style="font-size:1181.1px;line-height:1.25;stroke-width:104.167">
          <path
             d="m 4531.5406,-32837.385 q 0,50.174 -23.6451,99.194 -23.0683,49.021 -65.1681,83.047 -46.1367,36.909 -107.8445,57.67 -61.1312,20.762 -147.6375,20.762 -92.8502,0 -167.2456,-17.301 -73.8188,-17.302 -150.5211,-51.327 v -143.024 h 8.0739 q 65.1681,54.21 150.5211,83.623 85.3529,29.412 160.3251,29.412 106.1144,0 164.9387,-39.793 59.4011,-39.793 59.4011,-106.115 0,-57.094 -28.2588,-84.199 -27.682,-27.105 -84.7762,-42.1 -43.2532,-11.534 -94.0036,-19.031 -50.1736,-7.498 -106.6911,-19.032 -114.1884,-24.221 -169.5525,-82.469 -54.7873,-58.824 -54.7873,-152.828 0,-107.845 91.12,-176.473 91.12,-69.205 231.2603,-69.205 90.5433,0 166.0922,17.301 75.5489,17.302 133.7965,42.677 v 134.95 h -8.074 q -49.0202,-41.523 -129.1828,-68.629 -79.5858,-27.682 -163.2086,-27.682 -91.6967,0 -147.6375,38.063 -55.3641,38.063 -55.3641,98.041 0,53.633 27.6821,84.199 27.682,30.566 97.4638,46.713 36.9094,8.074 104.961,19.609 68.0517,11.534 115.3418,23.645 95.7337,25.375 144.1773,76.702 48.4435,51.327 48.4435,143.6 z"
             id="path192530" />
          <path
             d="m 5040.7746,-32598.05 q -30.5655,8.074 -66.8982,13.264 -35.7559,5.19 -64.0147,5.19 -98.6172,0 -149.9443,-53.057 -51.3271,-53.057 -51.3271,-170.129 v -342.565 h -73.2421 v -91.12 h 73.2421 v -185.124 h 108.4213 v 185.124 h 223.763 v 91.12 h -223.763 v 293.545 q 0,50.75 2.3068,79.586 2.3068,28.258 16.1479,53.057 12.6876,23.068 34.6025,34.026 22.4916,10.38 68.0517,10.38 26.5286,0 55.364,-7.497 28.8355,-8.074 41.5231,-13.264 h 5.767 z"
             id="path192532" />
          <path
             d="m 5672.8477,-32592.283 h -107.8446 v -68.629 q -14.4177,9.804 -39.2162,27.682 -24.2218,17.302 -47.2902,27.682 -27.1053,13.265 -62.2845,21.915 -35.1793,9.228 -82.4694,9.228 -87.0831,0 -147.6375,-57.671 -60.5544,-57.671 -60.5544,-147.061 0,-73.242 31.1422,-118.225 31.719,-45.56 89.9666,-71.512 58.8244,-25.952 141.2937,-35.179 82.4694,-9.228 177.0497,-13.841 v -16.725 q 0,-36.909 -13.2643,-61.131 -12.6876,-24.222 -36.9094,-38.063 -23.0683,-13.264 -55.3641,-17.878 -32.2957,-4.614 -67.4749,-4.614 -42.6765,0 -95.157,11.535 -52.4805,10.957 -108.4213,32.295 h -5.7671 v -110.151 q 31.719,-8.651 91.6968,-19.032 59.9777,-10.38 118.2253,-10.38 68.0517,0 118.2253,11.534 50.7504,10.957 87.6598,38.063 36.3327,26.528 55.3641,68.628 19.0314,42.1 19.0314,104.384 z m -107.8446,-158.595 v -179.357 q -49.597,2.884 -117.0719,8.651 -66.8983,5.767 -106.1145,16.725 -46.7134,13.264 -75.5489,41.523 -28.8354,27.682 -28.8354,76.702 0,55.364 33.4491,83.623 33.4491,27.682 102.0775,27.682 57.0942,0 104.3843,-21.915 47.2902,-22.492 87.6598,-53.634 z"
             id="path192534" />
          <path
             d="m 6284.7359,-33118.242 h -5.7671 q -24.2217,-5.767 -47.2901,-8.074 -22.4916,-2.883 -53.6339,-2.883 -50.1737,0 -96.8871,22.491 -46.7135,21.915 -89.9666,57.095 v 457.33 h -108.4213 v -644.184 h 108.4213 v 95.157 q 64.5914,-51.904 113.6116,-73.242 49.597,-21.915 100.9241,-21.915 28.2587,0 40.9463,1.73 12.6876,1.153 38.0628,5.19 z"
             id="path192536" />
          <path
             d="m 6722.458,-32598.05 q -30.5656,8.074 -66.8982,13.264 -35.756,5.19 -64.0147,5.19 -98.6173,0 -149.9444,-53.057 -51.3271,-53.057 -51.3271,-170.129 v -342.565 h -73.242 v -91.12 h 73.242 v -185.124 h 108.4213 v 185.124 h 223.7631 v 91.12 h -223.7631 v 293.545 q 0,50.75 2.3069,79.586 2.3068,28.258 16.1478,53.057 12.6876,23.068 34.6025,34.026 22.4917,10.38 68.0517,10.38 26.5286,0 55.3641,-7.497 28.8354,-8.074 41.523,-13.264 h 5.7671 z"
             id="path192538" />
        </g>
        <g
           aria-label="Glow"
           id="text81941-0"
           style="font-size:1181.1px;line-height:1.25;stroke-width:104.167">
          <path
             d="m 4678.6014,-29903.448 q -70.3585,32.296 -153.9813,56.518 -83.0461,23.645 -160.9018,23.645 -100.3474,0 -183.9702,-27.682 -83.6228,-27.682 -142.4471,-83.046 -59.401,-55.941 -91.6967,-139.564 -32.2957,-84.199 -32.2957,-196.658 0,-205.885 119.9555,-324.687 120.5321,-119.379 330.4542,-119.379 73.242,0 149.3676,17.878 76.7023,17.302 164.9388,59.401 v 135.527 h -10.3808 q -17.8779,-13.841 -51.9038,-36.333 -34.0258,-22.491 -66.8982,-37.486 -39.7929,-17.878 -90.5433,-29.412 -50.1737,-12.111 -114.1884,-12.111 -144.1772,0 -228.3768,92.85 -83.6228,92.274 -83.6228,250.292 0,166.669 87.6598,259.519 87.6598,92.274 238.7575,92.274 55.3641,0 110.1514,-10.958 55.3641,-10.957 96.8871,-28.259 v -210.498 h -230.1068 v -100.348 h 343.1418 z"
             id="path192541" />
          <path
             d="m 4979.0668,-29840.01 h -108.4213 v -897.359 h 108.4213 z"
             id="path192543" />
          <path
             d="m 5743.7828,-30161.813 q 0,157.441 -80.7393,248.561 -80.7392,91.12 -216.2658,91.12 -136.68,0 -217.4193,-91.12 -80.1626,-91.12 -80.1626,-248.561 0,-157.442 80.1626,-248.562 80.7393,-91.697 217.4193,-91.697 135.5266,0 216.2658,91.697 80.7393,91.12 80.7393,248.562 z m -111.8815,0 q 0,-125.146 -49.0203,-185.701 -49.0203,-61.131 -136.1033,-61.131 -88.2365,0 -137.2568,61.131 -48.4435,60.555 -48.4435,185.701 0,121.109 49.0203,183.97 49.0202,62.284 136.68,62.284 86.5063,0 135.5266,-61.708 49.597,-62.284 49.597,-184.546 z"
             id="path192545" />
          <path
             d="m 6722.458,-30484.194 -167.8223,644.184 h -100.3474 l -165.5155,-496.546 -164.362,496.546 h -99.7707 l -169.5524,-644.184 h 113.035 l 118.2253,498.854 160.9018,-498.854 h 89.3899 l 164.9388,498.854 111.8815,-498.854 z"
             id="path192547" />
        </g>
        <g
           aria-label="Stop"
           id="text83183"
           style="font-size:1181.1px;line-height:1.25;stroke-width:104.167">
          <path
             d="m 4797.4034,-27378.974 q 0,50.173 -23.6451,99.194 -23.0683,49.02 -65.1681,83.046 -46.1367,36.909 -107.8446,57.671 -61.1311,20.761 -147.6375,20.761 -92.8501,0 -167.2456,-17.301 -73.8187,-17.301 -150.521,-51.327 v -143.024 h 8.0739 q 65.1681,54.211 150.5211,83.623 85.3529,29.412 160.3251,29.412 106.1144,0 164.9387,-39.793 59.4011,-39.793 59.4011,-106.115 0,-57.094 -28.2588,-84.199 -27.682,-27.105 -84.7762,-42.1 -43.2532,-11.534 -94.0036,-19.031 -50.1736,-7.497 -106.6911,-19.032 -114.1884,-24.221 -169.5525,-82.469 -54.7873,-58.824 -54.7873,-152.828 0,-107.844 91.12,-176.473 91.12,-69.205 231.2603,-69.205 90.5433,0 166.0922,17.301 75.5489,17.302 133.7965,42.677 v 134.95 h -8.074 q -49.0202,-41.523 -129.1828,-68.629 -79.5858,-27.682 -163.2086,-27.682 -91.6967,0 -147.6375,38.063 -55.3641,38.063 -55.3641,98.041 0,53.634 27.6821,84.199 27.682,30.566 97.4638,46.714 36.9094,8.074 104.961,19.608 68.0517,11.534 115.3418,23.645 95.7337,25.375 144.1772,76.702 48.4436,51.327 48.4436,143.601 z"
             id="path192550" />
          <path
             d="m 5306.6374,-27139.64 q -30.5655,8.074 -66.8982,13.264 -35.756,5.191 -64.0147,5.191 -98.6172,0 -149.9443,-53.058 -51.3271,-53.057 -51.3271,-170.129 v -342.565 h -73.2421 v -91.12 h 73.2421 v -185.124 h 108.4213 v 185.124 h 223.763 v 91.12 h -223.763 v 293.545 q 0,50.75 2.3068,79.586 2.3068,28.258 16.1478,53.057 12.6876,23.068 34.6026,34.026 22.4916,10.381 68.0516,10.381 26.5287,0 55.3641,-7.498 28.8355,-8.074 41.5231,-13.264 h 5.767 z"
             id="path192552" />
          <path
             d="m 5987.154,-27455.677 q 0,157.442 -80.7392,248.562 -80.7393,91.12 -216.2659,91.12 -136.68,0 -217.4193,-91.12 -80.1625,-91.12 -80.1625,-248.562 0,-157.441 80.1625,-248.561 80.7393,-91.697 217.4193,-91.697 135.5266,0 216.2659,91.697 80.7392,91.12 80.7392,248.561 z m -111.8815,0 q 0,-125.146 -49.0203,-185.7 -49.0203,-61.131 -136.1033,-61.131 -88.2365,0 -137.2567,61.131 -48.4436,60.554 -48.4436,185.7 0,121.109 49.0203,183.971 49.0202,62.284 136.68,62.284 86.5063,0 135.5266,-61.708 49.597,-62.284 49.597,-184.547 z"
             id="path192554" />
          <path
             d="m 6722.4579,-27463.751 q 0,78.433 -22.4917,143.601 -22.4916,64.591 -63.4379,109.575 -38.0628,42.676 -89.9666,66.321 -51.3271,23.069 -108.998,23.069 -50.1737,0 -91.1201,-10.958 -40.3696,-10.957 -82.4693,-34.026 v 269.9 H 6155.553 v -881.788 h 108.4213 v 67.475 q 43.2531,-36.333 96.8871,-60.554 54.2106,-24.799 115.3418,-24.799 116.4952,0 181.0866,88.237 65.1681,87.659 65.1681,243.947 z m -111.8815,2.884 q 0,-116.495 -39.793,-174.166 -39.7929,-57.671 -122.2623,-57.671 -46.7134,0 -94.0035,20.185 -47.2902,20.185 -90.5433,53.057 v 365.057 q 46.1367,20.761 79.0091,28.259 33.4491,7.497 75.5489,7.497 90.5433,0 141.2937,-61.131 50.7504,-61.132 50.7504,-181.087 z"
             id="path192556" />
        </g>
      </g>
    </g>
  </g>
</svg>
