M48
METRIC,TZ
T1C0.700
T2C0.762
T3C0.800
T4C0.813
T5C1.000
T6C1.001
T7C1.500
T8C1.524
T9C1.600
T10C3.048
%
G90
G05
T1
X-254Y81788
X1524Y63246
X2540Y14732
X4064Y82550
X4826Y34798
X4826Y20828
X5080Y88138
X7366Y14478
X9906Y20320
X10668Y54864
X12446Y14478
X12700Y64770
X14986Y20320
X15494Y14732
X15748Y17780
X20828Y37592
X21082Y35306
X21844Y13208
X23876Y80772
X23876Y34798
X23876Y22606
X24384Y84328
X26162Y62230
X31242Y55118
X36576Y64516
X38862Y13208
X41656Y62484
X42926Y86106
X43942Y30988
X46482Y12954
X52324Y55372
X52832Y28194
X55626Y12700
X56896Y63246
X59182Y28194
X60960Y6858
X68326Y21336
X72898Y17780
X73660Y61214
X75946Y15494
X79248Y52070
X85344Y14732
X87630Y27432
X87884Y19558
X88392Y56642
X90678Y30226
X90678Y14986
X92964Y45720
X92964Y19304
X95758Y30226
X98044Y19558
X100330Y30226
X100330Y22606
X102362Y49784
X102870Y73660
X103124Y64008
X103886Y32258
X105410Y15494
X106252Y22780
X107188Y66548
X107442Y57912
X107442Y38608
X107950Y87376
X107950Y27940
X109474Y55880
X112522Y55626
X112776Y31242
X112776Y15494
X115062Y56896
X115062Y15494
X117348Y66802
X117348Y48260
X120142Y29718
X122174Y27940
X130302Y27940
X132842Y49022
X135128Y46482
X135636Y13462
X137414Y15240
T2
X99822Y51562
X99822Y36322
X102362Y51562
X102362Y36322
X104902Y51562
X104902Y36322
X107442Y51562
X107442Y36322
X108712Y49022
X109982Y51562
X109982Y36322
X111252Y49022
X112522Y36322
X115062Y51562
X115062Y36322
X117602Y51562
X117602Y36322
X120142Y51562
X120142Y36322
X122682Y51562
X122682Y36322
X125222Y51562
X125222Y36322
X127762Y51562
X127762Y49022
X127762Y46482
X127762Y43942
X127762Y36322
T3
X25400Y29916
X25400Y26416
X27686Y10414
X31186Y10414
X68834Y38862
X68834Y31242
X71374Y38862
X71374Y31242
X73914Y38862
X73914Y31242
X76454Y38862
X76454Y31242
X104648Y93218
X104648Y89718
T4
X69850Y12700
X72390Y12700
X74930Y12700
T5
X17018Y86506
X17018Y84406
X17018Y82256
X17018Y77256
X17018Y75106
X17018Y73006
X31750Y86252
X31750Y84152
X31750Y82002
X31750Y77002
X31750Y74852
X31750Y72752
X48260Y86252
X48260Y84152
X48260Y82002
X48260Y77002
X48260Y74852
X48260Y72752
X58928Y82804
X64008Y86506
X64008Y84406
X64008Y82256
X64008Y77256
X64008Y75106
X64008Y73006
X70866Y88138
X78232Y86252
X78232Y84152
X78232Y82002
X78232Y77002
X78232Y74852
X78232Y72752
X92202Y76454
X92202Y73914
X92202Y71374
X92202Y68834
X92202Y66294
X92202Y63754
X92202Y61214
X112522Y51562
X127254Y71374
X127254Y66294
T6
X31496Y35052
X31750Y46736
X31750Y39116
X39116Y35052
X44704Y36002
X44704Y16002
X88138Y94742
X95758Y94742
T7
X2540Y88138
X7620Y88138
X8128Y54864
X13208Y54864
X21844Y84328
X26924Y84328
X28702Y55118
X33782Y55118
X49784Y55372
X54864Y55372
X73660Y63754
X73660Y58674
T8
X2286Y9906
X7366Y9906
X12446Y9906
X17526Y9906
X22606Y9906
X38862Y9652
X43942Y9652
X49022Y9652
X54102Y9652
X59182Y9652
X64262Y9652
X84582Y8890
X89662Y8890
X94742Y8890
X100076Y8890
X105156Y8890
X110236Y8890
X115316Y8890
X120396Y8890
X125476Y8890
X130556Y8890
X135636Y8890
X140716Y8890
T9
X20320Y49276
X27940Y49276
X35814Y49022
X43434Y49022
X52832Y49530
X60452Y49530
X67818Y49530
X75438Y49530
T10
X1778Y1524
X4318Y93726
X77470Y2286
X144526Y93472
X145034Y2794
T0
M30
