M48
METRIC,TZ
T1C0.700
T2C0.800
T3C0.813
T4C1.000
T5C1.001
T6C1.500
T7C1.524
T8C1.600
T9C3.048
%
G90
G05
T1
X9500Y34500
X11450Y66900
X11750Y100350
X15400Y124375
X60850Y45125
X63225Y16700
X69450Y45050
X71075Y52675
X71450Y39700
X71675Y81950
X71850Y87150
X72125Y76975
X86500Y32625
T2
X55720Y87400
X55720Y80925
X56220Y72550
X57245Y63300
X57695Y53325
X58260Y84860
X58260Y78385
X58380Y36125
X58380Y28505
X58760Y70010
X59785Y60760
X60235Y50785
X60800Y87400
X60800Y80925
X60920Y36125
X60920Y28505
X61300Y72550
X62325Y63300
X62775Y53325
X63350Y98200
X63350Y94700
X63460Y36125
X63460Y28505
X66000Y36125
X66000Y28505
X77135Y32165
X79675Y34705
X79675Y29625
T3
X73295Y43525
X75835Y43525
X78375Y43525
T4
X5725Y44550
X5750Y55550
X6175Y124475
X6250Y107000
X15025Y44550
X15050Y55550
X15475Y124475
X15550Y107000
X53535Y115755
X53535Y110675
X53535Y105595
X97985Y113215
X97985Y110675
X97985Y108135
T5
X51400Y86920
X51400Y79300
X51925Y75345
X51925Y67725
X52450Y53495
X52450Y45875
X52750Y100070
X52750Y92450
X56925Y100020
X56925Y92400
X71525Y69825
X71750Y64525
X79370Y64525
X91525Y69825
T6
X6960Y34500
X8910Y66900
X9210Y100350
X12040Y34500
X13990Y66900
X14290Y100350
X60685Y16700
X65765Y16700
T7
X77700Y97310
X77700Y92230
X77700Y87150
X77700Y82070
X77700Y76990
X88450Y60675
X88450Y55595
X88450Y50515
X88450Y45435
X88450Y40355
X88450Y35275
T8
X4197Y28720
X4197Y8400
X11703Y94800
X11703Y74480
X15397Y28420
X15397Y8100
T9
X3125Y3200
X10825Y115475
X88175Y14250
X89950Y122825
T4
X26800Y103525G85X26800Y109525
G05
X26950Y73825G85X26950Y79825
G05
X27200Y43800G85X27200Y49800
G05
X27575Y14250G85X27575Y20250
G05
X35200Y113025G85X35200Y119025
G05
X32200Y106125G85X38200Y106125
G05
X32200Y98125G85X38200Y98125
G05
X35350Y83325G85X35350Y89325
G05
X32350Y76425G85X38350Y76425
G05
X32350Y68425G85X38350Y68425
G05
X35600Y53300G85X35600Y59300
G05
X32600Y46400G85X38600Y46400
G05
X32600Y38400G85X38600Y38400
G05
X35975Y23750G85X35975Y29750
G05
X32975Y16850G85X38975Y16850
G05
X32975Y8850G85X38975Y8850
G05
X43600Y103525G85X43600Y109525
G05
X43750Y73825G85X43750Y79825
G05
X44000Y43800G85X44000Y49800
G05
X44375Y14250G85X44375Y20250
G05
T0
M30
