G04 #@! TF.FileFunction,Copper,L2,Bot,Signal*
%FSLAX46Y46*%
G04 Gerber Fmt 4.6, Leading zero omitted, Abs format (unit mm)*
G04 Created by KiCad (PCBNEW 4.0.6) date Monday, 02 August 2021 'AMt' 08:08:07*
%MOMM*%
%LPD*%
G01*
G04 APERTURE LIST*
%ADD10C,0.100000*%
%ADD11C,1.998980*%
%ADD12O,3.800000X5.500000*%
%ADD13O,3.800000X5.300000*%
%ADD14C,1.000760*%
%ADD15O,1.600000X2.300000*%
%ADD16C,3.000000*%
%ADD17O,9.000000X3.000000*%
%ADD18O,3.000000X9.000000*%
%ADD19R,2.540000X2.540000*%
%ADD20C,2.540000*%
%ADD21C,3.810000*%
%ADD22R,3.810000X3.810000*%
%ADD23C,10.000000*%
%ADD24R,2.032000X1.727200*%
%ADD25O,2.032000X1.727200*%
%ADD26C,0.600000*%
%ADD27C,2.000000*%
%ADD28C,1.000000*%
%ADD29C,4.000000*%
%ADD30C,6.000000*%
%ADD31C,0.500000*%
G04 APERTURE END LIST*
D10*
D11*
X4950000Y40069000D03*
X12570000Y40069000D03*
X68196000Y73851000D03*
X68196000Y81471000D03*
X68704000Y46673000D03*
X68704000Y54293000D03*
X54226000Y18225000D03*
X46606000Y18225000D03*
D12*
X30604000Y87757000D03*
D13*
X30604000Y79757000D03*
D14*
X22476000Y52769000D03*
X23746000Y54039000D03*
X23746000Y51499000D03*
X21968000Y72073000D03*
X23238000Y73343000D03*
X23238000Y70803000D03*
X22222000Y65723000D03*
X23492000Y66993000D03*
X23492000Y64453000D03*
X22476000Y59119000D03*
X23746000Y60389000D03*
X23746000Y57849000D03*
D15*
X8760000Y27369000D03*
X11300000Y27369000D03*
X13840000Y27369000D03*
X16380000Y27369000D03*
X18920000Y27369000D03*
X21460000Y27369000D03*
X24000000Y27369000D03*
X26540000Y27369000D03*
X26540000Y34989000D03*
X24000000Y34989000D03*
X21460000Y34989000D03*
X18920000Y34989000D03*
X16380000Y34989000D03*
X13840000Y34989000D03*
X11300000Y34989000D03*
X8760000Y34989000D03*
D12*
X30604000Y103505000D03*
D13*
X30604000Y95505000D03*
D16*
X27556000Y21273000D03*
X17396000Y21273000D03*
D17*
X47700000Y84169000D03*
X47700000Y100969000D03*
X57200000Y92569000D03*
D18*
X47300000Y92569000D03*
X39300000Y92569000D03*
D17*
X47700000Y55975000D03*
X47700000Y72775000D03*
X57200000Y64375000D03*
D18*
X47300000Y64375000D03*
X39300000Y64375000D03*
D17*
X47700000Y27781000D03*
X47700000Y44581000D03*
X57200000Y36181000D03*
D18*
X47300000Y36181000D03*
X39300000Y36181000D03*
D19*
X26794000Y9081000D03*
D20*
X31874000Y9081000D03*
X36954000Y9081000D03*
D21*
X9014000Y66485000D03*
X9014000Y61405000D03*
D22*
X9014000Y71565000D03*
D21*
X9014000Y56325000D03*
X9014000Y51245000D03*
X9014000Y46165000D03*
D16*
X52194000Y11367000D03*
X47114000Y11367000D03*
X73276000Y61659000D03*
X73276000Y66739000D03*
D23*
X73530000Y93663000D03*
X73530000Y37021000D03*
X50670000Y116523000D03*
X30096000Y116777000D03*
D24*
X30350000Y69533000D03*
D25*
X30350000Y66993000D03*
X30350000Y64453000D03*
X30350000Y61913000D03*
X30350000Y59373000D03*
X30350000Y56833000D03*
D26*
X31112000Y52261000D03*
X65656000Y100521000D03*
X13078000Y64453000D03*
X13840000Y53531000D03*
X13586000Y57849000D03*
X13332000Y70041000D03*
X48130000Y79439000D03*
X31874000Y73343000D03*
X35430000Y68263000D03*
X43558000Y68517000D03*
X35430000Y54547000D03*
X35176000Y63945000D03*
D27*
X54226000Y18225000D02*
X54226000Y16955000D01*
X41780000Y4255000D02*
X36954000Y9081000D01*
X53718000Y4255000D02*
X41780000Y4255000D01*
X57020000Y7557000D02*
X53718000Y4255000D01*
X57020000Y14161000D02*
X57020000Y7557000D01*
X54226000Y16955000D02*
X57020000Y14161000D01*
X4950000Y40069000D02*
X4950000Y42101000D01*
X4950000Y42101000D02*
X9014000Y46165000D01*
X4950000Y40069000D02*
X4950000Y29655000D01*
X7236000Y27369000D02*
X8760000Y27369000D01*
X4950000Y29655000D02*
X7236000Y27369000D01*
X47700000Y72775000D02*
X67120000Y72775000D01*
X67120000Y72775000D02*
X68196000Y73851000D01*
X30350000Y56833000D02*
X30350000Y53023000D01*
X30350000Y53023000D02*
X31112000Y52261000D01*
X47700000Y44581000D02*
X66612000Y44581000D01*
X66612000Y44581000D02*
X68704000Y46673000D01*
X47700000Y100969000D02*
X65208000Y100969000D01*
X65208000Y100969000D02*
X65656000Y100521000D01*
D28*
X52018000Y72267000D02*
X52018000Y72249000D01*
X51940000Y72345000D02*
X52018000Y72267000D01*
D29*
X28318000Y27369000D02*
X28826000Y27369000D01*
X30858000Y38291000D02*
X18412000Y50737000D01*
X30858000Y29401000D02*
X30858000Y38291000D01*
X28826000Y27369000D02*
X30858000Y29401000D01*
D27*
X26540000Y27369000D02*
X28318000Y27369000D01*
D29*
X18412000Y75375000D02*
X18412000Y50737000D01*
X22794000Y79757000D02*
X18412000Y75375000D01*
X30604000Y79757000D02*
X22794000Y79757000D01*
D28*
X18412000Y50737000D02*
X22984000Y50737000D01*
X22984000Y50737000D02*
X23746000Y51499000D01*
D27*
X12570000Y40069000D02*
X10284000Y40069000D01*
X8760000Y38545000D02*
X8760000Y34989000D01*
X10284000Y40069000D02*
X8760000Y38545000D01*
X30350000Y59373000D02*
X36446000Y59373000D01*
X36446000Y59373000D02*
X39300000Y56519000D01*
D29*
X39300000Y64375000D02*
X39300000Y56519000D01*
X39300000Y56519000D02*
X39300000Y36181000D01*
X30604000Y95505000D02*
X36364000Y95505000D01*
X36364000Y95505000D02*
X39300000Y92569000D01*
X39300000Y92569000D02*
X39300000Y64375000D01*
X30604000Y95505000D02*
X30604000Y87757000D01*
D27*
X17396000Y21273000D02*
X17904000Y21273000D01*
X17904000Y21273000D02*
X26794000Y13907000D01*
X26794000Y13907000D02*
X26794000Y9081000D01*
D29*
X17396000Y21273000D02*
X16380000Y23813000D01*
D27*
X16380000Y23813000D02*
X16380000Y27369000D01*
D28*
X28826000Y61913000D02*
X30350000Y61913000D01*
X24762000Y57849000D02*
X28826000Y61913000D01*
X23746000Y57849000D02*
X24762000Y57849000D01*
D27*
X27556000Y21273000D02*
X27810000Y19749000D01*
X31874000Y15685000D02*
X31874000Y9081000D01*
X27810000Y19749000D02*
X31874000Y15685000D01*
D29*
X47114000Y11367000D02*
X52194000Y11367000D01*
X27556000Y21273000D02*
X34414000Y22543000D01*
X45590000Y11367000D02*
X47114000Y11367000D01*
X34414000Y22543000D02*
X45590000Y11367000D01*
D28*
X11046000Y66485000D02*
X9014000Y66485000D01*
X13078000Y64453000D02*
X11046000Y66485000D01*
X11046000Y56325000D02*
X9014000Y56325000D01*
X13840000Y53531000D02*
X11046000Y56325000D01*
X13586000Y57849000D02*
X10030000Y61405000D01*
X10030000Y61405000D02*
X9014000Y61405000D01*
X11808000Y71565000D02*
X9014000Y71565000D01*
X13332000Y70041000D02*
X11808000Y71565000D01*
X10872000Y71645000D02*
X8506000Y71645000D01*
D30*
X70912000Y64375000D02*
X70912000Y64023000D01*
X70912000Y64023000D02*
X73276000Y61659000D01*
X57200000Y64375000D02*
X70912000Y64375000D01*
X70912000Y64375000D02*
X73276000Y66739000D01*
X57200000Y92569000D02*
X72436000Y92569000D01*
X72436000Y92569000D02*
X73530000Y93663000D01*
X57200000Y36181000D02*
X72690000Y36181000D01*
X72690000Y36181000D02*
X73530000Y37021000D01*
D27*
X47700000Y79869000D02*
X47700000Y84169000D01*
X48130000Y79439000D02*
X47700000Y79869000D01*
X47700000Y84169000D02*
X65498000Y84169000D01*
X65498000Y84169000D02*
X68196000Y81471000D01*
D28*
X23238000Y73343000D02*
X25016000Y73343000D01*
X25016000Y73343000D02*
X28826000Y69533000D01*
X28826000Y69533000D02*
X30350000Y69533000D01*
D27*
X30350000Y69533000D02*
X30350000Y71819000D01*
X30350000Y71819000D02*
X31874000Y73343000D01*
X30350000Y66993000D02*
X34160000Y66993000D01*
X34160000Y66993000D02*
X35430000Y68263000D01*
X43304000Y60371000D02*
X47700000Y55975000D01*
X43304000Y68263000D02*
X43304000Y60371000D01*
X43558000Y68517000D02*
X43304000Y68263000D01*
X47700000Y55975000D02*
X67022000Y55975000D01*
X67022000Y55975000D02*
X68704000Y54293000D01*
D28*
X23492000Y66993000D02*
X30350000Y66993000D01*
D27*
X50512000Y55467000D02*
X52018000Y55467000D01*
X30350000Y64453000D02*
X34668000Y64453000D01*
X38320000Y27781000D02*
X47700000Y27781000D01*
X34922000Y31179000D02*
X38320000Y27781000D01*
X34922000Y54039000D02*
X34922000Y31179000D01*
X35430000Y54547000D02*
X34922000Y54039000D01*
X34668000Y64453000D02*
X35176000Y63945000D01*
X46606000Y18225000D02*
X46606000Y26687000D01*
X46606000Y26687000D02*
X47700000Y27781000D01*
D28*
X23746000Y60389000D02*
X27810000Y64453000D01*
X27810000Y64453000D02*
X30350000Y64453000D01*
D29*
X30604000Y103505000D02*
X29398000Y103505000D01*
X50670000Y116523000D02*
X50670000Y109665000D01*
X50670000Y109665000D02*
X49654000Y108649000D01*
X48384000Y114237000D02*
X48384000Y109919000D01*
X49654000Y108649000D02*
X48384000Y109919000D01*
X49654000Y108649000D02*
X53718000Y108649000D01*
X48384000Y114237000D02*
X50670000Y116523000D01*
X38224000Y103505000D02*
X38224000Y104077000D01*
X38224000Y104077000D02*
X41780000Y107633000D01*
X41780000Y107633000D02*
X52956000Y107633000D01*
X52956000Y107633000D02*
X53718000Y108395000D01*
X53718000Y108395000D02*
X53718000Y108649000D01*
X53718000Y108649000D02*
X53718000Y113475000D01*
X53718000Y113475000D02*
X50670000Y116523000D01*
X30604000Y106871000D02*
X30604000Y107633000D01*
X44574000Y118047000D02*
X49146000Y118047000D01*
X42034000Y115507000D02*
X44574000Y118047000D01*
X42034000Y115253000D02*
X42034000Y115507000D01*
X34922000Y108141000D02*
X42034000Y115253000D01*
X31112000Y108141000D02*
X34922000Y108141000D01*
X30604000Y107633000D02*
X31112000Y108141000D01*
X49146000Y118047000D02*
X50670000Y116523000D01*
X30604000Y103505000D02*
X30604000Y106871000D01*
X36192000Y106617000D02*
X46098000Y116523000D01*
X30858000Y106617000D02*
X36192000Y106617000D01*
X30604000Y106871000D02*
X30858000Y106617000D01*
X46098000Y116523000D02*
X50670000Y116523000D01*
X50670000Y116523000D02*
X43304000Y109157000D01*
X36890000Y103505000D02*
X38224000Y103505000D01*
X38224000Y103505000D02*
X30604000Y103505000D01*
X42542000Y109157000D02*
X36890000Y103505000D01*
X43304000Y109157000D02*
X42542000Y109157000D01*
X29144000Y102045000D02*
X30604000Y103505000D01*
D31*
G36*
X59251000Y115761000D02*
X59351860Y115253944D01*
X59389702Y115197309D01*
X59765764Y112545062D01*
X59936808Y112057187D01*
X61754171Y108980540D01*
X62098897Y108595258D01*
X64955304Y106448281D01*
X65197197Y106331971D01*
X65421230Y106224248D01*
X68881817Y105333799D01*
X69048383Y105324545D01*
X69212000Y105292000D01*
X78301000Y105292000D01*
X78301000Y97730225D01*
X77074963Y98958403D01*
X74778656Y99911913D01*
X72292252Y99914083D01*
X69994284Y98964582D01*
X68234597Y97207963D01*
X68073085Y96819000D01*
X57200000Y96819000D01*
X55573595Y96495488D01*
X54194796Y95574204D01*
X54014606Y95304530D01*
X53034972Y95109669D01*
X52142807Y94513544D01*
X51546682Y93621379D01*
X51337351Y92569000D01*
X51546682Y91516621D01*
X52142807Y90624456D01*
X53034972Y90028331D01*
X54014606Y89833470D01*
X54194796Y89563796D01*
X55573595Y88642512D01*
X57200000Y88319000D01*
X70102072Y88319000D01*
X72281344Y87414087D01*
X74767748Y87411917D01*
X77065716Y88361418D01*
X78301000Y89594548D01*
X78301000Y41088225D01*
X77074963Y42316403D01*
X74778656Y43269913D01*
X72292252Y43272083D01*
X69994284Y42322582D01*
X68234597Y40565963D01*
X68178555Y40431000D01*
X57200000Y40431000D01*
X55573595Y40107488D01*
X54194796Y39186204D01*
X54014606Y38916530D01*
X53034972Y38721669D01*
X52142807Y38125544D01*
X51546682Y37233379D01*
X51337351Y36181000D01*
X51546682Y35128621D01*
X52142807Y34236456D01*
X53034972Y33640331D01*
X54014606Y33445470D01*
X54194796Y33175796D01*
X55573595Y32254512D01*
X57200000Y31931000D01*
X69779992Y31931000D01*
X69985037Y31725597D01*
X72281344Y30772087D01*
X74767748Y30769917D01*
X77065716Y31719418D01*
X78301000Y32952548D01*
X78301000Y21836000D01*
X70202245Y21836000D01*
X69973055Y21989140D01*
X69466000Y22089999D01*
X68958945Y21989140D01*
X68529084Y21701916D01*
X68469867Y21613291D01*
X65962253Y21114495D01*
X65729423Y21018055D01*
X65484612Y20916651D01*
X65484610Y20916649D01*
X62518087Y18934483D01*
X62152519Y18568915D01*
X60170349Y15602388D01*
X59972506Y15124752D01*
X59458778Y12542070D01*
X59351860Y12382056D01*
X59251000Y11875000D01*
X59251000Y3040000D01*
X22023000Y3040000D01*
X22023000Y11621000D01*
X21922140Y12128056D01*
X21909240Y12147362D01*
X21405373Y15107903D01*
X21220868Y15590848D01*
X21205258Y15615676D01*
X24544000Y12849290D01*
X24544000Y11130887D01*
X24349924Y10846847D01*
X24249512Y10351000D01*
X24249512Y7811000D01*
X24336673Y7347778D01*
X24610437Y6922337D01*
X25028153Y6636924D01*
X25524000Y6536512D01*
X28064000Y6536512D01*
X28527222Y6623673D01*
X28952663Y6897437D01*
X29238076Y7315153D01*
X29338488Y7811000D01*
X29338488Y10351000D01*
X29251327Y10814222D01*
X29044000Y11136417D01*
X29044000Y13907000D01*
X29023259Y14011271D01*
X29034176Y14117017D01*
X28938229Y14438746D01*
X28872729Y14768038D01*
X28813666Y14856432D01*
X28783284Y14958309D01*
X28571513Y15218839D01*
X28384990Y15497990D01*
X28296597Y15557052D01*
X28229540Y15639549D01*
X20493804Y22049159D01*
X20413549Y22480019D01*
X19398679Y25017196D01*
X19704501Y25078028D01*
X20190000Y25402428D01*
X20675499Y25078028D01*
X21460000Y24921981D01*
X22244501Y25078028D01*
X22730000Y25402428D01*
X23215499Y25078028D01*
X24000000Y24921981D01*
X24784501Y25078028D01*
X25270000Y25402428D01*
X25755499Y25078028D01*
X26116795Y25006162D01*
X26937284Y24457929D01*
X25786329Y23998942D01*
X24877864Y23114219D01*
X24377121Y21949186D01*
X24360333Y20681210D01*
X24830058Y19503329D01*
X25714781Y18594864D01*
X25969113Y18485550D01*
X26076610Y18371126D01*
X26219010Y18158010D01*
X29624000Y14753020D01*
X29624000Y10233636D01*
X29354438Y9584458D01*
X29353563Y8581940D01*
X29736402Y7655399D01*
X30444671Y6945893D01*
X31370542Y6561438D01*
X32373060Y6560563D01*
X33299601Y6943402D01*
X34009107Y7651671D01*
X34393562Y8577542D01*
X34394437Y9580060D01*
X34124000Y10234567D01*
X34124000Y15685000D01*
X33952729Y16546038D01*
X33464990Y17275990D01*
X31958044Y18782936D01*
X33324773Y19036033D01*
X43291903Y9068903D01*
X44346279Y8364392D01*
X45590000Y8117000D01*
X52194000Y8117000D01*
X53437721Y8364392D01*
X54492097Y9068903D01*
X55196608Y10123279D01*
X55444000Y11367000D01*
X55196608Y12610721D01*
X54492097Y13665097D01*
X53437721Y14369608D01*
X52194000Y14617000D01*
X46936194Y14617000D01*
X36712097Y24841097D01*
X36463670Y25007091D01*
X36255218Y25221136D01*
X35941575Y25355943D01*
X35657721Y25545608D01*
X35364683Y25603897D01*
X35090185Y25721879D01*
X34748829Y25726398D01*
X34414000Y25793000D01*
X34120961Y25734711D01*
X33822210Y25738666D01*
X31330417Y25277223D01*
X33156097Y27102903D01*
X33860608Y28157279D01*
X34010116Y28908904D01*
X36729010Y26190010D01*
X37458962Y25702271D01*
X38320000Y25531000D01*
X43099955Y25531000D01*
X43534972Y25240331D01*
X44356000Y25077019D01*
X44356000Y18225000D01*
X44356507Y18222453D01*
X44356120Y17779512D01*
X44526760Y17366533D01*
X44527271Y17363962D01*
X44528714Y17361802D01*
X44697863Y16952431D01*
X45013555Y16636188D01*
X45015010Y16634010D01*
X45017169Y16632567D01*
X45330103Y16319087D01*
X45742782Y16147727D01*
X45744962Y16146271D01*
X45747511Y16145764D01*
X46156586Y15975901D01*
X46603431Y15975511D01*
X46606000Y15975000D01*
X46608547Y15975507D01*
X47051488Y15975120D01*
X47464467Y16145760D01*
X47467038Y16146271D01*
X47469198Y16147714D01*
X47878569Y16316863D01*
X48194812Y16632555D01*
X48196990Y16634010D01*
X48198433Y16636169D01*
X48511913Y16949103D01*
X48683273Y17361782D01*
X48684729Y17363962D01*
X48685236Y17366511D01*
X48855099Y17775586D01*
X48855489Y18222431D01*
X48856000Y18225000D01*
X48856000Y25031000D01*
X50812649Y25031000D01*
X51865028Y25240331D01*
X52757193Y25836456D01*
X53353318Y26728621D01*
X53562649Y27781000D01*
X53353318Y28833379D01*
X52757193Y29725544D01*
X51865028Y30321669D01*
X50812649Y30531000D01*
X48357345Y30531000D01*
X49244544Y31123807D01*
X49840669Y32015972D01*
X50050000Y33068351D01*
X50050000Y39293649D01*
X49840669Y40346028D01*
X49244544Y41238193D01*
X48352379Y41834318D01*
X47300000Y42043649D01*
X46247621Y41834318D01*
X45355456Y41238193D01*
X44759331Y40346028D01*
X44550000Y39293649D01*
X44550000Y33068351D01*
X44759331Y32015972D01*
X45355456Y31123807D01*
X46242655Y30531000D01*
X44587351Y30531000D01*
X43534972Y30321669D01*
X43099955Y30031000D01*
X39251980Y30031000D01*
X38881356Y30401624D01*
X39300000Y30318351D01*
X40352379Y30527682D01*
X41244544Y31123807D01*
X41840669Y32015972D01*
X42050000Y33068351D01*
X42050000Y34559224D01*
X42302608Y34937279D01*
X42550000Y36181000D01*
X42550000Y54169352D01*
X42642807Y54030456D01*
X43534972Y53434331D01*
X44587351Y53225000D01*
X50471781Y53225000D01*
X50512000Y53217000D01*
X52018000Y53217000D01*
X52879038Y53388271D01*
X53382988Y53725000D01*
X66090020Y53725000D01*
X67113010Y52702010D01*
X67115169Y52700567D01*
X67428103Y52387087D01*
X67840782Y52215727D01*
X67842962Y52214271D01*
X67845511Y52213764D01*
X68254586Y52043901D01*
X68701436Y52043511D01*
X68704000Y52043001D01*
X68706542Y52043507D01*
X69149488Y52043120D01*
X69562468Y52213760D01*
X69565037Y52214271D01*
X69567196Y52215713D01*
X69976569Y52384863D01*
X70292812Y52700555D01*
X70294990Y52702010D01*
X70296433Y52704169D01*
X70609913Y53017103D01*
X70781274Y53429785D01*
X70782729Y53431963D01*
X70783236Y53434510D01*
X70953099Y53843586D01*
X70953489Y54290436D01*
X70953999Y54293000D01*
X70953493Y54295542D01*
X70953880Y54738488D01*
X70783240Y55151467D01*
X70782729Y55154038D01*
X70781286Y55156198D01*
X70612137Y55565569D01*
X70296445Y55881812D01*
X70294990Y55883990D01*
X68612990Y57565990D01*
X67883038Y58053729D01*
X67022000Y58225000D01*
X52300045Y58225000D01*
X51865028Y58515669D01*
X50812649Y58725000D01*
X48357345Y58725000D01*
X49244544Y59317807D01*
X49840669Y60209972D01*
X50050000Y61262351D01*
X50050000Y64375000D01*
X51337351Y64375000D01*
X51546682Y63322621D01*
X52142807Y62430456D01*
X53034972Y61834331D01*
X54014606Y61639470D01*
X54194796Y61369796D01*
X55573595Y60448512D01*
X57200000Y60125000D01*
X68799592Y60125000D01*
X70270796Y58653796D01*
X71649596Y57732512D01*
X73276000Y57409000D01*
X74902404Y57732512D01*
X76281204Y58653796D01*
X77202488Y60032596D01*
X77526000Y61659000D01*
X77202488Y63285404D01*
X76592043Y64199000D01*
X77202488Y65112596D01*
X77526000Y66739000D01*
X77202488Y68365404D01*
X76281204Y69744204D01*
X74902404Y70665488D01*
X73276000Y70989000D01*
X71649596Y70665488D01*
X70270796Y69744204D01*
X69151592Y68625000D01*
X57200000Y68625000D01*
X55573595Y68301488D01*
X54194796Y67380204D01*
X54014606Y67110530D01*
X53034972Y66915669D01*
X52142807Y66319544D01*
X51546682Y65427379D01*
X51337351Y64375000D01*
X50050000Y64375000D01*
X50050000Y67487649D01*
X49840669Y68540028D01*
X49244544Y69432193D01*
X48352379Y70028318D01*
X47300000Y70237649D01*
X46247621Y70028318D01*
X45524895Y69545408D01*
X45148990Y70107990D01*
X44419037Y70595729D01*
X43558000Y70766999D01*
X42696962Y70595729D01*
X42550000Y70497532D01*
X42550000Y82363352D01*
X42642807Y82224456D01*
X43534972Y81628331D01*
X44587351Y81419000D01*
X45450000Y81419000D01*
X45450000Y79869000D01*
X45621271Y79007962D01*
X46109010Y78278010D01*
X46539010Y77848010D01*
X47268963Y77360271D01*
X48130000Y77189000D01*
X48991038Y77360271D01*
X49720990Y77848010D01*
X50208729Y78577962D01*
X50380000Y79439000D01*
X50208729Y80300037D01*
X49950000Y80687252D01*
X49950000Y81419000D01*
X50812649Y81419000D01*
X51865028Y81628331D01*
X52300045Y81919000D01*
X64566020Y81919000D01*
X66605010Y79880010D01*
X66607169Y79878567D01*
X66920103Y79565087D01*
X67332782Y79393727D01*
X67334962Y79392271D01*
X67337511Y79391764D01*
X67746586Y79221901D01*
X68193431Y79221511D01*
X68196000Y79221000D01*
X68198547Y79221507D01*
X68641488Y79221120D01*
X69054468Y79391760D01*
X69057037Y79392271D01*
X69059196Y79393713D01*
X69468569Y79562863D01*
X69784812Y79878555D01*
X69786990Y79880010D01*
X69788433Y79882169D01*
X70101913Y80195103D01*
X70273274Y80607785D01*
X70274729Y80609963D01*
X70275236Y80612510D01*
X70445099Y81021586D01*
X70445489Y81468431D01*
X70446000Y81471000D01*
X70445493Y81473547D01*
X70445880Y81916488D01*
X70275240Y82329467D01*
X70274729Y82332038D01*
X70273286Y82334198D01*
X70104137Y82743569D01*
X69788445Y83059812D01*
X69786990Y83061990D01*
X67088990Y85759990D01*
X66359038Y86247729D01*
X65498000Y86419000D01*
X52300045Y86419000D01*
X51865028Y86709669D01*
X50812649Y86919000D01*
X48357345Y86919000D01*
X49244544Y87511807D01*
X49840669Y88403972D01*
X50050000Y89456351D01*
X50050000Y95681649D01*
X49840669Y96734028D01*
X49244544Y97626193D01*
X48352379Y98222318D01*
X47300000Y98431649D01*
X46247621Y98222318D01*
X45355456Y97626193D01*
X44759331Y96734028D01*
X44550000Y95681649D01*
X44550000Y89456351D01*
X44759331Y88403972D01*
X45355456Y87511807D01*
X46242655Y86919000D01*
X44587351Y86919000D01*
X43534972Y86709669D01*
X42642807Y86113544D01*
X42550000Y85974648D01*
X42550000Y92569000D01*
X42302608Y93812721D01*
X42050000Y94190776D01*
X42050000Y95681649D01*
X41840669Y96734028D01*
X41244544Y97626193D01*
X40352379Y98222318D01*
X39300000Y98431649D01*
X38247621Y98222318D01*
X38141154Y98151179D01*
X37607721Y98507608D01*
X36364000Y98755000D01*
X32537740Y98755000D01*
X31809453Y99241627D01*
X30943643Y99413847D01*
X31114862Y99528251D01*
X31809453Y99666414D01*
X32690333Y100255000D01*
X38224000Y100255000D01*
X39467721Y100502392D01*
X40522097Y101206903D01*
X41226608Y102261279D01*
X41281765Y102538571D01*
X43126194Y104383000D01*
X52956000Y104383000D01*
X54199721Y104630392D01*
X55254097Y105334903D01*
X56016097Y106096903D01*
X56720608Y107151279D01*
X56968000Y108395000D01*
X56968000Y113475000D01*
X56720608Y114718721D01*
X56700620Y114748636D01*
X56918913Y115274344D01*
X56921083Y117760748D01*
X55971582Y120058716D01*
X54214963Y121818403D01*
X51918656Y122771913D01*
X49432252Y122774083D01*
X47134284Y121824582D01*
X46605781Y121297000D01*
X44574000Y121297000D01*
X43330279Y121049608D01*
X42275903Y120345097D01*
X39735903Y117805097D01*
X39224432Y117039626D01*
X33575806Y111391000D01*
X31112000Y111391000D01*
X29868279Y111143608D01*
X28813903Y110439097D01*
X28305903Y109931097D01*
X27601392Y108876721D01*
X27354000Y107633000D01*
X27354000Y105972879D01*
X27099903Y105803097D01*
X26395392Y104748721D01*
X26148000Y103505000D01*
X26179636Y103345957D01*
X26141392Y103288721D01*
X25894000Y102045000D01*
X26141392Y100801279D01*
X26845903Y99746903D01*
X27900279Y99042392D01*
X28825068Y98858440D01*
X28376614Y98558792D01*
X27693779Y97536859D01*
X27454000Y96331406D01*
X27454000Y96007733D01*
X27354000Y95505000D01*
X27354000Y87757000D01*
X27454000Y87254267D01*
X27454000Y86828635D01*
X27693779Y85623182D01*
X28376614Y84601249D01*
X29398547Y83918414D01*
X30466324Y83706020D01*
X29398547Y83493627D01*
X28670260Y83007000D01*
X22794000Y83007000D01*
X21550279Y82759608D01*
X20495903Y82055097D01*
X16113903Y77673097D01*
X15409392Y76618721D01*
X15162000Y75375000D01*
X15162000Y58579741D01*
X14823437Y59086437D01*
X12169294Y61740580D01*
X12169546Y62029815D01*
X11690238Y63189829D01*
X10935845Y63945539D01*
X11023292Y64032834D01*
X11840563Y63215563D01*
X12408304Y62836211D01*
X13078000Y62703000D01*
X13747696Y62836211D01*
X14315437Y63215563D01*
X14694789Y63783304D01*
X14828000Y64453000D01*
X14694789Y65122696D01*
X14315437Y65690437D01*
X12283437Y67722437D01*
X11776442Y68061200D01*
X11690238Y68269829D01*
X11446474Y68514018D01*
X11807663Y68746437D01*
X11947309Y68950817D01*
X12094563Y68803563D01*
X12662304Y68424211D01*
X13332000Y68291000D01*
X14001696Y68424211D01*
X14569437Y68803563D01*
X14948789Y69371304D01*
X15082000Y70041000D01*
X14948789Y70710696D01*
X14569437Y71278437D01*
X13045437Y72802437D01*
X12477696Y73181789D01*
X12193488Y73238322D01*
X12193488Y73470000D01*
X12106327Y73933222D01*
X11832563Y74358663D01*
X11414847Y74644076D01*
X10919000Y74744488D01*
X7109000Y74744488D01*
X6645778Y74657327D01*
X6220337Y74383563D01*
X5934924Y73965847D01*
X5834512Y73470000D01*
X5834512Y69660000D01*
X5921673Y69196778D01*
X6195437Y68771337D01*
X6577251Y68510455D01*
X6340881Y68274497D01*
X5859549Y67115322D01*
X5858454Y65860185D01*
X6337762Y64700171D01*
X7092155Y63944461D01*
X6340881Y63194497D01*
X5859549Y62035322D01*
X5858454Y60780185D01*
X6337762Y59620171D01*
X7092155Y58864461D01*
X6340881Y58114497D01*
X5859549Y56955322D01*
X5858454Y55700185D01*
X6337762Y54540171D01*
X7092155Y53784461D01*
X6340881Y53034497D01*
X5859549Y51875322D01*
X5858454Y50620185D01*
X6337762Y49460171D01*
X7224503Y48571881D01*
X8383678Y48090549D01*
X9638815Y48089454D01*
X10798829Y48568762D01*
X11687119Y49455503D01*
X12168451Y50614678D01*
X12169546Y51869815D01*
X11690238Y53029829D01*
X10935845Y53785539D01*
X11023292Y53872834D01*
X12602563Y52293563D01*
X13170304Y51914211D01*
X13840000Y51781000D01*
X14509696Y51914211D01*
X15077437Y52293563D01*
X15162000Y52420121D01*
X15162000Y50737000D01*
X15409392Y49493279D01*
X16113903Y48438903D01*
X27260005Y37292801D01*
X26540000Y37436019D01*
X25755499Y37279972D01*
X25270000Y36955572D01*
X24784501Y37279972D01*
X24000000Y37436019D01*
X23215499Y37279972D01*
X22730000Y36955572D01*
X22244501Y37279972D01*
X21460000Y37436019D01*
X20675499Y37279972D01*
X20190000Y36955572D01*
X19704501Y37279972D01*
X18920000Y37436019D01*
X18135499Y37279972D01*
X17650000Y36955572D01*
X17164501Y37279972D01*
X16380000Y37436019D01*
X15595499Y37279972D01*
X15110000Y36955572D01*
X14624501Y37279972D01*
X13840000Y37436019D01*
X13055499Y37279972D01*
X12570000Y36955572D01*
X12084501Y37279972D01*
X11300000Y37436019D01*
X11010000Y37378334D01*
X11010000Y37613020D01*
X11215981Y37819000D01*
X12570000Y37819000D01*
X12572547Y37819507D01*
X13015488Y37819120D01*
X13428467Y37989760D01*
X13431038Y37990271D01*
X13433198Y37991714D01*
X13842569Y38160863D01*
X14158812Y38476555D01*
X14160990Y38478010D01*
X14162433Y38480169D01*
X14475913Y38793103D01*
X14647273Y39205782D01*
X14648729Y39207962D01*
X14649236Y39210511D01*
X14819099Y39619586D01*
X14819489Y40066431D01*
X14820000Y40069000D01*
X14819493Y40071547D01*
X14819880Y40514488D01*
X14649240Y40927467D01*
X14648729Y40930038D01*
X14647286Y40932198D01*
X14478137Y41341569D01*
X14162445Y41657812D01*
X14160990Y41659990D01*
X14158831Y41661433D01*
X13845897Y41974913D01*
X13433218Y42146273D01*
X13431038Y42147729D01*
X13428489Y42148236D01*
X13019414Y42318099D01*
X12572569Y42318489D01*
X12570000Y42319000D01*
X10284000Y42319000D01*
X9422962Y42147729D01*
X8693009Y41659990D01*
X7169010Y40135990D01*
X6681271Y39406038D01*
X6510000Y38545000D01*
X6510000Y34989000D01*
X6681271Y34127962D01*
X6853600Y33870053D01*
X6866047Y33807480D01*
X7310431Y33142412D01*
X7975499Y32698028D01*
X8760000Y32541981D01*
X9544501Y32698028D01*
X10030000Y33022428D01*
X10515499Y32698028D01*
X11300000Y32541981D01*
X12084501Y32698028D01*
X12570000Y33022428D01*
X13055499Y32698028D01*
X13840000Y32541981D01*
X14624501Y32698028D01*
X15110000Y33022428D01*
X15595499Y32698028D01*
X16380000Y32541981D01*
X17164501Y32698028D01*
X17650000Y33022428D01*
X18135499Y32698028D01*
X18920000Y32541981D01*
X19704501Y32698028D01*
X20190000Y33022428D01*
X20675499Y32698028D01*
X21460000Y32541981D01*
X22244501Y32698028D01*
X22730000Y33022428D01*
X23215499Y32698028D01*
X24000000Y32541981D01*
X24784501Y32698028D01*
X25270000Y33022428D01*
X25755499Y32698028D01*
X26540000Y32541981D01*
X27324501Y32698028D01*
X27608000Y32887456D01*
X27608000Y30747194D01*
X27271679Y30410873D01*
X27074279Y30371608D01*
X26116795Y29731838D01*
X25755499Y29659972D01*
X25270000Y29335572D01*
X24784501Y29659972D01*
X24000000Y29816019D01*
X23215499Y29659972D01*
X22730000Y29335572D01*
X22244501Y29659972D01*
X21460000Y29816019D01*
X20675499Y29659972D01*
X20190000Y29335572D01*
X19704501Y29659972D01*
X18920000Y29816019D01*
X18135499Y29659972D01*
X17650000Y29335572D01*
X17164501Y29659972D01*
X16380000Y29816019D01*
X15595499Y29659972D01*
X15110000Y29335572D01*
X14624501Y29659972D01*
X13840000Y29816019D01*
X13055499Y29659972D01*
X12570000Y29335572D01*
X12084501Y29659972D01*
X11300000Y29816019D01*
X10515499Y29659972D01*
X9850431Y29215588D01*
X9406047Y28550520D01*
X9250000Y27766019D01*
X9250000Y26971981D01*
X9406047Y26187480D01*
X9850431Y25522412D01*
X10515499Y25078028D01*
X11300000Y24921981D01*
X12084501Y25078028D01*
X12570000Y25402428D01*
X13055499Y25078028D01*
X13376066Y25014263D01*
X13130242Y23852625D01*
X13362451Y22605980D01*
X13730545Y21685745D01*
X12102479Y22056862D01*
X11953839Y22060991D01*
X11808000Y22090000D01*
X2973000Y22090000D01*
X2973000Y105292000D01*
X11554000Y105292000D01*
X12061056Y105392860D01*
X12080362Y105405760D01*
X15040902Y105909627D01*
X15523848Y106094131D01*
X18545434Y107993897D01*
X18700943Y108141000D01*
X18921011Y108349172D01*
X20985585Y111260639D01*
X21046829Y111397608D01*
X21196615Y111732598D01*
X21989862Y115212520D01*
X21993991Y115361162D01*
X22023000Y115507000D01*
X22023000Y124342000D01*
X59251000Y124342000D01*
X59251000Y115761000D01*
X59251000Y115761000D01*
G37*
X59251000Y115761000D02*
X59351860Y115253944D01*
X59389702Y115197309D01*
X59765764Y112545062D01*
X59936808Y112057187D01*
X61754171Y108980540D01*
X62098897Y108595258D01*
X64955304Y106448281D01*
X65197197Y106331971D01*
X65421230Y106224248D01*
X68881817Y105333799D01*
X69048383Y105324545D01*
X69212000Y105292000D01*
X78301000Y105292000D01*
X78301000Y97730225D01*
X77074963Y98958403D01*
X74778656Y99911913D01*
X72292252Y99914083D01*
X69994284Y98964582D01*
X68234597Y97207963D01*
X68073085Y96819000D01*
X57200000Y96819000D01*
X55573595Y96495488D01*
X54194796Y95574204D01*
X54014606Y95304530D01*
X53034972Y95109669D01*
X52142807Y94513544D01*
X51546682Y93621379D01*
X51337351Y92569000D01*
X51546682Y91516621D01*
X52142807Y90624456D01*
X53034972Y90028331D01*
X54014606Y89833470D01*
X54194796Y89563796D01*
X55573595Y88642512D01*
X57200000Y88319000D01*
X70102072Y88319000D01*
X72281344Y87414087D01*
X74767748Y87411917D01*
X77065716Y88361418D01*
X78301000Y89594548D01*
X78301000Y41088225D01*
X77074963Y42316403D01*
X74778656Y43269913D01*
X72292252Y43272083D01*
X69994284Y42322582D01*
X68234597Y40565963D01*
X68178555Y40431000D01*
X57200000Y40431000D01*
X55573595Y40107488D01*
X54194796Y39186204D01*
X54014606Y38916530D01*
X53034972Y38721669D01*
X52142807Y38125544D01*
X51546682Y37233379D01*
X51337351Y36181000D01*
X51546682Y35128621D01*
X52142807Y34236456D01*
X53034972Y33640331D01*
X54014606Y33445470D01*
X54194796Y33175796D01*
X55573595Y32254512D01*
X57200000Y31931000D01*
X69779992Y31931000D01*
X69985037Y31725597D01*
X72281344Y30772087D01*
X74767748Y30769917D01*
X77065716Y31719418D01*
X78301000Y32952548D01*
X78301000Y21836000D01*
X70202245Y21836000D01*
X69973055Y21989140D01*
X69466000Y22089999D01*
X68958945Y21989140D01*
X68529084Y21701916D01*
X68469867Y21613291D01*
X65962253Y21114495D01*
X65729423Y21018055D01*
X65484612Y20916651D01*
X65484610Y20916649D01*
X62518087Y18934483D01*
X62152519Y18568915D01*
X60170349Y15602388D01*
X59972506Y15124752D01*
X59458778Y12542070D01*
X59351860Y12382056D01*
X59251000Y11875000D01*
X59251000Y3040000D01*
X22023000Y3040000D01*
X22023000Y11621000D01*
X21922140Y12128056D01*
X21909240Y12147362D01*
X21405373Y15107903D01*
X21220868Y15590848D01*
X21205258Y15615676D01*
X24544000Y12849290D01*
X24544000Y11130887D01*
X24349924Y10846847D01*
X24249512Y10351000D01*
X24249512Y7811000D01*
X24336673Y7347778D01*
X24610437Y6922337D01*
X25028153Y6636924D01*
X25524000Y6536512D01*
X28064000Y6536512D01*
X28527222Y6623673D01*
X28952663Y6897437D01*
X29238076Y7315153D01*
X29338488Y7811000D01*
X29338488Y10351000D01*
X29251327Y10814222D01*
X29044000Y11136417D01*
X29044000Y13907000D01*
X29023259Y14011271D01*
X29034176Y14117017D01*
X28938229Y14438746D01*
X28872729Y14768038D01*
X28813666Y14856432D01*
X28783284Y14958309D01*
X28571513Y15218839D01*
X28384990Y15497990D01*
X28296597Y15557052D01*
X28229540Y15639549D01*
X20493804Y22049159D01*
X20413549Y22480019D01*
X19398679Y25017196D01*
X19704501Y25078028D01*
X20190000Y25402428D01*
X20675499Y25078028D01*
X21460000Y24921981D01*
X22244501Y25078028D01*
X22730000Y25402428D01*
X23215499Y25078028D01*
X24000000Y24921981D01*
X24784501Y25078028D01*
X25270000Y25402428D01*
X25755499Y25078028D01*
X26116795Y25006162D01*
X26937284Y24457929D01*
X25786329Y23998942D01*
X24877864Y23114219D01*
X24377121Y21949186D01*
X24360333Y20681210D01*
X24830058Y19503329D01*
X25714781Y18594864D01*
X25969113Y18485550D01*
X26076610Y18371126D01*
X26219010Y18158010D01*
X29624000Y14753020D01*
X29624000Y10233636D01*
X29354438Y9584458D01*
X29353563Y8581940D01*
X29736402Y7655399D01*
X30444671Y6945893D01*
X31370542Y6561438D01*
X32373060Y6560563D01*
X33299601Y6943402D01*
X34009107Y7651671D01*
X34393562Y8577542D01*
X34394437Y9580060D01*
X34124000Y10234567D01*
X34124000Y15685000D01*
X33952729Y16546038D01*
X33464990Y17275990D01*
X31958044Y18782936D01*
X33324773Y19036033D01*
X43291903Y9068903D01*
X44346279Y8364392D01*
X45590000Y8117000D01*
X52194000Y8117000D01*
X53437721Y8364392D01*
X54492097Y9068903D01*
X55196608Y10123279D01*
X55444000Y11367000D01*
X55196608Y12610721D01*
X54492097Y13665097D01*
X53437721Y14369608D01*
X52194000Y14617000D01*
X46936194Y14617000D01*
X36712097Y24841097D01*
X36463670Y25007091D01*
X36255218Y25221136D01*
X35941575Y25355943D01*
X35657721Y25545608D01*
X35364683Y25603897D01*
X35090185Y25721879D01*
X34748829Y25726398D01*
X34414000Y25793000D01*
X34120961Y25734711D01*
X33822210Y25738666D01*
X31330417Y25277223D01*
X33156097Y27102903D01*
X33860608Y28157279D01*
X34010116Y28908904D01*
X36729010Y26190010D01*
X37458962Y25702271D01*
X38320000Y25531000D01*
X43099955Y25531000D01*
X43534972Y25240331D01*
X44356000Y25077019D01*
X44356000Y18225000D01*
X44356507Y18222453D01*
X44356120Y17779512D01*
X44526760Y17366533D01*
X44527271Y17363962D01*
X44528714Y17361802D01*
X44697863Y16952431D01*
X45013555Y16636188D01*
X45015010Y16634010D01*
X45017169Y16632567D01*
X45330103Y16319087D01*
X45742782Y16147727D01*
X45744962Y16146271D01*
X45747511Y16145764D01*
X46156586Y15975901D01*
X46603431Y15975511D01*
X46606000Y15975000D01*
X46608547Y15975507D01*
X47051488Y15975120D01*
X47464467Y16145760D01*
X47467038Y16146271D01*
X47469198Y16147714D01*
X47878569Y16316863D01*
X48194812Y16632555D01*
X48196990Y16634010D01*
X48198433Y16636169D01*
X48511913Y16949103D01*
X48683273Y17361782D01*
X48684729Y17363962D01*
X48685236Y17366511D01*
X48855099Y17775586D01*
X48855489Y18222431D01*
X48856000Y18225000D01*
X48856000Y25031000D01*
X50812649Y25031000D01*
X51865028Y25240331D01*
X52757193Y25836456D01*
X53353318Y26728621D01*
X53562649Y27781000D01*
X53353318Y28833379D01*
X52757193Y29725544D01*
X51865028Y30321669D01*
X50812649Y30531000D01*
X48357345Y30531000D01*
X49244544Y31123807D01*
X49840669Y32015972D01*
X50050000Y33068351D01*
X50050000Y39293649D01*
X49840669Y40346028D01*
X49244544Y41238193D01*
X48352379Y41834318D01*
X47300000Y42043649D01*
X46247621Y41834318D01*
X45355456Y41238193D01*
X44759331Y40346028D01*
X44550000Y39293649D01*
X44550000Y33068351D01*
X44759331Y32015972D01*
X45355456Y31123807D01*
X46242655Y30531000D01*
X44587351Y30531000D01*
X43534972Y30321669D01*
X43099955Y30031000D01*
X39251980Y30031000D01*
X38881356Y30401624D01*
X39300000Y30318351D01*
X40352379Y30527682D01*
X41244544Y31123807D01*
X41840669Y32015972D01*
X42050000Y33068351D01*
X42050000Y34559224D01*
X42302608Y34937279D01*
X42550000Y36181000D01*
X42550000Y54169352D01*
X42642807Y54030456D01*
X43534972Y53434331D01*
X44587351Y53225000D01*
X50471781Y53225000D01*
X50512000Y53217000D01*
X52018000Y53217000D01*
X52879038Y53388271D01*
X53382988Y53725000D01*
X66090020Y53725000D01*
X67113010Y52702010D01*
X67115169Y52700567D01*
X67428103Y52387087D01*
X67840782Y52215727D01*
X67842962Y52214271D01*
X67845511Y52213764D01*
X68254586Y52043901D01*
X68701436Y52043511D01*
X68704000Y52043001D01*
X68706542Y52043507D01*
X69149488Y52043120D01*
X69562468Y52213760D01*
X69565037Y52214271D01*
X69567196Y52215713D01*
X69976569Y52384863D01*
X70292812Y52700555D01*
X70294990Y52702010D01*
X70296433Y52704169D01*
X70609913Y53017103D01*
X70781274Y53429785D01*
X70782729Y53431963D01*
X70783236Y53434510D01*
X70953099Y53843586D01*
X70953489Y54290436D01*
X70953999Y54293000D01*
X70953493Y54295542D01*
X70953880Y54738488D01*
X70783240Y55151467D01*
X70782729Y55154038D01*
X70781286Y55156198D01*
X70612137Y55565569D01*
X70296445Y55881812D01*
X70294990Y55883990D01*
X68612990Y57565990D01*
X67883038Y58053729D01*
X67022000Y58225000D01*
X52300045Y58225000D01*
X51865028Y58515669D01*
X50812649Y58725000D01*
X48357345Y58725000D01*
X49244544Y59317807D01*
X49840669Y60209972D01*
X50050000Y61262351D01*
X50050000Y64375000D01*
X51337351Y64375000D01*
X51546682Y63322621D01*
X52142807Y62430456D01*
X53034972Y61834331D01*
X54014606Y61639470D01*
X54194796Y61369796D01*
X55573595Y60448512D01*
X57200000Y60125000D01*
X68799592Y60125000D01*
X70270796Y58653796D01*
X71649596Y57732512D01*
X73276000Y57409000D01*
X74902404Y57732512D01*
X76281204Y58653796D01*
X77202488Y60032596D01*
X77526000Y61659000D01*
X77202488Y63285404D01*
X76592043Y64199000D01*
X77202488Y65112596D01*
X77526000Y66739000D01*
X77202488Y68365404D01*
X76281204Y69744204D01*
X74902404Y70665488D01*
X73276000Y70989000D01*
X71649596Y70665488D01*
X70270796Y69744204D01*
X69151592Y68625000D01*
X57200000Y68625000D01*
X55573595Y68301488D01*
X54194796Y67380204D01*
X54014606Y67110530D01*
X53034972Y66915669D01*
X52142807Y66319544D01*
X51546682Y65427379D01*
X51337351Y64375000D01*
X50050000Y64375000D01*
X50050000Y67487649D01*
X49840669Y68540028D01*
X49244544Y69432193D01*
X48352379Y70028318D01*
X47300000Y70237649D01*
X46247621Y70028318D01*
X45524895Y69545408D01*
X45148990Y70107990D01*
X44419037Y70595729D01*
X43558000Y70766999D01*
X42696962Y70595729D01*
X42550000Y70497532D01*
X42550000Y82363352D01*
X42642807Y82224456D01*
X43534972Y81628331D01*
X44587351Y81419000D01*
X45450000Y81419000D01*
X45450000Y79869000D01*
X45621271Y79007962D01*
X46109010Y78278010D01*
X46539010Y77848010D01*
X47268963Y77360271D01*
X48130000Y77189000D01*
X48991038Y77360271D01*
X49720990Y77848010D01*
X50208729Y78577962D01*
X50380000Y79439000D01*
X50208729Y80300037D01*
X49950000Y80687252D01*
X49950000Y81419000D01*
X50812649Y81419000D01*
X51865028Y81628331D01*
X52300045Y81919000D01*
X64566020Y81919000D01*
X66605010Y79880010D01*
X66607169Y79878567D01*
X66920103Y79565087D01*
X67332782Y79393727D01*
X67334962Y79392271D01*
X67337511Y79391764D01*
X67746586Y79221901D01*
X68193431Y79221511D01*
X68196000Y79221000D01*
X68198547Y79221507D01*
X68641488Y79221120D01*
X69054468Y79391760D01*
X69057037Y79392271D01*
X69059196Y79393713D01*
X69468569Y79562863D01*
X69784812Y79878555D01*
X69786990Y79880010D01*
X69788433Y79882169D01*
X70101913Y80195103D01*
X70273274Y80607785D01*
X70274729Y80609963D01*
X70275236Y80612510D01*
X70445099Y81021586D01*
X70445489Y81468431D01*
X70446000Y81471000D01*
X70445493Y81473547D01*
X70445880Y81916488D01*
X70275240Y82329467D01*
X70274729Y82332038D01*
X70273286Y82334198D01*
X70104137Y82743569D01*
X69788445Y83059812D01*
X69786990Y83061990D01*
X67088990Y85759990D01*
X66359038Y86247729D01*
X65498000Y86419000D01*
X52300045Y86419000D01*
X51865028Y86709669D01*
X50812649Y86919000D01*
X48357345Y86919000D01*
X49244544Y87511807D01*
X49840669Y88403972D01*
X50050000Y89456351D01*
X50050000Y95681649D01*
X49840669Y96734028D01*
X49244544Y97626193D01*
X48352379Y98222318D01*
X47300000Y98431649D01*
X46247621Y98222318D01*
X45355456Y97626193D01*
X44759331Y96734028D01*
X44550000Y95681649D01*
X44550000Y89456351D01*
X44759331Y88403972D01*
X45355456Y87511807D01*
X46242655Y86919000D01*
X44587351Y86919000D01*
X43534972Y86709669D01*
X42642807Y86113544D01*
X42550000Y85974648D01*
X42550000Y92569000D01*
X42302608Y93812721D01*
X42050000Y94190776D01*
X42050000Y95681649D01*
X41840669Y96734028D01*
X41244544Y97626193D01*
X40352379Y98222318D01*
X39300000Y98431649D01*
X38247621Y98222318D01*
X38141154Y98151179D01*
X37607721Y98507608D01*
X36364000Y98755000D01*
X32537740Y98755000D01*
X31809453Y99241627D01*
X30943643Y99413847D01*
X31114862Y99528251D01*
X31809453Y99666414D01*
X32690333Y100255000D01*
X38224000Y100255000D01*
X39467721Y100502392D01*
X40522097Y101206903D01*
X41226608Y102261279D01*
X41281765Y102538571D01*
X43126194Y104383000D01*
X52956000Y104383000D01*
X54199721Y104630392D01*
X55254097Y105334903D01*
X56016097Y106096903D01*
X56720608Y107151279D01*
X56968000Y108395000D01*
X56968000Y113475000D01*
X56720608Y114718721D01*
X56700620Y114748636D01*
X56918913Y115274344D01*
X56921083Y117760748D01*
X55971582Y120058716D01*
X54214963Y121818403D01*
X51918656Y122771913D01*
X49432252Y122774083D01*
X47134284Y121824582D01*
X46605781Y121297000D01*
X44574000Y121297000D01*
X43330279Y121049608D01*
X42275903Y120345097D01*
X39735903Y117805097D01*
X39224432Y117039626D01*
X33575806Y111391000D01*
X31112000Y111391000D01*
X29868279Y111143608D01*
X28813903Y110439097D01*
X28305903Y109931097D01*
X27601392Y108876721D01*
X27354000Y107633000D01*
X27354000Y105972879D01*
X27099903Y105803097D01*
X26395392Y104748721D01*
X26148000Y103505000D01*
X26179636Y103345957D01*
X26141392Y103288721D01*
X25894000Y102045000D01*
X26141392Y100801279D01*
X26845903Y99746903D01*
X27900279Y99042392D01*
X28825068Y98858440D01*
X28376614Y98558792D01*
X27693779Y97536859D01*
X27454000Y96331406D01*
X27454000Y96007733D01*
X27354000Y95505000D01*
X27354000Y87757000D01*
X27454000Y87254267D01*
X27454000Y86828635D01*
X27693779Y85623182D01*
X28376614Y84601249D01*
X29398547Y83918414D01*
X30466324Y83706020D01*
X29398547Y83493627D01*
X28670260Y83007000D01*
X22794000Y83007000D01*
X21550279Y82759608D01*
X20495903Y82055097D01*
X16113903Y77673097D01*
X15409392Y76618721D01*
X15162000Y75375000D01*
X15162000Y58579741D01*
X14823437Y59086437D01*
X12169294Y61740580D01*
X12169546Y62029815D01*
X11690238Y63189829D01*
X10935845Y63945539D01*
X11023292Y64032834D01*
X11840563Y63215563D01*
X12408304Y62836211D01*
X13078000Y62703000D01*
X13747696Y62836211D01*
X14315437Y63215563D01*
X14694789Y63783304D01*
X14828000Y64453000D01*
X14694789Y65122696D01*
X14315437Y65690437D01*
X12283437Y67722437D01*
X11776442Y68061200D01*
X11690238Y68269829D01*
X11446474Y68514018D01*
X11807663Y68746437D01*
X11947309Y68950817D01*
X12094563Y68803563D01*
X12662304Y68424211D01*
X13332000Y68291000D01*
X14001696Y68424211D01*
X14569437Y68803563D01*
X14948789Y69371304D01*
X15082000Y70041000D01*
X14948789Y70710696D01*
X14569437Y71278437D01*
X13045437Y72802437D01*
X12477696Y73181789D01*
X12193488Y73238322D01*
X12193488Y73470000D01*
X12106327Y73933222D01*
X11832563Y74358663D01*
X11414847Y74644076D01*
X10919000Y74744488D01*
X7109000Y74744488D01*
X6645778Y74657327D01*
X6220337Y74383563D01*
X5934924Y73965847D01*
X5834512Y73470000D01*
X5834512Y69660000D01*
X5921673Y69196778D01*
X6195437Y68771337D01*
X6577251Y68510455D01*
X6340881Y68274497D01*
X5859549Y67115322D01*
X5858454Y65860185D01*
X6337762Y64700171D01*
X7092155Y63944461D01*
X6340881Y63194497D01*
X5859549Y62035322D01*
X5858454Y60780185D01*
X6337762Y59620171D01*
X7092155Y58864461D01*
X6340881Y58114497D01*
X5859549Y56955322D01*
X5858454Y55700185D01*
X6337762Y54540171D01*
X7092155Y53784461D01*
X6340881Y53034497D01*
X5859549Y51875322D01*
X5858454Y50620185D01*
X6337762Y49460171D01*
X7224503Y48571881D01*
X8383678Y48090549D01*
X9638815Y48089454D01*
X10798829Y48568762D01*
X11687119Y49455503D01*
X12168451Y50614678D01*
X12169546Y51869815D01*
X11690238Y53029829D01*
X10935845Y53785539D01*
X11023292Y53872834D01*
X12602563Y52293563D01*
X13170304Y51914211D01*
X13840000Y51781000D01*
X14509696Y51914211D01*
X15077437Y52293563D01*
X15162000Y52420121D01*
X15162000Y50737000D01*
X15409392Y49493279D01*
X16113903Y48438903D01*
X27260005Y37292801D01*
X26540000Y37436019D01*
X25755499Y37279972D01*
X25270000Y36955572D01*
X24784501Y37279972D01*
X24000000Y37436019D01*
X23215499Y37279972D01*
X22730000Y36955572D01*
X22244501Y37279972D01*
X21460000Y37436019D01*
X20675499Y37279972D01*
X20190000Y36955572D01*
X19704501Y37279972D01*
X18920000Y37436019D01*
X18135499Y37279972D01*
X17650000Y36955572D01*
X17164501Y37279972D01*
X16380000Y37436019D01*
X15595499Y37279972D01*
X15110000Y36955572D01*
X14624501Y37279972D01*
X13840000Y37436019D01*
X13055499Y37279972D01*
X12570000Y36955572D01*
X12084501Y37279972D01*
X11300000Y37436019D01*
X11010000Y37378334D01*
X11010000Y37613020D01*
X11215981Y37819000D01*
X12570000Y37819000D01*
X12572547Y37819507D01*
X13015488Y37819120D01*
X13428467Y37989760D01*
X13431038Y37990271D01*
X13433198Y37991714D01*
X13842569Y38160863D01*
X14158812Y38476555D01*
X14160990Y38478010D01*
X14162433Y38480169D01*
X14475913Y38793103D01*
X14647273Y39205782D01*
X14648729Y39207962D01*
X14649236Y39210511D01*
X14819099Y39619586D01*
X14819489Y40066431D01*
X14820000Y40069000D01*
X14819493Y40071547D01*
X14819880Y40514488D01*
X14649240Y40927467D01*
X14648729Y40930038D01*
X14647286Y40932198D01*
X14478137Y41341569D01*
X14162445Y41657812D01*
X14160990Y41659990D01*
X14158831Y41661433D01*
X13845897Y41974913D01*
X13433218Y42146273D01*
X13431038Y42147729D01*
X13428489Y42148236D01*
X13019414Y42318099D01*
X12572569Y42318489D01*
X12570000Y42319000D01*
X10284000Y42319000D01*
X9422962Y42147729D01*
X8693009Y41659990D01*
X7169010Y40135990D01*
X6681271Y39406038D01*
X6510000Y38545000D01*
X6510000Y34989000D01*
X6681271Y34127962D01*
X6853600Y33870053D01*
X6866047Y33807480D01*
X7310431Y33142412D01*
X7975499Y32698028D01*
X8760000Y32541981D01*
X9544501Y32698028D01*
X10030000Y33022428D01*
X10515499Y32698028D01*
X11300000Y32541981D01*
X12084501Y32698028D01*
X12570000Y33022428D01*
X13055499Y32698028D01*
X13840000Y32541981D01*
X14624501Y32698028D01*
X15110000Y33022428D01*
X15595499Y32698028D01*
X16380000Y32541981D01*
X17164501Y32698028D01*
X17650000Y33022428D01*
X18135499Y32698028D01*
X18920000Y32541981D01*
X19704501Y32698028D01*
X20190000Y33022428D01*
X20675499Y32698028D01*
X21460000Y32541981D01*
X22244501Y32698028D01*
X22730000Y33022428D01*
X23215499Y32698028D01*
X24000000Y32541981D01*
X24784501Y32698028D01*
X25270000Y33022428D01*
X25755499Y32698028D01*
X26540000Y32541981D01*
X27324501Y32698028D01*
X27608000Y32887456D01*
X27608000Y30747194D01*
X27271679Y30410873D01*
X27074279Y30371608D01*
X26116795Y29731838D01*
X25755499Y29659972D01*
X25270000Y29335572D01*
X24784501Y29659972D01*
X24000000Y29816019D01*
X23215499Y29659972D01*
X22730000Y29335572D01*
X22244501Y29659972D01*
X21460000Y29816019D01*
X20675499Y29659972D01*
X20190000Y29335572D01*
X19704501Y29659972D01*
X18920000Y29816019D01*
X18135499Y29659972D01*
X17650000Y29335572D01*
X17164501Y29659972D01*
X16380000Y29816019D01*
X15595499Y29659972D01*
X15110000Y29335572D01*
X14624501Y29659972D01*
X13840000Y29816019D01*
X13055499Y29659972D01*
X12570000Y29335572D01*
X12084501Y29659972D01*
X11300000Y29816019D01*
X10515499Y29659972D01*
X9850431Y29215588D01*
X9406047Y28550520D01*
X9250000Y27766019D01*
X9250000Y26971981D01*
X9406047Y26187480D01*
X9850431Y25522412D01*
X10515499Y25078028D01*
X11300000Y24921981D01*
X12084501Y25078028D01*
X12570000Y25402428D01*
X13055499Y25078028D01*
X13376066Y25014263D01*
X13130242Y23852625D01*
X13362451Y22605980D01*
X13730545Y21685745D01*
X12102479Y22056862D01*
X11953839Y22060991D01*
X11808000Y22090000D01*
X2973000Y22090000D01*
X2973000Y105292000D01*
X11554000Y105292000D01*
X12061056Y105392860D01*
X12080362Y105405760D01*
X15040902Y105909627D01*
X15523848Y106094131D01*
X18545434Y107993897D01*
X18700943Y108141000D01*
X18921011Y108349172D01*
X20985585Y111260639D01*
X21046829Y111397608D01*
X21196615Y111732598D01*
X21989862Y115212520D01*
X21993991Y115361162D01*
X22023000Y115507000D01*
X22023000Y124342000D01*
X59251000Y124342000D01*
X59251000Y115761000D01*
G36*
X28200494Y58564160D02*
X28658665Y57878459D01*
X28723520Y57835124D01*
X28759010Y57782010D01*
X29488962Y57294271D01*
X30350000Y57123000D01*
X35514020Y57123000D01*
X35941829Y56695190D01*
X35430000Y56796999D01*
X34568962Y56625729D01*
X33839009Y56137990D01*
X33331010Y55629990D01*
X32843271Y54900038D01*
X32672000Y54039000D01*
X32672000Y41073194D01*
X24233534Y49511660D01*
X24736034Y50014160D01*
X24736215Y50014235D01*
X25229035Y50506195D01*
X25496076Y51149300D01*
X25496683Y51845645D01*
X25230765Y52489215D01*
X24951412Y52769056D01*
X25229035Y53046195D01*
X25496076Y53689300D01*
X25496683Y54385645D01*
X25230765Y55029215D01*
X24738805Y55522035D01*
X24095700Y55789076D01*
X23399355Y55789683D01*
X22755785Y55523765D01*
X22262965Y55031805D01*
X22033943Y54480259D01*
X21662000Y54326576D01*
X21662000Y57561719D01*
X22034741Y57406943D01*
X22261235Y56858785D01*
X22753195Y56365965D01*
X23396300Y56098924D01*
X24092645Y56098317D01*
X24094298Y56099000D01*
X24762000Y56099000D01*
X25431696Y56232211D01*
X25999437Y56611563D01*
X28159272Y58771398D01*
X28200494Y58564160D01*
X28200494Y58564160D01*
G37*
X28200494Y58564160D02*
X28658665Y57878459D01*
X28723520Y57835124D01*
X28759010Y57782010D01*
X29488962Y57294271D01*
X30350000Y57123000D01*
X35514020Y57123000D01*
X35941829Y56695190D01*
X35430000Y56796999D01*
X34568962Y56625729D01*
X33839009Y56137990D01*
X33331010Y55629990D01*
X32843271Y54900038D01*
X32672000Y54039000D01*
X32672000Y41073194D01*
X24233534Y49511660D01*
X24736034Y50014160D01*
X24736215Y50014235D01*
X25229035Y50506195D01*
X25496076Y51149300D01*
X25496683Y51845645D01*
X25230765Y52489215D01*
X24951412Y52769056D01*
X25229035Y53046195D01*
X25496076Y53689300D01*
X25496683Y54385645D01*
X25230765Y55029215D01*
X24738805Y55522035D01*
X24095700Y55789076D01*
X23399355Y55789683D01*
X22755785Y55523765D01*
X22262965Y55031805D01*
X22033943Y54480259D01*
X21662000Y54326576D01*
X21662000Y57561719D01*
X22034741Y57406943D01*
X22261235Y56858785D01*
X22753195Y56365965D01*
X23396300Y56098924D01*
X24092645Y56098317D01*
X24094298Y56099000D01*
X24762000Y56099000D01*
X25431696Y56232211D01*
X25999437Y56611563D01*
X28159272Y58771398D01*
X28200494Y58564160D01*
M02*
