M48
METRIC,TZ
T1C0.762
T2C0.800
T3C1.000
T4C1.001
T5C1.524
T6C3.048
%
G90
G05
T1
X35560Y43434
X35560Y40894
X35560Y38354
X35560Y35814
X35560Y33274
X35560Y30734
X35560Y28194
X35560Y25654
X35560Y23114
X35560Y20574
X35560Y18034
X35560Y15494
X43180Y15494
X45720Y15494
X48260Y34544
X48260Y32004
X48260Y15494
X50800Y43434
X50800Y40894
X50800Y38354
X50800Y35814
X50800Y33274
X50800Y28194
X50800Y25654
X50800Y23114
X50800Y20574
X50800Y18034
X50800Y15494
T2
X20320Y23368
X25400Y28194
X28900Y28194
X32258Y39878
X33020Y14224
X33528Y49022
X39624Y9398
X41402Y34036
X42672Y48768
X44958Y34544
X61722Y23114
X62484Y15494
X75692Y37846
X75692Y22860
X79248Y36830
X79502Y27940
X79502Y11176
T3
X50800Y30734
X60198Y10922
X62738Y10922
X65278Y45974
X65278Y10922
X67818Y10922
X70358Y45974
X70358Y10922
X72898Y10922
X75438Y10922
T4
X17780Y42672
X17780Y35052
X21590Y35052
X23876Y14224
X23876Y6604
X27940Y14224
X27940Y6604
X29210Y35052
T5
X12192Y41910
X12192Y36830
X12192Y31750
X12192Y26416
X12192Y21336
X12192Y16256
X88900Y40386
X88900Y35306
X88900Y30226
X88900Y24892
X88900Y19812
X88900Y14732
T6
X4064Y50800
X4064Y5334
X94488Y5334
X94742Y51054
T0
M30
