G04 #@! TF.FileFunction,Copper,L1,Top,Signal*
%FSLAX46Y46*%
G04 Gerber Fmt 4.6, Leading zero omitted, Abs format (unit mm)*
G04 Created by KiCad (PCBNEW 4.0.6) date Monday, 02 August 2021 'AMt' 08:08:07*
%MOMM*%
%LPD*%
G01*
G04 APERTURE LIST*
%ADD10C,0.100000*%
%ADD11R,3.600000X3.200000*%
%ADD12C,1.998980*%
%ADD13O,3.800000X5.500000*%
%ADD14O,3.800000X5.300000*%
%ADD15C,1.000760*%
%ADD16R,1.300000X1.500000*%
%ADD17O,1.600000X2.300000*%
%ADD18C,3.000000*%
%ADD19O,9.000000X3.000000*%
%ADD20O,3.000000X9.000000*%
%ADD21R,2.540000X2.540000*%
%ADD22C,2.540000*%
%ADD23C,3.810000*%
%ADD24R,3.810000X3.810000*%
%ADD25C,10.000000*%
%ADD26R,2.032000X1.727200*%
%ADD27O,2.032000X1.727200*%
%ADD28C,0.600000*%
%ADD29C,2.000000*%
%ADD30C,4.000000*%
%ADD31C,1.000000*%
%ADD32C,0.500000*%
G04 APERTURE END LIST*
D10*
D11*
X17432000Y79693000D03*
X9232000Y79693000D03*
D12*
X4950000Y40069000D03*
X12570000Y40069000D03*
X68196000Y73851000D03*
X68196000Y81471000D03*
X68704000Y46673000D03*
X68704000Y54293000D03*
X54226000Y18225000D03*
X46606000Y18225000D03*
D13*
X30604000Y87757000D03*
D14*
X30604000Y79757000D03*
D15*
X22476000Y52769000D03*
X23746000Y54039000D03*
X23746000Y51499000D03*
X21968000Y72073000D03*
X23238000Y73343000D03*
X23238000Y70803000D03*
X22222000Y65723000D03*
X23492000Y66993000D03*
X23492000Y64453000D03*
X22476000Y59119000D03*
X23746000Y60389000D03*
X23746000Y57849000D03*
D16*
X15872000Y53611000D03*
X15872000Y50911000D03*
X15618000Y72915000D03*
X15618000Y70215000D03*
X15618000Y66565000D03*
X15618000Y63865000D03*
X15872000Y60215000D03*
X15872000Y57515000D03*
X18158000Y53611000D03*
X18158000Y50911000D03*
X18158000Y72915000D03*
X18158000Y70215000D03*
X18158000Y66565000D03*
X18158000Y63865000D03*
X18158000Y60215000D03*
X18158000Y57515000D03*
D17*
X8760000Y27369000D03*
X11300000Y27369000D03*
X13840000Y27369000D03*
X16380000Y27369000D03*
X18920000Y27369000D03*
X21460000Y27369000D03*
X24000000Y27369000D03*
X26540000Y27369000D03*
X26540000Y34989000D03*
X24000000Y34989000D03*
X21460000Y34989000D03*
X18920000Y34989000D03*
X16380000Y34989000D03*
X13840000Y34989000D03*
X11300000Y34989000D03*
X8760000Y34989000D03*
D11*
X17432000Y87821000D03*
X9232000Y87821000D03*
D13*
X30604000Y103505000D03*
D14*
X30604000Y95505000D03*
D18*
X27556000Y21273000D03*
X17396000Y21273000D03*
D19*
X47700000Y84169000D03*
X47700000Y100969000D03*
X57200000Y92569000D03*
D20*
X47300000Y92569000D03*
X39300000Y92569000D03*
D19*
X47700000Y55975000D03*
X47700000Y72775000D03*
X57200000Y64375000D03*
D20*
X47300000Y64375000D03*
X39300000Y64375000D03*
D19*
X47700000Y27781000D03*
X47700000Y44581000D03*
X57200000Y36181000D03*
D20*
X47300000Y36181000D03*
X39300000Y36181000D03*
D21*
X26794000Y9081000D03*
D22*
X31874000Y9081000D03*
X36954000Y9081000D03*
D23*
X9014000Y66485000D03*
X9014000Y61405000D03*
D24*
X9014000Y71565000D03*
D23*
X9014000Y56325000D03*
X9014000Y51245000D03*
X9014000Y46165000D03*
D18*
X52194000Y11367000D03*
X47114000Y11367000D03*
X73276000Y61659000D03*
X73276000Y66739000D03*
D25*
X73530000Y93663000D03*
X73530000Y37021000D03*
X50670000Y116523000D03*
X30096000Y116777000D03*
D26*
X30350000Y69533000D03*
D27*
X30350000Y66993000D03*
X30350000Y64453000D03*
X30350000Y61913000D03*
X30350000Y59373000D03*
X30350000Y56833000D03*
D28*
X31112000Y52261000D03*
X65656000Y100521000D03*
X13078000Y64453000D03*
X13840000Y53531000D03*
X13586000Y57849000D03*
X13332000Y70041000D03*
X48130000Y79439000D03*
X31874000Y73343000D03*
X35430000Y68263000D03*
X43558000Y68517000D03*
X35430000Y54547000D03*
X35176000Y63945000D03*
D29*
X4950000Y40069000D02*
X4950000Y42609000D01*
X3934000Y76899000D02*
X6728000Y79693000D01*
X3934000Y43625000D02*
X3934000Y76899000D01*
X4950000Y42609000D02*
X3934000Y43625000D01*
D30*
X4950000Y88075000D02*
X4950000Y81471000D01*
X6728000Y79693000D02*
X9232000Y79693000D01*
X4950000Y81471000D02*
X6728000Y79693000D01*
X4731998Y88075000D02*
X4950000Y88075000D01*
X4950000Y88075000D02*
X8978000Y88075000D01*
X8978000Y88075000D02*
X9232000Y87821000D01*
X6982000Y94933000D02*
X4731998Y92682998D01*
X4731998Y92682998D02*
X4731998Y88075000D01*
X30096000Y116777000D02*
X27556000Y114237000D01*
X27556000Y114237000D02*
X25524000Y114237000D01*
X25524000Y114237000D02*
X14094000Y102807000D01*
X14094000Y102807000D02*
X13078000Y102807000D01*
X13078000Y102807000D02*
X6982000Y96711000D01*
X6982000Y96711000D02*
X6982000Y94933000D01*
X30096000Y116777000D02*
X30096000Y115761000D01*
X30096000Y115761000D02*
X9268000Y94933000D01*
X9268000Y94933000D02*
X9268000Y87857000D01*
X30096000Y116777000D02*
X33906000Y116777000D01*
X33906000Y116777000D02*
X47700000Y102983000D01*
X47700000Y102983000D02*
X47700000Y100969000D01*
D29*
X34414000Y49721000D02*
X65656000Y49721000D01*
X31874000Y52261000D02*
X34414000Y49721000D01*
X31112000Y52261000D02*
X31874000Y52261000D01*
X65656000Y49721000D02*
X68704000Y46673000D01*
X68704000Y46673000D02*
X68196000Y46673000D01*
X68196000Y46673000D02*
X64640000Y43117000D01*
X64640000Y28639000D02*
X54226000Y18225000D01*
X64640000Y43117000D02*
X64640000Y28639000D01*
X68196000Y73851000D02*
X67434000Y73851000D01*
X67434000Y73851000D02*
X64132000Y70549000D01*
X64132000Y70549000D02*
X64132000Y51245000D01*
X64132000Y51245000D02*
X68704000Y46673000D01*
X64386000Y77661000D02*
X68196000Y73851000D01*
X64386000Y99251000D02*
X64386000Y77661000D01*
X65656000Y100521000D02*
X64386000Y99251000D01*
D30*
X9268000Y87857000D02*
X9232000Y87821000D01*
X9522000Y88111000D02*
X9232000Y87821000D01*
X9232000Y87821000D02*
X9232000Y79693000D01*
X30604000Y79757000D02*
X17496000Y79757000D01*
X17496000Y79757000D02*
X17432000Y79693000D01*
D31*
X23746000Y51499000D02*
X23746000Y51245000D01*
X23746000Y51245000D02*
X23412000Y50911000D01*
X23412000Y50911000D02*
X18158000Y50911000D01*
X26667000Y52388000D02*
X26667000Y48578000D01*
X26667000Y52388000D02*
X25016000Y54039000D01*
X23746000Y54039000D02*
X25016000Y54039000D01*
X18158000Y40069000D02*
X12570000Y40069000D01*
X26667000Y48578000D02*
X18158000Y40069000D01*
D30*
X30604000Y87757000D02*
X17496000Y87757000D01*
X17496000Y87757000D02*
X17432000Y87821000D01*
D31*
X30858000Y38545000D02*
X30858000Y26099000D01*
X28318000Y53531000D02*
X28318000Y41085000D01*
X28318000Y41085000D02*
X30858000Y38545000D01*
X24000000Y57849000D02*
X28318000Y53531000D01*
X20190000Y24067000D02*
X17396000Y21273000D01*
X29842000Y24067000D02*
X20190000Y24067000D01*
X30858000Y26099000D02*
X29842000Y24067000D01*
X23746000Y57849000D02*
X24000000Y57849000D01*
X22904000Y70215000D02*
X18158000Y70215000D01*
X23492000Y64453000D02*
X24508000Y64453000D01*
X25524000Y68517000D02*
X23238000Y70803000D01*
X25524000Y65469000D02*
X25524000Y68517000D01*
X24508000Y64453000D02*
X25524000Y65469000D01*
X23746000Y57849000D02*
X25016000Y57849000D01*
X25778000Y62167000D02*
X23492000Y64453000D01*
X25778000Y58611000D02*
X25778000Y62167000D01*
X25016000Y57849000D02*
X25778000Y58611000D01*
X23746000Y57849000D02*
X23492000Y57849000D01*
X23492000Y57849000D02*
X22730000Y57087000D01*
X22730000Y57087000D02*
X18586000Y57087000D01*
X18586000Y57087000D02*
X18158000Y57515000D01*
X23492000Y64453000D02*
X22476000Y63437000D01*
X22476000Y63437000D02*
X18586000Y63437000D01*
X18586000Y63437000D02*
X18158000Y63865000D01*
X23238000Y70803000D02*
X23238000Y70549000D01*
X23238000Y70549000D02*
X22904000Y70215000D01*
X15618000Y63865000D02*
X13666000Y63865000D01*
X13666000Y63865000D02*
X13078000Y64453000D01*
X15872000Y50911000D02*
X14936000Y50911000D01*
X13840000Y52007000D02*
X13840000Y53531000D01*
X14936000Y50911000D02*
X13840000Y52007000D01*
X15872000Y57515000D02*
X14014000Y57515000D01*
X13680000Y57849000D02*
X13586000Y57849000D01*
X14014000Y57515000D02*
X13680000Y57849000D01*
X15618000Y70215000D02*
X13506000Y70215000D01*
X13506000Y70215000D02*
X13332000Y70041000D01*
X18158000Y53611000D02*
X15872000Y53611000D01*
X22476000Y52769000D02*
X20952000Y52769000D01*
X20110000Y53611000D02*
X18158000Y53611000D01*
X20952000Y52769000D02*
X20110000Y53611000D01*
X18158000Y72915000D02*
X15618000Y72915000D01*
X21968000Y72073000D02*
X21206000Y72073000D01*
X20364000Y72915000D02*
X18158000Y72915000D01*
X21206000Y72073000D02*
X20364000Y72915000D01*
X18158000Y66565000D02*
X15618000Y66565000D01*
X18158000Y66565000D02*
X17824000Y66565000D01*
X22222000Y65723000D02*
X21460000Y65723000D01*
X20618000Y66565000D02*
X18158000Y66565000D01*
X21460000Y65723000D02*
X20618000Y66565000D01*
X18158000Y60215000D02*
X15872000Y60215000D01*
X22476000Y59119000D02*
X21460000Y59119000D01*
X20364000Y60215000D02*
X18158000Y60215000D01*
X21460000Y59119000D02*
X20364000Y60215000D01*
D29*
X37970000Y79439000D02*
X48130000Y79439000D01*
X31874000Y73343000D02*
X37970000Y79439000D01*
X35430000Y68263000D02*
X35430000Y71565000D01*
X35430000Y71565000D02*
X40764000Y71565000D01*
X43558000Y68771000D02*
X43558000Y68517000D01*
X40764000Y71565000D02*
X43558000Y68771000D01*
X35430000Y63691000D02*
X35430000Y54547000D01*
X35176000Y63945000D02*
X35430000Y63691000D01*
D32*
G36*
X59251000Y115761000D02*
X59351860Y115253944D01*
X59389702Y115197309D01*
X59765764Y112545062D01*
X59936808Y112057187D01*
X61754171Y108980540D01*
X62098897Y108595258D01*
X64955304Y106448281D01*
X65066761Y106394689D01*
X65421230Y106224248D01*
X68881817Y105333799D01*
X69048383Y105324545D01*
X69212000Y105292000D01*
X78301000Y105292000D01*
X78301000Y97730225D01*
X77074963Y98958403D01*
X74778656Y99911913D01*
X72292252Y99914083D01*
X69994284Y98964582D01*
X68234597Y97207963D01*
X67281087Y94911656D01*
X67278917Y92425252D01*
X68228418Y90127284D01*
X69985037Y88367597D01*
X72281344Y87414087D01*
X74767748Y87411917D01*
X77065716Y88361418D01*
X78301000Y89594548D01*
X78301000Y41088225D01*
X77074963Y42316403D01*
X74778656Y43269913D01*
X72292252Y43272083D01*
X69994284Y42322582D01*
X68234597Y40565963D01*
X67281087Y38269656D01*
X67278917Y35783252D01*
X68228418Y33485284D01*
X69985037Y31725597D01*
X72281344Y30772087D01*
X74767748Y30769917D01*
X77065716Y31719418D01*
X78301000Y32952548D01*
X78301000Y21836000D01*
X70202245Y21836000D01*
X69973055Y21989140D01*
X69466000Y22089999D01*
X68958945Y21989140D01*
X68529084Y21701916D01*
X68469867Y21613291D01*
X65962253Y21114495D01*
X65729423Y21018055D01*
X65484612Y20916651D01*
X65484610Y20916649D01*
X62518087Y18934483D01*
X62152519Y18568915D01*
X60170349Y15602388D01*
X59972506Y15124752D01*
X59458778Y12542070D01*
X59351860Y12382056D01*
X59251000Y11875000D01*
X59251000Y3040000D01*
X22023000Y3040000D01*
X22023000Y10351000D01*
X24249512Y10351000D01*
X24249512Y7811000D01*
X24336673Y7347778D01*
X24610437Y6922337D01*
X25028153Y6636924D01*
X25524000Y6536512D01*
X28064000Y6536512D01*
X28527222Y6623673D01*
X28952663Y6897437D01*
X29238076Y7315153D01*
X29338488Y7811000D01*
X29338488Y8581940D01*
X29353563Y8581940D01*
X29736402Y7655399D01*
X30444671Y6945893D01*
X31370542Y6561438D01*
X32373060Y6560563D01*
X33299601Y6943402D01*
X34009107Y7651671D01*
X34393562Y8577542D01*
X34394437Y9580060D01*
X34011598Y10506601D01*
X33696359Y10822391D01*
X44363523Y10822391D01*
X44781304Y9811285D01*
X45554216Y9037023D01*
X46564591Y8617478D01*
X47658609Y8616523D01*
X48669715Y9034304D01*
X49443977Y9807216D01*
X49653998Y10313003D01*
X49861304Y9811285D01*
X50634216Y9037023D01*
X51644591Y8617478D01*
X52738609Y8616523D01*
X53749715Y9034304D01*
X54523977Y9807216D01*
X54943522Y10817591D01*
X54944477Y11911609D01*
X54526696Y12922715D01*
X53753784Y13696977D01*
X52743409Y14116522D01*
X51649391Y14117477D01*
X50638285Y13699696D01*
X49864023Y12926784D01*
X49654002Y12420997D01*
X49446696Y12922715D01*
X48673784Y13696977D01*
X47663409Y14116522D01*
X46569391Y14117477D01*
X45558285Y13699696D01*
X44784023Y12926784D01*
X44364478Y11916409D01*
X44363523Y10822391D01*
X33696359Y10822391D01*
X33303329Y11216107D01*
X32377458Y11600562D01*
X31374940Y11601437D01*
X30448399Y11218598D01*
X29738893Y10510329D01*
X29354438Y9584458D01*
X29353563Y8581940D01*
X29338488Y8581940D01*
X29338488Y10351000D01*
X29251327Y10814222D01*
X28977563Y11239663D01*
X28559847Y11525076D01*
X28064000Y11625488D01*
X25524000Y11625488D01*
X25060778Y11538327D01*
X24635337Y11264563D01*
X24349924Y10846847D01*
X24249512Y10351000D01*
X22023000Y10351000D01*
X22023000Y11621000D01*
X21922140Y12128056D01*
X21909240Y12147362D01*
X21405373Y15107903D01*
X21220868Y15590848D01*
X19844788Y17779512D01*
X44356120Y17779512D01*
X44697863Y16952431D01*
X45330103Y16319087D01*
X46156586Y15975901D01*
X47051488Y15975120D01*
X47878569Y16316863D01*
X48511913Y16949103D01*
X48855099Y17775586D01*
X48855880Y18670488D01*
X48514137Y19497569D01*
X47881897Y20130913D01*
X47055414Y20474099D01*
X46160512Y20474880D01*
X45333431Y20133137D01*
X44700087Y19500897D01*
X44356901Y18674414D01*
X44356120Y17779512D01*
X19844788Y17779512D01*
X19321103Y18612435D01*
X18982184Y18970720D01*
X19725977Y19713216D01*
X20145522Y20723591D01*
X20146242Y21548368D01*
X20914874Y22317000D01*
X25011850Y22317000D01*
X24806478Y21822409D01*
X24805523Y20728391D01*
X25223304Y19717285D01*
X25996216Y18943023D01*
X27006591Y18523478D01*
X28100609Y18522523D01*
X29111715Y18940304D01*
X29885977Y19713216D01*
X30305522Y20723591D01*
X30306477Y21817609D01*
X30080528Y22364446D01*
X30117105Y22371722D01*
X30395399Y22406804D01*
X30450027Y22437944D01*
X30511696Y22450211D01*
X30744920Y22606046D01*
X30988603Y22744956D01*
X31027154Y22794629D01*
X31079437Y22829563D01*
X31235271Y23062785D01*
X31407248Y23284376D01*
X32423248Y25316376D01*
X32439856Y25377024D01*
X32474789Y25429304D01*
X32529511Y25704408D01*
X32603597Y25974944D01*
X32595733Y26037328D01*
X32608000Y26099000D01*
X32608000Y27781000D01*
X41837351Y27781000D01*
X42046682Y26728621D01*
X42642807Y25836456D01*
X43534972Y25240331D01*
X44587351Y25031000D01*
X50812649Y25031000D01*
X51865028Y25240331D01*
X52757193Y25836456D01*
X53353318Y26728621D01*
X53562649Y27781000D01*
X53353318Y28833379D01*
X52757193Y29725544D01*
X51865028Y30321669D01*
X50812649Y30531000D01*
X48357345Y30531000D01*
X49244544Y31123807D01*
X49840669Y32015972D01*
X50050000Y33068351D01*
X50050000Y36181000D01*
X51337351Y36181000D01*
X51546682Y35128621D01*
X52142807Y34236456D01*
X53034972Y33640331D01*
X54087351Y33431000D01*
X60312649Y33431000D01*
X61365028Y33640331D01*
X62257193Y34236456D01*
X62853318Y35128621D01*
X63062649Y36181000D01*
X62853318Y37233379D01*
X62257193Y38125544D01*
X61365028Y38721669D01*
X60312649Y38931000D01*
X54087351Y38931000D01*
X53034972Y38721669D01*
X52142807Y38125544D01*
X51546682Y37233379D01*
X51337351Y36181000D01*
X50050000Y36181000D01*
X50050000Y39293649D01*
X49840669Y40346028D01*
X49244544Y41238193D01*
X48352379Y41834318D01*
X47300000Y42043649D01*
X46247621Y41834318D01*
X45355456Y41238193D01*
X44759331Y40346028D01*
X44550000Y39293649D01*
X44550000Y33068351D01*
X44759331Y32015972D01*
X45355456Y31123807D01*
X46242655Y30531000D01*
X44587351Y30531000D01*
X43534972Y30321669D01*
X42642807Y29725544D01*
X42046682Y28833379D01*
X41837351Y27781000D01*
X32608000Y27781000D01*
X32608000Y38545000D01*
X32474789Y39214696D01*
X32422035Y39293649D01*
X36550000Y39293649D01*
X36550000Y33068351D01*
X36759331Y32015972D01*
X37355456Y31123807D01*
X38247621Y30527682D01*
X39300000Y30318351D01*
X40352379Y30527682D01*
X41244544Y31123807D01*
X41840669Y32015972D01*
X42050000Y33068351D01*
X42050000Y39293649D01*
X41840669Y40346028D01*
X41244544Y41238193D01*
X40352379Y41834318D01*
X39300000Y42043649D01*
X38247621Y41834318D01*
X37355456Y41238193D01*
X36759331Y40346028D01*
X36550000Y39293649D01*
X32422035Y39293649D01*
X32095437Y39782437D01*
X30068000Y41809874D01*
X30068000Y53531000D01*
X29934789Y54200696D01*
X29555437Y54768437D01*
X26982874Y57341000D01*
X27015437Y57373563D01*
X27394789Y57941304D01*
X27528000Y58611000D01*
X27528000Y62167000D01*
X27394789Y62836696D01*
X27015437Y63404437D01*
X26474874Y63945000D01*
X26761437Y64231563D01*
X27140789Y64799304D01*
X27274000Y65469000D01*
X27274000Y68517000D01*
X27140789Y69186696D01*
X26761437Y69754437D01*
X24722840Y71793034D01*
X24722765Y71793215D01*
X24443412Y72073056D01*
X24721035Y72350195D01*
X24988076Y72993300D01*
X24988683Y73689645D01*
X24722765Y74333215D01*
X24230805Y74826035D01*
X23587700Y75093076D01*
X22891355Y75093683D01*
X22247785Y74827765D01*
X21754965Y74335805D01*
X21656118Y74097756D01*
X21601437Y74152437D01*
X21033696Y74531789D01*
X20364000Y74665000D01*
X19558616Y74665000D01*
X19303847Y74839076D01*
X18808000Y74939488D01*
X17508000Y74939488D01*
X17044778Y74852327D01*
X16890113Y74752802D01*
X16763847Y74839076D01*
X16268000Y74939488D01*
X14968000Y74939488D01*
X14504778Y74852327D01*
X14079337Y74578563D01*
X13793924Y74160847D01*
X13693512Y73665000D01*
X13693512Y72165000D01*
X13731144Y71965000D01*
X13506000Y71965000D01*
X12836304Y71831789D01*
X12268563Y71452437D01*
X12193488Y71377362D01*
X12193488Y73470000D01*
X12106327Y73933222D01*
X11832563Y74358663D01*
X11414847Y74644076D01*
X10919000Y74744488D01*
X7109000Y74744488D01*
X6645778Y74657327D01*
X6220337Y74383563D01*
X5934924Y73965847D01*
X5834512Y73470000D01*
X5834512Y69660000D01*
X5921673Y69196778D01*
X6195437Y68771337D01*
X6577251Y68510455D01*
X6340881Y68274497D01*
X5859549Y67115322D01*
X5858454Y65860185D01*
X6337762Y64700171D01*
X7092155Y63944461D01*
X6340881Y63194497D01*
X5859549Y62035322D01*
X5858454Y60780185D01*
X6337762Y59620171D01*
X7092155Y58864461D01*
X6340881Y58114497D01*
X5859549Y56955322D01*
X5858454Y55700185D01*
X6337762Y54540171D01*
X7092155Y53784461D01*
X6340881Y53034497D01*
X5859549Y51875322D01*
X5858454Y50620185D01*
X6337762Y49460171D01*
X7224503Y48571881D01*
X8383678Y48090549D01*
X9638815Y48089454D01*
X10798829Y48568762D01*
X11687119Y49455503D01*
X12168451Y50614678D01*
X12169318Y51608243D01*
X12223211Y51337304D01*
X12602563Y50769563D01*
X13698563Y49673563D01*
X14266304Y49294211D01*
X14298480Y49287811D01*
X14308437Y49272337D01*
X14726153Y48986924D01*
X15222000Y48886512D01*
X16522000Y48886512D01*
X16985222Y48973673D01*
X17009079Y48989024D01*
X17012153Y48986924D01*
X17508000Y48886512D01*
X18808000Y48886512D01*
X19271222Y48973673D01*
X19562336Y49161000D01*
X23412000Y49161000D01*
X24081696Y49294211D01*
X24649437Y49673563D01*
X24917000Y49941126D01*
X24917000Y49302874D01*
X17433126Y41819000D01*
X14001538Y41819000D01*
X13845897Y41974913D01*
X13019414Y42318099D01*
X12124512Y42318880D01*
X11297431Y41977137D01*
X10664087Y41344897D01*
X10320901Y40518414D01*
X10320120Y39623512D01*
X10661863Y38796431D01*
X11294103Y38163087D01*
X12120586Y37819901D01*
X13015488Y37819120D01*
X13842569Y38160863D01*
X14000982Y38319000D01*
X18158000Y38319000D01*
X18827696Y38452211D01*
X19395437Y38831563D01*
X26568000Y46004126D01*
X26568000Y41085000D01*
X26701211Y40415304D01*
X27080563Y39847563D01*
X29108000Y37820126D01*
X29108000Y26512120D01*
X28760440Y25817000D01*
X28186406Y25817000D01*
X28433953Y26187480D01*
X28590000Y26971981D01*
X28590000Y27766019D01*
X28433953Y28550520D01*
X27989569Y29215588D01*
X27324501Y29659972D01*
X26540000Y29816019D01*
X25755499Y29659972D01*
X25270000Y29335572D01*
X24784501Y29659972D01*
X24000000Y29816019D01*
X23215499Y29659972D01*
X22730000Y29335572D01*
X22244501Y29659972D01*
X21460000Y29816019D01*
X20675499Y29659972D01*
X20190000Y29335572D01*
X19704501Y29659972D01*
X18920000Y29816019D01*
X18135499Y29659972D01*
X17650000Y29335572D01*
X17164501Y29659972D01*
X16380000Y29816019D01*
X15595499Y29659972D01*
X15110000Y29335572D01*
X14624501Y29659972D01*
X13840000Y29816019D01*
X13055499Y29659972D01*
X12570000Y29335572D01*
X12084501Y29659972D01*
X11300000Y29816019D01*
X10515499Y29659972D01*
X9850431Y29215588D01*
X9406047Y28550520D01*
X9250000Y27766019D01*
X9250000Y26971981D01*
X9406047Y26187480D01*
X9850431Y25522412D01*
X10515499Y25078028D01*
X11300000Y24921981D01*
X12084501Y25078028D01*
X12570000Y25402428D01*
X13055499Y25078028D01*
X13840000Y24921981D01*
X14624501Y25078028D01*
X15110000Y25402428D01*
X15595499Y25078028D01*
X16380000Y24921981D01*
X17164501Y25078028D01*
X17650000Y25402428D01*
X18135499Y25078028D01*
X18628158Y24980032D01*
X17670888Y24022762D01*
X16851391Y24023477D01*
X15840285Y23605696D01*
X15066023Y22832784D01*
X14646478Y21822409D01*
X14646177Y21477027D01*
X12102479Y22056862D01*
X11953839Y22060991D01*
X11808000Y22090000D01*
X2973000Y22090000D01*
X2973000Y35386019D01*
X6710000Y35386019D01*
X6710000Y34591981D01*
X6866047Y33807480D01*
X7310431Y33142412D01*
X7975499Y32698028D01*
X8760000Y32541981D01*
X9544501Y32698028D01*
X10030000Y33022428D01*
X10515499Y32698028D01*
X11300000Y32541981D01*
X12084501Y32698028D01*
X12570000Y33022428D01*
X13055499Y32698028D01*
X13840000Y32541981D01*
X14624501Y32698028D01*
X15110000Y33022428D01*
X15595499Y32698028D01*
X16380000Y32541981D01*
X17164501Y32698028D01*
X17650000Y33022428D01*
X18135499Y32698028D01*
X18920000Y32541981D01*
X19704501Y32698028D01*
X20190000Y33022428D01*
X20675499Y32698028D01*
X21460000Y32541981D01*
X22244501Y32698028D01*
X22730000Y33022428D01*
X23215499Y32698028D01*
X24000000Y32541981D01*
X24784501Y32698028D01*
X25270000Y33022428D01*
X25755499Y32698028D01*
X26540000Y32541981D01*
X27324501Y32698028D01*
X27989569Y33142412D01*
X28433953Y33807480D01*
X28590000Y34591981D01*
X28590000Y35386019D01*
X28433953Y36170520D01*
X27989569Y36835588D01*
X27324501Y37279972D01*
X26540000Y37436019D01*
X25755499Y37279972D01*
X25270000Y36955572D01*
X24784501Y37279972D01*
X24000000Y37436019D01*
X23215499Y37279972D01*
X22730000Y36955572D01*
X22244501Y37279972D01*
X21460000Y37436019D01*
X20675499Y37279972D01*
X20190000Y36955572D01*
X19704501Y37279972D01*
X18920000Y37436019D01*
X18135499Y37279972D01*
X17650000Y36955572D01*
X17164501Y37279972D01*
X16380000Y37436019D01*
X15595499Y37279972D01*
X15110000Y36955572D01*
X14624501Y37279972D01*
X13840000Y37436019D01*
X13055499Y37279972D01*
X12570000Y36955572D01*
X12084501Y37279972D01*
X11300000Y37436019D01*
X10515499Y37279972D01*
X10030000Y36955572D01*
X9544501Y37279972D01*
X8760000Y37436019D01*
X7975499Y37279972D01*
X7310431Y36835588D01*
X6866047Y36170520D01*
X6710000Y35386019D01*
X2973000Y35386019D01*
X2973000Y87821000D01*
X14182000Y87821000D01*
X14357512Y86938643D01*
X14357512Y86221000D01*
X14444673Y85757778D01*
X14718437Y85332337D01*
X15136153Y85046924D01*
X15632000Y84946512D01*
X15964751Y84946512D01*
X16252279Y84754392D01*
X17496000Y84507000D01*
X28517667Y84507000D01*
X29398547Y83918414D01*
X30466324Y83706020D01*
X29398547Y83493627D01*
X28670260Y83007000D01*
X17496000Y83007000D01*
X16252279Y82759608D01*
X15964751Y82567488D01*
X15632000Y82567488D01*
X15168778Y82480327D01*
X14743337Y82206563D01*
X14457924Y81788847D01*
X14357512Y81293000D01*
X14357512Y80575357D01*
X14182000Y79693000D01*
X14357512Y78810643D01*
X14357512Y78093000D01*
X14444673Y77629778D01*
X14718437Y77204337D01*
X15136153Y76918924D01*
X15632000Y76818512D01*
X15996534Y76818512D01*
X16188279Y76690392D01*
X17432000Y76443000D01*
X17753749Y76507000D01*
X28670260Y76507000D01*
X29398547Y76020373D01*
X30604000Y75780594D01*
X31260125Y75911105D01*
X30283010Y74933990D01*
X29795271Y74204038D01*
X29624000Y73343000D01*
X29795271Y72481962D01*
X30283010Y71752010D01*
X30404118Y71671088D01*
X29334000Y71671088D01*
X28870778Y71583927D01*
X28445337Y71310163D01*
X28159924Y70892447D01*
X28059512Y70396600D01*
X28059512Y68669400D01*
X28146673Y68206178D01*
X28305619Y67959170D01*
X28200494Y67801840D01*
X28039606Y66993000D01*
X28200494Y66184160D01*
X28508631Y65723000D01*
X28200494Y65261840D01*
X28039606Y64453000D01*
X28200494Y63644160D01*
X28508631Y63183000D01*
X28200494Y62721840D01*
X28039606Y61913000D01*
X28200494Y61104160D01*
X28508631Y60643000D01*
X28200494Y60181840D01*
X28039606Y59373000D01*
X28200494Y58564160D01*
X28658665Y57878459D01*
X29344366Y57420288D01*
X30153206Y57259400D01*
X30546794Y57259400D01*
X31355634Y57420288D01*
X32041335Y57878459D01*
X32499506Y58564160D01*
X32660394Y59373000D01*
X32499506Y60181840D01*
X32191369Y60643000D01*
X32499506Y61104160D01*
X32660394Y61913000D01*
X32499506Y62721840D01*
X32191369Y63183000D01*
X32499506Y63644160D01*
X32660394Y64453000D01*
X32499506Y65261840D01*
X32191369Y65723000D01*
X32499506Y66184160D01*
X32660394Y66993000D01*
X32499506Y67801840D01*
X32393992Y67959752D01*
X32540076Y68173553D01*
X32640488Y68669400D01*
X32640488Y70396600D01*
X32553327Y70859822D01*
X32343222Y71186334D01*
X32735038Y71264271D01*
X33180000Y71561586D01*
X33180000Y68263000D01*
X33351271Y67401962D01*
X33839010Y66672010D01*
X34568962Y66184271D01*
X34845512Y66129262D01*
X34314962Y66023729D01*
X33585010Y65535990D01*
X33097271Y64806038D01*
X32926000Y63945000D01*
X33097271Y63083962D01*
X33180000Y62960149D01*
X33180000Y54547000D01*
X33351271Y53685962D01*
X33839010Y52956010D01*
X34568962Y52468271D01*
X35430000Y52297000D01*
X36291038Y52468271D01*
X37020990Y52956010D01*
X37508729Y53685962D01*
X37680000Y54547000D01*
X37680000Y59100954D01*
X38247621Y58721682D01*
X39300000Y58512351D01*
X40352379Y58721682D01*
X41244544Y59317807D01*
X41840669Y60209972D01*
X42050000Y61262351D01*
X42050000Y66870558D01*
X42696962Y66438271D01*
X43558000Y66267000D01*
X44419038Y66438271D01*
X44550000Y66525777D01*
X44550000Y61262351D01*
X44759331Y60209972D01*
X45355456Y59317807D01*
X46242655Y58725000D01*
X44587351Y58725000D01*
X43534972Y58515669D01*
X42642807Y57919544D01*
X42046682Y57027379D01*
X41837351Y55975000D01*
X42046682Y54922621D01*
X42642807Y54030456D01*
X43534972Y53434331D01*
X44587351Y53225000D01*
X50812649Y53225000D01*
X51865028Y53434331D01*
X52483397Y53847512D01*
X66454120Y53847512D01*
X66795863Y53020431D01*
X67428103Y52387087D01*
X68254586Y52043901D01*
X69149488Y52043120D01*
X69976569Y52384863D01*
X70609913Y53017103D01*
X70953099Y53843586D01*
X70953880Y54738488D01*
X70612137Y55565569D01*
X69979897Y56198913D01*
X69153414Y56542099D01*
X68258512Y56542880D01*
X67431431Y56201137D01*
X66798087Y55568897D01*
X66454901Y54742414D01*
X66454120Y53847512D01*
X52483397Y53847512D01*
X52757193Y54030456D01*
X53353318Y54922621D01*
X53562649Y55975000D01*
X53353318Y57027379D01*
X52757193Y57919544D01*
X51865028Y58515669D01*
X50812649Y58725000D01*
X48357345Y58725000D01*
X49244544Y59317807D01*
X49840669Y60209972D01*
X50050000Y61262351D01*
X50050000Y64375000D01*
X51337351Y64375000D01*
X51546682Y63322621D01*
X52142807Y62430456D01*
X53034972Y61834331D01*
X54087351Y61625000D01*
X60312649Y61625000D01*
X61365028Y61834331D01*
X62257193Y62430456D01*
X62853318Y63322621D01*
X63062649Y64375000D01*
X62853318Y65427379D01*
X62340818Y66194391D01*
X70525523Y66194391D01*
X70943304Y65183285D01*
X71716216Y64409023D01*
X72222003Y64199002D01*
X71720285Y63991696D01*
X70946023Y63218784D01*
X70526478Y62208409D01*
X70525523Y61114391D01*
X70943304Y60103285D01*
X71716216Y59329023D01*
X72726591Y58909478D01*
X73820609Y58908523D01*
X74831715Y59326304D01*
X75605977Y60099216D01*
X76025522Y61109591D01*
X76026477Y62203609D01*
X75608696Y63214715D01*
X74835784Y63988977D01*
X74329997Y64198998D01*
X74831715Y64406304D01*
X75605977Y65179216D01*
X76025522Y66189591D01*
X76026477Y67283609D01*
X75608696Y68294715D01*
X74835784Y69068977D01*
X73825409Y69488522D01*
X72731391Y69489477D01*
X71720285Y69071696D01*
X70946023Y68298784D01*
X70526478Y67288409D01*
X70525523Y66194391D01*
X62340818Y66194391D01*
X62257193Y66319544D01*
X61365028Y66915669D01*
X60312649Y67125000D01*
X54087351Y67125000D01*
X53034972Y66915669D01*
X52142807Y66319544D01*
X51546682Y65427379D01*
X51337351Y64375000D01*
X50050000Y64375000D01*
X50050000Y67487649D01*
X49840669Y68540028D01*
X49244544Y69432193D01*
X48352379Y70028318D01*
X47300000Y70237649D01*
X46247621Y70028318D01*
X45638819Y69621530D01*
X45636729Y69632038D01*
X45148990Y70361990D01*
X42354990Y73155990D01*
X41625038Y73643729D01*
X40764000Y73815000D01*
X35527980Y73815000D01*
X38901980Y77189000D01*
X48130000Y77189000D01*
X48991038Y77360271D01*
X49720990Y77848010D01*
X50208729Y78577962D01*
X50380000Y79439000D01*
X50208729Y80300038D01*
X49723983Y81025512D01*
X65946120Y81025512D01*
X66287863Y80198431D01*
X66920103Y79565087D01*
X67746586Y79221901D01*
X68641488Y79221120D01*
X69468569Y79562863D01*
X70101913Y80195103D01*
X70445099Y81021586D01*
X70445880Y81916488D01*
X70104137Y82743569D01*
X69471897Y83376913D01*
X68645414Y83720099D01*
X67750512Y83720880D01*
X66923431Y83379137D01*
X66290087Y82746897D01*
X65946901Y81920414D01*
X65946120Y81025512D01*
X49723983Y81025512D01*
X49720990Y81029990D01*
X49138796Y81419000D01*
X50812649Y81419000D01*
X51865028Y81628331D01*
X52757193Y82224456D01*
X53353318Y83116621D01*
X53562649Y84169000D01*
X53353318Y85221379D01*
X52757193Y86113544D01*
X51865028Y86709669D01*
X50812649Y86919000D01*
X48357345Y86919000D01*
X49244544Y87511807D01*
X49840669Y88403972D01*
X50050000Y89456351D01*
X50050000Y92569000D01*
X51337351Y92569000D01*
X51546682Y91516621D01*
X52142807Y90624456D01*
X53034972Y90028331D01*
X54087351Y89819000D01*
X60312649Y89819000D01*
X61365028Y90028331D01*
X62257193Y90624456D01*
X62853318Y91516621D01*
X63062649Y92569000D01*
X62853318Y93621379D01*
X62257193Y94513544D01*
X61365028Y95109669D01*
X60312649Y95319000D01*
X54087351Y95319000D01*
X53034972Y95109669D01*
X52142807Y94513544D01*
X51546682Y93621379D01*
X51337351Y92569000D01*
X50050000Y92569000D01*
X50050000Y95681649D01*
X49840669Y96734028D01*
X49244544Y97626193D01*
X48352379Y98222318D01*
X47300000Y98431649D01*
X46247621Y98222318D01*
X45355456Y97626193D01*
X44759331Y96734028D01*
X44550000Y95681649D01*
X44550000Y89456351D01*
X44759331Y88403972D01*
X45355456Y87511807D01*
X46242655Y86919000D01*
X44587351Y86919000D01*
X43534972Y86709669D01*
X42642807Y86113544D01*
X42046682Y85221379D01*
X41837351Y84169000D01*
X42046682Y83116621D01*
X42642807Y82224456D01*
X43444174Y81689000D01*
X37970000Y81689000D01*
X37108962Y81517729D01*
X36772632Y81293000D01*
X36379010Y81029990D01*
X33623489Y78274469D01*
X33754000Y78930594D01*
X33754000Y79254267D01*
X33854000Y79757000D01*
X33754000Y80259733D01*
X33754000Y80583406D01*
X33514221Y81788859D01*
X32831386Y82810792D01*
X31809453Y83493627D01*
X30741676Y83706020D01*
X31809453Y83918414D01*
X32831386Y84601249D01*
X33514221Y85623182D01*
X33754000Y86828635D01*
X33754000Y87254267D01*
X33854000Y87757000D01*
X33754000Y88259733D01*
X33754000Y88685365D01*
X33514221Y89890818D01*
X32831386Y90912751D01*
X31809453Y91595586D01*
X31375123Y91681979D01*
X31809453Y91768373D01*
X32831386Y92451208D01*
X33514221Y93473141D01*
X33754000Y94678594D01*
X33754000Y95681649D01*
X36550000Y95681649D01*
X36550000Y89456351D01*
X36759331Y88403972D01*
X37355456Y87511807D01*
X38247621Y86915682D01*
X39300000Y86706351D01*
X40352379Y86915682D01*
X41244544Y87511807D01*
X41840669Y88403972D01*
X42050000Y89456351D01*
X42050000Y95681649D01*
X41840669Y96734028D01*
X41244544Y97626193D01*
X40352379Y98222318D01*
X39300000Y98431649D01*
X38247621Y98222318D01*
X37355456Y97626193D01*
X36759331Y96734028D01*
X36550000Y95681649D01*
X33754000Y95681649D01*
X33754000Y96331406D01*
X33514221Y97536859D01*
X32831386Y98558792D01*
X31809453Y99241627D01*
X30741676Y99454020D01*
X31809453Y99666414D01*
X32831386Y100349249D01*
X33514221Y101371182D01*
X33754000Y102576635D01*
X33754000Y104433365D01*
X33514221Y105638818D01*
X32831386Y106660751D01*
X31809453Y107343586D01*
X30604000Y107583365D01*
X29398547Y107343586D01*
X28376614Y106660751D01*
X27693779Y105638818D01*
X27454000Y104433365D01*
X27454000Y102576635D01*
X27693779Y101371182D01*
X28376614Y100349249D01*
X29398547Y99666414D01*
X30466324Y99454020D01*
X29398547Y99241627D01*
X28376614Y98558792D01*
X27693779Y97536859D01*
X27454000Y96331406D01*
X27454000Y94678594D01*
X27693779Y93473141D01*
X28376614Y92451208D01*
X29398547Y91768373D01*
X29832877Y91681979D01*
X29398547Y91595586D01*
X28517667Y91007000D01*
X17753749Y91007000D01*
X17432000Y91071000D01*
X16188279Y90823608D01*
X15996534Y90695488D01*
X15632000Y90695488D01*
X15168778Y90608327D01*
X14743337Y90334563D01*
X14457924Y89916847D01*
X14357512Y89421000D01*
X14357512Y88703357D01*
X14182000Y87821000D01*
X2973000Y87821000D01*
X2973000Y105292000D01*
X11554000Y105292000D01*
X12061056Y105392860D01*
X12080362Y105405760D01*
X15040902Y105909627D01*
X15523848Y106094131D01*
X18545434Y107993897D01*
X18652462Y108095140D01*
X18921011Y108349172D01*
X20985585Y111260639D01*
X21012942Y111321821D01*
X21196615Y111732598D01*
X21989862Y115212520D01*
X21991882Y115285252D01*
X44418917Y115285252D01*
X45368418Y112987284D01*
X47125037Y111227597D01*
X49421344Y110274087D01*
X51907748Y110271917D01*
X54205716Y111221418D01*
X55965403Y112978037D01*
X56918913Y115274344D01*
X56921083Y117760748D01*
X55971582Y120058716D01*
X54214963Y121818403D01*
X51918656Y122771913D01*
X49432252Y122774083D01*
X47134284Y121824582D01*
X45374597Y120067963D01*
X44421087Y117771656D01*
X44418917Y115285252D01*
X21991882Y115285252D01*
X21993991Y115361162D01*
X22023000Y115507000D01*
X22023000Y124342000D01*
X59251000Y124342000D01*
X59251000Y115761000D01*
X59251000Y115761000D01*
G37*
X59251000Y115761000D02*
X59351860Y115253944D01*
X59389702Y115197309D01*
X59765764Y112545062D01*
X59936808Y112057187D01*
X61754171Y108980540D01*
X62098897Y108595258D01*
X64955304Y106448281D01*
X65066761Y106394689D01*
X65421230Y106224248D01*
X68881817Y105333799D01*
X69048383Y105324545D01*
X69212000Y105292000D01*
X78301000Y105292000D01*
X78301000Y97730225D01*
X77074963Y98958403D01*
X74778656Y99911913D01*
X72292252Y99914083D01*
X69994284Y98964582D01*
X68234597Y97207963D01*
X67281087Y94911656D01*
X67278917Y92425252D01*
X68228418Y90127284D01*
X69985037Y88367597D01*
X72281344Y87414087D01*
X74767748Y87411917D01*
X77065716Y88361418D01*
X78301000Y89594548D01*
X78301000Y41088225D01*
X77074963Y42316403D01*
X74778656Y43269913D01*
X72292252Y43272083D01*
X69994284Y42322582D01*
X68234597Y40565963D01*
X67281087Y38269656D01*
X67278917Y35783252D01*
X68228418Y33485284D01*
X69985037Y31725597D01*
X72281344Y30772087D01*
X74767748Y30769917D01*
X77065716Y31719418D01*
X78301000Y32952548D01*
X78301000Y21836000D01*
X70202245Y21836000D01*
X69973055Y21989140D01*
X69466000Y22089999D01*
X68958945Y21989140D01*
X68529084Y21701916D01*
X68469867Y21613291D01*
X65962253Y21114495D01*
X65729423Y21018055D01*
X65484612Y20916651D01*
X65484610Y20916649D01*
X62518087Y18934483D01*
X62152519Y18568915D01*
X60170349Y15602388D01*
X59972506Y15124752D01*
X59458778Y12542070D01*
X59351860Y12382056D01*
X59251000Y11875000D01*
X59251000Y3040000D01*
X22023000Y3040000D01*
X22023000Y10351000D01*
X24249512Y10351000D01*
X24249512Y7811000D01*
X24336673Y7347778D01*
X24610437Y6922337D01*
X25028153Y6636924D01*
X25524000Y6536512D01*
X28064000Y6536512D01*
X28527222Y6623673D01*
X28952663Y6897437D01*
X29238076Y7315153D01*
X29338488Y7811000D01*
X29338488Y8581940D01*
X29353563Y8581940D01*
X29736402Y7655399D01*
X30444671Y6945893D01*
X31370542Y6561438D01*
X32373060Y6560563D01*
X33299601Y6943402D01*
X34009107Y7651671D01*
X34393562Y8577542D01*
X34394437Y9580060D01*
X34011598Y10506601D01*
X33696359Y10822391D01*
X44363523Y10822391D01*
X44781304Y9811285D01*
X45554216Y9037023D01*
X46564591Y8617478D01*
X47658609Y8616523D01*
X48669715Y9034304D01*
X49443977Y9807216D01*
X49653998Y10313003D01*
X49861304Y9811285D01*
X50634216Y9037023D01*
X51644591Y8617478D01*
X52738609Y8616523D01*
X53749715Y9034304D01*
X54523977Y9807216D01*
X54943522Y10817591D01*
X54944477Y11911609D01*
X54526696Y12922715D01*
X53753784Y13696977D01*
X52743409Y14116522D01*
X51649391Y14117477D01*
X50638285Y13699696D01*
X49864023Y12926784D01*
X49654002Y12420997D01*
X49446696Y12922715D01*
X48673784Y13696977D01*
X47663409Y14116522D01*
X46569391Y14117477D01*
X45558285Y13699696D01*
X44784023Y12926784D01*
X44364478Y11916409D01*
X44363523Y10822391D01*
X33696359Y10822391D01*
X33303329Y11216107D01*
X32377458Y11600562D01*
X31374940Y11601437D01*
X30448399Y11218598D01*
X29738893Y10510329D01*
X29354438Y9584458D01*
X29353563Y8581940D01*
X29338488Y8581940D01*
X29338488Y10351000D01*
X29251327Y10814222D01*
X28977563Y11239663D01*
X28559847Y11525076D01*
X28064000Y11625488D01*
X25524000Y11625488D01*
X25060778Y11538327D01*
X24635337Y11264563D01*
X24349924Y10846847D01*
X24249512Y10351000D01*
X22023000Y10351000D01*
X22023000Y11621000D01*
X21922140Y12128056D01*
X21909240Y12147362D01*
X21405373Y15107903D01*
X21220868Y15590848D01*
X19844788Y17779512D01*
X44356120Y17779512D01*
X44697863Y16952431D01*
X45330103Y16319087D01*
X46156586Y15975901D01*
X47051488Y15975120D01*
X47878569Y16316863D01*
X48511913Y16949103D01*
X48855099Y17775586D01*
X48855880Y18670488D01*
X48514137Y19497569D01*
X47881897Y20130913D01*
X47055414Y20474099D01*
X46160512Y20474880D01*
X45333431Y20133137D01*
X44700087Y19500897D01*
X44356901Y18674414D01*
X44356120Y17779512D01*
X19844788Y17779512D01*
X19321103Y18612435D01*
X18982184Y18970720D01*
X19725977Y19713216D01*
X20145522Y20723591D01*
X20146242Y21548368D01*
X20914874Y22317000D01*
X25011850Y22317000D01*
X24806478Y21822409D01*
X24805523Y20728391D01*
X25223304Y19717285D01*
X25996216Y18943023D01*
X27006591Y18523478D01*
X28100609Y18522523D01*
X29111715Y18940304D01*
X29885977Y19713216D01*
X30305522Y20723591D01*
X30306477Y21817609D01*
X30080528Y22364446D01*
X30117105Y22371722D01*
X30395399Y22406804D01*
X30450027Y22437944D01*
X30511696Y22450211D01*
X30744920Y22606046D01*
X30988603Y22744956D01*
X31027154Y22794629D01*
X31079437Y22829563D01*
X31235271Y23062785D01*
X31407248Y23284376D01*
X32423248Y25316376D01*
X32439856Y25377024D01*
X32474789Y25429304D01*
X32529511Y25704408D01*
X32603597Y25974944D01*
X32595733Y26037328D01*
X32608000Y26099000D01*
X32608000Y27781000D01*
X41837351Y27781000D01*
X42046682Y26728621D01*
X42642807Y25836456D01*
X43534972Y25240331D01*
X44587351Y25031000D01*
X50812649Y25031000D01*
X51865028Y25240331D01*
X52757193Y25836456D01*
X53353318Y26728621D01*
X53562649Y27781000D01*
X53353318Y28833379D01*
X52757193Y29725544D01*
X51865028Y30321669D01*
X50812649Y30531000D01*
X48357345Y30531000D01*
X49244544Y31123807D01*
X49840669Y32015972D01*
X50050000Y33068351D01*
X50050000Y36181000D01*
X51337351Y36181000D01*
X51546682Y35128621D01*
X52142807Y34236456D01*
X53034972Y33640331D01*
X54087351Y33431000D01*
X60312649Y33431000D01*
X61365028Y33640331D01*
X62257193Y34236456D01*
X62853318Y35128621D01*
X63062649Y36181000D01*
X62853318Y37233379D01*
X62257193Y38125544D01*
X61365028Y38721669D01*
X60312649Y38931000D01*
X54087351Y38931000D01*
X53034972Y38721669D01*
X52142807Y38125544D01*
X51546682Y37233379D01*
X51337351Y36181000D01*
X50050000Y36181000D01*
X50050000Y39293649D01*
X49840669Y40346028D01*
X49244544Y41238193D01*
X48352379Y41834318D01*
X47300000Y42043649D01*
X46247621Y41834318D01*
X45355456Y41238193D01*
X44759331Y40346028D01*
X44550000Y39293649D01*
X44550000Y33068351D01*
X44759331Y32015972D01*
X45355456Y31123807D01*
X46242655Y30531000D01*
X44587351Y30531000D01*
X43534972Y30321669D01*
X42642807Y29725544D01*
X42046682Y28833379D01*
X41837351Y27781000D01*
X32608000Y27781000D01*
X32608000Y38545000D01*
X32474789Y39214696D01*
X32422035Y39293649D01*
X36550000Y39293649D01*
X36550000Y33068351D01*
X36759331Y32015972D01*
X37355456Y31123807D01*
X38247621Y30527682D01*
X39300000Y30318351D01*
X40352379Y30527682D01*
X41244544Y31123807D01*
X41840669Y32015972D01*
X42050000Y33068351D01*
X42050000Y39293649D01*
X41840669Y40346028D01*
X41244544Y41238193D01*
X40352379Y41834318D01*
X39300000Y42043649D01*
X38247621Y41834318D01*
X37355456Y41238193D01*
X36759331Y40346028D01*
X36550000Y39293649D01*
X32422035Y39293649D01*
X32095437Y39782437D01*
X30068000Y41809874D01*
X30068000Y53531000D01*
X29934789Y54200696D01*
X29555437Y54768437D01*
X26982874Y57341000D01*
X27015437Y57373563D01*
X27394789Y57941304D01*
X27528000Y58611000D01*
X27528000Y62167000D01*
X27394789Y62836696D01*
X27015437Y63404437D01*
X26474874Y63945000D01*
X26761437Y64231563D01*
X27140789Y64799304D01*
X27274000Y65469000D01*
X27274000Y68517000D01*
X27140789Y69186696D01*
X26761437Y69754437D01*
X24722840Y71793034D01*
X24722765Y71793215D01*
X24443412Y72073056D01*
X24721035Y72350195D01*
X24988076Y72993300D01*
X24988683Y73689645D01*
X24722765Y74333215D01*
X24230805Y74826035D01*
X23587700Y75093076D01*
X22891355Y75093683D01*
X22247785Y74827765D01*
X21754965Y74335805D01*
X21656118Y74097756D01*
X21601437Y74152437D01*
X21033696Y74531789D01*
X20364000Y74665000D01*
X19558616Y74665000D01*
X19303847Y74839076D01*
X18808000Y74939488D01*
X17508000Y74939488D01*
X17044778Y74852327D01*
X16890113Y74752802D01*
X16763847Y74839076D01*
X16268000Y74939488D01*
X14968000Y74939488D01*
X14504778Y74852327D01*
X14079337Y74578563D01*
X13793924Y74160847D01*
X13693512Y73665000D01*
X13693512Y72165000D01*
X13731144Y71965000D01*
X13506000Y71965000D01*
X12836304Y71831789D01*
X12268563Y71452437D01*
X12193488Y71377362D01*
X12193488Y73470000D01*
X12106327Y73933222D01*
X11832563Y74358663D01*
X11414847Y74644076D01*
X10919000Y74744488D01*
X7109000Y74744488D01*
X6645778Y74657327D01*
X6220337Y74383563D01*
X5934924Y73965847D01*
X5834512Y73470000D01*
X5834512Y69660000D01*
X5921673Y69196778D01*
X6195437Y68771337D01*
X6577251Y68510455D01*
X6340881Y68274497D01*
X5859549Y67115322D01*
X5858454Y65860185D01*
X6337762Y64700171D01*
X7092155Y63944461D01*
X6340881Y63194497D01*
X5859549Y62035322D01*
X5858454Y60780185D01*
X6337762Y59620171D01*
X7092155Y58864461D01*
X6340881Y58114497D01*
X5859549Y56955322D01*
X5858454Y55700185D01*
X6337762Y54540171D01*
X7092155Y53784461D01*
X6340881Y53034497D01*
X5859549Y51875322D01*
X5858454Y50620185D01*
X6337762Y49460171D01*
X7224503Y48571881D01*
X8383678Y48090549D01*
X9638815Y48089454D01*
X10798829Y48568762D01*
X11687119Y49455503D01*
X12168451Y50614678D01*
X12169318Y51608243D01*
X12223211Y51337304D01*
X12602563Y50769563D01*
X13698563Y49673563D01*
X14266304Y49294211D01*
X14298480Y49287811D01*
X14308437Y49272337D01*
X14726153Y48986924D01*
X15222000Y48886512D01*
X16522000Y48886512D01*
X16985222Y48973673D01*
X17009079Y48989024D01*
X17012153Y48986924D01*
X17508000Y48886512D01*
X18808000Y48886512D01*
X19271222Y48973673D01*
X19562336Y49161000D01*
X23412000Y49161000D01*
X24081696Y49294211D01*
X24649437Y49673563D01*
X24917000Y49941126D01*
X24917000Y49302874D01*
X17433126Y41819000D01*
X14001538Y41819000D01*
X13845897Y41974913D01*
X13019414Y42318099D01*
X12124512Y42318880D01*
X11297431Y41977137D01*
X10664087Y41344897D01*
X10320901Y40518414D01*
X10320120Y39623512D01*
X10661863Y38796431D01*
X11294103Y38163087D01*
X12120586Y37819901D01*
X13015488Y37819120D01*
X13842569Y38160863D01*
X14000982Y38319000D01*
X18158000Y38319000D01*
X18827696Y38452211D01*
X19395437Y38831563D01*
X26568000Y46004126D01*
X26568000Y41085000D01*
X26701211Y40415304D01*
X27080563Y39847563D01*
X29108000Y37820126D01*
X29108000Y26512120D01*
X28760440Y25817000D01*
X28186406Y25817000D01*
X28433953Y26187480D01*
X28590000Y26971981D01*
X28590000Y27766019D01*
X28433953Y28550520D01*
X27989569Y29215588D01*
X27324501Y29659972D01*
X26540000Y29816019D01*
X25755499Y29659972D01*
X25270000Y29335572D01*
X24784501Y29659972D01*
X24000000Y29816019D01*
X23215499Y29659972D01*
X22730000Y29335572D01*
X22244501Y29659972D01*
X21460000Y29816019D01*
X20675499Y29659972D01*
X20190000Y29335572D01*
X19704501Y29659972D01*
X18920000Y29816019D01*
X18135499Y29659972D01*
X17650000Y29335572D01*
X17164501Y29659972D01*
X16380000Y29816019D01*
X15595499Y29659972D01*
X15110000Y29335572D01*
X14624501Y29659972D01*
X13840000Y29816019D01*
X13055499Y29659972D01*
X12570000Y29335572D01*
X12084501Y29659972D01*
X11300000Y29816019D01*
X10515499Y29659972D01*
X9850431Y29215588D01*
X9406047Y28550520D01*
X9250000Y27766019D01*
X9250000Y26971981D01*
X9406047Y26187480D01*
X9850431Y25522412D01*
X10515499Y25078028D01*
X11300000Y24921981D01*
X12084501Y25078028D01*
X12570000Y25402428D01*
X13055499Y25078028D01*
X13840000Y24921981D01*
X14624501Y25078028D01*
X15110000Y25402428D01*
X15595499Y25078028D01*
X16380000Y24921981D01*
X17164501Y25078028D01*
X17650000Y25402428D01*
X18135499Y25078028D01*
X18628158Y24980032D01*
X17670888Y24022762D01*
X16851391Y24023477D01*
X15840285Y23605696D01*
X15066023Y22832784D01*
X14646478Y21822409D01*
X14646177Y21477027D01*
X12102479Y22056862D01*
X11953839Y22060991D01*
X11808000Y22090000D01*
X2973000Y22090000D01*
X2973000Y35386019D01*
X6710000Y35386019D01*
X6710000Y34591981D01*
X6866047Y33807480D01*
X7310431Y33142412D01*
X7975499Y32698028D01*
X8760000Y32541981D01*
X9544501Y32698028D01*
X10030000Y33022428D01*
X10515499Y32698028D01*
X11300000Y32541981D01*
X12084501Y32698028D01*
X12570000Y33022428D01*
X13055499Y32698028D01*
X13840000Y32541981D01*
X14624501Y32698028D01*
X15110000Y33022428D01*
X15595499Y32698028D01*
X16380000Y32541981D01*
X17164501Y32698028D01*
X17650000Y33022428D01*
X18135499Y32698028D01*
X18920000Y32541981D01*
X19704501Y32698028D01*
X20190000Y33022428D01*
X20675499Y32698028D01*
X21460000Y32541981D01*
X22244501Y32698028D01*
X22730000Y33022428D01*
X23215499Y32698028D01*
X24000000Y32541981D01*
X24784501Y32698028D01*
X25270000Y33022428D01*
X25755499Y32698028D01*
X26540000Y32541981D01*
X27324501Y32698028D01*
X27989569Y33142412D01*
X28433953Y33807480D01*
X28590000Y34591981D01*
X28590000Y35386019D01*
X28433953Y36170520D01*
X27989569Y36835588D01*
X27324501Y37279972D01*
X26540000Y37436019D01*
X25755499Y37279972D01*
X25270000Y36955572D01*
X24784501Y37279972D01*
X24000000Y37436019D01*
X23215499Y37279972D01*
X22730000Y36955572D01*
X22244501Y37279972D01*
X21460000Y37436019D01*
X20675499Y37279972D01*
X20190000Y36955572D01*
X19704501Y37279972D01*
X18920000Y37436019D01*
X18135499Y37279972D01*
X17650000Y36955572D01*
X17164501Y37279972D01*
X16380000Y37436019D01*
X15595499Y37279972D01*
X15110000Y36955572D01*
X14624501Y37279972D01*
X13840000Y37436019D01*
X13055499Y37279972D01*
X12570000Y36955572D01*
X12084501Y37279972D01*
X11300000Y37436019D01*
X10515499Y37279972D01*
X10030000Y36955572D01*
X9544501Y37279972D01*
X8760000Y37436019D01*
X7975499Y37279972D01*
X7310431Y36835588D01*
X6866047Y36170520D01*
X6710000Y35386019D01*
X2973000Y35386019D01*
X2973000Y87821000D01*
X14182000Y87821000D01*
X14357512Y86938643D01*
X14357512Y86221000D01*
X14444673Y85757778D01*
X14718437Y85332337D01*
X15136153Y85046924D01*
X15632000Y84946512D01*
X15964751Y84946512D01*
X16252279Y84754392D01*
X17496000Y84507000D01*
X28517667Y84507000D01*
X29398547Y83918414D01*
X30466324Y83706020D01*
X29398547Y83493627D01*
X28670260Y83007000D01*
X17496000Y83007000D01*
X16252279Y82759608D01*
X15964751Y82567488D01*
X15632000Y82567488D01*
X15168778Y82480327D01*
X14743337Y82206563D01*
X14457924Y81788847D01*
X14357512Y81293000D01*
X14357512Y80575357D01*
X14182000Y79693000D01*
X14357512Y78810643D01*
X14357512Y78093000D01*
X14444673Y77629778D01*
X14718437Y77204337D01*
X15136153Y76918924D01*
X15632000Y76818512D01*
X15996534Y76818512D01*
X16188279Y76690392D01*
X17432000Y76443000D01*
X17753749Y76507000D01*
X28670260Y76507000D01*
X29398547Y76020373D01*
X30604000Y75780594D01*
X31260125Y75911105D01*
X30283010Y74933990D01*
X29795271Y74204038D01*
X29624000Y73343000D01*
X29795271Y72481962D01*
X30283010Y71752010D01*
X30404118Y71671088D01*
X29334000Y71671088D01*
X28870778Y71583927D01*
X28445337Y71310163D01*
X28159924Y70892447D01*
X28059512Y70396600D01*
X28059512Y68669400D01*
X28146673Y68206178D01*
X28305619Y67959170D01*
X28200494Y67801840D01*
X28039606Y66993000D01*
X28200494Y66184160D01*
X28508631Y65723000D01*
X28200494Y65261840D01*
X28039606Y64453000D01*
X28200494Y63644160D01*
X28508631Y63183000D01*
X28200494Y62721840D01*
X28039606Y61913000D01*
X28200494Y61104160D01*
X28508631Y60643000D01*
X28200494Y60181840D01*
X28039606Y59373000D01*
X28200494Y58564160D01*
X28658665Y57878459D01*
X29344366Y57420288D01*
X30153206Y57259400D01*
X30546794Y57259400D01*
X31355634Y57420288D01*
X32041335Y57878459D01*
X32499506Y58564160D01*
X32660394Y59373000D01*
X32499506Y60181840D01*
X32191369Y60643000D01*
X32499506Y61104160D01*
X32660394Y61913000D01*
X32499506Y62721840D01*
X32191369Y63183000D01*
X32499506Y63644160D01*
X32660394Y64453000D01*
X32499506Y65261840D01*
X32191369Y65723000D01*
X32499506Y66184160D01*
X32660394Y66993000D01*
X32499506Y67801840D01*
X32393992Y67959752D01*
X32540076Y68173553D01*
X32640488Y68669400D01*
X32640488Y70396600D01*
X32553327Y70859822D01*
X32343222Y71186334D01*
X32735038Y71264271D01*
X33180000Y71561586D01*
X33180000Y68263000D01*
X33351271Y67401962D01*
X33839010Y66672010D01*
X34568962Y66184271D01*
X34845512Y66129262D01*
X34314962Y66023729D01*
X33585010Y65535990D01*
X33097271Y64806038D01*
X32926000Y63945000D01*
X33097271Y63083962D01*
X33180000Y62960149D01*
X33180000Y54547000D01*
X33351271Y53685962D01*
X33839010Y52956010D01*
X34568962Y52468271D01*
X35430000Y52297000D01*
X36291038Y52468271D01*
X37020990Y52956010D01*
X37508729Y53685962D01*
X37680000Y54547000D01*
X37680000Y59100954D01*
X38247621Y58721682D01*
X39300000Y58512351D01*
X40352379Y58721682D01*
X41244544Y59317807D01*
X41840669Y60209972D01*
X42050000Y61262351D01*
X42050000Y66870558D01*
X42696962Y66438271D01*
X43558000Y66267000D01*
X44419038Y66438271D01*
X44550000Y66525777D01*
X44550000Y61262351D01*
X44759331Y60209972D01*
X45355456Y59317807D01*
X46242655Y58725000D01*
X44587351Y58725000D01*
X43534972Y58515669D01*
X42642807Y57919544D01*
X42046682Y57027379D01*
X41837351Y55975000D01*
X42046682Y54922621D01*
X42642807Y54030456D01*
X43534972Y53434331D01*
X44587351Y53225000D01*
X50812649Y53225000D01*
X51865028Y53434331D01*
X52483397Y53847512D01*
X66454120Y53847512D01*
X66795863Y53020431D01*
X67428103Y52387087D01*
X68254586Y52043901D01*
X69149488Y52043120D01*
X69976569Y52384863D01*
X70609913Y53017103D01*
X70953099Y53843586D01*
X70953880Y54738488D01*
X70612137Y55565569D01*
X69979897Y56198913D01*
X69153414Y56542099D01*
X68258512Y56542880D01*
X67431431Y56201137D01*
X66798087Y55568897D01*
X66454901Y54742414D01*
X66454120Y53847512D01*
X52483397Y53847512D01*
X52757193Y54030456D01*
X53353318Y54922621D01*
X53562649Y55975000D01*
X53353318Y57027379D01*
X52757193Y57919544D01*
X51865028Y58515669D01*
X50812649Y58725000D01*
X48357345Y58725000D01*
X49244544Y59317807D01*
X49840669Y60209972D01*
X50050000Y61262351D01*
X50050000Y64375000D01*
X51337351Y64375000D01*
X51546682Y63322621D01*
X52142807Y62430456D01*
X53034972Y61834331D01*
X54087351Y61625000D01*
X60312649Y61625000D01*
X61365028Y61834331D01*
X62257193Y62430456D01*
X62853318Y63322621D01*
X63062649Y64375000D01*
X62853318Y65427379D01*
X62340818Y66194391D01*
X70525523Y66194391D01*
X70943304Y65183285D01*
X71716216Y64409023D01*
X72222003Y64199002D01*
X71720285Y63991696D01*
X70946023Y63218784D01*
X70526478Y62208409D01*
X70525523Y61114391D01*
X70943304Y60103285D01*
X71716216Y59329023D01*
X72726591Y58909478D01*
X73820609Y58908523D01*
X74831715Y59326304D01*
X75605977Y60099216D01*
X76025522Y61109591D01*
X76026477Y62203609D01*
X75608696Y63214715D01*
X74835784Y63988977D01*
X74329997Y64198998D01*
X74831715Y64406304D01*
X75605977Y65179216D01*
X76025522Y66189591D01*
X76026477Y67283609D01*
X75608696Y68294715D01*
X74835784Y69068977D01*
X73825409Y69488522D01*
X72731391Y69489477D01*
X71720285Y69071696D01*
X70946023Y68298784D01*
X70526478Y67288409D01*
X70525523Y66194391D01*
X62340818Y66194391D01*
X62257193Y66319544D01*
X61365028Y66915669D01*
X60312649Y67125000D01*
X54087351Y67125000D01*
X53034972Y66915669D01*
X52142807Y66319544D01*
X51546682Y65427379D01*
X51337351Y64375000D01*
X50050000Y64375000D01*
X50050000Y67487649D01*
X49840669Y68540028D01*
X49244544Y69432193D01*
X48352379Y70028318D01*
X47300000Y70237649D01*
X46247621Y70028318D01*
X45638819Y69621530D01*
X45636729Y69632038D01*
X45148990Y70361990D01*
X42354990Y73155990D01*
X41625038Y73643729D01*
X40764000Y73815000D01*
X35527980Y73815000D01*
X38901980Y77189000D01*
X48130000Y77189000D01*
X48991038Y77360271D01*
X49720990Y77848010D01*
X50208729Y78577962D01*
X50380000Y79439000D01*
X50208729Y80300038D01*
X49723983Y81025512D01*
X65946120Y81025512D01*
X66287863Y80198431D01*
X66920103Y79565087D01*
X67746586Y79221901D01*
X68641488Y79221120D01*
X69468569Y79562863D01*
X70101913Y80195103D01*
X70445099Y81021586D01*
X70445880Y81916488D01*
X70104137Y82743569D01*
X69471897Y83376913D01*
X68645414Y83720099D01*
X67750512Y83720880D01*
X66923431Y83379137D01*
X66290087Y82746897D01*
X65946901Y81920414D01*
X65946120Y81025512D01*
X49723983Y81025512D01*
X49720990Y81029990D01*
X49138796Y81419000D01*
X50812649Y81419000D01*
X51865028Y81628331D01*
X52757193Y82224456D01*
X53353318Y83116621D01*
X53562649Y84169000D01*
X53353318Y85221379D01*
X52757193Y86113544D01*
X51865028Y86709669D01*
X50812649Y86919000D01*
X48357345Y86919000D01*
X49244544Y87511807D01*
X49840669Y88403972D01*
X50050000Y89456351D01*
X50050000Y92569000D01*
X51337351Y92569000D01*
X51546682Y91516621D01*
X52142807Y90624456D01*
X53034972Y90028331D01*
X54087351Y89819000D01*
X60312649Y89819000D01*
X61365028Y90028331D01*
X62257193Y90624456D01*
X62853318Y91516621D01*
X63062649Y92569000D01*
X62853318Y93621379D01*
X62257193Y94513544D01*
X61365028Y95109669D01*
X60312649Y95319000D01*
X54087351Y95319000D01*
X53034972Y95109669D01*
X52142807Y94513544D01*
X51546682Y93621379D01*
X51337351Y92569000D01*
X50050000Y92569000D01*
X50050000Y95681649D01*
X49840669Y96734028D01*
X49244544Y97626193D01*
X48352379Y98222318D01*
X47300000Y98431649D01*
X46247621Y98222318D01*
X45355456Y97626193D01*
X44759331Y96734028D01*
X44550000Y95681649D01*
X44550000Y89456351D01*
X44759331Y88403972D01*
X45355456Y87511807D01*
X46242655Y86919000D01*
X44587351Y86919000D01*
X43534972Y86709669D01*
X42642807Y86113544D01*
X42046682Y85221379D01*
X41837351Y84169000D01*
X42046682Y83116621D01*
X42642807Y82224456D01*
X43444174Y81689000D01*
X37970000Y81689000D01*
X37108962Y81517729D01*
X36772632Y81293000D01*
X36379010Y81029990D01*
X33623489Y78274469D01*
X33754000Y78930594D01*
X33754000Y79254267D01*
X33854000Y79757000D01*
X33754000Y80259733D01*
X33754000Y80583406D01*
X33514221Y81788859D01*
X32831386Y82810792D01*
X31809453Y83493627D01*
X30741676Y83706020D01*
X31809453Y83918414D01*
X32831386Y84601249D01*
X33514221Y85623182D01*
X33754000Y86828635D01*
X33754000Y87254267D01*
X33854000Y87757000D01*
X33754000Y88259733D01*
X33754000Y88685365D01*
X33514221Y89890818D01*
X32831386Y90912751D01*
X31809453Y91595586D01*
X31375123Y91681979D01*
X31809453Y91768373D01*
X32831386Y92451208D01*
X33514221Y93473141D01*
X33754000Y94678594D01*
X33754000Y95681649D01*
X36550000Y95681649D01*
X36550000Y89456351D01*
X36759331Y88403972D01*
X37355456Y87511807D01*
X38247621Y86915682D01*
X39300000Y86706351D01*
X40352379Y86915682D01*
X41244544Y87511807D01*
X41840669Y88403972D01*
X42050000Y89456351D01*
X42050000Y95681649D01*
X41840669Y96734028D01*
X41244544Y97626193D01*
X40352379Y98222318D01*
X39300000Y98431649D01*
X38247621Y98222318D01*
X37355456Y97626193D01*
X36759331Y96734028D01*
X36550000Y95681649D01*
X33754000Y95681649D01*
X33754000Y96331406D01*
X33514221Y97536859D01*
X32831386Y98558792D01*
X31809453Y99241627D01*
X30741676Y99454020D01*
X31809453Y99666414D01*
X32831386Y100349249D01*
X33514221Y101371182D01*
X33754000Y102576635D01*
X33754000Y104433365D01*
X33514221Y105638818D01*
X32831386Y106660751D01*
X31809453Y107343586D01*
X30604000Y107583365D01*
X29398547Y107343586D01*
X28376614Y106660751D01*
X27693779Y105638818D01*
X27454000Y104433365D01*
X27454000Y102576635D01*
X27693779Y101371182D01*
X28376614Y100349249D01*
X29398547Y99666414D01*
X30466324Y99454020D01*
X29398547Y99241627D01*
X28376614Y98558792D01*
X27693779Y97536859D01*
X27454000Y96331406D01*
X27454000Y94678594D01*
X27693779Y93473141D01*
X28376614Y92451208D01*
X29398547Y91768373D01*
X29832877Y91681979D01*
X29398547Y91595586D01*
X28517667Y91007000D01*
X17753749Y91007000D01*
X17432000Y91071000D01*
X16188279Y90823608D01*
X15996534Y90695488D01*
X15632000Y90695488D01*
X15168778Y90608327D01*
X14743337Y90334563D01*
X14457924Y89916847D01*
X14357512Y89421000D01*
X14357512Y88703357D01*
X14182000Y87821000D01*
X2973000Y87821000D01*
X2973000Y105292000D01*
X11554000Y105292000D01*
X12061056Y105392860D01*
X12080362Y105405760D01*
X15040902Y105909627D01*
X15523848Y106094131D01*
X18545434Y107993897D01*
X18652462Y108095140D01*
X18921011Y108349172D01*
X20985585Y111260639D01*
X21012942Y111321821D01*
X21196615Y111732598D01*
X21989862Y115212520D01*
X21991882Y115285252D01*
X44418917Y115285252D01*
X45368418Y112987284D01*
X47125037Y111227597D01*
X49421344Y110274087D01*
X51907748Y110271917D01*
X54205716Y111221418D01*
X55965403Y112978037D01*
X56918913Y115274344D01*
X56921083Y117760748D01*
X55971582Y120058716D01*
X54214963Y121818403D01*
X51918656Y122771913D01*
X49432252Y122774083D01*
X47134284Y121824582D01*
X45374597Y120067963D01*
X44421087Y117771656D01*
X44418917Y115285252D01*
X21991882Y115285252D01*
X21993991Y115361162D01*
X22023000Y115507000D01*
X22023000Y124342000D01*
X59251000Y124342000D01*
X59251000Y115761000D01*
M02*
