M48
METRIC,TZ
T1C0.400
T2C0.762
T3C0.800
T4C1.000
T5C1.001
T6C1.016
T7C1.524
T8C2.000
T9C3.048
T10C5.000
%
G90
G05
T1
X29972Y91694
X35052Y91694
X40132Y91694
X47244Y91948
X47752Y39116
X52578Y91440
X57404Y91694
X57912Y36576
X62484Y91440
X62992Y36830
X67818Y91694
X68072Y36576
X72898Y91694
X73152Y36576
T2
X37592Y61468
X37592Y46228
X40132Y61468
X40132Y46228
X42672Y61468
X42672Y46228
X45212Y61468
X45212Y46228
X46482Y58928
X47752Y61468
X47752Y46228
X49022Y58928
X50292Y46228
X52832Y61468
X52832Y46228
X55372Y61468
X55372Y46228
X57912Y61468
X57912Y46228
X60452Y61468
X60452Y46228
X62992Y61468
X62992Y46228
X65532Y61468
X65532Y58928
X65532Y56388
X65532Y53848
X65532Y46228
T3
X12446Y73660
X12446Y71120
X12446Y68580
X12446Y66040
X12446Y63500
X12446Y60960
X12446Y58420
X12446Y55880
X12446Y53340
X16510Y38100
X20066Y73660
X20066Y71120
X20066Y68580
X20066Y66040
X20066Y63500
X20066Y60960
X20066Y58420
X20066Y55880
X20066Y53340
X20320Y32512
X20447Y36957
X20447Y29337
X20828Y48260
X22860Y59944
X22987Y36957
X22987Y29337
X25400Y59944
X25527Y36957
X25527Y29337
X25908Y67564
X26416Y58420
X28067Y36957
X28067Y29337
X30480Y42926
X30607Y36957
X30607Y29337
X32512Y44450
X33147Y36957
X33147Y29337
X34544Y39878
X34798Y60960
X35687Y36957
X35687Y29337
X38227Y36957
X38227Y29337
X38354Y85090
X39878Y58420
X40640Y83566
X41378Y50268
X41910Y14732
X43180Y50800
X44958Y78486
X45466Y71120
X46355Y34163
X46482Y53340
X48895Y36703
X48895Y31623
X49022Y55626
X49784Y85598
X50292Y76962
X52070Y73152
X53086Y40894
X53848Y77216
X55118Y43688
X55372Y78740
X55626Y39624
X59690Y85852
X61722Y75184
X66294Y83058
X68834Y72390
X71882Y75184
X73660Y53086
X73914Y44958
X76454Y91694
X76708Y15692
X76708Y12192
X79756Y78994
X82804Y64770
X94234Y71628
X115824Y76708
X123952Y65532
X123952Y54610
X124206Y59944
T4
X28194Y18034
X28194Y15494
X28194Y12954
X50292Y61468
X67564Y17780
X67564Y15240
X67564Y12700
X83820Y91694
X83820Y89154
X83820Y86614
X83820Y84074
X83820Y81534
X83820Y78994
X83820Y76454
X118872Y86614
X118872Y81534
T5
X28702Y78232
X28702Y74930
X36322Y78232
X36322Y74930
X42799Y37211
X42799Y29591
X79248Y21590
X86868Y21590
T6
X6604Y76200
X6604Y73660
X6604Y71120
X6604Y68580
X6604Y66040
X6604Y63500
X6604Y60960
X6604Y58420
X6604Y55880
X6604Y53340
X17780Y44958
X20320Y44958
X22860Y44958
X25400Y44958
T7
X29972Y94996
X35052Y94996
X35814Y6096
X40132Y94996
X40894Y6096
X45974Y6096
X47244Y94742
X52324Y94742
X57404Y94742
X57912Y33528
X62738Y94742
X62992Y33528
X67818Y94742
X68072Y33528
X72898Y94742
X73152Y33528
X78232Y33528
X83312Y33528
X128270Y86868
X128270Y81788
X128270Y76708
X128270Y71628
X129540Y65024
X129540Y59944
X129540Y54864
T9
X6858Y94234
X7874Y4572
X110998Y35560
X131826Y15748
X132588Y94742
T10
X122428Y41910
X122428Y24892
X122428Y7112
T8
X93726Y25070G85X93726Y23570
G05
X93726Y17070G85X93726Y15570
G05
X99366Y42164G85X97866Y42164
G05
X107366Y42164G85X105866Y42164
G05
T0
M30
