M48
METRIC,TZ
T1C0.400
T2C0.762
T3C0.800
T4C1.000
T5C1.001
T6C1.016
T7C1.143
T8C1.524
%
G90
G05
T1
X4576Y88966
X8894Y39690
X10164Y41468
X11180Y51628
X17784Y71694
X20578Y76266
X22102Y24958
X23118Y72202
X25150Y79060
X25150Y43246
X26166Y19878
X26420Y45278
X26928Y16830
X28198Y77790
X29722Y63312
X30992Y55946
X31754Y23180
X32008Y64074
X32008Y34864
X33532Y79060
X36072Y76520
X36580Y64074
X39120Y64328
X40898Y19370
X41152Y58740
X41406Y68900
X42422Y98110
X42676Y103444
X42930Y92268
X42930Y58994
X43946Y10480
X44708Y43500
X44962Y69408
X45470Y116398
X46994Y30038
X47248Y77790
X47502Y64074
X47502Y12766
X48264Y35880
X56138Y21148
X57662Y58994
X62488Y59248
X65282Y46294
X68330Y30038
X69854Y48326
X71378Y43500
X72902Y62296
T2
X34548Y56200
X34548Y40960
X37088Y56200
X37088Y40960
X39628Y56200
X39628Y40960
X42168Y56200
X42168Y40960
X43438Y53660
X44708Y56200
X44708Y40960
X45978Y53660
X47248Y40960
X49788Y56200
X49788Y40960
X52328Y56200
X52328Y40960
X54868Y56200
X54868Y40960
X57408Y56200
X57408Y40960
X59948Y56200
X59948Y40960
X62488Y56200
X62488Y53660
X62488Y51120
X62488Y48580
X62488Y40960
T3
X17530Y33284
X17530Y29784
T4
X47248Y56200
X57916Y67376
X60456Y67376
X62996Y102428
X62996Y67376
X65536Y67376
X68076Y102428
X68076Y67376
X70616Y67376
X73156Y67376
T5
X11180Y33594
X11180Y25974
T6
X22102Y53914
X22102Y51374
X22102Y48834
X22102Y46294
T7
X7116Y33594
X7116Y31054
X7116Y28514
T8
X18292Y85918
X23372Y85918
X24896Y7178
X25150Y111318
X28452Y85918
X29976Y7178
X30230Y111318
X35056Y7178
X35310Y111318
X36326Y85918
X41152Y7432
X41406Y85918
X43438Y111572
X46232Y7432
X46486Y85918
X48518Y111572
X51312Y7432
X53598Y111572
X58678Y111572
X76458Y52136
X76458Y47056
X76458Y41976
T0
M30
