G04 #@! TF.FileFunction,Copper,L1,Top,Signal*
%FSLAX46Y46*%
G04 Gerber Fmt 4.6, Leading zero omitted, Abs format (unit mm)*
G04 Created by KiCad (PCBNEW 4.0.6) date Monday, 02 August 2021 'AMt' 08:10:13*
%MOMM*%
%LPD*%
G01*
G04 APERTURE LIST*
%ADD10C,0.100000*%
%ADD11C,1.300000*%
%ADD12R,1.300000X1.300000*%
%ADD13R,1.250000X1.500000*%
%ADD14R,1.500000X1.250000*%
%ADD15C,1.998980*%
%ADD16R,2.032000X1.727200*%
%ADD17O,2.032000X1.727200*%
%ADD18R,0.800000X0.900000*%
%ADD19R,1.500000X1.300000*%
%ADD20R,1.300000X1.500000*%
%ADD21O,2.540000X2.032000*%
%ADD22R,2.000000X1.780000*%
%ADD23C,2.100000*%
%ADD24R,4.000000X3.000000*%
%ADD25R,2.000000X1.500000*%
%ADD26C,3.000000*%
%ADD27C,2.000000*%
%ADD28R,3.800000X2.000000*%
%ADD29R,1.500000X2.000000*%
%ADD30R,2.540000X2.540000*%
%ADD31C,2.540000*%
%ADD32C,3.810000*%
%ADD33R,3.810000X3.810000*%
%ADD34C,0.600000*%
%ADD35C,1.000000*%
%ADD36C,0.500000*%
G04 APERTURE END LIST*
D10*
D11*
X17530000Y33284000D03*
D12*
X17530000Y29784000D03*
D13*
X31500000Y30780000D03*
X31500000Y28280000D03*
X47248000Y71968000D03*
X47248000Y74468000D03*
X38739000Y71841000D03*
X38739000Y74341000D03*
D14*
X36052000Y66360000D03*
X33552000Y66360000D03*
X30718000Y66360000D03*
X28218000Y66360000D03*
X20558000Y68646000D03*
X18058000Y68646000D03*
X25638000Y68646000D03*
X23138000Y68646000D03*
X36814000Y22164000D03*
X34314000Y22164000D03*
D15*
X11180000Y33594000D03*
X11180000Y25974000D03*
D16*
X22102000Y46294000D03*
D17*
X22102000Y48834000D03*
X22102000Y51374000D03*
X22102000Y53914000D03*
D18*
X42488000Y15830000D03*
X44388000Y15830000D03*
X43438000Y17830000D03*
D19*
X15164000Y24958000D03*
X17864000Y24958000D03*
X51646000Y20894000D03*
X48946000Y20894000D03*
X51646000Y23434000D03*
X48946000Y23434000D03*
D20*
X51566000Y28594000D03*
X51566000Y25894000D03*
D19*
X48946000Y31054000D03*
X51646000Y31054000D03*
X70696000Y27244000D03*
X67996000Y27244000D03*
D20*
X38739000Y66407000D03*
X38739000Y69107000D03*
X47248000Y66788000D03*
X47248000Y69488000D03*
X44962000Y74568000D03*
X44962000Y71868000D03*
X41279000Y74441000D03*
X41279000Y71741000D03*
X36072000Y74060000D03*
X36072000Y71360000D03*
D19*
X33452000Y68900000D03*
X36152000Y68900000D03*
D20*
X30738000Y74060000D03*
X30738000Y71360000D03*
D19*
X28118000Y68900000D03*
X30818000Y68900000D03*
D20*
X20578000Y73806000D03*
X20578000Y71106000D03*
D19*
X17958000Y66360000D03*
X20658000Y66360000D03*
D20*
X25658000Y73806000D03*
X25658000Y71106000D03*
D19*
X23038000Y66360000D03*
X25738000Y66360000D03*
X46312000Y21402000D03*
X43612000Y21402000D03*
X41580000Y12766000D03*
X44280000Y12766000D03*
D21*
X7116000Y31054000D03*
X7116000Y33594000D03*
X7116000Y28514000D03*
D22*
X55884000Y31308000D03*
X63504000Y23688000D03*
X55884000Y28768000D03*
X63504000Y26228000D03*
X55884000Y26228000D03*
X63504000Y28768000D03*
X55884000Y23688000D03*
X63504000Y31308000D03*
D23*
X44708000Y56200000D03*
X39628000Y56200000D03*
X39628000Y40960000D03*
X47248000Y40960000D03*
X49788000Y40960000D03*
X52328000Y40960000D03*
X34548000Y56200000D03*
X37088000Y56200000D03*
X42168000Y56200000D03*
X47248000Y56200000D03*
X49788000Y56200000D03*
X52328000Y56200000D03*
X54868000Y56200000D03*
X57408000Y56200000D03*
X59948000Y56200000D03*
X62488000Y56200000D03*
X34548000Y40960000D03*
X37088000Y40960000D03*
X44708000Y40960000D03*
X54868000Y40960000D03*
X57408000Y40960000D03*
X59948000Y40960000D03*
X62488000Y40960000D03*
X62488000Y53660000D03*
X62488000Y51120000D03*
X62488000Y48580000D03*
X43438000Y53660000D03*
X45978000Y53660000D03*
X42168000Y40960000D03*
D24*
X48010000Y92300000D03*
X48010000Y103476000D03*
X48010000Y97976000D03*
D25*
X4830000Y94356000D03*
X4830000Y96896000D03*
X4830000Y99436000D03*
X4830000Y101976000D03*
D26*
X62996000Y102428000D03*
X68076000Y102428000D03*
D27*
X73156000Y67376000D03*
X70616000Y67376000D03*
X68076000Y67376000D03*
X57916000Y67376000D03*
X60456000Y67376000D03*
X62996000Y67376000D03*
X65536000Y67376000D03*
D28*
X36580000Y32172000D03*
D29*
X36580000Y25872000D03*
X38880000Y25872000D03*
X34280000Y25872000D03*
D30*
X51312000Y7432000D03*
D31*
X46232000Y7432000D03*
X41152000Y7432000D03*
D30*
X35310000Y111318000D03*
D31*
X30230000Y111318000D03*
X25150000Y111318000D03*
D30*
X35056000Y7178000D03*
D31*
X29976000Y7178000D03*
X24896000Y7178000D03*
D30*
X18292000Y85918000D03*
D31*
X23372000Y85918000D03*
X28452000Y85918000D03*
D30*
X36326000Y85918000D03*
D31*
X41406000Y85918000D03*
X46486000Y85918000D03*
D30*
X76458000Y52136000D03*
D31*
X76458000Y47056000D03*
X76458000Y41976000D03*
D32*
X53598000Y111572000D03*
X48518000Y111572000D03*
D33*
X58678000Y111572000D03*
D32*
X43438000Y111572000D03*
D34*
X47248000Y77790000D03*
X31754000Y23180000D03*
X56138000Y21148000D03*
X4576000Y88966000D03*
X17784000Y71694000D03*
X23118000Y72202000D03*
X33532000Y79060000D03*
X28198000Y77790000D03*
X30992000Y55946000D03*
X32008000Y34864000D03*
X41152000Y58740000D03*
X44962000Y69408000D03*
X41406000Y68900000D03*
X36580000Y64074000D03*
X32008000Y64074000D03*
X25150000Y43246000D03*
X26420000Y45278000D03*
X43946000Y10480000D03*
X40898000Y19370000D03*
X42676000Y103444000D03*
X42422000Y98110000D03*
X42930000Y92268000D03*
X45470000Y116398000D03*
X26166000Y19878000D03*
X22102000Y24958000D03*
X26928000Y16830000D03*
X29722000Y63312000D03*
X36072000Y76520000D03*
X20578000Y76266000D03*
X25150000Y79060000D03*
X68330000Y30038000D03*
X71378000Y43500000D03*
X69854000Y48326000D03*
X11180000Y51628000D03*
X42930000Y58994000D03*
X72902000Y62296000D03*
X46994000Y30038000D03*
X48264000Y35880000D03*
X39120000Y64328000D03*
X47502000Y64074000D03*
X62488000Y59248000D03*
X57662000Y58994000D03*
X10164000Y41468000D03*
X8894000Y39690000D03*
X44708000Y43500000D03*
X65282000Y46294000D03*
X47502000Y12766000D03*
D35*
X47248000Y74468000D02*
X47248000Y77790000D01*
X32770000Y22164000D02*
X34314000Y22164000D01*
X31754000Y23180000D02*
X32770000Y22164000D01*
X55884000Y21402000D02*
X56138000Y21148000D01*
X55884000Y23688000D02*
X55884000Y21402000D01*
X4830000Y89220000D02*
X4830000Y94356000D01*
X4576000Y88966000D02*
X4830000Y89220000D01*
X28118000Y75678000D02*
X28118000Y68900000D01*
X18058000Y71420000D02*
X18058000Y68646000D01*
X17784000Y71694000D02*
X18058000Y71420000D01*
X23138000Y72182000D02*
X23138000Y68646000D01*
X23118000Y72202000D02*
X23138000Y72182000D01*
X33532000Y79060000D02*
X34802000Y79060000D01*
X31500000Y26228000D02*
X31500000Y28280000D01*
X34314000Y22164000D02*
X34040000Y22164000D01*
X34280000Y25872000D02*
X34280000Y22198000D01*
X34280000Y22198000D02*
X34314000Y22164000D01*
X18058000Y68646000D02*
X18058000Y66460000D01*
X18058000Y66460000D02*
X17958000Y66360000D01*
X23038000Y66360000D02*
X23038000Y68546000D01*
X23038000Y68546000D02*
X23138000Y68646000D01*
X28218000Y66360000D02*
X28218000Y68800000D01*
X28218000Y68800000D02*
X28118000Y68900000D01*
X33452000Y68900000D02*
X33452000Y78886000D01*
X33626000Y79060000D02*
X34802000Y79060000D01*
X34802000Y79060000D02*
X38612000Y79060000D01*
X33452000Y78886000D02*
X33626000Y79060000D01*
X33552000Y66360000D02*
X33552000Y68800000D01*
X33552000Y68800000D02*
X33452000Y68900000D01*
X47248000Y74468000D02*
X47248000Y75250000D01*
X47248000Y75250000D02*
X45978000Y76520000D01*
X38739000Y75377000D02*
X38739000Y74341000D01*
X51646000Y23434000D02*
X55630000Y23434000D01*
X55630000Y23434000D02*
X55884000Y23688000D01*
X38612000Y79060000D02*
X39882000Y76520000D01*
X45978000Y76520000D02*
X39882000Y76520000D01*
X39882000Y76520000D02*
X38739000Y75377000D01*
X28198000Y75758000D02*
X28118000Y75678000D01*
X28198000Y77790000D02*
X28198000Y75758000D01*
X34280000Y25872000D02*
X31856000Y25872000D01*
X31856000Y25872000D02*
X31500000Y26228000D01*
X15164000Y24958000D02*
X12196000Y24958000D01*
X12196000Y24958000D02*
X11180000Y25974000D01*
X31198004Y35673996D02*
X32008000Y34864000D01*
X31198004Y48881996D02*
X31198004Y35673996D01*
X30896008Y49183992D02*
X31198004Y48881996D01*
X30896008Y55850008D02*
X30896008Y49183992D01*
X30992000Y55946000D02*
X30896008Y55850008D01*
X31500000Y30780000D02*
X31500000Y34356000D01*
X31500000Y34356000D02*
X32008000Y34864000D01*
X41304000Y25872000D02*
X38880000Y25872000D01*
X41660000Y26228000D02*
X41304000Y25872000D01*
X41660000Y34356000D02*
X41660000Y26228000D01*
X41152000Y34864000D02*
X41660000Y34356000D01*
X32008000Y34864000D02*
X41152000Y34864000D01*
X43184000Y74568000D02*
X43184000Y67630000D01*
X41152000Y65598000D02*
X41152000Y58740000D01*
X43184000Y67630000D02*
X41152000Y65598000D01*
X44962000Y74568000D02*
X43184000Y74568000D01*
X43184000Y74568000D02*
X41406000Y74568000D01*
X41406000Y74568000D02*
X41279000Y74441000D01*
X44962000Y69408000D02*
X44962000Y71868000D01*
X47248000Y71968000D02*
X45062000Y71968000D01*
X45062000Y71968000D02*
X44962000Y71868000D01*
X47248000Y69488000D02*
X47248000Y71968000D01*
X41406000Y68900000D02*
X41279000Y69027000D01*
X41279000Y69027000D02*
X41279000Y71741000D01*
X38739000Y71841000D02*
X41179000Y71841000D01*
X41179000Y71841000D02*
X41279000Y71741000D01*
X38739000Y69107000D02*
X38739000Y71841000D01*
X36152000Y68900000D02*
X36152000Y71440000D01*
X36052000Y66360000D02*
X36052000Y68800000D01*
X36052000Y68800000D02*
X36152000Y68900000D01*
X36052000Y64602000D02*
X36052000Y66360000D01*
X36580000Y64074000D02*
X36052000Y64602000D01*
X30818000Y68900000D02*
X30818000Y71280000D01*
X30818000Y71280000D02*
X30738000Y71360000D01*
X30718000Y66360000D02*
X30718000Y68800000D01*
X30718000Y68800000D02*
X30818000Y68900000D01*
X30718000Y65364000D02*
X30718000Y66360000D01*
X32008000Y64074000D02*
X30718000Y65364000D01*
X24896000Y62399998D02*
X23729998Y63566000D01*
X24896000Y43500000D02*
X24896000Y62399998D01*
X25150000Y43246000D02*
X24896000Y43500000D01*
X20658000Y66360000D02*
X20658000Y65264000D01*
X22356000Y63566000D02*
X23729998Y63566000D01*
X20658000Y65264000D02*
X22356000Y63566000D01*
X20558000Y68646000D02*
X20558000Y66460000D01*
X20558000Y66460000D02*
X20658000Y66360000D01*
X20578000Y71106000D02*
X20578000Y68666000D01*
X20578000Y68666000D02*
X20558000Y68646000D01*
X26396002Y65701998D02*
X25738000Y66360000D01*
X26396002Y45301998D02*
X26396002Y65701998D01*
X26420000Y45278000D02*
X26396002Y45301998D01*
X25638000Y68646000D02*
X25638000Y66460000D01*
X25638000Y66460000D02*
X25738000Y66360000D01*
X25658000Y71106000D02*
X25658000Y68666000D01*
X25658000Y68666000D02*
X25638000Y68646000D01*
X43946000Y10480000D02*
X43692000Y10734000D01*
X43692000Y10734000D02*
X41914000Y10734000D01*
X41914000Y10734000D02*
X41580000Y11068000D01*
X41580000Y11068000D02*
X41580000Y12766000D01*
X40898000Y15830000D02*
X40898000Y19370000D01*
X42488000Y15830000D02*
X42488000Y15372000D01*
X41580000Y14464000D02*
X41580000Y12766000D01*
X42488000Y15372000D02*
X41580000Y14464000D01*
X36814000Y22164000D02*
X36814000Y19898000D01*
X40882000Y15830000D02*
X40898000Y15830000D01*
X40898000Y15830000D02*
X42488000Y15830000D01*
X36814000Y19898000D02*
X40882000Y15830000D01*
X36814000Y22164000D02*
X36814000Y25638000D01*
X36814000Y25638000D02*
X36580000Y25872000D01*
X37358000Y21620000D02*
X36814000Y22164000D01*
X42676000Y103444000D02*
X42708000Y103476000D01*
X42708000Y103476000D02*
X48010000Y103476000D01*
X42422000Y98110000D02*
X42556000Y97976000D01*
X42556000Y97976000D02*
X48010000Y97976000D01*
X42930000Y92268000D02*
X42962000Y92300000D01*
X42962000Y92300000D02*
X48010000Y92300000D01*
X38612000Y107254000D02*
X38612000Y108016000D01*
X15244000Y91506000D02*
X29722000Y105984000D01*
X29722000Y105984000D02*
X37342000Y105984000D01*
X37342000Y105984000D02*
X38612000Y107254000D01*
X15244000Y76774000D02*
X15244000Y91506000D01*
X41406000Y116398000D02*
X45470000Y116398000D01*
X39628000Y114620000D02*
X41406000Y116398000D01*
X39628000Y109032000D02*
X39628000Y114620000D01*
X38612000Y108016000D02*
X39628000Y109032000D01*
X17864000Y24958000D02*
X18800000Y24958000D01*
X25658000Y75504000D02*
X25658000Y73806000D01*
X22864000Y78298000D02*
X25658000Y75504000D01*
X16768000Y78298000D02*
X22864000Y78298000D01*
X15244000Y76774000D02*
X16768000Y78298000D01*
X15244000Y44262000D02*
X15244000Y76774000D01*
X20832000Y38674000D02*
X15244000Y44262000D01*
X20832000Y26990000D02*
X20832000Y38674000D01*
X18800000Y24958000D02*
X20832000Y26990000D01*
X22102000Y23942000D02*
X22102000Y24958000D01*
X26166000Y19878000D02*
X22102000Y23942000D01*
X22102000Y24958000D02*
X17864000Y24958000D01*
X26928000Y16830000D02*
X29698002Y19600002D01*
X29698002Y19600002D02*
X29698002Y47310000D01*
X29698002Y47310000D02*
X29396006Y47611996D01*
X29396006Y47611996D02*
X29396006Y52390000D01*
X29396006Y52390000D02*
X29396006Y54676000D01*
X29396006Y54676000D02*
X29214000Y54858006D01*
X29214000Y54858006D02*
X29214000Y62804000D01*
X29214000Y62804000D02*
X29722000Y63312000D01*
X36072000Y76520000D02*
X36072000Y74060000D01*
X20578000Y76266000D02*
X20578000Y73806000D01*
X30738000Y78806000D02*
X30738000Y74060000D01*
X29722000Y79822000D02*
X30738000Y78806000D01*
X25912000Y79822000D02*
X29722000Y79822000D01*
X25150000Y79060000D02*
X25912000Y79822000D01*
X68330000Y30038000D02*
X70696000Y27672000D01*
X70696000Y27672000D02*
X70696000Y27244000D01*
X55884000Y26228000D02*
X58170000Y26228000D01*
X60710000Y32832000D02*
X71378000Y43500000D01*
X60710000Y28768000D02*
X60710000Y32832000D01*
X58170000Y26228000D02*
X60710000Y28768000D01*
X51566000Y25894000D02*
X55550000Y25894000D01*
X55550000Y25894000D02*
X55884000Y26228000D01*
X48946000Y23434000D02*
X48946000Y25132000D01*
X49708000Y25894000D02*
X51566000Y25894000D01*
X48946000Y25132000D02*
X49708000Y25894000D01*
X48946000Y20894000D02*
X48946000Y23434000D01*
X55376000Y25720000D02*
X55884000Y26228000D01*
X55630000Y25974000D02*
X55884000Y26228000D01*
X55884000Y28768000D02*
X57662000Y28768000D01*
X60202000Y34610000D02*
X69854000Y44262000D01*
X69854000Y44262000D02*
X69854000Y48326000D01*
X58170000Y32578000D02*
X60202000Y34610000D01*
X58170000Y29276000D02*
X58170000Y32578000D01*
X57662000Y28768000D02*
X58170000Y29276000D01*
X55884000Y28768000D02*
X56900000Y28768000D01*
X46312000Y21402000D02*
X46312000Y21736000D01*
X46312000Y21736000D02*
X46740000Y22164000D01*
X11180000Y88204000D02*
X11180000Y51628000D01*
X4830000Y101976000D02*
X7403324Y101976000D01*
X7403324Y101976000D02*
X11156002Y98223322D01*
X11156002Y98223322D02*
X11156002Y88227998D01*
X11156002Y88227998D02*
X11180000Y88204000D01*
X72902000Y62296000D02*
X72902000Y39690000D01*
X72140000Y24450000D02*
X66298000Y24450000D01*
X74172000Y26482000D02*
X72140000Y24450000D01*
X74172000Y38420000D02*
X74172000Y26482000D01*
X72902000Y39690000D02*
X74172000Y38420000D01*
X44962000Y61026000D02*
X42930000Y58994000D01*
X71632000Y61026000D02*
X44962000Y61026000D01*
X72902000Y62296000D02*
X71632000Y61026000D01*
X51058000Y18862000D02*
X61980000Y18862000D01*
X61980000Y18862000D02*
X63250000Y20132000D01*
X63250000Y20132000D02*
X64012000Y20132000D01*
X64012000Y20132000D02*
X66298000Y22418000D01*
X66298000Y22418000D02*
X66298000Y24450000D01*
X66298000Y24450000D02*
X66298000Y29276000D01*
X67996000Y27244000D02*
X67996000Y27578000D01*
X67996000Y27578000D02*
X66298000Y29276000D01*
X66298000Y29276000D02*
X66298000Y30546000D01*
X65536000Y31308000D02*
X63504000Y31308000D01*
X66298000Y30546000D02*
X65536000Y31308000D01*
X48946000Y31054000D02*
X48946000Y28180000D01*
X51646000Y19450000D02*
X51646000Y20894000D01*
X51058000Y18862000D02*
X51646000Y19450000D01*
X47248000Y18862000D02*
X51058000Y18862000D01*
X46740000Y19370000D02*
X47248000Y18862000D01*
X46740000Y25974000D02*
X46740000Y22164000D01*
X46740000Y22164000D02*
X46740000Y19370000D01*
X48946000Y28180000D02*
X46740000Y25974000D01*
X43612000Y21402000D02*
X43612000Y26656000D01*
X43612000Y26656000D02*
X46994000Y30038000D01*
X43438000Y17830000D02*
X43438000Y21228000D01*
X43438000Y21228000D02*
X43612000Y21402000D01*
X55884000Y33594000D02*
X55884000Y31308000D01*
X53598000Y35880000D02*
X55884000Y33594000D01*
X48264000Y35880000D02*
X53598000Y35880000D01*
X51646000Y31054000D02*
X55630000Y31054000D01*
X55630000Y31054000D02*
X55884000Y31308000D01*
X51566000Y28594000D02*
X51566000Y30974000D01*
X51566000Y30974000D02*
X51646000Y31054000D01*
X55710000Y31134000D02*
X55884000Y31308000D01*
X38739000Y64709000D02*
X38739000Y66407000D01*
X39120000Y64328000D02*
X38739000Y64709000D01*
X47248000Y64328000D02*
X47248000Y66788000D01*
X47502000Y64074000D02*
X47248000Y64328000D01*
X57916000Y59248000D02*
X62488000Y59248000D01*
X57662000Y58994000D02*
X57916000Y59248000D01*
X7822000Y99436000D02*
X9656000Y97602000D01*
X4830000Y99436000D02*
X7822000Y99436000D01*
X9910000Y41468000D02*
X10164000Y41468000D01*
X9656000Y41214000D02*
X9910000Y41468000D01*
X9656000Y97602000D02*
X9656000Y41214000D01*
X7878000Y96078000D02*
X7878000Y77536000D01*
X7060000Y96896000D02*
X7878000Y96078000D01*
X4830000Y96896000D02*
X7060000Y96896000D01*
X8155998Y40428002D02*
X8894000Y39690000D01*
X8155998Y77258002D02*
X8155998Y40428002D01*
X7878000Y77536000D02*
X8155998Y77258002D01*
X65282000Y46294000D02*
X64012000Y43500000D01*
X64012000Y43500000D02*
X44708000Y43500000D01*
X47502000Y12766000D02*
X44280000Y12766000D01*
X44280000Y12766000D02*
X44280000Y15722000D01*
X44280000Y15722000D02*
X44388000Y15830000D01*
D36*
G36*
X61155000Y117414000D02*
X61217799Y117098286D01*
X61275864Y117011386D01*
X61664812Y114268255D01*
X61771311Y113964483D01*
X61771313Y113964481D01*
X63588674Y110887836D01*
X63803315Y110647944D01*
X66659722Y108500967D01*
X66949827Y108361474D01*
X66949832Y108361474D01*
X70410414Y107471026D01*
X70514124Y107465264D01*
X70616000Y107445000D01*
X80205000Y107445000D01*
X80205000Y22989000D01*
X71124000Y22989000D01*
X71044306Y22973148D01*
X70963051Y22973148D01*
X67522288Y22288737D01*
X67548000Y22418000D01*
X67548000Y23200000D01*
X72140000Y23200000D01*
X72618354Y23295151D01*
X73023883Y23566117D01*
X75055884Y25598117D01*
X75326849Y26003646D01*
X75354210Y26141198D01*
X75422000Y26482000D01*
X75422000Y33129944D01*
X75705359Y33554021D01*
X75915406Y34610000D01*
X75705359Y35665979D01*
X75422000Y36090056D01*
X75422000Y38420000D01*
X75326849Y38898354D01*
X75055883Y39303884D01*
X74152000Y40207766D01*
X74152000Y41575960D01*
X74437650Y41575960D01*
X74744529Y40833257D01*
X75312268Y40264526D01*
X76054434Y39956352D01*
X76858040Y39955650D01*
X77600743Y40262529D01*
X78169474Y40830268D01*
X78477648Y41572434D01*
X78478350Y42376040D01*
X78171471Y43118743D01*
X77603732Y43687474D01*
X76861566Y43995648D01*
X76057960Y43996350D01*
X75315257Y43689471D01*
X74746526Y43121732D01*
X74438352Y42379566D01*
X74437650Y41575960D01*
X74152000Y41575960D01*
X74152000Y46655960D01*
X74437650Y46655960D01*
X74744529Y45913257D01*
X75312268Y45344526D01*
X76054434Y45036352D01*
X76858040Y45035650D01*
X77600743Y45342529D01*
X78169474Y45910268D01*
X78477648Y46652434D01*
X78478350Y47456040D01*
X78171471Y48198743D01*
X77603732Y48767474D01*
X76861566Y49075648D01*
X76057960Y49076350D01*
X75315257Y48769471D01*
X74746526Y48201732D01*
X74438352Y47459566D01*
X74437650Y46655960D01*
X74152000Y46655960D01*
X74152000Y53406000D01*
X74423307Y53406000D01*
X74423307Y50866000D01*
X74475604Y50588067D01*
X74639862Y50332802D01*
X74890492Y50161554D01*
X75188000Y50101307D01*
X77728000Y50101307D01*
X78005933Y50153604D01*
X78261198Y50317862D01*
X78432446Y50568492D01*
X78492693Y50866000D01*
X78492693Y53406000D01*
X78440396Y53683933D01*
X78276138Y53939198D01*
X78025508Y54110446D01*
X77728000Y54170693D01*
X75188000Y54170693D01*
X74910067Y54118396D01*
X74654802Y53954138D01*
X74483554Y53703508D01*
X74423307Y53406000D01*
X74152000Y53406000D01*
X74152000Y62296000D01*
X74056849Y62774354D01*
X73785883Y63179883D01*
X73380354Y63450849D01*
X72902000Y63546000D01*
X72464624Y63459000D01*
X72423646Y63450849D01*
X72018116Y63179883D01*
X71114234Y62276000D01*
X44962000Y62276000D01*
X44483646Y62180849D01*
X44078117Y61909884D01*
X42402000Y60233766D01*
X42402000Y65080234D01*
X44067884Y66746117D01*
X44338849Y67151646D01*
X44371651Y67316554D01*
X44434000Y67630000D01*
X44434000Y68286323D01*
X44483646Y68253151D01*
X44962000Y68158000D01*
X45440354Y68253151D01*
X45845883Y68524117D01*
X45867472Y68556428D01*
X45885604Y68460067D01*
X46049862Y68204802D01*
X46146548Y68138740D01*
X46064802Y68086138D01*
X45893554Y67835508D01*
X45833307Y67538000D01*
X45833307Y66038000D01*
X45885604Y65760067D01*
X45998000Y65585398D01*
X45998000Y64328000D01*
X46089886Y63866058D01*
X46093151Y63849646D01*
X46364117Y63444117D01*
X46618116Y63190117D01*
X47023646Y62919151D01*
X47502000Y62824001D01*
X47980354Y62919151D01*
X48385883Y63190117D01*
X48656849Y63595646D01*
X48751999Y64074000D01*
X48656849Y64552354D01*
X48498000Y64790089D01*
X48498000Y65587630D01*
X48602446Y65740492D01*
X48662693Y66038000D01*
X48662693Y67029431D01*
X56165696Y67029431D01*
X56431557Y66385999D01*
X56923410Y65893287D01*
X57566376Y65626304D01*
X58262569Y65625696D01*
X58906001Y65891557D01*
X59186057Y66171125D01*
X59463410Y65893287D01*
X60106376Y65626304D01*
X60802569Y65625696D01*
X61446001Y65891557D01*
X61726057Y66171125D01*
X62003410Y65893287D01*
X62646376Y65626304D01*
X63342569Y65625696D01*
X63986001Y65891557D01*
X64266057Y66171125D01*
X64543410Y65893287D01*
X65186376Y65626304D01*
X65882569Y65625696D01*
X66526001Y65891557D01*
X66806057Y66171125D01*
X67083410Y65893287D01*
X67726376Y65626304D01*
X68422569Y65625696D01*
X69066001Y65891557D01*
X69558713Y66383410D01*
X69825696Y67026376D01*
X69825698Y67029431D01*
X71405696Y67029431D01*
X71671557Y66385999D01*
X72163410Y65893287D01*
X72806376Y65626304D01*
X73502569Y65625696D01*
X74146001Y65891557D01*
X74638713Y66383410D01*
X74905696Y67026376D01*
X74906304Y67722569D01*
X74640443Y68366001D01*
X74148590Y68858713D01*
X73505624Y69125696D01*
X72809431Y69126304D01*
X72165999Y68860443D01*
X71673287Y68368590D01*
X71406304Y67725624D01*
X71405696Y67029431D01*
X69825698Y67029431D01*
X69826304Y67722569D01*
X69560443Y68366001D01*
X69068590Y68858713D01*
X68425624Y69125696D01*
X67729431Y69126304D01*
X67085999Y68860443D01*
X66805943Y68580875D01*
X66528590Y68858713D01*
X65885624Y69125696D01*
X65189431Y69126304D01*
X64545999Y68860443D01*
X64265943Y68580875D01*
X63988590Y68858713D01*
X63345624Y69125696D01*
X62649431Y69126304D01*
X62005999Y68860443D01*
X61725943Y68580875D01*
X61448590Y68858713D01*
X60805624Y69125696D01*
X60109431Y69126304D01*
X59465999Y68860443D01*
X59185943Y68580875D01*
X58908590Y68858713D01*
X58265624Y69125696D01*
X57569431Y69126304D01*
X56925999Y68860443D01*
X56433287Y68368590D01*
X56166304Y67725624D01*
X56165696Y67029431D01*
X48662693Y67029431D01*
X48662693Y67538000D01*
X48610396Y67815933D01*
X48446138Y68071198D01*
X48349452Y68137260D01*
X48431198Y68189862D01*
X48602446Y68440492D01*
X48662693Y68738000D01*
X48662693Y70238000D01*
X48610396Y70515933D01*
X48498000Y70690602D01*
X48498000Y70804219D01*
X48577446Y70920492D01*
X48637693Y71218000D01*
X48637693Y72718000D01*
X48585396Y72995933D01*
X48421138Y73251198D01*
X48170508Y73422446D01*
X47873000Y73482693D01*
X46623000Y73482693D01*
X46345067Y73430396D01*
X46184124Y73326833D01*
X46316446Y73520492D01*
X46376693Y73818000D01*
X46376693Y75318000D01*
X46324396Y75595933D01*
X46160138Y75851198D01*
X45909508Y76022446D01*
X45612000Y76082693D01*
X44312000Y76082693D01*
X44034067Y76030396D01*
X43778802Y75866138D01*
X43745911Y75818000D01*
X42339854Y75818000D01*
X42226508Y75895446D01*
X41929000Y75955693D01*
X40629000Y75955693D01*
X40351067Y75903396D01*
X40095802Y75739138D01*
X39924554Y75488508D01*
X39864307Y75191000D01*
X39864307Y73691000D01*
X39916604Y73413067D01*
X40080862Y73157802D01*
X40177548Y73091740D01*
X40176398Y73091000D01*
X39933500Y73091000D01*
X39912138Y73124198D01*
X39661508Y73295446D01*
X39364000Y73355693D01*
X38114000Y73355693D01*
X37836067Y73303396D01*
X37580802Y73139138D01*
X37409554Y72888508D01*
X37349307Y72591000D01*
X37349307Y72520165D01*
X37270138Y72643198D01*
X37173452Y72709260D01*
X37255198Y72761862D01*
X37426446Y73012492D01*
X37486693Y73310000D01*
X37486693Y74810000D01*
X37434396Y75087933D01*
X37322000Y75262602D01*
X37322000Y76520000D01*
X37226849Y76998354D01*
X36955883Y77403883D01*
X36550354Y77674849D01*
X36072000Y77770000D01*
X35593646Y77674849D01*
X35188117Y77403883D01*
X34917151Y76998354D01*
X34822000Y76520000D01*
X34822000Y75260370D01*
X34717554Y75107508D01*
X34657307Y74810000D01*
X34657307Y73310000D01*
X34709604Y73032067D01*
X34873862Y72776802D01*
X34970548Y72710740D01*
X34888802Y72658138D01*
X34717554Y72407508D01*
X34657307Y72110000D01*
X34657307Y70610000D01*
X34709604Y70332067D01*
X34864337Y70091604D01*
X34697554Y69847508D01*
X34637307Y69550000D01*
X34637307Y68250000D01*
X34689604Y67972067D01*
X34802000Y67797398D01*
X34802000Y67554500D01*
X34768802Y67533138D01*
X34597554Y67282508D01*
X34537307Y66985000D01*
X34537307Y65735000D01*
X34589604Y65457067D01*
X34753862Y65201802D01*
X34802000Y65168911D01*
X34802000Y64602000D01*
X34882782Y64195883D01*
X34897151Y64123646D01*
X35168117Y63718117D01*
X35696117Y63190116D01*
X36101646Y62919151D01*
X36580000Y62824001D01*
X37058354Y62919151D01*
X37463884Y63190116D01*
X37734849Y63595646D01*
X37797612Y63911179D01*
X37855117Y63825117D01*
X38236116Y63444117D01*
X38641646Y63173151D01*
X39120000Y63078001D01*
X39598354Y63173151D01*
X39902000Y63376041D01*
X39902000Y58740000D01*
X39997151Y58261646D01*
X40243061Y57893615D01*
X39987613Y57999687D01*
X39271529Y58000312D01*
X38609714Y57726855D01*
X38102924Y57220949D01*
X37828313Y56559613D01*
X37827688Y55843529D01*
X38101145Y55181714D01*
X38607051Y54674924D01*
X39268387Y54400313D01*
X39984471Y54399688D01*
X40646286Y54673145D01*
X40897995Y54924415D01*
X41147051Y54674924D01*
X41798157Y54404561D01*
X41638313Y54019613D01*
X41637688Y53303529D01*
X41911145Y52641714D01*
X42417051Y52134924D01*
X43078387Y51860313D01*
X43794471Y51859688D01*
X44456286Y52133145D01*
X44707995Y52384415D01*
X44957051Y52134924D01*
X45618387Y51860313D01*
X46334471Y51859688D01*
X46996286Y52133145D01*
X47503076Y52639051D01*
X47777687Y53300387D01*
X47778312Y54016471D01*
X47617709Y54405158D01*
X48266286Y54673145D01*
X48517995Y54924415D01*
X48767051Y54674924D01*
X49428387Y54400313D01*
X50144471Y54399688D01*
X50806286Y54673145D01*
X51057995Y54924415D01*
X51307051Y54674924D01*
X51968387Y54400313D01*
X52684471Y54399688D01*
X53346286Y54673145D01*
X53597995Y54924415D01*
X53847051Y54674924D01*
X54508387Y54400313D01*
X55224471Y54399688D01*
X55886286Y54673145D01*
X56137995Y54924415D01*
X56387051Y54674924D01*
X57048387Y54400313D01*
X57764471Y54399688D01*
X58426286Y54673145D01*
X58677995Y54924415D01*
X58927051Y54674924D01*
X59588387Y54400313D01*
X60304471Y54399688D01*
X60958316Y54669852D01*
X60688313Y54019613D01*
X60687688Y53303529D01*
X60961145Y52641714D01*
X61212415Y52390005D01*
X60962924Y52140949D01*
X60688313Y51479613D01*
X60687688Y50763529D01*
X60961145Y50101714D01*
X61467051Y49594924D01*
X62128387Y49320313D01*
X62844471Y49319688D01*
X63506286Y49593145D01*
X64013076Y50099051D01*
X64287687Y50760387D01*
X64288312Y51476471D01*
X64014855Y52138286D01*
X63763585Y52389995D01*
X64013076Y52639051D01*
X64287687Y53300387D01*
X64288312Y54016471D01*
X64014855Y54678286D01*
X63763585Y54929995D01*
X64013076Y55179051D01*
X64287687Y55840387D01*
X64288312Y56556471D01*
X64014855Y57218286D01*
X63508949Y57725076D01*
X62847613Y57999687D01*
X62498015Y57999992D01*
X62966354Y58093151D01*
X63371883Y58364117D01*
X63642849Y58769646D01*
X63738000Y59248000D01*
X63642849Y59726354D01*
X63609677Y59776000D01*
X71632000Y59776000D01*
X71652000Y59779978D01*
X71652000Y44695497D01*
X71378000Y44749999D01*
X71104000Y44695497D01*
X71104000Y48326000D01*
X71008849Y48804354D01*
X70737883Y49209883D01*
X70332354Y49480849D01*
X69854000Y49576000D01*
X69375646Y49480849D01*
X68970117Y49209883D01*
X68699151Y48804354D01*
X68604000Y48326000D01*
X68604000Y44779767D01*
X64190451Y40366218D01*
X64287687Y40600387D01*
X64288312Y41316471D01*
X64014855Y41978286D01*
X63743615Y42250000D01*
X64012000Y42250000D01*
X64230786Y42293519D01*
X64450904Y42329589D01*
X64469218Y42340947D01*
X64490354Y42345151D01*
X64675824Y42469078D01*
X64865392Y42586643D01*
X64877966Y42604145D01*
X64895883Y42616117D01*
X65019802Y42801574D01*
X65149958Y42982746D01*
X66419958Y45776747D01*
X66531280Y46251598D01*
X66452411Y46732904D01*
X66195357Y47147392D01*
X65799254Y47431958D01*
X65324403Y47543280D01*
X64843096Y47464411D01*
X64428609Y47207358D01*
X64144042Y46811254D01*
X63207108Y44750000D01*
X44708000Y44750000D01*
X44229646Y44654849D01*
X43824117Y44383883D01*
X43553151Y43978354D01*
X43458000Y43500000D01*
X43553151Y43021646D01*
X43824117Y42616117D01*
X43892297Y42570561D01*
X43689714Y42486855D01*
X43182924Y41980949D01*
X42908313Y41319613D01*
X42907688Y40603529D01*
X43181145Y39941714D01*
X43687051Y39434924D01*
X44348387Y39160313D01*
X45064471Y39159688D01*
X45726286Y39433145D01*
X45977995Y39684415D01*
X46227051Y39434924D01*
X46888387Y39160313D01*
X47604471Y39159688D01*
X48266286Y39433145D01*
X48517995Y39684415D01*
X48767051Y39434924D01*
X49428387Y39160313D01*
X50144471Y39159688D01*
X50806286Y39433145D01*
X51057995Y39684415D01*
X51307051Y39434924D01*
X51968387Y39160313D01*
X52684471Y39159688D01*
X53346286Y39433145D01*
X53597995Y39684415D01*
X53847051Y39434924D01*
X54508387Y39160313D01*
X55224471Y39159688D01*
X55886286Y39433145D01*
X56137995Y39684415D01*
X56387051Y39434924D01*
X57048387Y39160313D01*
X57764471Y39159688D01*
X58426286Y39433145D01*
X58677995Y39684415D01*
X58927051Y39434924D01*
X59588387Y39160313D01*
X60304471Y39159688D01*
X60966286Y39433145D01*
X61217995Y39684415D01*
X61467051Y39434924D01*
X62128387Y39160313D01*
X62844471Y39159688D01*
X63082114Y39257880D01*
X59318120Y35493886D01*
X59318117Y35493884D01*
X57286117Y33461883D01*
X57134000Y33234224D01*
X57134000Y33594000D01*
X57038849Y34072354D01*
X56963281Y34185449D01*
X56767883Y34477884D01*
X54481883Y36763883D01*
X54076354Y37034849D01*
X53598000Y37130000D01*
X48264000Y37130000D01*
X47785646Y37034849D01*
X47380117Y36763883D01*
X47109151Y36358354D01*
X47014000Y35880000D01*
X47109151Y35401646D01*
X47380117Y34996117D01*
X47785646Y34725151D01*
X48264000Y34630000D01*
X53080234Y34630000D01*
X54634000Y33076233D01*
X54634000Y32915652D01*
X54606067Y32910396D01*
X54350802Y32746138D01*
X54179554Y32495508D01*
X54140773Y32304000D01*
X52846370Y32304000D01*
X52693508Y32408446D01*
X52396000Y32468693D01*
X50896000Y32468693D01*
X50618067Y32416396D01*
X50362802Y32252138D01*
X50296740Y32155452D01*
X50244138Y32237198D01*
X49993508Y32408446D01*
X49696000Y32468693D01*
X48196000Y32468693D01*
X47918067Y32416396D01*
X47662802Y32252138D01*
X47491554Y32001508D01*
X47431307Y31704000D01*
X47431307Y31201014D01*
X46994000Y31287999D01*
X46515646Y31192849D01*
X46110116Y30921883D01*
X42910000Y27721766D01*
X42910000Y34356000D01*
X42814849Y34834354D01*
X42814849Y34834355D01*
X42543883Y35239884D01*
X42035883Y35747883D01*
X41630354Y36018849D01*
X41152000Y36114000D01*
X32525767Y36114000D01*
X32448004Y36191762D01*
X32448004Y40603529D01*
X32747688Y40603529D01*
X33021145Y39941714D01*
X33527051Y39434924D01*
X34188387Y39160313D01*
X34904471Y39159688D01*
X35566286Y39433145D01*
X35817995Y39684415D01*
X36067051Y39434924D01*
X36728387Y39160313D01*
X37444471Y39159688D01*
X38106286Y39433145D01*
X38357995Y39684415D01*
X38607051Y39434924D01*
X39268387Y39160313D01*
X39984471Y39159688D01*
X40646286Y39433145D01*
X41153076Y39939051D01*
X41427687Y40600387D01*
X41428312Y41316471D01*
X41154855Y41978286D01*
X40648949Y42485076D01*
X39987613Y42759687D01*
X39271529Y42760312D01*
X38609714Y42486855D01*
X38358005Y42235585D01*
X38108949Y42485076D01*
X37447613Y42759687D01*
X36731529Y42760312D01*
X36069714Y42486855D01*
X35818005Y42235585D01*
X35568949Y42485076D01*
X34907613Y42759687D01*
X34191529Y42760312D01*
X33529714Y42486855D01*
X33022924Y41980949D01*
X32748313Y41319613D01*
X32747688Y40603529D01*
X32448004Y40603529D01*
X32448004Y48881996D01*
X32352853Y49360350D01*
X32272338Y49480849D01*
X32146008Y49669916D01*
X32146008Y55466387D01*
X32146849Y55467646D01*
X32221616Y55843529D01*
X32747688Y55843529D01*
X33021145Y55181714D01*
X33527051Y54674924D01*
X34188387Y54400313D01*
X34904471Y54399688D01*
X35566286Y54673145D01*
X36073076Y55179051D01*
X36347687Y55840387D01*
X36348312Y56556471D01*
X36074855Y57218286D01*
X35568949Y57725076D01*
X34907613Y57999687D01*
X34191529Y58000312D01*
X33529714Y57726855D01*
X33022924Y57220949D01*
X32748313Y56559613D01*
X32747688Y55843529D01*
X32221616Y55843529D01*
X32241999Y55946000D01*
X32146849Y56424354D01*
X31875883Y56829883D01*
X31470354Y57100849D01*
X30992000Y57195999D01*
X30513646Y57100849D01*
X30464000Y57067677D01*
X30464000Y62286233D01*
X30605883Y62428116D01*
X30876849Y62833645D01*
X30971999Y63312000D01*
X30964492Y63349741D01*
X31124116Y63190117D01*
X31529645Y62919151D01*
X32008000Y62824001D01*
X32486354Y62919151D01*
X32891883Y63190117D01*
X33162849Y63595646D01*
X33257999Y64074000D01*
X33162849Y64552355D01*
X32891883Y64957884D01*
X32212834Y65636933D01*
X32232693Y65735000D01*
X32232693Y66985000D01*
X32180396Y67262933D01*
X32016138Y67518198D01*
X31968000Y67551089D01*
X31968000Y67616152D01*
X32101198Y67701862D01*
X32272446Y67952492D01*
X32332693Y68250000D01*
X32332693Y69550000D01*
X32280396Y69827933D01*
X32116138Y70083198D01*
X32068000Y70116089D01*
X32068000Y70276714D01*
X32092446Y70312492D01*
X32152693Y70610000D01*
X32152693Y72110000D01*
X32100396Y72387933D01*
X31936138Y72643198D01*
X31839452Y72709260D01*
X31921198Y72761862D01*
X32092446Y73012492D01*
X32152693Y73310000D01*
X32152693Y74810000D01*
X32100396Y75087933D01*
X31988000Y75262602D01*
X31988000Y78806000D01*
X31892849Y79284354D01*
X31621883Y79689883D01*
X30605883Y80705883D01*
X30200354Y80976849D01*
X29722000Y81072000D01*
X25912000Y81072000D01*
X25433646Y80976849D01*
X25028117Y80705884D01*
X24266117Y79943883D01*
X23995151Y79538354D01*
X23900001Y79060000D01*
X23907508Y79022258D01*
X23747883Y79181883D01*
X23342354Y79452849D01*
X22864000Y79548000D01*
X16768000Y79548000D01*
X16494000Y79493498D01*
X16494000Y84101042D01*
X16724492Y83943554D01*
X17022000Y83883307D01*
X19562000Y83883307D01*
X19839933Y83935604D01*
X20095198Y84099862D01*
X20266446Y84350492D01*
X20326693Y84648000D01*
X20326693Y85517960D01*
X21351650Y85517960D01*
X21658529Y84775257D01*
X22226268Y84206526D01*
X22968434Y83898352D01*
X23772040Y83897650D01*
X24514743Y84204529D01*
X25083474Y84772268D01*
X25391648Y85514434D01*
X25392350Y86318040D01*
X25085471Y87060743D01*
X24958436Y87188000D01*
X34291307Y87188000D01*
X34291307Y84648000D01*
X34343604Y84370067D01*
X34507862Y84114802D01*
X34758492Y83943554D01*
X35056000Y83883307D01*
X37596000Y83883307D01*
X37873933Y83935604D01*
X38129198Y84099862D01*
X38300446Y84350492D01*
X38360693Y84648000D01*
X38360693Y85517960D01*
X39385650Y85517960D01*
X39692529Y84775257D01*
X40260268Y84206526D01*
X41002434Y83898352D01*
X41806040Y83897650D01*
X42548743Y84204529D01*
X43117474Y84772268D01*
X43425648Y85514434D01*
X43426350Y86318040D01*
X43119471Y87060743D01*
X42551732Y87629474D01*
X41809566Y87937648D01*
X41005960Y87938350D01*
X40263257Y87631471D01*
X39694526Y87063732D01*
X39386352Y86321566D01*
X39385650Y85517960D01*
X38360693Y85517960D01*
X38360693Y87188000D01*
X38308396Y87465933D01*
X38144138Y87721198D01*
X37893508Y87892446D01*
X37596000Y87952693D01*
X35056000Y87952693D01*
X34778067Y87900396D01*
X34522802Y87736138D01*
X34351554Y87485508D01*
X34291307Y87188000D01*
X24958436Y87188000D01*
X24517732Y87629474D01*
X23775566Y87937648D01*
X22971960Y87938350D01*
X22229257Y87631471D01*
X21660526Y87063732D01*
X21352352Y86321566D01*
X21351650Y85517960D01*
X20326693Y85517960D01*
X20326693Y87188000D01*
X20274396Y87465933D01*
X20110138Y87721198D01*
X19859508Y87892446D01*
X19562000Y87952693D01*
X17022000Y87952693D01*
X16744067Y87900396D01*
X16494000Y87739483D01*
X16494000Y90988234D01*
X17773766Y92268000D01*
X41680001Y92268000D01*
X41775151Y91789646D01*
X42046117Y91384117D01*
X42451646Y91113151D01*
X42930000Y91018001D01*
X43090871Y91050000D01*
X45245307Y91050000D01*
X45245307Y90800000D01*
X45297604Y90522067D01*
X45461862Y90266802D01*
X45712492Y90095554D01*
X46010000Y90035307D01*
X50010000Y90035307D01*
X50287933Y90087604D01*
X50543198Y90251862D01*
X50714446Y90502492D01*
X50774693Y90800000D01*
X50774693Y93800000D01*
X50722396Y94077933D01*
X50558138Y94333198D01*
X50307508Y94504446D01*
X50010000Y94564693D01*
X46010000Y94564693D01*
X45732067Y94512396D01*
X45476802Y94348138D01*
X45305554Y94097508D01*
X45245307Y93800000D01*
X45245307Y93550000D01*
X42962000Y93550000D01*
X42483646Y93454849D01*
X42078117Y93183884D01*
X42046117Y93151883D01*
X41775151Y92746354D01*
X41680001Y92268000D01*
X17773766Y92268000D01*
X23615766Y98110000D01*
X41172001Y98110000D01*
X41267151Y97631646D01*
X41538117Y97226117D01*
X41672117Y97092116D01*
X42077646Y96821151D01*
X42556000Y96726000D01*
X45245307Y96726000D01*
X45245307Y96476000D01*
X45297604Y96198067D01*
X45461862Y95942802D01*
X45712492Y95771554D01*
X46010000Y95711307D01*
X50010000Y95711307D01*
X50287933Y95763604D01*
X50543198Y95927862D01*
X50714446Y96178492D01*
X50774693Y96476000D01*
X50774693Y96586000D01*
X70704606Y96586000D01*
X70891207Y95647892D01*
X71422603Y94852603D01*
X72217892Y94321207D01*
X73156000Y94134606D01*
X74094108Y94321207D01*
X74889397Y94852603D01*
X75420793Y95647892D01*
X75607394Y96586000D01*
X75420793Y97524108D01*
X74889397Y98319397D01*
X74094108Y98850793D01*
X73156000Y99037394D01*
X72217892Y98850793D01*
X71422603Y98319397D01*
X70891207Y97524108D01*
X70704606Y96586000D01*
X50774693Y96586000D01*
X50774693Y99476000D01*
X50722396Y99753933D01*
X50558138Y100009198D01*
X50307508Y100180446D01*
X50010000Y100240693D01*
X46010000Y100240693D01*
X45732067Y100188396D01*
X45476802Y100024138D01*
X45305554Y99773508D01*
X45245307Y99476000D01*
X45245307Y99226000D01*
X42958496Y99226000D01*
X42900354Y99264849D01*
X42422000Y99359999D01*
X41943646Y99264849D01*
X41538117Y98993883D01*
X41267151Y98588354D01*
X41172001Y98110000D01*
X23615766Y98110000D01*
X28949766Y103444000D01*
X41426001Y103444000D01*
X41521151Y102965646D01*
X41792117Y102560117D01*
X42197646Y102289151D01*
X42676000Y102194001D01*
X42836871Y102226000D01*
X45245307Y102226000D01*
X45245307Y101976000D01*
X45297604Y101698067D01*
X45461862Y101442802D01*
X45712492Y101271554D01*
X46010000Y101211307D01*
X50010000Y101211307D01*
X50287933Y101263604D01*
X50543198Y101427862D01*
X50714446Y101678492D01*
X50774693Y101976000D01*
X50774693Y101982411D01*
X60745610Y101982411D01*
X61087431Y101155142D01*
X61719813Y100521655D01*
X62546484Y100178392D01*
X63441589Y100177610D01*
X64268858Y100519431D01*
X64902345Y101151813D01*
X65245608Y101978484D01*
X65245611Y101982411D01*
X65825610Y101982411D01*
X66167431Y101155142D01*
X66799813Y100521655D01*
X67626484Y100178392D01*
X68521589Y100177610D01*
X69348858Y100519431D01*
X69982345Y101151813D01*
X70325608Y101978484D01*
X70326390Y102873589D01*
X69984569Y103700858D01*
X69352187Y104334345D01*
X68525516Y104677608D01*
X67630411Y104678390D01*
X66803142Y104336569D01*
X66169655Y103704187D01*
X65826392Y102877516D01*
X65825610Y101982411D01*
X65245611Y101982411D01*
X65246390Y102873589D01*
X64904569Y103700858D01*
X64272187Y104334345D01*
X63445516Y104677608D01*
X62550411Y104678390D01*
X61723142Y104336569D01*
X61089655Y103704187D01*
X60746392Y102877516D01*
X60745610Y101982411D01*
X50774693Y101982411D01*
X50774693Y104976000D01*
X50722396Y105253933D01*
X50558138Y105509198D01*
X50307508Y105680446D01*
X50010000Y105740693D01*
X46010000Y105740693D01*
X45732067Y105688396D01*
X45476802Y105524138D01*
X45305554Y105273508D01*
X45245307Y104976000D01*
X45245307Y104726000D01*
X42708000Y104726000D01*
X42229646Y104630849D01*
X41824117Y104359884D01*
X41792117Y104327883D01*
X41521151Y103922354D01*
X41426001Y103444000D01*
X28949766Y103444000D01*
X30239767Y104734000D01*
X37342000Y104734000D01*
X37820354Y104829151D01*
X38225883Y105100117D01*
X39495883Y106370116D01*
X39766849Y106775646D01*
X39785196Y106867884D01*
X39862000Y107254000D01*
X39862000Y107498234D01*
X40511883Y108148117D01*
X40782849Y108553646D01*
X40809890Y108689589D01*
X40878000Y109032000D01*
X40878000Y111046205D01*
X45862540Y111046205D01*
X46265888Y110070028D01*
X47012099Y109322513D01*
X47987571Y108917461D01*
X49043795Y108916540D01*
X50019972Y109319888D01*
X50767487Y110066099D01*
X51058215Y110766249D01*
X51345888Y110070028D01*
X52092099Y109322513D01*
X53067571Y108917461D01*
X54123795Y108916540D01*
X55099972Y109319888D01*
X55847487Y110066099D01*
X56008307Y110453396D01*
X56008307Y109667000D01*
X56060604Y109389067D01*
X56224862Y109133802D01*
X56475492Y108962554D01*
X56773000Y108902307D01*
X60583000Y108902307D01*
X60860933Y108954604D01*
X61116198Y109118862D01*
X61287446Y109369492D01*
X61347693Y109667000D01*
X61347693Y113477000D01*
X61295396Y113754933D01*
X61131138Y114010198D01*
X60880508Y114181446D01*
X60583000Y114241693D01*
X56773000Y114241693D01*
X56495067Y114189396D01*
X56239802Y114025138D01*
X56068554Y113774508D01*
X56008307Y113477000D01*
X56008307Y112691111D01*
X55850112Y113073972D01*
X55103901Y113821487D01*
X54128429Y114226539D01*
X53072205Y114227460D01*
X52096028Y113824112D01*
X51348513Y113077901D01*
X51057785Y112377751D01*
X50770112Y113073972D01*
X50023901Y113821487D01*
X49048429Y114226539D01*
X47992205Y114227460D01*
X47016028Y113824112D01*
X46268513Y113077901D01*
X45863461Y112102429D01*
X45862540Y111046205D01*
X40878000Y111046205D01*
X40878000Y114102234D01*
X41923767Y115148000D01*
X45470000Y115148000D01*
X45948354Y115243151D01*
X46353883Y115514117D01*
X46624849Y115919646D01*
X46720000Y116398000D01*
X46624849Y116876354D01*
X46353883Y117281883D01*
X45948354Y117552849D01*
X45470000Y117648000D01*
X41406000Y117648000D01*
X40927646Y117552849D01*
X40522117Y117281884D01*
X38744117Y115503883D01*
X38473151Y115098354D01*
X38378000Y114620000D01*
X38378000Y109549766D01*
X37728117Y108899883D01*
X37457151Y108494354D01*
X37362000Y108016000D01*
X37362000Y107771767D01*
X36824234Y107234000D01*
X29722000Y107234000D01*
X29243646Y107138849D01*
X28838117Y106867884D01*
X14360117Y92389883D01*
X14089151Y91984354D01*
X13994000Y91506000D01*
X13994000Y69170455D01*
X13912286Y69154201D01*
X13644637Y68975363D01*
X13465799Y68707714D01*
X13403000Y68392000D01*
X13403000Y58486000D01*
X13465799Y58170286D01*
X13644637Y57902637D01*
X13912286Y57723799D01*
X13994000Y57707545D01*
X13994000Y44262000D01*
X14089151Y43783646D01*
X14360117Y43378117D01*
X19582000Y38156233D01*
X19582000Y27507767D01*
X18446927Y26372693D01*
X17114000Y26372693D01*
X16836067Y26320396D01*
X16580802Y26156138D01*
X16514740Y26059452D01*
X16462138Y26141198D01*
X16211508Y26312446D01*
X15914000Y26372693D01*
X14414000Y26372693D01*
X14136067Y26320396D01*
X13961398Y26208000D01*
X12929695Y26208000D01*
X12929793Y26320468D01*
X12664011Y26963712D01*
X12172301Y27456281D01*
X11529522Y27723186D01*
X10833532Y27723793D01*
X10190288Y27458011D01*
X9697719Y26966301D01*
X9430814Y26323522D01*
X9430207Y25627532D01*
X9695989Y24984288D01*
X10187699Y24491719D01*
X10830478Y24224814D01*
X11161709Y24224525D01*
X11312117Y24074117D01*
X11717646Y23803151D01*
X12196000Y23708000D01*
X13963630Y23708000D01*
X14116492Y23603554D01*
X14414000Y23543307D01*
X15914000Y23543307D01*
X16191933Y23595604D01*
X16447198Y23759862D01*
X16513260Y23856548D01*
X16565862Y23774802D01*
X16816492Y23603554D01*
X17114000Y23543307D01*
X18614000Y23543307D01*
X18891933Y23595604D01*
X19066602Y23708000D01*
X20898546Y23708000D01*
X20939642Y23501396D01*
X20947151Y23463646D01*
X21218117Y23058117D01*
X25282117Y18994116D01*
X25687646Y18723151D01*
X26166000Y18628001D01*
X26644354Y18723151D01*
X27049884Y18994116D01*
X27320849Y19399646D01*
X27415999Y19878000D01*
X27320849Y20356354D01*
X27049884Y20761883D01*
X23352000Y24459766D01*
X23352000Y24958000D01*
X23256849Y25436354D01*
X22985883Y25841883D01*
X22580354Y26112849D01*
X22102000Y26208000D01*
X21783960Y26208000D01*
X21986849Y26511646D01*
X22015563Y26656000D01*
X22082000Y26990000D01*
X22082000Y38674000D01*
X21986849Y39152354D01*
X21906134Y39273153D01*
X21715883Y39557884D01*
X16494000Y44779766D01*
X16494000Y76256234D01*
X17285767Y77048000D01*
X19626041Y77048000D01*
X19423151Y76744354D01*
X19328000Y76266000D01*
X19328000Y75006370D01*
X19223554Y74853508D01*
X19163307Y74556000D01*
X19163307Y73056000D01*
X19215604Y72778067D01*
X19379862Y72522802D01*
X19476548Y72456740D01*
X19394802Y72404138D01*
X19223554Y72153508D01*
X19163307Y71856000D01*
X19163307Y70356000D01*
X19215604Y70078067D01*
X19328000Y69903398D01*
X19328000Y69853370D01*
X19274802Y69819138D01*
X19103554Y69568508D01*
X19043307Y69271000D01*
X19043307Y68021000D01*
X19095604Y67743067D01*
X19259862Y67487802D01*
X19305457Y67456648D01*
X19203554Y67307508D01*
X19143307Y67010000D01*
X19143307Y65710000D01*
X19195604Y65432067D01*
X19359862Y65176802D01*
X19435645Y65125022D01*
X19497113Y64816000D01*
X19503151Y64785646D01*
X19774117Y64380117D01*
X21472117Y62682116D01*
X21877646Y62411151D01*
X22356000Y62316000D01*
X23212232Y62316000D01*
X23646000Y61882231D01*
X23646000Y52191699D01*
X23429986Y52514988D01*
X22906496Y52864772D01*
X22288998Y52987600D01*
X21915002Y52987600D01*
X21297504Y52864772D01*
X20774014Y52514988D01*
X20424230Y51991498D01*
X20301402Y51374000D01*
X20424230Y50756502D01*
X20774014Y50233012D01*
X20967095Y50104000D01*
X20774014Y49974988D01*
X20424230Y49451498D01*
X20301402Y48834000D01*
X20424230Y48216502D01*
X20701554Y47801457D01*
X20552802Y47705738D01*
X20381554Y47455108D01*
X20321307Y47157600D01*
X20321307Y45430400D01*
X20373604Y45152467D01*
X20537862Y44897202D01*
X20788492Y44725954D01*
X21086000Y44665707D01*
X23118000Y44665707D01*
X23395933Y44718004D01*
X23646000Y44878917D01*
X23646000Y43500000D01*
X23687727Y43290226D01*
X23741151Y43021646D01*
X24012117Y42616117D01*
X24266116Y42362117D01*
X24671646Y42091151D01*
X25150000Y41996001D01*
X25628354Y42091151D01*
X26033883Y42362117D01*
X26304849Y42767646D01*
X26399999Y43246000D01*
X26304849Y43724354D01*
X26146000Y43962089D01*
X26146000Y44082503D01*
X26420000Y44028001D01*
X26898354Y44123151D01*
X27303883Y44394117D01*
X27574849Y44799646D01*
X27669999Y45278000D01*
X27646002Y45398642D01*
X27646002Y65701998D01*
X27550851Y66180352D01*
X27430814Y66360000D01*
X27279885Y66585882D01*
X27252693Y66613074D01*
X27252693Y67010000D01*
X27200396Y67287933D01*
X27036138Y67543198D01*
X26990543Y67574352D01*
X27092446Y67723492D01*
X27152693Y68021000D01*
X27152693Y69271000D01*
X27100396Y69548933D01*
X26936138Y69804198D01*
X26908000Y69823424D01*
X26908000Y69905630D01*
X27012446Y70058492D01*
X27072693Y70356000D01*
X27072693Y71856000D01*
X27020396Y72133933D01*
X26856138Y72389198D01*
X26759452Y72455260D01*
X26841198Y72507862D01*
X27012446Y72758492D01*
X27072693Y73056000D01*
X27072693Y74556000D01*
X27020396Y74833933D01*
X26908000Y75008602D01*
X26908000Y75504000D01*
X26812849Y75982354D01*
X26623323Y76266000D01*
X26541884Y76387883D01*
X25112258Y77817508D01*
X25150000Y77810001D01*
X25628354Y77905151D01*
X26033883Y78176117D01*
X26429767Y78572000D01*
X29204234Y78572000D01*
X29488000Y78288234D01*
X29488000Y75260370D01*
X29383554Y75107508D01*
X29323307Y74810000D01*
X29323307Y73310000D01*
X29375604Y73032067D01*
X29539862Y72776802D01*
X29636548Y72710740D01*
X29554802Y72658138D01*
X29383554Y72407508D01*
X29323307Y72110000D01*
X29323307Y70610000D01*
X29375604Y70332067D01*
X29530337Y70091604D01*
X29363554Y69847508D01*
X29303307Y69550000D01*
X29303307Y68250000D01*
X29355604Y67972067D01*
X29468000Y67797398D01*
X29468000Y67554500D01*
X29434802Y67533138D01*
X29263554Y67282508D01*
X29203307Y66985000D01*
X29203307Y65735000D01*
X29255604Y65457067D01*
X29419862Y65201802D01*
X29512910Y65138225D01*
X29555611Y64923554D01*
X29563151Y64885646D01*
X29788204Y64548830D01*
X29722000Y64561999D01*
X29243645Y64466849D01*
X28838116Y64195883D01*
X28330117Y63687883D01*
X28059151Y63282354D01*
X27964000Y62804000D01*
X27964000Y54858006D01*
X28055041Y54400313D01*
X28059151Y54379652D01*
X28146006Y54249664D01*
X28146006Y47611996D01*
X28223900Y47220400D01*
X28241157Y47133642D01*
X28448002Y46824077D01*
X28448002Y20117769D01*
X26044117Y17713883D01*
X25773151Y17308354D01*
X25678001Y16830000D01*
X25773151Y16351646D01*
X26044117Y15946117D01*
X26449646Y15675151D01*
X26928000Y15580001D01*
X27406354Y15675151D01*
X27811883Y15946117D01*
X30581885Y18716118D01*
X30852851Y19121648D01*
X30893267Y19324834D01*
X30948002Y19600002D01*
X30948002Y29265307D01*
X32125000Y29265307D01*
X32402933Y29317604D01*
X32658198Y29481862D01*
X32829446Y29732492D01*
X32889693Y30030000D01*
X32889693Y31530000D01*
X32837396Y31807933D01*
X32750000Y31943751D01*
X32750000Y33614000D01*
X34074281Y33614000D01*
X33975554Y33469508D01*
X33915307Y33172000D01*
X33915307Y31172000D01*
X33967604Y30894067D01*
X34131862Y30638802D01*
X34382492Y30467554D01*
X34680000Y30407307D01*
X38480000Y30407307D01*
X38757933Y30459604D01*
X39013198Y30623862D01*
X39184446Y30874492D01*
X39244693Y31172000D01*
X39244693Y33172000D01*
X39192396Y33449933D01*
X39086822Y33614000D01*
X40410000Y33614000D01*
X40410000Y27122000D01*
X40347652Y27122000D01*
X40342396Y27149933D01*
X40178138Y27405198D01*
X39927508Y27576446D01*
X39630000Y27636693D01*
X38130000Y27636693D01*
X37852067Y27584396D01*
X37730428Y27506124D01*
X37627508Y27576446D01*
X37330000Y27636693D01*
X35830000Y27636693D01*
X35552067Y27584396D01*
X35296802Y27420138D01*
X35125554Y27169508D01*
X35065307Y26872000D01*
X35065307Y24872000D01*
X35117604Y24594067D01*
X35281862Y24338802D01*
X35532492Y24167554D01*
X35564000Y24161173D01*
X35564000Y23358500D01*
X35530802Y23337138D01*
X35359554Y23086508D01*
X35299307Y22789000D01*
X35299307Y21539000D01*
X35351604Y21261067D01*
X35515862Y21005802D01*
X35564000Y20972911D01*
X35564000Y19898000D01*
X35627664Y19577942D01*
X35659151Y19419646D01*
X35930117Y19014117D01*
X39998117Y14946116D01*
X40375713Y14693815D01*
X40330000Y14464000D01*
X40330000Y13985500D01*
X40296802Y13964138D01*
X40125554Y13713508D01*
X40065307Y13416000D01*
X40065307Y12116000D01*
X40117604Y11838067D01*
X40281862Y11582802D01*
X40330000Y11549911D01*
X40330000Y11068000D01*
X40396437Y10734000D01*
X40425151Y10589646D01*
X40696117Y10184117D01*
X41030116Y9850117D01*
X41078183Y9818000D01*
X41435646Y9579151D01*
X41914000Y9484000D01*
X43229911Y9484000D01*
X43467646Y9325151D01*
X43946000Y9230001D01*
X44424354Y9325151D01*
X44829883Y9596117D01*
X45100849Y10001646D01*
X45195999Y10480000D01*
X45100849Y10958354D01*
X44838287Y11351307D01*
X45030000Y11351307D01*
X45307933Y11403604D01*
X45482602Y11516000D01*
X47502000Y11516000D01*
X47980354Y11611151D01*
X48385883Y11882117D01*
X48656849Y12287646D01*
X48752000Y12766000D01*
X50638606Y12766000D01*
X50825207Y11827892D01*
X51356603Y11032603D01*
X52151892Y10501207D01*
X53090000Y10314606D01*
X54028108Y10501207D01*
X54823397Y11032603D01*
X55354793Y11827892D01*
X55541394Y12766000D01*
X55354793Y13704108D01*
X54823397Y14499397D01*
X54028108Y15030793D01*
X53090000Y15217394D01*
X52151892Y15030793D01*
X51356603Y14499397D01*
X50825207Y13704108D01*
X50638606Y12766000D01*
X48752000Y12766000D01*
X48656849Y13244354D01*
X48385883Y13649883D01*
X47980354Y13920849D01*
X47502000Y14016000D01*
X45530000Y14016000D01*
X45530000Y15267939D01*
X45552693Y15380000D01*
X45552693Y15401135D01*
X45637999Y15830000D01*
X45552693Y16258865D01*
X45552693Y16280000D01*
X45500396Y16557933D01*
X45336138Y16813198D01*
X45085508Y16984446D01*
X44788000Y17044693D01*
X44565496Y17044693D01*
X44522467Y17053252D01*
X44542446Y17082492D01*
X44602693Y17380000D01*
X44602693Y17401135D01*
X44688000Y17830000D01*
X44688000Y20070534D01*
X44895198Y20203862D01*
X44961260Y20300548D01*
X45013862Y20218802D01*
X45264492Y20047554D01*
X45490000Y20001887D01*
X45490000Y19370000D01*
X45566692Y18984446D01*
X45585151Y18891646D01*
X45856117Y18486117D01*
X46364116Y17978117D01*
X46769645Y17707151D01*
X46849010Y17691365D01*
X47248000Y17612000D01*
X61980000Y17612000D01*
X62458354Y17707151D01*
X62493038Y17730326D01*
X61990088Y16977608D01*
X61990083Y16977603D01*
X61866898Y16680207D01*
X61338665Y14024602D01*
X61217799Y13843714D01*
X61155000Y13528000D01*
X61155000Y4193000D01*
X22927000Y4193000D01*
X22927000Y6777960D01*
X27955650Y6777960D01*
X28262529Y6035257D01*
X28830268Y5466526D01*
X29572434Y5158352D01*
X30376040Y5157650D01*
X31118743Y5464529D01*
X31687474Y6032268D01*
X31995648Y6774434D01*
X31996350Y7578040D01*
X31689471Y8320743D01*
X31562436Y8448000D01*
X33021307Y8448000D01*
X33021307Y5908000D01*
X33073604Y5630067D01*
X33237862Y5374802D01*
X33488492Y5203554D01*
X33786000Y5143307D01*
X36326000Y5143307D01*
X36603933Y5195604D01*
X36859198Y5359862D01*
X37030446Y5610492D01*
X37090693Y5908000D01*
X37090693Y7031960D01*
X44211650Y7031960D01*
X44518529Y6289257D01*
X45086268Y5720526D01*
X45828434Y5412352D01*
X46632040Y5411650D01*
X47374743Y5718529D01*
X47943474Y6286268D01*
X48251648Y7028434D01*
X48252350Y7832040D01*
X47945471Y8574743D01*
X47818436Y8702000D01*
X49277307Y8702000D01*
X49277307Y6162000D01*
X49329604Y5884067D01*
X49493862Y5628802D01*
X49744492Y5457554D01*
X50042000Y5397307D01*
X52582000Y5397307D01*
X52859933Y5449604D01*
X53115198Y5613862D01*
X53286446Y5864492D01*
X53346693Y6162000D01*
X53346693Y8702000D01*
X53294396Y8979933D01*
X53130138Y9235198D01*
X52879508Y9406446D01*
X52582000Y9466693D01*
X50042000Y9466693D01*
X49764067Y9414396D01*
X49508802Y9250138D01*
X49337554Y8999508D01*
X49277307Y8702000D01*
X47818436Y8702000D01*
X47377732Y9143474D01*
X46635566Y9451648D01*
X45831960Y9452350D01*
X45089257Y9145471D01*
X44520526Y8577732D01*
X44212352Y7835566D01*
X44211650Y7031960D01*
X37090693Y7031960D01*
X37090693Y8448000D01*
X37038396Y8725933D01*
X36874138Y8981198D01*
X36623508Y9152446D01*
X36326000Y9212693D01*
X33786000Y9212693D01*
X33508067Y9160396D01*
X33252802Y8996138D01*
X33081554Y8745508D01*
X33021307Y8448000D01*
X31562436Y8448000D01*
X31121732Y8889474D01*
X30379566Y9197648D01*
X29575960Y9198350D01*
X28833257Y8891471D01*
X28264526Y8323732D01*
X27956352Y7581566D01*
X27955650Y6777960D01*
X22927000Y6777960D01*
X22927000Y13020000D01*
X28183197Y13020000D01*
X28397004Y11945118D01*
X29005876Y11033876D01*
X29917118Y10425004D01*
X30992000Y10211197D01*
X32066882Y10425004D01*
X32978124Y11033876D01*
X33586996Y11945118D01*
X33800803Y13020000D01*
X33586996Y14094882D01*
X32978124Y15006124D01*
X32066882Y15614996D01*
X30992000Y15828803D01*
X29917118Y15614996D01*
X29005876Y15006124D01*
X28397004Y14094882D01*
X28183197Y13020000D01*
X22927000Y13020000D01*
X22927000Y13274000D01*
X22864201Y13589714D01*
X22834280Y13634494D01*
X22316461Y16677012D01*
X22201581Y16977714D01*
X20301815Y19999301D01*
X20080606Y20233150D01*
X17169139Y22297724D01*
X16875278Y22429120D01*
X13395355Y23222367D01*
X13302806Y23224938D01*
X13212000Y23243000D01*
X3877000Y23243000D01*
X3877000Y28514000D01*
X5056426Y28514000D01*
X5190855Y27838181D01*
X5573675Y27265249D01*
X6146607Y26882429D01*
X6822426Y26748000D01*
X7409574Y26748000D01*
X8085393Y26882429D01*
X8658325Y27265249D01*
X9041145Y27838181D01*
X9175574Y28514000D01*
X9041145Y29189819D01*
X8658325Y29762751D01*
X8085393Y30145571D01*
X7409574Y30280000D01*
X6822426Y30280000D01*
X6146607Y30145571D01*
X5573675Y29762751D01*
X5190855Y29189819D01*
X5056426Y28514000D01*
X3877000Y28514000D01*
X3877000Y30434000D01*
X16115307Y30434000D01*
X16115307Y29134000D01*
X16167604Y28856067D01*
X16331862Y28600802D01*
X16582492Y28429554D01*
X16880000Y28369307D01*
X18180000Y28369307D01*
X18457933Y28421604D01*
X18713198Y28585862D01*
X18884446Y28836492D01*
X18944693Y29134000D01*
X18944693Y30434000D01*
X18892396Y30711933D01*
X18728138Y30967198D01*
X18477508Y31138446D01*
X18180000Y31198693D01*
X16880000Y31198693D01*
X16602067Y31146396D01*
X16346802Y30982138D01*
X16175554Y30731508D01*
X16115307Y30434000D01*
X3877000Y30434000D01*
X3877000Y33594000D01*
X5056426Y33594000D01*
X5190855Y32918181D01*
X5573675Y32345249D01*
X6146607Y31962429D01*
X6822426Y31828000D01*
X7409574Y31828000D01*
X8085393Y31962429D01*
X8658325Y32345249D01*
X8681065Y32379283D01*
X8686760Y32370760D01*
X9714132Y31684292D01*
X10926000Y31443236D01*
X12137868Y31684292D01*
X13165240Y32370760D01*
X13851708Y33398132D01*
X14092764Y34610000D01*
X13851708Y35821868D01*
X13165240Y36849240D01*
X12137868Y37535708D01*
X10926000Y37776764D01*
X9714132Y37535708D01*
X8686760Y36849240D01*
X8000292Y35821868D01*
X7889434Y35264550D01*
X7409574Y35360000D01*
X6822426Y35360000D01*
X6146607Y35225571D01*
X5573675Y34842751D01*
X5190855Y34269819D01*
X5056426Y33594000D01*
X3877000Y33594000D01*
X3877000Y95381307D01*
X5830000Y95381307D01*
X6107933Y95433604D01*
X6363198Y95597862D01*
X6396089Y95646000D01*
X6542234Y95646000D01*
X6628000Y95560233D01*
X6628000Y77536000D01*
X6723151Y77057646D01*
X6905998Y76783996D01*
X6905998Y40428002D01*
X6998294Y39964001D01*
X7001149Y39949648D01*
X7272115Y39544119D01*
X8010116Y38806117D01*
X8415645Y38535151D01*
X8894000Y38440001D01*
X9372354Y38535151D01*
X9777883Y38806117D01*
X10048849Y39211646D01*
X10143999Y39690000D01*
X10072998Y40046947D01*
X10134354Y40059151D01*
X10460293Y40276937D01*
X10642354Y40313151D01*
X11047883Y40584117D01*
X11318849Y40989646D01*
X11414000Y41468000D01*
X11318849Y41946354D01*
X11047883Y42351883D01*
X10906000Y42446686D01*
X10906000Y50432502D01*
X11180000Y50378000D01*
X11658354Y50473151D01*
X12063883Y50744117D01*
X12334849Y51149646D01*
X12430000Y51628000D01*
X12430000Y60426053D01*
X12450201Y60456286D01*
X12513000Y60772000D01*
X12450201Y61087714D01*
X12430000Y61117947D01*
X12430000Y88204000D01*
X12406002Y88324645D01*
X12406002Y94609556D01*
X12855859Y94910141D01*
X13369615Y95679032D01*
X13550022Y96586000D01*
X13369615Y97492968D01*
X12855859Y98261859D01*
X12328206Y98614425D01*
X12310851Y98701676D01*
X12210408Y98852000D01*
X12039885Y99107206D01*
X8287207Y102859883D01*
X7881678Y103130849D01*
X7403324Y103226000D01*
X6399500Y103226000D01*
X6378138Y103259198D01*
X6127508Y103430446D01*
X5830000Y103490693D01*
X3877000Y103490693D01*
X3877000Y107445000D01*
X12958000Y107445000D01*
X13273714Y107507799D01*
X13318494Y107537720D01*
X16361012Y108055539D01*
X16661714Y108170419D01*
X19683298Y110070184D01*
X19683301Y110070185D01*
X19917150Y110291394D01*
X20361459Y110917960D01*
X23129650Y110917960D01*
X23436529Y110175257D01*
X24004268Y109606526D01*
X24746434Y109298352D01*
X25550040Y109297650D01*
X26292743Y109604529D01*
X26861474Y110172268D01*
X27169648Y110914434D01*
X27169651Y110917960D01*
X28209650Y110917960D01*
X28516529Y110175257D01*
X29084268Y109606526D01*
X29826434Y109298352D01*
X30630040Y109297650D01*
X31372743Y109604529D01*
X31941474Y110172268D01*
X32249648Y110914434D01*
X32250350Y111718040D01*
X31943471Y112460743D01*
X31816436Y112588000D01*
X33275307Y112588000D01*
X33275307Y110048000D01*
X33327604Y109770067D01*
X33491862Y109514802D01*
X33742492Y109343554D01*
X34040000Y109283307D01*
X36580000Y109283307D01*
X36857933Y109335604D01*
X37113198Y109499862D01*
X37284446Y109750492D01*
X37344693Y110048000D01*
X37344693Y112588000D01*
X37292396Y112865933D01*
X37128138Y113121198D01*
X36877508Y113292446D01*
X36580000Y113352693D01*
X34040000Y113352693D01*
X33762067Y113300396D01*
X33506802Y113136138D01*
X33335554Y112885508D01*
X33275307Y112588000D01*
X31816436Y112588000D01*
X31375732Y113029474D01*
X30633566Y113337648D01*
X29829960Y113338350D01*
X29087257Y113031471D01*
X28518526Y112463732D01*
X28210352Y111721566D01*
X28209650Y110917960D01*
X27169651Y110917960D01*
X27170350Y111718040D01*
X26863471Y112460743D01*
X26295732Y113029474D01*
X25553566Y113337648D01*
X24749960Y113338350D01*
X24007257Y113031471D01*
X23438526Y112463732D01*
X23130352Y111721566D01*
X23129650Y110917960D01*
X20361459Y110917960D01*
X21981724Y113202861D01*
X22113120Y113496721D01*
X22113120Y113496722D01*
X22906367Y116976645D01*
X22908938Y117069194D01*
X22927000Y117160000D01*
X22927000Y117922000D01*
X28685938Y117922000D01*
X28861477Y117039508D01*
X29361368Y116291368D01*
X30109508Y115791477D01*
X30992000Y115615938D01*
X31874492Y115791477D01*
X32622632Y116291368D01*
X33122523Y117039508D01*
X33298062Y117922000D01*
X33247539Y118176000D01*
X50995000Y118176000D01*
X51154472Y117374278D01*
X51608611Y116694611D01*
X52288278Y116240472D01*
X53090000Y116081000D01*
X53891722Y116240472D01*
X54571389Y116694611D01*
X55025528Y117374278D01*
X55185000Y118176000D01*
X55025528Y118977722D01*
X54571389Y119657389D01*
X53891722Y120111528D01*
X53090000Y120271000D01*
X52288278Y120111528D01*
X51608611Y119657389D01*
X51154472Y118977722D01*
X50995000Y118176000D01*
X33247539Y118176000D01*
X33122523Y118804492D01*
X32622632Y119552632D01*
X31874492Y120052523D01*
X30992000Y120228062D01*
X30109508Y120052523D01*
X29361368Y119552632D01*
X28861477Y118804492D01*
X28685938Y117922000D01*
X22927000Y117922000D01*
X22927000Y126495000D01*
X61155000Y126495000D01*
X61155000Y117414000D01*
X61155000Y117414000D01*
G37*
X61155000Y117414000D02*
X61217799Y117098286D01*
X61275864Y117011386D01*
X61664812Y114268255D01*
X61771311Y113964483D01*
X61771313Y113964481D01*
X63588674Y110887836D01*
X63803315Y110647944D01*
X66659722Y108500967D01*
X66949827Y108361474D01*
X66949832Y108361474D01*
X70410414Y107471026D01*
X70514124Y107465264D01*
X70616000Y107445000D01*
X80205000Y107445000D01*
X80205000Y22989000D01*
X71124000Y22989000D01*
X71044306Y22973148D01*
X70963051Y22973148D01*
X67522288Y22288737D01*
X67548000Y22418000D01*
X67548000Y23200000D01*
X72140000Y23200000D01*
X72618354Y23295151D01*
X73023883Y23566117D01*
X75055884Y25598117D01*
X75326849Y26003646D01*
X75354210Y26141198D01*
X75422000Y26482000D01*
X75422000Y33129944D01*
X75705359Y33554021D01*
X75915406Y34610000D01*
X75705359Y35665979D01*
X75422000Y36090056D01*
X75422000Y38420000D01*
X75326849Y38898354D01*
X75055883Y39303884D01*
X74152000Y40207766D01*
X74152000Y41575960D01*
X74437650Y41575960D01*
X74744529Y40833257D01*
X75312268Y40264526D01*
X76054434Y39956352D01*
X76858040Y39955650D01*
X77600743Y40262529D01*
X78169474Y40830268D01*
X78477648Y41572434D01*
X78478350Y42376040D01*
X78171471Y43118743D01*
X77603732Y43687474D01*
X76861566Y43995648D01*
X76057960Y43996350D01*
X75315257Y43689471D01*
X74746526Y43121732D01*
X74438352Y42379566D01*
X74437650Y41575960D01*
X74152000Y41575960D01*
X74152000Y46655960D01*
X74437650Y46655960D01*
X74744529Y45913257D01*
X75312268Y45344526D01*
X76054434Y45036352D01*
X76858040Y45035650D01*
X77600743Y45342529D01*
X78169474Y45910268D01*
X78477648Y46652434D01*
X78478350Y47456040D01*
X78171471Y48198743D01*
X77603732Y48767474D01*
X76861566Y49075648D01*
X76057960Y49076350D01*
X75315257Y48769471D01*
X74746526Y48201732D01*
X74438352Y47459566D01*
X74437650Y46655960D01*
X74152000Y46655960D01*
X74152000Y53406000D01*
X74423307Y53406000D01*
X74423307Y50866000D01*
X74475604Y50588067D01*
X74639862Y50332802D01*
X74890492Y50161554D01*
X75188000Y50101307D01*
X77728000Y50101307D01*
X78005933Y50153604D01*
X78261198Y50317862D01*
X78432446Y50568492D01*
X78492693Y50866000D01*
X78492693Y53406000D01*
X78440396Y53683933D01*
X78276138Y53939198D01*
X78025508Y54110446D01*
X77728000Y54170693D01*
X75188000Y54170693D01*
X74910067Y54118396D01*
X74654802Y53954138D01*
X74483554Y53703508D01*
X74423307Y53406000D01*
X74152000Y53406000D01*
X74152000Y62296000D01*
X74056849Y62774354D01*
X73785883Y63179883D01*
X73380354Y63450849D01*
X72902000Y63546000D01*
X72464624Y63459000D01*
X72423646Y63450849D01*
X72018116Y63179883D01*
X71114234Y62276000D01*
X44962000Y62276000D01*
X44483646Y62180849D01*
X44078117Y61909884D01*
X42402000Y60233766D01*
X42402000Y65080234D01*
X44067884Y66746117D01*
X44338849Y67151646D01*
X44371651Y67316554D01*
X44434000Y67630000D01*
X44434000Y68286323D01*
X44483646Y68253151D01*
X44962000Y68158000D01*
X45440354Y68253151D01*
X45845883Y68524117D01*
X45867472Y68556428D01*
X45885604Y68460067D01*
X46049862Y68204802D01*
X46146548Y68138740D01*
X46064802Y68086138D01*
X45893554Y67835508D01*
X45833307Y67538000D01*
X45833307Y66038000D01*
X45885604Y65760067D01*
X45998000Y65585398D01*
X45998000Y64328000D01*
X46089886Y63866058D01*
X46093151Y63849646D01*
X46364117Y63444117D01*
X46618116Y63190117D01*
X47023646Y62919151D01*
X47502000Y62824001D01*
X47980354Y62919151D01*
X48385883Y63190117D01*
X48656849Y63595646D01*
X48751999Y64074000D01*
X48656849Y64552354D01*
X48498000Y64790089D01*
X48498000Y65587630D01*
X48602446Y65740492D01*
X48662693Y66038000D01*
X48662693Y67029431D01*
X56165696Y67029431D01*
X56431557Y66385999D01*
X56923410Y65893287D01*
X57566376Y65626304D01*
X58262569Y65625696D01*
X58906001Y65891557D01*
X59186057Y66171125D01*
X59463410Y65893287D01*
X60106376Y65626304D01*
X60802569Y65625696D01*
X61446001Y65891557D01*
X61726057Y66171125D01*
X62003410Y65893287D01*
X62646376Y65626304D01*
X63342569Y65625696D01*
X63986001Y65891557D01*
X64266057Y66171125D01*
X64543410Y65893287D01*
X65186376Y65626304D01*
X65882569Y65625696D01*
X66526001Y65891557D01*
X66806057Y66171125D01*
X67083410Y65893287D01*
X67726376Y65626304D01*
X68422569Y65625696D01*
X69066001Y65891557D01*
X69558713Y66383410D01*
X69825696Y67026376D01*
X69825698Y67029431D01*
X71405696Y67029431D01*
X71671557Y66385999D01*
X72163410Y65893287D01*
X72806376Y65626304D01*
X73502569Y65625696D01*
X74146001Y65891557D01*
X74638713Y66383410D01*
X74905696Y67026376D01*
X74906304Y67722569D01*
X74640443Y68366001D01*
X74148590Y68858713D01*
X73505624Y69125696D01*
X72809431Y69126304D01*
X72165999Y68860443D01*
X71673287Y68368590D01*
X71406304Y67725624D01*
X71405696Y67029431D01*
X69825698Y67029431D01*
X69826304Y67722569D01*
X69560443Y68366001D01*
X69068590Y68858713D01*
X68425624Y69125696D01*
X67729431Y69126304D01*
X67085999Y68860443D01*
X66805943Y68580875D01*
X66528590Y68858713D01*
X65885624Y69125696D01*
X65189431Y69126304D01*
X64545999Y68860443D01*
X64265943Y68580875D01*
X63988590Y68858713D01*
X63345624Y69125696D01*
X62649431Y69126304D01*
X62005999Y68860443D01*
X61725943Y68580875D01*
X61448590Y68858713D01*
X60805624Y69125696D01*
X60109431Y69126304D01*
X59465999Y68860443D01*
X59185943Y68580875D01*
X58908590Y68858713D01*
X58265624Y69125696D01*
X57569431Y69126304D01*
X56925999Y68860443D01*
X56433287Y68368590D01*
X56166304Y67725624D01*
X56165696Y67029431D01*
X48662693Y67029431D01*
X48662693Y67538000D01*
X48610396Y67815933D01*
X48446138Y68071198D01*
X48349452Y68137260D01*
X48431198Y68189862D01*
X48602446Y68440492D01*
X48662693Y68738000D01*
X48662693Y70238000D01*
X48610396Y70515933D01*
X48498000Y70690602D01*
X48498000Y70804219D01*
X48577446Y70920492D01*
X48637693Y71218000D01*
X48637693Y72718000D01*
X48585396Y72995933D01*
X48421138Y73251198D01*
X48170508Y73422446D01*
X47873000Y73482693D01*
X46623000Y73482693D01*
X46345067Y73430396D01*
X46184124Y73326833D01*
X46316446Y73520492D01*
X46376693Y73818000D01*
X46376693Y75318000D01*
X46324396Y75595933D01*
X46160138Y75851198D01*
X45909508Y76022446D01*
X45612000Y76082693D01*
X44312000Y76082693D01*
X44034067Y76030396D01*
X43778802Y75866138D01*
X43745911Y75818000D01*
X42339854Y75818000D01*
X42226508Y75895446D01*
X41929000Y75955693D01*
X40629000Y75955693D01*
X40351067Y75903396D01*
X40095802Y75739138D01*
X39924554Y75488508D01*
X39864307Y75191000D01*
X39864307Y73691000D01*
X39916604Y73413067D01*
X40080862Y73157802D01*
X40177548Y73091740D01*
X40176398Y73091000D01*
X39933500Y73091000D01*
X39912138Y73124198D01*
X39661508Y73295446D01*
X39364000Y73355693D01*
X38114000Y73355693D01*
X37836067Y73303396D01*
X37580802Y73139138D01*
X37409554Y72888508D01*
X37349307Y72591000D01*
X37349307Y72520165D01*
X37270138Y72643198D01*
X37173452Y72709260D01*
X37255198Y72761862D01*
X37426446Y73012492D01*
X37486693Y73310000D01*
X37486693Y74810000D01*
X37434396Y75087933D01*
X37322000Y75262602D01*
X37322000Y76520000D01*
X37226849Y76998354D01*
X36955883Y77403883D01*
X36550354Y77674849D01*
X36072000Y77770000D01*
X35593646Y77674849D01*
X35188117Y77403883D01*
X34917151Y76998354D01*
X34822000Y76520000D01*
X34822000Y75260370D01*
X34717554Y75107508D01*
X34657307Y74810000D01*
X34657307Y73310000D01*
X34709604Y73032067D01*
X34873862Y72776802D01*
X34970548Y72710740D01*
X34888802Y72658138D01*
X34717554Y72407508D01*
X34657307Y72110000D01*
X34657307Y70610000D01*
X34709604Y70332067D01*
X34864337Y70091604D01*
X34697554Y69847508D01*
X34637307Y69550000D01*
X34637307Y68250000D01*
X34689604Y67972067D01*
X34802000Y67797398D01*
X34802000Y67554500D01*
X34768802Y67533138D01*
X34597554Y67282508D01*
X34537307Y66985000D01*
X34537307Y65735000D01*
X34589604Y65457067D01*
X34753862Y65201802D01*
X34802000Y65168911D01*
X34802000Y64602000D01*
X34882782Y64195883D01*
X34897151Y64123646D01*
X35168117Y63718117D01*
X35696117Y63190116D01*
X36101646Y62919151D01*
X36580000Y62824001D01*
X37058354Y62919151D01*
X37463884Y63190116D01*
X37734849Y63595646D01*
X37797612Y63911179D01*
X37855117Y63825117D01*
X38236116Y63444117D01*
X38641646Y63173151D01*
X39120000Y63078001D01*
X39598354Y63173151D01*
X39902000Y63376041D01*
X39902000Y58740000D01*
X39997151Y58261646D01*
X40243061Y57893615D01*
X39987613Y57999687D01*
X39271529Y58000312D01*
X38609714Y57726855D01*
X38102924Y57220949D01*
X37828313Y56559613D01*
X37827688Y55843529D01*
X38101145Y55181714D01*
X38607051Y54674924D01*
X39268387Y54400313D01*
X39984471Y54399688D01*
X40646286Y54673145D01*
X40897995Y54924415D01*
X41147051Y54674924D01*
X41798157Y54404561D01*
X41638313Y54019613D01*
X41637688Y53303529D01*
X41911145Y52641714D01*
X42417051Y52134924D01*
X43078387Y51860313D01*
X43794471Y51859688D01*
X44456286Y52133145D01*
X44707995Y52384415D01*
X44957051Y52134924D01*
X45618387Y51860313D01*
X46334471Y51859688D01*
X46996286Y52133145D01*
X47503076Y52639051D01*
X47777687Y53300387D01*
X47778312Y54016471D01*
X47617709Y54405158D01*
X48266286Y54673145D01*
X48517995Y54924415D01*
X48767051Y54674924D01*
X49428387Y54400313D01*
X50144471Y54399688D01*
X50806286Y54673145D01*
X51057995Y54924415D01*
X51307051Y54674924D01*
X51968387Y54400313D01*
X52684471Y54399688D01*
X53346286Y54673145D01*
X53597995Y54924415D01*
X53847051Y54674924D01*
X54508387Y54400313D01*
X55224471Y54399688D01*
X55886286Y54673145D01*
X56137995Y54924415D01*
X56387051Y54674924D01*
X57048387Y54400313D01*
X57764471Y54399688D01*
X58426286Y54673145D01*
X58677995Y54924415D01*
X58927051Y54674924D01*
X59588387Y54400313D01*
X60304471Y54399688D01*
X60958316Y54669852D01*
X60688313Y54019613D01*
X60687688Y53303529D01*
X60961145Y52641714D01*
X61212415Y52390005D01*
X60962924Y52140949D01*
X60688313Y51479613D01*
X60687688Y50763529D01*
X60961145Y50101714D01*
X61467051Y49594924D01*
X62128387Y49320313D01*
X62844471Y49319688D01*
X63506286Y49593145D01*
X64013076Y50099051D01*
X64287687Y50760387D01*
X64288312Y51476471D01*
X64014855Y52138286D01*
X63763585Y52389995D01*
X64013076Y52639051D01*
X64287687Y53300387D01*
X64288312Y54016471D01*
X64014855Y54678286D01*
X63763585Y54929995D01*
X64013076Y55179051D01*
X64287687Y55840387D01*
X64288312Y56556471D01*
X64014855Y57218286D01*
X63508949Y57725076D01*
X62847613Y57999687D01*
X62498015Y57999992D01*
X62966354Y58093151D01*
X63371883Y58364117D01*
X63642849Y58769646D01*
X63738000Y59248000D01*
X63642849Y59726354D01*
X63609677Y59776000D01*
X71632000Y59776000D01*
X71652000Y59779978D01*
X71652000Y44695497D01*
X71378000Y44749999D01*
X71104000Y44695497D01*
X71104000Y48326000D01*
X71008849Y48804354D01*
X70737883Y49209883D01*
X70332354Y49480849D01*
X69854000Y49576000D01*
X69375646Y49480849D01*
X68970117Y49209883D01*
X68699151Y48804354D01*
X68604000Y48326000D01*
X68604000Y44779767D01*
X64190451Y40366218D01*
X64287687Y40600387D01*
X64288312Y41316471D01*
X64014855Y41978286D01*
X63743615Y42250000D01*
X64012000Y42250000D01*
X64230786Y42293519D01*
X64450904Y42329589D01*
X64469218Y42340947D01*
X64490354Y42345151D01*
X64675824Y42469078D01*
X64865392Y42586643D01*
X64877966Y42604145D01*
X64895883Y42616117D01*
X65019802Y42801574D01*
X65149958Y42982746D01*
X66419958Y45776747D01*
X66531280Y46251598D01*
X66452411Y46732904D01*
X66195357Y47147392D01*
X65799254Y47431958D01*
X65324403Y47543280D01*
X64843096Y47464411D01*
X64428609Y47207358D01*
X64144042Y46811254D01*
X63207108Y44750000D01*
X44708000Y44750000D01*
X44229646Y44654849D01*
X43824117Y44383883D01*
X43553151Y43978354D01*
X43458000Y43500000D01*
X43553151Y43021646D01*
X43824117Y42616117D01*
X43892297Y42570561D01*
X43689714Y42486855D01*
X43182924Y41980949D01*
X42908313Y41319613D01*
X42907688Y40603529D01*
X43181145Y39941714D01*
X43687051Y39434924D01*
X44348387Y39160313D01*
X45064471Y39159688D01*
X45726286Y39433145D01*
X45977995Y39684415D01*
X46227051Y39434924D01*
X46888387Y39160313D01*
X47604471Y39159688D01*
X48266286Y39433145D01*
X48517995Y39684415D01*
X48767051Y39434924D01*
X49428387Y39160313D01*
X50144471Y39159688D01*
X50806286Y39433145D01*
X51057995Y39684415D01*
X51307051Y39434924D01*
X51968387Y39160313D01*
X52684471Y39159688D01*
X53346286Y39433145D01*
X53597995Y39684415D01*
X53847051Y39434924D01*
X54508387Y39160313D01*
X55224471Y39159688D01*
X55886286Y39433145D01*
X56137995Y39684415D01*
X56387051Y39434924D01*
X57048387Y39160313D01*
X57764471Y39159688D01*
X58426286Y39433145D01*
X58677995Y39684415D01*
X58927051Y39434924D01*
X59588387Y39160313D01*
X60304471Y39159688D01*
X60966286Y39433145D01*
X61217995Y39684415D01*
X61467051Y39434924D01*
X62128387Y39160313D01*
X62844471Y39159688D01*
X63082114Y39257880D01*
X59318120Y35493886D01*
X59318117Y35493884D01*
X57286117Y33461883D01*
X57134000Y33234224D01*
X57134000Y33594000D01*
X57038849Y34072354D01*
X56963281Y34185449D01*
X56767883Y34477884D01*
X54481883Y36763883D01*
X54076354Y37034849D01*
X53598000Y37130000D01*
X48264000Y37130000D01*
X47785646Y37034849D01*
X47380117Y36763883D01*
X47109151Y36358354D01*
X47014000Y35880000D01*
X47109151Y35401646D01*
X47380117Y34996117D01*
X47785646Y34725151D01*
X48264000Y34630000D01*
X53080234Y34630000D01*
X54634000Y33076233D01*
X54634000Y32915652D01*
X54606067Y32910396D01*
X54350802Y32746138D01*
X54179554Y32495508D01*
X54140773Y32304000D01*
X52846370Y32304000D01*
X52693508Y32408446D01*
X52396000Y32468693D01*
X50896000Y32468693D01*
X50618067Y32416396D01*
X50362802Y32252138D01*
X50296740Y32155452D01*
X50244138Y32237198D01*
X49993508Y32408446D01*
X49696000Y32468693D01*
X48196000Y32468693D01*
X47918067Y32416396D01*
X47662802Y32252138D01*
X47491554Y32001508D01*
X47431307Y31704000D01*
X47431307Y31201014D01*
X46994000Y31287999D01*
X46515646Y31192849D01*
X46110116Y30921883D01*
X42910000Y27721766D01*
X42910000Y34356000D01*
X42814849Y34834354D01*
X42814849Y34834355D01*
X42543883Y35239884D01*
X42035883Y35747883D01*
X41630354Y36018849D01*
X41152000Y36114000D01*
X32525767Y36114000D01*
X32448004Y36191762D01*
X32448004Y40603529D01*
X32747688Y40603529D01*
X33021145Y39941714D01*
X33527051Y39434924D01*
X34188387Y39160313D01*
X34904471Y39159688D01*
X35566286Y39433145D01*
X35817995Y39684415D01*
X36067051Y39434924D01*
X36728387Y39160313D01*
X37444471Y39159688D01*
X38106286Y39433145D01*
X38357995Y39684415D01*
X38607051Y39434924D01*
X39268387Y39160313D01*
X39984471Y39159688D01*
X40646286Y39433145D01*
X41153076Y39939051D01*
X41427687Y40600387D01*
X41428312Y41316471D01*
X41154855Y41978286D01*
X40648949Y42485076D01*
X39987613Y42759687D01*
X39271529Y42760312D01*
X38609714Y42486855D01*
X38358005Y42235585D01*
X38108949Y42485076D01*
X37447613Y42759687D01*
X36731529Y42760312D01*
X36069714Y42486855D01*
X35818005Y42235585D01*
X35568949Y42485076D01*
X34907613Y42759687D01*
X34191529Y42760312D01*
X33529714Y42486855D01*
X33022924Y41980949D01*
X32748313Y41319613D01*
X32747688Y40603529D01*
X32448004Y40603529D01*
X32448004Y48881996D01*
X32352853Y49360350D01*
X32272338Y49480849D01*
X32146008Y49669916D01*
X32146008Y55466387D01*
X32146849Y55467646D01*
X32221616Y55843529D01*
X32747688Y55843529D01*
X33021145Y55181714D01*
X33527051Y54674924D01*
X34188387Y54400313D01*
X34904471Y54399688D01*
X35566286Y54673145D01*
X36073076Y55179051D01*
X36347687Y55840387D01*
X36348312Y56556471D01*
X36074855Y57218286D01*
X35568949Y57725076D01*
X34907613Y57999687D01*
X34191529Y58000312D01*
X33529714Y57726855D01*
X33022924Y57220949D01*
X32748313Y56559613D01*
X32747688Y55843529D01*
X32221616Y55843529D01*
X32241999Y55946000D01*
X32146849Y56424354D01*
X31875883Y56829883D01*
X31470354Y57100849D01*
X30992000Y57195999D01*
X30513646Y57100849D01*
X30464000Y57067677D01*
X30464000Y62286233D01*
X30605883Y62428116D01*
X30876849Y62833645D01*
X30971999Y63312000D01*
X30964492Y63349741D01*
X31124116Y63190117D01*
X31529645Y62919151D01*
X32008000Y62824001D01*
X32486354Y62919151D01*
X32891883Y63190117D01*
X33162849Y63595646D01*
X33257999Y64074000D01*
X33162849Y64552355D01*
X32891883Y64957884D01*
X32212834Y65636933D01*
X32232693Y65735000D01*
X32232693Y66985000D01*
X32180396Y67262933D01*
X32016138Y67518198D01*
X31968000Y67551089D01*
X31968000Y67616152D01*
X32101198Y67701862D01*
X32272446Y67952492D01*
X32332693Y68250000D01*
X32332693Y69550000D01*
X32280396Y69827933D01*
X32116138Y70083198D01*
X32068000Y70116089D01*
X32068000Y70276714D01*
X32092446Y70312492D01*
X32152693Y70610000D01*
X32152693Y72110000D01*
X32100396Y72387933D01*
X31936138Y72643198D01*
X31839452Y72709260D01*
X31921198Y72761862D01*
X32092446Y73012492D01*
X32152693Y73310000D01*
X32152693Y74810000D01*
X32100396Y75087933D01*
X31988000Y75262602D01*
X31988000Y78806000D01*
X31892849Y79284354D01*
X31621883Y79689883D01*
X30605883Y80705883D01*
X30200354Y80976849D01*
X29722000Y81072000D01*
X25912000Y81072000D01*
X25433646Y80976849D01*
X25028117Y80705884D01*
X24266117Y79943883D01*
X23995151Y79538354D01*
X23900001Y79060000D01*
X23907508Y79022258D01*
X23747883Y79181883D01*
X23342354Y79452849D01*
X22864000Y79548000D01*
X16768000Y79548000D01*
X16494000Y79493498D01*
X16494000Y84101042D01*
X16724492Y83943554D01*
X17022000Y83883307D01*
X19562000Y83883307D01*
X19839933Y83935604D01*
X20095198Y84099862D01*
X20266446Y84350492D01*
X20326693Y84648000D01*
X20326693Y85517960D01*
X21351650Y85517960D01*
X21658529Y84775257D01*
X22226268Y84206526D01*
X22968434Y83898352D01*
X23772040Y83897650D01*
X24514743Y84204529D01*
X25083474Y84772268D01*
X25391648Y85514434D01*
X25392350Y86318040D01*
X25085471Y87060743D01*
X24958436Y87188000D01*
X34291307Y87188000D01*
X34291307Y84648000D01*
X34343604Y84370067D01*
X34507862Y84114802D01*
X34758492Y83943554D01*
X35056000Y83883307D01*
X37596000Y83883307D01*
X37873933Y83935604D01*
X38129198Y84099862D01*
X38300446Y84350492D01*
X38360693Y84648000D01*
X38360693Y85517960D01*
X39385650Y85517960D01*
X39692529Y84775257D01*
X40260268Y84206526D01*
X41002434Y83898352D01*
X41806040Y83897650D01*
X42548743Y84204529D01*
X43117474Y84772268D01*
X43425648Y85514434D01*
X43426350Y86318040D01*
X43119471Y87060743D01*
X42551732Y87629474D01*
X41809566Y87937648D01*
X41005960Y87938350D01*
X40263257Y87631471D01*
X39694526Y87063732D01*
X39386352Y86321566D01*
X39385650Y85517960D01*
X38360693Y85517960D01*
X38360693Y87188000D01*
X38308396Y87465933D01*
X38144138Y87721198D01*
X37893508Y87892446D01*
X37596000Y87952693D01*
X35056000Y87952693D01*
X34778067Y87900396D01*
X34522802Y87736138D01*
X34351554Y87485508D01*
X34291307Y87188000D01*
X24958436Y87188000D01*
X24517732Y87629474D01*
X23775566Y87937648D01*
X22971960Y87938350D01*
X22229257Y87631471D01*
X21660526Y87063732D01*
X21352352Y86321566D01*
X21351650Y85517960D01*
X20326693Y85517960D01*
X20326693Y87188000D01*
X20274396Y87465933D01*
X20110138Y87721198D01*
X19859508Y87892446D01*
X19562000Y87952693D01*
X17022000Y87952693D01*
X16744067Y87900396D01*
X16494000Y87739483D01*
X16494000Y90988234D01*
X17773766Y92268000D01*
X41680001Y92268000D01*
X41775151Y91789646D01*
X42046117Y91384117D01*
X42451646Y91113151D01*
X42930000Y91018001D01*
X43090871Y91050000D01*
X45245307Y91050000D01*
X45245307Y90800000D01*
X45297604Y90522067D01*
X45461862Y90266802D01*
X45712492Y90095554D01*
X46010000Y90035307D01*
X50010000Y90035307D01*
X50287933Y90087604D01*
X50543198Y90251862D01*
X50714446Y90502492D01*
X50774693Y90800000D01*
X50774693Y93800000D01*
X50722396Y94077933D01*
X50558138Y94333198D01*
X50307508Y94504446D01*
X50010000Y94564693D01*
X46010000Y94564693D01*
X45732067Y94512396D01*
X45476802Y94348138D01*
X45305554Y94097508D01*
X45245307Y93800000D01*
X45245307Y93550000D01*
X42962000Y93550000D01*
X42483646Y93454849D01*
X42078117Y93183884D01*
X42046117Y93151883D01*
X41775151Y92746354D01*
X41680001Y92268000D01*
X17773766Y92268000D01*
X23615766Y98110000D01*
X41172001Y98110000D01*
X41267151Y97631646D01*
X41538117Y97226117D01*
X41672117Y97092116D01*
X42077646Y96821151D01*
X42556000Y96726000D01*
X45245307Y96726000D01*
X45245307Y96476000D01*
X45297604Y96198067D01*
X45461862Y95942802D01*
X45712492Y95771554D01*
X46010000Y95711307D01*
X50010000Y95711307D01*
X50287933Y95763604D01*
X50543198Y95927862D01*
X50714446Y96178492D01*
X50774693Y96476000D01*
X50774693Y96586000D01*
X70704606Y96586000D01*
X70891207Y95647892D01*
X71422603Y94852603D01*
X72217892Y94321207D01*
X73156000Y94134606D01*
X74094108Y94321207D01*
X74889397Y94852603D01*
X75420793Y95647892D01*
X75607394Y96586000D01*
X75420793Y97524108D01*
X74889397Y98319397D01*
X74094108Y98850793D01*
X73156000Y99037394D01*
X72217892Y98850793D01*
X71422603Y98319397D01*
X70891207Y97524108D01*
X70704606Y96586000D01*
X50774693Y96586000D01*
X50774693Y99476000D01*
X50722396Y99753933D01*
X50558138Y100009198D01*
X50307508Y100180446D01*
X50010000Y100240693D01*
X46010000Y100240693D01*
X45732067Y100188396D01*
X45476802Y100024138D01*
X45305554Y99773508D01*
X45245307Y99476000D01*
X45245307Y99226000D01*
X42958496Y99226000D01*
X42900354Y99264849D01*
X42422000Y99359999D01*
X41943646Y99264849D01*
X41538117Y98993883D01*
X41267151Y98588354D01*
X41172001Y98110000D01*
X23615766Y98110000D01*
X28949766Y103444000D01*
X41426001Y103444000D01*
X41521151Y102965646D01*
X41792117Y102560117D01*
X42197646Y102289151D01*
X42676000Y102194001D01*
X42836871Y102226000D01*
X45245307Y102226000D01*
X45245307Y101976000D01*
X45297604Y101698067D01*
X45461862Y101442802D01*
X45712492Y101271554D01*
X46010000Y101211307D01*
X50010000Y101211307D01*
X50287933Y101263604D01*
X50543198Y101427862D01*
X50714446Y101678492D01*
X50774693Y101976000D01*
X50774693Y101982411D01*
X60745610Y101982411D01*
X61087431Y101155142D01*
X61719813Y100521655D01*
X62546484Y100178392D01*
X63441589Y100177610D01*
X64268858Y100519431D01*
X64902345Y101151813D01*
X65245608Y101978484D01*
X65245611Y101982411D01*
X65825610Y101982411D01*
X66167431Y101155142D01*
X66799813Y100521655D01*
X67626484Y100178392D01*
X68521589Y100177610D01*
X69348858Y100519431D01*
X69982345Y101151813D01*
X70325608Y101978484D01*
X70326390Y102873589D01*
X69984569Y103700858D01*
X69352187Y104334345D01*
X68525516Y104677608D01*
X67630411Y104678390D01*
X66803142Y104336569D01*
X66169655Y103704187D01*
X65826392Y102877516D01*
X65825610Y101982411D01*
X65245611Y101982411D01*
X65246390Y102873589D01*
X64904569Y103700858D01*
X64272187Y104334345D01*
X63445516Y104677608D01*
X62550411Y104678390D01*
X61723142Y104336569D01*
X61089655Y103704187D01*
X60746392Y102877516D01*
X60745610Y101982411D01*
X50774693Y101982411D01*
X50774693Y104976000D01*
X50722396Y105253933D01*
X50558138Y105509198D01*
X50307508Y105680446D01*
X50010000Y105740693D01*
X46010000Y105740693D01*
X45732067Y105688396D01*
X45476802Y105524138D01*
X45305554Y105273508D01*
X45245307Y104976000D01*
X45245307Y104726000D01*
X42708000Y104726000D01*
X42229646Y104630849D01*
X41824117Y104359884D01*
X41792117Y104327883D01*
X41521151Y103922354D01*
X41426001Y103444000D01*
X28949766Y103444000D01*
X30239767Y104734000D01*
X37342000Y104734000D01*
X37820354Y104829151D01*
X38225883Y105100117D01*
X39495883Y106370116D01*
X39766849Y106775646D01*
X39785196Y106867884D01*
X39862000Y107254000D01*
X39862000Y107498234D01*
X40511883Y108148117D01*
X40782849Y108553646D01*
X40809890Y108689589D01*
X40878000Y109032000D01*
X40878000Y111046205D01*
X45862540Y111046205D01*
X46265888Y110070028D01*
X47012099Y109322513D01*
X47987571Y108917461D01*
X49043795Y108916540D01*
X50019972Y109319888D01*
X50767487Y110066099D01*
X51058215Y110766249D01*
X51345888Y110070028D01*
X52092099Y109322513D01*
X53067571Y108917461D01*
X54123795Y108916540D01*
X55099972Y109319888D01*
X55847487Y110066099D01*
X56008307Y110453396D01*
X56008307Y109667000D01*
X56060604Y109389067D01*
X56224862Y109133802D01*
X56475492Y108962554D01*
X56773000Y108902307D01*
X60583000Y108902307D01*
X60860933Y108954604D01*
X61116198Y109118862D01*
X61287446Y109369492D01*
X61347693Y109667000D01*
X61347693Y113477000D01*
X61295396Y113754933D01*
X61131138Y114010198D01*
X60880508Y114181446D01*
X60583000Y114241693D01*
X56773000Y114241693D01*
X56495067Y114189396D01*
X56239802Y114025138D01*
X56068554Y113774508D01*
X56008307Y113477000D01*
X56008307Y112691111D01*
X55850112Y113073972D01*
X55103901Y113821487D01*
X54128429Y114226539D01*
X53072205Y114227460D01*
X52096028Y113824112D01*
X51348513Y113077901D01*
X51057785Y112377751D01*
X50770112Y113073972D01*
X50023901Y113821487D01*
X49048429Y114226539D01*
X47992205Y114227460D01*
X47016028Y113824112D01*
X46268513Y113077901D01*
X45863461Y112102429D01*
X45862540Y111046205D01*
X40878000Y111046205D01*
X40878000Y114102234D01*
X41923767Y115148000D01*
X45470000Y115148000D01*
X45948354Y115243151D01*
X46353883Y115514117D01*
X46624849Y115919646D01*
X46720000Y116398000D01*
X46624849Y116876354D01*
X46353883Y117281883D01*
X45948354Y117552849D01*
X45470000Y117648000D01*
X41406000Y117648000D01*
X40927646Y117552849D01*
X40522117Y117281884D01*
X38744117Y115503883D01*
X38473151Y115098354D01*
X38378000Y114620000D01*
X38378000Y109549766D01*
X37728117Y108899883D01*
X37457151Y108494354D01*
X37362000Y108016000D01*
X37362000Y107771767D01*
X36824234Y107234000D01*
X29722000Y107234000D01*
X29243646Y107138849D01*
X28838117Y106867884D01*
X14360117Y92389883D01*
X14089151Y91984354D01*
X13994000Y91506000D01*
X13994000Y69170455D01*
X13912286Y69154201D01*
X13644637Y68975363D01*
X13465799Y68707714D01*
X13403000Y68392000D01*
X13403000Y58486000D01*
X13465799Y58170286D01*
X13644637Y57902637D01*
X13912286Y57723799D01*
X13994000Y57707545D01*
X13994000Y44262000D01*
X14089151Y43783646D01*
X14360117Y43378117D01*
X19582000Y38156233D01*
X19582000Y27507767D01*
X18446927Y26372693D01*
X17114000Y26372693D01*
X16836067Y26320396D01*
X16580802Y26156138D01*
X16514740Y26059452D01*
X16462138Y26141198D01*
X16211508Y26312446D01*
X15914000Y26372693D01*
X14414000Y26372693D01*
X14136067Y26320396D01*
X13961398Y26208000D01*
X12929695Y26208000D01*
X12929793Y26320468D01*
X12664011Y26963712D01*
X12172301Y27456281D01*
X11529522Y27723186D01*
X10833532Y27723793D01*
X10190288Y27458011D01*
X9697719Y26966301D01*
X9430814Y26323522D01*
X9430207Y25627532D01*
X9695989Y24984288D01*
X10187699Y24491719D01*
X10830478Y24224814D01*
X11161709Y24224525D01*
X11312117Y24074117D01*
X11717646Y23803151D01*
X12196000Y23708000D01*
X13963630Y23708000D01*
X14116492Y23603554D01*
X14414000Y23543307D01*
X15914000Y23543307D01*
X16191933Y23595604D01*
X16447198Y23759862D01*
X16513260Y23856548D01*
X16565862Y23774802D01*
X16816492Y23603554D01*
X17114000Y23543307D01*
X18614000Y23543307D01*
X18891933Y23595604D01*
X19066602Y23708000D01*
X20898546Y23708000D01*
X20939642Y23501396D01*
X20947151Y23463646D01*
X21218117Y23058117D01*
X25282117Y18994116D01*
X25687646Y18723151D01*
X26166000Y18628001D01*
X26644354Y18723151D01*
X27049884Y18994116D01*
X27320849Y19399646D01*
X27415999Y19878000D01*
X27320849Y20356354D01*
X27049884Y20761883D01*
X23352000Y24459766D01*
X23352000Y24958000D01*
X23256849Y25436354D01*
X22985883Y25841883D01*
X22580354Y26112849D01*
X22102000Y26208000D01*
X21783960Y26208000D01*
X21986849Y26511646D01*
X22015563Y26656000D01*
X22082000Y26990000D01*
X22082000Y38674000D01*
X21986849Y39152354D01*
X21906134Y39273153D01*
X21715883Y39557884D01*
X16494000Y44779766D01*
X16494000Y76256234D01*
X17285767Y77048000D01*
X19626041Y77048000D01*
X19423151Y76744354D01*
X19328000Y76266000D01*
X19328000Y75006370D01*
X19223554Y74853508D01*
X19163307Y74556000D01*
X19163307Y73056000D01*
X19215604Y72778067D01*
X19379862Y72522802D01*
X19476548Y72456740D01*
X19394802Y72404138D01*
X19223554Y72153508D01*
X19163307Y71856000D01*
X19163307Y70356000D01*
X19215604Y70078067D01*
X19328000Y69903398D01*
X19328000Y69853370D01*
X19274802Y69819138D01*
X19103554Y69568508D01*
X19043307Y69271000D01*
X19043307Y68021000D01*
X19095604Y67743067D01*
X19259862Y67487802D01*
X19305457Y67456648D01*
X19203554Y67307508D01*
X19143307Y67010000D01*
X19143307Y65710000D01*
X19195604Y65432067D01*
X19359862Y65176802D01*
X19435645Y65125022D01*
X19497113Y64816000D01*
X19503151Y64785646D01*
X19774117Y64380117D01*
X21472117Y62682116D01*
X21877646Y62411151D01*
X22356000Y62316000D01*
X23212232Y62316000D01*
X23646000Y61882231D01*
X23646000Y52191699D01*
X23429986Y52514988D01*
X22906496Y52864772D01*
X22288998Y52987600D01*
X21915002Y52987600D01*
X21297504Y52864772D01*
X20774014Y52514988D01*
X20424230Y51991498D01*
X20301402Y51374000D01*
X20424230Y50756502D01*
X20774014Y50233012D01*
X20967095Y50104000D01*
X20774014Y49974988D01*
X20424230Y49451498D01*
X20301402Y48834000D01*
X20424230Y48216502D01*
X20701554Y47801457D01*
X20552802Y47705738D01*
X20381554Y47455108D01*
X20321307Y47157600D01*
X20321307Y45430400D01*
X20373604Y45152467D01*
X20537862Y44897202D01*
X20788492Y44725954D01*
X21086000Y44665707D01*
X23118000Y44665707D01*
X23395933Y44718004D01*
X23646000Y44878917D01*
X23646000Y43500000D01*
X23687727Y43290226D01*
X23741151Y43021646D01*
X24012117Y42616117D01*
X24266116Y42362117D01*
X24671646Y42091151D01*
X25150000Y41996001D01*
X25628354Y42091151D01*
X26033883Y42362117D01*
X26304849Y42767646D01*
X26399999Y43246000D01*
X26304849Y43724354D01*
X26146000Y43962089D01*
X26146000Y44082503D01*
X26420000Y44028001D01*
X26898354Y44123151D01*
X27303883Y44394117D01*
X27574849Y44799646D01*
X27669999Y45278000D01*
X27646002Y45398642D01*
X27646002Y65701998D01*
X27550851Y66180352D01*
X27430814Y66360000D01*
X27279885Y66585882D01*
X27252693Y66613074D01*
X27252693Y67010000D01*
X27200396Y67287933D01*
X27036138Y67543198D01*
X26990543Y67574352D01*
X27092446Y67723492D01*
X27152693Y68021000D01*
X27152693Y69271000D01*
X27100396Y69548933D01*
X26936138Y69804198D01*
X26908000Y69823424D01*
X26908000Y69905630D01*
X27012446Y70058492D01*
X27072693Y70356000D01*
X27072693Y71856000D01*
X27020396Y72133933D01*
X26856138Y72389198D01*
X26759452Y72455260D01*
X26841198Y72507862D01*
X27012446Y72758492D01*
X27072693Y73056000D01*
X27072693Y74556000D01*
X27020396Y74833933D01*
X26908000Y75008602D01*
X26908000Y75504000D01*
X26812849Y75982354D01*
X26623323Y76266000D01*
X26541884Y76387883D01*
X25112258Y77817508D01*
X25150000Y77810001D01*
X25628354Y77905151D01*
X26033883Y78176117D01*
X26429767Y78572000D01*
X29204234Y78572000D01*
X29488000Y78288234D01*
X29488000Y75260370D01*
X29383554Y75107508D01*
X29323307Y74810000D01*
X29323307Y73310000D01*
X29375604Y73032067D01*
X29539862Y72776802D01*
X29636548Y72710740D01*
X29554802Y72658138D01*
X29383554Y72407508D01*
X29323307Y72110000D01*
X29323307Y70610000D01*
X29375604Y70332067D01*
X29530337Y70091604D01*
X29363554Y69847508D01*
X29303307Y69550000D01*
X29303307Y68250000D01*
X29355604Y67972067D01*
X29468000Y67797398D01*
X29468000Y67554500D01*
X29434802Y67533138D01*
X29263554Y67282508D01*
X29203307Y66985000D01*
X29203307Y65735000D01*
X29255604Y65457067D01*
X29419862Y65201802D01*
X29512910Y65138225D01*
X29555611Y64923554D01*
X29563151Y64885646D01*
X29788204Y64548830D01*
X29722000Y64561999D01*
X29243645Y64466849D01*
X28838116Y64195883D01*
X28330117Y63687883D01*
X28059151Y63282354D01*
X27964000Y62804000D01*
X27964000Y54858006D01*
X28055041Y54400313D01*
X28059151Y54379652D01*
X28146006Y54249664D01*
X28146006Y47611996D01*
X28223900Y47220400D01*
X28241157Y47133642D01*
X28448002Y46824077D01*
X28448002Y20117769D01*
X26044117Y17713883D01*
X25773151Y17308354D01*
X25678001Y16830000D01*
X25773151Y16351646D01*
X26044117Y15946117D01*
X26449646Y15675151D01*
X26928000Y15580001D01*
X27406354Y15675151D01*
X27811883Y15946117D01*
X30581885Y18716118D01*
X30852851Y19121648D01*
X30893267Y19324834D01*
X30948002Y19600002D01*
X30948002Y29265307D01*
X32125000Y29265307D01*
X32402933Y29317604D01*
X32658198Y29481862D01*
X32829446Y29732492D01*
X32889693Y30030000D01*
X32889693Y31530000D01*
X32837396Y31807933D01*
X32750000Y31943751D01*
X32750000Y33614000D01*
X34074281Y33614000D01*
X33975554Y33469508D01*
X33915307Y33172000D01*
X33915307Y31172000D01*
X33967604Y30894067D01*
X34131862Y30638802D01*
X34382492Y30467554D01*
X34680000Y30407307D01*
X38480000Y30407307D01*
X38757933Y30459604D01*
X39013198Y30623862D01*
X39184446Y30874492D01*
X39244693Y31172000D01*
X39244693Y33172000D01*
X39192396Y33449933D01*
X39086822Y33614000D01*
X40410000Y33614000D01*
X40410000Y27122000D01*
X40347652Y27122000D01*
X40342396Y27149933D01*
X40178138Y27405198D01*
X39927508Y27576446D01*
X39630000Y27636693D01*
X38130000Y27636693D01*
X37852067Y27584396D01*
X37730428Y27506124D01*
X37627508Y27576446D01*
X37330000Y27636693D01*
X35830000Y27636693D01*
X35552067Y27584396D01*
X35296802Y27420138D01*
X35125554Y27169508D01*
X35065307Y26872000D01*
X35065307Y24872000D01*
X35117604Y24594067D01*
X35281862Y24338802D01*
X35532492Y24167554D01*
X35564000Y24161173D01*
X35564000Y23358500D01*
X35530802Y23337138D01*
X35359554Y23086508D01*
X35299307Y22789000D01*
X35299307Y21539000D01*
X35351604Y21261067D01*
X35515862Y21005802D01*
X35564000Y20972911D01*
X35564000Y19898000D01*
X35627664Y19577942D01*
X35659151Y19419646D01*
X35930117Y19014117D01*
X39998117Y14946116D01*
X40375713Y14693815D01*
X40330000Y14464000D01*
X40330000Y13985500D01*
X40296802Y13964138D01*
X40125554Y13713508D01*
X40065307Y13416000D01*
X40065307Y12116000D01*
X40117604Y11838067D01*
X40281862Y11582802D01*
X40330000Y11549911D01*
X40330000Y11068000D01*
X40396437Y10734000D01*
X40425151Y10589646D01*
X40696117Y10184117D01*
X41030116Y9850117D01*
X41078183Y9818000D01*
X41435646Y9579151D01*
X41914000Y9484000D01*
X43229911Y9484000D01*
X43467646Y9325151D01*
X43946000Y9230001D01*
X44424354Y9325151D01*
X44829883Y9596117D01*
X45100849Y10001646D01*
X45195999Y10480000D01*
X45100849Y10958354D01*
X44838287Y11351307D01*
X45030000Y11351307D01*
X45307933Y11403604D01*
X45482602Y11516000D01*
X47502000Y11516000D01*
X47980354Y11611151D01*
X48385883Y11882117D01*
X48656849Y12287646D01*
X48752000Y12766000D01*
X50638606Y12766000D01*
X50825207Y11827892D01*
X51356603Y11032603D01*
X52151892Y10501207D01*
X53090000Y10314606D01*
X54028108Y10501207D01*
X54823397Y11032603D01*
X55354793Y11827892D01*
X55541394Y12766000D01*
X55354793Y13704108D01*
X54823397Y14499397D01*
X54028108Y15030793D01*
X53090000Y15217394D01*
X52151892Y15030793D01*
X51356603Y14499397D01*
X50825207Y13704108D01*
X50638606Y12766000D01*
X48752000Y12766000D01*
X48656849Y13244354D01*
X48385883Y13649883D01*
X47980354Y13920849D01*
X47502000Y14016000D01*
X45530000Y14016000D01*
X45530000Y15267939D01*
X45552693Y15380000D01*
X45552693Y15401135D01*
X45637999Y15830000D01*
X45552693Y16258865D01*
X45552693Y16280000D01*
X45500396Y16557933D01*
X45336138Y16813198D01*
X45085508Y16984446D01*
X44788000Y17044693D01*
X44565496Y17044693D01*
X44522467Y17053252D01*
X44542446Y17082492D01*
X44602693Y17380000D01*
X44602693Y17401135D01*
X44688000Y17830000D01*
X44688000Y20070534D01*
X44895198Y20203862D01*
X44961260Y20300548D01*
X45013862Y20218802D01*
X45264492Y20047554D01*
X45490000Y20001887D01*
X45490000Y19370000D01*
X45566692Y18984446D01*
X45585151Y18891646D01*
X45856117Y18486117D01*
X46364116Y17978117D01*
X46769645Y17707151D01*
X46849010Y17691365D01*
X47248000Y17612000D01*
X61980000Y17612000D01*
X62458354Y17707151D01*
X62493038Y17730326D01*
X61990088Y16977608D01*
X61990083Y16977603D01*
X61866898Y16680207D01*
X61338665Y14024602D01*
X61217799Y13843714D01*
X61155000Y13528000D01*
X61155000Y4193000D01*
X22927000Y4193000D01*
X22927000Y6777960D01*
X27955650Y6777960D01*
X28262529Y6035257D01*
X28830268Y5466526D01*
X29572434Y5158352D01*
X30376040Y5157650D01*
X31118743Y5464529D01*
X31687474Y6032268D01*
X31995648Y6774434D01*
X31996350Y7578040D01*
X31689471Y8320743D01*
X31562436Y8448000D01*
X33021307Y8448000D01*
X33021307Y5908000D01*
X33073604Y5630067D01*
X33237862Y5374802D01*
X33488492Y5203554D01*
X33786000Y5143307D01*
X36326000Y5143307D01*
X36603933Y5195604D01*
X36859198Y5359862D01*
X37030446Y5610492D01*
X37090693Y5908000D01*
X37090693Y7031960D01*
X44211650Y7031960D01*
X44518529Y6289257D01*
X45086268Y5720526D01*
X45828434Y5412352D01*
X46632040Y5411650D01*
X47374743Y5718529D01*
X47943474Y6286268D01*
X48251648Y7028434D01*
X48252350Y7832040D01*
X47945471Y8574743D01*
X47818436Y8702000D01*
X49277307Y8702000D01*
X49277307Y6162000D01*
X49329604Y5884067D01*
X49493862Y5628802D01*
X49744492Y5457554D01*
X50042000Y5397307D01*
X52582000Y5397307D01*
X52859933Y5449604D01*
X53115198Y5613862D01*
X53286446Y5864492D01*
X53346693Y6162000D01*
X53346693Y8702000D01*
X53294396Y8979933D01*
X53130138Y9235198D01*
X52879508Y9406446D01*
X52582000Y9466693D01*
X50042000Y9466693D01*
X49764067Y9414396D01*
X49508802Y9250138D01*
X49337554Y8999508D01*
X49277307Y8702000D01*
X47818436Y8702000D01*
X47377732Y9143474D01*
X46635566Y9451648D01*
X45831960Y9452350D01*
X45089257Y9145471D01*
X44520526Y8577732D01*
X44212352Y7835566D01*
X44211650Y7031960D01*
X37090693Y7031960D01*
X37090693Y8448000D01*
X37038396Y8725933D01*
X36874138Y8981198D01*
X36623508Y9152446D01*
X36326000Y9212693D01*
X33786000Y9212693D01*
X33508067Y9160396D01*
X33252802Y8996138D01*
X33081554Y8745508D01*
X33021307Y8448000D01*
X31562436Y8448000D01*
X31121732Y8889474D01*
X30379566Y9197648D01*
X29575960Y9198350D01*
X28833257Y8891471D01*
X28264526Y8323732D01*
X27956352Y7581566D01*
X27955650Y6777960D01*
X22927000Y6777960D01*
X22927000Y13020000D01*
X28183197Y13020000D01*
X28397004Y11945118D01*
X29005876Y11033876D01*
X29917118Y10425004D01*
X30992000Y10211197D01*
X32066882Y10425004D01*
X32978124Y11033876D01*
X33586996Y11945118D01*
X33800803Y13020000D01*
X33586996Y14094882D01*
X32978124Y15006124D01*
X32066882Y15614996D01*
X30992000Y15828803D01*
X29917118Y15614996D01*
X29005876Y15006124D01*
X28397004Y14094882D01*
X28183197Y13020000D01*
X22927000Y13020000D01*
X22927000Y13274000D01*
X22864201Y13589714D01*
X22834280Y13634494D01*
X22316461Y16677012D01*
X22201581Y16977714D01*
X20301815Y19999301D01*
X20080606Y20233150D01*
X17169139Y22297724D01*
X16875278Y22429120D01*
X13395355Y23222367D01*
X13302806Y23224938D01*
X13212000Y23243000D01*
X3877000Y23243000D01*
X3877000Y28514000D01*
X5056426Y28514000D01*
X5190855Y27838181D01*
X5573675Y27265249D01*
X6146607Y26882429D01*
X6822426Y26748000D01*
X7409574Y26748000D01*
X8085393Y26882429D01*
X8658325Y27265249D01*
X9041145Y27838181D01*
X9175574Y28514000D01*
X9041145Y29189819D01*
X8658325Y29762751D01*
X8085393Y30145571D01*
X7409574Y30280000D01*
X6822426Y30280000D01*
X6146607Y30145571D01*
X5573675Y29762751D01*
X5190855Y29189819D01*
X5056426Y28514000D01*
X3877000Y28514000D01*
X3877000Y30434000D01*
X16115307Y30434000D01*
X16115307Y29134000D01*
X16167604Y28856067D01*
X16331862Y28600802D01*
X16582492Y28429554D01*
X16880000Y28369307D01*
X18180000Y28369307D01*
X18457933Y28421604D01*
X18713198Y28585862D01*
X18884446Y28836492D01*
X18944693Y29134000D01*
X18944693Y30434000D01*
X18892396Y30711933D01*
X18728138Y30967198D01*
X18477508Y31138446D01*
X18180000Y31198693D01*
X16880000Y31198693D01*
X16602067Y31146396D01*
X16346802Y30982138D01*
X16175554Y30731508D01*
X16115307Y30434000D01*
X3877000Y30434000D01*
X3877000Y33594000D01*
X5056426Y33594000D01*
X5190855Y32918181D01*
X5573675Y32345249D01*
X6146607Y31962429D01*
X6822426Y31828000D01*
X7409574Y31828000D01*
X8085393Y31962429D01*
X8658325Y32345249D01*
X8681065Y32379283D01*
X8686760Y32370760D01*
X9714132Y31684292D01*
X10926000Y31443236D01*
X12137868Y31684292D01*
X13165240Y32370760D01*
X13851708Y33398132D01*
X14092764Y34610000D01*
X13851708Y35821868D01*
X13165240Y36849240D01*
X12137868Y37535708D01*
X10926000Y37776764D01*
X9714132Y37535708D01*
X8686760Y36849240D01*
X8000292Y35821868D01*
X7889434Y35264550D01*
X7409574Y35360000D01*
X6822426Y35360000D01*
X6146607Y35225571D01*
X5573675Y34842751D01*
X5190855Y34269819D01*
X5056426Y33594000D01*
X3877000Y33594000D01*
X3877000Y95381307D01*
X5830000Y95381307D01*
X6107933Y95433604D01*
X6363198Y95597862D01*
X6396089Y95646000D01*
X6542234Y95646000D01*
X6628000Y95560233D01*
X6628000Y77536000D01*
X6723151Y77057646D01*
X6905998Y76783996D01*
X6905998Y40428002D01*
X6998294Y39964001D01*
X7001149Y39949648D01*
X7272115Y39544119D01*
X8010116Y38806117D01*
X8415645Y38535151D01*
X8894000Y38440001D01*
X9372354Y38535151D01*
X9777883Y38806117D01*
X10048849Y39211646D01*
X10143999Y39690000D01*
X10072998Y40046947D01*
X10134354Y40059151D01*
X10460293Y40276937D01*
X10642354Y40313151D01*
X11047883Y40584117D01*
X11318849Y40989646D01*
X11414000Y41468000D01*
X11318849Y41946354D01*
X11047883Y42351883D01*
X10906000Y42446686D01*
X10906000Y50432502D01*
X11180000Y50378000D01*
X11658354Y50473151D01*
X12063883Y50744117D01*
X12334849Y51149646D01*
X12430000Y51628000D01*
X12430000Y60426053D01*
X12450201Y60456286D01*
X12513000Y60772000D01*
X12450201Y61087714D01*
X12430000Y61117947D01*
X12430000Y88204000D01*
X12406002Y88324645D01*
X12406002Y94609556D01*
X12855859Y94910141D01*
X13369615Y95679032D01*
X13550022Y96586000D01*
X13369615Y97492968D01*
X12855859Y98261859D01*
X12328206Y98614425D01*
X12310851Y98701676D01*
X12210408Y98852000D01*
X12039885Y99107206D01*
X8287207Y102859883D01*
X7881678Y103130849D01*
X7403324Y103226000D01*
X6399500Y103226000D01*
X6378138Y103259198D01*
X6127508Y103430446D01*
X5830000Y103490693D01*
X3877000Y103490693D01*
X3877000Y107445000D01*
X12958000Y107445000D01*
X13273714Y107507799D01*
X13318494Y107537720D01*
X16361012Y108055539D01*
X16661714Y108170419D01*
X19683298Y110070184D01*
X19683301Y110070185D01*
X19917150Y110291394D01*
X20361459Y110917960D01*
X23129650Y110917960D01*
X23436529Y110175257D01*
X24004268Y109606526D01*
X24746434Y109298352D01*
X25550040Y109297650D01*
X26292743Y109604529D01*
X26861474Y110172268D01*
X27169648Y110914434D01*
X27169651Y110917960D01*
X28209650Y110917960D01*
X28516529Y110175257D01*
X29084268Y109606526D01*
X29826434Y109298352D01*
X30630040Y109297650D01*
X31372743Y109604529D01*
X31941474Y110172268D01*
X32249648Y110914434D01*
X32250350Y111718040D01*
X31943471Y112460743D01*
X31816436Y112588000D01*
X33275307Y112588000D01*
X33275307Y110048000D01*
X33327604Y109770067D01*
X33491862Y109514802D01*
X33742492Y109343554D01*
X34040000Y109283307D01*
X36580000Y109283307D01*
X36857933Y109335604D01*
X37113198Y109499862D01*
X37284446Y109750492D01*
X37344693Y110048000D01*
X37344693Y112588000D01*
X37292396Y112865933D01*
X37128138Y113121198D01*
X36877508Y113292446D01*
X36580000Y113352693D01*
X34040000Y113352693D01*
X33762067Y113300396D01*
X33506802Y113136138D01*
X33335554Y112885508D01*
X33275307Y112588000D01*
X31816436Y112588000D01*
X31375732Y113029474D01*
X30633566Y113337648D01*
X29829960Y113338350D01*
X29087257Y113031471D01*
X28518526Y112463732D01*
X28210352Y111721566D01*
X28209650Y110917960D01*
X27169651Y110917960D01*
X27170350Y111718040D01*
X26863471Y112460743D01*
X26295732Y113029474D01*
X25553566Y113337648D01*
X24749960Y113338350D01*
X24007257Y113031471D01*
X23438526Y112463732D01*
X23130352Y111721566D01*
X23129650Y110917960D01*
X20361459Y110917960D01*
X21981724Y113202861D01*
X22113120Y113496721D01*
X22113120Y113496722D01*
X22906367Y116976645D01*
X22908938Y117069194D01*
X22927000Y117160000D01*
X22927000Y117922000D01*
X28685938Y117922000D01*
X28861477Y117039508D01*
X29361368Y116291368D01*
X30109508Y115791477D01*
X30992000Y115615938D01*
X31874492Y115791477D01*
X32622632Y116291368D01*
X33122523Y117039508D01*
X33298062Y117922000D01*
X33247539Y118176000D01*
X50995000Y118176000D01*
X51154472Y117374278D01*
X51608611Y116694611D01*
X52288278Y116240472D01*
X53090000Y116081000D01*
X53891722Y116240472D01*
X54571389Y116694611D01*
X55025528Y117374278D01*
X55185000Y118176000D01*
X55025528Y118977722D01*
X54571389Y119657389D01*
X53891722Y120111528D01*
X53090000Y120271000D01*
X52288278Y120111528D01*
X51608611Y119657389D01*
X51154472Y118977722D01*
X50995000Y118176000D01*
X33247539Y118176000D01*
X33122523Y118804492D01*
X32622632Y119552632D01*
X31874492Y120052523D01*
X30992000Y120228062D01*
X30109508Y120052523D01*
X29361368Y119552632D01*
X28861477Y118804492D01*
X28685938Y117922000D01*
X22927000Y117922000D01*
X22927000Y126495000D01*
X61155000Y126495000D01*
X61155000Y117414000D01*
G36*
X11506440Y36011307D02*
X11998514Y35682514D01*
X12327307Y35190440D01*
X12442764Y34610000D01*
X12327307Y34029560D01*
X11998514Y33537486D01*
X11506440Y33208693D01*
X10926000Y33093236D01*
X10345560Y33208693D01*
X9853486Y33537486D01*
X9524693Y34029560D01*
X9409236Y34610000D01*
X9524693Y35190440D01*
X9853486Y35682514D01*
X10345560Y36011307D01*
X10926000Y36126764D01*
X11506440Y36011307D01*
X11506440Y36011307D01*
G37*
X11506440Y36011307D02*
X11998514Y35682514D01*
X12327307Y35190440D01*
X12442764Y34610000D01*
X12327307Y34029560D01*
X11998514Y33537486D01*
X11506440Y33208693D01*
X10926000Y33093236D01*
X10345560Y33208693D01*
X9853486Y33537486D01*
X9524693Y34029560D01*
X9409236Y34610000D01*
X9524693Y35190440D01*
X9853486Y35682514D01*
X10345560Y36011307D01*
X10926000Y36126764D01*
X11506440Y36011307D01*
G36*
X61739307Y27878000D02*
X61791604Y27600067D01*
X61856621Y27499028D01*
X61799554Y27415508D01*
X61739307Y27118000D01*
X61739307Y25338000D01*
X61791604Y25060067D01*
X61856621Y24959028D01*
X61799554Y24875508D01*
X61739307Y24578000D01*
X61739307Y22798000D01*
X61791604Y22520067D01*
X61955862Y22264802D01*
X62206492Y22093554D01*
X62504000Y22033307D01*
X64145541Y22033307D01*
X63494234Y21382000D01*
X63250000Y21382000D01*
X62771646Y21286849D01*
X62366116Y21015883D01*
X61462234Y20112000D01*
X53133962Y20112000D01*
X53160693Y20244000D01*
X53160693Y21544000D01*
X53108396Y21821933D01*
X52944138Y22077198D01*
X52693508Y22248446D01*
X52396000Y22308693D01*
X50896000Y22308693D01*
X50618067Y22256396D01*
X50362802Y22092138D01*
X50296740Y21995452D01*
X50244138Y22077198D01*
X50196000Y22110089D01*
X50196000Y22214500D01*
X50229198Y22235862D01*
X50400446Y22486492D01*
X50460693Y22784000D01*
X50460693Y24084000D01*
X50408396Y24361933D01*
X50244138Y24617198D01*
X50217301Y24635535D01*
X50225767Y24644000D01*
X50346500Y24644000D01*
X50367862Y24610802D01*
X50618492Y24439554D01*
X50916000Y24379307D01*
X52216000Y24379307D01*
X52493933Y24431604D01*
X52749198Y24595862D01*
X52782089Y24644000D01*
X54571204Y24644000D01*
X54586492Y24633554D01*
X54884000Y24573307D01*
X54885440Y24573307D01*
X54897646Y24565151D01*
X55376000Y24470001D01*
X55854354Y24565151D01*
X55866560Y24573307D01*
X56884000Y24573307D01*
X57161933Y24625604D01*
X57417198Y24789862D01*
X57545747Y24978000D01*
X58170000Y24978000D01*
X58648354Y25073151D01*
X59053883Y25344117D01*
X61593883Y27884116D01*
X61739307Y28101758D01*
X61739307Y27878000D01*
X61739307Y27878000D01*
G37*
X61739307Y27878000D02*
X61791604Y27600067D01*
X61856621Y27499028D01*
X61799554Y27415508D01*
X61739307Y27118000D01*
X61739307Y25338000D01*
X61791604Y25060067D01*
X61856621Y24959028D01*
X61799554Y24875508D01*
X61739307Y24578000D01*
X61739307Y22798000D01*
X61791604Y22520067D01*
X61955862Y22264802D01*
X62206492Y22093554D01*
X62504000Y22033307D01*
X64145541Y22033307D01*
X63494234Y21382000D01*
X63250000Y21382000D01*
X62771646Y21286849D01*
X62366116Y21015883D01*
X61462234Y20112000D01*
X53133962Y20112000D01*
X53160693Y20244000D01*
X53160693Y21544000D01*
X53108396Y21821933D01*
X52944138Y22077198D01*
X52693508Y22248446D01*
X52396000Y22308693D01*
X50896000Y22308693D01*
X50618067Y22256396D01*
X50362802Y22092138D01*
X50296740Y21995452D01*
X50244138Y22077198D01*
X50196000Y22110089D01*
X50196000Y22214500D01*
X50229198Y22235862D01*
X50400446Y22486492D01*
X50460693Y22784000D01*
X50460693Y24084000D01*
X50408396Y24361933D01*
X50244138Y24617198D01*
X50217301Y24635535D01*
X50225767Y24644000D01*
X50346500Y24644000D01*
X50367862Y24610802D01*
X50618492Y24439554D01*
X50916000Y24379307D01*
X52216000Y24379307D01*
X52493933Y24431604D01*
X52749198Y24595862D01*
X52782089Y24644000D01*
X54571204Y24644000D01*
X54586492Y24633554D01*
X54884000Y24573307D01*
X54885440Y24573307D01*
X54897646Y24565151D01*
X55376000Y24470001D01*
X55854354Y24565151D01*
X55866560Y24573307D01*
X56884000Y24573307D01*
X57161933Y24625604D01*
X57417198Y24789862D01*
X57545747Y24978000D01*
X58170000Y24978000D01*
X58648354Y25073151D01*
X59053883Y25344117D01*
X61593883Y27884116D01*
X61739307Y28101758D01*
X61739307Y27878000D01*
G36*
X24399826Y74994407D02*
X24303554Y74853508D01*
X24243307Y74556000D01*
X24243307Y73056000D01*
X24295604Y72778067D01*
X24459862Y72522802D01*
X24556548Y72456740D01*
X24474802Y72404138D01*
X24303554Y72153508D01*
X24243307Y71856000D01*
X24243307Y70356000D01*
X24295604Y70078067D01*
X24408000Y69903398D01*
X24408000Y69853370D01*
X24354802Y69819138D01*
X24183554Y69568508D01*
X24123307Y69271000D01*
X24123307Y68021000D01*
X24175604Y67743067D01*
X24339862Y67487802D01*
X24385457Y67456648D01*
X24283554Y67307508D01*
X24223307Y67010000D01*
X24223307Y65710000D01*
X24275604Y65432067D01*
X24439862Y65176802D01*
X24690492Y65005554D01*
X24988000Y64945307D01*
X25146002Y64945307D01*
X25146002Y63917762D01*
X24613881Y64449883D01*
X24208352Y64720849D01*
X23729998Y64816000D01*
X22873767Y64816000D01*
X22140204Y65549563D01*
X22172693Y65710000D01*
X22172693Y67010000D01*
X22120396Y67287933D01*
X21956138Y67543198D01*
X21910543Y67574352D01*
X22012446Y67723492D01*
X22072693Y68021000D01*
X22072693Y69271000D01*
X22020396Y69548933D01*
X21856138Y69804198D01*
X21828000Y69823424D01*
X21828000Y69905630D01*
X21932446Y70058492D01*
X21992693Y70356000D01*
X21992693Y71856000D01*
X21940396Y72133933D01*
X21776138Y72389198D01*
X21679452Y72455260D01*
X21761198Y72507862D01*
X21932446Y72758492D01*
X21992693Y73056000D01*
X21992693Y74556000D01*
X21940396Y74833933D01*
X21828000Y75008602D01*
X21828000Y76266000D01*
X21732849Y76744354D01*
X21529959Y77048000D01*
X22346234Y77048000D01*
X24399826Y74994407D01*
X24399826Y74994407D01*
G37*
X24399826Y74994407D02*
X24303554Y74853508D01*
X24243307Y74556000D01*
X24243307Y73056000D01*
X24295604Y72778067D01*
X24459862Y72522802D01*
X24556548Y72456740D01*
X24474802Y72404138D01*
X24303554Y72153508D01*
X24243307Y71856000D01*
X24243307Y70356000D01*
X24295604Y70078067D01*
X24408000Y69903398D01*
X24408000Y69853370D01*
X24354802Y69819138D01*
X24183554Y69568508D01*
X24123307Y69271000D01*
X24123307Y68021000D01*
X24175604Y67743067D01*
X24339862Y67487802D01*
X24385457Y67456648D01*
X24283554Y67307508D01*
X24223307Y67010000D01*
X24223307Y65710000D01*
X24275604Y65432067D01*
X24439862Y65176802D01*
X24690492Y65005554D01*
X24988000Y64945307D01*
X25146002Y64945307D01*
X25146002Y63917762D01*
X24613881Y64449883D01*
X24208352Y64720849D01*
X23729998Y64816000D01*
X22873767Y64816000D01*
X22140204Y65549563D01*
X22172693Y65710000D01*
X22172693Y67010000D01*
X22120396Y67287933D01*
X21956138Y67543198D01*
X21910543Y67574352D01*
X22012446Y67723492D01*
X22072693Y68021000D01*
X22072693Y69271000D01*
X22020396Y69548933D01*
X21856138Y69804198D01*
X21828000Y69823424D01*
X21828000Y69905630D01*
X21932446Y70058492D01*
X21992693Y70356000D01*
X21992693Y71856000D01*
X21940396Y72133933D01*
X21776138Y72389198D01*
X21679452Y72455260D01*
X21761198Y72507862D01*
X21932446Y72758492D01*
X21992693Y73056000D01*
X21992693Y74556000D01*
X21940396Y74833933D01*
X21828000Y75008602D01*
X21828000Y76266000D01*
X21732849Y76744354D01*
X21529959Y77048000D01*
X22346234Y77048000D01*
X24399826Y74994407D01*
M02*
