G04 #@! TF.FileFunction,Copper,L1,Top,Signal*
%FSLAX46Y46*%
G04 Gerber Fmt 4.6, Leading zero omitted, Abs format (unit mm)*
G04 Created by KiCad (PCBNEW 4.0.6) date Tuesday, 03 August 2021 'AMt' 11:20:22*
%MOMM*%
%LPD*%
G01*
G04 APERTURE LIST*
%ADD10C,0.100000*%
%ADD11R,3.600000X3.200000*%
%ADD12C,1.998980*%
%ADD13C,1.000760*%
%ADD14R,1.300000X1.500000*%
%ADD15O,1.600000X2.300000*%
%ADD16C,3.000000*%
%ADD17C,3.810000*%
%ADD18R,3.810000X3.810000*%
%ADD19O,8.000000X3.800000*%
%ADD20C,10.000000*%
%ADD21R,1.500000X1.300000*%
%ADD22C,0.600000*%
%ADD23C,4.000000*%
%ADD24C,1.000000*%
%ADD25C,2.000000*%
%ADD26C,0.500000*%
G04 APERTURE END LIST*
D10*
D11*
X17175000Y66885000D03*
X8975000Y66885000D03*
D12*
X6200000Y22654000D03*
X13820000Y22654000D03*
D13*
X23726000Y35354000D03*
X24996000Y36624000D03*
X24996000Y34084000D03*
X23218000Y54658000D03*
X24488000Y55928000D03*
X24488000Y53388000D03*
X23472000Y48308000D03*
X24742000Y49578000D03*
X24742000Y47038000D03*
X23726000Y41704000D03*
X24996000Y42974000D03*
X24996000Y40434000D03*
D14*
X17122000Y36196000D03*
X17122000Y33496000D03*
X16868000Y55500000D03*
X16868000Y52800000D03*
X16868000Y49150000D03*
X16868000Y46450000D03*
X17122000Y42800000D03*
X17122000Y40100000D03*
X19408000Y36196000D03*
X19408000Y33496000D03*
X19408000Y55500000D03*
X19408000Y52800000D03*
X19408000Y49150000D03*
X19408000Y46450000D03*
X19408000Y42800000D03*
X19408000Y40100000D03*
D15*
X10010000Y9954000D03*
X12550000Y9954000D03*
X15090000Y9954000D03*
X17630000Y9954000D03*
X20170000Y9954000D03*
X22710000Y9954000D03*
X25250000Y9954000D03*
X27790000Y9954000D03*
X27790000Y17574000D03*
X25250000Y17574000D03*
X22710000Y17574000D03*
X20170000Y17574000D03*
X17630000Y17574000D03*
X15090000Y17574000D03*
X12550000Y17574000D03*
X10010000Y17574000D03*
D11*
X17180000Y75600000D03*
X8980000Y75600000D03*
D16*
X28020000Y26080000D03*
X17860000Y26080000D03*
D17*
X10264000Y49070000D03*
X10264000Y43990000D03*
D18*
X10264000Y54150000D03*
D17*
X10264000Y38910000D03*
X10264000Y33830000D03*
X10264000Y28750000D03*
D19*
X36000000Y66735000D03*
X26700000Y66735000D03*
X36225000Y74435000D03*
X26925000Y74435000D03*
D20*
X22580000Y99680000D03*
X37840000Y86990000D03*
D16*
X33570000Y50180000D03*
X38650000Y50180000D03*
X33390000Y43600000D03*
X38470000Y43600000D03*
X33210000Y37200000D03*
X38290000Y37200000D03*
X38290000Y21990000D03*
X33210000Y21990000D03*
X38380000Y57640000D03*
X33300000Y57640000D03*
X38370000Y29160000D03*
X33290000Y29160000D03*
X34510000Y8260000D03*
X39590000Y8260000D03*
X34790000Y14120000D03*
X39870000Y14120000D03*
D20*
X8000000Y87050000D03*
D21*
X32270000Y18440000D03*
X34970000Y18440000D03*
X32970000Y46850000D03*
X35670000Y46850000D03*
X32970000Y40370000D03*
X35670000Y40370000D03*
X32740000Y33270000D03*
X35440000Y33270000D03*
X40590000Y18430000D03*
X37890000Y18430000D03*
X41180000Y46850000D03*
X38480000Y46850000D03*
X41060000Y40420000D03*
X38360000Y40420000D03*
X40940000Y33190000D03*
X38240000Y33190000D03*
D22*
X44808000Y51102000D03*
X14328000Y47038000D03*
X15090000Y36116000D03*
X14836000Y40434000D03*
X14582000Y52626000D03*
D23*
X26700000Y66735000D02*
X26700000Y64240000D01*
X26700000Y64240000D02*
X33300000Y57640000D01*
X26700000Y66735000D02*
X17325000Y66735000D01*
X17325000Y66735000D02*
X17175000Y66885000D01*
D24*
X24996000Y34084000D02*
X24996000Y33830000D01*
X24996000Y33830000D02*
X24662000Y33496000D01*
X24662000Y33496000D02*
X19408000Y33496000D01*
D25*
X26925000Y74435000D02*
X28300000Y74435000D01*
X28300000Y74435000D02*
X36000000Y66735000D01*
D23*
X26925000Y74435000D02*
X26925000Y95335000D01*
X26925000Y95335000D02*
X22580000Y99680000D01*
X22580000Y99680000D02*
X22580000Y94990000D01*
X22580000Y94990000D02*
X24650000Y92920000D01*
X24650000Y92920000D02*
X24650000Y75600000D01*
X24650000Y75600000D02*
X26925000Y74435000D01*
X26925000Y95335000D02*
X22580000Y99680000D01*
X22640000Y75600000D02*
X22640000Y99620000D01*
X22640000Y99620000D02*
X22580000Y99680000D01*
X17180000Y75600000D02*
X22640000Y75600000D01*
X22640000Y75600000D02*
X25760000Y75600000D01*
X25760000Y75600000D02*
X26925000Y74435000D01*
X25760000Y75600000D02*
X26925000Y74435000D01*
X17100000Y78635000D02*
X22725000Y78635000D01*
X17100000Y75680000D02*
X17100000Y78635000D01*
X22725000Y78635000D02*
X26925000Y74435000D01*
X17100000Y75680000D02*
X17180000Y75600000D01*
D24*
X17860000Y26080000D02*
X22420000Y26080000D01*
X29440000Y33100000D02*
X29440000Y39290000D01*
X22420000Y26080000D02*
X29440000Y33100000D01*
D23*
X33210000Y21990000D02*
X20020000Y21990000D01*
X17860000Y24150000D02*
X17860000Y26080000D01*
X20020000Y21990000D02*
X17860000Y24150000D01*
D24*
X27028000Y44752000D02*
X27028000Y51928000D01*
X25568000Y53388000D02*
X24488000Y53388000D01*
X27028000Y51928000D02*
X25568000Y53388000D01*
X29790000Y38940000D02*
X29440000Y39290000D01*
X29440000Y39290000D02*
X27028000Y41702000D01*
X24996000Y40434000D02*
X25250000Y40434000D01*
X24996000Y40434000D02*
X26266000Y40434000D01*
X27028000Y44752000D02*
X24742000Y47038000D01*
X27028000Y41196000D02*
X27028000Y41702000D01*
X27028000Y41702000D02*
X27028000Y44752000D01*
X26266000Y40434000D02*
X27028000Y41196000D01*
X24996000Y40434000D02*
X24742000Y40434000D01*
X24742000Y40434000D02*
X23980000Y39672000D01*
X23980000Y39672000D02*
X19836000Y39672000D01*
X19836000Y39672000D02*
X19408000Y40100000D01*
X24742000Y47038000D02*
X23726000Y46022000D01*
X23726000Y46022000D02*
X19836000Y46022000D01*
X19836000Y46022000D02*
X19408000Y46450000D01*
X24488000Y53388000D02*
X24488000Y53134000D01*
X24488000Y53134000D02*
X24154000Y52800000D01*
X24154000Y52800000D02*
X19408000Y52800000D01*
X16868000Y46450000D02*
X14916000Y46450000D01*
X14916000Y46450000D02*
X14328000Y47038000D01*
X17122000Y33496000D02*
X16186000Y33496000D01*
X15090000Y34592000D02*
X15090000Y36116000D01*
X16186000Y33496000D02*
X15090000Y34592000D01*
X17122000Y40100000D02*
X15264000Y40100000D01*
X14930000Y40434000D02*
X14836000Y40434000D01*
X15264000Y40100000D02*
X14930000Y40434000D01*
X16868000Y52800000D02*
X14756000Y52800000D01*
X14756000Y52800000D02*
X14582000Y52626000D01*
X19408000Y36196000D02*
X17122000Y36196000D01*
X23726000Y35354000D02*
X22202000Y35354000D01*
X21360000Y36196000D02*
X19408000Y36196000D01*
X22202000Y35354000D02*
X21360000Y36196000D01*
X19408000Y55500000D02*
X16868000Y55500000D01*
X23218000Y54658000D02*
X22456000Y54658000D01*
X21614000Y55500000D02*
X19408000Y55500000D01*
X22456000Y54658000D02*
X21614000Y55500000D01*
X19408000Y49150000D02*
X16868000Y49150000D01*
X19408000Y49150000D02*
X19074000Y49150000D01*
X23472000Y48308000D02*
X22710000Y48308000D01*
X21868000Y49150000D02*
X19408000Y49150000D01*
X22710000Y48308000D02*
X21868000Y49150000D01*
X19408000Y42800000D02*
X17122000Y42800000D01*
X23726000Y41704000D02*
X22710000Y41704000D01*
X21614000Y42800000D02*
X19408000Y42800000D01*
X22710000Y41704000D02*
X21614000Y42800000D01*
D23*
X36225000Y74435000D02*
X36955000Y74435000D01*
X36955000Y74435000D02*
X37840000Y75320000D01*
X37840000Y75320000D02*
X37840000Y86990000D01*
X36225000Y74435000D02*
X36225000Y85375000D01*
X36225000Y85375000D02*
X37840000Y86990000D01*
D24*
X40590000Y18430000D02*
X40590000Y14840000D01*
X40590000Y14840000D02*
X39870000Y14120000D01*
X40940000Y33190000D02*
X40940000Y32520000D01*
X42170000Y20010000D02*
X40590000Y18430000D01*
X42170000Y31290000D02*
X42170000Y20010000D01*
X40940000Y32520000D02*
X42170000Y31290000D01*
X41060000Y40420000D02*
X41060000Y40090000D01*
X41060000Y40090000D02*
X42550000Y38600000D01*
X42550000Y34800000D02*
X40940000Y33190000D01*
X42550000Y38600000D02*
X42550000Y34800000D01*
X41180000Y46850000D02*
X41760000Y46850000D01*
X41760000Y46850000D02*
X42320000Y46290000D01*
X42320000Y46290000D02*
X42320000Y41680000D01*
X42320000Y41680000D02*
X41060000Y40420000D01*
D23*
X39590000Y8260000D02*
X34510000Y8260000D01*
X39870000Y14120000D02*
X34790000Y14120000D01*
X8000000Y87050000D02*
X8000000Y85490000D01*
X8000000Y85490000D02*
X5430000Y82920000D01*
X5430000Y82920000D02*
X5430000Y70430000D01*
X5430000Y70430000D02*
X8975000Y66885000D01*
X8980000Y75600000D02*
X8980000Y84990000D01*
X8980000Y84990000D02*
X8935000Y85035000D01*
D25*
X7690000Y61990000D02*
X7690000Y65600000D01*
X7690000Y65600000D02*
X8975000Y66885000D01*
D23*
X8935000Y85035000D02*
X8900000Y85000000D01*
X8900000Y85000000D02*
X8900000Y78635000D01*
X8900000Y78635000D02*
X8900000Y66960000D01*
X8900000Y66960000D02*
X8975000Y66885000D01*
D25*
X5184000Y59484000D02*
X7690000Y61990000D01*
X7690000Y61990000D02*
X7978000Y62278000D01*
X5184000Y26210000D02*
X5184000Y59484000D01*
X6200000Y22654000D02*
X6200000Y25194000D01*
X6200000Y25194000D02*
X5184000Y26210000D01*
D24*
X32970000Y40370000D02*
X32970000Y43180000D01*
X32970000Y43180000D02*
X33390000Y43600000D01*
X32740000Y33270000D02*
X32740000Y36730000D01*
X32740000Y36730000D02*
X33210000Y37200000D01*
X32970000Y46850000D02*
X32970000Y49580000D01*
X32970000Y49580000D02*
X33570000Y50180000D01*
X10010000Y17574000D02*
X10010000Y14480000D01*
X32270000Y16830000D02*
X32270000Y18440000D01*
X29790000Y14350000D02*
X32270000Y16830000D01*
X10140000Y14350000D02*
X29790000Y14350000D01*
X10010000Y14480000D02*
X10140000Y14350000D01*
X13820000Y22654000D02*
X13820000Y28780000D01*
X27166000Y36624000D02*
X24996000Y36624000D01*
X27939998Y35850002D02*
X27166000Y36624000D01*
X27939998Y33820000D02*
X27939998Y35850002D01*
X24829998Y30710000D02*
X27939998Y33820000D01*
X15750000Y30710000D02*
X24829998Y30710000D01*
X13820000Y28780000D02*
X15750000Y30710000D01*
X24996000Y36624000D02*
X26266000Y36624000D01*
X34970000Y18440000D02*
X37880000Y18440000D01*
X37880000Y18440000D02*
X37890000Y18430000D01*
X35670000Y46850000D02*
X38480000Y46850000D01*
X35670000Y40370000D02*
X38310000Y40370000D01*
X38310000Y40370000D02*
X38360000Y40420000D01*
X35440000Y33270000D02*
X38160000Y33270000D01*
X38160000Y33270000D02*
X38240000Y33190000D01*
D26*
G36*
X42155000Y91514021D02*
X41384963Y92285403D01*
X39088656Y93238913D01*
X36602252Y93241083D01*
X34304284Y92291582D01*
X32544597Y90534963D01*
X31591087Y88238656D01*
X31588917Y85752252D01*
X32538418Y83454284D01*
X32975000Y83016939D01*
X32975000Y77376710D01*
X32816693Y77345221D01*
X31794760Y76662386D01*
X31575000Y76333492D01*
X31355240Y76662386D01*
X30333307Y77345221D01*
X30175000Y77376710D01*
X30175000Y95335000D01*
X29927608Y96578721D01*
X29223097Y97633097D01*
X28710359Y98145835D01*
X28828913Y98431344D01*
X28831083Y100917748D01*
X27881582Y103215716D01*
X26124963Y104975403D01*
X23828656Y105928913D01*
X21342252Y105931083D01*
X19044284Y104981582D01*
X17284597Y103224963D01*
X16331087Y100928656D01*
X16328917Y98442252D01*
X17278418Y96144284D01*
X19035037Y94384597D01*
X19390000Y94237203D01*
X19390000Y81885000D01*
X17100000Y81885000D01*
X15856279Y81637608D01*
X14801903Y80933097D01*
X14097392Y79878721D01*
X13850000Y78635000D01*
X13850000Y75680000D01*
X14097392Y74436279D01*
X14105512Y74424127D01*
X14105512Y74000000D01*
X14192673Y73536778D01*
X14466437Y73111337D01*
X14884153Y72825924D01*
X15380000Y72725512D01*
X15744534Y72725512D01*
X15936279Y72597392D01*
X17180000Y72350000D01*
X22399621Y72350000D01*
X22494760Y72207614D01*
X23516693Y71524779D01*
X24722146Y71285000D01*
X26348686Y71285000D01*
X26663424Y71195544D01*
X26795040Y71210851D01*
X26925000Y71185000D01*
X27420847Y71283630D01*
X27432624Y71285000D01*
X28268020Y71285000D01*
X29858012Y69695008D01*
X28902854Y69885000D01*
X27202733Y69885000D01*
X26700000Y69985000D01*
X17929099Y69985000D01*
X17175000Y70135000D01*
X15931279Y69887608D01*
X15739534Y69759488D01*
X15375000Y69759488D01*
X14911778Y69672327D01*
X14486337Y69398563D01*
X14200924Y68980847D01*
X14100512Y68485000D01*
X14100512Y67767357D01*
X13925000Y66885000D01*
X14100512Y66002643D01*
X14100512Y65285000D01*
X14187673Y64821778D01*
X14461437Y64396337D01*
X14879153Y64110924D01*
X15375000Y64010512D01*
X15665043Y64010512D01*
X16081279Y63732392D01*
X17325000Y63485000D01*
X23600179Y63485000D01*
X23697392Y62996279D01*
X24401903Y61941903D01*
X31001903Y55341903D01*
X32056279Y54637392D01*
X33300000Y54390000D01*
X34543721Y54637392D01*
X35598097Y55341903D01*
X36075361Y56056179D01*
X36820216Y55310023D01*
X37830591Y54890478D01*
X38924609Y54889523D01*
X39935715Y55307304D01*
X40709977Y56080216D01*
X41129522Y57090591D01*
X41130477Y58184609D01*
X40712696Y59195715D01*
X39939784Y59969977D01*
X38929409Y60389522D01*
X37835391Y60390477D01*
X36824285Y59972696D01*
X36074857Y59224575D01*
X35598097Y59938097D01*
X31069299Y64466895D01*
X31130240Y64507614D01*
X31350000Y64836508D01*
X31569760Y64507614D01*
X32591693Y63824779D01*
X33797146Y63585000D01*
X38202854Y63585000D01*
X39408307Y63824779D01*
X40430240Y64507614D01*
X41113075Y65529547D01*
X41352854Y66735000D01*
X41113075Y67940453D01*
X40430240Y68962386D01*
X39408307Y69645221D01*
X38202854Y69885000D01*
X36031981Y69885000D01*
X34631981Y71285000D01*
X35722267Y71285000D01*
X36225000Y71185000D01*
X36955000Y71185000D01*
X37457733Y71285000D01*
X38427854Y71285000D01*
X39633307Y71524779D01*
X40655240Y72207614D01*
X41338075Y73229547D01*
X41577854Y74435000D01*
X41338075Y75640453D01*
X41090000Y76011723D01*
X41090000Y81570363D01*
X41375716Y81688418D01*
X42155000Y82466343D01*
X42155000Y4495000D01*
X3565000Y4495000D01*
X3565000Y10351019D01*
X10500000Y10351019D01*
X10500000Y9556981D01*
X10656047Y8772480D01*
X11100431Y8107412D01*
X11765499Y7663028D01*
X12550000Y7506981D01*
X13334501Y7663028D01*
X13820000Y7987428D01*
X14305499Y7663028D01*
X15090000Y7506981D01*
X15874501Y7663028D01*
X16360000Y7987428D01*
X16845499Y7663028D01*
X17630000Y7506981D01*
X18414501Y7663028D01*
X18900000Y7987428D01*
X19385499Y7663028D01*
X20170000Y7506981D01*
X20954501Y7663028D01*
X21440000Y7987428D01*
X21925499Y7663028D01*
X22710000Y7506981D01*
X23494501Y7663028D01*
X23980000Y7987428D01*
X24465499Y7663028D01*
X25250000Y7506981D01*
X26034501Y7663028D01*
X26520000Y7987428D01*
X27005499Y7663028D01*
X27790000Y7506981D01*
X28574501Y7663028D01*
X29239569Y8107412D01*
X29683953Y8772480D01*
X29840000Y9556981D01*
X29840000Y10351019D01*
X29683953Y11135520D01*
X29239569Y11800588D01*
X28574501Y12244972D01*
X27790000Y12401019D01*
X27005499Y12244972D01*
X26520000Y11920572D01*
X26034501Y12244972D01*
X25250000Y12401019D01*
X24465499Y12244972D01*
X23980000Y11920572D01*
X23494501Y12244972D01*
X22710000Y12401019D01*
X21925499Y12244972D01*
X21440000Y11920572D01*
X20954501Y12244972D01*
X20170000Y12401019D01*
X19385499Y12244972D01*
X18900000Y11920572D01*
X18414501Y12244972D01*
X17630000Y12401019D01*
X16845499Y12244972D01*
X16360000Y11920572D01*
X15874501Y12244972D01*
X15090000Y12401019D01*
X14305499Y12244972D01*
X13820000Y11920572D01*
X13334501Y12244972D01*
X12550000Y12401019D01*
X11765499Y12244972D01*
X11100431Y11800588D01*
X10656047Y11135520D01*
X10500000Y10351019D01*
X3565000Y10351019D01*
X3565000Y56055000D01*
X7084512Y56055000D01*
X7084512Y52245000D01*
X7171673Y51781778D01*
X7445437Y51356337D01*
X7827251Y51095455D01*
X7590881Y50859497D01*
X7109549Y49700322D01*
X7108454Y48445185D01*
X7587762Y47285171D01*
X8342155Y46529461D01*
X7590881Y45779497D01*
X7109549Y44620322D01*
X7108454Y43365185D01*
X7587762Y42205171D01*
X8342155Y41449461D01*
X7590881Y40699497D01*
X7109549Y39540322D01*
X7108454Y38285185D01*
X7587762Y37125171D01*
X8474503Y36236881D01*
X9633678Y35755549D01*
X10888815Y35754454D01*
X12048829Y36233762D01*
X12937119Y37120503D01*
X13418451Y38279678D01*
X13419485Y39464573D01*
X13598563Y39196563D01*
X13881847Y39007279D01*
X14026563Y38862563D01*
X14594304Y38483211D01*
X15264000Y38350000D01*
X15721384Y38350000D01*
X15976153Y38175924D01*
X16100903Y38150661D01*
X16008778Y38133327D01*
X15583337Y37859563D01*
X15528181Y37778840D01*
X15090000Y37866000D01*
X14420304Y37732789D01*
X13852563Y37353437D01*
X13473211Y36785696D01*
X13340000Y36116000D01*
X13340000Y34592000D01*
X13473211Y33922304D01*
X13852563Y33354563D01*
X14948563Y32258563D01*
X14963380Y32248663D01*
X14512563Y31947437D01*
X12582563Y30017437D01*
X12203211Y29449696D01*
X12070000Y28780000D01*
X12070000Y24085538D01*
X11914087Y23929897D01*
X11570901Y23103414D01*
X11570120Y22208512D01*
X11911863Y21381431D01*
X12544103Y20748087D01*
X13370586Y20404901D01*
X14265488Y20404120D01*
X15092569Y20745863D01*
X15725913Y21378103D01*
X15816807Y21596999D01*
X17432143Y19981663D01*
X16845499Y19864972D01*
X16360000Y19540572D01*
X15874501Y19864972D01*
X15090000Y20021019D01*
X14305499Y19864972D01*
X13820000Y19540572D01*
X13334501Y19864972D01*
X12550000Y20021019D01*
X11765499Y19864972D01*
X11280000Y19540572D01*
X10794501Y19864972D01*
X10010000Y20021019D01*
X9225499Y19864972D01*
X8560431Y19420588D01*
X8116047Y18755520D01*
X7960000Y17971019D01*
X7960000Y17176981D01*
X8116047Y16392480D01*
X8260000Y16177039D01*
X8260000Y14480000D01*
X8393211Y13810304D01*
X8772563Y13242563D01*
X8902563Y13112563D01*
X9470304Y12733211D01*
X10140000Y12600000D01*
X29790000Y12600000D01*
X30459696Y12733211D01*
X31027437Y13112563D01*
X33507437Y15592563D01*
X33886789Y16160304D01*
X33967611Y16566622D01*
X34220000Y16515512D01*
X35720000Y16515512D01*
X36183222Y16602673D01*
X36318932Y16690000D01*
X36521104Y16690000D01*
X36644153Y16605924D01*
X37140000Y16505512D01*
X38640000Y16505512D01*
X39103222Y16592673D01*
X39528663Y16866437D01*
X39814076Y17284153D01*
X39914488Y17780000D01*
X39914488Y19080000D01*
X39827327Y19543222D01*
X39773198Y19627341D01*
X39845715Y19657304D01*
X40619977Y20430216D01*
X41039522Y21440591D01*
X41040477Y22534609D01*
X40622696Y23545715D01*
X39849784Y24319977D01*
X38839409Y24739522D01*
X37745391Y24740477D01*
X36734285Y24322696D01*
X35984857Y23574575D01*
X35508097Y24288097D01*
X34453721Y24992608D01*
X33210000Y25240000D01*
X30648858Y25240000D01*
X30769522Y25530591D01*
X30770477Y26624609D01*
X30352696Y27635715D01*
X29579784Y28409977D01*
X28569409Y28829522D01*
X27645203Y28830329D01*
X30677437Y31862563D01*
X30837677Y32102380D01*
X31076437Y31731337D01*
X31494153Y31445924D01*
X31654835Y31413385D01*
X30960023Y30719784D01*
X30540478Y29709409D01*
X30539523Y28615391D01*
X30957304Y27604285D01*
X31730216Y26830023D01*
X32740591Y26410478D01*
X33834609Y26409523D01*
X34845715Y26827304D01*
X35619977Y27600216D01*
X35829998Y28106003D01*
X36037304Y27604285D01*
X36810216Y26830023D01*
X37820591Y26410478D01*
X38914609Y26409523D01*
X39925715Y26827304D01*
X40699977Y27600216D01*
X41119522Y28610591D01*
X41120477Y29704609D01*
X40702696Y30715715D01*
X39929784Y31489977D01*
X39769821Y31556399D01*
X39878663Y31626437D01*
X40164076Y32044153D01*
X40264488Y32540000D01*
X40264488Y33840000D01*
X40177327Y34303222D01*
X39903563Y34728663D01*
X39755320Y34829953D01*
X39845715Y34867304D01*
X40619977Y35640216D01*
X41039522Y36650591D01*
X41040477Y37744609D01*
X40622696Y38755715D01*
X40211376Y39167753D01*
X40284076Y39274153D01*
X40384488Y39770000D01*
X40384488Y41070000D01*
X40297327Y41533222D01*
X40295282Y41536401D01*
X40799977Y42040216D01*
X41219522Y43050591D01*
X41220477Y44144609D01*
X40802696Y45155715D01*
X40343588Y45615625D01*
X40404076Y45704153D01*
X40504488Y46200000D01*
X40504488Y47500000D01*
X40417327Y47963222D01*
X40379978Y48021263D01*
X40979977Y48620216D01*
X41399522Y49630591D01*
X41400477Y50724609D01*
X40982696Y51735715D01*
X40209784Y52509977D01*
X39199409Y52929522D01*
X38105391Y52930477D01*
X37094285Y52512696D01*
X36320023Y51739784D01*
X36110002Y51233997D01*
X35902696Y51735715D01*
X35129784Y52509977D01*
X34119409Y52929522D01*
X33025391Y52930477D01*
X32014285Y52512696D01*
X31240023Y51739784D01*
X30820478Y50729409D01*
X30819523Y49635391D01*
X31220000Y48666164D01*
X31220000Y48250616D01*
X31045924Y47995847D01*
X30945512Y47500000D01*
X30945512Y46200000D01*
X31032673Y45736778D01*
X31269438Y45368834D01*
X31060023Y45159784D01*
X30640478Y44149409D01*
X30639523Y43055391D01*
X31057304Y42044285D01*
X31220000Y41881305D01*
X31220000Y41770616D01*
X31045924Y41515847D01*
X30945512Y41020000D01*
X30945512Y40259362D01*
X28778000Y42426874D01*
X28778000Y51928000D01*
X28644789Y52597696D01*
X28265437Y53165437D01*
X26805437Y54625437D01*
X26237696Y55004789D01*
X26018073Y55048475D01*
X26238076Y55578300D01*
X26238683Y56274645D01*
X25972765Y56918215D01*
X25480805Y57411035D01*
X24837700Y57678076D01*
X24141355Y57678683D01*
X23497785Y57412765D01*
X23004965Y56920805D01*
X22906118Y56682756D01*
X22851437Y56737437D01*
X22283696Y57116789D01*
X21614000Y57250000D01*
X20808616Y57250000D01*
X20553847Y57424076D01*
X20058000Y57524488D01*
X18758000Y57524488D01*
X18294778Y57437327D01*
X18140113Y57337802D01*
X18013847Y57424076D01*
X17518000Y57524488D01*
X16218000Y57524488D01*
X15754778Y57437327D01*
X15329337Y57163563D01*
X15043924Y56745847D01*
X14943512Y56250000D01*
X14943512Y54750000D01*
X14981144Y54550000D01*
X14756000Y54550000D01*
X14086304Y54416789D01*
X13518563Y54037437D01*
X13443488Y53962362D01*
X13443488Y56055000D01*
X13356327Y56518222D01*
X13082563Y56943663D01*
X12664847Y57229076D01*
X12169000Y57329488D01*
X8359000Y57329488D01*
X7895778Y57242327D01*
X7470337Y56968563D01*
X7184924Y56550847D01*
X7084512Y56055000D01*
X3565000Y56055000D01*
X3565000Y106285000D01*
X42155000Y106285000D01*
X42155000Y91514021D01*
X42155000Y91514021D01*
G37*
X42155000Y91514021D02*
X41384963Y92285403D01*
X39088656Y93238913D01*
X36602252Y93241083D01*
X34304284Y92291582D01*
X32544597Y90534963D01*
X31591087Y88238656D01*
X31588917Y85752252D01*
X32538418Y83454284D01*
X32975000Y83016939D01*
X32975000Y77376710D01*
X32816693Y77345221D01*
X31794760Y76662386D01*
X31575000Y76333492D01*
X31355240Y76662386D01*
X30333307Y77345221D01*
X30175000Y77376710D01*
X30175000Y95335000D01*
X29927608Y96578721D01*
X29223097Y97633097D01*
X28710359Y98145835D01*
X28828913Y98431344D01*
X28831083Y100917748D01*
X27881582Y103215716D01*
X26124963Y104975403D01*
X23828656Y105928913D01*
X21342252Y105931083D01*
X19044284Y104981582D01*
X17284597Y103224963D01*
X16331087Y100928656D01*
X16328917Y98442252D01*
X17278418Y96144284D01*
X19035037Y94384597D01*
X19390000Y94237203D01*
X19390000Y81885000D01*
X17100000Y81885000D01*
X15856279Y81637608D01*
X14801903Y80933097D01*
X14097392Y79878721D01*
X13850000Y78635000D01*
X13850000Y75680000D01*
X14097392Y74436279D01*
X14105512Y74424127D01*
X14105512Y74000000D01*
X14192673Y73536778D01*
X14466437Y73111337D01*
X14884153Y72825924D01*
X15380000Y72725512D01*
X15744534Y72725512D01*
X15936279Y72597392D01*
X17180000Y72350000D01*
X22399621Y72350000D01*
X22494760Y72207614D01*
X23516693Y71524779D01*
X24722146Y71285000D01*
X26348686Y71285000D01*
X26663424Y71195544D01*
X26795040Y71210851D01*
X26925000Y71185000D01*
X27420847Y71283630D01*
X27432624Y71285000D01*
X28268020Y71285000D01*
X29858012Y69695008D01*
X28902854Y69885000D01*
X27202733Y69885000D01*
X26700000Y69985000D01*
X17929099Y69985000D01*
X17175000Y70135000D01*
X15931279Y69887608D01*
X15739534Y69759488D01*
X15375000Y69759488D01*
X14911778Y69672327D01*
X14486337Y69398563D01*
X14200924Y68980847D01*
X14100512Y68485000D01*
X14100512Y67767357D01*
X13925000Y66885000D01*
X14100512Y66002643D01*
X14100512Y65285000D01*
X14187673Y64821778D01*
X14461437Y64396337D01*
X14879153Y64110924D01*
X15375000Y64010512D01*
X15665043Y64010512D01*
X16081279Y63732392D01*
X17325000Y63485000D01*
X23600179Y63485000D01*
X23697392Y62996279D01*
X24401903Y61941903D01*
X31001903Y55341903D01*
X32056279Y54637392D01*
X33300000Y54390000D01*
X34543721Y54637392D01*
X35598097Y55341903D01*
X36075361Y56056179D01*
X36820216Y55310023D01*
X37830591Y54890478D01*
X38924609Y54889523D01*
X39935715Y55307304D01*
X40709977Y56080216D01*
X41129522Y57090591D01*
X41130477Y58184609D01*
X40712696Y59195715D01*
X39939784Y59969977D01*
X38929409Y60389522D01*
X37835391Y60390477D01*
X36824285Y59972696D01*
X36074857Y59224575D01*
X35598097Y59938097D01*
X31069299Y64466895D01*
X31130240Y64507614D01*
X31350000Y64836508D01*
X31569760Y64507614D01*
X32591693Y63824779D01*
X33797146Y63585000D01*
X38202854Y63585000D01*
X39408307Y63824779D01*
X40430240Y64507614D01*
X41113075Y65529547D01*
X41352854Y66735000D01*
X41113075Y67940453D01*
X40430240Y68962386D01*
X39408307Y69645221D01*
X38202854Y69885000D01*
X36031981Y69885000D01*
X34631981Y71285000D01*
X35722267Y71285000D01*
X36225000Y71185000D01*
X36955000Y71185000D01*
X37457733Y71285000D01*
X38427854Y71285000D01*
X39633307Y71524779D01*
X40655240Y72207614D01*
X41338075Y73229547D01*
X41577854Y74435000D01*
X41338075Y75640453D01*
X41090000Y76011723D01*
X41090000Y81570363D01*
X41375716Y81688418D01*
X42155000Y82466343D01*
X42155000Y4495000D01*
X3565000Y4495000D01*
X3565000Y10351019D01*
X10500000Y10351019D01*
X10500000Y9556981D01*
X10656047Y8772480D01*
X11100431Y8107412D01*
X11765499Y7663028D01*
X12550000Y7506981D01*
X13334501Y7663028D01*
X13820000Y7987428D01*
X14305499Y7663028D01*
X15090000Y7506981D01*
X15874501Y7663028D01*
X16360000Y7987428D01*
X16845499Y7663028D01*
X17630000Y7506981D01*
X18414501Y7663028D01*
X18900000Y7987428D01*
X19385499Y7663028D01*
X20170000Y7506981D01*
X20954501Y7663028D01*
X21440000Y7987428D01*
X21925499Y7663028D01*
X22710000Y7506981D01*
X23494501Y7663028D01*
X23980000Y7987428D01*
X24465499Y7663028D01*
X25250000Y7506981D01*
X26034501Y7663028D01*
X26520000Y7987428D01*
X27005499Y7663028D01*
X27790000Y7506981D01*
X28574501Y7663028D01*
X29239569Y8107412D01*
X29683953Y8772480D01*
X29840000Y9556981D01*
X29840000Y10351019D01*
X29683953Y11135520D01*
X29239569Y11800588D01*
X28574501Y12244972D01*
X27790000Y12401019D01*
X27005499Y12244972D01*
X26520000Y11920572D01*
X26034501Y12244972D01*
X25250000Y12401019D01*
X24465499Y12244972D01*
X23980000Y11920572D01*
X23494501Y12244972D01*
X22710000Y12401019D01*
X21925499Y12244972D01*
X21440000Y11920572D01*
X20954501Y12244972D01*
X20170000Y12401019D01*
X19385499Y12244972D01*
X18900000Y11920572D01*
X18414501Y12244972D01*
X17630000Y12401019D01*
X16845499Y12244972D01*
X16360000Y11920572D01*
X15874501Y12244972D01*
X15090000Y12401019D01*
X14305499Y12244972D01*
X13820000Y11920572D01*
X13334501Y12244972D01*
X12550000Y12401019D01*
X11765499Y12244972D01*
X11100431Y11800588D01*
X10656047Y11135520D01*
X10500000Y10351019D01*
X3565000Y10351019D01*
X3565000Y56055000D01*
X7084512Y56055000D01*
X7084512Y52245000D01*
X7171673Y51781778D01*
X7445437Y51356337D01*
X7827251Y51095455D01*
X7590881Y50859497D01*
X7109549Y49700322D01*
X7108454Y48445185D01*
X7587762Y47285171D01*
X8342155Y46529461D01*
X7590881Y45779497D01*
X7109549Y44620322D01*
X7108454Y43365185D01*
X7587762Y42205171D01*
X8342155Y41449461D01*
X7590881Y40699497D01*
X7109549Y39540322D01*
X7108454Y38285185D01*
X7587762Y37125171D01*
X8474503Y36236881D01*
X9633678Y35755549D01*
X10888815Y35754454D01*
X12048829Y36233762D01*
X12937119Y37120503D01*
X13418451Y38279678D01*
X13419485Y39464573D01*
X13598563Y39196563D01*
X13881847Y39007279D01*
X14026563Y38862563D01*
X14594304Y38483211D01*
X15264000Y38350000D01*
X15721384Y38350000D01*
X15976153Y38175924D01*
X16100903Y38150661D01*
X16008778Y38133327D01*
X15583337Y37859563D01*
X15528181Y37778840D01*
X15090000Y37866000D01*
X14420304Y37732789D01*
X13852563Y37353437D01*
X13473211Y36785696D01*
X13340000Y36116000D01*
X13340000Y34592000D01*
X13473211Y33922304D01*
X13852563Y33354563D01*
X14948563Y32258563D01*
X14963380Y32248663D01*
X14512563Y31947437D01*
X12582563Y30017437D01*
X12203211Y29449696D01*
X12070000Y28780000D01*
X12070000Y24085538D01*
X11914087Y23929897D01*
X11570901Y23103414D01*
X11570120Y22208512D01*
X11911863Y21381431D01*
X12544103Y20748087D01*
X13370586Y20404901D01*
X14265488Y20404120D01*
X15092569Y20745863D01*
X15725913Y21378103D01*
X15816807Y21596999D01*
X17432143Y19981663D01*
X16845499Y19864972D01*
X16360000Y19540572D01*
X15874501Y19864972D01*
X15090000Y20021019D01*
X14305499Y19864972D01*
X13820000Y19540572D01*
X13334501Y19864972D01*
X12550000Y20021019D01*
X11765499Y19864972D01*
X11280000Y19540572D01*
X10794501Y19864972D01*
X10010000Y20021019D01*
X9225499Y19864972D01*
X8560431Y19420588D01*
X8116047Y18755520D01*
X7960000Y17971019D01*
X7960000Y17176981D01*
X8116047Y16392480D01*
X8260000Y16177039D01*
X8260000Y14480000D01*
X8393211Y13810304D01*
X8772563Y13242563D01*
X8902563Y13112563D01*
X9470304Y12733211D01*
X10140000Y12600000D01*
X29790000Y12600000D01*
X30459696Y12733211D01*
X31027437Y13112563D01*
X33507437Y15592563D01*
X33886789Y16160304D01*
X33967611Y16566622D01*
X34220000Y16515512D01*
X35720000Y16515512D01*
X36183222Y16602673D01*
X36318932Y16690000D01*
X36521104Y16690000D01*
X36644153Y16605924D01*
X37140000Y16505512D01*
X38640000Y16505512D01*
X39103222Y16592673D01*
X39528663Y16866437D01*
X39814076Y17284153D01*
X39914488Y17780000D01*
X39914488Y19080000D01*
X39827327Y19543222D01*
X39773198Y19627341D01*
X39845715Y19657304D01*
X40619977Y20430216D01*
X41039522Y21440591D01*
X41040477Y22534609D01*
X40622696Y23545715D01*
X39849784Y24319977D01*
X38839409Y24739522D01*
X37745391Y24740477D01*
X36734285Y24322696D01*
X35984857Y23574575D01*
X35508097Y24288097D01*
X34453721Y24992608D01*
X33210000Y25240000D01*
X30648858Y25240000D01*
X30769522Y25530591D01*
X30770477Y26624609D01*
X30352696Y27635715D01*
X29579784Y28409977D01*
X28569409Y28829522D01*
X27645203Y28830329D01*
X30677437Y31862563D01*
X30837677Y32102380D01*
X31076437Y31731337D01*
X31494153Y31445924D01*
X31654835Y31413385D01*
X30960023Y30719784D01*
X30540478Y29709409D01*
X30539523Y28615391D01*
X30957304Y27604285D01*
X31730216Y26830023D01*
X32740591Y26410478D01*
X33834609Y26409523D01*
X34845715Y26827304D01*
X35619977Y27600216D01*
X35829998Y28106003D01*
X36037304Y27604285D01*
X36810216Y26830023D01*
X37820591Y26410478D01*
X38914609Y26409523D01*
X39925715Y26827304D01*
X40699977Y27600216D01*
X41119522Y28610591D01*
X41120477Y29704609D01*
X40702696Y30715715D01*
X39929784Y31489977D01*
X39769821Y31556399D01*
X39878663Y31626437D01*
X40164076Y32044153D01*
X40264488Y32540000D01*
X40264488Y33840000D01*
X40177327Y34303222D01*
X39903563Y34728663D01*
X39755320Y34829953D01*
X39845715Y34867304D01*
X40619977Y35640216D01*
X41039522Y36650591D01*
X41040477Y37744609D01*
X40622696Y38755715D01*
X40211376Y39167753D01*
X40284076Y39274153D01*
X40384488Y39770000D01*
X40384488Y41070000D01*
X40297327Y41533222D01*
X40295282Y41536401D01*
X40799977Y42040216D01*
X41219522Y43050591D01*
X41220477Y44144609D01*
X40802696Y45155715D01*
X40343588Y45615625D01*
X40404076Y45704153D01*
X40504488Y46200000D01*
X40504488Y47500000D01*
X40417327Y47963222D01*
X40379978Y48021263D01*
X40979977Y48620216D01*
X41399522Y49630591D01*
X41400477Y50724609D01*
X40982696Y51735715D01*
X40209784Y52509977D01*
X39199409Y52929522D01*
X38105391Y52930477D01*
X37094285Y52512696D01*
X36320023Y51739784D01*
X36110002Y51233997D01*
X35902696Y51735715D01*
X35129784Y52509977D01*
X34119409Y52929522D01*
X33025391Y52930477D01*
X32014285Y52512696D01*
X31240023Y51739784D01*
X30820478Y50729409D01*
X30819523Y49635391D01*
X31220000Y48666164D01*
X31220000Y48250616D01*
X31045924Y47995847D01*
X30945512Y47500000D01*
X30945512Y46200000D01*
X31032673Y45736778D01*
X31269438Y45368834D01*
X31060023Y45159784D01*
X30640478Y44149409D01*
X30639523Y43055391D01*
X31057304Y42044285D01*
X31220000Y41881305D01*
X31220000Y41770616D01*
X31045924Y41515847D01*
X30945512Y41020000D01*
X30945512Y40259362D01*
X28778000Y42426874D01*
X28778000Y51928000D01*
X28644789Y52597696D01*
X28265437Y53165437D01*
X26805437Y54625437D01*
X26237696Y55004789D01*
X26018073Y55048475D01*
X26238076Y55578300D01*
X26238683Y56274645D01*
X25972765Y56918215D01*
X25480805Y57411035D01*
X24837700Y57678076D01*
X24141355Y57678683D01*
X23497785Y57412765D01*
X23004965Y56920805D01*
X22906118Y56682756D01*
X22851437Y56737437D01*
X22283696Y57116789D01*
X21614000Y57250000D01*
X20808616Y57250000D01*
X20553847Y57424076D01*
X20058000Y57524488D01*
X18758000Y57524488D01*
X18294778Y57437327D01*
X18140113Y57337802D01*
X18013847Y57424076D01*
X17518000Y57524488D01*
X16218000Y57524488D01*
X15754778Y57437327D01*
X15329337Y57163563D01*
X15043924Y56745847D01*
X14943512Y56250000D01*
X14943512Y54750000D01*
X14981144Y54550000D01*
X14756000Y54550000D01*
X14086304Y54416789D01*
X13518563Y54037437D01*
X13443488Y53962362D01*
X13443488Y56055000D01*
X13356327Y56518222D01*
X13082563Y56943663D01*
X12664847Y57229076D01*
X12169000Y57329488D01*
X8359000Y57329488D01*
X7895778Y57242327D01*
X7470337Y56968563D01*
X7184924Y56550847D01*
X7084512Y56055000D01*
X3565000Y56055000D01*
X3565000Y106285000D01*
X42155000Y106285000D01*
X42155000Y91514021D01*
M02*
