G04 #@! TF.FileFunction,Copper,L2,Bot,Signal*
%FSLAX46Y46*%
G04 Gerber Fmt 4.6, Leading zero omitted, Abs format (unit mm)*
G04 Created by KiCad (PCBNEW 4.0.6) date Monday, 06 September 2021 'PMt' 14:22:29*
%MOMM*%
%LPD*%
G01*
G04 APERTURE LIST*
%ADD10C,0.100000*%
%ADD11C,4.064000*%
%ADD12R,1.500000X1.250000*%
%ADD13C,1.300000*%
%ADD14R,1.300000X1.300000*%
%ADD15R,1.250000X1.500000*%
%ADD16C,1.998980*%
%ADD17R,2.540000X2.540000*%
%ADD18C,2.540000*%
%ADD19R,1.500000X1.300000*%
%ADD20R,1.300000X1.500000*%
%ADD21C,2.100000*%
%ADD22C,3.000000*%
%ADD23C,2.000000*%
%ADD24C,1.000000*%
%ADD25C,1.000000*%
G04 APERTURE END LIST*
D10*
D11*
X94742000Y51054000D03*
X94488000Y5334000D03*
X4064000Y5334000D03*
D12*
X15260000Y21336000D03*
X17760000Y21336000D03*
D13*
X28900000Y28194000D03*
D14*
X25400000Y28194000D03*
D15*
X47752000Y43414000D03*
X47752000Y40914000D03*
X92075000Y15387000D03*
X92075000Y17887000D03*
X91821000Y20721000D03*
X91821000Y23221000D03*
X91694000Y40660000D03*
X91694000Y43160000D03*
D12*
X17760000Y23876000D03*
X15260000Y23876000D03*
X45700000Y7366000D03*
X43200000Y7366000D03*
D15*
X36576000Y10140000D03*
X36576000Y7640000D03*
D12*
X15260000Y16256000D03*
X17760000Y16256000D03*
D16*
X29210000Y35052000D03*
X21590000Y35052000D03*
X27940000Y14224000D03*
X27940000Y6604000D03*
X23876000Y6604000D03*
X23876000Y14224000D03*
D17*
X88900000Y40386000D03*
D18*
X88900000Y35306000D03*
X88900000Y30226000D03*
D17*
X12192000Y26416000D03*
D18*
X12192000Y21336000D03*
X12192000Y16256000D03*
D17*
X88900000Y14732000D03*
D18*
X88900000Y19812000D03*
X88900000Y24892000D03*
D17*
X12192000Y41910000D03*
D18*
X12192000Y36830000D03*
X12192000Y31750000D03*
D19*
X45800000Y10160000D03*
X43100000Y10160000D03*
X83232000Y42164000D03*
X85932000Y42164000D03*
D20*
X20828000Y20654000D03*
X20828000Y17954000D03*
D19*
X17860000Y18796000D03*
X15160000Y18796000D03*
D20*
X20828000Y15066000D03*
X20828000Y12366000D03*
D19*
X82978000Y34036000D03*
X85678000Y34036000D03*
X83232000Y30226000D03*
X85932000Y30226000D03*
X83232000Y28194000D03*
X85932000Y28194000D03*
X82978000Y36830000D03*
X85678000Y36830000D03*
X83232000Y39878000D03*
X85932000Y39878000D03*
X83359000Y22987000D03*
X86059000Y22987000D03*
X83359000Y15367000D03*
X86059000Y15367000D03*
X83359000Y17907000D03*
X86059000Y17907000D03*
X83359000Y20701000D03*
X86059000Y20701000D03*
X15160000Y26416000D03*
X17860000Y26416000D03*
D20*
X48260000Y7540000D03*
X48260000Y10240000D03*
D19*
X17860000Y31496000D03*
X15160000Y31496000D03*
X15160000Y28956000D03*
X17860000Y28956000D03*
D20*
X34036000Y7540000D03*
X34036000Y10240000D03*
D21*
X50800000Y33274000D03*
X50800000Y38354000D03*
X35560000Y38354000D03*
X35560000Y30734000D03*
X35560000Y28194000D03*
X35560000Y25654000D03*
X50800000Y43434000D03*
X50800000Y40894000D03*
X50800000Y35814000D03*
X50800000Y30734000D03*
X50800000Y28194000D03*
X50800000Y25654000D03*
X50800000Y23114000D03*
X50800000Y20574000D03*
X50800000Y18034000D03*
X50800000Y15494000D03*
X35560000Y43434000D03*
X35560000Y40894000D03*
X35560000Y33274000D03*
X35560000Y23114000D03*
X35560000Y20574000D03*
X35560000Y18034000D03*
X35560000Y15494000D03*
X48260000Y15494000D03*
X45720000Y15494000D03*
X43180000Y15494000D03*
X48260000Y34544000D03*
X48260000Y32004000D03*
X35560000Y35814000D03*
D22*
X65278000Y45974000D03*
X70358000Y45974000D03*
D23*
X75438000Y10922000D03*
X72898000Y10922000D03*
X70358000Y10922000D03*
X60198000Y10922000D03*
X62738000Y10922000D03*
X65278000Y10922000D03*
X67818000Y10922000D03*
D15*
X91694000Y30246000D03*
X91694000Y32746000D03*
X91694000Y35326000D03*
X91694000Y37826000D03*
D16*
X17780000Y42672000D03*
X17780000Y35052000D03*
D11*
X4064000Y50800000D03*
D24*
X75692000Y22860000D03*
X75692000Y37846000D03*
X32258000Y39878000D03*
X20320000Y23368000D03*
X44958000Y34544000D03*
X62484000Y15494000D03*
X61722000Y23114000D03*
X33020000Y14224000D03*
X33528000Y49022000D03*
X79502000Y11176000D03*
X79248000Y36830000D03*
X79502000Y27940000D03*
X39624000Y9398000D03*
X41402000Y34036000D03*
X42672000Y48768000D03*
D25*
X21590000Y35052000D02*
X22606000Y35052000D01*
X25400000Y32258000D02*
X25400000Y28194000D01*
X22606000Y35052000D02*
X25400000Y32258000D01*
X21590000Y35052000D02*
X22860000Y35052000D01*
X32258000Y39878000D02*
X14224000Y39878000D01*
X14224000Y39878000D02*
X12192000Y41910000D01*
X50800000Y43434000D02*
X56134000Y43434000D01*
X80645000Y17907000D02*
X83359000Y17907000D01*
X75692000Y22860000D02*
X80645000Y17907000D01*
X61722000Y37846000D02*
X75692000Y37846000D01*
X56134000Y43434000D02*
X61722000Y37846000D01*
X44938000Y46228000D02*
X47752000Y43414000D01*
X34036000Y46228000D02*
X44938000Y46228000D01*
X33020000Y45212000D02*
X34036000Y46228000D01*
X33020000Y40640000D02*
X33020000Y45212000D01*
X32258000Y39878000D02*
X33020000Y40640000D01*
X83359000Y20701000D02*
X83359000Y17907000D01*
X50800000Y43434000D02*
X47772000Y43434000D01*
X47772000Y43434000D02*
X47752000Y43414000D01*
X86059000Y20701000D02*
X86059000Y22987000D01*
X86059000Y20701000D02*
X88773000Y20701000D01*
X88773000Y20701000D02*
X88900000Y20574000D01*
X91948000Y20594000D02*
X89174000Y20594000D01*
X89174000Y20594000D02*
X89154000Y20574000D01*
X86059000Y15367000D02*
X86059000Y17907000D01*
X86059000Y15367000D02*
X88773000Y15367000D01*
X88773000Y15367000D02*
X88900000Y15494000D01*
X91948000Y15260000D02*
X89388000Y15260000D01*
X89388000Y15260000D02*
X89154000Y15494000D01*
X19812000Y28956000D02*
X20320000Y28448000D01*
X20320000Y28448000D02*
X20320000Y23368000D01*
X48260000Y34544000D02*
X44958000Y34544000D01*
X19812000Y28956000D02*
X17860000Y28956000D01*
X17860000Y26416000D02*
X17860000Y28956000D01*
X17760000Y23876000D02*
X17760000Y26316000D01*
X17760000Y26316000D02*
X17860000Y26416000D01*
X45800000Y10160000D02*
X45800000Y7466000D01*
X45800000Y7466000D02*
X45700000Y7366000D01*
X48260000Y10240000D02*
X45880000Y10240000D01*
X45880000Y10240000D02*
X45800000Y10160000D01*
X48260000Y15494000D02*
X48260000Y10240000D01*
X17860000Y31496000D02*
X21844000Y31496000D01*
X22860000Y21336000D02*
X24130000Y20066000D01*
X22860000Y30480000D02*
X22860000Y21336000D01*
X21844000Y31496000D02*
X22860000Y30480000D01*
X30988000Y13288000D02*
X34036000Y10240000D01*
X30988000Y15240000D02*
X30988000Y13288000D01*
X29464000Y16764000D02*
X30988000Y15240000D01*
X25146000Y16764000D02*
X29464000Y16764000D01*
X24130000Y17780000D02*
X25146000Y16764000D01*
X24130000Y20574000D02*
X24130000Y20066000D01*
X24130000Y20066000D02*
X24130000Y17780000D01*
X34036000Y10240000D02*
X34036000Y10922000D01*
X34036000Y10240000D02*
X34036000Y10668000D01*
X36576000Y10140000D02*
X34136000Y10140000D01*
X34136000Y10140000D02*
X34036000Y10240000D01*
X45720000Y15494000D02*
X45720000Y13716000D01*
X36576000Y11430000D02*
X36576000Y10140000D01*
X37846000Y12700000D02*
X36576000Y11430000D01*
X44704000Y12700000D02*
X37846000Y12700000D01*
X45720000Y13716000D02*
X44704000Y12700000D01*
X34390000Y9886000D02*
X34290000Y9986000D01*
X12192000Y26416000D02*
X15414000Y26416000D01*
X12192000Y31750000D02*
X14906000Y31750000D01*
X14906000Y31750000D02*
X15160000Y31496000D01*
X11938000Y31496000D02*
X12192000Y31750000D01*
X15260000Y21336000D02*
X12192000Y21336000D01*
X12192000Y16256000D02*
X15260000Y16256000D01*
X50800000Y28194000D02*
X74422000Y28194000D01*
X79629000Y22987000D02*
X83359000Y22987000D01*
X74422000Y28194000D02*
X79629000Y22987000D01*
X50800000Y25654000D02*
X69596000Y25654000D01*
X79883000Y15367000D02*
X83359000Y15367000D01*
X69596000Y25654000D02*
X79883000Y15367000D01*
X50800000Y23114000D02*
X61722000Y23114000D01*
X62738000Y15240000D02*
X62738000Y10922000D01*
X62484000Y15494000D02*
X62738000Y15240000D01*
X50800000Y20574000D02*
X66040000Y20574000D01*
X67818000Y18796000D02*
X67818000Y10922000D01*
X66040000Y20574000D02*
X67818000Y18796000D01*
X50800000Y15494000D02*
X50800000Y13208000D01*
X70358000Y8890000D02*
X70358000Y10922000D01*
X69342000Y7874000D02*
X70358000Y8890000D01*
X56134000Y7874000D02*
X69342000Y7874000D01*
X50800000Y13208000D02*
X56134000Y7874000D01*
X50800000Y15494000D02*
X50800000Y15240000D01*
X20828000Y20654000D02*
X20146000Y21336000D01*
X20146000Y21336000D02*
X17760000Y21336000D01*
X17860000Y18796000D02*
X17860000Y16356000D01*
X17860000Y16356000D02*
X17760000Y16256000D01*
X33020000Y33274000D02*
X35560000Y33274000D01*
X32512000Y32766000D02*
X33020000Y33274000D01*
X32512000Y14732000D02*
X32512000Y32766000D01*
X33020000Y14224000D02*
X32512000Y14732000D01*
X20828000Y15066000D02*
X23034000Y15066000D01*
X23034000Y15066000D02*
X23876000Y14224000D01*
X20828000Y17954000D02*
X20828000Y15066000D01*
X27940000Y14224000D02*
X23876000Y14224000D01*
X7874000Y28956000D02*
X7874000Y44196000D01*
X30734000Y46228000D02*
X33528000Y49022000D01*
X9906000Y46228000D02*
X30734000Y46228000D01*
X7874000Y44196000D02*
X9906000Y46228000D01*
X33020000Y51562000D02*
X33020000Y49530000D01*
X33020000Y49530000D02*
X33528000Y49022000D01*
X15260000Y23876000D02*
X9652000Y23876000D01*
X9652000Y23876000D02*
X7874000Y25654000D01*
X15160000Y18796000D02*
X7874000Y18796000D01*
X7874000Y28956000D02*
X15160000Y28956000D01*
X7874000Y18796000D02*
X7874000Y25654000D01*
X7874000Y25654000D02*
X7874000Y28956000D01*
X93726000Y43942000D02*
X88646000Y43942000D01*
X81026000Y51562000D02*
X33020000Y51562000D01*
X33020000Y51562000D02*
X32766000Y51562000D01*
X88646000Y43942000D02*
X81026000Y51562000D01*
X93833000Y22713000D02*
X93833000Y33635000D01*
X93833000Y33635000D02*
X93980000Y33782000D01*
X72898000Y10922000D02*
X72898000Y12954000D01*
X93980000Y12446000D02*
X93980000Y18796000D01*
X92710000Y11176000D02*
X93980000Y12446000D01*
X83820000Y11176000D02*
X92710000Y11176000D01*
X81788000Y13208000D02*
X83820000Y11176000D01*
X73152000Y13208000D02*
X81788000Y13208000D01*
X72898000Y12954000D02*
X73152000Y13208000D01*
X48260000Y7540000D02*
X51134000Y7540000D01*
X72898000Y8382000D02*
X72898000Y10922000D01*
X70612000Y6096000D02*
X72898000Y8382000D01*
X52578000Y6096000D02*
X70612000Y6096000D01*
X51134000Y7540000D02*
X52578000Y6096000D01*
X29210000Y35052000D02*
X29718000Y35052000D01*
X29718000Y35052000D02*
X30480000Y35814000D01*
X30480000Y35814000D02*
X35560000Y35814000D01*
X29210000Y35052000D02*
X29210000Y28504000D01*
X29210000Y28504000D02*
X28900000Y28194000D01*
X23876000Y6604000D02*
X23876000Y8890000D01*
X31830000Y7540000D02*
X34036000Y7540000D01*
X30226000Y9144000D02*
X31830000Y7540000D01*
X24130000Y9144000D02*
X30226000Y9144000D01*
X23876000Y8890000D02*
X24130000Y9144000D01*
X88900000Y25654000D02*
X91694000Y25654000D01*
X91821000Y25527000D02*
X91821000Y23221000D01*
X91694000Y25654000D02*
X91821000Y25527000D01*
X43200000Y7366000D02*
X43200000Y6584000D01*
X48260000Y6604000D02*
X48260000Y7540000D01*
X47244000Y5588000D02*
X48260000Y6604000D01*
X44196000Y5588000D02*
X47244000Y5588000D01*
X43200000Y6584000D02*
X44196000Y5588000D01*
X36576000Y7640000D02*
X42926000Y7640000D01*
X42926000Y7640000D02*
X43200000Y7366000D01*
X37846000Y35814000D02*
X37846000Y34036000D01*
X43180000Y28702000D02*
X43180000Y15494000D01*
X37846000Y34036000D02*
X43180000Y28702000D01*
X47752000Y40914000D02*
X42946000Y40914000D01*
X37846000Y35814000D02*
X35560000Y35814000D01*
X42946000Y40914000D02*
X37846000Y35814000D01*
X91694000Y43160000D02*
X92944000Y43160000D01*
X92944000Y43160000D02*
X93726000Y43942000D01*
X93726000Y43942000D02*
X93980000Y44196000D01*
X91694000Y37826000D02*
X92944000Y37826000D01*
X92944000Y37826000D02*
X93980000Y38862000D01*
X50800000Y40894000D02*
X51562000Y40894000D01*
X92944000Y32746000D02*
X91694000Y32746000D01*
X93980000Y33782000D02*
X92944000Y32746000D01*
X93980000Y44196000D02*
X93980000Y38862000D01*
X93980000Y38862000D02*
X93980000Y33782000D01*
X50800000Y40894000D02*
X47772000Y40894000D01*
X47772000Y40894000D02*
X47752000Y40914000D01*
X34036000Y7540000D02*
X36476000Y7540000D01*
X36476000Y7540000D02*
X36576000Y7640000D01*
X91948000Y23094000D02*
X93452000Y23094000D01*
X93452000Y23094000D02*
X93833000Y22713000D01*
X93833000Y22713000D02*
X93980000Y22566000D01*
X93980000Y22566000D02*
X93980000Y18796000D01*
X92944000Y17760000D02*
X91948000Y17760000D01*
X93980000Y18796000D02*
X92944000Y17760000D01*
X15414000Y28956000D02*
X15240000Y28956000D01*
X91694000Y40660000D02*
X89174000Y40660000D01*
X89174000Y40660000D02*
X88900000Y40386000D01*
X85832000Y39624000D02*
X88138000Y39624000D01*
X88138000Y39624000D02*
X88900000Y40386000D01*
X85932000Y42164000D02*
X85932000Y39724000D01*
X85932000Y39724000D02*
X85832000Y39624000D01*
X91694000Y30246000D02*
X88920000Y30246000D01*
X88920000Y30246000D02*
X88900000Y30226000D01*
X85932000Y30226000D02*
X88900000Y30226000D01*
X85932000Y30226000D02*
X85932000Y28040000D01*
X85932000Y28040000D02*
X85832000Y27940000D01*
X91694000Y35326000D02*
X88920000Y35326000D01*
X88920000Y35326000D02*
X88900000Y35306000D01*
X85932000Y36322000D02*
X85932000Y33882000D01*
X85932000Y33882000D02*
X85832000Y33782000D01*
X85932000Y36322000D02*
X87884000Y36322000D01*
X87884000Y36322000D02*
X88900000Y35306000D01*
X75438000Y10922000D02*
X75438000Y6604000D01*
X30480000Y4064000D02*
X27940000Y6604000D01*
X72898000Y4064000D02*
X30480000Y4064000D01*
X75438000Y6604000D02*
X72898000Y4064000D01*
X79248000Y10922000D02*
X75438000Y10922000D01*
X79502000Y11176000D02*
X79248000Y10922000D01*
X83232000Y28194000D02*
X79756000Y28194000D01*
X79502000Y27940000D02*
X79756000Y28194000D01*
X82978000Y36830000D02*
X82978000Y39624000D01*
X82978000Y39624000D02*
X83232000Y39878000D01*
X50800000Y35814000D02*
X78232000Y35814000D01*
X79248000Y36830000D02*
X82978000Y36830000D01*
X78232000Y35814000D02*
X79248000Y36830000D01*
X20828000Y12366000D02*
X20828000Y4826000D01*
X20828000Y4826000D02*
X21844000Y3810000D01*
X21844000Y3810000D02*
X25146000Y3810000D01*
X25146000Y3810000D02*
X27940000Y6604000D01*
X40386000Y10160000D02*
X43100000Y10160000D01*
X39624000Y9398000D02*
X40386000Y10160000D01*
X12192000Y36830000D02*
X16002000Y36830000D01*
X16002000Y36830000D02*
X17780000Y35052000D01*
X83232000Y42164000D02*
X60706000Y42164000D01*
X43434000Y32004000D02*
X48260000Y32004000D01*
X41402000Y34036000D02*
X43434000Y32004000D01*
X54102000Y48768000D02*
X42672000Y48768000D01*
X60706000Y42164000D02*
X54102000Y48768000D01*
X50800000Y33274000D02*
X82216000Y33274000D01*
X82216000Y33274000D02*
X82978000Y34036000D01*
X50800000Y30734000D02*
X82724000Y30734000D01*
X82724000Y30734000D02*
X83232000Y30226000D01*
X50800000Y18034000D02*
X64008000Y18034000D01*
X65278000Y16764000D02*
X65278000Y10922000D01*
X64008000Y18034000D02*
X65278000Y16764000D01*
G36*
X95707000Y54477690D02*
X95447640Y54585386D01*
X94042524Y54586612D01*
X92743896Y54050030D01*
X91749462Y53057330D01*
X91210614Y51759640D01*
X91209388Y50354524D01*
X91745970Y49055896D01*
X92738670Y48061462D01*
X94036360Y47522614D01*
X95441476Y47521388D01*
X95707000Y47631100D01*
X95707000Y8652220D01*
X95193640Y8865386D01*
X93788524Y8866612D01*
X92489896Y8330030D01*
X91495462Y7337330D01*
X90956614Y6039640D01*
X90955388Y4634524D01*
X91491970Y3335896D01*
X92484670Y2341462D01*
X93107116Y2083000D01*
X72993524Y2083000D01*
X73663367Y2216241D01*
X74312214Y2649786D01*
X76852211Y5189784D01*
X76852214Y5189786D01*
X77285759Y5838633D01*
X77438000Y6604000D01*
X77438000Y8922000D01*
X79247995Y8922000D01*
X79248000Y8921999D01*
X80013367Y9074241D01*
X80597904Y9464815D01*
X80633429Y9479494D01*
X80660872Y9506890D01*
X80662214Y9507786D01*
X80915554Y9761127D01*
X81196529Y10041612D01*
X81501652Y10776430D01*
X81502346Y11572079D01*
X81198506Y12307429D01*
X80636388Y12870529D01*
X79901570Y13175652D01*
X79105921Y13176346D01*
X78490356Y12922000D01*
X76973940Y12922000D01*
X76855985Y13040161D01*
X75937462Y13421565D01*
X74942901Y13422433D01*
X74023714Y13042633D01*
X73319839Y12339985D01*
X72938435Y11421462D01*
X72937567Y10426901D01*
X73317367Y9507714D01*
X73438000Y9386870D01*
X73438000Y7432427D01*
X72069572Y6064000D01*
X70163877Y6064000D01*
X70756214Y6459786D01*
X71772214Y7475786D01*
X72205759Y8124633D01*
X72358001Y8890000D01*
X72358000Y8890005D01*
X72358000Y9386060D01*
X72476161Y9504015D01*
X72857565Y10422538D01*
X72858433Y11417099D01*
X72478633Y12336286D01*
X71775985Y13040161D01*
X70857462Y13421565D01*
X69862901Y13422433D01*
X69818000Y13403880D01*
X69818000Y18795995D01*
X69818001Y18796000D01*
X69665759Y19561367D01*
X69536539Y19754759D01*
X69232214Y20210214D01*
X69232211Y20210216D01*
X67454214Y21988214D01*
X66805367Y22421759D01*
X66040000Y22574001D01*
X66039995Y22574000D01*
X63663340Y22574000D01*
X63721652Y22714430D01*
X63722346Y23510079D01*
X63662879Y23654000D01*
X68767572Y23654000D01*
X78468786Y13952786D01*
X79117633Y13519241D01*
X79883000Y13366999D01*
X79883005Y13367000D01*
X81927792Y13367000D01*
X82013983Y13308108D01*
X82609000Y13187614D01*
X84109000Y13187614D01*
X84664867Y13292207D01*
X84702146Y13316196D01*
X84713983Y13308108D01*
X85309000Y13187614D01*
X86152243Y13187614D01*
X86205207Y12906133D01*
X86533724Y12395604D01*
X87034983Y12053108D01*
X87630000Y11932614D01*
X90170000Y11932614D01*
X90725867Y12037207D01*
X91236396Y12365724D01*
X91578892Y12866983D01*
X91627621Y13107614D01*
X92700000Y13107614D01*
X93255867Y13212207D01*
X93766396Y13540724D01*
X94108892Y14041983D01*
X94229386Y14637000D01*
X94229386Y16137000D01*
X94124793Y16692867D01*
X93796276Y17203396D01*
X93295017Y17545892D01*
X92700000Y17666386D01*
X91450000Y17666386D01*
X90894133Y17561793D01*
X90684854Y17427125D01*
X90474439Y17469736D01*
X91246923Y18240872D01*
X91330278Y18441614D01*
X92446000Y18441614D01*
X93001867Y18546207D01*
X93512396Y18874724D01*
X93854892Y19375983D01*
X93975386Y19971000D01*
X93975386Y21471000D01*
X93870793Y22026867D01*
X93542276Y22537396D01*
X93041017Y22879892D01*
X92446000Y23000386D01*
X91196000Y23000386D01*
X90640133Y22895793D01*
X90171134Y22594000D01*
X89310927Y22594000D01*
X88773000Y22701001D01*
X88772995Y22701000D01*
X88338386Y22701000D01*
X88338386Y23637000D01*
X88233793Y24192867D01*
X87905276Y24703396D01*
X87404017Y25045892D01*
X86809000Y25166386D01*
X85309000Y25166386D01*
X84753133Y25061793D01*
X84715854Y25037804D01*
X84704017Y25045892D01*
X84109000Y25166386D01*
X82609000Y25166386D01*
X82053133Y25061793D01*
X81936902Y24987000D01*
X80457428Y24987000D01*
X79504431Y25939997D01*
X79898079Y25939654D01*
X80513644Y26194000D01*
X81800792Y26194000D01*
X81886983Y26135108D01*
X82482000Y26014614D01*
X83982000Y26014614D01*
X84537867Y26119207D01*
X84575146Y26143196D01*
X84586983Y26135108D01*
X85182000Y26014614D01*
X85456888Y26014614D01*
X85832000Y25939999D01*
X86207112Y26014614D01*
X86682000Y26014614D01*
X87237867Y26119207D01*
X87748396Y26447724D01*
X88090892Y26948983D01*
X88205525Y27515059D01*
X88346596Y27456481D01*
X89448570Y27455520D01*
X90467029Y27876339D01*
X90643731Y28052733D01*
X91069000Y27966614D01*
X92319000Y27966614D01*
X92874867Y28071207D01*
X93385396Y28399724D01*
X93727892Y28900983D01*
X93848386Y29496000D01*
X93848386Y30996000D01*
X93743793Y31551867D01*
X93415276Y32062396D01*
X92914017Y32404892D01*
X92319000Y32525386D01*
X91069000Y32525386D01*
X90605620Y32438196D01*
X90471128Y32572923D01*
X90006260Y32765953D01*
X90467029Y32956339D01*
X90643731Y33132733D01*
X91069000Y33046614D01*
X92319000Y33046614D01*
X92874867Y33151207D01*
X93385396Y33479724D01*
X93727892Y33980983D01*
X93848386Y34576000D01*
X93848386Y36076000D01*
X93743793Y36631867D01*
X93415276Y37142396D01*
X92914017Y37484892D01*
X92319000Y37605386D01*
X91069000Y37605386D01*
X90605620Y37518196D01*
X90479236Y37644800D01*
X90725867Y37691207D01*
X91236396Y38019724D01*
X91482982Y38380614D01*
X92319000Y38380614D01*
X92874867Y38485207D01*
X93385396Y38813724D01*
X93727892Y39314983D01*
X93848386Y39910000D01*
X93848386Y41410000D01*
X93743793Y41965867D01*
X93415276Y42476396D01*
X92914017Y42818892D01*
X92319000Y42939386D01*
X91069000Y42939386D01*
X90974676Y42921638D01*
X90765017Y43064892D01*
X90170000Y43185386D01*
X88141505Y43185386D01*
X88106793Y43369867D01*
X87778276Y43880396D01*
X87277017Y44222892D01*
X86682000Y44343386D01*
X85182000Y44343386D01*
X84626133Y44238793D01*
X84588854Y44214804D01*
X84577017Y44222892D01*
X83982000Y44343386D01*
X82482000Y44343386D01*
X81926133Y44238793D01*
X81809902Y44164000D01*
X72791186Y44164000D01*
X72899793Y44272418D01*
X73357478Y45374645D01*
X73358519Y46568119D01*
X72902759Y47671143D01*
X72059582Y48515793D01*
X70957355Y48973478D01*
X69763881Y48974519D01*
X68660857Y48518759D01*
X67817269Y47676642D01*
X66979582Y48515793D01*
X65877355Y48973478D01*
X64683881Y48974519D01*
X63580857Y48518759D01*
X62736207Y47675582D01*
X62278522Y46573355D01*
X62277481Y45379881D01*
X62733241Y44276857D01*
X62845901Y44164000D01*
X61534427Y44164000D01*
X55516214Y50182214D01*
X54867367Y50615759D01*
X54102000Y50768001D01*
X54101995Y50768000D01*
X42672599Y50768000D01*
X42275921Y50768346D01*
X41540571Y50464506D01*
X40977471Y49902388D01*
X40672348Y49167570D01*
X40671654Y48371921D01*
X40731121Y48228000D01*
X34036005Y48228000D01*
X34036000Y48228001D01*
X33270633Y48075759D01*
X32621786Y47642214D01*
X31605786Y46626214D01*
X31172241Y45977367D01*
X31019999Y45212000D01*
X31020000Y45211995D01*
X31020000Y41878000D01*
X20156710Y41878000D01*
X20279055Y42172639D01*
X20279923Y43166998D01*
X19900200Y44085998D01*
X19197696Y44789729D01*
X18279361Y45171055D01*
X17285002Y45171923D01*
X16366002Y44792200D01*
X15662271Y44089696D01*
X15280945Y43171361D01*
X15280077Y42177002D01*
X15403622Y41878000D01*
X15052428Y41878000D01*
X14991386Y41939042D01*
X14991386Y43180000D01*
X14886793Y43735867D01*
X14558276Y44246396D01*
X14057017Y44588892D01*
X13462000Y44709386D01*
X10922000Y44709386D01*
X10366133Y44604793D01*
X9855604Y44276276D01*
X9513108Y43775017D01*
X9392614Y43180000D01*
X9392614Y40640000D01*
X9497207Y40084133D01*
X9825724Y39573604D01*
X10326983Y39231108D01*
X10617561Y39172264D01*
X9845077Y38401128D01*
X9422481Y37383404D01*
X9421520Y36281430D01*
X9842339Y35262971D01*
X10620872Y34483077D01*
X11085740Y34290047D01*
X10624971Y34099661D01*
X9845077Y33321128D01*
X9422481Y32303404D01*
X9421520Y31201430D01*
X9842339Y30182971D01*
X10620872Y29403077D01*
X11072882Y29215386D01*
X10922000Y29215386D01*
X10366133Y29110793D01*
X9855604Y28782276D01*
X9513108Y28281017D01*
X9392614Y27686000D01*
X9392614Y25146000D01*
X9497207Y24590133D01*
X9825724Y24079604D01*
X10326983Y23737108D01*
X10617561Y23678264D01*
X9845077Y22907128D01*
X9422481Y21889404D01*
X9421520Y20787430D01*
X9842339Y19768971D01*
X10620872Y18989077D01*
X11085740Y18796047D01*
X10624971Y18605661D01*
X9845077Y17827128D01*
X9422481Y16809404D01*
X9421520Y15707430D01*
X9842339Y14688971D01*
X10620872Y13909077D01*
X11638596Y13486481D01*
X12740570Y13485520D01*
X13759029Y13906339D01*
X14048305Y14195110D01*
X14510000Y14101614D01*
X16010000Y14101614D01*
X16528357Y14199149D01*
X17010000Y14101614D01*
X18510000Y14101614D01*
X18682834Y14134135D01*
X18753207Y13760133D01*
X18777196Y13722854D01*
X18769108Y13711017D01*
X18648614Y13116000D01*
X18648614Y11616000D01*
X18753207Y11060133D01*
X18828000Y10943902D01*
X18828000Y4826005D01*
X18827999Y4826000D01*
X18980241Y4060633D01*
X19413786Y3411786D01*
X20429786Y2395786D01*
X20897904Y2083000D01*
X5445029Y2083000D01*
X6062104Y2337970D01*
X7056538Y3330670D01*
X7595386Y4628360D01*
X7596612Y6033476D01*
X7060030Y7332104D01*
X6067330Y8326538D01*
X4769640Y8865386D01*
X3364524Y8866612D01*
X2591000Y8546998D01*
X2591000Y47587250D01*
X3358360Y47268614D01*
X4763476Y47267388D01*
X6062104Y47803970D01*
X7056538Y48796670D01*
X7595386Y50094360D01*
X7596612Y51499476D01*
X7060030Y52798104D01*
X6067330Y53792538D01*
X4769640Y54331386D01*
X3364524Y54332612D01*
X2591000Y54012998D01*
X2591000Y54813000D01*
X95707000Y54813000D01*
X95707000Y54477690D01*
X95707000Y54477690D01*
G37*
X95707000Y54477690D02*
X95447640Y54585386D01*
X94042524Y54586612D01*
X92743896Y54050030D01*
X91749462Y53057330D01*
X91210614Y51759640D01*
X91209388Y50354524D01*
X91745970Y49055896D01*
X92738670Y48061462D01*
X94036360Y47522614D01*
X95441476Y47521388D01*
X95707000Y47631100D01*
X95707000Y8652220D01*
X95193640Y8865386D01*
X93788524Y8866612D01*
X92489896Y8330030D01*
X91495462Y7337330D01*
X90956614Y6039640D01*
X90955388Y4634524D01*
X91491970Y3335896D01*
X92484670Y2341462D01*
X93107116Y2083000D01*
X72993524Y2083000D01*
X73663367Y2216241D01*
X74312214Y2649786D01*
X76852211Y5189784D01*
X76852214Y5189786D01*
X77285759Y5838633D01*
X77438000Y6604000D01*
X77438000Y8922000D01*
X79247995Y8922000D01*
X79248000Y8921999D01*
X80013367Y9074241D01*
X80597904Y9464815D01*
X80633429Y9479494D01*
X80660872Y9506890D01*
X80662214Y9507786D01*
X80915554Y9761127D01*
X81196529Y10041612D01*
X81501652Y10776430D01*
X81502346Y11572079D01*
X81198506Y12307429D01*
X80636388Y12870529D01*
X79901570Y13175652D01*
X79105921Y13176346D01*
X78490356Y12922000D01*
X76973940Y12922000D01*
X76855985Y13040161D01*
X75937462Y13421565D01*
X74942901Y13422433D01*
X74023714Y13042633D01*
X73319839Y12339985D01*
X72938435Y11421462D01*
X72937567Y10426901D01*
X73317367Y9507714D01*
X73438000Y9386870D01*
X73438000Y7432427D01*
X72069572Y6064000D01*
X70163877Y6064000D01*
X70756214Y6459786D01*
X71772214Y7475786D01*
X72205759Y8124633D01*
X72358001Y8890000D01*
X72358000Y8890005D01*
X72358000Y9386060D01*
X72476161Y9504015D01*
X72857565Y10422538D01*
X72858433Y11417099D01*
X72478633Y12336286D01*
X71775985Y13040161D01*
X70857462Y13421565D01*
X69862901Y13422433D01*
X69818000Y13403880D01*
X69818000Y18795995D01*
X69818001Y18796000D01*
X69665759Y19561367D01*
X69536539Y19754759D01*
X69232214Y20210214D01*
X69232211Y20210216D01*
X67454214Y21988214D01*
X66805367Y22421759D01*
X66040000Y22574001D01*
X66039995Y22574000D01*
X63663340Y22574000D01*
X63721652Y22714430D01*
X63722346Y23510079D01*
X63662879Y23654000D01*
X68767572Y23654000D01*
X78468786Y13952786D01*
X79117633Y13519241D01*
X79883000Y13366999D01*
X79883005Y13367000D01*
X81927792Y13367000D01*
X82013983Y13308108D01*
X82609000Y13187614D01*
X84109000Y13187614D01*
X84664867Y13292207D01*
X84702146Y13316196D01*
X84713983Y13308108D01*
X85309000Y13187614D01*
X86152243Y13187614D01*
X86205207Y12906133D01*
X86533724Y12395604D01*
X87034983Y12053108D01*
X87630000Y11932614D01*
X90170000Y11932614D01*
X90725867Y12037207D01*
X91236396Y12365724D01*
X91578892Y12866983D01*
X91627621Y13107614D01*
X92700000Y13107614D01*
X93255867Y13212207D01*
X93766396Y13540724D01*
X94108892Y14041983D01*
X94229386Y14637000D01*
X94229386Y16137000D01*
X94124793Y16692867D01*
X93796276Y17203396D01*
X93295017Y17545892D01*
X92700000Y17666386D01*
X91450000Y17666386D01*
X90894133Y17561793D01*
X90684854Y17427125D01*
X90474439Y17469736D01*
X91246923Y18240872D01*
X91330278Y18441614D01*
X92446000Y18441614D01*
X93001867Y18546207D01*
X93512396Y18874724D01*
X93854892Y19375983D01*
X93975386Y19971000D01*
X93975386Y21471000D01*
X93870793Y22026867D01*
X93542276Y22537396D01*
X93041017Y22879892D01*
X92446000Y23000386D01*
X91196000Y23000386D01*
X90640133Y22895793D01*
X90171134Y22594000D01*
X89310927Y22594000D01*
X88773000Y22701001D01*
X88772995Y22701000D01*
X88338386Y22701000D01*
X88338386Y23637000D01*
X88233793Y24192867D01*
X87905276Y24703396D01*
X87404017Y25045892D01*
X86809000Y25166386D01*
X85309000Y25166386D01*
X84753133Y25061793D01*
X84715854Y25037804D01*
X84704017Y25045892D01*
X84109000Y25166386D01*
X82609000Y25166386D01*
X82053133Y25061793D01*
X81936902Y24987000D01*
X80457428Y24987000D01*
X79504431Y25939997D01*
X79898079Y25939654D01*
X80513644Y26194000D01*
X81800792Y26194000D01*
X81886983Y26135108D01*
X82482000Y26014614D01*
X83982000Y26014614D01*
X84537867Y26119207D01*
X84575146Y26143196D01*
X84586983Y26135108D01*
X85182000Y26014614D01*
X85456888Y26014614D01*
X85832000Y25939999D01*
X86207112Y26014614D01*
X86682000Y26014614D01*
X87237867Y26119207D01*
X87748396Y26447724D01*
X88090892Y26948983D01*
X88205525Y27515059D01*
X88346596Y27456481D01*
X89448570Y27455520D01*
X90467029Y27876339D01*
X90643731Y28052733D01*
X91069000Y27966614D01*
X92319000Y27966614D01*
X92874867Y28071207D01*
X93385396Y28399724D01*
X93727892Y28900983D01*
X93848386Y29496000D01*
X93848386Y30996000D01*
X93743793Y31551867D01*
X93415276Y32062396D01*
X92914017Y32404892D01*
X92319000Y32525386D01*
X91069000Y32525386D01*
X90605620Y32438196D01*
X90471128Y32572923D01*
X90006260Y32765953D01*
X90467029Y32956339D01*
X90643731Y33132733D01*
X91069000Y33046614D01*
X92319000Y33046614D01*
X92874867Y33151207D01*
X93385396Y33479724D01*
X93727892Y33980983D01*
X93848386Y34576000D01*
X93848386Y36076000D01*
X93743793Y36631867D01*
X93415276Y37142396D01*
X92914017Y37484892D01*
X92319000Y37605386D01*
X91069000Y37605386D01*
X90605620Y37518196D01*
X90479236Y37644800D01*
X90725867Y37691207D01*
X91236396Y38019724D01*
X91482982Y38380614D01*
X92319000Y38380614D01*
X92874867Y38485207D01*
X93385396Y38813724D01*
X93727892Y39314983D01*
X93848386Y39910000D01*
X93848386Y41410000D01*
X93743793Y41965867D01*
X93415276Y42476396D01*
X92914017Y42818892D01*
X92319000Y42939386D01*
X91069000Y42939386D01*
X90974676Y42921638D01*
X90765017Y43064892D01*
X90170000Y43185386D01*
X88141505Y43185386D01*
X88106793Y43369867D01*
X87778276Y43880396D01*
X87277017Y44222892D01*
X86682000Y44343386D01*
X85182000Y44343386D01*
X84626133Y44238793D01*
X84588854Y44214804D01*
X84577017Y44222892D01*
X83982000Y44343386D01*
X82482000Y44343386D01*
X81926133Y44238793D01*
X81809902Y44164000D01*
X72791186Y44164000D01*
X72899793Y44272418D01*
X73357478Y45374645D01*
X73358519Y46568119D01*
X72902759Y47671143D01*
X72059582Y48515793D01*
X70957355Y48973478D01*
X69763881Y48974519D01*
X68660857Y48518759D01*
X67817269Y47676642D01*
X66979582Y48515793D01*
X65877355Y48973478D01*
X64683881Y48974519D01*
X63580857Y48518759D01*
X62736207Y47675582D01*
X62278522Y46573355D01*
X62277481Y45379881D01*
X62733241Y44276857D01*
X62845901Y44164000D01*
X61534427Y44164000D01*
X55516214Y50182214D01*
X54867367Y50615759D01*
X54102000Y50768001D01*
X54101995Y50768000D01*
X42672599Y50768000D01*
X42275921Y50768346D01*
X41540571Y50464506D01*
X40977471Y49902388D01*
X40672348Y49167570D01*
X40671654Y48371921D01*
X40731121Y48228000D01*
X34036005Y48228000D01*
X34036000Y48228001D01*
X33270633Y48075759D01*
X32621786Y47642214D01*
X31605786Y46626214D01*
X31172241Y45977367D01*
X31019999Y45212000D01*
X31020000Y45211995D01*
X31020000Y41878000D01*
X20156710Y41878000D01*
X20279055Y42172639D01*
X20279923Y43166998D01*
X19900200Y44085998D01*
X19197696Y44789729D01*
X18279361Y45171055D01*
X17285002Y45171923D01*
X16366002Y44792200D01*
X15662271Y44089696D01*
X15280945Y43171361D01*
X15280077Y42177002D01*
X15403622Y41878000D01*
X15052428Y41878000D01*
X14991386Y41939042D01*
X14991386Y43180000D01*
X14886793Y43735867D01*
X14558276Y44246396D01*
X14057017Y44588892D01*
X13462000Y44709386D01*
X10922000Y44709386D01*
X10366133Y44604793D01*
X9855604Y44276276D01*
X9513108Y43775017D01*
X9392614Y43180000D01*
X9392614Y40640000D01*
X9497207Y40084133D01*
X9825724Y39573604D01*
X10326983Y39231108D01*
X10617561Y39172264D01*
X9845077Y38401128D01*
X9422481Y37383404D01*
X9421520Y36281430D01*
X9842339Y35262971D01*
X10620872Y34483077D01*
X11085740Y34290047D01*
X10624971Y34099661D01*
X9845077Y33321128D01*
X9422481Y32303404D01*
X9421520Y31201430D01*
X9842339Y30182971D01*
X10620872Y29403077D01*
X11072882Y29215386D01*
X10922000Y29215386D01*
X10366133Y29110793D01*
X9855604Y28782276D01*
X9513108Y28281017D01*
X9392614Y27686000D01*
X9392614Y25146000D01*
X9497207Y24590133D01*
X9825724Y24079604D01*
X10326983Y23737108D01*
X10617561Y23678264D01*
X9845077Y22907128D01*
X9422481Y21889404D01*
X9421520Y20787430D01*
X9842339Y19768971D01*
X10620872Y18989077D01*
X11085740Y18796047D01*
X10624971Y18605661D01*
X9845077Y17827128D01*
X9422481Y16809404D01*
X9421520Y15707430D01*
X9842339Y14688971D01*
X10620872Y13909077D01*
X11638596Y13486481D01*
X12740570Y13485520D01*
X13759029Y13906339D01*
X14048305Y14195110D01*
X14510000Y14101614D01*
X16010000Y14101614D01*
X16528357Y14199149D01*
X17010000Y14101614D01*
X18510000Y14101614D01*
X18682834Y14134135D01*
X18753207Y13760133D01*
X18777196Y13722854D01*
X18769108Y13711017D01*
X18648614Y13116000D01*
X18648614Y11616000D01*
X18753207Y11060133D01*
X18828000Y10943902D01*
X18828000Y4826005D01*
X18827999Y4826000D01*
X18980241Y4060633D01*
X19413786Y3411786D01*
X20429786Y2395786D01*
X20897904Y2083000D01*
X5445029Y2083000D01*
X6062104Y2337970D01*
X7056538Y3330670D01*
X7595386Y4628360D01*
X7596612Y6033476D01*
X7060030Y7332104D01*
X6067330Y8326538D01*
X4769640Y8865386D01*
X3364524Y8866612D01*
X2591000Y8546998D01*
X2591000Y47587250D01*
X3358360Y47268614D01*
X4763476Y47267388D01*
X6062104Y47803970D01*
X7056538Y48796670D01*
X7595386Y50094360D01*
X7596612Y51499476D01*
X7060030Y52798104D01*
X6067330Y53792538D01*
X4769640Y54331386D01*
X3364524Y54332612D01*
X2591000Y54012998D01*
X2591000Y54813000D01*
X95707000Y54813000D01*
X95707000Y54477690D01*
G36*
X26522304Y12106271D02*
X27440639Y11724945D01*
X28434998Y11724077D01*
X29353998Y12103800D01*
X29393648Y12143381D01*
X29573786Y11873786D01*
X31856614Y9590958D01*
X31856614Y9490000D01*
X31961207Y8934133D01*
X32289724Y8423604D01*
X32790983Y8081108D01*
X33386000Y7960614D01*
X34014890Y7960614D01*
X34390000Y7886000D01*
X35155366Y8038241D01*
X35177636Y8053121D01*
X35234836Y8063884D01*
X35355983Y7981108D01*
X35951000Y7860614D01*
X37201000Y7860614D01*
X37756867Y7965207D01*
X38043933Y8149929D01*
X38489612Y7703471D01*
X39224430Y7398348D01*
X39623998Y7397999D01*
X39624002Y7397999D01*
X40020079Y7397654D01*
X40755429Y7701494D01*
X41214736Y8160000D01*
X41668792Y8160000D01*
X41754983Y8101108D01*
X42350000Y7980614D01*
X43420614Y7980614D01*
X43420614Y6741000D01*
X43525207Y6185133D01*
X43603154Y6064000D01*
X31308427Y6064000D01*
X30439778Y6932650D01*
X30439923Y7098998D01*
X30060200Y8017998D01*
X29357696Y8721729D01*
X28439361Y9103055D01*
X27445002Y9103923D01*
X26526002Y8724200D01*
X25822271Y8021696D01*
X25440945Y7103361D01*
X25440796Y6933224D01*
X24317572Y5810000D01*
X22828000Y5810000D01*
X22828000Y10934792D01*
X22886892Y11020983D01*
X23007386Y11616000D01*
X23007386Y11878272D01*
X23376639Y11724945D01*
X24370998Y11724077D01*
X25289998Y12103800D01*
X25410408Y12224000D01*
X26404780Y12224000D01*
X26522304Y12106271D01*
X26522304Y12106271D01*
G37*
X26522304Y12106271D02*
X27440639Y11724945D01*
X28434998Y11724077D01*
X29353998Y12103800D01*
X29393648Y12143381D01*
X29573786Y11873786D01*
X31856614Y9590958D01*
X31856614Y9490000D01*
X31961207Y8934133D01*
X32289724Y8423604D01*
X32790983Y8081108D01*
X33386000Y7960614D01*
X34014890Y7960614D01*
X34390000Y7886000D01*
X35155366Y8038241D01*
X35177636Y8053121D01*
X35234836Y8063884D01*
X35355983Y7981108D01*
X35951000Y7860614D01*
X37201000Y7860614D01*
X37756867Y7965207D01*
X38043933Y8149929D01*
X38489612Y7703471D01*
X39224430Y7398348D01*
X39623998Y7397999D01*
X39624002Y7397999D01*
X40020079Y7397654D01*
X40755429Y7701494D01*
X41214736Y8160000D01*
X41668792Y8160000D01*
X41754983Y8101108D01*
X42350000Y7980614D01*
X43420614Y7980614D01*
X43420614Y6741000D01*
X43525207Y6185133D01*
X43603154Y6064000D01*
X31308427Y6064000D01*
X30439778Y6932650D01*
X30439923Y7098998D01*
X30060200Y8017998D01*
X29357696Y8721729D01*
X28439361Y9103055D01*
X27445002Y9103923D01*
X26526002Y8724200D01*
X25822271Y8021696D01*
X25440945Y7103361D01*
X25440796Y6933224D01*
X24317572Y5810000D01*
X22828000Y5810000D01*
X22828000Y10934792D01*
X22886892Y11020983D01*
X23007386Y11616000D01*
X23007386Y11878272D01*
X23376639Y11724945D01*
X24370998Y11724077D01*
X25289998Y12103800D01*
X25410408Y12224000D01*
X26404780Y12224000D01*
X26522304Y12106271D01*
G36*
X54719784Y6459789D02*
X54719786Y6459786D01*
X55244772Y6109002D01*
X55312123Y6064000D01*
X47802875Y6064000D01*
X47858892Y6145983D01*
X47979386Y6741000D01*
X47979386Y7960614D01*
X48910000Y7960614D01*
X49465867Y8065207D01*
X49976396Y8393724D01*
X50318892Y8894983D01*
X50439386Y9490000D01*
X50439386Y10740186D01*
X54719784Y6459789D01*
X54719784Y6459789D01*
G37*
X54719784Y6459789D02*
X54719786Y6459786D01*
X55244772Y6109002D01*
X55312123Y6064000D01*
X47802875Y6064000D01*
X47858892Y6145983D01*
X47979386Y6741000D01*
X47979386Y7960614D01*
X48910000Y7960614D01*
X49465867Y8065207D01*
X49976396Y8393724D01*
X50318892Y8894983D01*
X50439386Y9490000D01*
X50439386Y10740186D01*
X54719784Y6459789D01*
G36*
X45597614Y42739958D02*
X45597614Y42664000D01*
X45702207Y42108133D01*
X46030724Y41597604D01*
X46531983Y41255108D01*
X47127000Y41134614D01*
X48377000Y41134614D01*
X48932867Y41239207D01*
X49209905Y41417477D01*
X49353655Y41273476D01*
X50268630Y40893545D01*
X49357428Y40517045D01*
X48639476Y39800345D01*
X48250444Y38863452D01*
X48249559Y37848999D01*
X48561626Y37093737D01*
X47754999Y37094441D01*
X46817428Y36707045D01*
X46654098Y36544000D01*
X44958599Y36544000D01*
X44561921Y36544346D01*
X43826571Y36240506D01*
X43263471Y35678388D01*
X43065297Y35201131D01*
X42816214Y35450214D01*
X42536388Y35730529D01*
X41801570Y36035652D01*
X41402002Y36036001D01*
X41401998Y36036001D01*
X41005921Y36036346D01*
X40270571Y35732506D01*
X39707471Y35170388D01*
X39402348Y34435570D01*
X39401654Y33639921D01*
X39705494Y32904571D01*
X40267612Y32341471D01*
X40268448Y32341124D01*
X42019786Y30589786D01*
X42668633Y30156241D01*
X43434000Y30003999D01*
X43434005Y30004000D01*
X46653411Y30004000D01*
X46813655Y29843476D01*
X47750548Y29454444D01*
X48561989Y29453736D01*
X48250444Y28703452D01*
X48249559Y27688999D01*
X48565950Y26923274D01*
X48250444Y26163452D01*
X48249559Y25148999D01*
X48565950Y24383274D01*
X48250444Y23623452D01*
X48249559Y22608999D01*
X48565950Y21843274D01*
X48250444Y21083452D01*
X48249559Y20068999D01*
X48565950Y19303274D01*
X48250444Y18543452D01*
X48250008Y18044009D01*
X47754999Y18044441D01*
X46989274Y17728050D01*
X46229452Y18043556D01*
X45214999Y18044441D01*
X44277428Y17657045D01*
X43559476Y16940345D01*
X43170444Y16003452D01*
X43169559Y14988999D01*
X43288971Y14700000D01*
X37991401Y14700000D01*
X38109556Y14984548D01*
X38110441Y15999001D01*
X37794050Y16764726D01*
X38109556Y17524548D01*
X38110441Y18539001D01*
X37794050Y19304726D01*
X38109556Y20064548D01*
X38110441Y21079001D01*
X37794050Y21844726D01*
X38109556Y22604548D01*
X38110441Y23619001D01*
X37794050Y24384726D01*
X38109556Y25144548D01*
X38110441Y26159001D01*
X37794050Y26924726D01*
X38109556Y27684548D01*
X38110441Y28699001D01*
X37794050Y29464726D01*
X38109556Y30224548D01*
X38110441Y31239001D01*
X37794050Y32004726D01*
X38109556Y32764548D01*
X38110441Y33779001D01*
X37723045Y34716572D01*
X37006345Y35434524D01*
X36091370Y35814455D01*
X37002572Y36190955D01*
X37720524Y36907655D01*
X38109556Y37844548D01*
X38110441Y38859001D01*
X37794050Y39624726D01*
X38109556Y40384548D01*
X38110441Y41399001D01*
X37794050Y42164726D01*
X38109556Y42924548D01*
X38110441Y43939001D01*
X37991029Y44228000D01*
X44109572Y44228000D01*
X45597614Y42739958D01*
X45597614Y42739958D01*
G37*
X45597614Y42739958D02*
X45597614Y42664000D01*
X45702207Y42108133D01*
X46030724Y41597604D01*
X46531983Y41255108D01*
X47127000Y41134614D01*
X48377000Y41134614D01*
X48932867Y41239207D01*
X49209905Y41417477D01*
X49353655Y41273476D01*
X50268630Y40893545D01*
X49357428Y40517045D01*
X48639476Y39800345D01*
X48250444Y38863452D01*
X48249559Y37848999D01*
X48561626Y37093737D01*
X47754999Y37094441D01*
X46817428Y36707045D01*
X46654098Y36544000D01*
X44958599Y36544000D01*
X44561921Y36544346D01*
X43826571Y36240506D01*
X43263471Y35678388D01*
X43065297Y35201131D01*
X42816214Y35450214D01*
X42536388Y35730529D01*
X41801570Y36035652D01*
X41402002Y36036001D01*
X41401998Y36036001D01*
X41005921Y36036346D01*
X40270571Y35732506D01*
X39707471Y35170388D01*
X39402348Y34435570D01*
X39401654Y33639921D01*
X39705494Y32904571D01*
X40267612Y32341471D01*
X40268448Y32341124D01*
X42019786Y30589786D01*
X42668633Y30156241D01*
X43434000Y30003999D01*
X43434005Y30004000D01*
X46653411Y30004000D01*
X46813655Y29843476D01*
X47750548Y29454444D01*
X48561989Y29453736D01*
X48250444Y28703452D01*
X48249559Y27688999D01*
X48565950Y26923274D01*
X48250444Y26163452D01*
X48249559Y25148999D01*
X48565950Y24383274D01*
X48250444Y23623452D01*
X48249559Y22608999D01*
X48565950Y21843274D01*
X48250444Y21083452D01*
X48249559Y20068999D01*
X48565950Y19303274D01*
X48250444Y18543452D01*
X48250008Y18044009D01*
X47754999Y18044441D01*
X46989274Y17728050D01*
X46229452Y18043556D01*
X45214999Y18044441D01*
X44277428Y17657045D01*
X43559476Y16940345D01*
X43170444Y16003452D01*
X43169559Y14988999D01*
X43288971Y14700000D01*
X37991401Y14700000D01*
X38109556Y14984548D01*
X38110441Y15999001D01*
X37794050Y16764726D01*
X38109556Y17524548D01*
X38110441Y18539001D01*
X37794050Y19304726D01*
X38109556Y20064548D01*
X38110441Y21079001D01*
X37794050Y21844726D01*
X38109556Y22604548D01*
X38110441Y23619001D01*
X37794050Y24384726D01*
X38109556Y25144548D01*
X38110441Y26159001D01*
X37794050Y26924726D01*
X38109556Y27684548D01*
X38110441Y28699001D01*
X37794050Y29464726D01*
X38109556Y30224548D01*
X38110441Y31239001D01*
X37794050Y32004726D01*
X38109556Y32764548D01*
X38110441Y33779001D01*
X37723045Y34716572D01*
X37006345Y35434524D01*
X36091370Y35814455D01*
X37002572Y36190955D01*
X37720524Y36907655D01*
X38109556Y37844548D01*
X38110441Y38859001D01*
X37794050Y39624726D01*
X38109556Y40384548D01*
X38110441Y41399001D01*
X37794050Y42164726D01*
X38109556Y42924548D01*
X38110441Y43939001D01*
X37991029Y44228000D01*
X44109572Y44228000D01*
X45597614Y42739958D01*
G36*
X14510000Y19181614D02*
X15580614Y19181614D01*
X15580614Y18410386D01*
X14510000Y18410386D01*
X14043040Y18322522D01*
X13763128Y18602923D01*
X13298260Y18795953D01*
X13759029Y18986339D01*
X14048305Y19275110D01*
X14510000Y19181614D01*
X14510000Y19181614D01*
G37*
X14510000Y19181614D02*
X15580614Y19181614D01*
X15580614Y18410386D01*
X14510000Y18410386D01*
X14043040Y18322522D01*
X13763128Y18602923D01*
X13298260Y18795953D01*
X13759029Y18986339D01*
X14048305Y19275110D01*
X14510000Y19181614D01*
G36*
X33009559Y37848999D02*
X33396955Y36911428D01*
X34113655Y36193476D01*
X35028630Y35813545D01*
X34117428Y35437045D01*
X33954098Y35274000D01*
X33020000Y35274000D01*
X32254633Y35121759D01*
X31605786Y34688214D01*
X31605784Y34688211D01*
X31097786Y34180214D01*
X30664241Y33531367D01*
X30511999Y32766000D01*
X30512000Y32765995D01*
X30512000Y18422910D01*
X30229367Y18611759D01*
X29464000Y18764001D01*
X29463995Y18764000D01*
X26130000Y18764000D01*
X26130000Y20574000D01*
X25977759Y21339367D01*
X25544214Y21988214D01*
X24895367Y22421759D01*
X24860000Y22428794D01*
X24860000Y26014614D01*
X26050000Y26014614D01*
X26605867Y26119207D01*
X27116396Y26447724D01*
X27458892Y26948983D01*
X27579386Y27544000D01*
X27579386Y28844000D01*
X27474793Y29399867D01*
X27400000Y29516098D01*
X27400000Y32257995D01*
X27400001Y32258000D01*
X27247759Y33023367D01*
X27082541Y33270633D01*
X26814214Y33672214D01*
X26814211Y33672216D01*
X24717368Y35769060D01*
X24707759Y35817367D01*
X24274214Y36466214D01*
X23625367Y36899759D01*
X23190931Y36986174D01*
X23007696Y37169729D01*
X22089361Y37551055D01*
X21095002Y37551923D01*
X20176002Y37172200D01*
X19684760Y36681814D01*
X19197696Y37169729D01*
X18279361Y37551055D01*
X18109224Y37551204D01*
X17782428Y37878000D01*
X32257401Y37878000D01*
X32257998Y37877999D01*
X32258002Y37877999D01*
X32654079Y37877654D01*
X33009712Y38024598D01*
X33009559Y37848999D01*
X33009559Y37848999D01*
G37*
X33009559Y37848999D02*
X33396955Y36911428D01*
X34113655Y36193476D01*
X35028630Y35813545D01*
X34117428Y35437045D01*
X33954098Y35274000D01*
X33020000Y35274000D01*
X32254633Y35121759D01*
X31605786Y34688214D01*
X31605784Y34688211D01*
X31097786Y34180214D01*
X30664241Y33531367D01*
X30511999Y32766000D01*
X30512000Y32765995D01*
X30512000Y18422910D01*
X30229367Y18611759D01*
X29464000Y18764001D01*
X29463995Y18764000D01*
X26130000Y18764000D01*
X26130000Y20574000D01*
X25977759Y21339367D01*
X25544214Y21988214D01*
X24895367Y22421759D01*
X24860000Y22428794D01*
X24860000Y26014614D01*
X26050000Y26014614D01*
X26605867Y26119207D01*
X27116396Y26447724D01*
X27458892Y26948983D01*
X27579386Y27544000D01*
X27579386Y28844000D01*
X27474793Y29399867D01*
X27400000Y29516098D01*
X27400000Y32257995D01*
X27400001Y32258000D01*
X27247759Y33023367D01*
X27082541Y33270633D01*
X26814214Y33672214D01*
X26814211Y33672216D01*
X24717368Y35769060D01*
X24707759Y35817367D01*
X24274214Y36466214D01*
X23625367Y36899759D01*
X23190931Y36986174D01*
X23007696Y37169729D01*
X22089361Y37551055D01*
X21095002Y37551923D01*
X20176002Y37172200D01*
X19684760Y36681814D01*
X19197696Y37169729D01*
X18279361Y37551055D01*
X18109224Y37551204D01*
X17782428Y37878000D01*
X32257401Y37878000D01*
X32257998Y37877999D01*
X32258002Y37877999D01*
X32654079Y37877654D01*
X33009712Y38024598D01*
X33009559Y37848999D01*
G36*
X15480614Y23490386D02*
X14510000Y23490386D01*
X14043040Y23402522D01*
X13771236Y23674800D01*
X14017867Y23721207D01*
X14528396Y24049724D01*
X14656093Y24236614D01*
X15480614Y24236614D01*
X15480614Y23490386D01*
X15480614Y23490386D01*
G37*
X15480614Y23490386D02*
X14510000Y23490386D01*
X14043040Y23402522D01*
X13771236Y23674800D01*
X14017867Y23721207D01*
X14528396Y24049724D01*
X14656093Y24236614D01*
X15480614Y24236614D01*
X15480614Y23490386D01*
G36*
X13814983Y29437108D02*
X14410000Y29316614D01*
X15580614Y29316614D01*
X15580614Y28595386D01*
X14659309Y28595386D01*
X14558276Y28752396D01*
X14057017Y29094892D01*
X13462000Y29215386D01*
X13311409Y29215386D01*
X13759029Y29400339D01*
X13803632Y29444864D01*
X13814983Y29437108D01*
X13814983Y29437108D01*
G37*
X13814983Y29437108D02*
X14410000Y29316614D01*
X15580614Y29316614D01*
X15580614Y28595386D01*
X14659309Y28595386D01*
X14558276Y28752396D01*
X14057017Y29094892D01*
X13462000Y29215386D01*
X13311409Y29215386D01*
X13759029Y29400339D01*
X13803632Y29444864D01*
X13814983Y29437108D01*
G36*
X58925573Y37814000D02*
X53336871Y37814000D01*
X53349556Y37844548D01*
X53350441Y38859001D01*
X52963045Y39796572D01*
X52246345Y40514524D01*
X51331370Y40894455D01*
X52242572Y41270955D01*
X52405902Y41434000D01*
X55305572Y41434000D01*
X58925573Y37814000D01*
X58925573Y37814000D01*
G37*
X58925573Y37814000D02*
X53336871Y37814000D01*
X53349556Y37844548D01*
X53350441Y38859001D01*
X52963045Y39796572D01*
X52246345Y40514524D01*
X51331370Y40894455D01*
X52242572Y41270955D01*
X52405902Y41434000D01*
X55305572Y41434000D01*
X58925573Y37814000D01*
M02*
