M48
METRIC,TZ
T1C0.700
T2C0.800
T3C1.000
T4C1.001
T5C1.500
T6C3.048
%
G90
G05
T1
X19100Y81000
X19100Y74000
X19100Y67000
X19100Y60000
X19100Y53000
X19100Y46000
X19100Y39000
X19100Y32000
X19100Y25000
X19100Y18000
X19100Y11000
X30000Y9600
X32600Y84000
X32600Y79000
X41600Y49000
T2
X26512Y52560
X26512Y46718
X26512Y40622
X29052Y50020
X29052Y44178
X29052Y38082
X29100Y60000
X31592Y52560
X31592Y46718
X31592Y40622
X32600Y60000
X37688Y32748
X37942Y14968
X37942Y12428
X37942Y9888
X37942Y7348
X40228Y35288
X42768Y32748
X45562Y14968
X45562Y12428
X45562Y9888
X45562Y7348
X46578Y31986
X48864Y45702
X48864Y40622
X49118Y34526
X49118Y29446
X51404Y43162
T3
X41600Y69500
X41600Y65000
X41600Y60500
X50600Y69500
X50600Y65000
X50600Y60500
T4
X3144Y52052
X3144Y46718
X3144Y40622
X3398Y62720
X3398Y57640
X10764Y52052
X10764Y46718
X10764Y40622
X11018Y62720
X11018Y57640
X26004Y23350
X26512Y28684
X34132Y28684
X46004Y23350
T5
X16560Y81000
X16560Y74000
X16560Y67000
X16560Y60000
X16560Y53000
X16560Y46000
X16560Y39000
X16560Y32000
X16560Y25000
X16560Y18000
X16560Y11000
X21640Y81000
X21640Y74000
X21640Y67000
X21640Y60000
X21640Y53000
X21640Y46000
X21640Y39000
X21640Y32000
X21640Y25000
X21640Y18000
X21640Y11000
X30060Y84000
X30060Y79000
X35140Y84000
X35140Y79000
T6
X5700Y6800
X6000Y82700
X51100Y84000
X51300Y6800
T0
M30
