G04 #@! TF.FileFunction,Legend,Top*
%FSLAX46Y46*%
G04 Gerber Fmt 4.6, Leading zero omitted, Abs format (unit mm)*
G04 Created by KiCad (PCBNEW 4.0.6) date Sunday, 01 August 2021 'PMt' 19:12:35*
%MOMM*%
%LPD*%
G01*
G04 APERTURE LIST*
%ADD10C,0.100000*%
%ADD11C,0.150000*%
%ADD12C,0.120000*%
G04 APERTURE END LIST*
D10*
D11*
X13531000Y31609000D02*
X21529000Y31609000D01*
X13536000Y31749000D02*
X21524000Y31749000D01*
X13546000Y31889000D02*
X21514000Y31889000D01*
X13561000Y32029000D02*
X21499000Y32029000D01*
X13581000Y32169000D02*
X21479000Y32169000D01*
X13606000Y32309000D02*
X17308000Y32309000D01*
X17752000Y32309000D02*
X21454000Y32309000D01*
X13636000Y32449000D02*
X16980000Y32449000D01*
X18080000Y32449000D02*
X21424000Y32449000D01*
X13672000Y32589000D02*
X16811000Y32589000D01*
X18249000Y32589000D02*
X21388000Y32589000D01*
X13713000Y32729000D02*
X16698000Y32729000D01*
X18362000Y32729000D02*
X21347000Y32729000D01*
X13759000Y32869000D02*
X16620000Y32869000D01*
X18440000Y32869000D02*
X21301000Y32869000D01*
X13812000Y33009000D02*
X16569000Y33009000D01*
X18491000Y33009000D02*
X21248000Y33009000D01*
X13871000Y33149000D02*
X16539000Y33149000D01*
X18521000Y33149000D02*
X21189000Y33149000D01*
X13936000Y33289000D02*
X16530000Y33289000D01*
X18530000Y33289000D02*
X21124000Y33289000D01*
X14007000Y33429000D02*
X16541000Y33429000D01*
X18519000Y33429000D02*
X21053000Y33429000D01*
X14086000Y33569000D02*
X16571000Y33569000D01*
X18489000Y33569000D02*
X20974000Y33569000D01*
X14173000Y33709000D02*
X16625000Y33709000D01*
X18435000Y33709000D02*
X20887000Y33709000D01*
X14268000Y33849000D02*
X16705000Y33849000D01*
X18355000Y33849000D02*
X20792000Y33849000D01*
X14372000Y33989000D02*
X16821000Y33989000D01*
X18239000Y33989000D02*
X20688000Y33989000D01*
X14486000Y34129000D02*
X16995000Y34129000D01*
X18065000Y34129000D02*
X20574000Y34129000D01*
X14611000Y34269000D02*
X17357000Y34269000D01*
X17703000Y34269000D02*
X20449000Y34269000D01*
X14749000Y34409000D02*
X20311000Y34409000D01*
X14901000Y34549000D02*
X20159000Y34549000D01*
X15071000Y34689000D02*
X19989000Y34689000D01*
X15262000Y34829000D02*
X19798000Y34829000D01*
X15480000Y34969000D02*
X19580000Y34969000D01*
X15736000Y35109000D02*
X19324000Y35109000D01*
X16047000Y35249000D02*
X19013000Y35249000D01*
X16463000Y35389000D02*
X18597000Y35389000D01*
X17330000Y35529000D02*
X17730000Y35529000D01*
X18530000Y33284000D02*
G75*
G03X18530000Y33284000I-1000000J0D01*
G01*
X21567500Y31534000D02*
G75*
G03X21567500Y31534000I-4037500J0D01*
G01*
X32350000Y29030000D02*
X32350000Y30030000D01*
X30650000Y30030000D02*
X30650000Y29030000D01*
X46398000Y73718000D02*
X46398000Y72718000D01*
X48098000Y72718000D02*
X48098000Y73718000D01*
X37889000Y73591000D02*
X37889000Y72591000D01*
X39589000Y72591000D02*
X39589000Y73591000D01*
X34302000Y65510000D02*
X35302000Y65510000D01*
X35302000Y67210000D02*
X34302000Y67210000D01*
X28968000Y65510000D02*
X29968000Y65510000D01*
X29968000Y67210000D02*
X28968000Y67210000D01*
X18808000Y67796000D02*
X19808000Y67796000D01*
X19808000Y69496000D02*
X18808000Y69496000D01*
X23888000Y67796000D02*
X24888000Y67796000D01*
X24888000Y69496000D02*
X23888000Y69496000D01*
X35064000Y21314000D02*
X36064000Y21314000D01*
X36064000Y23014000D02*
X35064000Y23014000D01*
X12450000Y32324000D02*
X12450000Y27244000D01*
X12450000Y27244000D02*
X9910000Y27244000D01*
X9910000Y27244000D02*
X9910000Y32324000D01*
X9910000Y32324000D02*
X12450000Y32324000D01*
X23372000Y47564000D02*
X23372000Y55184000D01*
X20832000Y47564000D02*
X20832000Y55184000D01*
X20552000Y44744000D02*
X20552000Y46294000D01*
X23372000Y55184000D02*
X20832000Y55184000D01*
X20832000Y47564000D02*
X23372000Y47564000D01*
X23652000Y46294000D02*
X23652000Y44744000D01*
X23652000Y44744000D02*
X20552000Y44744000D01*
D12*
X45018000Y17590000D02*
X44088000Y17590000D01*
X41858000Y17590000D02*
X42788000Y17590000D01*
X41858000Y17590000D02*
X41858000Y15430000D01*
X45018000Y17590000D02*
X45018000Y16130000D01*
D11*
X17114000Y24083000D02*
X15914000Y24083000D01*
X15914000Y25833000D02*
X17114000Y25833000D01*
X49696000Y21769000D02*
X50896000Y21769000D01*
X50896000Y20019000D02*
X49696000Y20019000D01*
X49696000Y24309000D02*
X50896000Y24309000D01*
X50896000Y22559000D02*
X49696000Y22559000D01*
X50691000Y26644000D02*
X50691000Y27844000D01*
X52441000Y27844000D02*
X52441000Y26644000D01*
X50896000Y30179000D02*
X49696000Y30179000D01*
X49696000Y31929000D02*
X50896000Y31929000D01*
X68746000Y28119000D02*
X69946000Y28119000D01*
X69946000Y26369000D02*
X68746000Y26369000D01*
X39614000Y68357000D02*
X39614000Y67157000D01*
X37864000Y67157000D02*
X37864000Y68357000D01*
X48123000Y68738000D02*
X48123000Y67538000D01*
X46373000Y67538000D02*
X46373000Y68738000D01*
X44087000Y72618000D02*
X44087000Y73818000D01*
X45837000Y73818000D02*
X45837000Y72618000D01*
X40404000Y72491000D02*
X40404000Y73691000D01*
X42154000Y73691000D02*
X42154000Y72491000D01*
X35197000Y72110000D02*
X35197000Y73310000D01*
X36947000Y73310000D02*
X36947000Y72110000D01*
X35402000Y68025000D02*
X34202000Y68025000D01*
X34202000Y69775000D02*
X35402000Y69775000D01*
X29863000Y72110000D02*
X29863000Y73310000D01*
X31613000Y73310000D02*
X31613000Y72110000D01*
X30068000Y68025000D02*
X28868000Y68025000D01*
X28868000Y69775000D02*
X30068000Y69775000D01*
X19703000Y71856000D02*
X19703000Y73056000D01*
X21453000Y73056000D02*
X21453000Y71856000D01*
X19908000Y65485000D02*
X18708000Y65485000D01*
X18708000Y67235000D02*
X19908000Y67235000D01*
X24783000Y71856000D02*
X24783000Y73056000D01*
X26533000Y73056000D02*
X26533000Y71856000D01*
X24988000Y65485000D02*
X23788000Y65485000D01*
X23788000Y67235000D02*
X24988000Y67235000D01*
X44362000Y22277000D02*
X45562000Y22277000D01*
X45562000Y20527000D02*
X44362000Y20527000D01*
X43530000Y11891000D02*
X42330000Y11891000D01*
X42330000Y13641000D02*
X43530000Y13641000D01*
X5465000Y35880000D02*
X8894000Y35880000D01*
X5465000Y26228000D02*
X8894000Y26228000D01*
X4322000Y36388000D02*
X4322000Y25720000D01*
X5338000Y32832000D02*
X4068000Y32832000D01*
X5338000Y29276000D02*
X4068000Y29276000D01*
X5465000Y25720000D02*
X5465000Y36388000D01*
X8894000Y36388000D02*
X8894000Y25720000D01*
X4068000Y25720000D02*
X8894000Y25720000D01*
X4068000Y36388000D02*
X8894000Y36388000D01*
X4068000Y36388000D02*
X4068000Y25720000D01*
D12*
X60694000Y32698000D02*
G75*
G02X58694000Y32698000I-1000000J0D01*
G01*
X58694000Y32698000D02*
X57124000Y32698000D01*
X57124000Y32698000D02*
X57124000Y22298000D01*
X57124000Y22298000D02*
X62264000Y22298000D01*
X62264000Y22298000D02*
X62264000Y32698000D01*
X62264000Y32698000D02*
X60694000Y32698000D01*
D11*
X30738000Y57470000D02*
X63758000Y57470000D01*
X63758000Y57470000D02*
X63758000Y39690000D01*
X63758000Y39690000D02*
X30738000Y39690000D01*
X30738000Y39690000D02*
X30738000Y57470000D01*
X4830000Y105476000D02*
X4830000Y90236000D01*
X4830000Y90236000D02*
X48010000Y90236000D01*
X48010000Y90236000D02*
X48010000Y105476000D01*
X48010000Y105476000D02*
X4830000Y105476000D01*
X51312000Y65852000D02*
X79760000Y65852000D01*
X79760000Y65852000D02*
X79760000Y106492000D01*
X79760000Y106492000D02*
X51312000Y106492000D01*
X51312000Y106492000D02*
X51312000Y65852000D01*
D12*
X39990000Y30932000D02*
X38730000Y30932000D01*
X33170000Y30932000D02*
X34430000Y30932000D01*
X39990000Y27172000D02*
X39990000Y30932000D01*
X33170000Y24922000D02*
X33170000Y30932000D01*
D11*
X53852000Y11242000D02*
X53852000Y3622000D01*
X38612000Y11242000D02*
X38612000Y3622000D01*
X53852000Y9972000D02*
X38612000Y9972000D01*
X53852000Y3622000D02*
X38612000Y3622000D01*
X53852000Y11242000D02*
X38612000Y11242000D01*
X37850000Y115128000D02*
X37850000Y107508000D01*
X22610000Y115128000D02*
X22610000Y107508000D01*
X37850000Y113858000D02*
X22610000Y113858000D01*
X37850000Y107508000D02*
X22610000Y107508000D01*
X37850000Y115128000D02*
X22610000Y115128000D01*
X37596000Y10988000D02*
X37596000Y3368000D01*
X22356000Y10988000D02*
X22356000Y3368000D01*
X37596000Y9718000D02*
X22356000Y9718000D01*
X37596000Y3368000D02*
X22356000Y3368000D01*
X37596000Y10988000D02*
X22356000Y10988000D01*
X15752000Y82108000D02*
X15752000Y89728000D01*
X30992000Y82108000D02*
X30992000Y89728000D01*
X15752000Y83378000D02*
X30992000Y83378000D01*
X15752000Y89728000D02*
X30992000Y89728000D01*
X15752000Y82108000D02*
X30992000Y82108000D01*
X33786000Y82108000D02*
X33786000Y89728000D01*
X49026000Y82108000D02*
X49026000Y89728000D01*
X33786000Y83378000D02*
X49026000Y83378000D01*
X33786000Y89728000D02*
X49026000Y89728000D01*
X33786000Y82108000D02*
X49026000Y82108000D01*
X72648000Y54676000D02*
X80268000Y54676000D01*
X72648000Y39436000D02*
X80268000Y39436000D01*
X73918000Y54676000D02*
X73918000Y39436000D01*
X80268000Y54676000D02*
X80268000Y39436000D01*
X72648000Y54676000D02*
X72648000Y39436000D01*
X61218000Y107762000D02*
X61218000Y115382000D01*
X40898000Y115382000D02*
X40898000Y107762000D01*
X40898000Y114112000D02*
X61218000Y114112000D01*
X61218000Y107762000D02*
X40898000Y107762000D01*
X61218000Y115382000D02*
X40898000Y115382000D01*
X12587143Y31367334D02*
X12634762Y31319715D01*
X12682381Y31176858D01*
X12682381Y31081620D01*
X12634762Y30938762D01*
X12539524Y30843524D01*
X12444286Y30795905D01*
X12253810Y30748286D01*
X12110952Y30748286D01*
X11920476Y30795905D01*
X11825238Y30843524D01*
X11730000Y30938762D01*
X11682381Y31081620D01*
X11682381Y31176858D01*
X11730000Y31319715D01*
X11777619Y31367334D01*
X11777619Y31748286D02*
X11730000Y31795905D01*
X11682381Y31891143D01*
X11682381Y32129239D01*
X11730000Y32224477D01*
X11777619Y32272096D01*
X11872857Y32319715D01*
X11968095Y32319715D01*
X12110952Y32272096D01*
X12682381Y31700667D01*
X12682381Y32319715D01*
X33957143Y29363334D02*
X34004762Y29315715D01*
X34052381Y29172858D01*
X34052381Y29077620D01*
X34004762Y28934762D01*
X33909524Y28839524D01*
X33814286Y28791905D01*
X33623810Y28744286D01*
X33480952Y28744286D01*
X33290476Y28791905D01*
X33195238Y28839524D01*
X33100000Y28934762D01*
X33052381Y29077620D01*
X33052381Y29172858D01*
X33100000Y29315715D01*
X33147619Y29363334D01*
X33052381Y29696667D02*
X33052381Y30315715D01*
X33433333Y29982381D01*
X33433333Y30125239D01*
X33480952Y30220477D01*
X33528571Y30268096D01*
X33623810Y30315715D01*
X33861905Y30315715D01*
X33957143Y30268096D01*
X34004762Y30220477D01*
X34052381Y30125239D01*
X34052381Y29839524D01*
X34004762Y29744286D01*
X33957143Y29696667D01*
X45505143Y73051334D02*
X45552762Y73003715D01*
X45600381Y72860858D01*
X45600381Y72765620D01*
X45552762Y72622762D01*
X45457524Y72527524D01*
X45362286Y72479905D01*
X45171810Y72432286D01*
X45028952Y72432286D01*
X44838476Y72479905D01*
X44743238Y72527524D01*
X44648000Y72622762D01*
X44600381Y72765620D01*
X44600381Y72860858D01*
X44648000Y73003715D01*
X44695619Y73051334D01*
X44933714Y73908477D02*
X45600381Y73908477D01*
X44552762Y73670381D02*
X45267048Y73432286D01*
X45267048Y74051334D01*
X36996143Y72924334D02*
X37043762Y72876715D01*
X37091381Y72733858D01*
X37091381Y72638620D01*
X37043762Y72495762D01*
X36948524Y72400524D01*
X36853286Y72352905D01*
X36662810Y72305286D01*
X36519952Y72305286D01*
X36329476Y72352905D01*
X36234238Y72400524D01*
X36139000Y72495762D01*
X36091381Y72638620D01*
X36091381Y72733858D01*
X36139000Y72876715D01*
X36186619Y72924334D01*
X36091381Y73829096D02*
X36091381Y73352905D01*
X36567571Y73305286D01*
X36519952Y73352905D01*
X36472333Y73448143D01*
X36472333Y73686239D01*
X36519952Y73781477D01*
X36567571Y73829096D01*
X36662810Y73876715D01*
X36900905Y73876715D01*
X36996143Y73829096D01*
X37043762Y73781477D01*
X37091381Y73686239D01*
X37091381Y73448143D01*
X37043762Y73352905D01*
X36996143Y73305286D01*
X34635334Y63902857D02*
X34587715Y63855238D01*
X34444858Y63807619D01*
X34349620Y63807619D01*
X34206762Y63855238D01*
X34111524Y63950476D01*
X34063905Y64045714D01*
X34016286Y64236190D01*
X34016286Y64379048D01*
X34063905Y64569524D01*
X34111524Y64664762D01*
X34206762Y64760000D01*
X34349620Y64807619D01*
X34444858Y64807619D01*
X34587715Y64760000D01*
X34635334Y64712381D01*
X35492477Y64807619D02*
X35302000Y64807619D01*
X35206762Y64760000D01*
X35159143Y64712381D01*
X35063905Y64569524D01*
X35016286Y64379048D01*
X35016286Y63998095D01*
X35063905Y63902857D01*
X35111524Y63855238D01*
X35206762Y63807619D01*
X35397239Y63807619D01*
X35492477Y63855238D01*
X35540096Y63902857D01*
X35587715Y63998095D01*
X35587715Y64236190D01*
X35540096Y64331429D01*
X35492477Y64379048D01*
X35397239Y64426667D01*
X35206762Y64426667D01*
X35111524Y64379048D01*
X35063905Y64331429D01*
X35016286Y64236190D01*
X29301334Y63902857D02*
X29253715Y63855238D01*
X29110858Y63807619D01*
X29015620Y63807619D01*
X28872762Y63855238D01*
X28777524Y63950476D01*
X28729905Y64045714D01*
X28682286Y64236190D01*
X28682286Y64379048D01*
X28729905Y64569524D01*
X28777524Y64664762D01*
X28872762Y64760000D01*
X29015620Y64807619D01*
X29110858Y64807619D01*
X29253715Y64760000D01*
X29301334Y64712381D01*
X29634667Y64807619D02*
X30301334Y64807619D01*
X29872762Y63807619D01*
X19141334Y66188857D02*
X19093715Y66141238D01*
X18950858Y66093619D01*
X18855620Y66093619D01*
X18712762Y66141238D01*
X18617524Y66236476D01*
X18569905Y66331714D01*
X18522286Y66522190D01*
X18522286Y66665048D01*
X18569905Y66855524D01*
X18617524Y66950762D01*
X18712762Y67046000D01*
X18855620Y67093619D01*
X18950858Y67093619D01*
X19093715Y67046000D01*
X19141334Y66998381D01*
X19712762Y66665048D02*
X19617524Y66712667D01*
X19569905Y66760286D01*
X19522286Y66855524D01*
X19522286Y66903143D01*
X19569905Y66998381D01*
X19617524Y67046000D01*
X19712762Y67093619D01*
X19903239Y67093619D01*
X19998477Y67046000D01*
X20046096Y66998381D01*
X20093715Y66903143D01*
X20093715Y66855524D01*
X20046096Y66760286D01*
X19998477Y66712667D01*
X19903239Y66665048D01*
X19712762Y66665048D01*
X19617524Y66617429D01*
X19569905Y66569810D01*
X19522286Y66474571D01*
X19522286Y66284095D01*
X19569905Y66188857D01*
X19617524Y66141238D01*
X19712762Y66093619D01*
X19903239Y66093619D01*
X19998477Y66141238D01*
X20046096Y66188857D01*
X20093715Y66284095D01*
X20093715Y66474571D01*
X20046096Y66569810D01*
X19998477Y66617429D01*
X19903239Y66665048D01*
X24221334Y66188857D02*
X24173715Y66141238D01*
X24030858Y66093619D01*
X23935620Y66093619D01*
X23792762Y66141238D01*
X23697524Y66236476D01*
X23649905Y66331714D01*
X23602286Y66522190D01*
X23602286Y66665048D01*
X23649905Y66855524D01*
X23697524Y66950762D01*
X23792762Y67046000D01*
X23935620Y67093619D01*
X24030858Y67093619D01*
X24173715Y67046000D01*
X24221334Y66998381D01*
X24697524Y66093619D02*
X24888000Y66093619D01*
X24983239Y66141238D01*
X25030858Y66188857D01*
X25126096Y66331714D01*
X25173715Y66522190D01*
X25173715Y66903143D01*
X25126096Y66998381D01*
X25078477Y67046000D01*
X24983239Y67093619D01*
X24792762Y67093619D01*
X24697524Y67046000D01*
X24649905Y66998381D01*
X24602286Y66903143D01*
X24602286Y66665048D01*
X24649905Y66569810D01*
X24697524Y66522190D01*
X24792762Y66474571D01*
X24983239Y66474571D01*
X25078477Y66522190D01*
X25126096Y66569810D01*
X25173715Y66665048D01*
X34921143Y19706857D02*
X34873524Y19659238D01*
X34730667Y19611619D01*
X34635429Y19611619D01*
X34492571Y19659238D01*
X34397333Y19754476D01*
X34349714Y19849714D01*
X34302095Y20040190D01*
X34302095Y20183048D01*
X34349714Y20373524D01*
X34397333Y20468762D01*
X34492571Y20564000D01*
X34635429Y20611619D01*
X34730667Y20611619D01*
X34873524Y20564000D01*
X34921143Y20516381D01*
X35873524Y19611619D02*
X35302095Y19611619D01*
X35587809Y19611619D02*
X35587809Y20611619D01*
X35492571Y20468762D01*
X35397333Y20373524D01*
X35302095Y20325905D01*
X36492571Y20611619D02*
X36587810Y20611619D01*
X36683048Y20564000D01*
X36730667Y20516381D01*
X36778286Y20421143D01*
X36825905Y20230667D01*
X36825905Y19992571D01*
X36778286Y19802095D01*
X36730667Y19706857D01*
X36683048Y19659238D01*
X36587810Y19611619D01*
X36492571Y19611619D01*
X36397333Y19659238D01*
X36349714Y19706857D01*
X36302095Y19802095D01*
X36254476Y19992571D01*
X36254476Y20230667D01*
X36302095Y20421143D01*
X36349714Y20516381D01*
X36397333Y20564000D01*
X36492571Y20611619D01*
X15132501Y28796985D02*
X14132501Y28796985D01*
X14132501Y29035080D01*
X14180120Y29177938D01*
X14275358Y29273176D01*
X14370596Y29320795D01*
X14561072Y29368414D01*
X14703930Y29368414D01*
X14894406Y29320795D01*
X14989644Y29273176D01*
X15084882Y29177938D01*
X15132501Y29035080D01*
X15132501Y28796985D01*
X14132501Y29701747D02*
X14132501Y30320795D01*
X14513453Y29987461D01*
X14513453Y30130319D01*
X14561072Y30225557D01*
X14608691Y30273176D01*
X14703930Y30320795D01*
X14942025Y30320795D01*
X15037263Y30273176D01*
X15084882Y30225557D01*
X15132501Y30130319D01*
X15132501Y29844604D01*
X15084882Y29749366D01*
X15037263Y29701747D01*
X21363905Y40741619D02*
X21363905Y41741619D01*
X21744858Y41741619D01*
X21840096Y41694000D01*
X21887715Y41646381D01*
X21935334Y41551143D01*
X21935334Y41408286D01*
X21887715Y41313048D01*
X21840096Y41265429D01*
X21744858Y41217810D01*
X21363905Y41217810D01*
X22840096Y41741619D02*
X22363905Y41741619D01*
X22316286Y41265429D01*
X22363905Y41313048D01*
X22459143Y41360667D01*
X22697239Y41360667D01*
X22792477Y41313048D01*
X22840096Y41265429D01*
X22887715Y41170190D01*
X22887715Y40932095D01*
X22840096Y40836857D01*
X22792477Y40789238D01*
X22697239Y40741619D01*
X22459143Y40741619D01*
X22363905Y40789238D01*
X22316286Y40836857D01*
X41485619Y16734762D02*
X41438000Y16639524D01*
X41342762Y16544286D01*
X41199905Y16401429D01*
X41152286Y16306190D01*
X41152286Y16210952D01*
X41390381Y16258571D02*
X41342762Y16163333D01*
X41247524Y16068095D01*
X41057048Y16020476D01*
X40723714Y16020476D01*
X40533238Y16068095D01*
X40438000Y16163333D01*
X40390381Y16258571D01*
X40390381Y16449048D01*
X40438000Y16544286D01*
X40533238Y16639524D01*
X40723714Y16687143D01*
X41057048Y16687143D01*
X41247524Y16639524D01*
X41342762Y16544286D01*
X41390381Y16449048D01*
X41390381Y16258571D01*
X40390381Y17591905D02*
X40390381Y17115714D01*
X40866571Y17068095D01*
X40818952Y17115714D01*
X40771333Y17210952D01*
X40771333Y17449048D01*
X40818952Y17544286D01*
X40866571Y17591905D01*
X40961810Y17639524D01*
X41199905Y17639524D01*
X41295143Y17591905D01*
X41342762Y17544286D01*
X41390381Y17449048D01*
X41390381Y17210952D01*
X41342762Y17115714D01*
X41295143Y17068095D01*
X16347334Y26605619D02*
X16014000Y27081810D01*
X15775905Y26605619D02*
X15775905Y27605619D01*
X16156858Y27605619D01*
X16252096Y27558000D01*
X16299715Y27510381D01*
X16347334Y27415143D01*
X16347334Y27272286D01*
X16299715Y27177048D01*
X16252096Y27129429D01*
X16156858Y27081810D01*
X15775905Y27081810D01*
X16823524Y26605619D02*
X17014000Y26605619D01*
X17109239Y26653238D01*
X17156858Y26700857D01*
X17252096Y26843714D01*
X17299715Y27034190D01*
X17299715Y27415143D01*
X17252096Y27510381D01*
X17204477Y27558000D01*
X17109239Y27605619D01*
X16918762Y27605619D01*
X16823524Y27558000D01*
X16775905Y27510381D01*
X16728286Y27415143D01*
X16728286Y27177048D01*
X16775905Y27081810D01*
X16823524Y27034190D01*
X16918762Y26986571D01*
X17109239Y26986571D01*
X17204477Y27034190D01*
X17252096Y27081810D01*
X17299715Y27177048D01*
X49653143Y18341619D02*
X49319809Y18817810D01*
X49081714Y18341619D02*
X49081714Y19341619D01*
X49462667Y19341619D01*
X49557905Y19294000D01*
X49605524Y19246381D01*
X49653143Y19151143D01*
X49653143Y19008286D01*
X49605524Y18913048D01*
X49557905Y18865429D01*
X49462667Y18817810D01*
X49081714Y18817810D01*
X50605524Y18341619D02*
X50034095Y18341619D01*
X50319809Y18341619D02*
X50319809Y19341619D01*
X50224571Y19198762D01*
X50129333Y19103524D01*
X50034095Y19055905D01*
X50938857Y19341619D02*
X51557905Y19341619D01*
X51224571Y18960667D01*
X51367429Y18960667D01*
X51462667Y18913048D01*
X51510286Y18865429D01*
X51557905Y18770190D01*
X51557905Y18532095D01*
X51510286Y18436857D01*
X51462667Y18389238D01*
X51367429Y18341619D01*
X51081714Y18341619D01*
X50986476Y18389238D01*
X50938857Y18436857D01*
X49653143Y20881619D02*
X49319809Y21357810D01*
X49081714Y20881619D02*
X49081714Y21881619D01*
X49462667Y21881619D01*
X49557905Y21834000D01*
X49605524Y21786381D01*
X49653143Y21691143D01*
X49653143Y21548286D01*
X49605524Y21453048D01*
X49557905Y21405429D01*
X49462667Y21357810D01*
X49081714Y21357810D01*
X50605524Y20881619D02*
X50034095Y20881619D01*
X50319809Y20881619D02*
X50319809Y21881619D01*
X50224571Y21738762D01*
X50129333Y21643524D01*
X50034095Y21595905D01*
X51462667Y21548286D02*
X51462667Y20881619D01*
X51224571Y21929238D02*
X50986476Y21214952D01*
X51605524Y21214952D01*
X54118381Y26601143D02*
X53642190Y26267809D01*
X54118381Y26029714D02*
X53118381Y26029714D01*
X53118381Y26410667D01*
X53166000Y26505905D01*
X53213619Y26553524D01*
X53308857Y26601143D01*
X53451714Y26601143D01*
X53546952Y26553524D01*
X53594571Y26505905D01*
X53642190Y26410667D01*
X53642190Y26029714D01*
X54118381Y27553524D02*
X54118381Y26982095D01*
X54118381Y27267809D02*
X53118381Y27267809D01*
X53261238Y27172571D01*
X53356476Y27077333D01*
X53404095Y26982095D01*
X53118381Y28458286D02*
X53118381Y27982095D01*
X53594571Y27934476D01*
X53546952Y27982095D01*
X53499333Y28077333D01*
X53499333Y28315429D01*
X53546952Y28410667D01*
X53594571Y28458286D01*
X53689810Y28505905D01*
X53927905Y28505905D01*
X54023143Y28458286D01*
X54070762Y28410667D01*
X54118381Y28315429D01*
X54118381Y28077333D01*
X54070762Y27982095D01*
X54023143Y27934476D01*
X49653143Y32701619D02*
X49319809Y33177810D01*
X49081714Y32701619D02*
X49081714Y33701619D01*
X49462667Y33701619D01*
X49557905Y33654000D01*
X49605524Y33606381D01*
X49653143Y33511143D01*
X49653143Y33368286D01*
X49605524Y33273048D01*
X49557905Y33225429D01*
X49462667Y33177810D01*
X49081714Y33177810D01*
X50605524Y32701619D02*
X50034095Y32701619D01*
X50319809Y32701619D02*
X50319809Y33701619D01*
X50224571Y33558762D01*
X50129333Y33463524D01*
X50034095Y33415905D01*
X50938857Y33701619D02*
X51605524Y33701619D01*
X51176952Y32701619D01*
X68703143Y24691619D02*
X68369809Y25167810D01*
X68131714Y24691619D02*
X68131714Y25691619D01*
X68512667Y25691619D01*
X68607905Y25644000D01*
X68655524Y25596381D01*
X68703143Y25501143D01*
X68703143Y25358286D01*
X68655524Y25263048D01*
X68607905Y25215429D01*
X68512667Y25167810D01*
X68131714Y25167810D01*
X69655524Y24691619D02*
X69084095Y24691619D01*
X69369809Y24691619D02*
X69369809Y25691619D01*
X69274571Y25548762D01*
X69179333Y25453524D01*
X69084095Y25405905D01*
X70131714Y24691619D02*
X70322190Y24691619D01*
X70417429Y24739238D01*
X70465048Y24786857D01*
X70560286Y24929714D01*
X70607905Y25120190D01*
X70607905Y25501143D01*
X70560286Y25596381D01*
X70512667Y25644000D01*
X70417429Y25691619D01*
X70226952Y25691619D01*
X70131714Y25644000D01*
X70084095Y25596381D01*
X70036476Y25501143D01*
X70036476Y25263048D01*
X70084095Y25167810D01*
X70131714Y25120190D01*
X70226952Y25072571D01*
X70417429Y25072571D01*
X70512667Y25120190D01*
X70560286Y25167810D01*
X70607905Y25263048D01*
X37091381Y67114143D02*
X36615190Y66780809D01*
X37091381Y66542714D02*
X36091381Y66542714D01*
X36091381Y66923667D01*
X36139000Y67018905D01*
X36186619Y67066524D01*
X36281857Y67114143D01*
X36424714Y67114143D01*
X36519952Y67066524D01*
X36567571Y67018905D01*
X36615190Y66923667D01*
X36615190Y66542714D01*
X36186619Y67495095D02*
X36139000Y67542714D01*
X36091381Y67637952D01*
X36091381Y67876048D01*
X36139000Y67971286D01*
X36186619Y68018905D01*
X36281857Y68066524D01*
X36377095Y68066524D01*
X36519952Y68018905D01*
X37091381Y67447476D01*
X37091381Y68066524D01*
X37091381Y69018905D02*
X37091381Y68447476D01*
X37091381Y68733190D02*
X36091381Y68733190D01*
X36234238Y68637952D01*
X36329476Y68542714D01*
X36377095Y68447476D01*
X45600381Y67495143D02*
X45124190Y67161809D01*
X45600381Y66923714D02*
X44600381Y66923714D01*
X44600381Y67304667D01*
X44648000Y67399905D01*
X44695619Y67447524D01*
X44790857Y67495143D01*
X44933714Y67495143D01*
X45028952Y67447524D01*
X45076571Y67399905D01*
X45124190Y67304667D01*
X45124190Y66923714D01*
X44695619Y67876095D02*
X44648000Y67923714D01*
X44600381Y68018952D01*
X44600381Y68257048D01*
X44648000Y68352286D01*
X44695619Y68399905D01*
X44790857Y68447524D01*
X44886095Y68447524D01*
X45028952Y68399905D01*
X45600381Y67828476D01*
X45600381Y68447524D01*
X44695619Y68828476D02*
X44648000Y68876095D01*
X44600381Y68971333D01*
X44600381Y69209429D01*
X44648000Y69304667D01*
X44695619Y69352286D01*
X44790857Y69399905D01*
X44886095Y69399905D01*
X45028952Y69352286D01*
X45600381Y68780857D01*
X45600381Y69399905D01*
X47514381Y72575143D02*
X47038190Y72241809D01*
X47514381Y72003714D02*
X46514381Y72003714D01*
X46514381Y72384667D01*
X46562000Y72479905D01*
X46609619Y72527524D01*
X46704857Y72575143D01*
X46847714Y72575143D01*
X46942952Y72527524D01*
X46990571Y72479905D01*
X47038190Y72384667D01*
X47038190Y72003714D01*
X46609619Y72956095D02*
X46562000Y73003714D01*
X46514381Y73098952D01*
X46514381Y73337048D01*
X46562000Y73432286D01*
X46609619Y73479905D01*
X46704857Y73527524D01*
X46800095Y73527524D01*
X46942952Y73479905D01*
X47514381Y72908476D01*
X47514381Y73527524D01*
X46514381Y73860857D02*
X46514381Y74479905D01*
X46895333Y74146571D01*
X46895333Y74289429D01*
X46942952Y74384667D01*
X46990571Y74432286D01*
X47085810Y74479905D01*
X47323905Y74479905D01*
X47419143Y74432286D01*
X47466762Y74384667D01*
X47514381Y74289429D01*
X47514381Y74003714D01*
X47466762Y73908476D01*
X47419143Y73860857D01*
X43831381Y72448143D02*
X43355190Y72114809D01*
X43831381Y71876714D02*
X42831381Y71876714D01*
X42831381Y72257667D01*
X42879000Y72352905D01*
X42926619Y72400524D01*
X43021857Y72448143D01*
X43164714Y72448143D01*
X43259952Y72400524D01*
X43307571Y72352905D01*
X43355190Y72257667D01*
X43355190Y71876714D01*
X42926619Y72829095D02*
X42879000Y72876714D01*
X42831381Y72971952D01*
X42831381Y73210048D01*
X42879000Y73305286D01*
X42926619Y73352905D01*
X43021857Y73400524D01*
X43117095Y73400524D01*
X43259952Y73352905D01*
X43831381Y72781476D01*
X43831381Y73400524D01*
X43164714Y74257667D02*
X43831381Y74257667D01*
X42783762Y74019571D02*
X43498048Y73781476D01*
X43498048Y74400524D01*
X38624381Y72067143D02*
X38148190Y71733809D01*
X38624381Y71495714D02*
X37624381Y71495714D01*
X37624381Y71876667D01*
X37672000Y71971905D01*
X37719619Y72019524D01*
X37814857Y72067143D01*
X37957714Y72067143D01*
X38052952Y72019524D01*
X38100571Y71971905D01*
X38148190Y71876667D01*
X38148190Y71495714D01*
X37719619Y72448095D02*
X37672000Y72495714D01*
X37624381Y72590952D01*
X37624381Y72829048D01*
X37672000Y72924286D01*
X37719619Y72971905D01*
X37814857Y73019524D01*
X37910095Y73019524D01*
X38052952Y72971905D01*
X38624381Y72400476D01*
X38624381Y73019524D01*
X37624381Y73924286D02*
X37624381Y73448095D01*
X38100571Y73400476D01*
X38052952Y73448095D01*
X38005333Y73543333D01*
X38005333Y73781429D01*
X38052952Y73876667D01*
X38100571Y73924286D01*
X38195810Y73971905D01*
X38433905Y73971905D01*
X38529143Y73924286D01*
X38576762Y73876667D01*
X38624381Y73781429D01*
X38624381Y73543333D01*
X38576762Y73448095D01*
X38529143Y73400476D01*
X34159143Y70547619D02*
X33825809Y71023810D01*
X33587714Y70547619D02*
X33587714Y71547619D01*
X33968667Y71547619D01*
X34063905Y71500000D01*
X34111524Y71452381D01*
X34159143Y71357143D01*
X34159143Y71214286D01*
X34111524Y71119048D01*
X34063905Y71071429D01*
X33968667Y71023810D01*
X33587714Y71023810D01*
X34540095Y71452381D02*
X34587714Y71500000D01*
X34682952Y71547619D01*
X34921048Y71547619D01*
X35016286Y71500000D01*
X35063905Y71452381D01*
X35111524Y71357143D01*
X35111524Y71261905D01*
X35063905Y71119048D01*
X34492476Y70547619D01*
X35111524Y70547619D01*
X35968667Y71547619D02*
X35778190Y71547619D01*
X35682952Y71500000D01*
X35635333Y71452381D01*
X35540095Y71309524D01*
X35492476Y71119048D01*
X35492476Y70738095D01*
X35540095Y70642857D01*
X35587714Y70595238D01*
X35682952Y70547619D01*
X35873429Y70547619D01*
X35968667Y70595238D01*
X36016286Y70642857D01*
X36063905Y70738095D01*
X36063905Y70976190D01*
X36016286Y71071429D01*
X35968667Y71119048D01*
X35873429Y71166667D01*
X35682952Y71166667D01*
X35587714Y71119048D01*
X35540095Y71071429D01*
X35492476Y70976190D01*
X33290381Y72067143D02*
X32814190Y71733809D01*
X33290381Y71495714D02*
X32290381Y71495714D01*
X32290381Y71876667D01*
X32338000Y71971905D01*
X32385619Y72019524D01*
X32480857Y72067143D01*
X32623714Y72067143D01*
X32718952Y72019524D01*
X32766571Y71971905D01*
X32814190Y71876667D01*
X32814190Y71495714D01*
X32385619Y72448095D02*
X32338000Y72495714D01*
X32290381Y72590952D01*
X32290381Y72829048D01*
X32338000Y72924286D01*
X32385619Y72971905D01*
X32480857Y73019524D01*
X32576095Y73019524D01*
X32718952Y72971905D01*
X33290381Y72400476D01*
X33290381Y73019524D01*
X32290381Y73352857D02*
X32290381Y74019524D01*
X33290381Y73590952D01*
X28825143Y70547619D02*
X28491809Y71023810D01*
X28253714Y70547619D02*
X28253714Y71547619D01*
X28634667Y71547619D01*
X28729905Y71500000D01*
X28777524Y71452381D01*
X28825143Y71357143D01*
X28825143Y71214286D01*
X28777524Y71119048D01*
X28729905Y71071429D01*
X28634667Y71023810D01*
X28253714Y71023810D01*
X29206095Y71452381D02*
X29253714Y71500000D01*
X29348952Y71547619D01*
X29587048Y71547619D01*
X29682286Y71500000D01*
X29729905Y71452381D01*
X29777524Y71357143D01*
X29777524Y71261905D01*
X29729905Y71119048D01*
X29158476Y70547619D01*
X29777524Y70547619D01*
X30348952Y71119048D02*
X30253714Y71166667D01*
X30206095Y71214286D01*
X30158476Y71309524D01*
X30158476Y71357143D01*
X30206095Y71452381D01*
X30253714Y71500000D01*
X30348952Y71547619D01*
X30539429Y71547619D01*
X30634667Y71500000D01*
X30682286Y71452381D01*
X30729905Y71357143D01*
X30729905Y71309524D01*
X30682286Y71214286D01*
X30634667Y71166667D01*
X30539429Y71119048D01*
X30348952Y71119048D01*
X30253714Y71071429D01*
X30206095Y71023810D01*
X30158476Y70928571D01*
X30158476Y70738095D01*
X30206095Y70642857D01*
X30253714Y70595238D01*
X30348952Y70547619D01*
X30539429Y70547619D01*
X30634667Y70595238D01*
X30682286Y70642857D01*
X30729905Y70738095D01*
X30729905Y70928571D01*
X30682286Y71023810D01*
X30634667Y71071429D01*
X30539429Y71119048D01*
X23130381Y71813143D02*
X22654190Y71479809D01*
X23130381Y71241714D02*
X22130381Y71241714D01*
X22130381Y71622667D01*
X22178000Y71717905D01*
X22225619Y71765524D01*
X22320857Y71813143D01*
X22463714Y71813143D01*
X22558952Y71765524D01*
X22606571Y71717905D01*
X22654190Y71622667D01*
X22654190Y71241714D01*
X22225619Y72194095D02*
X22178000Y72241714D01*
X22130381Y72336952D01*
X22130381Y72575048D01*
X22178000Y72670286D01*
X22225619Y72717905D01*
X22320857Y72765524D01*
X22416095Y72765524D01*
X22558952Y72717905D01*
X23130381Y72146476D01*
X23130381Y72765524D01*
X23130381Y73241714D02*
X23130381Y73432190D01*
X23082762Y73527429D01*
X23035143Y73575048D01*
X22892286Y73670286D01*
X22701810Y73717905D01*
X22320857Y73717905D01*
X22225619Y73670286D01*
X22178000Y73622667D01*
X22130381Y73527429D01*
X22130381Y73336952D01*
X22178000Y73241714D01*
X22225619Y73194095D01*
X22320857Y73146476D01*
X22558952Y73146476D01*
X22654190Y73194095D01*
X22701810Y73241714D01*
X22749429Y73336952D01*
X22749429Y73527429D01*
X22701810Y73622667D01*
X22654190Y73670286D01*
X22558952Y73717905D01*
X18665143Y68007619D02*
X18331809Y68483810D01*
X18093714Y68007619D02*
X18093714Y69007619D01*
X18474667Y69007619D01*
X18569905Y68960000D01*
X18617524Y68912381D01*
X18665143Y68817143D01*
X18665143Y68674286D01*
X18617524Y68579048D01*
X18569905Y68531429D01*
X18474667Y68483810D01*
X18093714Y68483810D01*
X18998476Y69007619D02*
X19617524Y69007619D01*
X19284190Y68626667D01*
X19427048Y68626667D01*
X19522286Y68579048D01*
X19569905Y68531429D01*
X19617524Y68436190D01*
X19617524Y68198095D01*
X19569905Y68102857D01*
X19522286Y68055238D01*
X19427048Y68007619D01*
X19141333Y68007619D01*
X19046095Y68055238D01*
X18998476Y68102857D01*
X20236571Y69007619D02*
X20331810Y69007619D01*
X20427048Y68960000D01*
X20474667Y68912381D01*
X20522286Y68817143D01*
X20569905Y68626667D01*
X20569905Y68388571D01*
X20522286Y68198095D01*
X20474667Y68102857D01*
X20427048Y68055238D01*
X20331810Y68007619D01*
X20236571Y68007619D01*
X20141333Y68055238D01*
X20093714Y68102857D01*
X20046095Y68198095D01*
X19998476Y68388571D01*
X19998476Y68626667D01*
X20046095Y68817143D01*
X20093714Y68912381D01*
X20141333Y68960000D01*
X20236571Y69007619D01*
X28210381Y71813143D02*
X27734190Y71479809D01*
X28210381Y71241714D02*
X27210381Y71241714D01*
X27210381Y71622667D01*
X27258000Y71717905D01*
X27305619Y71765524D01*
X27400857Y71813143D01*
X27543714Y71813143D01*
X27638952Y71765524D01*
X27686571Y71717905D01*
X27734190Y71622667D01*
X27734190Y71241714D01*
X27210381Y72146476D02*
X27210381Y72765524D01*
X27591333Y72432190D01*
X27591333Y72575048D01*
X27638952Y72670286D01*
X27686571Y72717905D01*
X27781810Y72765524D01*
X28019905Y72765524D01*
X28115143Y72717905D01*
X28162762Y72670286D01*
X28210381Y72575048D01*
X28210381Y72289333D01*
X28162762Y72194095D01*
X28115143Y72146476D01*
X28210381Y73717905D02*
X28210381Y73146476D01*
X28210381Y73432190D02*
X27210381Y73432190D01*
X27353238Y73336952D01*
X27448476Y73241714D01*
X27496095Y73146476D01*
X23745143Y68007619D02*
X23411809Y68483810D01*
X23173714Y68007619D02*
X23173714Y69007619D01*
X23554667Y69007619D01*
X23649905Y68960000D01*
X23697524Y68912381D01*
X23745143Y68817143D01*
X23745143Y68674286D01*
X23697524Y68579048D01*
X23649905Y68531429D01*
X23554667Y68483810D01*
X23173714Y68483810D01*
X24078476Y69007619D02*
X24697524Y69007619D01*
X24364190Y68626667D01*
X24507048Y68626667D01*
X24602286Y68579048D01*
X24649905Y68531429D01*
X24697524Y68436190D01*
X24697524Y68198095D01*
X24649905Y68102857D01*
X24602286Y68055238D01*
X24507048Y68007619D01*
X24221333Y68007619D01*
X24126095Y68055238D01*
X24078476Y68102857D01*
X25078476Y68912381D02*
X25126095Y68960000D01*
X25221333Y69007619D01*
X25459429Y69007619D01*
X25554667Y68960000D01*
X25602286Y68912381D01*
X25649905Y68817143D01*
X25649905Y68721905D01*
X25602286Y68579048D01*
X25030857Y68007619D01*
X25649905Y68007619D01*
X44319143Y18849619D02*
X43985809Y19325810D01*
X43747714Y18849619D02*
X43747714Y19849619D01*
X44128667Y19849619D01*
X44223905Y19802000D01*
X44271524Y19754381D01*
X44319143Y19659143D01*
X44319143Y19516286D01*
X44271524Y19421048D01*
X44223905Y19373429D01*
X44128667Y19325810D01*
X43747714Y19325810D01*
X44652476Y19849619D02*
X45271524Y19849619D01*
X44938190Y19468667D01*
X45081048Y19468667D01*
X45176286Y19421048D01*
X45223905Y19373429D01*
X45271524Y19278190D01*
X45271524Y19040095D01*
X45223905Y18944857D01*
X45176286Y18897238D01*
X45081048Y18849619D01*
X44795333Y18849619D01*
X44700095Y18897238D01*
X44652476Y18944857D01*
X45604857Y19849619D02*
X46223905Y19849619D01*
X45890571Y19468667D01*
X46033429Y19468667D01*
X46128667Y19421048D01*
X46176286Y19373429D01*
X46223905Y19278190D01*
X46223905Y19040095D01*
X46176286Y18944857D01*
X46128667Y18897238D01*
X46033429Y18849619D01*
X45747714Y18849619D01*
X45652476Y18897238D01*
X45604857Y18944857D01*
X42287143Y14413619D02*
X41953809Y14889810D01*
X41715714Y14413619D02*
X41715714Y15413619D01*
X42096667Y15413619D01*
X42191905Y15366000D01*
X42239524Y15318381D01*
X42287143Y15223143D01*
X42287143Y15080286D01*
X42239524Y14985048D01*
X42191905Y14937429D01*
X42096667Y14889810D01*
X41715714Y14889810D01*
X42620476Y15413619D02*
X43239524Y15413619D01*
X42906190Y15032667D01*
X43049048Y15032667D01*
X43144286Y14985048D01*
X43191905Y14937429D01*
X43239524Y14842190D01*
X43239524Y14604095D01*
X43191905Y14508857D01*
X43144286Y14461238D01*
X43049048Y14413619D01*
X42763333Y14413619D01*
X42668095Y14461238D01*
X42620476Y14508857D01*
X44096667Y15080286D02*
X44096667Y14413619D01*
X43858571Y15461238D02*
X43620476Y14746952D01*
X44239524Y14746952D01*
X2250381Y30292095D02*
X3059905Y30292095D01*
X3155143Y30339714D01*
X3202762Y30387333D01*
X3250381Y30482571D01*
X3250381Y30673048D01*
X3202762Y30768286D01*
X3155143Y30815905D01*
X3059905Y30863524D01*
X2250381Y30863524D01*
X3250381Y31863524D02*
X3250381Y31292095D01*
X3250381Y31577809D02*
X2250381Y31577809D01*
X2393238Y31482571D01*
X2488476Y31387333D01*
X2536095Y31292095D01*
X58932095Y34245619D02*
X58932095Y33436095D01*
X58979714Y33340857D01*
X59027333Y33293238D01*
X59122571Y33245619D01*
X59313048Y33245619D01*
X59408286Y33293238D01*
X59455905Y33340857D01*
X59503524Y33436095D01*
X59503524Y34245619D01*
X59932095Y34150381D02*
X59979714Y34198000D01*
X60074952Y34245619D01*
X60313048Y34245619D01*
X60408286Y34198000D01*
X60455905Y34150381D01*
X60503524Y34055143D01*
X60503524Y33959905D01*
X60455905Y33817048D01*
X59884476Y33245619D01*
X60503524Y33245619D01*
X47756095Y47857619D02*
X47756095Y47048095D01*
X47803714Y46952857D01*
X47851333Y46905238D01*
X47946571Y46857619D01*
X48137048Y46857619D01*
X48232286Y46905238D01*
X48279905Y46952857D01*
X48327524Y47048095D01*
X48327524Y47857619D01*
X48708476Y47857619D02*
X49327524Y47857619D01*
X48994190Y47476667D01*
X49137048Y47476667D01*
X49232286Y47429048D01*
X49279905Y47381429D01*
X49327524Y47286190D01*
X49327524Y47048095D01*
X49279905Y46952857D01*
X49232286Y46905238D01*
X49137048Y46857619D01*
X48851333Y46857619D01*
X48756095Y46905238D01*
X48708476Y46952857D01*
X24388095Y102975619D02*
X24388095Y102166095D01*
X24435714Y102070857D01*
X24483333Y102023238D01*
X24578571Y101975619D01*
X24769048Y101975619D01*
X24864286Y102023238D01*
X24911905Y102070857D01*
X24959524Y102166095D01*
X24959524Y102975619D01*
X25864286Y102642286D02*
X25864286Y101975619D01*
X25626190Y103023238D02*
X25388095Y102308952D01*
X26007143Y102308952D01*
X56352381Y85918095D02*
X57161905Y85918095D01*
X57257143Y85965714D01*
X57304762Y86013333D01*
X57352381Y86108571D01*
X57352381Y86299048D01*
X57304762Y86394286D01*
X57257143Y86441905D01*
X57161905Y86489524D01*
X56352381Y86489524D01*
X56352381Y87441905D02*
X56352381Y86965714D01*
X56828571Y86918095D01*
X56780952Y86965714D01*
X56733333Y87060952D01*
X56733333Y87299048D01*
X56780952Y87394286D01*
X56828571Y87441905D01*
X56923810Y87489524D01*
X57161905Y87489524D01*
X57257143Y87441905D01*
X57304762Y87394286D01*
X57352381Y87299048D01*
X57352381Y87060952D01*
X57304762Y86965714D01*
X57257143Y86918095D01*
X31532381Y28260095D02*
X32341905Y28260095D01*
X32437143Y28307714D01*
X32484762Y28355333D01*
X32532381Y28450571D01*
X32532381Y28641048D01*
X32484762Y28736286D01*
X32437143Y28783905D01*
X32341905Y28831524D01*
X31532381Y28831524D01*
X31532381Y29736286D02*
X31532381Y29545809D01*
X31580000Y29450571D01*
X31627619Y29402952D01*
X31770476Y29307714D01*
X31960952Y29260095D01*
X32341905Y29260095D01*
X32437143Y29307714D01*
X32484762Y29355333D01*
X32532381Y29450571D01*
X32532381Y29641048D01*
X32484762Y29736286D01*
X32437143Y29783905D01*
X32341905Y29831524D01*
X32103810Y29831524D01*
X32008571Y29783905D01*
X31960952Y29736286D01*
X31913333Y29641048D01*
X31913333Y29450571D01*
X31960952Y29355333D01*
X32008571Y29307714D01*
X32103810Y29260095D01*
X45493905Y1899619D02*
X45493905Y2899619D01*
X46065334Y1899619D02*
X45636762Y2471048D01*
X46065334Y2899619D02*
X45493905Y2328190D01*
X47017715Y1899619D02*
X46446286Y1899619D01*
X46732000Y1899619D02*
X46732000Y2899619D01*
X46636762Y2756762D01*
X46541524Y2661524D01*
X46446286Y2613905D01*
X29491905Y105785619D02*
X29491905Y106785619D01*
X30063334Y105785619D02*
X29634762Y106357048D01*
X30063334Y106785619D02*
X29491905Y106214190D01*
X30444286Y106690381D02*
X30491905Y106738000D01*
X30587143Y106785619D01*
X30825239Y106785619D01*
X30920477Y106738000D01*
X30968096Y106690381D01*
X31015715Y106595143D01*
X31015715Y106499905D01*
X30968096Y106357048D01*
X30396667Y105785619D01*
X31015715Y105785619D01*
X29237905Y1645619D02*
X29237905Y2645619D01*
X29809334Y1645619D02*
X29380762Y2217048D01*
X29809334Y2645619D02*
X29237905Y2074190D01*
X30666477Y2312286D02*
X30666477Y1645619D01*
X30428381Y2693238D02*
X30190286Y1978952D01*
X30809334Y1978952D01*
X22633905Y90545619D02*
X22633905Y91545619D01*
X23205334Y90545619D02*
X22776762Y91117048D01*
X23205334Y91545619D02*
X22633905Y90974190D01*
X24110096Y91545619D02*
X23633905Y91545619D01*
X23586286Y91069429D01*
X23633905Y91117048D01*
X23729143Y91164667D01*
X23967239Y91164667D01*
X24062477Y91117048D01*
X24110096Y91069429D01*
X24157715Y90974190D01*
X24157715Y90736095D01*
X24110096Y90640857D01*
X24062477Y90593238D01*
X23967239Y90545619D01*
X23729143Y90545619D01*
X23633905Y90593238D01*
X23586286Y90640857D01*
X40667905Y90545619D02*
X40667905Y91545619D01*
X41239334Y90545619D02*
X40810762Y91117048D01*
X41239334Y91545619D02*
X40667905Y90974190D01*
X42096477Y91545619D02*
X41906000Y91545619D01*
X41810762Y91498000D01*
X41763143Y91450381D01*
X41667905Y91307524D01*
X41620286Y91117048D01*
X41620286Y90736095D01*
X41667905Y90640857D01*
X41715524Y90593238D01*
X41810762Y90545619D01*
X42001239Y90545619D01*
X42096477Y90593238D01*
X42144096Y90640857D01*
X42191715Y90736095D01*
X42191715Y90974190D01*
X42144096Y91069429D01*
X42096477Y91117048D01*
X42001239Y91164667D01*
X41810762Y91164667D01*
X41715524Y91117048D01*
X41667905Y91069429D01*
X41620286Y90974190D01*
X81990381Y46317905D02*
X80990381Y46317905D01*
X81990381Y46889334D02*
X81418952Y46460762D01*
X80990381Y46889334D02*
X81561810Y46317905D01*
X80990381Y47222667D02*
X80990381Y47889334D01*
X81990381Y47460762D01*
X50319905Y104769619D02*
X50319905Y105769619D01*
X50700858Y105769619D01*
X50796096Y105722000D01*
X50843715Y105674381D01*
X50891334Y105579143D01*
X50891334Y105436286D01*
X50843715Y105341048D01*
X50796096Y105293429D01*
X50700858Y105245810D01*
X50319905Y105245810D01*
X51748477Y105769619D02*
X51558000Y105769619D01*
X51462762Y105722000D01*
X51415143Y105674381D01*
X51319905Y105531524D01*
X51272286Y105341048D01*
X51272286Y104960095D01*
X51319905Y104864857D01*
X51367524Y104817238D01*
X51462762Y104769619D01*
X51653239Y104769619D01*
X51748477Y104817238D01*
X51796096Y104864857D01*
X51843715Y104960095D01*
X51843715Y105198190D01*
X51796096Y105293429D01*
X51748477Y105341048D01*
X51653239Y105388667D01*
X51462762Y105388667D01*
X51367524Y105341048D01*
X51319905Y105293429D01*
X51272286Y105198190D01*
M02*
