G04 #@! TF.FileFunction,Copper,L1,Top,Signal*
%FSLAX46Y46*%
G04 Gerber Fmt 4.6, Leading zero omitted, Abs format (unit mm)*
G04 Created by KiCad (PCBNEW 4.0.6) date Monday, 23 August 2021 'PMt' 16:23:02*
%MOMM*%
%LPD*%
G01*
G04 APERTURE LIST*
%ADD10C,0.100000*%
%ADD11C,4.064000*%
%ADD12R,1.500000X1.250000*%
%ADD13C,1.300000*%
%ADD14R,1.300000X1.300000*%
%ADD15R,3.600000X3.200000*%
%ADD16R,1.300000X1.500000*%
%ADD17C,1.998980*%
%ADD18O,1.998980X1.501140*%
%ADD19O,1.501140X1.998980*%
%ADD20R,1.500000X1.300000*%
%ADD21O,2.300000X1.600000*%
%ADD22O,8.000000X3.000000*%
%ADD23C,3.000000*%
%ADD24C,1.000000*%
%ADD25C,1.000000*%
%ADD26C,4.000000*%
G04 APERTURE END LIST*
D10*
D11*
X6000000Y82700000D03*
X51100000Y84000000D03*
X5700000Y6800000D03*
D12*
X34950000Y7100000D03*
X32450000Y7100000D03*
D13*
X32600000Y60000000D03*
D14*
X29100000Y60000000D03*
D15*
X12070000Y69578000D03*
X3870000Y69578000D03*
D16*
X7208000Y26732000D03*
X7208000Y24032000D03*
X7462000Y18858000D03*
X7462000Y16158000D03*
X7462000Y34352000D03*
X7462000Y31652000D03*
D17*
X34132000Y28684000D03*
X26512000Y28684000D03*
D18*
X46578000Y31986000D03*
D19*
X49118000Y29446000D03*
X49118000Y34526000D03*
X29052000Y50020000D03*
D18*
X31592000Y52560000D03*
X26512000Y52560000D03*
D19*
X29052000Y38082000D03*
D18*
X31592000Y40622000D03*
X26512000Y40622000D03*
D19*
X29052000Y44178000D03*
D18*
X31592000Y46718000D03*
X26512000Y46718000D03*
X51404000Y43162000D03*
D19*
X48864000Y45702000D03*
X48864000Y40622000D03*
X40228000Y35288000D03*
D18*
X37688000Y32748000D03*
X42768000Y32748000D03*
D16*
X26900000Y9650000D03*
X26900000Y12350000D03*
X24800000Y15750000D03*
X24800000Y13050000D03*
X43784000Y41210000D03*
X43784000Y38510000D03*
D20*
X35150000Y9800000D03*
X32450000Y9800000D03*
X29650000Y14900000D03*
X26950000Y14900000D03*
X41070000Y28684000D03*
X38370000Y28684000D03*
D17*
X26004000Y23350000D03*
X46004000Y23350000D03*
D16*
X37688000Y52640000D03*
X37688000Y49940000D03*
X37688000Y40702000D03*
X37688000Y38002000D03*
X37688000Y47052000D03*
X37688000Y44352000D03*
X10256000Y24032000D03*
X10256000Y26732000D03*
X33370000Y15556000D03*
X33370000Y12856000D03*
X34894000Y49940000D03*
X34894000Y52640000D03*
X35148000Y38002000D03*
X35148000Y40702000D03*
X35148000Y44098000D03*
X35148000Y46798000D03*
X9900000Y18850000D03*
X9900000Y16150000D03*
D20*
X33036000Y18524000D03*
X35736000Y18524000D03*
D16*
X50134000Y18858000D03*
X50134000Y16158000D03*
X10256000Y31652000D03*
X10256000Y34352000D03*
D20*
X28624000Y34780000D03*
X25924000Y34780000D03*
D16*
X40736000Y38510000D03*
X40736000Y41210000D03*
D21*
X37942000Y14968000D03*
X37942000Y12428000D03*
X37942000Y9888000D03*
X37942000Y7348000D03*
X45562000Y7348000D03*
X45562000Y9888000D03*
X45562000Y12428000D03*
X45562000Y14968000D03*
D17*
X3398000Y62720000D03*
X11018000Y62720000D03*
X3144000Y46718000D03*
X10764000Y46718000D03*
X3144000Y40622000D03*
X10764000Y40622000D03*
X3144000Y52052000D03*
X10764000Y52052000D03*
X3398000Y57640000D03*
X11018000Y57640000D03*
D22*
X19100000Y25000000D03*
D23*
X16560000Y25000000D03*
X21640000Y25000000D03*
D22*
X19100000Y18000000D03*
D23*
X16560000Y18000000D03*
X21640000Y18000000D03*
D22*
X19100000Y32000000D03*
D23*
X16560000Y32000000D03*
X21640000Y32000000D03*
D22*
X19100000Y11000000D03*
D23*
X16560000Y11000000D03*
X21640000Y11000000D03*
D22*
X19100000Y67000000D03*
D23*
X16560000Y67000000D03*
X21640000Y67000000D03*
D22*
X19100000Y81000000D03*
D23*
X21640000Y81000000D03*
X16560000Y81000000D03*
D22*
X19100000Y74000000D03*
D23*
X16560000Y74000000D03*
X21640000Y74000000D03*
D22*
X32600000Y84000000D03*
D23*
X30060000Y84000000D03*
X35140000Y84000000D03*
D22*
X32600000Y79000000D03*
D23*
X30060000Y79000000D03*
X35140000Y79000000D03*
D22*
X19100000Y60000000D03*
D23*
X16560000Y60000000D03*
X21640000Y60000000D03*
D22*
X19100000Y53000000D03*
D23*
X16560000Y53000000D03*
X21640000Y53000000D03*
D22*
X19100000Y46000000D03*
D23*
X16560000Y46000000D03*
X21640000Y46000000D03*
D22*
X19100000Y39000000D03*
D23*
X21640000Y39000000D03*
X16560000Y39000000D03*
X41600000Y60500000D03*
X41600000Y65000000D03*
X41600000Y69500000D03*
X50600000Y69500000D03*
X50600000Y65000000D03*
X50600000Y60500000D03*
D20*
X26950000Y7000000D03*
X29650000Y7000000D03*
D11*
X51300000Y6800000D03*
D24*
X30000000Y9600000D03*
X41600000Y49000000D03*
D25*
X50600000Y69500000D02*
X50600000Y70600000D01*
X50600000Y70600000D02*
X44900000Y76300000D01*
X44900000Y76300000D02*
X38400000Y76300000D01*
X38400000Y76300000D02*
X36100000Y74000000D01*
X36100000Y74000000D02*
X19100000Y74000000D01*
X24800000Y13050000D02*
X24550000Y13050000D01*
X24550000Y13050000D02*
X24500000Y13000000D01*
X24500000Y13000000D02*
X23800000Y13000000D01*
X23800000Y13000000D02*
X22400000Y14400000D01*
X22400000Y14400000D02*
X12300000Y14400000D01*
X12300000Y14400000D02*
X11090000Y13190000D01*
X11090000Y13190000D02*
X6446000Y13190000D01*
X3144000Y16492000D02*
X3144000Y40622000D01*
X3144000Y16492000D02*
X6446000Y13190000D01*
X34950000Y7100000D02*
X37694000Y7100000D01*
X37694000Y7100000D02*
X37942000Y7348000D01*
D26*
X3398000Y62720000D02*
X3398000Y69106000D01*
D25*
X3398000Y69106000D02*
X3870000Y69578000D01*
X30200000Y9800000D02*
X32450000Y9800000D01*
X30000000Y9600000D02*
X30200000Y9800000D01*
X32450000Y7100000D02*
X29750000Y7100000D01*
X29750000Y7100000D02*
X29650000Y7000000D01*
X32450000Y7100000D02*
X32450000Y9800000D01*
D26*
X19100000Y67000000D02*
X19100000Y60000000D01*
X19100000Y67000000D02*
X21640000Y67000000D01*
X19100000Y60000000D02*
X21640000Y60000000D01*
X11018000Y62720000D02*
X11018000Y68526000D01*
X11018000Y68526000D02*
X12070000Y69578000D01*
X11018000Y62720000D02*
X12620000Y62720000D01*
X12620000Y62720000D02*
X16560000Y66660000D01*
X16560000Y66660000D02*
X19100000Y67000000D01*
D25*
X47340000Y5940000D02*
X47340000Y5740000D01*
X26950000Y5950000D02*
X28600000Y4300000D01*
X28600000Y4300000D02*
X41333324Y4300000D01*
X47340000Y5940000D02*
X48000000Y6600000D01*
X48000000Y6600000D02*
X48000000Y14024000D01*
X48000000Y14024000D02*
X48356000Y14380000D01*
X50134000Y16158000D02*
X48356000Y14380000D01*
X26950000Y5950000D02*
X26950000Y7000000D01*
X45900000Y4300000D02*
X41333324Y4300000D01*
X47340000Y5740000D02*
X45900000Y4300000D01*
X26950000Y7000000D02*
X26950000Y9600000D01*
X26950000Y9600000D02*
X26900000Y9650000D01*
X7462000Y18858000D02*
X7462000Y20038000D01*
X5096000Y22404000D02*
X5096000Y26732000D01*
X7462000Y20038000D02*
X5096000Y22404000D01*
X11018000Y57640000D02*
X9740000Y57640000D01*
X7462000Y55362000D02*
X7462000Y34352000D01*
X9740000Y57640000D02*
X7462000Y55362000D01*
D26*
X16560000Y60000000D02*
X13378000Y60000000D01*
X13378000Y60000000D02*
X11018000Y57640000D01*
X21640000Y67000000D02*
X21640000Y60000000D01*
X16560000Y60000000D02*
X16560000Y67000000D01*
X11018000Y62720000D02*
X11018000Y57640000D01*
D25*
X7208000Y26732000D02*
X5096000Y26732000D01*
X5096000Y26732000D02*
X5176000Y26812000D01*
X5176000Y26812000D02*
X5176000Y34272000D01*
X5176000Y34272000D02*
X5256000Y34352000D01*
X5256000Y34352000D02*
X7462000Y34352000D01*
X31592000Y52560000D02*
X34814000Y52560000D01*
X34814000Y52560000D02*
X34894000Y52640000D01*
X31592000Y46718000D02*
X35068000Y46718000D01*
X35068000Y46718000D02*
X35148000Y46798000D01*
X31592000Y40622000D02*
X35068000Y40622000D01*
X35068000Y40622000D02*
X35148000Y40702000D01*
X43784000Y41210000D02*
X44372000Y41210000D01*
X44372000Y41210000D02*
X48864000Y45702000D01*
X40736000Y41210000D02*
X43784000Y41210000D01*
X50134000Y16158000D02*
X46752000Y16158000D01*
X46752000Y16158000D02*
X45562000Y14968000D01*
X10256000Y24032000D02*
X7208000Y24032000D01*
X9900000Y16150000D02*
X7470000Y16150000D01*
X7470000Y16150000D02*
X7462000Y16158000D01*
X10256000Y31652000D02*
X7462000Y31652000D01*
X26004000Y23350000D02*
X26004000Y25096000D01*
X12024000Y28500000D02*
X10256000Y26732000D01*
X22600000Y28500000D02*
X12024000Y28500000D01*
X26004000Y25096000D02*
X22600000Y28500000D01*
X34132000Y28684000D02*
X38370000Y28684000D01*
X37688000Y40702000D02*
X37688000Y41088000D01*
X37688000Y41088000D02*
X45600000Y49000000D01*
X45600000Y56500000D02*
X41600000Y60500000D01*
X45600000Y49000000D02*
X45600000Y56500000D01*
X37688000Y40702000D02*
X37688000Y41130000D01*
X37688000Y47052000D02*
X39652000Y47052000D01*
X39652000Y47052000D02*
X41600000Y49000000D01*
X16560000Y32000000D02*
X15100000Y32000000D01*
X15100000Y32000000D02*
X12748000Y34352000D01*
X12748000Y34352000D02*
X10256000Y34352000D01*
X25924000Y34780000D02*
X24420000Y34780000D01*
X24420000Y34780000D02*
X21640000Y32000000D01*
X10430000Y34526000D02*
X10256000Y34352000D01*
X46578000Y31986000D02*
X46578000Y35716000D01*
X46578000Y35716000D02*
X43784000Y38510000D01*
X41070000Y28684000D02*
X45054000Y28684000D01*
X46578000Y30208000D02*
X46578000Y31986000D01*
X45054000Y28684000D02*
X46578000Y30208000D01*
X34894000Y49940000D02*
X37688000Y49940000D01*
X29052000Y50020000D02*
X34814000Y50020000D01*
X34814000Y50020000D02*
X34894000Y49940000D01*
X35148000Y38002000D02*
X37688000Y38002000D01*
X35148000Y38002000D02*
X29132000Y38002000D01*
X29132000Y38002000D02*
X29052000Y38082000D01*
X35148000Y44098000D02*
X29132000Y44098000D01*
X29132000Y44098000D02*
X29052000Y44178000D01*
X35148000Y44098000D02*
X37434000Y44098000D01*
X37434000Y44098000D02*
X37688000Y44352000D01*
X50134000Y18858000D02*
X50134000Y22080000D01*
X52674000Y41892000D02*
X51404000Y43162000D01*
X52674000Y24620000D02*
X52674000Y41892000D01*
X50134000Y22080000D02*
X52674000Y24620000D01*
X35736000Y18524000D02*
X49800000Y18524000D01*
X49800000Y18524000D02*
X50134000Y18858000D01*
X40736000Y38510000D02*
X40736000Y35796000D01*
X40736000Y35796000D02*
X40228000Y35288000D01*
X28624000Y34780000D02*
X39720000Y34780000D01*
X39720000Y34780000D02*
X40228000Y35288000D01*
X26950000Y14900000D02*
X26950000Y16050000D01*
X26650000Y15750000D02*
X24800000Y15750000D01*
X26950000Y16050000D02*
X26650000Y15750000D01*
X26900000Y12350000D02*
X26900000Y14850000D01*
X26900000Y14850000D02*
X26950000Y14900000D01*
X35150000Y9800000D02*
X37854000Y9800000D01*
X37854000Y9800000D02*
X37942000Y9888000D01*
X29650000Y14900000D02*
X29650000Y14450000D01*
X29650000Y14450000D02*
X31244000Y12856000D01*
X31244000Y12856000D02*
X33370000Y12856000D01*
X37942000Y12428000D02*
X33798000Y12428000D01*
X33798000Y12428000D02*
X33370000Y12856000D01*
X35140000Y79000000D02*
X45100000Y79000000D01*
X52100000Y65000000D02*
X50600000Y65000000D01*
X53400000Y66000000D02*
X52100000Y65000000D01*
X53400000Y71000000D02*
X53400000Y66000000D01*
X45100000Y79000000D02*
X53400000Y71000000D01*
X37688000Y60300000D02*
X37688000Y71812000D01*
X53600000Y57500000D02*
X55100000Y59000000D01*
X55100000Y59000000D02*
X55100000Y73000000D01*
X55100000Y73000000D02*
X44100000Y84000000D01*
X44100000Y84000000D02*
X35140000Y84000000D01*
X52600000Y57500000D02*
X49100000Y57500000D01*
X52600000Y57500000D02*
X53600000Y57500000D01*
X46300000Y60300000D02*
X49100000Y57500000D01*
X46300000Y72100000D02*
X46300000Y60300000D01*
X45900002Y72499998D02*
X46300000Y72100000D01*
X38375998Y72499998D02*
X45900002Y72499998D01*
X37688000Y71812000D02*
X38375998Y72499998D01*
X37688000Y52640000D02*
X37688000Y60300000D01*
X37688000Y60300000D02*
X37688000Y60588000D01*
X33036000Y18524000D02*
X33036000Y18964000D01*
X33036000Y18964000D02*
X31800000Y20200000D01*
X9900000Y20200000D02*
X9900000Y18850000D01*
X10900000Y21200000D02*
X9900000Y20200000D01*
X23500000Y21200000D02*
X10900000Y21200000D01*
X24500000Y20200000D02*
X23500000Y21200000D01*
X31800000Y20200000D02*
X24500000Y20200000D01*
X33036000Y18524000D02*
X33036000Y19112000D01*
X33370000Y15556000D02*
X33370000Y18190000D01*
X33370000Y18190000D02*
X33036000Y18524000D01*
X37942000Y14968000D02*
X36418000Y14968000D01*
X35830000Y15556000D02*
X33370000Y15556000D01*
X36418000Y14968000D02*
X35830000Y15556000D01*
G36*
X28075824Y86258227D02*
X27870929Y86121320D01*
X27735218Y85918215D01*
X27518207Y85701582D01*
X27399581Y85415898D01*
X27220610Y85148050D01*
X27158313Y84834862D01*
X27060522Y84599355D01*
X27060298Y84342104D01*
X26992249Y84000000D01*
X27059703Y83660883D01*
X27059481Y83405881D01*
X27157718Y83168129D01*
X27220610Y82851950D01*
X27398146Y82586249D01*
X27515241Y82302857D01*
X27733783Y82083933D01*
X27870929Y81878680D01*
X28074389Y81742732D01*
X28317358Y81499339D01*
X28075824Y81258227D01*
X27870929Y81121320D01*
X27735218Y80918215D01*
X27518207Y80701582D01*
X27399581Y80415898D01*
X27220610Y80148050D01*
X27158313Y79834862D01*
X27060522Y79599355D01*
X27060298Y79342104D01*
X26992249Y79000000D01*
X27059703Y78660883D01*
X27059481Y78405881D01*
X27157718Y78168129D01*
X27220610Y77851950D01*
X27398146Y77586249D01*
X27515241Y77302857D01*
X27733783Y77083933D01*
X27870929Y76878680D01*
X28074389Y76742732D01*
X28358418Y76458207D01*
X28732980Y76302675D01*
X28844199Y76228361D01*
X28974244Y76202493D01*
X29460645Y76000522D01*
X29991955Y76000059D01*
X29992249Y76000000D01*
X30059102Y76000000D01*
X30654119Y75999481D01*
X30655375Y76000000D01*
X35139102Y76000000D01*
X35734119Y75999481D01*
X36225160Y76202375D01*
X36355801Y76228361D01*
X36465585Y76301716D01*
X36837143Y76455241D01*
X37124176Y76741773D01*
X37329071Y76878680D01*
X37410135Y77000000D01*
X44293052Y77000000D01*
X51400000Y70149929D01*
X51400000Y67916163D01*
X51199355Y67999478D01*
X50005881Y68000519D01*
X48902857Y67544759D01*
X48300000Y66942953D01*
X48300000Y72099995D01*
X48300001Y72100000D01*
X48147759Y72865366D01*
X48147759Y72865367D01*
X47714214Y73514214D01*
X47714211Y73514216D01*
X47314216Y73914212D01*
X46665369Y74347757D01*
X45900002Y74499999D01*
X45899997Y74499998D01*
X38376003Y74499998D01*
X38375998Y74499999D01*
X37610631Y74347757D01*
X36961784Y73914212D01*
X36961782Y73914209D01*
X36273786Y73226214D01*
X35840241Y72577367D01*
X35687999Y71812000D01*
X35688000Y71811995D01*
X35688000Y54890225D01*
X35544000Y54919386D01*
X34244000Y54919386D01*
X33688133Y54814793D01*
X33292174Y54560000D01*
X32869759Y54560000D01*
X32751144Y54639256D01*
X31889888Y54810570D01*
X31294112Y54810570D01*
X30456497Y54643958D01*
X30446341Y58015600D01*
X30816396Y58253724D01*
X31158892Y58754983D01*
X31279386Y59350000D01*
X31279386Y60650000D01*
X31174793Y61205867D01*
X30846276Y61716396D01*
X30434346Y61997856D01*
X30399998Y73401506D01*
X30365805Y73581729D01*
X30258404Y73748635D01*
X30094528Y73860607D01*
X29900000Y73900000D01*
X7900000Y73900000D01*
X7716869Y73865256D01*
X7550287Y73757352D01*
X7438809Y73593140D01*
X7400002Y73398494D01*
X7445858Y58174285D01*
X6047786Y56776214D01*
X5614241Y56127367D01*
X5461999Y55362000D01*
X5462000Y55361995D01*
X5462000Y36352000D01*
X5256005Y36352000D01*
X5256000Y36352001D01*
X4490633Y36199759D01*
X3841786Y35766214D01*
X3761786Y35686214D01*
X3328241Y35037367D01*
X3175999Y34272000D01*
X3176000Y34271995D01*
X3176000Y27134189D01*
X3095999Y26732000D01*
X3096000Y26731995D01*
X3096000Y22404005D01*
X3095999Y22404000D01*
X3248241Y21638633D01*
X3681786Y20989786D01*
X5282614Y19388959D01*
X5282614Y18108000D01*
X5387207Y17552133D01*
X5411196Y17514854D01*
X5403108Y17503017D01*
X5282614Y16908000D01*
X5282614Y15408000D01*
X5387207Y14852133D01*
X5715724Y14341604D01*
X6216983Y13999108D01*
X6812000Y13878614D01*
X7579279Y13878614D01*
X7591446Y9838996D01*
X6405640Y10331386D01*
X5000524Y10332612D01*
X3701896Y9796030D01*
X2707462Y8803330D01*
X2168614Y7505640D01*
X2167388Y6100524D01*
X2703970Y4801896D01*
X3696670Y3807462D01*
X4994360Y3268614D01*
X6399476Y3267388D01*
X7698104Y3803970D01*
X8692538Y4796670D01*
X9231386Y6094360D01*
X9231740Y6500000D01*
X24670614Y6500000D01*
X24670614Y6350000D01*
X24775207Y5794133D01*
X25073082Y5331222D01*
X25102241Y5184633D01*
X25535786Y4535786D01*
X27185784Y2885789D01*
X27185786Y2885786D01*
X27834633Y2452241D01*
X28600000Y2300000D01*
X45899995Y2300000D01*
X45900000Y2299999D01*
X46665367Y2452241D01*
X47314214Y2885786D01*
X48754211Y4325784D01*
X48754214Y4325786D01*
X48764252Y4340810D01*
X49296670Y3807462D01*
X50594360Y3268614D01*
X51999476Y3267388D01*
X53298104Y3803970D01*
X54292538Y4796670D01*
X54831386Y6094360D01*
X54832612Y7499476D01*
X54296030Y8798104D01*
X53303330Y9792538D01*
X52005640Y10331386D01*
X50600524Y10332612D01*
X50000000Y10084481D01*
X50000000Y13195572D01*
X50683041Y13878614D01*
X50784000Y13878614D01*
X51339867Y13983207D01*
X51850396Y14311724D01*
X52192892Y14812983D01*
X52313386Y15408000D01*
X52313386Y16908000D01*
X52208793Y17463867D01*
X52184804Y17501146D01*
X52192892Y17512983D01*
X52313386Y18108000D01*
X52313386Y19608000D01*
X52208793Y20163867D01*
X52134000Y20280098D01*
X52134000Y21251572D01*
X54088211Y23205784D01*
X54088214Y23205786D01*
X54521759Y23854633D01*
X54674000Y24620000D01*
X54674000Y41892000D01*
X54521759Y42657367D01*
X54088214Y43306214D01*
X54088211Y43306216D01*
X53882941Y43511486D01*
X53781144Y44023256D01*
X53293281Y44753393D01*
X52563144Y45241256D01*
X51701888Y45412570D01*
X51114570Y45412570D01*
X51114570Y45999888D01*
X50943256Y46861144D01*
X50455393Y47591281D01*
X49725256Y48079144D01*
X48864000Y48250458D01*
X48002744Y48079144D01*
X47272607Y47591281D01*
X46784744Y46861144D01*
X46682947Y46349374D01*
X43822958Y43489386D01*
X43134000Y43489386D01*
X42867707Y43439280D01*
X47014211Y47585784D01*
X47014214Y47585786D01*
X47447759Y48234633D01*
X47480059Y48397017D01*
X47600001Y49000000D01*
X47600000Y49000005D01*
X47600000Y56171572D01*
X47685786Y56085786D01*
X48334633Y55652241D01*
X49100000Y55499999D01*
X49100005Y55500000D01*
X53599995Y55500000D01*
X53600000Y55499999D01*
X54365367Y55652241D01*
X55014214Y56085786D01*
X55550000Y56621572D01*
X55550000Y1650000D01*
X1650000Y1650000D01*
X1650000Y82000524D01*
X2467388Y82000524D01*
X3003970Y80701896D01*
X3996670Y79707462D01*
X5294360Y79168614D01*
X6699476Y79167388D01*
X7998104Y79703970D01*
X8992538Y80696670D01*
X9118491Y81000000D01*
X13492249Y81000000D01*
X13559703Y80660883D01*
X13559481Y80405881D01*
X13657718Y80168129D01*
X13720610Y79851950D01*
X13898146Y79586249D01*
X14015241Y79302857D01*
X14233783Y79083933D01*
X14370929Y78878680D01*
X14574389Y78742732D01*
X14858418Y78458207D01*
X15232980Y78302675D01*
X15344199Y78228361D01*
X15474244Y78202493D01*
X15960645Y78000522D01*
X16491955Y78000059D01*
X16492249Y78000000D01*
X16559102Y78000000D01*
X17154119Y77999481D01*
X17155375Y78000000D01*
X21639102Y78000000D01*
X22234119Y77999481D01*
X22725160Y78202375D01*
X22855801Y78228361D01*
X22965585Y78301716D01*
X23337143Y78455241D01*
X23624176Y78741773D01*
X23829071Y78878680D01*
X23964782Y79081785D01*
X24181793Y79298418D01*
X24300419Y79584102D01*
X24479390Y79851950D01*
X24541687Y80165138D01*
X24639478Y80400645D01*
X24639702Y80657896D01*
X24707751Y81000000D01*
X24640297Y81339117D01*
X24640519Y81594119D01*
X24542282Y81831871D01*
X24479390Y82148050D01*
X24301854Y82413751D01*
X24184759Y82697143D01*
X23966217Y82916067D01*
X23829071Y83121320D01*
X23625611Y83257268D01*
X23341582Y83541793D01*
X22967020Y83697325D01*
X22855801Y83771639D01*
X22725756Y83797507D01*
X22239355Y83999478D01*
X21708045Y83999941D01*
X21707751Y84000000D01*
X21640898Y84000000D01*
X21045881Y84000519D01*
X21044625Y84000000D01*
X16560898Y84000000D01*
X15965881Y84000519D01*
X15474840Y83797625D01*
X15344199Y83771639D01*
X15234415Y83698284D01*
X14862857Y83544759D01*
X14575824Y83258227D01*
X14370929Y83121320D01*
X14235218Y82918215D01*
X14018207Y82701582D01*
X13899581Y82415898D01*
X13720610Y82148050D01*
X13658313Y81834862D01*
X13560522Y81599355D01*
X13560298Y81342104D01*
X13492249Y81000000D01*
X9118491Y81000000D01*
X9531386Y81994360D01*
X9532612Y83399476D01*
X8996030Y84698104D01*
X8003330Y85692538D01*
X6705640Y86231386D01*
X5300524Y86232612D01*
X4001896Y85696030D01*
X3007462Y84703330D01*
X2468614Y83405640D01*
X2467388Y82000524D01*
X1650000Y82000524D01*
X1650000Y86450000D01*
X28267932Y86450000D01*
X28075824Y86258227D01*
X28075824Y86258227D01*
G37*
X28075824Y86258227D02*
X27870929Y86121320D01*
X27735218Y85918215D01*
X27518207Y85701582D01*
X27399581Y85415898D01*
X27220610Y85148050D01*
X27158313Y84834862D01*
X27060522Y84599355D01*
X27060298Y84342104D01*
X26992249Y84000000D01*
X27059703Y83660883D01*
X27059481Y83405881D01*
X27157718Y83168129D01*
X27220610Y82851950D01*
X27398146Y82586249D01*
X27515241Y82302857D01*
X27733783Y82083933D01*
X27870929Y81878680D01*
X28074389Y81742732D01*
X28317358Y81499339D01*
X28075824Y81258227D01*
X27870929Y81121320D01*
X27735218Y80918215D01*
X27518207Y80701582D01*
X27399581Y80415898D01*
X27220610Y80148050D01*
X27158313Y79834862D01*
X27060522Y79599355D01*
X27060298Y79342104D01*
X26992249Y79000000D01*
X27059703Y78660883D01*
X27059481Y78405881D01*
X27157718Y78168129D01*
X27220610Y77851950D01*
X27398146Y77586249D01*
X27515241Y77302857D01*
X27733783Y77083933D01*
X27870929Y76878680D01*
X28074389Y76742732D01*
X28358418Y76458207D01*
X28732980Y76302675D01*
X28844199Y76228361D01*
X28974244Y76202493D01*
X29460645Y76000522D01*
X29991955Y76000059D01*
X29992249Y76000000D01*
X30059102Y76000000D01*
X30654119Y75999481D01*
X30655375Y76000000D01*
X35139102Y76000000D01*
X35734119Y75999481D01*
X36225160Y76202375D01*
X36355801Y76228361D01*
X36465585Y76301716D01*
X36837143Y76455241D01*
X37124176Y76741773D01*
X37329071Y76878680D01*
X37410135Y77000000D01*
X44293052Y77000000D01*
X51400000Y70149929D01*
X51400000Y67916163D01*
X51199355Y67999478D01*
X50005881Y68000519D01*
X48902857Y67544759D01*
X48300000Y66942953D01*
X48300000Y72099995D01*
X48300001Y72100000D01*
X48147759Y72865366D01*
X48147759Y72865367D01*
X47714214Y73514214D01*
X47714211Y73514216D01*
X47314216Y73914212D01*
X46665369Y74347757D01*
X45900002Y74499999D01*
X45899997Y74499998D01*
X38376003Y74499998D01*
X38375998Y74499999D01*
X37610631Y74347757D01*
X36961784Y73914212D01*
X36961782Y73914209D01*
X36273786Y73226214D01*
X35840241Y72577367D01*
X35687999Y71812000D01*
X35688000Y71811995D01*
X35688000Y54890225D01*
X35544000Y54919386D01*
X34244000Y54919386D01*
X33688133Y54814793D01*
X33292174Y54560000D01*
X32869759Y54560000D01*
X32751144Y54639256D01*
X31889888Y54810570D01*
X31294112Y54810570D01*
X30456497Y54643958D01*
X30446341Y58015600D01*
X30816396Y58253724D01*
X31158892Y58754983D01*
X31279386Y59350000D01*
X31279386Y60650000D01*
X31174793Y61205867D01*
X30846276Y61716396D01*
X30434346Y61997856D01*
X30399998Y73401506D01*
X30365805Y73581729D01*
X30258404Y73748635D01*
X30094528Y73860607D01*
X29900000Y73900000D01*
X7900000Y73900000D01*
X7716869Y73865256D01*
X7550287Y73757352D01*
X7438809Y73593140D01*
X7400002Y73398494D01*
X7445858Y58174285D01*
X6047786Y56776214D01*
X5614241Y56127367D01*
X5461999Y55362000D01*
X5462000Y55361995D01*
X5462000Y36352000D01*
X5256005Y36352000D01*
X5256000Y36352001D01*
X4490633Y36199759D01*
X3841786Y35766214D01*
X3761786Y35686214D01*
X3328241Y35037367D01*
X3175999Y34272000D01*
X3176000Y34271995D01*
X3176000Y27134189D01*
X3095999Y26732000D01*
X3096000Y26731995D01*
X3096000Y22404005D01*
X3095999Y22404000D01*
X3248241Y21638633D01*
X3681786Y20989786D01*
X5282614Y19388959D01*
X5282614Y18108000D01*
X5387207Y17552133D01*
X5411196Y17514854D01*
X5403108Y17503017D01*
X5282614Y16908000D01*
X5282614Y15408000D01*
X5387207Y14852133D01*
X5715724Y14341604D01*
X6216983Y13999108D01*
X6812000Y13878614D01*
X7579279Y13878614D01*
X7591446Y9838996D01*
X6405640Y10331386D01*
X5000524Y10332612D01*
X3701896Y9796030D01*
X2707462Y8803330D01*
X2168614Y7505640D01*
X2167388Y6100524D01*
X2703970Y4801896D01*
X3696670Y3807462D01*
X4994360Y3268614D01*
X6399476Y3267388D01*
X7698104Y3803970D01*
X8692538Y4796670D01*
X9231386Y6094360D01*
X9231740Y6500000D01*
X24670614Y6500000D01*
X24670614Y6350000D01*
X24775207Y5794133D01*
X25073082Y5331222D01*
X25102241Y5184633D01*
X25535786Y4535786D01*
X27185784Y2885789D01*
X27185786Y2885786D01*
X27834633Y2452241D01*
X28600000Y2300000D01*
X45899995Y2300000D01*
X45900000Y2299999D01*
X46665367Y2452241D01*
X47314214Y2885786D01*
X48754211Y4325784D01*
X48754214Y4325786D01*
X48764252Y4340810D01*
X49296670Y3807462D01*
X50594360Y3268614D01*
X51999476Y3267388D01*
X53298104Y3803970D01*
X54292538Y4796670D01*
X54831386Y6094360D01*
X54832612Y7499476D01*
X54296030Y8798104D01*
X53303330Y9792538D01*
X52005640Y10331386D01*
X50600524Y10332612D01*
X50000000Y10084481D01*
X50000000Y13195572D01*
X50683041Y13878614D01*
X50784000Y13878614D01*
X51339867Y13983207D01*
X51850396Y14311724D01*
X52192892Y14812983D01*
X52313386Y15408000D01*
X52313386Y16908000D01*
X52208793Y17463867D01*
X52184804Y17501146D01*
X52192892Y17512983D01*
X52313386Y18108000D01*
X52313386Y19608000D01*
X52208793Y20163867D01*
X52134000Y20280098D01*
X52134000Y21251572D01*
X54088211Y23205784D01*
X54088214Y23205786D01*
X54521759Y23854633D01*
X54674000Y24620000D01*
X54674000Y41892000D01*
X54521759Y42657367D01*
X54088214Y43306214D01*
X54088211Y43306216D01*
X53882941Y43511486D01*
X53781144Y44023256D01*
X53293281Y44753393D01*
X52563144Y45241256D01*
X51701888Y45412570D01*
X51114570Y45412570D01*
X51114570Y45999888D01*
X50943256Y46861144D01*
X50455393Y47591281D01*
X49725256Y48079144D01*
X48864000Y48250458D01*
X48002744Y48079144D01*
X47272607Y47591281D01*
X46784744Y46861144D01*
X46682947Y46349374D01*
X43822958Y43489386D01*
X43134000Y43489386D01*
X42867707Y43439280D01*
X47014211Y47585784D01*
X47014214Y47585786D01*
X47447759Y48234633D01*
X47480059Y48397017D01*
X47600001Y49000000D01*
X47600000Y49000005D01*
X47600000Y56171572D01*
X47685786Y56085786D01*
X48334633Y55652241D01*
X49100000Y55499999D01*
X49100005Y55500000D01*
X53599995Y55500000D01*
X53600000Y55499999D01*
X54365367Y55652241D01*
X55014214Y56085786D01*
X55550000Y56621572D01*
X55550000Y1650000D01*
X1650000Y1650000D01*
X1650000Y82000524D01*
X2467388Y82000524D01*
X3003970Y80701896D01*
X3996670Y79707462D01*
X5294360Y79168614D01*
X6699476Y79167388D01*
X7998104Y79703970D01*
X8992538Y80696670D01*
X9118491Y81000000D01*
X13492249Y81000000D01*
X13559703Y80660883D01*
X13559481Y80405881D01*
X13657718Y80168129D01*
X13720610Y79851950D01*
X13898146Y79586249D01*
X14015241Y79302857D01*
X14233783Y79083933D01*
X14370929Y78878680D01*
X14574389Y78742732D01*
X14858418Y78458207D01*
X15232980Y78302675D01*
X15344199Y78228361D01*
X15474244Y78202493D01*
X15960645Y78000522D01*
X16491955Y78000059D01*
X16492249Y78000000D01*
X16559102Y78000000D01*
X17154119Y77999481D01*
X17155375Y78000000D01*
X21639102Y78000000D01*
X22234119Y77999481D01*
X22725160Y78202375D01*
X22855801Y78228361D01*
X22965585Y78301716D01*
X23337143Y78455241D01*
X23624176Y78741773D01*
X23829071Y78878680D01*
X23964782Y79081785D01*
X24181793Y79298418D01*
X24300419Y79584102D01*
X24479390Y79851950D01*
X24541687Y80165138D01*
X24639478Y80400645D01*
X24639702Y80657896D01*
X24707751Y81000000D01*
X24640297Y81339117D01*
X24640519Y81594119D01*
X24542282Y81831871D01*
X24479390Y82148050D01*
X24301854Y82413751D01*
X24184759Y82697143D01*
X23966217Y82916067D01*
X23829071Y83121320D01*
X23625611Y83257268D01*
X23341582Y83541793D01*
X22967020Y83697325D01*
X22855801Y83771639D01*
X22725756Y83797507D01*
X22239355Y83999478D01*
X21708045Y83999941D01*
X21707751Y84000000D01*
X21640898Y84000000D01*
X21045881Y84000519D01*
X21044625Y84000000D01*
X16560898Y84000000D01*
X15965881Y84000519D01*
X15474840Y83797625D01*
X15344199Y83771639D01*
X15234415Y83698284D01*
X14862857Y83544759D01*
X14575824Y83258227D01*
X14370929Y83121320D01*
X14235218Y82918215D01*
X14018207Y82701582D01*
X13899581Y82415898D01*
X13720610Y82148050D01*
X13658313Y81834862D01*
X13560522Y81599355D01*
X13560298Y81342104D01*
X13492249Y81000000D01*
X9118491Y81000000D01*
X9531386Y81994360D01*
X9532612Y83399476D01*
X8996030Y84698104D01*
X8003330Y85692538D01*
X6705640Y86231386D01*
X5300524Y86232612D01*
X4001896Y85696030D01*
X3007462Y84703330D01*
X2468614Y83405640D01*
X2467388Y82000524D01*
X1650000Y82000524D01*
X1650000Y86450000D01*
X28267932Y86450000D01*
X28075824Y86258227D01*
G36*
X43035160Y15848172D02*
X42860083Y14968000D01*
X43035160Y14087828D01*
X43295634Y13698000D01*
X43035160Y13308172D01*
X42860083Y12428000D01*
X43035160Y11547828D01*
X43295634Y11158000D01*
X43035160Y10768172D01*
X42860083Y9888000D01*
X43035160Y9007828D01*
X43295634Y8618000D01*
X43035160Y8228172D01*
X42860083Y7348000D01*
X43035160Y6467828D01*
X43147299Y6300000D01*
X34693948Y6300000D01*
X34729386Y6475000D01*
X34729386Y7620614D01*
X35900000Y7620614D01*
X36455867Y7725207D01*
X36572098Y7800000D01*
X36604652Y7800000D01*
X36659911Y7763077D01*
X37540083Y7588000D01*
X38343917Y7588000D01*
X39224089Y7763077D01*
X39970263Y8261654D01*
X40468840Y9007828D01*
X40643917Y9888000D01*
X40468840Y10768172D01*
X40208366Y11158000D01*
X40468840Y11547828D01*
X40643917Y12428000D01*
X40468840Y13308172D01*
X40208366Y13698000D01*
X40468840Y14087828D01*
X40643917Y14968000D01*
X40468840Y15848172D01*
X40017267Y16524000D01*
X43486733Y16524000D01*
X43035160Y15848172D01*
X43035160Y15848172D01*
G37*
X43035160Y15848172D02*
X42860083Y14968000D01*
X43035160Y14087828D01*
X43295634Y13698000D01*
X43035160Y13308172D01*
X42860083Y12428000D01*
X43035160Y11547828D01*
X43295634Y11158000D01*
X43035160Y10768172D01*
X42860083Y9888000D01*
X43035160Y9007828D01*
X43295634Y8618000D01*
X43035160Y8228172D01*
X42860083Y7348000D01*
X43035160Y6467828D01*
X43147299Y6300000D01*
X34693948Y6300000D01*
X34729386Y6475000D01*
X34729386Y7620614D01*
X35900000Y7620614D01*
X36455867Y7725207D01*
X36572098Y7800000D01*
X36604652Y7800000D01*
X36659911Y7763077D01*
X37540083Y7588000D01*
X38343917Y7588000D01*
X39224089Y7763077D01*
X39970263Y8261654D01*
X40468840Y9007828D01*
X40643917Y9888000D01*
X40468840Y10768172D01*
X40208366Y11158000D01*
X40468840Y11547828D01*
X40643917Y12428000D01*
X40468840Y13308172D01*
X40208366Y13698000D01*
X40468840Y14087828D01*
X40643917Y14968000D01*
X40468840Y15848172D01*
X40017267Y16524000D01*
X43486733Y16524000D01*
X43035160Y15848172D01*
M02*
