G04 #@! TF.FileFunction,Copper,L2,Bot,Signal*
%FSLAX46Y46*%
G04 Gerber Fmt 4.6, Leading zero omitted, Abs format (unit mm)*
G04 Created by KiCad (PCBNEW 4.0.6) date Saturday, 02 October 2021 'AMt' 11:31:50*
%MOMM*%
%LPD*%
G01*
G04 APERTURE LIST*
%ADD10C,0.100000*%
%ADD11R,3.810000X3.810000*%
%ADD12C,3.810000*%
%ADD13C,1.300000*%
%ADD14R,1.300000X1.300000*%
%ADD15C,1.998980*%
%ADD16O,8.000000X3.000000*%
%ADD17C,3.000000*%
%ADD18O,3.000000X8.000000*%
%ADD19C,1.524000*%
%ADD20O,1.600000X2.300000*%
%ADD21C,3.540760*%
%ADD22R,3.540760X3.540760*%
%ADD23C,2.000000*%
%ADD24C,2.100000*%
%ADD25C,4.064000*%
%ADD26C,3.800000*%
%ADD27R,3.500000X3.000000*%
%ADD28C,1.500000*%
%ADD29C,4.000000*%
%ADD30C,1.000000*%
%ADD31C,2.000000*%
%ADD32C,0.750000*%
%ADD33C,0.500000*%
G04 APERTURE END LIST*
D10*
D11*
X130556000Y8890000D03*
D12*
X135636000Y8890000D03*
X140716000Y8890000D03*
D11*
X115316000Y8890000D03*
D12*
X120396000Y8890000D03*
X125476000Y8890000D03*
D11*
X100076000Y8890000D03*
D12*
X105156000Y8890000D03*
X110236000Y8890000D03*
D11*
X84582000Y8890000D03*
D12*
X89662000Y8890000D03*
X94742000Y8890000D03*
D13*
X25400000Y29916000D03*
D14*
X25400000Y26416000D03*
D13*
X31186000Y10414000D03*
D14*
X27686000Y10414000D03*
D15*
X31496000Y35052000D03*
X39116000Y35052000D03*
D12*
X7366000Y9906000D03*
X12446000Y9906000D03*
D11*
X2286000Y9906000D03*
D12*
X17526000Y9906000D03*
X22606000Y9906000D03*
X43942000Y9652000D03*
X49022000Y9652000D03*
D11*
X38862000Y9652000D03*
D12*
X54102000Y9652000D03*
X59182000Y9652000D03*
X64262000Y9652000D03*
D16*
X31242000Y55118000D03*
D17*
X33782000Y55118000D03*
X28702000Y55118000D03*
D16*
X52324000Y55372000D03*
D17*
X49784000Y55372000D03*
X54864000Y55372000D03*
D18*
X73660000Y61214000D03*
D17*
X73660000Y63754000D03*
X73660000Y58674000D03*
D16*
X10668000Y54864000D03*
D17*
X8128000Y54864000D03*
X13208000Y54864000D03*
D15*
X44704000Y16002000D03*
X44704000Y36002000D03*
D19*
X72390000Y12700000D03*
X69850000Y12700000D03*
X74930000Y12700000D03*
D15*
X31750000Y39116000D03*
X31750000Y46736000D03*
D20*
X68834000Y31242000D03*
X71374000Y31242000D03*
X73914000Y31242000D03*
X76454000Y31242000D03*
X76454000Y38862000D03*
X73914000Y38862000D03*
X71374000Y38862000D03*
X68834000Y38862000D03*
D21*
X27940000Y49276000D03*
D22*
X20320000Y49276000D03*
D21*
X67818000Y49530000D03*
D22*
X75438000Y49530000D03*
D21*
X52832000Y49530000D03*
D22*
X60452000Y49530000D03*
D21*
X43434000Y49022000D03*
D22*
X35814000Y49022000D03*
D13*
X104648000Y89718000D03*
D14*
X104648000Y93218000D03*
D15*
X95758000Y94742000D03*
X88138000Y94742000D03*
D17*
X127254000Y71374000D03*
X127254000Y66294000D03*
D23*
X92202000Y61214000D03*
X92202000Y63754000D03*
X92202000Y66294000D03*
X92202000Y76454000D03*
X92202000Y73914000D03*
X92202000Y71374000D03*
X92202000Y68834000D03*
D24*
X109982000Y51562000D03*
X104902000Y51562000D03*
X104902000Y36322000D03*
X112522000Y36322000D03*
X115062000Y36322000D03*
X117602000Y36322000D03*
X99822000Y51562000D03*
X102362000Y51562000D03*
X107442000Y51562000D03*
X112522000Y51562000D03*
X115062000Y51562000D03*
X117602000Y51562000D03*
X120142000Y51562000D03*
X122682000Y51562000D03*
X125222000Y51562000D03*
X127762000Y51562000D03*
X99822000Y36322000D03*
X102362000Y36322000D03*
X109982000Y36322000D03*
X120142000Y36322000D03*
X122682000Y36322000D03*
X125222000Y36322000D03*
X127762000Y36322000D03*
X127762000Y49022000D03*
X127762000Y46482000D03*
X127762000Y43942000D03*
X108712000Y49022000D03*
X111252000Y49022000D03*
X107442000Y36322000D03*
D25*
X145034000Y2794000D03*
X144526000Y93472000D03*
X4318000Y93726000D03*
X1778000Y1524000D03*
X77470000Y2286000D03*
D16*
X5080000Y88138000D03*
D17*
X2540000Y88138000D03*
X7620000Y88138000D03*
D16*
X24384000Y84328000D03*
D17*
X21844000Y84328000D03*
X26924000Y84328000D03*
D26*
X31750000Y72752000D03*
X31750000Y77002000D03*
X31750000Y82002000D03*
X31750000Y86252000D03*
D27*
X31750000Y84152000D03*
X31750000Y74852000D03*
D26*
X48260000Y72752000D03*
X48260000Y77002000D03*
X48260000Y82002000D03*
X48260000Y86252000D03*
D27*
X48260000Y84152000D03*
X48260000Y74852000D03*
D26*
X17018000Y73006000D03*
X17018000Y77256000D03*
X17018000Y82256000D03*
X17018000Y86506000D03*
D27*
X17018000Y84406000D03*
X17018000Y75106000D03*
D26*
X64008000Y73006000D03*
X64008000Y77256000D03*
X64008000Y82256000D03*
X64008000Y86506000D03*
D27*
X64008000Y84406000D03*
X64008000Y75106000D03*
D26*
X78232000Y86252000D03*
X78232000Y82002000D03*
X78232000Y77002000D03*
X78232000Y72752000D03*
D27*
X78232000Y74852000D03*
X78232000Y84152000D03*
D28*
X107442000Y38608000D03*
X102362000Y49784000D03*
X107950000Y87376000D03*
X90678000Y14986000D03*
X79248000Y52070000D03*
X72898000Y17780000D03*
X21844000Y13208000D03*
D23*
X70866000Y88138000D03*
D28*
X4064000Y82550000D03*
X42926000Y86106000D03*
D23*
X58928000Y82804000D03*
D28*
X85344000Y14732000D03*
X106252000Y22780000D03*
X55626000Y12700000D03*
X15748000Y17780000D03*
X23876000Y22606000D03*
X135636000Y13462000D03*
X130302000Y27940000D03*
X60960000Y6858000D03*
X75946000Y15494000D03*
X59182000Y28194000D03*
X52832000Y28194000D03*
X38862000Y13208000D03*
X23876000Y34798000D03*
X56896000Y63246000D03*
X21082000Y35306000D03*
X41656000Y62484000D03*
X4826000Y20828000D03*
X4826000Y34798000D03*
X26162000Y62230000D03*
X14986000Y20320000D03*
X9906000Y20320000D03*
X1524000Y63246000D03*
X12700000Y64770000D03*
X-254000Y81788000D03*
X7366000Y14478000D03*
X23876000Y80772000D03*
X12446000Y14478000D03*
X20828000Y37592000D03*
X36576000Y64516000D03*
X2540000Y14732000D03*
X15494000Y14732000D03*
X46482000Y12954000D03*
X43942000Y30988000D03*
X68326000Y21336000D03*
X112776000Y15494000D03*
X115062000Y15494000D03*
X132842000Y49022000D03*
X135128000Y46482000D03*
X122174000Y27940000D03*
X88392000Y56642000D03*
X107950000Y27940000D03*
X87630000Y27432000D03*
X87884000Y19558000D03*
X100330000Y22606000D03*
X98044000Y19558000D03*
X92964000Y19304000D03*
X103886000Y32258000D03*
X112776000Y31242000D03*
X120142000Y29718000D03*
X107442000Y57912000D03*
X90678000Y30226000D03*
X95758000Y30226000D03*
X100330000Y30226000D03*
X105410000Y15494000D03*
X137414000Y15240000D03*
X92964000Y45720000D03*
X109474000Y55880000D03*
X112522000Y55626000D03*
X115062000Y56896000D03*
X117348000Y48260000D03*
X107188000Y66548000D03*
X117348000Y66802000D03*
X102870000Y73660000D03*
X103124000Y64008000D03*
D29*
X80772000Y20066000D02*
X80772000Y14732000D01*
X79502000Y9144000D02*
X77978000Y7620000D01*
X79502000Y13462000D02*
X79502000Y9144000D01*
X80772000Y14732000D02*
X79502000Y13462000D01*
X80772000Y29718000D02*
X80772000Y44196000D01*
X80772000Y20066000D02*
X80772000Y29718000D01*
D30*
X102362000Y51562000D02*
X102362000Y49784000D01*
X107442000Y38608000D02*
X107442000Y36322000D01*
X104648000Y89718000D02*
X105608000Y89718000D01*
X105608000Y89718000D02*
X107950000Y87376000D01*
X92202000Y63754000D02*
X86360000Y63754000D01*
X86360000Y63754000D02*
X84074000Y61468000D01*
X104648000Y89718000D02*
X104648000Y89662000D01*
X104648000Y89662000D02*
X98806000Y83820000D01*
X98806000Y83820000D02*
X84074000Y83820000D01*
X94742000Y8890000D02*
X94742000Y7366000D01*
X137160000Y34544000D02*
X127762000Y43942000D01*
X137160000Y27686000D02*
X137160000Y34544000D01*
X144272000Y20574000D02*
X137160000Y27686000D01*
X144272000Y7620000D02*
X144272000Y20574000D01*
X140716000Y4064000D02*
X144272000Y7620000D01*
X98044000Y4064000D02*
X140716000Y4064000D01*
X94742000Y7366000D02*
X98044000Y4064000D01*
X127762000Y43942000D02*
X112014000Y43942000D01*
X107442000Y39370000D02*
X107442000Y36322000D01*
X112014000Y43942000D02*
X107442000Y39370000D01*
X94742000Y8890000D02*
X94742000Y7620000D01*
X94742000Y7620000D02*
X90932000Y3810000D01*
X90932000Y3810000D02*
X81788000Y3810000D01*
X81788000Y3810000D02*
X77978000Y7620000D01*
X94742000Y8890000D02*
X94742000Y10922000D01*
X94742000Y10922000D02*
X90678000Y14986000D01*
D29*
X75438000Y49530000D02*
X83820000Y49530000D01*
X82550000Y92456000D02*
X69088000Y92456000D01*
X84074000Y90932000D02*
X82550000Y92456000D01*
X84074000Y49784000D02*
X84074000Y61468000D01*
X84074000Y61468000D02*
X84074000Y83820000D01*
X84074000Y83820000D02*
X84074000Y90932000D01*
X83820000Y49530000D02*
X84074000Y49784000D01*
X80772000Y44196000D02*
X75438000Y49530000D01*
D30*
X79248000Y52070000D02*
X76708000Y49530000D01*
X76708000Y49530000D02*
X75438000Y49530000D01*
X75184000Y20066000D02*
X80772000Y20066000D01*
X72898000Y17780000D02*
X75184000Y20066000D01*
X80772000Y29718000D02*
X77978000Y29718000D01*
D29*
X66548000Y7620000D02*
X77978000Y7620000D01*
X64516000Y9652000D02*
X66548000Y7620000D01*
X77978000Y7620000D02*
X78486000Y7620000D01*
D30*
X77978000Y29718000D02*
X76454000Y31242000D01*
D29*
X64262000Y9652000D02*
X64516000Y9652000D01*
D30*
X25400000Y29916000D02*
X25400000Y30480000D01*
X25400000Y30480000D02*
X29972000Y35052000D01*
X29972000Y35052000D02*
X31496000Y35052000D01*
D29*
X31186000Y10414000D02*
X31186000Y8184000D01*
X31186000Y8184000D02*
X35814000Y3556000D01*
X64262000Y4318000D02*
X64262000Y9652000D01*
X63500000Y3556000D02*
X64262000Y4318000D01*
X35814000Y3556000D02*
X63500000Y3556000D01*
X22606000Y9906000D02*
X22606000Y6350000D01*
X31186000Y6294000D02*
X31186000Y10414000D01*
X30226000Y5334000D02*
X31186000Y6294000D01*
X23622000Y5334000D02*
X30226000Y5334000D01*
X22606000Y6350000D02*
X23622000Y5334000D01*
D30*
X31186000Y8184000D02*
X34544000Y4826000D01*
X34544000Y4826000D02*
X62484000Y4826000D01*
X62484000Y4826000D02*
X64262000Y6604000D01*
X64262000Y6604000D02*
X64262000Y9652000D01*
X22606000Y9906000D02*
X22606000Y12446000D01*
X22606000Y12446000D02*
X21844000Y13208000D01*
D31*
X22606000Y9906000D02*
X22606000Y8128000D01*
X22606000Y8128000D02*
X23622000Y7112000D01*
D29*
X20320000Y49276000D02*
X20320000Y62738000D01*
X4064000Y76962000D02*
X4064000Y82550000D01*
X12700000Y68326000D02*
X4064000Y76962000D01*
X14732000Y68326000D02*
X12700000Y68326000D01*
X20320000Y62738000D02*
X14732000Y68326000D01*
X57658000Y81534000D02*
X58928000Y82804000D01*
X75438000Y49530000D02*
X75438000Y51308000D01*
X75438000Y51308000D02*
X72390000Y54356000D01*
X72390000Y54356000D02*
X65278000Y54356000D01*
X65278000Y54356000D02*
X60452000Y49530000D01*
X70866000Y90678000D02*
X69088000Y92456000D01*
X70866000Y88138000D02*
X70866000Y90678000D01*
X69088000Y92456000D02*
X57658000Y92456000D01*
X55626000Y89916000D02*
X55626000Y90424000D01*
X57658000Y92456000D02*
X55626000Y90424000D01*
X38862000Y91440000D02*
X39624000Y90678000D01*
X12954000Y91440000D02*
X38862000Y91440000D01*
X4064000Y82550000D02*
X12954000Y91440000D01*
X55626000Y89916000D02*
X55626000Y90170000D01*
X42926000Y86106000D02*
X39624000Y86614000D01*
X39624000Y86614000D02*
X39624000Y90678000D01*
X41148000Y92202000D02*
X39624000Y90678000D01*
X53594000Y92202000D02*
X41148000Y92202000D01*
X55626000Y90170000D02*
X53594000Y92202000D01*
X58928000Y82804000D02*
X55626000Y86106000D01*
X55626000Y86106000D02*
X55626000Y89916000D01*
D30*
X103886000Y25146000D02*
X106252000Y22780000D01*
X103886000Y25146000D02*
X88900000Y25146000D01*
X88900000Y25146000D02*
X85344000Y21590000D01*
X85344000Y14732000D02*
X85344000Y21590000D01*
X85344000Y9652000D02*
X85344000Y14732000D01*
X85344000Y9652000D02*
X84582000Y8890000D01*
X55626000Y12700000D02*
X54102000Y11176000D01*
X54102000Y9652000D02*
X54102000Y11176000D01*
X23876000Y22606000D02*
X20574000Y22606000D01*
X17018000Y19050000D02*
X15748000Y17780000D01*
X20574000Y22606000D02*
X17018000Y19050000D01*
X25400000Y24130000D02*
X25400000Y26416000D01*
X23876000Y22606000D02*
X25400000Y24130000D01*
X39116000Y35052000D02*
X39116000Y30226000D01*
X27686000Y18796000D02*
X27686000Y10414000D01*
X39116000Y30226000D02*
X27686000Y18796000D01*
X135636000Y11684000D02*
X135636000Y13462000D01*
X135636000Y8890000D02*
X135636000Y11684000D01*
X135636000Y13462000D02*
X135636000Y25400000D01*
X135636000Y25400000D02*
X133096000Y27940000D01*
X133096000Y27940000D02*
X130302000Y27940000D01*
X59182000Y9652000D02*
X59182000Y8636000D01*
X59182000Y8636000D02*
X60960000Y6858000D01*
X75946000Y15494000D02*
X75946000Y13716000D01*
X75946000Y13716000D02*
X74930000Y12700000D01*
X59182000Y28194000D02*
X59182000Y28448000D01*
X52832000Y28194000D02*
X53086000Y28448000D01*
X53086000Y28448000D02*
X59182000Y28448000D01*
D29*
X59182000Y32004000D02*
X59182000Y28448000D01*
X59182000Y28448000D02*
X59182000Y9652000D01*
X55052000Y36002000D02*
X55184000Y36002000D01*
X55184000Y36002000D02*
X59182000Y32004000D01*
X44704000Y36002000D02*
X55052000Y36002000D01*
X38862000Y9652000D02*
X38862000Y13208000D01*
D30*
X55118000Y62738000D02*
X56388000Y62738000D01*
X45466000Y62738000D02*
X55118000Y62738000D01*
X43156002Y60428002D02*
X45466000Y62738000D01*
X43156002Y56501322D02*
X43156002Y60428002D01*
X48490002Y51167322D02*
X43156002Y56501322D01*
X48490002Y45860678D02*
X48490002Y51167322D01*
X46228000Y43598676D02*
X48490002Y45860678D01*
X40983324Y43598676D02*
X46228000Y43598676D01*
X38834644Y41449996D02*
X40983324Y43598676D01*
X30527996Y41449996D02*
X38834644Y41449996D01*
X23876000Y34798000D02*
X30527996Y41449996D01*
X56388000Y62738000D02*
X56896000Y63246000D01*
X41656000Y55880000D02*
X41656000Y62484000D01*
X43180000Y54356000D02*
X41656000Y55880000D01*
X46990000Y50546000D02*
X43180000Y54356000D01*
X46990000Y46482000D02*
X46990000Y50546000D01*
X45606678Y45098678D02*
X46990000Y46482000D01*
X40362002Y45098678D02*
X45606678Y45098678D01*
X38213322Y42949998D02*
X40362002Y45098678D01*
X28725998Y42949998D02*
X38213322Y42949998D01*
X28725998Y42949998D02*
X21082000Y35306000D01*
X4826000Y20828000D02*
X4826000Y34798000D01*
X25122002Y61190002D02*
X26162000Y62230000D01*
X25122002Y44590678D02*
X25122002Y61190002D01*
X15030662Y34499338D02*
X25122002Y44590678D01*
X15030662Y20364662D02*
X15030662Y34499338D01*
X14986000Y20320000D02*
X15030662Y20364662D01*
X1524000Y63246000D02*
X1524000Y47079324D01*
X8866002Y21359998D02*
X9906000Y20320000D01*
X8866002Y39737322D02*
X8866002Y21359998D01*
X1524000Y47079324D02*
X8866002Y39737322D01*
X11176000Y63246000D02*
X1524000Y63246000D01*
X12700000Y64770000D02*
X11176000Y63246000D01*
X31750000Y46736000D02*
X31750000Y50800000D01*
X27686000Y80088000D02*
X31750000Y84152000D01*
X27686000Y70358000D02*
X27686000Y80088000D01*
X37084000Y60960000D02*
X27686000Y70358000D01*
X37084000Y53848000D02*
X37084000Y60960000D01*
X35306000Y52070000D02*
X37084000Y53848000D01*
X33020000Y52070000D02*
X35306000Y52070000D01*
X31750000Y50800000D02*
X33020000Y52070000D01*
D29*
X31750000Y84152000D02*
X17272000Y84152000D01*
X17272000Y84152000D02*
X17018000Y84406000D01*
D30*
X7366000Y14478000D02*
X7366000Y39116000D01*
X-254000Y46736000D02*
X-254000Y81788000D01*
X7366000Y39116000D02*
X-254000Y46736000D01*
X7366000Y14478000D02*
X7366000Y9906000D01*
X12446000Y14478000D02*
X12446000Y34036000D01*
X23622000Y80518000D02*
X23876000Y80772000D01*
X23622000Y45212000D02*
X23622000Y80518000D01*
X12446000Y34036000D02*
X23622000Y45212000D01*
X12446000Y9906000D02*
X12446000Y14478000D01*
X20828000Y37592000D02*
X27686000Y44450000D01*
X27686000Y44450000D02*
X28702000Y44450000D01*
X38862000Y62230000D02*
X36576000Y64516000D01*
X38862000Y45720000D02*
X38862000Y62230000D01*
X37592000Y44450000D02*
X38862000Y45720000D01*
X28702000Y44450000D02*
X37592000Y44450000D01*
X2286000Y14478000D02*
X2286000Y9906000D01*
X2540000Y14732000D02*
X2286000Y14478000D01*
D32*
X17526000Y12700000D02*
X15494000Y14732000D01*
X17526000Y9906000D02*
X17526000Y12700000D01*
D30*
X43942000Y9652000D02*
X43942000Y10414000D01*
X43942000Y10414000D02*
X46482000Y12954000D01*
X49022000Y25908000D02*
X49022000Y9652000D01*
X43942000Y30988000D02*
X49022000Y25908000D01*
X72390000Y12700000D02*
X72390000Y13970000D01*
X68326000Y18034000D02*
X68326000Y21336000D01*
X72390000Y13970000D02*
X68326000Y18034000D01*
X120396000Y8890000D02*
X120396000Y9398000D01*
X120396000Y9398000D02*
X117176338Y12617662D01*
X117176338Y12617662D02*
X113455662Y12617662D01*
X113455662Y12617662D02*
X112776000Y13297324D01*
X112776000Y13297324D02*
X112776000Y15494000D01*
X120396000Y8890000D02*
X120396000Y9398000D01*
X125476000Y8890000D02*
X124714000Y8890000D01*
X124714000Y8890000D02*
X119486336Y14117664D01*
X119486336Y14117664D02*
X115676336Y14117664D01*
X115676336Y14117664D02*
X115062000Y15494000D01*
X132842000Y49022000D02*
X127762000Y49022000D01*
X135128000Y46482000D02*
X127762000Y46482000D01*
X95758000Y94742000D02*
X103124000Y94742000D01*
X103124000Y94742000D02*
X104648000Y93218000D01*
X122174000Y27940000D02*
X122174000Y17272000D01*
X122174000Y17272000D02*
X130556000Y8890000D01*
X87630000Y49022000D02*
X87630000Y55880000D01*
X87630000Y55880000D02*
X88392000Y56642000D01*
X87630000Y27432000D02*
X87630000Y49022000D01*
X90170000Y51562000D02*
X99822000Y51562000D01*
X87630000Y49022000D02*
X90170000Y51562000D01*
X107950000Y27940000D02*
X122174000Y27940000D01*
X122174000Y27940000D02*
X122428000Y27940000D01*
X88138000Y27940000D02*
X107950000Y27940000D01*
X87630000Y27432000D02*
X88138000Y27940000D01*
X89662000Y8890000D02*
X89662000Y12954000D01*
X87884000Y14732000D02*
X87884000Y19558000D01*
X89662000Y12954000D02*
X87884000Y14732000D01*
X101092000Y18796000D02*
X101092000Y21844000D01*
X110236000Y10922000D02*
X108458000Y12700000D01*
X108458000Y12700000D02*
X104648000Y12700000D01*
X104648000Y12700000D02*
X101092000Y16256000D01*
X101092000Y16256000D02*
X101092000Y18796000D01*
X110236000Y8890000D02*
X110236000Y10922000D01*
X101092000Y21844000D02*
X100330000Y22606000D01*
X105156000Y8890000D02*
X105156000Y9144000D01*
X105156000Y9144000D02*
X99083998Y15216002D01*
X99083998Y15216002D02*
X98321998Y15216002D01*
X98321998Y15216002D02*
X98044000Y15494000D01*
X98044000Y15494000D02*
X98044000Y19558000D01*
X92964000Y19304000D02*
X93218000Y19050000D01*
X93218000Y19050000D02*
X93218000Y14986000D01*
X93218000Y14986000D02*
X94488000Y13716000D01*
X94488000Y13716000D02*
X98298000Y13716000D01*
X98298000Y13716000D02*
X100076000Y11938000D01*
X100076000Y11938000D02*
X100076000Y8890000D01*
X103886000Y32258000D02*
X89154000Y32258000D01*
X89154000Y32258000D02*
X89130002Y32281998D01*
X89130002Y32281998D02*
X89130002Y47220002D01*
X89130002Y47220002D02*
X89916000Y48006000D01*
X89916000Y48006000D02*
X107696000Y48006000D01*
X107696000Y48006000D02*
X108712000Y49022000D01*
X109982000Y34036000D02*
X109982000Y36322000D01*
X112776000Y31242000D02*
X109982000Y34036000D01*
X120142000Y29718000D02*
X116609998Y29718000D01*
X109220000Y30226000D02*
X100330000Y30226000D01*
X110005998Y29440002D02*
X109220000Y30226000D01*
X116332000Y29440002D02*
X110005998Y29440002D01*
X116609998Y29718000D02*
X116332000Y29440002D01*
X107442000Y57912000D02*
X107442000Y59690000D01*
X105918000Y61214000D02*
X92202000Y61214000D01*
X107442000Y59690000D02*
X105918000Y61214000D01*
X107442000Y57912000D02*
X107442000Y51562000D01*
X95758000Y30226000D02*
X90678000Y30226000D01*
X100330000Y30226000D02*
X95758000Y30226000D01*
X115316000Y8890000D02*
X115062000Y8890000D01*
X115062000Y8890000D02*
X109220000Y14732000D01*
X109220000Y14732000D02*
X105410000Y15494000D01*
X140716000Y11938000D02*
X140716000Y8890000D01*
X137414000Y15240000D02*
X140716000Y11938000D01*
X111252000Y46736000D02*
X111252000Y49022000D01*
X110236000Y45720000D02*
X111252000Y46736000D01*
X92964000Y45720000D02*
X110236000Y45720000D01*
X109982000Y55372000D02*
X109982000Y51562000D01*
X109474000Y55880000D02*
X109982000Y55372000D01*
X112522000Y55626000D02*
X112522000Y51562000D01*
X115062000Y56896000D02*
X115062000Y51562000D01*
X117602000Y48514000D02*
X117602000Y51562000D01*
X117348000Y48260000D02*
X117602000Y48514000D01*
X127762000Y51562000D02*
X127762000Y54788648D01*
X106934000Y66294000D02*
X92202000Y66294000D01*
X107188000Y66548000D02*
X106934000Y66294000D01*
X117348000Y65202648D02*
X117348000Y66802000D01*
X127762000Y54788648D02*
X117348000Y65202648D01*
X120142000Y51562000D02*
X120142000Y56044676D01*
X102616000Y73914000D02*
X92202000Y73914000D01*
X102870000Y73660000D02*
X102616000Y73914000D01*
X112178676Y64008000D02*
X103124000Y64008000D01*
X120142000Y56044676D02*
X112178676Y64008000D01*
X125222000Y51562000D02*
X125222000Y55207324D01*
X95504000Y71374000D02*
X92202000Y71374000D01*
X96543998Y70334002D02*
X95504000Y71374000D01*
X110095322Y70334002D02*
X96543998Y70334002D01*
X125222000Y55207324D02*
X110095322Y70334002D01*
X122682000Y51562000D02*
X122682000Y55626000D01*
X109474000Y68834000D02*
X92202000Y68834000D01*
X122682000Y55626000D02*
X109474000Y68834000D01*
G36*
X85139032Y95341253D02*
X85137991Y94147982D01*
X85593674Y93045145D01*
X85729027Y92909556D01*
X84611970Y40407926D01*
X84561136Y40175099D01*
X84454157Y40019513D01*
X84296333Y39915870D01*
X84062478Y39870000D01*
X79135391Y39870000D01*
X79040863Y40345226D01*
X78433899Y41253611D01*
X77525514Y41860575D01*
X76454000Y42073712D01*
X75382486Y41860575D01*
X75184000Y41727951D01*
X74985514Y41860575D01*
X73914000Y42073712D01*
X72842486Y41860575D01*
X72644000Y41727951D01*
X72445514Y41860575D01*
X71374000Y42073712D01*
X70302486Y41860575D01*
X70104000Y41727951D01*
X69905514Y41860575D01*
X68834000Y42073712D01*
X67762486Y41860575D01*
X66854101Y41253611D01*
X66247137Y40345226D01*
X66152609Y39870000D01*
X55847609Y39870000D01*
X55184000Y40002000D01*
X44704000Y40002000D01*
X44040391Y39870000D01*
X40790182Y39870000D01*
X42018858Y41098676D01*
X46228000Y41098676D01*
X47184709Y41288977D01*
X47995767Y41830909D01*
X50257769Y44092911D01*
X50799701Y44903969D01*
X50990002Y45860678D01*
X50990002Y46212357D01*
X52078735Y45760276D01*
X53578685Y45758967D01*
X54964958Y46331764D01*
X56026509Y47391463D01*
X56601724Y48776735D01*
X56601729Y48783315D01*
X64046967Y48783315D01*
X64619764Y47397042D01*
X65679463Y46335491D01*
X67064735Y45760276D01*
X68564685Y45758967D01*
X69950958Y46331764D01*
X71012509Y47391463D01*
X71587724Y48776735D01*
X71589033Y50276685D01*
X71016236Y51662958D01*
X69956537Y52724509D01*
X68571265Y53299724D01*
X67071315Y53301033D01*
X65685042Y52728236D01*
X64623491Y51668537D01*
X64048276Y50283265D01*
X64046967Y48783315D01*
X56601729Y48783315D01*
X56603033Y50276685D01*
X56030236Y51662958D01*
X55744771Y51948922D01*
X56131415Y52108680D01*
X56280939Y52138422D01*
X56406592Y52222380D01*
X56844001Y52403114D01*
X57181900Y52740424D01*
X57416421Y52897126D01*
X57571755Y53129600D01*
X57829425Y53386821D01*
X57970278Y53726033D01*
X58175125Y54032608D01*
X58246429Y54391078D01*
X58363391Y54672753D01*
X58363659Y54980434D01*
X58441547Y55372000D01*
X58364340Y55760146D01*
X58364606Y56065139D01*
X58247109Y56349503D01*
X58175125Y56711392D01*
X57971923Y57015506D01*
X57832886Y57352001D01*
X57573396Y57611944D01*
X57416421Y57846874D01*
X57183541Y58002479D01*
X56849179Y58337425D01*
X56408237Y58520520D01*
X56280939Y58605578D01*
X56132093Y58635185D01*
X55563247Y58871391D01*
X54941883Y58871933D01*
X54941547Y58872000D01*
X54865335Y58872000D01*
X54170861Y58872606D01*
X54169394Y58872000D01*
X49785335Y58872000D01*
X49090861Y58872606D01*
X48516585Y58635320D01*
X48367061Y58605578D01*
X48241408Y58521620D01*
X47803999Y58340886D01*
X47466100Y58003576D01*
X47231579Y57846874D01*
X47076245Y57614400D01*
X46818575Y57357179D01*
X46677722Y57017967D01*
X46476316Y56716542D01*
X45656002Y57536856D01*
X45656002Y59392468D01*
X46501534Y60238000D01*
X56388000Y60238000D01*
X57344709Y60428301D01*
X57452938Y60500617D01*
X58451715Y60913304D01*
X59225977Y61686216D01*
X59645522Y62696591D01*
X59645839Y63060861D01*
X70159394Y63060861D01*
X70160000Y63059394D01*
X70160000Y58675335D01*
X70159394Y57980861D01*
X70396680Y57406585D01*
X70426422Y57257061D01*
X70510380Y57131408D01*
X70691114Y56693999D01*
X71028424Y56356100D01*
X71185126Y56121579D01*
X71417600Y55966245D01*
X71674821Y55708575D01*
X72014033Y55567722D01*
X72320608Y55362875D01*
X72679078Y55291571D01*
X72960753Y55174609D01*
X73268434Y55174341D01*
X73660000Y55096453D01*
X74048146Y55173660D01*
X74353139Y55173394D01*
X74637503Y55290891D01*
X74999392Y55362875D01*
X75303506Y55566077D01*
X75640001Y55705114D01*
X75899944Y55964604D01*
X76134874Y56121579D01*
X76290479Y56354459D01*
X76625425Y56688821D01*
X76808520Y57129763D01*
X76893578Y57257061D01*
X76923185Y57405907D01*
X77159391Y57974753D01*
X77159933Y58596117D01*
X77160000Y58596453D01*
X77160000Y58672665D01*
X77160606Y59367139D01*
X77160000Y59368606D01*
X77160000Y63752665D01*
X77160606Y64447139D01*
X76923320Y65021415D01*
X76893578Y65170939D01*
X76809620Y65296592D01*
X76628886Y65734001D01*
X76291576Y66071900D01*
X76134874Y66306421D01*
X75902400Y66461755D01*
X75645179Y66719425D01*
X75305967Y66860278D01*
X74999392Y67065125D01*
X74640922Y67136429D01*
X74359247Y67253391D01*
X74051566Y67253659D01*
X73660000Y67331547D01*
X73271854Y67254340D01*
X72966861Y67254606D01*
X72682497Y67137109D01*
X72320608Y67065125D01*
X72016494Y66861923D01*
X71679999Y66722886D01*
X71420056Y66463396D01*
X71185126Y66306421D01*
X71029521Y66073541D01*
X70694575Y65739179D01*
X70511480Y65298237D01*
X70426422Y65170939D01*
X70396815Y65022093D01*
X70160609Y64453247D01*
X70160067Y63831883D01*
X70160000Y63831547D01*
X70160000Y63755335D01*
X70159394Y63060861D01*
X59645839Y63060861D01*
X59646477Y63790609D01*
X59228696Y64801715D01*
X58455784Y65575977D01*
X57445409Y65995522D01*
X56351391Y65996477D01*
X55340285Y65578696D01*
X54998994Y65238000D01*
X45466000Y65238000D01*
X44509292Y65047700D01*
X43698233Y64505767D01*
X43610769Y64418303D01*
X43215784Y64813977D01*
X42205409Y65233522D01*
X41111391Y65234477D01*
X40100285Y64816696D01*
X39955435Y64672099D01*
X39157169Y65470365D01*
X38908696Y66071715D01*
X38135784Y66845977D01*
X37125409Y67265522D01*
X36031391Y67266477D01*
X35020285Y66848696D01*
X34875435Y66704099D01*
X32668022Y68911512D01*
X33956287Y69443813D01*
X35054332Y70539943D01*
X35649322Y71972839D01*
X35650676Y73524355D01*
X35539182Y73794191D01*
X35539182Y75957592D01*
X35649322Y76222839D01*
X35650676Y77774355D01*
X35058187Y79208287D01*
X34765435Y79501550D01*
X35054332Y79789943D01*
X35649322Y81222839D01*
X35650676Y82774355D01*
X35539182Y83044191D01*
X35539182Y83092147D01*
X35750000Y84152000D01*
X35539755Y85208972D01*
X35649322Y85472839D01*
X35649327Y85479645D01*
X44359324Y85479645D01*
X44470818Y85209809D01*
X44470818Y83046408D01*
X44360678Y82781161D01*
X44359324Y81229645D01*
X44951813Y79795713D01*
X45244565Y79502450D01*
X44955668Y79214057D01*
X44360678Y77781161D01*
X44359324Y76229645D01*
X44470818Y75959809D01*
X44470818Y73796408D01*
X44360678Y73531161D01*
X44359324Y71979645D01*
X44951813Y70545713D01*
X46047943Y69447668D01*
X47480839Y68852678D01*
X49032355Y68851324D01*
X50466287Y69443813D01*
X51564332Y70539943D01*
X52159322Y71972839D01*
X52160676Y73524355D01*
X52049182Y73794191D01*
X52049182Y75957592D01*
X52159322Y76222839D01*
X52160676Y77774355D01*
X51568187Y79208287D01*
X51275435Y79501550D01*
X51564332Y79789943D01*
X52159322Y81222839D01*
X52160676Y82774355D01*
X52049182Y83044191D01*
X52049182Y85207592D01*
X52159322Y85472839D01*
X52159549Y85733645D01*
X60107324Y85733645D01*
X60218818Y85463809D01*
X60218818Y83300408D01*
X60108678Y83035161D01*
X60107324Y81483645D01*
X60699813Y80049713D01*
X60992565Y79756450D01*
X60703668Y79468057D01*
X60108678Y78035161D01*
X60107324Y76483645D01*
X60218818Y76213809D01*
X60218818Y74050408D01*
X60108678Y73785161D01*
X60107324Y72233645D01*
X60699813Y70799713D01*
X61795943Y69701668D01*
X63228839Y69106678D01*
X64780355Y69105324D01*
X66214287Y69697813D01*
X67312332Y70793943D01*
X67907322Y72226839D01*
X67908676Y73778355D01*
X67797182Y74048191D01*
X67797182Y76211592D01*
X67907322Y76476839D01*
X67908676Y78028355D01*
X67316187Y79462287D01*
X67023435Y79755550D01*
X67312332Y80043943D01*
X67907322Y81476839D01*
X67908676Y83028355D01*
X67797182Y83298191D01*
X67797182Y85461592D01*
X67804678Y85479645D01*
X74331324Y85479645D01*
X74442818Y85209809D01*
X74442818Y83046408D01*
X74332678Y82781161D01*
X74331324Y81229645D01*
X74923813Y79795713D01*
X75216565Y79502450D01*
X74927668Y79214057D01*
X74332678Y77781161D01*
X74331324Y76229645D01*
X74442818Y75959809D01*
X74442818Y73796408D01*
X74332678Y73531161D01*
X74331324Y71979645D01*
X74923813Y70545713D01*
X76019943Y69447668D01*
X77452839Y68852678D01*
X79004355Y68851324D01*
X80438287Y69443813D01*
X81536332Y70539943D01*
X82131322Y71972839D01*
X82132676Y73524355D01*
X82021182Y73794191D01*
X82021182Y75957592D01*
X82131322Y76222839D01*
X82132676Y77774355D01*
X81540187Y79208287D01*
X81247435Y79501550D01*
X81536332Y79789943D01*
X82131322Y81222839D01*
X82132676Y82774355D01*
X82021182Y83044191D01*
X82021182Y85207592D01*
X82131322Y85472839D01*
X82132676Y87024355D01*
X81540187Y88458287D01*
X80444057Y89556332D01*
X79011161Y90151322D01*
X77459645Y90152676D01*
X76025713Y89560187D01*
X74927668Y88464057D01*
X74332678Y87031161D01*
X74331324Y85479645D01*
X67804678Y85479645D01*
X67907322Y85726839D01*
X67908676Y87278355D01*
X67316187Y88712287D01*
X66220057Y89810332D01*
X64787161Y90405322D01*
X63235645Y90406676D01*
X61801713Y89814187D01*
X60703668Y88718057D01*
X60108678Y87285161D01*
X60107324Y85733645D01*
X52159549Y85733645D01*
X52160676Y87024355D01*
X51568187Y88458287D01*
X50472057Y89556332D01*
X49039161Y90151322D01*
X47487645Y90152676D01*
X46053713Y89560187D01*
X44955668Y88464057D01*
X44360678Y87031161D01*
X44359324Y85479645D01*
X35649327Y85479645D01*
X35650676Y87024355D01*
X35058187Y88458287D01*
X33962057Y89556332D01*
X32529161Y90151322D01*
X30977645Y90152676D01*
X29543713Y89560187D01*
X28445668Y88464057D01*
X28316091Y88152000D01*
X20557693Y88152000D01*
X20326187Y88712287D01*
X19230057Y89810332D01*
X17797161Y90405322D01*
X16245645Y90406676D01*
X14811713Y89814187D01*
X13713668Y88718057D01*
X13118678Y87285161D01*
X13117324Y85733645D01*
X13228544Y85464473D01*
X13018000Y84406000D01*
X13228818Y83346147D01*
X13228818Y83300408D01*
X13118678Y83035161D01*
X13117324Y81483645D01*
X13709813Y80049713D01*
X14002565Y79756450D01*
X13713668Y79468057D01*
X13118678Y78035161D01*
X13117324Y76483645D01*
X13228818Y76213809D01*
X13228818Y74050408D01*
X13118678Y73785161D01*
X13117324Y72233645D01*
X13709813Y70799713D01*
X14805943Y69701668D01*
X16238839Y69106678D01*
X17790355Y69105324D01*
X19224287Y69697813D01*
X20322332Y70793943D01*
X20917322Y72226839D01*
X20918676Y73778355D01*
X20807182Y74048191D01*
X20807182Y76211592D01*
X20917322Y76476839D01*
X20918676Y78028355D01*
X20326187Y79462287D01*
X20033435Y79755550D01*
X20322332Y80043943D01*
X20367201Y80152000D01*
X21122000Y80152000D01*
X21122000Y46247534D01*
X14744466Y39870000D01*
X11339611Y39870000D01*
X11175701Y40694031D01*
X10633769Y41505089D01*
X4024000Y48114858D01*
X4024000Y54864000D01*
X4550453Y54864000D01*
X4627660Y54475854D01*
X4627394Y54170861D01*
X4744891Y53886497D01*
X4816875Y53524608D01*
X5020077Y53220494D01*
X5159114Y52883999D01*
X5418604Y52624056D01*
X5575579Y52389126D01*
X5808459Y52233521D01*
X6142821Y51898575D01*
X6583763Y51715480D01*
X6711061Y51630422D01*
X6859907Y51600815D01*
X7428753Y51364609D01*
X8050117Y51364067D01*
X8050453Y51364000D01*
X8126665Y51364000D01*
X8821139Y51363394D01*
X8822606Y51364000D01*
X13206665Y51364000D01*
X13901139Y51363394D01*
X14475415Y51600680D01*
X14624939Y51630422D01*
X14750592Y51714380D01*
X15188001Y51895114D01*
X15525900Y52232424D01*
X15760421Y52389126D01*
X15915755Y52621600D01*
X16173425Y52878821D01*
X16314278Y53218033D01*
X16519125Y53524608D01*
X16590429Y53883078D01*
X16707391Y54164753D01*
X16707659Y54472434D01*
X16785547Y54864000D01*
X16708340Y55252146D01*
X16708606Y55557139D01*
X16591109Y55841503D01*
X16519125Y56203392D01*
X16315923Y56507506D01*
X16176886Y56844001D01*
X15917396Y57103944D01*
X15760421Y57338874D01*
X15527541Y57494479D01*
X15193179Y57829425D01*
X14752237Y58012520D01*
X14624939Y58097578D01*
X14476093Y58127185D01*
X13907247Y58363391D01*
X13285883Y58363933D01*
X13285547Y58364000D01*
X13209335Y58364000D01*
X12514861Y58364606D01*
X12513394Y58364000D01*
X8129335Y58364000D01*
X7434861Y58364606D01*
X6860585Y58127320D01*
X6711061Y58097578D01*
X6585408Y58013620D01*
X6147999Y57832886D01*
X5810100Y57495576D01*
X5575579Y57338874D01*
X5420245Y57106400D01*
X5162575Y56849179D01*
X5021722Y56509967D01*
X4816875Y56203392D01*
X4745571Y55844922D01*
X4628609Y55563247D01*
X4628341Y55255566D01*
X4550453Y54864000D01*
X4024000Y54864000D01*
X4024000Y60746000D01*
X11176000Y60746000D01*
X12132709Y60936301D01*
X12943767Y61478233D01*
X13654365Y62188831D01*
X14255715Y62437304D01*
X15029977Y63210216D01*
X15449522Y64220591D01*
X15450477Y65314609D01*
X15032696Y66325715D01*
X14259784Y67099977D01*
X13249409Y67519522D01*
X12155391Y67520477D01*
X11144285Y67102696D01*
X10370023Y66329784D01*
X10127614Y65746000D01*
X2674324Y65746000D01*
X2246000Y65923856D01*
X2246000Y80637676D01*
X2495522Y81238591D01*
X2496477Y82332609D01*
X2078696Y83343715D01*
X1305784Y84117977D01*
X830000Y84315540D01*
X830000Y91609232D01*
X897843Y91445039D01*
X2031073Y90309829D01*
X3512467Y89694701D01*
X5116496Y89693301D01*
X6598961Y90305843D01*
X7734171Y91439073D01*
X8349299Y92920467D01*
X8350699Y94524496D01*
X7738157Y96006961D01*
X7547451Y96198000D01*
X85494784Y96198000D01*
X85139032Y95341253D01*
X85139032Y95341253D01*
G37*
X85139032Y95341253D02*
X85137991Y94147982D01*
X85593674Y93045145D01*
X85729027Y92909556D01*
X84611970Y40407926D01*
X84561136Y40175099D01*
X84454157Y40019513D01*
X84296333Y39915870D01*
X84062478Y39870000D01*
X79135391Y39870000D01*
X79040863Y40345226D01*
X78433899Y41253611D01*
X77525514Y41860575D01*
X76454000Y42073712D01*
X75382486Y41860575D01*
X75184000Y41727951D01*
X74985514Y41860575D01*
X73914000Y42073712D01*
X72842486Y41860575D01*
X72644000Y41727951D01*
X72445514Y41860575D01*
X71374000Y42073712D01*
X70302486Y41860575D01*
X70104000Y41727951D01*
X69905514Y41860575D01*
X68834000Y42073712D01*
X67762486Y41860575D01*
X66854101Y41253611D01*
X66247137Y40345226D01*
X66152609Y39870000D01*
X55847609Y39870000D01*
X55184000Y40002000D01*
X44704000Y40002000D01*
X44040391Y39870000D01*
X40790182Y39870000D01*
X42018858Y41098676D01*
X46228000Y41098676D01*
X47184709Y41288977D01*
X47995767Y41830909D01*
X50257769Y44092911D01*
X50799701Y44903969D01*
X50990002Y45860678D01*
X50990002Y46212357D01*
X52078735Y45760276D01*
X53578685Y45758967D01*
X54964958Y46331764D01*
X56026509Y47391463D01*
X56601724Y48776735D01*
X56601729Y48783315D01*
X64046967Y48783315D01*
X64619764Y47397042D01*
X65679463Y46335491D01*
X67064735Y45760276D01*
X68564685Y45758967D01*
X69950958Y46331764D01*
X71012509Y47391463D01*
X71587724Y48776735D01*
X71589033Y50276685D01*
X71016236Y51662958D01*
X69956537Y52724509D01*
X68571265Y53299724D01*
X67071315Y53301033D01*
X65685042Y52728236D01*
X64623491Y51668537D01*
X64048276Y50283265D01*
X64046967Y48783315D01*
X56601729Y48783315D01*
X56603033Y50276685D01*
X56030236Y51662958D01*
X55744771Y51948922D01*
X56131415Y52108680D01*
X56280939Y52138422D01*
X56406592Y52222380D01*
X56844001Y52403114D01*
X57181900Y52740424D01*
X57416421Y52897126D01*
X57571755Y53129600D01*
X57829425Y53386821D01*
X57970278Y53726033D01*
X58175125Y54032608D01*
X58246429Y54391078D01*
X58363391Y54672753D01*
X58363659Y54980434D01*
X58441547Y55372000D01*
X58364340Y55760146D01*
X58364606Y56065139D01*
X58247109Y56349503D01*
X58175125Y56711392D01*
X57971923Y57015506D01*
X57832886Y57352001D01*
X57573396Y57611944D01*
X57416421Y57846874D01*
X57183541Y58002479D01*
X56849179Y58337425D01*
X56408237Y58520520D01*
X56280939Y58605578D01*
X56132093Y58635185D01*
X55563247Y58871391D01*
X54941883Y58871933D01*
X54941547Y58872000D01*
X54865335Y58872000D01*
X54170861Y58872606D01*
X54169394Y58872000D01*
X49785335Y58872000D01*
X49090861Y58872606D01*
X48516585Y58635320D01*
X48367061Y58605578D01*
X48241408Y58521620D01*
X47803999Y58340886D01*
X47466100Y58003576D01*
X47231579Y57846874D01*
X47076245Y57614400D01*
X46818575Y57357179D01*
X46677722Y57017967D01*
X46476316Y56716542D01*
X45656002Y57536856D01*
X45656002Y59392468D01*
X46501534Y60238000D01*
X56388000Y60238000D01*
X57344709Y60428301D01*
X57452938Y60500617D01*
X58451715Y60913304D01*
X59225977Y61686216D01*
X59645522Y62696591D01*
X59645839Y63060861D01*
X70159394Y63060861D01*
X70160000Y63059394D01*
X70160000Y58675335D01*
X70159394Y57980861D01*
X70396680Y57406585D01*
X70426422Y57257061D01*
X70510380Y57131408D01*
X70691114Y56693999D01*
X71028424Y56356100D01*
X71185126Y56121579D01*
X71417600Y55966245D01*
X71674821Y55708575D01*
X72014033Y55567722D01*
X72320608Y55362875D01*
X72679078Y55291571D01*
X72960753Y55174609D01*
X73268434Y55174341D01*
X73660000Y55096453D01*
X74048146Y55173660D01*
X74353139Y55173394D01*
X74637503Y55290891D01*
X74999392Y55362875D01*
X75303506Y55566077D01*
X75640001Y55705114D01*
X75899944Y55964604D01*
X76134874Y56121579D01*
X76290479Y56354459D01*
X76625425Y56688821D01*
X76808520Y57129763D01*
X76893578Y57257061D01*
X76923185Y57405907D01*
X77159391Y57974753D01*
X77159933Y58596117D01*
X77160000Y58596453D01*
X77160000Y58672665D01*
X77160606Y59367139D01*
X77160000Y59368606D01*
X77160000Y63752665D01*
X77160606Y64447139D01*
X76923320Y65021415D01*
X76893578Y65170939D01*
X76809620Y65296592D01*
X76628886Y65734001D01*
X76291576Y66071900D01*
X76134874Y66306421D01*
X75902400Y66461755D01*
X75645179Y66719425D01*
X75305967Y66860278D01*
X74999392Y67065125D01*
X74640922Y67136429D01*
X74359247Y67253391D01*
X74051566Y67253659D01*
X73660000Y67331547D01*
X73271854Y67254340D01*
X72966861Y67254606D01*
X72682497Y67137109D01*
X72320608Y67065125D01*
X72016494Y66861923D01*
X71679999Y66722886D01*
X71420056Y66463396D01*
X71185126Y66306421D01*
X71029521Y66073541D01*
X70694575Y65739179D01*
X70511480Y65298237D01*
X70426422Y65170939D01*
X70396815Y65022093D01*
X70160609Y64453247D01*
X70160067Y63831883D01*
X70160000Y63831547D01*
X70160000Y63755335D01*
X70159394Y63060861D01*
X59645839Y63060861D01*
X59646477Y63790609D01*
X59228696Y64801715D01*
X58455784Y65575977D01*
X57445409Y65995522D01*
X56351391Y65996477D01*
X55340285Y65578696D01*
X54998994Y65238000D01*
X45466000Y65238000D01*
X44509292Y65047700D01*
X43698233Y64505767D01*
X43610769Y64418303D01*
X43215784Y64813977D01*
X42205409Y65233522D01*
X41111391Y65234477D01*
X40100285Y64816696D01*
X39955435Y64672099D01*
X39157169Y65470365D01*
X38908696Y66071715D01*
X38135784Y66845977D01*
X37125409Y67265522D01*
X36031391Y67266477D01*
X35020285Y66848696D01*
X34875435Y66704099D01*
X32668022Y68911512D01*
X33956287Y69443813D01*
X35054332Y70539943D01*
X35649322Y71972839D01*
X35650676Y73524355D01*
X35539182Y73794191D01*
X35539182Y75957592D01*
X35649322Y76222839D01*
X35650676Y77774355D01*
X35058187Y79208287D01*
X34765435Y79501550D01*
X35054332Y79789943D01*
X35649322Y81222839D01*
X35650676Y82774355D01*
X35539182Y83044191D01*
X35539182Y83092147D01*
X35750000Y84152000D01*
X35539755Y85208972D01*
X35649322Y85472839D01*
X35649327Y85479645D01*
X44359324Y85479645D01*
X44470818Y85209809D01*
X44470818Y83046408D01*
X44360678Y82781161D01*
X44359324Y81229645D01*
X44951813Y79795713D01*
X45244565Y79502450D01*
X44955668Y79214057D01*
X44360678Y77781161D01*
X44359324Y76229645D01*
X44470818Y75959809D01*
X44470818Y73796408D01*
X44360678Y73531161D01*
X44359324Y71979645D01*
X44951813Y70545713D01*
X46047943Y69447668D01*
X47480839Y68852678D01*
X49032355Y68851324D01*
X50466287Y69443813D01*
X51564332Y70539943D01*
X52159322Y71972839D01*
X52160676Y73524355D01*
X52049182Y73794191D01*
X52049182Y75957592D01*
X52159322Y76222839D01*
X52160676Y77774355D01*
X51568187Y79208287D01*
X51275435Y79501550D01*
X51564332Y79789943D01*
X52159322Y81222839D01*
X52160676Y82774355D01*
X52049182Y83044191D01*
X52049182Y85207592D01*
X52159322Y85472839D01*
X52159549Y85733645D01*
X60107324Y85733645D01*
X60218818Y85463809D01*
X60218818Y83300408D01*
X60108678Y83035161D01*
X60107324Y81483645D01*
X60699813Y80049713D01*
X60992565Y79756450D01*
X60703668Y79468057D01*
X60108678Y78035161D01*
X60107324Y76483645D01*
X60218818Y76213809D01*
X60218818Y74050408D01*
X60108678Y73785161D01*
X60107324Y72233645D01*
X60699813Y70799713D01*
X61795943Y69701668D01*
X63228839Y69106678D01*
X64780355Y69105324D01*
X66214287Y69697813D01*
X67312332Y70793943D01*
X67907322Y72226839D01*
X67908676Y73778355D01*
X67797182Y74048191D01*
X67797182Y76211592D01*
X67907322Y76476839D01*
X67908676Y78028355D01*
X67316187Y79462287D01*
X67023435Y79755550D01*
X67312332Y80043943D01*
X67907322Y81476839D01*
X67908676Y83028355D01*
X67797182Y83298191D01*
X67797182Y85461592D01*
X67804678Y85479645D01*
X74331324Y85479645D01*
X74442818Y85209809D01*
X74442818Y83046408D01*
X74332678Y82781161D01*
X74331324Y81229645D01*
X74923813Y79795713D01*
X75216565Y79502450D01*
X74927668Y79214057D01*
X74332678Y77781161D01*
X74331324Y76229645D01*
X74442818Y75959809D01*
X74442818Y73796408D01*
X74332678Y73531161D01*
X74331324Y71979645D01*
X74923813Y70545713D01*
X76019943Y69447668D01*
X77452839Y68852678D01*
X79004355Y68851324D01*
X80438287Y69443813D01*
X81536332Y70539943D01*
X82131322Y71972839D01*
X82132676Y73524355D01*
X82021182Y73794191D01*
X82021182Y75957592D01*
X82131322Y76222839D01*
X82132676Y77774355D01*
X81540187Y79208287D01*
X81247435Y79501550D01*
X81536332Y79789943D01*
X82131322Y81222839D01*
X82132676Y82774355D01*
X82021182Y83044191D01*
X82021182Y85207592D01*
X82131322Y85472839D01*
X82132676Y87024355D01*
X81540187Y88458287D01*
X80444057Y89556332D01*
X79011161Y90151322D01*
X77459645Y90152676D01*
X76025713Y89560187D01*
X74927668Y88464057D01*
X74332678Y87031161D01*
X74331324Y85479645D01*
X67804678Y85479645D01*
X67907322Y85726839D01*
X67908676Y87278355D01*
X67316187Y88712287D01*
X66220057Y89810332D01*
X64787161Y90405322D01*
X63235645Y90406676D01*
X61801713Y89814187D01*
X60703668Y88718057D01*
X60108678Y87285161D01*
X60107324Y85733645D01*
X52159549Y85733645D01*
X52160676Y87024355D01*
X51568187Y88458287D01*
X50472057Y89556332D01*
X49039161Y90151322D01*
X47487645Y90152676D01*
X46053713Y89560187D01*
X44955668Y88464057D01*
X44360678Y87031161D01*
X44359324Y85479645D01*
X35649327Y85479645D01*
X35650676Y87024355D01*
X35058187Y88458287D01*
X33962057Y89556332D01*
X32529161Y90151322D01*
X30977645Y90152676D01*
X29543713Y89560187D01*
X28445668Y88464057D01*
X28316091Y88152000D01*
X20557693Y88152000D01*
X20326187Y88712287D01*
X19230057Y89810332D01*
X17797161Y90405322D01*
X16245645Y90406676D01*
X14811713Y89814187D01*
X13713668Y88718057D01*
X13118678Y87285161D01*
X13117324Y85733645D01*
X13228544Y85464473D01*
X13018000Y84406000D01*
X13228818Y83346147D01*
X13228818Y83300408D01*
X13118678Y83035161D01*
X13117324Y81483645D01*
X13709813Y80049713D01*
X14002565Y79756450D01*
X13713668Y79468057D01*
X13118678Y78035161D01*
X13117324Y76483645D01*
X13228818Y76213809D01*
X13228818Y74050408D01*
X13118678Y73785161D01*
X13117324Y72233645D01*
X13709813Y70799713D01*
X14805943Y69701668D01*
X16238839Y69106678D01*
X17790355Y69105324D01*
X19224287Y69697813D01*
X20322332Y70793943D01*
X20917322Y72226839D01*
X20918676Y73778355D01*
X20807182Y74048191D01*
X20807182Y76211592D01*
X20917322Y76476839D01*
X20918676Y78028355D01*
X20326187Y79462287D01*
X20033435Y79755550D01*
X20322332Y80043943D01*
X20367201Y80152000D01*
X21122000Y80152000D01*
X21122000Y46247534D01*
X14744466Y39870000D01*
X11339611Y39870000D01*
X11175701Y40694031D01*
X10633769Y41505089D01*
X4024000Y48114858D01*
X4024000Y54864000D01*
X4550453Y54864000D01*
X4627660Y54475854D01*
X4627394Y54170861D01*
X4744891Y53886497D01*
X4816875Y53524608D01*
X5020077Y53220494D01*
X5159114Y52883999D01*
X5418604Y52624056D01*
X5575579Y52389126D01*
X5808459Y52233521D01*
X6142821Y51898575D01*
X6583763Y51715480D01*
X6711061Y51630422D01*
X6859907Y51600815D01*
X7428753Y51364609D01*
X8050117Y51364067D01*
X8050453Y51364000D01*
X8126665Y51364000D01*
X8821139Y51363394D01*
X8822606Y51364000D01*
X13206665Y51364000D01*
X13901139Y51363394D01*
X14475415Y51600680D01*
X14624939Y51630422D01*
X14750592Y51714380D01*
X15188001Y51895114D01*
X15525900Y52232424D01*
X15760421Y52389126D01*
X15915755Y52621600D01*
X16173425Y52878821D01*
X16314278Y53218033D01*
X16519125Y53524608D01*
X16590429Y53883078D01*
X16707391Y54164753D01*
X16707659Y54472434D01*
X16785547Y54864000D01*
X16708340Y55252146D01*
X16708606Y55557139D01*
X16591109Y55841503D01*
X16519125Y56203392D01*
X16315923Y56507506D01*
X16176886Y56844001D01*
X15917396Y57103944D01*
X15760421Y57338874D01*
X15527541Y57494479D01*
X15193179Y57829425D01*
X14752237Y58012520D01*
X14624939Y58097578D01*
X14476093Y58127185D01*
X13907247Y58363391D01*
X13285883Y58363933D01*
X13285547Y58364000D01*
X13209335Y58364000D01*
X12514861Y58364606D01*
X12513394Y58364000D01*
X8129335Y58364000D01*
X7434861Y58364606D01*
X6860585Y58127320D01*
X6711061Y58097578D01*
X6585408Y58013620D01*
X6147999Y57832886D01*
X5810100Y57495576D01*
X5575579Y57338874D01*
X5420245Y57106400D01*
X5162575Y56849179D01*
X5021722Y56509967D01*
X4816875Y56203392D01*
X4745571Y55844922D01*
X4628609Y55563247D01*
X4628341Y55255566D01*
X4550453Y54864000D01*
X4024000Y54864000D01*
X4024000Y60746000D01*
X11176000Y60746000D01*
X12132709Y60936301D01*
X12943767Y61478233D01*
X13654365Y62188831D01*
X14255715Y62437304D01*
X15029977Y63210216D01*
X15449522Y64220591D01*
X15450477Y65314609D01*
X15032696Y66325715D01*
X14259784Y67099977D01*
X13249409Y67519522D01*
X12155391Y67520477D01*
X11144285Y67102696D01*
X10370023Y66329784D01*
X10127614Y65746000D01*
X2674324Y65746000D01*
X2246000Y65923856D01*
X2246000Y80637676D01*
X2495522Y81238591D01*
X2496477Y82332609D01*
X2078696Y83343715D01*
X1305784Y84117977D01*
X830000Y84315540D01*
X830000Y91609232D01*
X897843Y91445039D01*
X2031073Y90309829D01*
X3512467Y89694701D01*
X5116496Y89693301D01*
X6598961Y90305843D01*
X7734171Y91439073D01*
X8349299Y92920467D01*
X8350699Y94524496D01*
X7738157Y96006961D01*
X7547451Y96198000D01*
X85494784Y96198000D01*
X85139032Y95341253D01*
D33*
G36*
X147880000Y-852000D02*
X3312708Y-852000D01*
X3351818Y-835840D01*
X4135090Y-53934D01*
X4559516Y968198D01*
X4560185Y1735054D01*
X74687518Y1735054D01*
X75110160Y712182D01*
X75892066Y-71090D01*
X76914198Y-495516D01*
X78020946Y-496482D01*
X79043818Y-73840D01*
X79827090Y708066D01*
X80251516Y1730198D01*
X80251963Y2243054D01*
X142251518Y2243054D01*
X142674160Y1220182D01*
X143456066Y436910D01*
X144478198Y12484D01*
X145584946Y11518D01*
X146607818Y434160D01*
X147391090Y1216066D01*
X147815516Y2238198D01*
X147816482Y3344946D01*
X147393840Y4367818D01*
X146611934Y5151090D01*
X145589802Y5575516D01*
X144483054Y5576482D01*
X143460182Y5153840D01*
X142676910Y4371934D01*
X142252484Y3349802D01*
X142251518Y2243054D01*
X80251963Y2243054D01*
X80252482Y2836946D01*
X79829840Y3859818D01*
X79047934Y4643090D01*
X78025802Y5067516D01*
X76919054Y5068482D01*
X75896182Y4645840D01*
X75112910Y3863934D01*
X74688484Y2841802D01*
X74687518Y1735054D01*
X4560185Y1735054D01*
X4560482Y2074946D01*
X4137840Y3097818D01*
X3355934Y3881090D01*
X2333802Y4305516D01*
X1227054Y4306482D01*
X204182Y3883840D01*
X-420000Y3260747D01*
X-420000Y37094377D01*
X6116000Y37132157D01*
X6116000Y35603928D01*
X6098380Y35646572D01*
X5676791Y36068897D01*
X5125677Y36297739D01*
X4528941Y36298260D01*
X3977428Y36070380D01*
X3555103Y35648791D01*
X3326261Y35097677D01*
X3325740Y34500941D01*
X3553620Y33949428D01*
X3576000Y33927009D01*
X3576000Y21699652D01*
X3555103Y21678791D01*
X3326261Y21127677D01*
X3325740Y20530941D01*
X3553620Y19979428D01*
X3975209Y19557103D01*
X4526323Y19328261D01*
X5123059Y19327740D01*
X5674572Y19555620D01*
X6096897Y19977209D01*
X6116000Y20023214D01*
X6116000Y15349652D01*
X6095103Y15328791D01*
X5866261Y14777677D01*
X5865740Y14180941D01*
X6093620Y13629428D01*
X6116000Y13607009D01*
X6116000Y12262225D01*
X5864028Y12158112D01*
X5116513Y11411901D01*
X4955693Y11024604D01*
X4955693Y11811000D01*
X4903396Y12088933D01*
X4739138Y12344198D01*
X4488508Y12515446D01*
X4191000Y12575693D01*
X3536000Y12575693D01*
X3536000Y13606791D01*
X3810897Y13881209D01*
X4039739Y14432323D01*
X4040260Y15029059D01*
X3812380Y15580572D01*
X3390791Y16002897D01*
X2839677Y16231739D01*
X2242941Y16232260D01*
X1691428Y16004380D01*
X1269103Y15582791D01*
X1040261Y15031677D01*
X1039794Y14497075D01*
X1036000Y14478000D01*
X1036000Y12575693D01*
X381000Y12575693D01*
X103067Y12523396D01*
X-152198Y12359138D01*
X-323446Y12108508D01*
X-383693Y11811000D01*
X-383693Y8001000D01*
X-331396Y7723067D01*
X-167138Y7467802D01*
X83492Y7296554D01*
X381000Y7236307D01*
X4191000Y7236307D01*
X4468933Y7288604D01*
X4724198Y7452862D01*
X4895446Y7703492D01*
X4955693Y8001000D01*
X4955693Y8786889D01*
X5113888Y8404028D01*
X5860099Y7656513D01*
X6835571Y7251461D01*
X7891795Y7250540D01*
X8867972Y7653888D01*
X9615487Y8400099D01*
X9906215Y9100249D01*
X10193888Y8404028D01*
X10940099Y7656513D01*
X11915571Y7251461D01*
X12971795Y7250540D01*
X13947972Y7653888D01*
X14695487Y8400099D01*
X14986215Y9100249D01*
X15273888Y8404028D01*
X16020099Y7656513D01*
X16995571Y7251461D01*
X18051795Y7250540D01*
X19027972Y7653888D01*
X19775487Y8400099D01*
X20180539Y9375571D01*
X20181460Y10431795D01*
X19920239Y11064000D01*
X26271307Y11064000D01*
X26271307Y9764000D01*
X26323604Y9486067D01*
X26487862Y9230802D01*
X26738492Y9059554D01*
X27036000Y8999307D01*
X28336000Y8999307D01*
X28613933Y9051604D01*
X28869198Y9215862D01*
X29040446Y9466492D01*
X29100693Y9764000D01*
X29100693Y11064000D01*
X29048396Y11341933D01*
X28936000Y11516602D01*
X28936000Y18278234D01*
X39999883Y29342117D01*
X40270849Y29747646D01*
X40306911Y29928941D01*
X40366000Y30226000D01*
X40366000Y33827823D01*
X40598281Y34059699D01*
X40865186Y34702478D01*
X40865793Y35398468D01*
X40600011Y36041712D01*
X40108301Y36534281D01*
X39465522Y36801186D01*
X38769532Y36801793D01*
X38126288Y36536011D01*
X37633719Y36044301D01*
X37366814Y35401522D01*
X37366207Y34705532D01*
X37631989Y34062288D01*
X37866000Y33827868D01*
X37866000Y30743766D01*
X26802117Y19679883D01*
X26531151Y19274354D01*
X26436000Y18796000D01*
X26436000Y11514370D01*
X26331554Y11361508D01*
X26271307Y11064000D01*
X19920239Y11064000D01*
X19778112Y11407972D01*
X19031901Y12155487D01*
X18651000Y12313651D01*
X18651000Y12700000D01*
X18565364Y13130519D01*
X18321495Y13495495D01*
X16994080Y14822910D01*
X16994260Y15029059D01*
X16766380Y15580572D01*
X16344791Y16002897D01*
X15793677Y16231739D01*
X15196941Y16232260D01*
X14645428Y16004380D01*
X14223103Y15582791D01*
X13994261Y15031677D01*
X13993740Y14434941D01*
X14221620Y13883428D01*
X14643209Y13461103D01*
X15194323Y13232261D01*
X15402931Y13232079D01*
X16344487Y12290523D01*
X16024028Y12158112D01*
X15276513Y11411901D01*
X14985785Y10711751D01*
X14698112Y11407972D01*
X13951901Y12155487D01*
X13696000Y12261747D01*
X13696000Y13606348D01*
X13716897Y13627209D01*
X13945739Y14178323D01*
X13946260Y14775059D01*
X13718380Y15326572D01*
X13696000Y15348991D01*
X13696000Y19514072D01*
X13713620Y19471428D01*
X14135209Y19049103D01*
X14672608Y18825956D01*
X14477103Y18630791D01*
X14248261Y18079677D01*
X14247740Y17482941D01*
X14475620Y16931428D01*
X14897209Y16509103D01*
X15448323Y16280261D01*
X16045059Y16279740D01*
X16596572Y16507620D01*
X17018897Y16929209D01*
X17247739Y17480323D01*
X17247767Y17512000D01*
X17901883Y18166116D01*
X17901885Y18166119D01*
X21091767Y21356000D01*
X23004348Y21356000D01*
X23025209Y21335103D01*
X23576323Y21106261D01*
X24173059Y21105740D01*
X24724572Y21333620D01*
X25146897Y21755209D01*
X25375739Y22306323D01*
X25375767Y22338000D01*
X26283883Y23246116D01*
X26554849Y23651645D01*
X26576571Y23760849D01*
X26650000Y24130000D01*
X26650000Y25315630D01*
X26754446Y25468492D01*
X26814693Y25766000D01*
X26814693Y27066000D01*
X26762396Y27343933D01*
X26598138Y27599198D01*
X26347508Y27770446D01*
X26050000Y27830693D01*
X24750000Y27830693D01*
X24472067Y27778396D01*
X24216802Y27614138D01*
X24045554Y27363508D01*
X23985307Y27066000D01*
X23985307Y25766000D01*
X24037604Y25488067D01*
X24150000Y25313398D01*
X24150000Y24647767D01*
X23608468Y24106234D01*
X23578941Y24106260D01*
X23027428Y23878380D01*
X23005009Y23856000D01*
X20574000Y23856000D01*
X20175010Y23776635D01*
X20095645Y23760849D01*
X19690116Y23489883D01*
X16485971Y20285737D01*
X16486260Y20617059D01*
X16280662Y21114645D01*
X16280662Y33981572D01*
X19405599Y37106508D01*
X19555620Y36743428D01*
X19976457Y36321857D01*
X19811103Y36156791D01*
X19582261Y35605677D01*
X19581740Y35008941D01*
X19809620Y34457428D01*
X20231209Y34035103D01*
X20782323Y33806261D01*
X21379059Y33805740D01*
X21930572Y34033620D01*
X22352897Y34455209D01*
X22375748Y34510241D01*
X22375740Y34500941D01*
X22603620Y33949428D01*
X23025209Y33527103D01*
X23576323Y33298261D01*
X24173059Y33297740D01*
X24724572Y33525620D01*
X25146897Y33947209D01*
X25375739Y34498323D01*
X25375767Y34530001D01*
X28105028Y37259262D01*
X42355268Y37341633D01*
X42163331Y37054379D01*
X41954000Y36002000D01*
X42163331Y34949621D01*
X42759456Y34057456D01*
X43651621Y33461331D01*
X44704000Y33252000D01*
X54044912Y33252000D01*
X56432000Y30864912D01*
X56432000Y29698000D01*
X53086000Y29698000D01*
X53064872Y29693797D01*
X52534941Y29694260D01*
X51983428Y29466380D01*
X51561103Y29044791D01*
X51332261Y28493677D01*
X51331740Y27896941D01*
X51559620Y27345428D01*
X51981209Y26923103D01*
X52532323Y26694261D01*
X53129059Y26693740D01*
X53680572Y26921620D01*
X53957434Y27198000D01*
X56432000Y27198000D01*
X56432000Y13989496D01*
X55925677Y14199739D01*
X55328941Y14200260D01*
X54777428Y13972380D01*
X54355103Y13550791D01*
X54126261Y12999677D01*
X54126233Y12968000D01*
X53387879Y12229645D01*
X52600028Y11904112D01*
X51852513Y11157901D01*
X51561785Y10457751D01*
X51274112Y11153972D01*
X50527901Y11901487D01*
X50272000Y12007747D01*
X50272000Y25908000D01*
X50176849Y26386354D01*
X50141178Y26439740D01*
X49905884Y26791883D01*
X45442234Y31255532D01*
X45442260Y31285059D01*
X45214380Y31836572D01*
X44792791Y32258897D01*
X44241677Y32487739D01*
X43644941Y32488260D01*
X43093428Y32260380D01*
X42671103Y31838791D01*
X42442261Y31287677D01*
X42441740Y30690941D01*
X42669620Y30139428D01*
X43091209Y29717103D01*
X43642323Y29488261D01*
X43674001Y29488233D01*
X47772000Y25390233D01*
X47772000Y13759928D01*
X47754380Y13802572D01*
X47332791Y14224897D01*
X46781677Y14453739D01*
X46184941Y14454260D01*
X45633428Y14226380D01*
X45211103Y13804791D01*
X44982261Y13253677D01*
X44982233Y13222000D01*
X44067126Y12306892D01*
X43416205Y12307460D01*
X42440028Y11904112D01*
X41692513Y11157901D01*
X41612000Y10964004D01*
X41612000Y13208000D01*
X41402669Y14260379D01*
X40806544Y15152544D01*
X40053769Y15655532D01*
X42954207Y15655532D01*
X43219989Y15012288D01*
X43711699Y14519719D01*
X44354478Y14252814D01*
X45050468Y14252207D01*
X45693712Y14517989D01*
X46186281Y15009699D01*
X46453186Y15652478D01*
X46453793Y16348468D01*
X46188011Y16991712D01*
X45696301Y17484281D01*
X45053522Y17751186D01*
X44357532Y17751793D01*
X43714288Y17486011D01*
X43221719Y16994301D01*
X42954814Y16351522D01*
X42954207Y15655532D01*
X40053769Y15655532D01*
X39914379Y15748669D01*
X38862000Y15958000D01*
X37809621Y15748669D01*
X36917456Y15152544D01*
X36321331Y14260379D01*
X36112000Y13208000D01*
X36112000Y9652000D01*
X36192307Y9248269D01*
X36192307Y7747000D01*
X36244604Y7469067D01*
X36408862Y7213802D01*
X36659492Y7042554D01*
X36957000Y6982307D01*
X38458269Y6982307D01*
X38862000Y6902000D01*
X39265731Y6982307D01*
X40767000Y6982307D01*
X41044933Y7034604D01*
X41300198Y7198862D01*
X41471446Y7449492D01*
X41531693Y7747000D01*
X41531693Y8532889D01*
X41689888Y8150028D01*
X42436099Y7402513D01*
X43411571Y6997461D01*
X44467795Y6996540D01*
X45443972Y7399888D01*
X46191487Y8146099D01*
X46482215Y8846249D01*
X46769888Y8150028D01*
X47516099Y7402513D01*
X48491571Y6997461D01*
X49547795Y6996540D01*
X50523972Y7399888D01*
X51271487Y8146099D01*
X51562215Y8846249D01*
X51849888Y8150028D01*
X52596099Y7402513D01*
X53571571Y6997461D01*
X54627795Y6996540D01*
X55603972Y7399888D01*
X56351487Y8146099D01*
X56608449Y8764931D01*
X56641331Y8599621D01*
X56910684Y8196506D01*
X56929888Y8150028D01*
X56965729Y8114124D01*
X57237456Y7707456D01*
X57640570Y7438104D01*
X57676099Y7402513D01*
X57722953Y7383057D01*
X58129621Y7111331D01*
X58605123Y7016748D01*
X58651571Y6997461D01*
X58702307Y6997417D01*
X59139849Y6910384D01*
X59459766Y6590468D01*
X59459740Y6560941D01*
X59687620Y6009428D01*
X60109209Y5587103D01*
X60660323Y5358261D01*
X61257059Y5357740D01*
X61808572Y5585620D01*
X62230897Y6007209D01*
X62459739Y6558323D01*
X62460260Y7155059D01*
X62232380Y7706572D01*
X61810791Y8128897D01*
X61495593Y8259778D01*
X61722669Y8599621D01*
X61817252Y9075123D01*
X61836539Y9121571D01*
X61836583Y9172307D01*
X61932000Y9652000D01*
X61932000Y21038941D01*
X66825740Y21038941D01*
X67053620Y20487428D01*
X67076000Y20465009D01*
X67076000Y18034000D01*
X67132421Y17750354D01*
X67171151Y17555646D01*
X67442117Y17150117D01*
X70542696Y14049537D01*
X70152075Y14211737D01*
X69550564Y14212262D01*
X68994640Y13982559D01*
X68568936Y13557598D01*
X68338263Y13002075D01*
X68337738Y12400564D01*
X68567441Y11844640D01*
X68992402Y11418936D01*
X69547925Y11188263D01*
X70149436Y11187738D01*
X70705360Y11417441D01*
X71120351Y11831708D01*
X71532402Y11418936D01*
X72087925Y11188263D01*
X72689436Y11187738D01*
X73245360Y11417441D01*
X73660351Y11831708D01*
X74072402Y11418936D01*
X74627925Y11188263D01*
X75229436Y11187738D01*
X75785360Y11417441D01*
X76211064Y11842402D01*
X76441737Y12397925D01*
X76441777Y12444011D01*
X76829883Y12832117D01*
X77100849Y13237646D01*
X77139579Y13432354D01*
X77196000Y13716000D01*
X77196000Y14622348D01*
X77216897Y14643209D01*
X77445739Y15194323D01*
X77446260Y15791059D01*
X77218380Y16342572D01*
X76796791Y16764897D01*
X76245677Y16993739D01*
X75648941Y16994260D01*
X75097428Y16766380D01*
X74675103Y16344791D01*
X74446261Y15793677D01*
X74445740Y15196941D01*
X74673620Y14645428D01*
X74696000Y14623009D01*
X74696000Y14233766D01*
X74674458Y14212224D01*
X74630564Y14212262D01*
X74074640Y13982559D01*
X73659649Y13568292D01*
X73640000Y13587976D01*
X73640000Y13970000D01*
X73544849Y14448354D01*
X73523450Y14480380D01*
X73273884Y14853883D01*
X69576000Y18551766D01*
X69576000Y20464348D01*
X69596897Y20485209D01*
X69825739Y21036323D01*
X69826260Y21633059D01*
X69598380Y22184572D01*
X69176791Y22606897D01*
X68625677Y22835739D01*
X68028941Y22836260D01*
X67477428Y22608380D01*
X67055103Y22186791D01*
X66826261Y21635677D01*
X66825740Y21038941D01*
X61932000Y21038941D01*
X61932000Y31629223D01*
X67284000Y31629223D01*
X67284000Y30854777D01*
X67401987Y30261618D01*
X67737984Y29758761D01*
X68240841Y29422764D01*
X68834000Y29304777D01*
X69427159Y29422764D01*
X69930016Y29758761D01*
X70104000Y30019147D01*
X70277984Y29758761D01*
X70780841Y29422764D01*
X71374000Y29304777D01*
X71967159Y29422764D01*
X72470016Y29758761D01*
X72644000Y30019147D01*
X72817984Y29758761D01*
X73320841Y29422764D01*
X73914000Y29304777D01*
X74507159Y29422764D01*
X75010016Y29758761D01*
X75346013Y30261618D01*
X75464000Y30854777D01*
X75464000Y31629223D01*
X75346013Y32222382D01*
X75010016Y32725239D01*
X74507159Y33061236D01*
X73914000Y33179223D01*
X73320841Y33061236D01*
X72817984Y32725239D01*
X72644000Y32464853D01*
X72470016Y32725239D01*
X71967159Y33061236D01*
X71374000Y33179223D01*
X70780841Y33061236D01*
X70277984Y32725239D01*
X70104000Y32464853D01*
X69930016Y32725239D01*
X69427159Y33061236D01*
X68834000Y33179223D01*
X68240841Y33061236D01*
X67737984Y32725239D01*
X67401987Y32222382D01*
X67284000Y31629223D01*
X61932000Y31629223D01*
X61932000Y32003995D01*
X61932001Y32004000D01*
X61722669Y33056380D01*
X61126544Y33948544D01*
X57645074Y37430014D01*
X67665038Y37487933D01*
X67737984Y37378761D01*
X68240841Y37042764D01*
X68834000Y36924777D01*
X69427159Y37042764D01*
X69930016Y37378761D01*
X70012027Y37501499D01*
X70195266Y37502558D01*
X70277984Y37378761D01*
X70780841Y37042764D01*
X71374000Y36924777D01*
X71967159Y37042764D01*
X72470016Y37378761D01*
X72561875Y37516238D01*
X72725493Y37517184D01*
X72817984Y37378761D01*
X73320841Y37042764D01*
X73914000Y36924777D01*
X74507159Y37042764D01*
X75010016Y37378761D01*
X75111723Y37530977D01*
X75255721Y37531809D01*
X75357984Y37378761D01*
X75860841Y37042764D01*
X76454000Y36924777D01*
X77047159Y37042764D01*
X77550016Y37378761D01*
X77661571Y37545716D01*
X85387391Y37590374D01*
X85435330Y37595296D01*
X85811506Y37671098D01*
X85900167Y37707741D01*
X86220099Y37919634D01*
X86288432Y37986969D01*
X86380000Y38120904D01*
X86380000Y28303652D01*
X86359103Y28282791D01*
X86130261Y27731677D01*
X86129740Y27134941D01*
X86357620Y26583428D01*
X86779209Y26161103D01*
X87330323Y25932261D01*
X87917981Y25931748D01*
X84460117Y22473883D01*
X84189151Y22068354D01*
X84094000Y21590000D01*
X84094000Y15603652D01*
X84073103Y15582791D01*
X83844261Y15031677D01*
X83843740Y14434941D01*
X84071620Y13883428D01*
X84094000Y13861009D01*
X84094000Y11559693D01*
X82677000Y11559693D01*
X82399067Y11507396D01*
X82143802Y11343138D01*
X81972554Y11092508D01*
X81912307Y10795000D01*
X81912307Y6985000D01*
X81964604Y6707067D01*
X82128862Y6451802D01*
X82379492Y6280554D01*
X82677000Y6220307D01*
X86487000Y6220307D01*
X86764933Y6272604D01*
X87020198Y6436862D01*
X87191446Y6687492D01*
X87251693Y6985000D01*
X87251693Y7770889D01*
X87409888Y7388028D01*
X88156099Y6640513D01*
X89131571Y6235461D01*
X90187795Y6234540D01*
X91163972Y6637888D01*
X91911487Y7384099D01*
X92316539Y8359571D01*
X92317460Y9415795D01*
X91914112Y10391972D01*
X91167901Y11139487D01*
X90912000Y11245747D01*
X90912000Y12954000D01*
X90816849Y13432354D01*
X90770617Y13501545D01*
X90545884Y13837883D01*
X89134000Y15249766D01*
X89134000Y18686348D01*
X89154897Y18707209D01*
X89383739Y19258323D01*
X89384260Y19855059D01*
X89156380Y20406572D01*
X88734791Y20828897D01*
X88183677Y21057739D01*
X87586941Y21058260D01*
X87035428Y20830380D01*
X86613103Y20408791D01*
X86594000Y20362786D01*
X86594000Y21072234D01*
X89417767Y23896000D01*
X99524072Y23896000D01*
X99481428Y23878380D01*
X99059103Y23456791D01*
X98830261Y22905677D01*
X98829740Y22308941D01*
X99057620Y21757428D01*
X99479209Y21335103D01*
X99842000Y21184459D01*
X99842000Y16256000D01*
X99858518Y16172959D01*
X99562352Y16370851D01*
X99527000Y16377883D01*
X99294000Y16424230D01*
X99294000Y18686348D01*
X99314897Y18707209D01*
X99543739Y19258323D01*
X99544260Y19855059D01*
X99316380Y20406572D01*
X98894791Y20828897D01*
X98343677Y21057739D01*
X97746941Y21058260D01*
X97195428Y20830380D01*
X96773103Y20408791D01*
X96544261Y19857677D01*
X96543740Y19260941D01*
X96771620Y18709428D01*
X96794000Y18687009D01*
X96794000Y15494000D01*
X96861920Y15152544D01*
X96889151Y15015646D01*
X96922323Y14966000D01*
X95005767Y14966000D01*
X94468000Y15503766D01*
X94468000Y19050000D01*
X94463797Y19071128D01*
X94464260Y19601059D01*
X94236380Y20152572D01*
X93814791Y20574897D01*
X93263677Y20803739D01*
X92666941Y20804260D01*
X92115428Y20576380D01*
X91693103Y20154791D01*
X91464261Y19603677D01*
X91463740Y19006941D01*
X91691620Y18455428D01*
X91968000Y18178566D01*
X91968000Y14986000D01*
X92041429Y14616849D01*
X92063151Y14507646D01*
X92334117Y14102117D01*
X93604116Y12832117D01*
X93866286Y12656941D01*
X94009646Y12561151D01*
X94488000Y12466000D01*
X97780234Y12466000D01*
X98686540Y11559693D01*
X98171000Y11559693D01*
X97893067Y11507396D01*
X97637802Y11343138D01*
X97466554Y11092508D01*
X97406307Y10795000D01*
X97406307Y6985000D01*
X97458604Y6707067D01*
X97622862Y6451802D01*
X97873492Y6280554D01*
X98171000Y6220307D01*
X101981000Y6220307D01*
X102258933Y6272604D01*
X102514198Y6436862D01*
X102685446Y6687492D01*
X102745693Y6985000D01*
X102745693Y7770889D01*
X102903888Y7388028D01*
X103650099Y6640513D01*
X104625571Y6235461D01*
X105681795Y6234540D01*
X106657972Y6637888D01*
X107405487Y7384099D01*
X107696215Y8084249D01*
X107983888Y7388028D01*
X108730099Y6640513D01*
X109705571Y6235461D01*
X110761795Y6234540D01*
X111737972Y6637888D01*
X112485487Y7384099D01*
X112646307Y7771396D01*
X112646307Y6985000D01*
X112698604Y6707067D01*
X112862862Y6451802D01*
X113113492Y6280554D01*
X113411000Y6220307D01*
X117221000Y6220307D01*
X117498933Y6272604D01*
X117754198Y6436862D01*
X117925446Y6687492D01*
X117985693Y6985000D01*
X117985693Y7770889D01*
X118143888Y7388028D01*
X118890099Y6640513D01*
X119865571Y6235461D01*
X120921795Y6234540D01*
X121897972Y6637888D01*
X122645487Y7384099D01*
X122936215Y8084249D01*
X123223888Y7388028D01*
X123970099Y6640513D01*
X124945571Y6235461D01*
X126001795Y6234540D01*
X126977972Y6637888D01*
X127725487Y7384099D01*
X127886307Y7771396D01*
X127886307Y6985000D01*
X127938604Y6707067D01*
X128102862Y6451802D01*
X128353492Y6280554D01*
X128651000Y6220307D01*
X132461000Y6220307D01*
X132738933Y6272604D01*
X132994198Y6436862D01*
X133165446Y6687492D01*
X133225693Y6985000D01*
X133225693Y7770889D01*
X133383888Y7388028D01*
X134130099Y6640513D01*
X135105571Y6235461D01*
X136161795Y6234540D01*
X137137972Y6637888D01*
X137885487Y7384099D01*
X138176215Y8084249D01*
X138463888Y7388028D01*
X139210099Y6640513D01*
X140185571Y6235461D01*
X141241795Y6234540D01*
X142217972Y6637888D01*
X142965487Y7384099D01*
X143370539Y8359571D01*
X143371460Y9415795D01*
X142968112Y10391972D01*
X142221901Y11139487D01*
X141966000Y11245747D01*
X141966000Y11938000D01*
X141870849Y12416354D01*
X141773892Y12561460D01*
X141599883Y12821884D01*
X138914234Y15507532D01*
X138914260Y15537059D01*
X138686380Y16088572D01*
X138264791Y16510897D01*
X137713677Y16739739D01*
X137116941Y16740260D01*
X136886000Y16644837D01*
X136886000Y25400000D01*
X136790849Y25878354D01*
X136790849Y25878355D01*
X136519883Y26283884D01*
X133979883Y28823883D01*
X133574354Y29094849D01*
X133096000Y29190000D01*
X131173652Y29190000D01*
X131152791Y29210897D01*
X130601677Y29439739D01*
X130004941Y29440260D01*
X129453428Y29212380D01*
X129031103Y28790791D01*
X128802261Y28239677D01*
X128801740Y27642941D01*
X129029620Y27091428D01*
X129451209Y26669103D01*
X130002323Y26440261D01*
X130599059Y26439740D01*
X131150572Y26667620D01*
X131172991Y26690000D01*
X132578234Y26690000D01*
X134386000Y24882233D01*
X134386000Y14333652D01*
X134365103Y14312791D01*
X134136261Y13761677D01*
X134135740Y13164941D01*
X134363620Y12613428D01*
X134386000Y12591009D01*
X134386000Y11246225D01*
X134134028Y11142112D01*
X133386513Y10395901D01*
X133225693Y10008604D01*
X133225693Y10795000D01*
X133173396Y11072933D01*
X133009138Y11328198D01*
X132758508Y11499446D01*
X132461000Y11559693D01*
X129654074Y11559693D01*
X123424000Y17789766D01*
X123424000Y27068348D01*
X123444897Y27089209D01*
X123673739Y27640323D01*
X123673983Y27919805D01*
X123678000Y27940000D01*
X123674018Y27960018D01*
X123674260Y28237059D01*
X123446380Y28788572D01*
X123024791Y29210897D01*
X122473677Y29439739D01*
X121876941Y29440260D01*
X121604023Y29327493D01*
X121641739Y29418323D01*
X121642260Y30015059D01*
X121414380Y30566572D01*
X120992791Y30988897D01*
X120441677Y31217739D01*
X119844941Y31218260D01*
X119293428Y30990380D01*
X119271009Y30968000D01*
X116609998Y30968000D01*
X116131644Y30872849D01*
X115857993Y30690002D01*
X114170966Y30690002D01*
X114275739Y30942323D01*
X114276260Y31539059D01*
X114048380Y32090572D01*
X113626791Y32512897D01*
X113075677Y32741739D01*
X113044000Y32741767D01*
X111232000Y34553766D01*
X111232000Y35026455D01*
X111251995Y35046415D01*
X111501051Y34796924D01*
X112162387Y34522313D01*
X112878471Y34521688D01*
X113540286Y34795145D01*
X113791995Y35046415D01*
X114041051Y34796924D01*
X114702387Y34522313D01*
X115418471Y34521688D01*
X116080286Y34795145D01*
X116331995Y35046415D01*
X116581051Y34796924D01*
X117242387Y34522313D01*
X117958471Y34521688D01*
X118620286Y34795145D01*
X118871995Y35046415D01*
X119121051Y34796924D01*
X119782387Y34522313D01*
X120498471Y34521688D01*
X121160286Y34795145D01*
X121411995Y35046415D01*
X121661051Y34796924D01*
X122322387Y34522313D01*
X123038471Y34521688D01*
X123700286Y34795145D01*
X123951995Y35046415D01*
X124201051Y34796924D01*
X124862387Y34522313D01*
X125578471Y34521688D01*
X126240286Y34795145D01*
X126491995Y35046415D01*
X126741051Y34796924D01*
X127402387Y34522313D01*
X128118471Y34521688D01*
X128780286Y34795145D01*
X129287076Y35301051D01*
X129561687Y35962387D01*
X129562312Y36678471D01*
X129288855Y37340286D01*
X128782949Y37847076D01*
X128121613Y38121687D01*
X127405529Y38122312D01*
X126743714Y37848855D01*
X126492005Y37597585D01*
X126242949Y37847076D01*
X125581613Y38121687D01*
X124865529Y38122312D01*
X124203714Y37848855D01*
X123952005Y37597585D01*
X123702949Y37847076D01*
X123041613Y38121687D01*
X122325529Y38122312D01*
X121663714Y37848855D01*
X121412005Y37597585D01*
X121162949Y37847076D01*
X120501613Y38121687D01*
X119785529Y38122312D01*
X119123714Y37848855D01*
X118872005Y37597585D01*
X118622949Y37847076D01*
X117961613Y38121687D01*
X117245529Y38122312D01*
X116583714Y37848855D01*
X116332005Y37597585D01*
X116082949Y37847076D01*
X115421613Y38121687D01*
X114705529Y38122312D01*
X114043714Y37848855D01*
X113792005Y37597585D01*
X113542949Y37847076D01*
X112881613Y38121687D01*
X112165529Y38122312D01*
X111503714Y37848855D01*
X111252005Y37597585D01*
X111002949Y37847076D01*
X110341613Y38121687D01*
X109625529Y38122312D01*
X108963714Y37848855D01*
X108456924Y37342949D01*
X108182313Y36681613D01*
X108181688Y35965529D01*
X108455145Y35303714D01*
X108732000Y35026375D01*
X108732000Y34036000D01*
X108787350Y33757739D01*
X108827151Y33557646D01*
X109098117Y33152117D01*
X111275766Y30974467D01*
X111275740Y30944941D01*
X111381078Y30690002D01*
X110523764Y30690002D01*
X110103883Y31109883D01*
X109698354Y31380849D01*
X109220000Y31476000D01*
X105185461Y31476000D01*
X105385739Y31958323D01*
X105386260Y32555059D01*
X105158380Y33106572D01*
X104736791Y33528897D01*
X104185677Y33757739D01*
X103588941Y33758260D01*
X103037428Y33530380D01*
X103015009Y33508000D01*
X90380002Y33508000D01*
X90380002Y35965529D01*
X98021688Y35965529D01*
X98295145Y35303714D01*
X98801051Y34796924D01*
X99462387Y34522313D01*
X100178471Y34521688D01*
X100840286Y34795145D01*
X101091995Y35046415D01*
X101341051Y34796924D01*
X102002387Y34522313D01*
X102718471Y34521688D01*
X103380286Y34795145D01*
X103631995Y35046415D01*
X103881051Y34796924D01*
X104542387Y34522313D01*
X105258471Y34521688D01*
X105920286Y34795145D01*
X106427076Y35301051D01*
X106701687Y35962387D01*
X106702312Y36678471D01*
X106428855Y37340286D01*
X105922949Y37847076D01*
X105261613Y38121687D01*
X104545529Y38122312D01*
X103883714Y37848855D01*
X103632005Y37597585D01*
X103382949Y37847076D01*
X102721613Y38121687D01*
X102005529Y38122312D01*
X101343714Y37848855D01*
X101092005Y37597585D01*
X100842949Y37847076D01*
X100181613Y38121687D01*
X99465529Y38122312D01*
X98803714Y37848855D01*
X98296924Y37342949D01*
X98022313Y36681613D01*
X98021688Y35965529D01*
X90380002Y35965529D01*
X90380002Y46702236D01*
X90433766Y46756000D01*
X91878635Y46756000D01*
X91693103Y46570791D01*
X91464261Y46019677D01*
X91463740Y45422941D01*
X91691620Y44871428D01*
X92113209Y44449103D01*
X92664323Y44220261D01*
X93261059Y44219740D01*
X93812572Y44447620D01*
X93834991Y44470000D01*
X110236000Y44470000D01*
X110714354Y44565151D01*
X111119883Y44836117D01*
X112135883Y45852117D01*
X112406849Y46257646D01*
X112433083Y46389532D01*
X112502000Y46736000D01*
X112502000Y47726455D01*
X112777076Y48001051D01*
X113051687Y48662387D01*
X113052312Y49378471D01*
X112891709Y49767158D01*
X113540286Y50035145D01*
X113791995Y50286415D01*
X114041051Y50036924D01*
X114702387Y49762313D01*
X115418471Y49761688D01*
X116080286Y50035145D01*
X116331995Y50286415D01*
X116352000Y50266375D01*
X116352000Y49385209D01*
X116077103Y49110791D01*
X115848261Y48559677D01*
X115847740Y47962941D01*
X116075620Y47411428D01*
X116497209Y46989103D01*
X117048323Y46760261D01*
X117645059Y46759740D01*
X118196572Y46987620D01*
X118618897Y47409209D01*
X118847739Y47960323D01*
X118848206Y48494925D01*
X118852000Y48514000D01*
X118852000Y50266455D01*
X118871995Y50286415D01*
X119121051Y50036924D01*
X119782387Y49762313D01*
X120498471Y49761688D01*
X121160286Y50035145D01*
X121411995Y50286415D01*
X121661051Y50036924D01*
X122322387Y49762313D01*
X123038471Y49761688D01*
X123700286Y50035145D01*
X123951995Y50286415D01*
X124201051Y50036924D01*
X124862387Y49762313D01*
X125578471Y49761688D01*
X126232316Y50031852D01*
X125962313Y49381613D01*
X125961688Y48665529D01*
X126235145Y48003714D01*
X126486415Y47752005D01*
X126236924Y47502949D01*
X125962313Y46841613D01*
X125961688Y46125529D01*
X126235145Y45463714D01*
X126741051Y44956924D01*
X127402387Y44682313D01*
X128118471Y44681688D01*
X128780286Y44955145D01*
X129057625Y45232000D01*
X134256348Y45232000D01*
X134277209Y45211103D01*
X134828323Y44982261D01*
X135425059Y44981740D01*
X135976572Y45209620D01*
X136398897Y45631209D01*
X136627739Y46182323D01*
X136628260Y46779059D01*
X136400380Y47330572D01*
X135978791Y47752897D01*
X135427677Y47981739D01*
X134830941Y47982260D01*
X134279428Y47754380D01*
X134257009Y47732000D01*
X133647928Y47732000D01*
X133690572Y47749620D01*
X134112897Y48171209D01*
X134341739Y48722323D01*
X134342260Y49319059D01*
X134114380Y49870572D01*
X133692791Y50292897D01*
X133141677Y50521739D01*
X132544941Y50522260D01*
X131993428Y50294380D01*
X131971009Y50272000D01*
X129057545Y50272000D01*
X129037585Y50291995D01*
X129287076Y50541051D01*
X129561687Y51202387D01*
X129562312Y51918471D01*
X129288855Y52580286D01*
X129012000Y52857625D01*
X129012000Y54788648D01*
X128916849Y55267002D01*
X128716052Y55567516D01*
X128645883Y55672532D01*
X118598000Y65720414D01*
X118598000Y65848411D01*
X125003610Y65848411D01*
X125345431Y65021142D01*
X125977813Y64387655D01*
X126804484Y64044392D01*
X127699589Y64043610D01*
X128526858Y64385431D01*
X129160345Y65017813D01*
X129503608Y65844484D01*
X129504390Y66739589D01*
X129162569Y67566858D01*
X128530187Y68200345D01*
X127703516Y68543608D01*
X126808411Y68544390D01*
X125981142Y68202569D01*
X125347655Y67570187D01*
X125004392Y66743516D01*
X125003610Y65848411D01*
X118598000Y65848411D01*
X118598000Y65930348D01*
X118618897Y65951209D01*
X118847739Y66502323D01*
X118848260Y67099059D01*
X118620380Y67650572D01*
X118198791Y68072897D01*
X117647677Y68301739D01*
X117050941Y68302260D01*
X116499428Y68074380D01*
X116077103Y67652791D01*
X115848261Y67101677D01*
X115847740Y66504941D01*
X115957296Y66239794D01*
X111268679Y70928411D01*
X125003610Y70928411D01*
X125345431Y70101142D01*
X125977813Y69467655D01*
X126804484Y69124392D01*
X127699589Y69123610D01*
X128526858Y69465431D01*
X129160345Y70097813D01*
X129503608Y70924484D01*
X129504390Y71819589D01*
X129162569Y72646858D01*
X128530187Y73280345D01*
X127703516Y73623608D01*
X126808411Y73624390D01*
X125981142Y73282569D01*
X125347655Y72650187D01*
X125004392Y71823516D01*
X125003610Y70928411D01*
X111268679Y70928411D01*
X110979205Y71217885D01*
X110573676Y71488851D01*
X110502871Y71502935D01*
X110095322Y71584002D01*
X97061765Y71584002D01*
X96387883Y72257883D01*
X95982354Y72528849D01*
X95504000Y72624000D01*
X93426897Y72624000D01*
X93406875Y72644057D01*
X93426853Y72664000D01*
X101744791Y72664000D01*
X102019209Y72389103D01*
X102570323Y72160261D01*
X103167059Y72159740D01*
X103718572Y72387620D01*
X104140897Y72809209D01*
X104369739Y73360323D01*
X104370260Y73957059D01*
X104142380Y74508572D01*
X103720791Y74930897D01*
X103169677Y75159739D01*
X102635075Y75160206D01*
X102616000Y75164000D01*
X93426897Y75164000D01*
X93406875Y75184057D01*
X93684713Y75461410D01*
X93951696Y76104376D01*
X93952304Y76800569D01*
X93686443Y77444001D01*
X93194590Y77936713D01*
X92551624Y78203696D01*
X91855431Y78204304D01*
X91211999Y77938443D01*
X90719287Y77446590D01*
X90452304Y76803624D01*
X90451696Y76107431D01*
X90717557Y75463999D01*
X90997125Y75183943D01*
X90719287Y74906590D01*
X90452304Y74263624D01*
X90451696Y73567431D01*
X90717557Y72923999D01*
X90997125Y72643943D01*
X90719287Y72366590D01*
X90452304Y71723624D01*
X90451696Y71027431D01*
X90717557Y70383999D01*
X90997125Y70103943D01*
X90719287Y69826590D01*
X90452304Y69183624D01*
X90451696Y68487431D01*
X90717557Y67843999D01*
X90997125Y67563943D01*
X90719287Y67286590D01*
X90452304Y66643624D01*
X90451696Y65947431D01*
X90717557Y65303999D01*
X91209410Y64811287D01*
X91852376Y64544304D01*
X92548569Y64543696D01*
X93192001Y64809557D01*
X93426853Y65044000D01*
X102038635Y65044000D01*
X101853103Y64858791D01*
X101624261Y64307677D01*
X101623740Y63710941D01*
X101851620Y63159428D01*
X102273209Y62737103D01*
X102824323Y62508261D01*
X103421059Y62507740D01*
X103972572Y62735620D01*
X103994991Y62758000D01*
X111660910Y62758000D01*
X118892000Y55526909D01*
X118892000Y52857545D01*
X118872005Y52837585D01*
X118622949Y53087076D01*
X117961613Y53361687D01*
X117245529Y53362312D01*
X116583714Y53088855D01*
X116332005Y52837585D01*
X116312000Y52857625D01*
X116312000Y56024348D01*
X116332897Y56045209D01*
X116561739Y56596323D01*
X116562260Y57193059D01*
X116334380Y57744572D01*
X115912791Y58166897D01*
X115361677Y58395739D01*
X114764941Y58396260D01*
X114213428Y58168380D01*
X113791103Y57746791D01*
X113562261Y57195677D01*
X113561835Y56707523D01*
X113372791Y56896897D01*
X112821677Y57125739D01*
X112224941Y57126260D01*
X111673428Y56898380D01*
X111251103Y56476791D01*
X111046889Y55984989D01*
X110974187Y56093795D01*
X110974260Y56177059D01*
X110746380Y56728572D01*
X110324791Y57150897D01*
X109773677Y57379739D01*
X109176941Y57380260D01*
X108776710Y57214888D01*
X108941739Y57612323D01*
X108942260Y58209059D01*
X108714380Y58760572D01*
X108692000Y58782991D01*
X108692000Y59690000D01*
X108596849Y60168354D01*
X108596849Y60168355D01*
X108325883Y60573884D01*
X106801883Y62097883D01*
X106396354Y62368849D01*
X105918000Y62464000D01*
X93426897Y62464000D01*
X93194590Y62696713D01*
X92551624Y62963696D01*
X91855431Y62964304D01*
X91211999Y62698443D01*
X90719287Y62206590D01*
X90452304Y61563624D01*
X90451696Y60867431D01*
X90717557Y60223999D01*
X91209410Y59731287D01*
X91852376Y59464304D01*
X92548569Y59463696D01*
X93192001Y59729557D01*
X93426853Y59964000D01*
X105400234Y59964000D01*
X106192000Y59172233D01*
X106192000Y58783652D01*
X106171103Y58762791D01*
X105942261Y58211677D01*
X105941740Y57614941D01*
X106169620Y57063428D01*
X106192000Y57041009D01*
X106192000Y52857545D01*
X106172005Y52837585D01*
X105922949Y53087076D01*
X105261613Y53361687D01*
X104545529Y53362312D01*
X103883714Y53088855D01*
X103376924Y52582949D01*
X103102313Y51921613D01*
X103101688Y51205529D01*
X103375145Y50543714D01*
X103881051Y50036924D01*
X104542387Y49762313D01*
X105258471Y49761688D01*
X105920286Y50035145D01*
X106171995Y50286415D01*
X106421051Y50036924D01*
X107072157Y49766561D01*
X106912313Y49381613D01*
X106912203Y49256000D01*
X89916000Y49256000D01*
X89561190Y49185424D01*
X90687767Y50312000D01*
X98526455Y50312000D01*
X98801051Y50036924D01*
X99462387Y49762313D01*
X100178471Y49761688D01*
X100840286Y50035145D01*
X101347076Y50541051D01*
X101621687Y51202387D01*
X101622312Y51918471D01*
X101348855Y52580286D01*
X100842949Y53087076D01*
X100181613Y53361687D01*
X99465529Y53362312D01*
X98803714Y53088855D01*
X98526375Y52812000D01*
X90170000Y52812000D01*
X89771010Y52732635D01*
X89691645Y52716849D01*
X89286116Y52445883D01*
X88880000Y52039767D01*
X88880000Y55220635D01*
X89240572Y55369620D01*
X89662897Y55791209D01*
X89891739Y56342323D01*
X89892260Y56939059D01*
X89664380Y57490572D01*
X89242791Y57912897D01*
X88691677Y58141739D01*
X88094941Y58142260D01*
X87543428Y57914380D01*
X87121103Y57492791D01*
X87007021Y57218050D01*
X87740519Y93012728D01*
X87788478Y92992814D01*
X88484468Y92992207D01*
X89127712Y93257989D01*
X89620281Y93749699D01*
X89887186Y94392478D01*
X89887188Y94395532D01*
X94008207Y94395532D01*
X94273989Y93752288D01*
X94765699Y93259719D01*
X95408478Y92992814D01*
X96104468Y92992207D01*
X96747712Y93257989D01*
X96982132Y93492000D01*
X102606234Y93492000D01*
X103233307Y92864926D01*
X103233307Y92568000D01*
X103285604Y92290067D01*
X103449862Y92034802D01*
X103700492Y91863554D01*
X103998000Y91803307D01*
X105298000Y91803307D01*
X105575933Y91855604D01*
X105831198Y92019862D01*
X106002446Y92270492D01*
X106062693Y92568000D01*
X106062693Y92921054D01*
X141743518Y92921054D01*
X142166160Y91898182D01*
X142948066Y91114910D01*
X143970198Y90690484D01*
X145076946Y90689518D01*
X146099818Y91112160D01*
X146883090Y91894066D01*
X147307516Y92916198D01*
X147308482Y94022946D01*
X146885840Y95045818D01*
X146103934Y95829090D01*
X145081802Y96253516D01*
X143975054Y96254482D01*
X142952182Y95831840D01*
X142168910Y95049934D01*
X141744484Y94027802D01*
X141743518Y92921054D01*
X106062693Y92921054D01*
X106062693Y93868000D01*
X106010396Y94145933D01*
X105846138Y94401198D01*
X105595508Y94572446D01*
X105298000Y94632693D01*
X105001074Y94632693D01*
X104007883Y95625883D01*
X103602354Y95896849D01*
X103124000Y95992000D01*
X96982177Y95992000D01*
X96750301Y96224281D01*
X96107522Y96491186D01*
X95411532Y96491793D01*
X94768288Y96226011D01*
X94275719Y95734301D01*
X94008814Y95091522D01*
X94008207Y94395532D01*
X89887188Y94395532D01*
X89887793Y95088468D01*
X89622011Y95731712D01*
X89130301Y96224281D01*
X88487522Y96491186D01*
X87811811Y96491775D01*
X87831405Y97448000D01*
X147880000Y97448000D01*
X147880000Y-852000D01*
X147880000Y-852000D01*
G37*
X147880000Y-852000D02*
X3312708Y-852000D01*
X3351818Y-835840D01*
X4135090Y-53934D01*
X4559516Y968198D01*
X4560185Y1735054D01*
X74687518Y1735054D01*
X75110160Y712182D01*
X75892066Y-71090D01*
X76914198Y-495516D01*
X78020946Y-496482D01*
X79043818Y-73840D01*
X79827090Y708066D01*
X80251516Y1730198D01*
X80251963Y2243054D01*
X142251518Y2243054D01*
X142674160Y1220182D01*
X143456066Y436910D01*
X144478198Y12484D01*
X145584946Y11518D01*
X146607818Y434160D01*
X147391090Y1216066D01*
X147815516Y2238198D01*
X147816482Y3344946D01*
X147393840Y4367818D01*
X146611934Y5151090D01*
X145589802Y5575516D01*
X144483054Y5576482D01*
X143460182Y5153840D01*
X142676910Y4371934D01*
X142252484Y3349802D01*
X142251518Y2243054D01*
X80251963Y2243054D01*
X80252482Y2836946D01*
X79829840Y3859818D01*
X79047934Y4643090D01*
X78025802Y5067516D01*
X76919054Y5068482D01*
X75896182Y4645840D01*
X75112910Y3863934D01*
X74688484Y2841802D01*
X74687518Y1735054D01*
X4560185Y1735054D01*
X4560482Y2074946D01*
X4137840Y3097818D01*
X3355934Y3881090D01*
X2333802Y4305516D01*
X1227054Y4306482D01*
X204182Y3883840D01*
X-420000Y3260747D01*
X-420000Y37094377D01*
X6116000Y37132157D01*
X6116000Y35603928D01*
X6098380Y35646572D01*
X5676791Y36068897D01*
X5125677Y36297739D01*
X4528941Y36298260D01*
X3977428Y36070380D01*
X3555103Y35648791D01*
X3326261Y35097677D01*
X3325740Y34500941D01*
X3553620Y33949428D01*
X3576000Y33927009D01*
X3576000Y21699652D01*
X3555103Y21678791D01*
X3326261Y21127677D01*
X3325740Y20530941D01*
X3553620Y19979428D01*
X3975209Y19557103D01*
X4526323Y19328261D01*
X5123059Y19327740D01*
X5674572Y19555620D01*
X6096897Y19977209D01*
X6116000Y20023214D01*
X6116000Y15349652D01*
X6095103Y15328791D01*
X5866261Y14777677D01*
X5865740Y14180941D01*
X6093620Y13629428D01*
X6116000Y13607009D01*
X6116000Y12262225D01*
X5864028Y12158112D01*
X5116513Y11411901D01*
X4955693Y11024604D01*
X4955693Y11811000D01*
X4903396Y12088933D01*
X4739138Y12344198D01*
X4488508Y12515446D01*
X4191000Y12575693D01*
X3536000Y12575693D01*
X3536000Y13606791D01*
X3810897Y13881209D01*
X4039739Y14432323D01*
X4040260Y15029059D01*
X3812380Y15580572D01*
X3390791Y16002897D01*
X2839677Y16231739D01*
X2242941Y16232260D01*
X1691428Y16004380D01*
X1269103Y15582791D01*
X1040261Y15031677D01*
X1039794Y14497075D01*
X1036000Y14478000D01*
X1036000Y12575693D01*
X381000Y12575693D01*
X103067Y12523396D01*
X-152198Y12359138D01*
X-323446Y12108508D01*
X-383693Y11811000D01*
X-383693Y8001000D01*
X-331396Y7723067D01*
X-167138Y7467802D01*
X83492Y7296554D01*
X381000Y7236307D01*
X4191000Y7236307D01*
X4468933Y7288604D01*
X4724198Y7452862D01*
X4895446Y7703492D01*
X4955693Y8001000D01*
X4955693Y8786889D01*
X5113888Y8404028D01*
X5860099Y7656513D01*
X6835571Y7251461D01*
X7891795Y7250540D01*
X8867972Y7653888D01*
X9615487Y8400099D01*
X9906215Y9100249D01*
X10193888Y8404028D01*
X10940099Y7656513D01*
X11915571Y7251461D01*
X12971795Y7250540D01*
X13947972Y7653888D01*
X14695487Y8400099D01*
X14986215Y9100249D01*
X15273888Y8404028D01*
X16020099Y7656513D01*
X16995571Y7251461D01*
X18051795Y7250540D01*
X19027972Y7653888D01*
X19775487Y8400099D01*
X20180539Y9375571D01*
X20181460Y10431795D01*
X19920239Y11064000D01*
X26271307Y11064000D01*
X26271307Y9764000D01*
X26323604Y9486067D01*
X26487862Y9230802D01*
X26738492Y9059554D01*
X27036000Y8999307D01*
X28336000Y8999307D01*
X28613933Y9051604D01*
X28869198Y9215862D01*
X29040446Y9466492D01*
X29100693Y9764000D01*
X29100693Y11064000D01*
X29048396Y11341933D01*
X28936000Y11516602D01*
X28936000Y18278234D01*
X39999883Y29342117D01*
X40270849Y29747646D01*
X40306911Y29928941D01*
X40366000Y30226000D01*
X40366000Y33827823D01*
X40598281Y34059699D01*
X40865186Y34702478D01*
X40865793Y35398468D01*
X40600011Y36041712D01*
X40108301Y36534281D01*
X39465522Y36801186D01*
X38769532Y36801793D01*
X38126288Y36536011D01*
X37633719Y36044301D01*
X37366814Y35401522D01*
X37366207Y34705532D01*
X37631989Y34062288D01*
X37866000Y33827868D01*
X37866000Y30743766D01*
X26802117Y19679883D01*
X26531151Y19274354D01*
X26436000Y18796000D01*
X26436000Y11514370D01*
X26331554Y11361508D01*
X26271307Y11064000D01*
X19920239Y11064000D01*
X19778112Y11407972D01*
X19031901Y12155487D01*
X18651000Y12313651D01*
X18651000Y12700000D01*
X18565364Y13130519D01*
X18321495Y13495495D01*
X16994080Y14822910D01*
X16994260Y15029059D01*
X16766380Y15580572D01*
X16344791Y16002897D01*
X15793677Y16231739D01*
X15196941Y16232260D01*
X14645428Y16004380D01*
X14223103Y15582791D01*
X13994261Y15031677D01*
X13993740Y14434941D01*
X14221620Y13883428D01*
X14643209Y13461103D01*
X15194323Y13232261D01*
X15402931Y13232079D01*
X16344487Y12290523D01*
X16024028Y12158112D01*
X15276513Y11411901D01*
X14985785Y10711751D01*
X14698112Y11407972D01*
X13951901Y12155487D01*
X13696000Y12261747D01*
X13696000Y13606348D01*
X13716897Y13627209D01*
X13945739Y14178323D01*
X13946260Y14775059D01*
X13718380Y15326572D01*
X13696000Y15348991D01*
X13696000Y19514072D01*
X13713620Y19471428D01*
X14135209Y19049103D01*
X14672608Y18825956D01*
X14477103Y18630791D01*
X14248261Y18079677D01*
X14247740Y17482941D01*
X14475620Y16931428D01*
X14897209Y16509103D01*
X15448323Y16280261D01*
X16045059Y16279740D01*
X16596572Y16507620D01*
X17018897Y16929209D01*
X17247739Y17480323D01*
X17247767Y17512000D01*
X17901883Y18166116D01*
X17901885Y18166119D01*
X21091767Y21356000D01*
X23004348Y21356000D01*
X23025209Y21335103D01*
X23576323Y21106261D01*
X24173059Y21105740D01*
X24724572Y21333620D01*
X25146897Y21755209D01*
X25375739Y22306323D01*
X25375767Y22338000D01*
X26283883Y23246116D01*
X26554849Y23651645D01*
X26576571Y23760849D01*
X26650000Y24130000D01*
X26650000Y25315630D01*
X26754446Y25468492D01*
X26814693Y25766000D01*
X26814693Y27066000D01*
X26762396Y27343933D01*
X26598138Y27599198D01*
X26347508Y27770446D01*
X26050000Y27830693D01*
X24750000Y27830693D01*
X24472067Y27778396D01*
X24216802Y27614138D01*
X24045554Y27363508D01*
X23985307Y27066000D01*
X23985307Y25766000D01*
X24037604Y25488067D01*
X24150000Y25313398D01*
X24150000Y24647767D01*
X23608468Y24106234D01*
X23578941Y24106260D01*
X23027428Y23878380D01*
X23005009Y23856000D01*
X20574000Y23856000D01*
X20175010Y23776635D01*
X20095645Y23760849D01*
X19690116Y23489883D01*
X16485971Y20285737D01*
X16486260Y20617059D01*
X16280662Y21114645D01*
X16280662Y33981572D01*
X19405599Y37106508D01*
X19555620Y36743428D01*
X19976457Y36321857D01*
X19811103Y36156791D01*
X19582261Y35605677D01*
X19581740Y35008941D01*
X19809620Y34457428D01*
X20231209Y34035103D01*
X20782323Y33806261D01*
X21379059Y33805740D01*
X21930572Y34033620D01*
X22352897Y34455209D01*
X22375748Y34510241D01*
X22375740Y34500941D01*
X22603620Y33949428D01*
X23025209Y33527103D01*
X23576323Y33298261D01*
X24173059Y33297740D01*
X24724572Y33525620D01*
X25146897Y33947209D01*
X25375739Y34498323D01*
X25375767Y34530001D01*
X28105028Y37259262D01*
X42355268Y37341633D01*
X42163331Y37054379D01*
X41954000Y36002000D01*
X42163331Y34949621D01*
X42759456Y34057456D01*
X43651621Y33461331D01*
X44704000Y33252000D01*
X54044912Y33252000D01*
X56432000Y30864912D01*
X56432000Y29698000D01*
X53086000Y29698000D01*
X53064872Y29693797D01*
X52534941Y29694260D01*
X51983428Y29466380D01*
X51561103Y29044791D01*
X51332261Y28493677D01*
X51331740Y27896941D01*
X51559620Y27345428D01*
X51981209Y26923103D01*
X52532323Y26694261D01*
X53129059Y26693740D01*
X53680572Y26921620D01*
X53957434Y27198000D01*
X56432000Y27198000D01*
X56432000Y13989496D01*
X55925677Y14199739D01*
X55328941Y14200260D01*
X54777428Y13972380D01*
X54355103Y13550791D01*
X54126261Y12999677D01*
X54126233Y12968000D01*
X53387879Y12229645D01*
X52600028Y11904112D01*
X51852513Y11157901D01*
X51561785Y10457751D01*
X51274112Y11153972D01*
X50527901Y11901487D01*
X50272000Y12007747D01*
X50272000Y25908000D01*
X50176849Y26386354D01*
X50141178Y26439740D01*
X49905884Y26791883D01*
X45442234Y31255532D01*
X45442260Y31285059D01*
X45214380Y31836572D01*
X44792791Y32258897D01*
X44241677Y32487739D01*
X43644941Y32488260D01*
X43093428Y32260380D01*
X42671103Y31838791D01*
X42442261Y31287677D01*
X42441740Y30690941D01*
X42669620Y30139428D01*
X43091209Y29717103D01*
X43642323Y29488261D01*
X43674001Y29488233D01*
X47772000Y25390233D01*
X47772000Y13759928D01*
X47754380Y13802572D01*
X47332791Y14224897D01*
X46781677Y14453739D01*
X46184941Y14454260D01*
X45633428Y14226380D01*
X45211103Y13804791D01*
X44982261Y13253677D01*
X44982233Y13222000D01*
X44067126Y12306892D01*
X43416205Y12307460D01*
X42440028Y11904112D01*
X41692513Y11157901D01*
X41612000Y10964004D01*
X41612000Y13208000D01*
X41402669Y14260379D01*
X40806544Y15152544D01*
X40053769Y15655532D01*
X42954207Y15655532D01*
X43219989Y15012288D01*
X43711699Y14519719D01*
X44354478Y14252814D01*
X45050468Y14252207D01*
X45693712Y14517989D01*
X46186281Y15009699D01*
X46453186Y15652478D01*
X46453793Y16348468D01*
X46188011Y16991712D01*
X45696301Y17484281D01*
X45053522Y17751186D01*
X44357532Y17751793D01*
X43714288Y17486011D01*
X43221719Y16994301D01*
X42954814Y16351522D01*
X42954207Y15655532D01*
X40053769Y15655532D01*
X39914379Y15748669D01*
X38862000Y15958000D01*
X37809621Y15748669D01*
X36917456Y15152544D01*
X36321331Y14260379D01*
X36112000Y13208000D01*
X36112000Y9652000D01*
X36192307Y9248269D01*
X36192307Y7747000D01*
X36244604Y7469067D01*
X36408862Y7213802D01*
X36659492Y7042554D01*
X36957000Y6982307D01*
X38458269Y6982307D01*
X38862000Y6902000D01*
X39265731Y6982307D01*
X40767000Y6982307D01*
X41044933Y7034604D01*
X41300198Y7198862D01*
X41471446Y7449492D01*
X41531693Y7747000D01*
X41531693Y8532889D01*
X41689888Y8150028D01*
X42436099Y7402513D01*
X43411571Y6997461D01*
X44467795Y6996540D01*
X45443972Y7399888D01*
X46191487Y8146099D01*
X46482215Y8846249D01*
X46769888Y8150028D01*
X47516099Y7402513D01*
X48491571Y6997461D01*
X49547795Y6996540D01*
X50523972Y7399888D01*
X51271487Y8146099D01*
X51562215Y8846249D01*
X51849888Y8150028D01*
X52596099Y7402513D01*
X53571571Y6997461D01*
X54627795Y6996540D01*
X55603972Y7399888D01*
X56351487Y8146099D01*
X56608449Y8764931D01*
X56641331Y8599621D01*
X56910684Y8196506D01*
X56929888Y8150028D01*
X56965729Y8114124D01*
X57237456Y7707456D01*
X57640570Y7438104D01*
X57676099Y7402513D01*
X57722953Y7383057D01*
X58129621Y7111331D01*
X58605123Y7016748D01*
X58651571Y6997461D01*
X58702307Y6997417D01*
X59139849Y6910384D01*
X59459766Y6590468D01*
X59459740Y6560941D01*
X59687620Y6009428D01*
X60109209Y5587103D01*
X60660323Y5358261D01*
X61257059Y5357740D01*
X61808572Y5585620D01*
X62230897Y6007209D01*
X62459739Y6558323D01*
X62460260Y7155059D01*
X62232380Y7706572D01*
X61810791Y8128897D01*
X61495593Y8259778D01*
X61722669Y8599621D01*
X61817252Y9075123D01*
X61836539Y9121571D01*
X61836583Y9172307D01*
X61932000Y9652000D01*
X61932000Y21038941D01*
X66825740Y21038941D01*
X67053620Y20487428D01*
X67076000Y20465009D01*
X67076000Y18034000D01*
X67132421Y17750354D01*
X67171151Y17555646D01*
X67442117Y17150117D01*
X70542696Y14049537D01*
X70152075Y14211737D01*
X69550564Y14212262D01*
X68994640Y13982559D01*
X68568936Y13557598D01*
X68338263Y13002075D01*
X68337738Y12400564D01*
X68567441Y11844640D01*
X68992402Y11418936D01*
X69547925Y11188263D01*
X70149436Y11187738D01*
X70705360Y11417441D01*
X71120351Y11831708D01*
X71532402Y11418936D01*
X72087925Y11188263D01*
X72689436Y11187738D01*
X73245360Y11417441D01*
X73660351Y11831708D01*
X74072402Y11418936D01*
X74627925Y11188263D01*
X75229436Y11187738D01*
X75785360Y11417441D01*
X76211064Y11842402D01*
X76441737Y12397925D01*
X76441777Y12444011D01*
X76829883Y12832117D01*
X77100849Y13237646D01*
X77139579Y13432354D01*
X77196000Y13716000D01*
X77196000Y14622348D01*
X77216897Y14643209D01*
X77445739Y15194323D01*
X77446260Y15791059D01*
X77218380Y16342572D01*
X76796791Y16764897D01*
X76245677Y16993739D01*
X75648941Y16994260D01*
X75097428Y16766380D01*
X74675103Y16344791D01*
X74446261Y15793677D01*
X74445740Y15196941D01*
X74673620Y14645428D01*
X74696000Y14623009D01*
X74696000Y14233766D01*
X74674458Y14212224D01*
X74630564Y14212262D01*
X74074640Y13982559D01*
X73659649Y13568292D01*
X73640000Y13587976D01*
X73640000Y13970000D01*
X73544849Y14448354D01*
X73523450Y14480380D01*
X73273884Y14853883D01*
X69576000Y18551766D01*
X69576000Y20464348D01*
X69596897Y20485209D01*
X69825739Y21036323D01*
X69826260Y21633059D01*
X69598380Y22184572D01*
X69176791Y22606897D01*
X68625677Y22835739D01*
X68028941Y22836260D01*
X67477428Y22608380D01*
X67055103Y22186791D01*
X66826261Y21635677D01*
X66825740Y21038941D01*
X61932000Y21038941D01*
X61932000Y31629223D01*
X67284000Y31629223D01*
X67284000Y30854777D01*
X67401987Y30261618D01*
X67737984Y29758761D01*
X68240841Y29422764D01*
X68834000Y29304777D01*
X69427159Y29422764D01*
X69930016Y29758761D01*
X70104000Y30019147D01*
X70277984Y29758761D01*
X70780841Y29422764D01*
X71374000Y29304777D01*
X71967159Y29422764D01*
X72470016Y29758761D01*
X72644000Y30019147D01*
X72817984Y29758761D01*
X73320841Y29422764D01*
X73914000Y29304777D01*
X74507159Y29422764D01*
X75010016Y29758761D01*
X75346013Y30261618D01*
X75464000Y30854777D01*
X75464000Y31629223D01*
X75346013Y32222382D01*
X75010016Y32725239D01*
X74507159Y33061236D01*
X73914000Y33179223D01*
X73320841Y33061236D01*
X72817984Y32725239D01*
X72644000Y32464853D01*
X72470016Y32725239D01*
X71967159Y33061236D01*
X71374000Y33179223D01*
X70780841Y33061236D01*
X70277984Y32725239D01*
X70104000Y32464853D01*
X69930016Y32725239D01*
X69427159Y33061236D01*
X68834000Y33179223D01*
X68240841Y33061236D01*
X67737984Y32725239D01*
X67401987Y32222382D01*
X67284000Y31629223D01*
X61932000Y31629223D01*
X61932000Y32003995D01*
X61932001Y32004000D01*
X61722669Y33056380D01*
X61126544Y33948544D01*
X57645074Y37430014D01*
X67665038Y37487933D01*
X67737984Y37378761D01*
X68240841Y37042764D01*
X68834000Y36924777D01*
X69427159Y37042764D01*
X69930016Y37378761D01*
X70012027Y37501499D01*
X70195266Y37502558D01*
X70277984Y37378761D01*
X70780841Y37042764D01*
X71374000Y36924777D01*
X71967159Y37042764D01*
X72470016Y37378761D01*
X72561875Y37516238D01*
X72725493Y37517184D01*
X72817984Y37378761D01*
X73320841Y37042764D01*
X73914000Y36924777D01*
X74507159Y37042764D01*
X75010016Y37378761D01*
X75111723Y37530977D01*
X75255721Y37531809D01*
X75357984Y37378761D01*
X75860841Y37042764D01*
X76454000Y36924777D01*
X77047159Y37042764D01*
X77550016Y37378761D01*
X77661571Y37545716D01*
X85387391Y37590374D01*
X85435330Y37595296D01*
X85811506Y37671098D01*
X85900167Y37707741D01*
X86220099Y37919634D01*
X86288432Y37986969D01*
X86380000Y38120904D01*
X86380000Y28303652D01*
X86359103Y28282791D01*
X86130261Y27731677D01*
X86129740Y27134941D01*
X86357620Y26583428D01*
X86779209Y26161103D01*
X87330323Y25932261D01*
X87917981Y25931748D01*
X84460117Y22473883D01*
X84189151Y22068354D01*
X84094000Y21590000D01*
X84094000Y15603652D01*
X84073103Y15582791D01*
X83844261Y15031677D01*
X83843740Y14434941D01*
X84071620Y13883428D01*
X84094000Y13861009D01*
X84094000Y11559693D01*
X82677000Y11559693D01*
X82399067Y11507396D01*
X82143802Y11343138D01*
X81972554Y11092508D01*
X81912307Y10795000D01*
X81912307Y6985000D01*
X81964604Y6707067D01*
X82128862Y6451802D01*
X82379492Y6280554D01*
X82677000Y6220307D01*
X86487000Y6220307D01*
X86764933Y6272604D01*
X87020198Y6436862D01*
X87191446Y6687492D01*
X87251693Y6985000D01*
X87251693Y7770889D01*
X87409888Y7388028D01*
X88156099Y6640513D01*
X89131571Y6235461D01*
X90187795Y6234540D01*
X91163972Y6637888D01*
X91911487Y7384099D01*
X92316539Y8359571D01*
X92317460Y9415795D01*
X91914112Y10391972D01*
X91167901Y11139487D01*
X90912000Y11245747D01*
X90912000Y12954000D01*
X90816849Y13432354D01*
X90770617Y13501545D01*
X90545884Y13837883D01*
X89134000Y15249766D01*
X89134000Y18686348D01*
X89154897Y18707209D01*
X89383739Y19258323D01*
X89384260Y19855059D01*
X89156380Y20406572D01*
X88734791Y20828897D01*
X88183677Y21057739D01*
X87586941Y21058260D01*
X87035428Y20830380D01*
X86613103Y20408791D01*
X86594000Y20362786D01*
X86594000Y21072234D01*
X89417767Y23896000D01*
X99524072Y23896000D01*
X99481428Y23878380D01*
X99059103Y23456791D01*
X98830261Y22905677D01*
X98829740Y22308941D01*
X99057620Y21757428D01*
X99479209Y21335103D01*
X99842000Y21184459D01*
X99842000Y16256000D01*
X99858518Y16172959D01*
X99562352Y16370851D01*
X99527000Y16377883D01*
X99294000Y16424230D01*
X99294000Y18686348D01*
X99314897Y18707209D01*
X99543739Y19258323D01*
X99544260Y19855059D01*
X99316380Y20406572D01*
X98894791Y20828897D01*
X98343677Y21057739D01*
X97746941Y21058260D01*
X97195428Y20830380D01*
X96773103Y20408791D01*
X96544261Y19857677D01*
X96543740Y19260941D01*
X96771620Y18709428D01*
X96794000Y18687009D01*
X96794000Y15494000D01*
X96861920Y15152544D01*
X96889151Y15015646D01*
X96922323Y14966000D01*
X95005767Y14966000D01*
X94468000Y15503766D01*
X94468000Y19050000D01*
X94463797Y19071128D01*
X94464260Y19601059D01*
X94236380Y20152572D01*
X93814791Y20574897D01*
X93263677Y20803739D01*
X92666941Y20804260D01*
X92115428Y20576380D01*
X91693103Y20154791D01*
X91464261Y19603677D01*
X91463740Y19006941D01*
X91691620Y18455428D01*
X91968000Y18178566D01*
X91968000Y14986000D01*
X92041429Y14616849D01*
X92063151Y14507646D01*
X92334117Y14102117D01*
X93604116Y12832117D01*
X93866286Y12656941D01*
X94009646Y12561151D01*
X94488000Y12466000D01*
X97780234Y12466000D01*
X98686540Y11559693D01*
X98171000Y11559693D01*
X97893067Y11507396D01*
X97637802Y11343138D01*
X97466554Y11092508D01*
X97406307Y10795000D01*
X97406307Y6985000D01*
X97458604Y6707067D01*
X97622862Y6451802D01*
X97873492Y6280554D01*
X98171000Y6220307D01*
X101981000Y6220307D01*
X102258933Y6272604D01*
X102514198Y6436862D01*
X102685446Y6687492D01*
X102745693Y6985000D01*
X102745693Y7770889D01*
X102903888Y7388028D01*
X103650099Y6640513D01*
X104625571Y6235461D01*
X105681795Y6234540D01*
X106657972Y6637888D01*
X107405487Y7384099D01*
X107696215Y8084249D01*
X107983888Y7388028D01*
X108730099Y6640513D01*
X109705571Y6235461D01*
X110761795Y6234540D01*
X111737972Y6637888D01*
X112485487Y7384099D01*
X112646307Y7771396D01*
X112646307Y6985000D01*
X112698604Y6707067D01*
X112862862Y6451802D01*
X113113492Y6280554D01*
X113411000Y6220307D01*
X117221000Y6220307D01*
X117498933Y6272604D01*
X117754198Y6436862D01*
X117925446Y6687492D01*
X117985693Y6985000D01*
X117985693Y7770889D01*
X118143888Y7388028D01*
X118890099Y6640513D01*
X119865571Y6235461D01*
X120921795Y6234540D01*
X121897972Y6637888D01*
X122645487Y7384099D01*
X122936215Y8084249D01*
X123223888Y7388028D01*
X123970099Y6640513D01*
X124945571Y6235461D01*
X126001795Y6234540D01*
X126977972Y6637888D01*
X127725487Y7384099D01*
X127886307Y7771396D01*
X127886307Y6985000D01*
X127938604Y6707067D01*
X128102862Y6451802D01*
X128353492Y6280554D01*
X128651000Y6220307D01*
X132461000Y6220307D01*
X132738933Y6272604D01*
X132994198Y6436862D01*
X133165446Y6687492D01*
X133225693Y6985000D01*
X133225693Y7770889D01*
X133383888Y7388028D01*
X134130099Y6640513D01*
X135105571Y6235461D01*
X136161795Y6234540D01*
X137137972Y6637888D01*
X137885487Y7384099D01*
X138176215Y8084249D01*
X138463888Y7388028D01*
X139210099Y6640513D01*
X140185571Y6235461D01*
X141241795Y6234540D01*
X142217972Y6637888D01*
X142965487Y7384099D01*
X143370539Y8359571D01*
X143371460Y9415795D01*
X142968112Y10391972D01*
X142221901Y11139487D01*
X141966000Y11245747D01*
X141966000Y11938000D01*
X141870849Y12416354D01*
X141773892Y12561460D01*
X141599883Y12821884D01*
X138914234Y15507532D01*
X138914260Y15537059D01*
X138686380Y16088572D01*
X138264791Y16510897D01*
X137713677Y16739739D01*
X137116941Y16740260D01*
X136886000Y16644837D01*
X136886000Y25400000D01*
X136790849Y25878354D01*
X136790849Y25878355D01*
X136519883Y26283884D01*
X133979883Y28823883D01*
X133574354Y29094849D01*
X133096000Y29190000D01*
X131173652Y29190000D01*
X131152791Y29210897D01*
X130601677Y29439739D01*
X130004941Y29440260D01*
X129453428Y29212380D01*
X129031103Y28790791D01*
X128802261Y28239677D01*
X128801740Y27642941D01*
X129029620Y27091428D01*
X129451209Y26669103D01*
X130002323Y26440261D01*
X130599059Y26439740D01*
X131150572Y26667620D01*
X131172991Y26690000D01*
X132578234Y26690000D01*
X134386000Y24882233D01*
X134386000Y14333652D01*
X134365103Y14312791D01*
X134136261Y13761677D01*
X134135740Y13164941D01*
X134363620Y12613428D01*
X134386000Y12591009D01*
X134386000Y11246225D01*
X134134028Y11142112D01*
X133386513Y10395901D01*
X133225693Y10008604D01*
X133225693Y10795000D01*
X133173396Y11072933D01*
X133009138Y11328198D01*
X132758508Y11499446D01*
X132461000Y11559693D01*
X129654074Y11559693D01*
X123424000Y17789766D01*
X123424000Y27068348D01*
X123444897Y27089209D01*
X123673739Y27640323D01*
X123673983Y27919805D01*
X123678000Y27940000D01*
X123674018Y27960018D01*
X123674260Y28237059D01*
X123446380Y28788572D01*
X123024791Y29210897D01*
X122473677Y29439739D01*
X121876941Y29440260D01*
X121604023Y29327493D01*
X121641739Y29418323D01*
X121642260Y30015059D01*
X121414380Y30566572D01*
X120992791Y30988897D01*
X120441677Y31217739D01*
X119844941Y31218260D01*
X119293428Y30990380D01*
X119271009Y30968000D01*
X116609998Y30968000D01*
X116131644Y30872849D01*
X115857993Y30690002D01*
X114170966Y30690002D01*
X114275739Y30942323D01*
X114276260Y31539059D01*
X114048380Y32090572D01*
X113626791Y32512897D01*
X113075677Y32741739D01*
X113044000Y32741767D01*
X111232000Y34553766D01*
X111232000Y35026455D01*
X111251995Y35046415D01*
X111501051Y34796924D01*
X112162387Y34522313D01*
X112878471Y34521688D01*
X113540286Y34795145D01*
X113791995Y35046415D01*
X114041051Y34796924D01*
X114702387Y34522313D01*
X115418471Y34521688D01*
X116080286Y34795145D01*
X116331995Y35046415D01*
X116581051Y34796924D01*
X117242387Y34522313D01*
X117958471Y34521688D01*
X118620286Y34795145D01*
X118871995Y35046415D01*
X119121051Y34796924D01*
X119782387Y34522313D01*
X120498471Y34521688D01*
X121160286Y34795145D01*
X121411995Y35046415D01*
X121661051Y34796924D01*
X122322387Y34522313D01*
X123038471Y34521688D01*
X123700286Y34795145D01*
X123951995Y35046415D01*
X124201051Y34796924D01*
X124862387Y34522313D01*
X125578471Y34521688D01*
X126240286Y34795145D01*
X126491995Y35046415D01*
X126741051Y34796924D01*
X127402387Y34522313D01*
X128118471Y34521688D01*
X128780286Y34795145D01*
X129287076Y35301051D01*
X129561687Y35962387D01*
X129562312Y36678471D01*
X129288855Y37340286D01*
X128782949Y37847076D01*
X128121613Y38121687D01*
X127405529Y38122312D01*
X126743714Y37848855D01*
X126492005Y37597585D01*
X126242949Y37847076D01*
X125581613Y38121687D01*
X124865529Y38122312D01*
X124203714Y37848855D01*
X123952005Y37597585D01*
X123702949Y37847076D01*
X123041613Y38121687D01*
X122325529Y38122312D01*
X121663714Y37848855D01*
X121412005Y37597585D01*
X121162949Y37847076D01*
X120501613Y38121687D01*
X119785529Y38122312D01*
X119123714Y37848855D01*
X118872005Y37597585D01*
X118622949Y37847076D01*
X117961613Y38121687D01*
X117245529Y38122312D01*
X116583714Y37848855D01*
X116332005Y37597585D01*
X116082949Y37847076D01*
X115421613Y38121687D01*
X114705529Y38122312D01*
X114043714Y37848855D01*
X113792005Y37597585D01*
X113542949Y37847076D01*
X112881613Y38121687D01*
X112165529Y38122312D01*
X111503714Y37848855D01*
X111252005Y37597585D01*
X111002949Y37847076D01*
X110341613Y38121687D01*
X109625529Y38122312D01*
X108963714Y37848855D01*
X108456924Y37342949D01*
X108182313Y36681613D01*
X108181688Y35965529D01*
X108455145Y35303714D01*
X108732000Y35026375D01*
X108732000Y34036000D01*
X108787350Y33757739D01*
X108827151Y33557646D01*
X109098117Y33152117D01*
X111275766Y30974467D01*
X111275740Y30944941D01*
X111381078Y30690002D01*
X110523764Y30690002D01*
X110103883Y31109883D01*
X109698354Y31380849D01*
X109220000Y31476000D01*
X105185461Y31476000D01*
X105385739Y31958323D01*
X105386260Y32555059D01*
X105158380Y33106572D01*
X104736791Y33528897D01*
X104185677Y33757739D01*
X103588941Y33758260D01*
X103037428Y33530380D01*
X103015009Y33508000D01*
X90380002Y33508000D01*
X90380002Y35965529D01*
X98021688Y35965529D01*
X98295145Y35303714D01*
X98801051Y34796924D01*
X99462387Y34522313D01*
X100178471Y34521688D01*
X100840286Y34795145D01*
X101091995Y35046415D01*
X101341051Y34796924D01*
X102002387Y34522313D01*
X102718471Y34521688D01*
X103380286Y34795145D01*
X103631995Y35046415D01*
X103881051Y34796924D01*
X104542387Y34522313D01*
X105258471Y34521688D01*
X105920286Y34795145D01*
X106427076Y35301051D01*
X106701687Y35962387D01*
X106702312Y36678471D01*
X106428855Y37340286D01*
X105922949Y37847076D01*
X105261613Y38121687D01*
X104545529Y38122312D01*
X103883714Y37848855D01*
X103632005Y37597585D01*
X103382949Y37847076D01*
X102721613Y38121687D01*
X102005529Y38122312D01*
X101343714Y37848855D01*
X101092005Y37597585D01*
X100842949Y37847076D01*
X100181613Y38121687D01*
X99465529Y38122312D01*
X98803714Y37848855D01*
X98296924Y37342949D01*
X98022313Y36681613D01*
X98021688Y35965529D01*
X90380002Y35965529D01*
X90380002Y46702236D01*
X90433766Y46756000D01*
X91878635Y46756000D01*
X91693103Y46570791D01*
X91464261Y46019677D01*
X91463740Y45422941D01*
X91691620Y44871428D01*
X92113209Y44449103D01*
X92664323Y44220261D01*
X93261059Y44219740D01*
X93812572Y44447620D01*
X93834991Y44470000D01*
X110236000Y44470000D01*
X110714354Y44565151D01*
X111119883Y44836117D01*
X112135883Y45852117D01*
X112406849Y46257646D01*
X112433083Y46389532D01*
X112502000Y46736000D01*
X112502000Y47726455D01*
X112777076Y48001051D01*
X113051687Y48662387D01*
X113052312Y49378471D01*
X112891709Y49767158D01*
X113540286Y50035145D01*
X113791995Y50286415D01*
X114041051Y50036924D01*
X114702387Y49762313D01*
X115418471Y49761688D01*
X116080286Y50035145D01*
X116331995Y50286415D01*
X116352000Y50266375D01*
X116352000Y49385209D01*
X116077103Y49110791D01*
X115848261Y48559677D01*
X115847740Y47962941D01*
X116075620Y47411428D01*
X116497209Y46989103D01*
X117048323Y46760261D01*
X117645059Y46759740D01*
X118196572Y46987620D01*
X118618897Y47409209D01*
X118847739Y47960323D01*
X118848206Y48494925D01*
X118852000Y48514000D01*
X118852000Y50266455D01*
X118871995Y50286415D01*
X119121051Y50036924D01*
X119782387Y49762313D01*
X120498471Y49761688D01*
X121160286Y50035145D01*
X121411995Y50286415D01*
X121661051Y50036924D01*
X122322387Y49762313D01*
X123038471Y49761688D01*
X123700286Y50035145D01*
X123951995Y50286415D01*
X124201051Y50036924D01*
X124862387Y49762313D01*
X125578471Y49761688D01*
X126232316Y50031852D01*
X125962313Y49381613D01*
X125961688Y48665529D01*
X126235145Y48003714D01*
X126486415Y47752005D01*
X126236924Y47502949D01*
X125962313Y46841613D01*
X125961688Y46125529D01*
X126235145Y45463714D01*
X126741051Y44956924D01*
X127402387Y44682313D01*
X128118471Y44681688D01*
X128780286Y44955145D01*
X129057625Y45232000D01*
X134256348Y45232000D01*
X134277209Y45211103D01*
X134828323Y44982261D01*
X135425059Y44981740D01*
X135976572Y45209620D01*
X136398897Y45631209D01*
X136627739Y46182323D01*
X136628260Y46779059D01*
X136400380Y47330572D01*
X135978791Y47752897D01*
X135427677Y47981739D01*
X134830941Y47982260D01*
X134279428Y47754380D01*
X134257009Y47732000D01*
X133647928Y47732000D01*
X133690572Y47749620D01*
X134112897Y48171209D01*
X134341739Y48722323D01*
X134342260Y49319059D01*
X134114380Y49870572D01*
X133692791Y50292897D01*
X133141677Y50521739D01*
X132544941Y50522260D01*
X131993428Y50294380D01*
X131971009Y50272000D01*
X129057545Y50272000D01*
X129037585Y50291995D01*
X129287076Y50541051D01*
X129561687Y51202387D01*
X129562312Y51918471D01*
X129288855Y52580286D01*
X129012000Y52857625D01*
X129012000Y54788648D01*
X128916849Y55267002D01*
X128716052Y55567516D01*
X128645883Y55672532D01*
X118598000Y65720414D01*
X118598000Y65848411D01*
X125003610Y65848411D01*
X125345431Y65021142D01*
X125977813Y64387655D01*
X126804484Y64044392D01*
X127699589Y64043610D01*
X128526858Y64385431D01*
X129160345Y65017813D01*
X129503608Y65844484D01*
X129504390Y66739589D01*
X129162569Y67566858D01*
X128530187Y68200345D01*
X127703516Y68543608D01*
X126808411Y68544390D01*
X125981142Y68202569D01*
X125347655Y67570187D01*
X125004392Y66743516D01*
X125003610Y65848411D01*
X118598000Y65848411D01*
X118598000Y65930348D01*
X118618897Y65951209D01*
X118847739Y66502323D01*
X118848260Y67099059D01*
X118620380Y67650572D01*
X118198791Y68072897D01*
X117647677Y68301739D01*
X117050941Y68302260D01*
X116499428Y68074380D01*
X116077103Y67652791D01*
X115848261Y67101677D01*
X115847740Y66504941D01*
X115957296Y66239794D01*
X111268679Y70928411D01*
X125003610Y70928411D01*
X125345431Y70101142D01*
X125977813Y69467655D01*
X126804484Y69124392D01*
X127699589Y69123610D01*
X128526858Y69465431D01*
X129160345Y70097813D01*
X129503608Y70924484D01*
X129504390Y71819589D01*
X129162569Y72646858D01*
X128530187Y73280345D01*
X127703516Y73623608D01*
X126808411Y73624390D01*
X125981142Y73282569D01*
X125347655Y72650187D01*
X125004392Y71823516D01*
X125003610Y70928411D01*
X111268679Y70928411D01*
X110979205Y71217885D01*
X110573676Y71488851D01*
X110502871Y71502935D01*
X110095322Y71584002D01*
X97061765Y71584002D01*
X96387883Y72257883D01*
X95982354Y72528849D01*
X95504000Y72624000D01*
X93426897Y72624000D01*
X93406875Y72644057D01*
X93426853Y72664000D01*
X101744791Y72664000D01*
X102019209Y72389103D01*
X102570323Y72160261D01*
X103167059Y72159740D01*
X103718572Y72387620D01*
X104140897Y72809209D01*
X104369739Y73360323D01*
X104370260Y73957059D01*
X104142380Y74508572D01*
X103720791Y74930897D01*
X103169677Y75159739D01*
X102635075Y75160206D01*
X102616000Y75164000D01*
X93426897Y75164000D01*
X93406875Y75184057D01*
X93684713Y75461410D01*
X93951696Y76104376D01*
X93952304Y76800569D01*
X93686443Y77444001D01*
X93194590Y77936713D01*
X92551624Y78203696D01*
X91855431Y78204304D01*
X91211999Y77938443D01*
X90719287Y77446590D01*
X90452304Y76803624D01*
X90451696Y76107431D01*
X90717557Y75463999D01*
X90997125Y75183943D01*
X90719287Y74906590D01*
X90452304Y74263624D01*
X90451696Y73567431D01*
X90717557Y72923999D01*
X90997125Y72643943D01*
X90719287Y72366590D01*
X90452304Y71723624D01*
X90451696Y71027431D01*
X90717557Y70383999D01*
X90997125Y70103943D01*
X90719287Y69826590D01*
X90452304Y69183624D01*
X90451696Y68487431D01*
X90717557Y67843999D01*
X90997125Y67563943D01*
X90719287Y67286590D01*
X90452304Y66643624D01*
X90451696Y65947431D01*
X90717557Y65303999D01*
X91209410Y64811287D01*
X91852376Y64544304D01*
X92548569Y64543696D01*
X93192001Y64809557D01*
X93426853Y65044000D01*
X102038635Y65044000D01*
X101853103Y64858791D01*
X101624261Y64307677D01*
X101623740Y63710941D01*
X101851620Y63159428D01*
X102273209Y62737103D01*
X102824323Y62508261D01*
X103421059Y62507740D01*
X103972572Y62735620D01*
X103994991Y62758000D01*
X111660910Y62758000D01*
X118892000Y55526909D01*
X118892000Y52857545D01*
X118872005Y52837585D01*
X118622949Y53087076D01*
X117961613Y53361687D01*
X117245529Y53362312D01*
X116583714Y53088855D01*
X116332005Y52837585D01*
X116312000Y52857625D01*
X116312000Y56024348D01*
X116332897Y56045209D01*
X116561739Y56596323D01*
X116562260Y57193059D01*
X116334380Y57744572D01*
X115912791Y58166897D01*
X115361677Y58395739D01*
X114764941Y58396260D01*
X114213428Y58168380D01*
X113791103Y57746791D01*
X113562261Y57195677D01*
X113561835Y56707523D01*
X113372791Y56896897D01*
X112821677Y57125739D01*
X112224941Y57126260D01*
X111673428Y56898380D01*
X111251103Y56476791D01*
X111046889Y55984989D01*
X110974187Y56093795D01*
X110974260Y56177059D01*
X110746380Y56728572D01*
X110324791Y57150897D01*
X109773677Y57379739D01*
X109176941Y57380260D01*
X108776710Y57214888D01*
X108941739Y57612323D01*
X108942260Y58209059D01*
X108714380Y58760572D01*
X108692000Y58782991D01*
X108692000Y59690000D01*
X108596849Y60168354D01*
X108596849Y60168355D01*
X108325883Y60573884D01*
X106801883Y62097883D01*
X106396354Y62368849D01*
X105918000Y62464000D01*
X93426897Y62464000D01*
X93194590Y62696713D01*
X92551624Y62963696D01*
X91855431Y62964304D01*
X91211999Y62698443D01*
X90719287Y62206590D01*
X90452304Y61563624D01*
X90451696Y60867431D01*
X90717557Y60223999D01*
X91209410Y59731287D01*
X91852376Y59464304D01*
X92548569Y59463696D01*
X93192001Y59729557D01*
X93426853Y59964000D01*
X105400234Y59964000D01*
X106192000Y59172233D01*
X106192000Y58783652D01*
X106171103Y58762791D01*
X105942261Y58211677D01*
X105941740Y57614941D01*
X106169620Y57063428D01*
X106192000Y57041009D01*
X106192000Y52857545D01*
X106172005Y52837585D01*
X105922949Y53087076D01*
X105261613Y53361687D01*
X104545529Y53362312D01*
X103883714Y53088855D01*
X103376924Y52582949D01*
X103102313Y51921613D01*
X103101688Y51205529D01*
X103375145Y50543714D01*
X103881051Y50036924D01*
X104542387Y49762313D01*
X105258471Y49761688D01*
X105920286Y50035145D01*
X106171995Y50286415D01*
X106421051Y50036924D01*
X107072157Y49766561D01*
X106912313Y49381613D01*
X106912203Y49256000D01*
X89916000Y49256000D01*
X89561190Y49185424D01*
X90687767Y50312000D01*
X98526455Y50312000D01*
X98801051Y50036924D01*
X99462387Y49762313D01*
X100178471Y49761688D01*
X100840286Y50035145D01*
X101347076Y50541051D01*
X101621687Y51202387D01*
X101622312Y51918471D01*
X101348855Y52580286D01*
X100842949Y53087076D01*
X100181613Y53361687D01*
X99465529Y53362312D01*
X98803714Y53088855D01*
X98526375Y52812000D01*
X90170000Y52812000D01*
X89771010Y52732635D01*
X89691645Y52716849D01*
X89286116Y52445883D01*
X88880000Y52039767D01*
X88880000Y55220635D01*
X89240572Y55369620D01*
X89662897Y55791209D01*
X89891739Y56342323D01*
X89892260Y56939059D01*
X89664380Y57490572D01*
X89242791Y57912897D01*
X88691677Y58141739D01*
X88094941Y58142260D01*
X87543428Y57914380D01*
X87121103Y57492791D01*
X87007021Y57218050D01*
X87740519Y93012728D01*
X87788478Y92992814D01*
X88484468Y92992207D01*
X89127712Y93257989D01*
X89620281Y93749699D01*
X89887186Y94392478D01*
X89887188Y94395532D01*
X94008207Y94395532D01*
X94273989Y93752288D01*
X94765699Y93259719D01*
X95408478Y92992814D01*
X96104468Y92992207D01*
X96747712Y93257989D01*
X96982132Y93492000D01*
X102606234Y93492000D01*
X103233307Y92864926D01*
X103233307Y92568000D01*
X103285604Y92290067D01*
X103449862Y92034802D01*
X103700492Y91863554D01*
X103998000Y91803307D01*
X105298000Y91803307D01*
X105575933Y91855604D01*
X105831198Y92019862D01*
X106002446Y92270492D01*
X106062693Y92568000D01*
X106062693Y92921054D01*
X141743518Y92921054D01*
X142166160Y91898182D01*
X142948066Y91114910D01*
X143970198Y90690484D01*
X145076946Y90689518D01*
X146099818Y91112160D01*
X146883090Y91894066D01*
X147307516Y92916198D01*
X147308482Y94022946D01*
X146885840Y95045818D01*
X146103934Y95829090D01*
X145081802Y96253516D01*
X143975054Y96254482D01*
X142952182Y95831840D01*
X142168910Y95049934D01*
X141744484Y94027802D01*
X141743518Y92921054D01*
X106062693Y92921054D01*
X106062693Y93868000D01*
X106010396Y94145933D01*
X105846138Y94401198D01*
X105595508Y94572446D01*
X105298000Y94632693D01*
X105001074Y94632693D01*
X104007883Y95625883D01*
X103602354Y95896849D01*
X103124000Y95992000D01*
X96982177Y95992000D01*
X96750301Y96224281D01*
X96107522Y96491186D01*
X95411532Y96491793D01*
X94768288Y96226011D01*
X94275719Y95734301D01*
X94008814Y95091522D01*
X94008207Y94395532D01*
X89887188Y94395532D01*
X89887793Y95088468D01*
X89622011Y95731712D01*
X89130301Y96224281D01*
X88487522Y96491186D01*
X87811811Y96491775D01*
X87831405Y97448000D01*
X147880000Y97448000D01*
X147880000Y-852000D01*
M02*
