M48
METRIC,TZ
T1C0.400
T2C0.600
T3C0.800
T4C1.000
T5C1.001
T6C1.016
T7C1.500
T8C1.524
T9C2.000
T10C5.000
%
G90
G05
T1
X13078Y64453
X13332Y70041
X13586Y57849
X13840Y53531
X31112Y52261
X31874Y73343
X35176Y63945
X35430Y68263
X35430Y54547
X43558Y68517
X48130Y79439
X65656Y100521
T2
X21968Y72073
X22222Y65723
X22476Y59119
X22476Y52769
X23238Y73343
X23238Y70803
X23492Y66993
X23492Y64453
X23746Y60389
X23746Y57849
X23746Y54039
X23746Y51499
T3
X8760Y34989
X8760Y27369
X11300Y34989
X11300Y27369
X13840Y34989
X13840Y27369
X16380Y34989
X16380Y27369
X18920Y34989
X18920Y27369
X21460Y34989
X21460Y27369
X24000Y34989
X24000Y27369
X26540Y34989
X26540Y27369
T5
X4950Y40069
X12570Y40069
X17396Y21273
X27556Y21273
X46606Y18225
X54226Y18225
X68196Y81471
X68196Y73851
X68704Y54293
X68704Y46673
T6
X30350Y69533
X30350Y66993
X30350Y64453
X30350Y61913
X30350Y59373
X30350Y56833
T7
X47114Y11367
X52194Y11367
X73276Y66739
X73276Y61659
T8
X9014Y71565
X9014Y66485
X9014Y61405
X9014Y56325
X9014Y51245
X9014Y46165
X26794Y9081
X31874Y9081
X36954Y9081
T10
X30096Y116777
X50670Y116523
X73530Y93663
X73530Y37021
T4
X39300Y95569G85X39300Y89569
G05
X39300Y67375G85X39300Y61375
G05
X39300Y39181G85X39300Y33181
G05
X47300Y95569G85X47300Y89569
G05
X47300Y67375G85X47300Y61375
G05
X47300Y39181G85X47300Y33181
G05
X44700Y100969G85X50700Y100969
G05
X44700Y84169G85X50700Y84169
G05
X44700Y72775G85X50700Y72775
G05
X44700Y55975G85X50700Y55975
G05
X44700Y44581G85X50700Y44581
G05
X44700Y27781G85X50700Y27781
G05
X54200Y92569G85X60200Y92569
G05
X54200Y64375G85X60200Y64375
G05
X54200Y36181G85X60200Y36181
G05
T9
X30604Y104255G85X30604Y102755
G05
X30604Y96255G85X30604Y94755
G05
X30604Y88507G85X30604Y87007
G05
X30604Y80507G85X30604Y79007
G05
T0
M30
