M48
METRIC,TZ
T1C0.400
T2C0.600
T3C0.800
T4C1.001
T5C1.500
T6C1.524
T7C2.000
T8C5.000
%
G90
G05
T1
X14328Y47038
X14582Y52626
X14836Y40434
X15090Y36116
X44808Y51102
T2
X23218Y54658
X23472Y48308
X23726Y41704
X23726Y35354
X24488Y55928
X24488Y53388
X24742Y49578
X24742Y47038
X24996Y42974
X24996Y40434
X24996Y36624
X24996Y34084
T3
X10010Y17574
X10010Y9954
X12550Y17574
X12550Y9954
X15090Y17574
X15090Y9954
X17630Y17574
X17630Y9954
X20170Y17574
X20170Y9954
X22710Y17574
X22710Y9954
X25250Y17574
X25250Y9954
X27790Y17574
X27790Y9954
T4
X6200Y22654
X13820Y22654
X17860Y26080
X28020Y26080
T5
X33210Y37200
X33210Y21990
X33290Y29160
X33300Y57640
X33390Y43600
X33570Y50180
X34510Y8260
X34790Y14120
X38290Y37200
X38290Y21990
X38370Y29160
X38380Y57640
X38470Y43600
X38650Y50180
X39590Y8260
X39870Y14120
T6
X10264Y54150
X10264Y49070
X10264Y43990
X10264Y38910
X10264Y33830
X10264Y28750
T8
X8000Y87050
X22580Y99680
X37840Y86990
T7
X28700Y66735G85X24700Y66735
G05
X28925Y74435G85X24925Y74435
G05
X38000Y66735G85X34000Y66735
G05
X38225Y74435G85X34225Y74435
G05
T0
M30
