G04 #@! TF.FileFunction,Profile,NP*
%FSLAX46Y46*%
G04 Gerber Fmt 4.6, Leading zero omitted, Abs format (unit mm)*
G04 Created by KiCad (PCBNEW 4.0.6) date Monday, 02 August 2021 'AMt' 08:10:13*
%MOMM*%
%LPD*%
G01*
G04 APERTURE LIST*
%ADD10C,0.100000*%
%ADD11C,0.150000*%
G04 APERTURE END LIST*
D10*
D11*
X12725022Y96586000D02*
G75*
G03X12725022Y96586000I-1545022J0D01*
G01*
X13267764Y34610000D02*
G75*
G03X13267764Y34610000I-2341764J0D01*
G01*
X32975803Y13020000D02*
G75*
G03X32975803Y13020000I-1983803J0D01*
G01*
X54716394Y12766000D02*
G75*
G03X54716394Y12766000I-1626394J0D01*
G01*
X75090406Y34610000D02*
G75*
G03X75090406Y34610000I-1934406J0D01*
G01*
X74782394Y96586000D02*
G75*
G03X74782394Y96586000I-1626394J0D01*
G01*
X32473062Y117922000D02*
G75*
G03X32473062Y117922000I-1481062J0D01*
G01*
X54360000Y118176000D02*
G75*
G03X54360000Y118176000I-1270000J0D01*
G01*
X71124000Y22164000D02*
X81030000Y22164000D01*
X3052000Y108270000D02*
X3052000Y22418000D01*
X3052000Y22418000D02*
X13212000Y22418000D01*
X71124000Y22164000D02*
G75*
G03X61980000Y13020000I0J-9144000D01*
G01*
X22102000Y13020000D02*
G75*
G03X13212000Y22418000I-9144000J254000D01*
G01*
X12704000Y108270000D02*
G75*
G03X22102000Y117160000I254000J9144000D01*
G01*
X61980000Y117922000D02*
G75*
G03X70616000Y108270000I9144000J-508000D01*
G01*
X81030000Y108270000D02*
X81030000Y22164000D01*
X14228000Y68392000D02*
X14228000Y58486000D01*
X11434000Y61026000D02*
X11688000Y60772000D01*
X61980000Y13274000D02*
X61980000Y3368000D01*
X61980000Y3368000D02*
X21848000Y3368000D01*
X61980000Y13528000D02*
X61980000Y3368000D01*
X61980000Y3368000D02*
X22102000Y3368000D01*
X22102000Y3368000D02*
X22102000Y13274000D01*
X22102000Y117160000D02*
X22102000Y127320000D01*
X21848000Y127320000D02*
X61980000Y127320000D01*
X61980000Y127320000D02*
X61980000Y117414000D01*
X12958000Y108270000D02*
X3052000Y108270000D01*
X70616000Y108270000D02*
X81030000Y108270000D01*
X81030000Y108270000D02*
X81030000Y108524000D01*
M02*
