M48
METRIC,TZ
T1C0.700
T2C0.762
T3C0.800
T4C1.000
T5C1.001
T6C1.524
T7C3.048
%
G90
G05
T1
X13208Y36068
X16510Y13716
X17018Y23876
X24130Y53086
X41656Y28956
X46736Y26162
X46736Y20574
X56134Y20574
X59436Y46482
X61976Y28702
X62230Y42164
X64008Y38354
X68834Y31242
X74168Y28956
X74930Y47752
X74930Y43688
X75184Y24638
X76454Y37084
X79756Y23622
T2
X41656Y49022
X41656Y41402
X41656Y38862
X41656Y36322
X41656Y33782
X44196Y49022
X44196Y33782
X46736Y49022
X46736Y33782
X49276Y49022
X49276Y33782
X51816Y49022
X51816Y33782
X54356Y49022
X54356Y33782
X56896Y49022
X58166Y36322
X59436Y49022
X59436Y33782
X60706Y36322
X61976Y49022
X61976Y33782
X64516Y49022
X64516Y33782
X67056Y49022
X67056Y33782
X69596Y49022
X69596Y33782
T3
X18344Y39370
X21844Y39370
X24638Y15414
X24638Y10414
X65024Y17780
X65024Y15240
X65024Y12700
X65024Y10160
X72644Y17780
X72644Y15240
X72644Y12700
X72644Y10160
T4
X44196Y23368
X44196Y20828
X44196Y18288
X44196Y15748
X44196Y13208
X44196Y10668
X44196Y8128
X56896Y33782
T5
X12954Y50292
X20574Y50292
X22860Y31750
X30480Y31750
T6
X7620Y49022
X7620Y43942
X7620Y38862
X13208Y18542
X13208Y13462
X86106Y48514
X86106Y43434
X86106Y38354
X86106Y33274
X86106Y28194
X86106Y23114
X86106Y18034
X86106Y12954
X86106Y7874
T7
X4064Y53340
X4064Y3810
X93980Y4064
X94234Y53340
T0
M30
