G04 #@! TF.FileFunction,Copper,L1,Top,Signal*
%FSLAX46Y46*%
G04 Gerber Fmt 4.6, Leading zero omitted, Abs format (unit mm)*
G04 Created by KiCad (PCBNEW 4.0.6) date Saturday, 02 October 2021 'AMt' 11:31:50*
%MOMM*%
%LPD*%
G01*
G04 APERTURE LIST*
%ADD10C,0.100000*%
%ADD11C,0.300000*%
%ADD12R,3.810000X3.810000*%
%ADD13C,3.810000*%
%ADD14R,1.250000X1.500000*%
%ADD15C,1.300000*%
%ADD16R,1.300000X1.300000*%
%ADD17R,3.600000X3.200000*%
%ADD18R,1.300000X1.500000*%
%ADD19C,1.998980*%
%ADD20R,3.200000X3.600000*%
%ADD21R,3.200000X2.600000*%
%ADD22R,0.900000X1.200000*%
%ADD23R,1.200000X0.900000*%
%ADD24O,8.000000X3.000000*%
%ADD25C,3.000000*%
%ADD26O,3.000000X8.000000*%
%ADD27R,0.800000X1.900000*%
%ADD28R,1.500000X1.300000*%
%ADD29C,1.524000*%
%ADD30O,1.600000X2.300000*%
%ADD31R,3.800000X2.000000*%
%ADD32R,1.500000X2.000000*%
%ADD33R,0.650000X1.560000*%
%ADD34R,0.610000X1.270000*%
%ADD35R,0.610000X1.020000*%
%ADD36R,3.910000X3.810000*%
%ADD37C,3.540760*%
%ADD38R,3.540760X3.540760*%
%ADD39R,1.220000X0.910000*%
%ADD40C,2.000000*%
%ADD41R,4.600000X1.390000*%
%ADD42R,9.400000X10.800000*%
%ADD43C,2.100000*%
%ADD44C,4.064000*%
%ADD45C,3.800000*%
%ADD46R,3.500000X3.000000*%
%ADD47C,1.500000*%
%ADD48C,4.000000*%
%ADD49C,1.000000*%
%ADD50C,0.500000*%
%ADD51C,2.000000*%
%ADD52C,0.750000*%
G04 APERTURE END LIST*
D10*
D11*
X141323143Y-1003714D02*
X141394571Y-789428D01*
X141394571Y-432285D01*
X141323143Y-289428D01*
X141251714Y-217999D01*
X141108857Y-146571D01*
X140966000Y-146571D01*
X140823143Y-217999D01*
X140751714Y-289428D01*
X140680286Y-432285D01*
X140608857Y-717999D01*
X140537429Y-860857D01*
X140466000Y-932285D01*
X140323143Y-1003714D01*
X140180286Y-1003714D01*
X140037429Y-932285D01*
X139966000Y-860857D01*
X139894571Y-717999D01*
X139894571Y-360857D01*
X139966000Y-146571D01*
X141323143Y1067714D02*
X141394571Y924857D01*
X141394571Y639143D01*
X141323143Y496286D01*
X141180286Y424857D01*
X140608857Y424857D01*
X140466000Y496286D01*
X140394571Y639143D01*
X140394571Y924857D01*
X140466000Y1067714D01*
X140608857Y1139143D01*
X140751714Y1139143D01*
X140894571Y424857D01*
X141394571Y1782000D02*
X140394571Y1782000D01*
X140680286Y1782000D02*
X140537429Y1853428D01*
X140466000Y1924857D01*
X140394571Y2067714D01*
X140394571Y2210571D01*
X140394571Y2567714D02*
X141394571Y2924857D01*
X140394571Y3281999D01*
X140823143Y3853428D02*
X140823143Y4996285D01*
X141394571Y4424856D02*
X140251714Y4424856D01*
X136314571Y2444858D02*
X136314571Y1587715D01*
X136314571Y2016287D02*
X134814571Y2016287D01*
X135028857Y1873430D01*
X135171714Y1730572D01*
X135243143Y1587715D01*
X134957429Y3016286D02*
X134886000Y3087715D01*
X134814571Y3230572D01*
X134814571Y3587715D01*
X134886000Y3730572D01*
X134957429Y3802001D01*
X135100286Y3873429D01*
X135243143Y3873429D01*
X135457429Y3802001D01*
X136314571Y2944858D01*
X136314571Y3873429D01*
X135314571Y4373429D02*
X136314571Y4730572D01*
X135314571Y5087714D01*
X130377429Y2079715D02*
X130306000Y1936857D01*
X130234571Y1865429D01*
X130091714Y1794000D01*
X130020286Y1794000D01*
X129877429Y1865429D01*
X129806000Y1936857D01*
X129734571Y2079715D01*
X129734571Y2365429D01*
X129806000Y2508286D01*
X129877429Y2579715D01*
X130020286Y2651143D01*
X130091714Y2651143D01*
X130234571Y2579715D01*
X130306000Y2508286D01*
X130377429Y2365429D01*
X130377429Y2079715D01*
X130448857Y1936857D01*
X130520286Y1865429D01*
X130663143Y1794000D01*
X130948857Y1794000D01*
X131091714Y1865429D01*
X131163143Y1936857D01*
X131234571Y2079715D01*
X131234571Y2365429D01*
X131163143Y2508286D01*
X131091714Y2579715D01*
X130948857Y2651143D01*
X130663143Y2651143D01*
X130520286Y2579715D01*
X130448857Y2508286D01*
X130377429Y2365429D01*
X130234571Y3151143D02*
X131234571Y3508286D01*
X130234571Y3865428D01*
X125368857Y1623429D02*
X125368857Y1123429D01*
X126154571Y1123429D02*
X124654571Y1123429D01*
X124654571Y1837715D01*
X126154571Y2623429D02*
X126083143Y2480571D01*
X125940286Y2409143D01*
X124654571Y2409143D01*
X125154571Y3052000D02*
X126154571Y3409143D01*
X125154571Y3766285D02*
X126154571Y3409143D01*
X126511714Y3266285D01*
X126583143Y3194857D01*
X126654571Y3052000D01*
X125583143Y4337714D02*
X125583143Y5480571D01*
X120288857Y1623429D02*
X120288857Y1123429D01*
X121074571Y1123429D02*
X119574571Y1123429D01*
X119574571Y1837715D01*
X121074571Y2623429D02*
X121003143Y2480571D01*
X120860286Y2409143D01*
X119574571Y2409143D01*
X120074571Y3052000D02*
X121074571Y3409143D01*
X120074571Y3766285D02*
X121074571Y3409143D01*
X121431714Y3266285D01*
X121503143Y3194857D01*
X121574571Y3052000D01*
X120503143Y4337714D02*
X120503143Y5480571D01*
X121074571Y4909142D02*
X119931714Y4909142D01*
X115566000Y444857D02*
X115566000Y1159143D01*
X115994571Y302000D02*
X114494571Y802000D01*
X115994571Y1302000D01*
X115994571Y2016286D02*
X115923143Y1873428D01*
X115780286Y1802000D01*
X114494571Y1802000D01*
X114994571Y2373428D02*
X114994571Y2944857D01*
X114494571Y2587714D02*
X115780286Y2587714D01*
X115923143Y2659142D01*
X115994571Y2802000D01*
X115994571Y2944857D01*
X115208857Y3944857D02*
X115280286Y4159143D01*
X115351714Y4230571D01*
X115494571Y4302000D01*
X115708857Y4302000D01*
X115851714Y4230571D01*
X115923143Y4159143D01*
X115994571Y4016285D01*
X115994571Y3444857D01*
X114494571Y3444857D01*
X114494571Y3944857D01*
X114566000Y4087714D01*
X114637429Y4159143D01*
X114780286Y4230571D01*
X114923143Y4230571D01*
X115066000Y4159143D01*
X115137429Y4087714D01*
X115208857Y3944857D01*
X115208857Y3444857D01*
X115423143Y4944857D02*
X115423143Y6087714D01*
X115994571Y5516285D02*
X114851714Y5516285D01*
X100754571Y329715D02*
X99254571Y329715D01*
X100754571Y1186858D01*
X99254571Y1186858D01*
X99254571Y1686858D02*
X99254571Y2544001D01*
X100754571Y2115430D02*
X99254571Y2115430D01*
X100611714Y3901144D02*
X100683143Y3829715D01*
X100754571Y3615429D01*
X100754571Y3472572D01*
X100683143Y3258287D01*
X100540286Y3115429D01*
X100397429Y3044001D01*
X100111714Y2972572D01*
X99897429Y2972572D01*
X99611714Y3044001D01*
X99468857Y3115429D01*
X99326000Y3258287D01*
X99254571Y3472572D01*
X99254571Y3615429D01*
X99326000Y3829715D01*
X99397429Y3901144D01*
X99254571Y4401144D02*
X99254571Y5329715D01*
X99826000Y4829715D01*
X99826000Y5044001D01*
X99897429Y5186858D01*
X99968857Y5258287D01*
X100111714Y5329715D01*
X100468857Y5329715D01*
X100611714Y5258287D01*
X100683143Y5186858D01*
X100754571Y5044001D01*
X100754571Y4615429D01*
X100683143Y4472572D01*
X100611714Y4401144D01*
X105834571Y583715D02*
X104334571Y583715D01*
X105834571Y1440858D01*
X104334571Y1440858D01*
X104334571Y1940858D02*
X104334571Y2798001D01*
X105834571Y2369430D02*
X104334571Y2369430D01*
X105691714Y4155144D02*
X105763143Y4083715D01*
X105834571Y3869429D01*
X105834571Y3726572D01*
X105763143Y3512287D01*
X105620286Y3369429D01*
X105477429Y3298001D01*
X105191714Y3226572D01*
X104977429Y3226572D01*
X104691714Y3298001D01*
X104548857Y3369429D01*
X104406000Y3512287D01*
X104334571Y3726572D01*
X104334571Y3869429D01*
X104406000Y4083715D01*
X104477429Y4155144D01*
X104477429Y4726572D02*
X104406000Y4798001D01*
X104334571Y4940858D01*
X104334571Y5298001D01*
X104406000Y5440858D01*
X104477429Y5512287D01*
X104620286Y5583715D01*
X104763143Y5583715D01*
X104977429Y5512287D01*
X105834571Y4655144D01*
X105834571Y5583715D01*
X111168571Y583715D02*
X109668571Y583715D01*
X111168571Y1440858D01*
X109668571Y1440858D01*
X109668571Y1940858D02*
X109668571Y2798001D01*
X111168571Y2369430D02*
X109668571Y2369430D01*
X111025714Y4155144D02*
X111097143Y4083715D01*
X111168571Y3869429D01*
X111168571Y3726572D01*
X111097143Y3512287D01*
X110954286Y3369429D01*
X110811429Y3298001D01*
X110525714Y3226572D01*
X110311429Y3226572D01*
X110025714Y3298001D01*
X109882857Y3369429D01*
X109740000Y3512287D01*
X109668571Y3726572D01*
X109668571Y3869429D01*
X109740000Y4083715D01*
X109811429Y4155144D01*
X111168571Y5583715D02*
X111168571Y4726572D01*
X111168571Y5155144D02*
X109668571Y5155144D01*
X109882857Y5012287D01*
X110025714Y4869429D01*
X110097143Y4726572D01*
X89300857Y619429D02*
X89300857Y119429D01*
X90086571Y119429D02*
X88586571Y119429D01*
X88586571Y833715D01*
X89086571Y2048000D02*
X90086571Y2048000D01*
X89086571Y1405143D02*
X89872286Y1405143D01*
X90015143Y1476571D01*
X90086571Y1619429D01*
X90086571Y1833714D01*
X90015143Y1976571D01*
X89943714Y2048000D01*
X90015143Y3333714D02*
X90086571Y3190857D01*
X90086571Y2905143D01*
X90015143Y2762286D01*
X89872286Y2690857D01*
X89300857Y2690857D01*
X89158000Y2762286D01*
X89086571Y2905143D01*
X89086571Y3190857D01*
X89158000Y3333714D01*
X89300857Y3405143D01*
X89443714Y3405143D01*
X89586571Y2690857D01*
X90086571Y4262286D02*
X90015143Y4119428D01*
X89872286Y4048000D01*
X88586571Y4048000D01*
X89515143Y4833714D02*
X89515143Y5976571D01*
X90086571Y5405142D02*
X88943714Y5405142D01*
X93920571Y1643143D02*
X93920571Y1786000D01*
X93992000Y1928857D01*
X94063429Y2000286D01*
X94206286Y2071715D01*
X94492000Y2143143D01*
X94849143Y2143143D01*
X95134857Y2071715D01*
X95277714Y2000286D01*
X95349143Y1928857D01*
X95420571Y1786000D01*
X95420571Y1643143D01*
X95349143Y1500286D01*
X95277714Y1428857D01*
X95134857Y1357429D01*
X94849143Y1286000D01*
X94492000Y1286000D01*
X94206286Y1357429D01*
X94063429Y1428857D01*
X93992000Y1500286D01*
X93920571Y1643143D01*
X94420571Y2643143D02*
X95420571Y3000286D01*
X94420571Y3357428D01*
X83506571Y298000D02*
X83506571Y1155143D01*
X85006571Y726572D02*
X83506571Y726572D01*
X84935143Y2226571D02*
X85006571Y2083714D01*
X85006571Y1798000D01*
X84935143Y1655143D01*
X84792286Y1583714D01*
X84220857Y1583714D01*
X84078000Y1655143D01*
X84006571Y1798000D01*
X84006571Y2083714D01*
X84078000Y2226571D01*
X84220857Y2298000D01*
X84363714Y2298000D01*
X84506571Y1583714D01*
X85006571Y2940857D02*
X84006571Y2940857D01*
X84149429Y2940857D02*
X84078000Y3012285D01*
X84006571Y3155143D01*
X84006571Y3369428D01*
X84078000Y3512285D01*
X84220857Y3583714D01*
X85006571Y3583714D01*
X84220857Y3583714D02*
X84078000Y3655143D01*
X84006571Y3798000D01*
X84006571Y4012285D01*
X84078000Y4155143D01*
X84220857Y4226571D01*
X85006571Y4226571D01*
X84006571Y4940857D02*
X85506571Y4940857D01*
X84078000Y4940857D02*
X84006571Y5083714D01*
X84006571Y5369428D01*
X84078000Y5512285D01*
X84149429Y5583714D01*
X84292286Y5655143D01*
X84720857Y5655143D01*
X84863714Y5583714D01*
X84935143Y5512285D01*
X85006571Y5369428D01*
X85006571Y5083714D01*
X84935143Y4940857D01*
X63694571Y627143D02*
X63694571Y770000D01*
X63766000Y912857D01*
X63837429Y984286D01*
X63980286Y1055715D01*
X64266000Y1127143D01*
X64623143Y1127143D01*
X64908857Y1055715D01*
X65051714Y984286D01*
X65123143Y912857D01*
X65194571Y770000D01*
X65194571Y627143D01*
X65123143Y484286D01*
X65051714Y412857D01*
X64908857Y341429D01*
X64623143Y270000D01*
X64266000Y270000D01*
X63980286Y341429D01*
X63837429Y412857D01*
X63766000Y484286D01*
X63694571Y627143D01*
X64194571Y1627143D02*
X65194571Y1984286D01*
X64194571Y2341428D01*
X59860571Y1357429D02*
X59860571Y500286D01*
X59860571Y928858D02*
X58360571Y928858D01*
X58574857Y786001D01*
X58717714Y643143D01*
X58789143Y500286D01*
X58503429Y1928857D02*
X58432000Y2000286D01*
X58360571Y2143143D01*
X58360571Y2500286D01*
X58432000Y2643143D01*
X58503429Y2714572D01*
X58646286Y2786000D01*
X58789143Y2786000D01*
X59003429Y2714572D01*
X59860571Y1857429D01*
X59860571Y2786000D01*
X58360571Y3214571D02*
X59860571Y3714571D01*
X58360571Y4214571D01*
X53280571Y298000D02*
X53280571Y1155143D01*
X54780571Y726572D02*
X53280571Y726572D01*
X54709143Y2226571D02*
X54780571Y2083714D01*
X54780571Y1798000D01*
X54709143Y1655143D01*
X54566286Y1583714D01*
X53994857Y1583714D01*
X53852000Y1655143D01*
X53780571Y1798000D01*
X53780571Y2083714D01*
X53852000Y2226571D01*
X53994857Y2298000D01*
X54137714Y2298000D01*
X54280571Y1583714D01*
X54780571Y2940857D02*
X53780571Y2940857D01*
X53923429Y2940857D02*
X53852000Y3012285D01*
X53780571Y3155143D01*
X53780571Y3369428D01*
X53852000Y3512285D01*
X53994857Y3583714D01*
X54780571Y3583714D01*
X53994857Y3583714D02*
X53852000Y3655143D01*
X53780571Y3798000D01*
X53780571Y4012285D01*
X53852000Y4155143D01*
X53994857Y4226571D01*
X54780571Y4226571D01*
X53780571Y4940857D02*
X55280571Y4940857D01*
X53852000Y4940857D02*
X53780571Y5083714D01*
X53780571Y5369428D01*
X53852000Y5512285D01*
X53923429Y5583714D01*
X54066286Y5655143D01*
X54494857Y5655143D01*
X54637714Y5583714D01*
X54709143Y5512285D01*
X54780571Y5369428D01*
X54780571Y5083714D01*
X54709143Y4940857D01*
X48660857Y-352857D02*
X48732286Y-138571D01*
X48803714Y-67143D01*
X48946571Y4286D01*
X49160857Y4286D01*
X49303714Y-67143D01*
X49375143Y-138571D01*
X49446571Y-281429D01*
X49446571Y-852857D01*
X47946571Y-852857D01*
X47946571Y-352857D01*
X48018000Y-210000D01*
X48089429Y-138571D01*
X48232286Y-67143D01*
X48375143Y-67143D01*
X48518000Y-138571D01*
X48589429Y-210000D01*
X48660857Y-352857D01*
X48660857Y-852857D01*
X48446571Y1290000D02*
X49446571Y1290000D01*
X48446571Y647143D02*
X49232286Y647143D01*
X49375143Y718571D01*
X49446571Y861429D01*
X49446571Y1075714D01*
X49375143Y1218571D01*
X49303714Y1290000D01*
X48446571Y1861429D02*
X48446571Y2647143D01*
X49446571Y1861429D01*
X49446571Y2647143D01*
X48446571Y3075715D02*
X48446571Y3861429D01*
X49446571Y3075715D01*
X49446571Y3861429D01*
X49375143Y5004286D02*
X49446571Y4861429D01*
X49446571Y4575715D01*
X49375143Y4432858D01*
X49232286Y4361429D01*
X48660857Y4361429D01*
X48518000Y4432858D01*
X48446571Y4575715D01*
X48446571Y4861429D01*
X48518000Y5004286D01*
X48660857Y5075715D01*
X48803714Y5075715D01*
X48946571Y4361429D01*
X49446571Y5718572D02*
X48446571Y5718572D01*
X48732286Y5718572D02*
X48589429Y5790000D01*
X48518000Y5861429D01*
X48446571Y6004286D01*
X48446571Y6147143D01*
X43120571Y1139143D02*
X43120571Y1424857D01*
X43192000Y1567715D01*
X43334857Y1710572D01*
X43620571Y1782000D01*
X44120571Y1782000D01*
X44406286Y1710572D01*
X44549143Y1567715D01*
X44620571Y1424857D01*
X44620571Y1139143D01*
X44549143Y996286D01*
X44406286Y853429D01*
X44120571Y782000D01*
X43620571Y782000D01*
X43334857Y853429D01*
X43192000Y996286D01*
X43120571Y1139143D01*
X44620571Y2424858D02*
X43620571Y2424858D01*
X43120571Y2424858D02*
X43192000Y2353429D01*
X43263429Y2424858D01*
X43192000Y2496286D01*
X43120571Y2424858D01*
X43263429Y2424858D01*
X44620571Y3353430D02*
X44549143Y3210572D01*
X44406286Y3139144D01*
X43120571Y3139144D01*
X39112000Y75714D02*
X39112000Y790000D01*
X39540571Y-67143D02*
X38040571Y432857D01*
X39540571Y932857D01*
X39540571Y1647143D02*
X39469143Y1504285D01*
X39326286Y1432857D01*
X38040571Y1432857D01*
X38540571Y2004285D02*
X38540571Y2575714D01*
X38040571Y2218571D02*
X39326286Y2218571D01*
X39469143Y2289999D01*
X39540571Y2432857D01*
X39540571Y2575714D01*
X38754857Y3075714D02*
X38754857Y3575714D01*
X39540571Y3790000D02*
X39540571Y3075714D01*
X38040571Y3075714D01*
X38040571Y3790000D01*
X39540571Y4290000D02*
X38540571Y5075714D01*
X38540571Y4290000D02*
X39540571Y5075714D01*
X21784571Y1897143D02*
X21784571Y2040000D01*
X21856000Y2182857D01*
X21927429Y2254286D01*
X22070286Y2325715D01*
X22356000Y2397143D01*
X22713143Y2397143D01*
X22998857Y2325715D01*
X23141714Y2254286D01*
X23213143Y2182857D01*
X23284571Y2040000D01*
X23284571Y1897143D01*
X23213143Y1754286D01*
X23141714Y1682857D01*
X22998857Y1611429D01*
X22713143Y1540000D01*
X22356000Y1540000D01*
X22070286Y1611429D01*
X21927429Y1682857D01*
X21856000Y1754286D01*
X21784571Y1897143D01*
X22284571Y2897143D02*
X23284571Y3254286D01*
X22284571Y3611428D01*
X16450571Y-710001D02*
X16450571Y-424287D01*
X16522000Y-281429D01*
X16664857Y-138572D01*
X16950571Y-67144D01*
X17450571Y-67144D01*
X17736286Y-138572D01*
X17879143Y-281429D01*
X17950571Y-424287D01*
X17950571Y-710001D01*
X17879143Y-852858D01*
X17736286Y-995715D01*
X17450571Y-1067144D01*
X16950571Y-1067144D01*
X16664857Y-995715D01*
X16522000Y-852858D01*
X16450571Y-710001D01*
X16950571Y575714D02*
X17950571Y575714D01*
X17093429Y575714D02*
X17022000Y647142D01*
X16950571Y790000D01*
X16950571Y1004285D01*
X17022000Y1147142D01*
X17164857Y1218571D01*
X17950571Y1218571D01*
X16379143Y3004285D02*
X18307714Y1718571D01*
X16450571Y3790000D02*
X16450571Y4075714D01*
X16522000Y4218572D01*
X16664857Y4361429D01*
X16950571Y4432857D01*
X17450571Y4432857D01*
X17736286Y4361429D01*
X17879143Y4218572D01*
X17950571Y4075714D01*
X17950571Y3790000D01*
X17879143Y3647143D01*
X17736286Y3504286D01*
X17450571Y3432857D01*
X16950571Y3432857D01*
X16664857Y3504286D01*
X16522000Y3647143D01*
X16450571Y3790000D01*
X16950571Y4861429D02*
X16950571Y5432858D01*
X17950571Y5075715D02*
X16664857Y5075715D01*
X16522000Y5147143D01*
X16450571Y5290001D01*
X16450571Y5432858D01*
X16950571Y5718572D02*
X16950571Y6290001D01*
X17950571Y5932858D02*
X16664857Y5932858D01*
X16522000Y6004286D01*
X16450571Y6147144D01*
X16450571Y6290001D01*
X13053143Y365429D02*
X13124571Y579715D01*
X13124571Y936858D01*
X13053143Y1079715D01*
X12981714Y1151144D01*
X12838857Y1222572D01*
X12696000Y1222572D01*
X12553143Y1151144D01*
X12481714Y1079715D01*
X12410286Y936858D01*
X12338857Y651144D01*
X12267429Y508286D01*
X12196000Y436858D01*
X12053143Y365429D01*
X11910286Y365429D01*
X11767429Y436858D01*
X11696000Y508286D01*
X11624571Y651144D01*
X11624571Y1008286D01*
X11696000Y1222572D01*
X12124571Y1651143D02*
X12124571Y2222572D01*
X11624571Y1865429D02*
X12910286Y1865429D01*
X13053143Y1936857D01*
X13124571Y2079715D01*
X13124571Y2222572D01*
X13124571Y3365429D02*
X12338857Y3365429D01*
X12196000Y3294000D01*
X12124571Y3151143D01*
X12124571Y2865429D01*
X12196000Y2722572D01*
X13053143Y3365429D02*
X13124571Y3222572D01*
X13124571Y2865429D01*
X13053143Y2722572D01*
X12910286Y2651143D01*
X12767429Y2651143D01*
X12624571Y2722572D01*
X12553143Y2865429D01*
X12553143Y3222572D01*
X12481714Y3365429D01*
X13124571Y4079715D02*
X12124571Y4079715D01*
X12410286Y4079715D02*
X12267429Y4151143D01*
X12196000Y4222572D01*
X12124571Y4365429D01*
X12124571Y4508286D01*
X12124571Y4794000D02*
X12124571Y5365429D01*
X11624571Y5008286D02*
X12910286Y5008286D01*
X13053143Y5079714D01*
X13124571Y5222572D01*
X13124571Y5365429D01*
X6362000Y1329714D02*
X6290571Y1186857D01*
X6290571Y972571D01*
X6362000Y758286D01*
X6504857Y615428D01*
X6647714Y544000D01*
X6933429Y472571D01*
X7147714Y472571D01*
X7433429Y544000D01*
X7576286Y615428D01*
X7719143Y758286D01*
X7790571Y972571D01*
X7790571Y1115428D01*
X7719143Y1329714D01*
X7647714Y1401143D01*
X7147714Y1401143D01*
X7147714Y1115428D01*
X7790571Y2258286D02*
X7719143Y2115428D01*
X7576286Y2044000D01*
X6290571Y2044000D01*
X7790571Y3044000D02*
X7719143Y2901142D01*
X7647714Y2829714D01*
X7504857Y2758285D01*
X7076286Y2758285D01*
X6933429Y2829714D01*
X6862000Y2901142D01*
X6790571Y3044000D01*
X6790571Y3258285D01*
X6862000Y3401142D01*
X6933429Y3472571D01*
X7076286Y3544000D01*
X7504857Y3544000D01*
X7647714Y3472571D01*
X7719143Y3401142D01*
X7790571Y3258285D01*
X7790571Y3044000D01*
X6790571Y4044000D02*
X7790571Y4329714D01*
X7076286Y4615428D01*
X7790571Y4901143D01*
X6790571Y5186857D01*
X-436286Y4472857D02*
X-222000Y4401429D01*
X135143Y4401429D01*
X278000Y4472857D01*
X349429Y4544286D01*
X420857Y4687143D01*
X420857Y4830000D01*
X349429Y4972857D01*
X278000Y5044286D01*
X135143Y5115714D01*
X-150571Y5187143D01*
X-293429Y5258571D01*
X-364857Y5330000D01*
X-436286Y5472857D01*
X-436286Y5615714D01*
X-364857Y5758571D01*
X-293429Y5830000D01*
X-150571Y5901429D01*
X206571Y5901429D01*
X420857Y5830000D01*
X849428Y5401429D02*
X1420857Y5401429D01*
X1063714Y5901429D02*
X1063714Y4615714D01*
X1135142Y4472857D01*
X1278000Y4401429D01*
X1420857Y4401429D01*
X2135143Y4401429D02*
X1992285Y4472857D01*
X1920857Y4544286D01*
X1849428Y4687143D01*
X1849428Y5115714D01*
X1920857Y5258571D01*
X1992285Y5330000D01*
X2135143Y5401429D01*
X2349428Y5401429D01*
X2492285Y5330000D01*
X2563714Y5258571D01*
X2635143Y5115714D01*
X2635143Y4687143D01*
X2563714Y4544286D01*
X2492285Y4472857D01*
X2349428Y4401429D01*
X2135143Y4401429D01*
X3278000Y5401429D02*
X3278000Y3901429D01*
X3278000Y5330000D02*
X3420857Y5401429D01*
X3706571Y5401429D01*
X3849428Y5330000D01*
X3920857Y5258571D01*
X3992286Y5115714D01*
X3992286Y4687143D01*
X3920857Y4544286D01*
X3849428Y4472857D01*
X3706571Y4401429D01*
X3420857Y4401429D01*
X3278000Y4472857D01*
D12*
X130556000Y8890000D03*
D13*
X135636000Y8890000D03*
X140716000Y8890000D03*
D12*
X115316000Y8890000D03*
D13*
X120396000Y8890000D03*
X125476000Y8890000D03*
D12*
X100076000Y8890000D03*
D13*
X105156000Y8890000D03*
X110236000Y8890000D03*
D12*
X84582000Y8890000D03*
D13*
X89662000Y8890000D03*
X94742000Y8890000D03*
D14*
X76708000Y26142000D03*
X76708000Y23642000D03*
D15*
X25400000Y29916000D03*
D16*
X25400000Y26416000D03*
D15*
X31186000Y10414000D03*
D16*
X27686000Y10414000D03*
D17*
X39660000Y29718000D03*
X31460000Y29718000D03*
D18*
X51562000Y23702000D03*
X51562000Y21002000D03*
D19*
X31496000Y35052000D03*
X39116000Y35052000D03*
D18*
X63500000Y23956000D03*
X63500000Y21256000D03*
X57404000Y23702000D03*
X57404000Y21002000D03*
D20*
X71628000Y74640000D03*
X71628000Y82840000D03*
D21*
X38354000Y16212000D03*
X38354000Y23412000D03*
D20*
X8890000Y74640000D03*
X8890000Y82840000D03*
D22*
X57278000Y70612000D03*
X60578000Y70612000D03*
D20*
X55118000Y74894000D03*
X55118000Y83094000D03*
D18*
X78740000Y63326000D03*
X78740000Y60626000D03*
D20*
X39116000Y76418000D03*
X39116000Y84618000D03*
D23*
X57658000Y68452000D03*
X57658000Y65152000D03*
X41148000Y68198000D03*
X41148000Y64898000D03*
X25146000Y68452000D03*
X25146000Y65152000D03*
X0Y68706000D03*
X0Y65406000D03*
D13*
X7366000Y9906000D03*
X12446000Y9906000D03*
D12*
X2286000Y9906000D03*
D13*
X17526000Y9906000D03*
X22606000Y9906000D03*
X43942000Y9652000D03*
X49022000Y9652000D03*
D12*
X38862000Y9652000D03*
D13*
X54102000Y9652000D03*
X59182000Y9652000D03*
X64262000Y9652000D03*
D24*
X31242000Y55118000D03*
D25*
X33782000Y55118000D03*
X28702000Y55118000D03*
D24*
X52324000Y55372000D03*
D25*
X49784000Y55372000D03*
X54864000Y55372000D03*
D26*
X73660000Y61214000D03*
D25*
X73660000Y63754000D03*
X73660000Y58674000D03*
D24*
X10668000Y54864000D03*
D25*
X8128000Y54864000D03*
X13208000Y54864000D03*
D27*
X48834000Y29742000D03*
X50734000Y29742000D03*
X49784000Y32742000D03*
X18354000Y25678000D03*
X20254000Y25678000D03*
X19304000Y28678000D03*
X61280000Y29742000D03*
X63180000Y29742000D03*
X62230000Y32742000D03*
X55184000Y29742000D03*
X57084000Y29742000D03*
X56134000Y32742000D03*
X1844000Y23392000D03*
X3744000Y23392000D03*
X2794000Y26392000D03*
X12512000Y23138000D03*
X14412000Y23138000D03*
X13462000Y26138000D03*
X6924000Y23392000D03*
X8824000Y23392000D03*
X7874000Y26392000D03*
D18*
X18034000Y20240000D03*
X18034000Y22940000D03*
X70866000Y20146000D03*
X70866000Y17446000D03*
D28*
X51134000Y26416000D03*
X48434000Y26416000D03*
D18*
X74168000Y26242000D03*
X74168000Y23542000D03*
X70866000Y25734000D03*
X70866000Y23034000D03*
X49022000Y18622000D03*
X49022000Y15922000D03*
D19*
X44704000Y16002000D03*
X44704000Y36002000D03*
D18*
X20320000Y20240000D03*
X20320000Y22940000D03*
X59944000Y65452000D03*
X59944000Y68152000D03*
D28*
X18208000Y32258000D03*
X20908000Y32258000D03*
D18*
X51562000Y18622000D03*
X51562000Y15922000D03*
D28*
X68246000Y27940000D03*
X70946000Y27940000D03*
D18*
X43434000Y67644000D03*
X43434000Y64944000D03*
X2286000Y65706000D03*
X2286000Y68406000D03*
X2540000Y19384000D03*
X2540000Y16684000D03*
X63500000Y15922000D03*
X63500000Y18622000D03*
X60960000Y15922000D03*
X60960000Y18622000D03*
D28*
X60880000Y26670000D03*
X63580000Y26670000D03*
D18*
X57404000Y18622000D03*
X57404000Y15922000D03*
X54864000Y18622000D03*
X54864000Y15922000D03*
D28*
X54784000Y26416000D03*
X57484000Y26416000D03*
D18*
X76708000Y17700000D03*
X76708000Y20400000D03*
X78740000Y57738000D03*
X78740000Y55038000D03*
X7366000Y19384000D03*
X7366000Y16684000D03*
D28*
X40560000Y72644000D03*
X43260000Y72644000D03*
D18*
X27432000Y65452000D03*
X27432000Y68152000D03*
X0Y78566000D03*
X0Y75866000D03*
X25400000Y78058000D03*
X25400000Y75358000D03*
X12446000Y19130000D03*
X12446000Y16430000D03*
X2794000Y32084000D03*
X2794000Y29384000D03*
X13462000Y32338000D03*
X13462000Y29638000D03*
X7620000Y32084000D03*
X7620000Y29384000D03*
D29*
X72390000Y12700000D03*
X69850000Y12700000D03*
X74930000Y12700000D03*
D19*
X31750000Y39116000D03*
X31750000Y46736000D03*
D30*
X68834000Y31242000D03*
X71374000Y31242000D03*
X73914000Y31242000D03*
X76454000Y31242000D03*
X76454000Y38862000D03*
X73914000Y38862000D03*
X71374000Y38862000D03*
X68834000Y38862000D03*
D31*
X28448000Y22708000D03*
D32*
X28448000Y16408000D03*
X30748000Y16408000D03*
X26148000Y16408000D03*
D33*
X18100000Y15160000D03*
X19050000Y15160000D03*
X20000000Y15160000D03*
X20000000Y17860000D03*
X18100000Y17860000D03*
X19050000Y17860000D03*
D34*
X65913000Y65154000D03*
X64643000Y65154000D03*
X63373000Y65154000D03*
X62103000Y65154000D03*
D35*
X62103000Y59689000D03*
X63373000Y59689000D03*
X64643000Y59689000D03*
X65913000Y59689000D03*
D36*
X64008000Y61794000D03*
D34*
X49911000Y65154000D03*
X48641000Y65154000D03*
X47371000Y65154000D03*
X46101000Y65154000D03*
D35*
X46101000Y59689000D03*
X47371000Y59689000D03*
X48641000Y59689000D03*
X49911000Y59689000D03*
D36*
X48006000Y61794000D03*
D34*
X8255000Y65408000D03*
X6985000Y65408000D03*
X5715000Y65408000D03*
X4445000Y65408000D03*
D35*
X4445000Y59943000D03*
X5715000Y59943000D03*
X6985000Y59943000D03*
X8255000Y59943000D03*
D36*
X6350000Y62048000D03*
D34*
X18923000Y65408000D03*
X17653000Y65408000D03*
X16383000Y65408000D03*
X15113000Y65408000D03*
D35*
X15113000Y59943000D03*
X16383000Y59943000D03*
X17653000Y59943000D03*
X18923000Y59943000D03*
D36*
X17018000Y62048000D03*
D34*
X33655000Y65408000D03*
X32385000Y65408000D03*
X31115000Y65408000D03*
X29845000Y65408000D03*
D35*
X29845000Y59943000D03*
X31115000Y59943000D03*
X32385000Y59943000D03*
X33655000Y59943000D03*
D36*
X31750000Y62048000D03*
D37*
X27940000Y49276000D03*
D38*
X20320000Y49276000D03*
D37*
X67818000Y49530000D03*
D38*
X75438000Y49530000D03*
D37*
X52832000Y49530000D03*
D38*
X60452000Y49530000D03*
D37*
X43434000Y49022000D03*
D38*
X35814000Y49022000D03*
D22*
X40260000Y70358000D03*
X43560000Y70358000D03*
D23*
X0Y70232000D03*
X0Y73532000D03*
X25146000Y69978000D03*
X25146000Y73278000D03*
D14*
X112776000Y17546000D03*
X112776000Y20046000D03*
X115062000Y17546000D03*
X115062000Y20046000D03*
X130302000Y20046000D03*
X130302000Y17546000D03*
X134874000Y20046000D03*
X134874000Y17546000D03*
D15*
X104648000Y89718000D03*
D16*
X104648000Y93218000D03*
D14*
X124968000Y19792000D03*
X124968000Y17292000D03*
X110490000Y20046000D03*
X110490000Y17546000D03*
X85344000Y20046000D03*
X85344000Y17546000D03*
X100330000Y20046000D03*
X100330000Y17546000D03*
X95504000Y20046000D03*
X95504000Y17546000D03*
X90678000Y20046000D03*
X90678000Y17546000D03*
X102870000Y20046000D03*
X102870000Y17546000D03*
D39*
X120142000Y22495000D03*
X120142000Y25765000D03*
D23*
X122682000Y17146000D03*
X122682000Y20446000D03*
D17*
X88864000Y89154000D03*
X97064000Y89154000D03*
D23*
X110490000Y90044000D03*
X110490000Y93344000D03*
D18*
X112776000Y22780000D03*
X112776000Y25480000D03*
X117602000Y20146000D03*
X117602000Y17446000D03*
X137414000Y20146000D03*
X137414000Y17446000D03*
X130302000Y22780000D03*
X130302000Y25480000D03*
X127508000Y17192000D03*
X127508000Y19892000D03*
X120142000Y20146000D03*
X120142000Y17446000D03*
X132588000Y17446000D03*
X132588000Y20146000D03*
X92964000Y25480000D03*
X92964000Y22780000D03*
X97790000Y25480000D03*
X97790000Y22780000D03*
X102616000Y27512000D03*
X102616000Y24812000D03*
X85344000Y25226000D03*
X85344000Y22526000D03*
X110236000Y25480000D03*
X110236000Y22780000D03*
X107950000Y25480000D03*
X107950000Y22780000D03*
X87630000Y25226000D03*
X87630000Y22526000D03*
X100330000Y27512000D03*
X100330000Y24812000D03*
X95504000Y25480000D03*
X95504000Y22780000D03*
X90678000Y25480000D03*
X90678000Y22780000D03*
X107950000Y17446000D03*
X107950000Y20146000D03*
X105410000Y17446000D03*
X105410000Y20146000D03*
D19*
X95758000Y94742000D03*
X88138000Y94742000D03*
D25*
X127254000Y71374000D03*
X127254000Y66294000D03*
D40*
X92202000Y61214000D03*
X92202000Y63754000D03*
X92202000Y66294000D03*
X92202000Y76454000D03*
X92202000Y73914000D03*
X92202000Y71374000D03*
X92202000Y68834000D03*
D41*
X114805000Y90170000D03*
D42*
X123955000Y90170000D03*
D41*
X114805000Y87630000D03*
X114805000Y92710000D03*
D43*
X109982000Y51562000D03*
X104902000Y51562000D03*
X104902000Y36322000D03*
X112522000Y36322000D03*
X115062000Y36322000D03*
X117602000Y36322000D03*
X99822000Y51562000D03*
X102362000Y51562000D03*
X107442000Y51562000D03*
X112522000Y51562000D03*
X115062000Y51562000D03*
X117602000Y51562000D03*
X120142000Y51562000D03*
X122682000Y51562000D03*
X125222000Y51562000D03*
X127762000Y51562000D03*
X99822000Y36322000D03*
X102362000Y36322000D03*
X109982000Y36322000D03*
X120142000Y36322000D03*
X122682000Y36322000D03*
X125222000Y36322000D03*
X127762000Y36322000D03*
X127762000Y49022000D03*
X127762000Y46482000D03*
X127762000Y43942000D03*
X108712000Y49022000D03*
X111252000Y49022000D03*
X107442000Y36322000D03*
D44*
X145034000Y2794000D03*
X144526000Y93472000D03*
X4318000Y93726000D03*
X1778000Y1524000D03*
X77470000Y2286000D03*
D24*
X5080000Y88138000D03*
D25*
X2540000Y88138000D03*
X7620000Y88138000D03*
D24*
X24384000Y84328000D03*
D25*
X21844000Y84328000D03*
X26924000Y84328000D03*
D45*
X31750000Y72752000D03*
X31750000Y77002000D03*
X31750000Y82002000D03*
X31750000Y86252000D03*
D46*
X31750000Y84152000D03*
X31750000Y74852000D03*
D45*
X48260000Y72752000D03*
X48260000Y77002000D03*
X48260000Y82002000D03*
X48260000Y86252000D03*
D46*
X48260000Y84152000D03*
X48260000Y74852000D03*
D45*
X17018000Y73006000D03*
X17018000Y77256000D03*
X17018000Y82256000D03*
X17018000Y86506000D03*
D46*
X17018000Y84406000D03*
X17018000Y75106000D03*
D45*
X64008000Y73006000D03*
X64008000Y77256000D03*
X64008000Y82256000D03*
X64008000Y86506000D03*
D46*
X64008000Y84406000D03*
X64008000Y75106000D03*
D45*
X78232000Y86252000D03*
X78232000Y82002000D03*
X78232000Y77002000D03*
X78232000Y72752000D03*
D46*
X78232000Y74852000D03*
X78232000Y84152000D03*
D47*
X107442000Y38608000D03*
X102362000Y49784000D03*
X107950000Y87376000D03*
X90678000Y14986000D03*
X79248000Y52070000D03*
X72898000Y17780000D03*
X21844000Y13208000D03*
D40*
X70866000Y88138000D03*
D47*
X4064000Y82550000D03*
X42926000Y86106000D03*
D40*
X58928000Y82804000D03*
D47*
X85344000Y14732000D03*
X106252000Y22780000D03*
X55626000Y12700000D03*
X15748000Y17780000D03*
X23876000Y22606000D03*
X135636000Y13462000D03*
X130302000Y27940000D03*
X60960000Y6858000D03*
X75946000Y15494000D03*
X59182000Y28194000D03*
X52832000Y28194000D03*
X38862000Y13208000D03*
X23876000Y34798000D03*
X56896000Y63246000D03*
X21082000Y35306000D03*
X41656000Y62484000D03*
X4826000Y20828000D03*
X4826000Y34798000D03*
X26162000Y62230000D03*
X14986000Y20320000D03*
X9906000Y20320000D03*
X1524000Y63246000D03*
X12700000Y64770000D03*
X-254000Y81788000D03*
X7366000Y14478000D03*
X23876000Y80772000D03*
X12446000Y14478000D03*
X20828000Y37592000D03*
X36576000Y64516000D03*
X2540000Y14732000D03*
X15494000Y14732000D03*
X46482000Y12954000D03*
X43942000Y30988000D03*
X68326000Y21336000D03*
X112776000Y15494000D03*
X115062000Y15494000D03*
X132842000Y49022000D03*
X135128000Y46482000D03*
X122174000Y27940000D03*
X88392000Y56642000D03*
X107950000Y27940000D03*
X87630000Y27432000D03*
X87884000Y19558000D03*
X100330000Y22606000D03*
X98044000Y19558000D03*
X92964000Y19304000D03*
X103886000Y32258000D03*
X112776000Y31242000D03*
X120142000Y29718000D03*
X107442000Y57912000D03*
X90678000Y30226000D03*
X95758000Y30226000D03*
X100330000Y30226000D03*
X105410000Y15494000D03*
X137414000Y15240000D03*
X92964000Y45720000D03*
X109474000Y55880000D03*
X112522000Y55626000D03*
X115062000Y56896000D03*
X117348000Y48260000D03*
X107188000Y66548000D03*
X117348000Y66802000D03*
X102870000Y73660000D03*
X103124000Y64008000D03*
D48*
X5080000Y88138000D02*
X2540000Y88138000D01*
X2540000Y88138000D02*
X2286000Y87884000D01*
X2286000Y87884000D02*
X2286000Y84908000D01*
X2286000Y84908000D02*
X4354000Y82840000D01*
X5080000Y88138000D02*
X5080000Y83566000D01*
X5080000Y83566000D02*
X4354000Y82840000D01*
X8890000Y82840000D02*
X8890000Y86868000D01*
X8890000Y86868000D02*
X7620000Y88138000D01*
X7620000Y88138000D02*
X5080000Y88138000D01*
D49*
X5080000Y88138000D02*
X5080000Y86650000D01*
X5080000Y86650000D02*
X8890000Y82840000D01*
X107950000Y17446000D02*
X107950000Y14478000D01*
X107950000Y14478000D02*
X108712000Y13716000D01*
X102870000Y17546000D02*
X102870000Y15240000D01*
X102870000Y15240000D02*
X104394000Y13716000D01*
X104394000Y13716000D02*
X108712000Y13716000D01*
X117602000Y15494000D02*
X117602000Y17446000D01*
X108712000Y13716000D02*
X115824000Y13716000D01*
X115824000Y13716000D02*
X117602000Y15494000D01*
X107442000Y44704000D02*
X107442000Y38608000D01*
X102362000Y49784000D02*
X107442000Y44704000D01*
X110490000Y90044000D02*
X110490000Y89916000D01*
X110490000Y89916000D02*
X107950000Y87376000D01*
X98842000Y87376000D02*
X97064000Y89154000D01*
X107950000Y87376000D02*
X98842000Y87376000D01*
X114805000Y90170000D02*
X110616000Y90170000D01*
X110616000Y90170000D02*
X110490000Y90044000D01*
X114805000Y90170000D02*
X123955000Y90170000D01*
X90678000Y14986000D02*
X90678000Y17546000D01*
X85344000Y17546000D02*
X90678000Y17546000D01*
X95504000Y17546000D02*
X90678000Y17546000D01*
X100330000Y17546000D02*
X95504000Y17546000D01*
X102870000Y17546000D02*
X100330000Y17546000D01*
X110490000Y17546000D02*
X108050000Y17546000D01*
X108050000Y17546000D02*
X107950000Y17446000D01*
X120142000Y17446000D02*
X117602000Y17446000D01*
X122682000Y17146000D02*
X120442000Y17146000D01*
X120442000Y17146000D02*
X120142000Y17446000D01*
X124968000Y17446000D02*
X122982000Y17446000D01*
X122982000Y17446000D02*
X122682000Y17146000D01*
X127762000Y17546000D02*
X125068000Y17546000D01*
X125068000Y17546000D02*
X124968000Y17446000D01*
X130302000Y17546000D02*
X127762000Y17546000D01*
X132588000Y17446000D02*
X130402000Y17446000D01*
X130402000Y17446000D02*
X130302000Y17546000D01*
X134874000Y17546000D02*
X132688000Y17546000D01*
X132688000Y17546000D02*
X132588000Y17446000D01*
D48*
X42926000Y86106000D02*
X40604000Y86106000D01*
X40604000Y86106000D02*
X39116000Y84618000D01*
D49*
X78740000Y55038000D02*
X78740000Y52578000D01*
X78740000Y52578000D02*
X79248000Y52070000D01*
X70866000Y17446000D02*
X72564000Y17446000D01*
X72564000Y17446000D02*
X72898000Y17780000D01*
X31496000Y35052000D02*
X26924000Y35052000D01*
X22860000Y28284000D02*
X20254000Y25678000D01*
X22860000Y30988000D02*
X22860000Y28284000D01*
X26924000Y35052000D02*
X22860000Y30988000D01*
X31496000Y35052000D02*
X31496000Y29754000D01*
X31496000Y29754000D02*
X31460000Y29718000D01*
X26148000Y16408000D02*
X22250000Y16408000D01*
X22250000Y16408000D02*
X21463000Y15621000D01*
X76708000Y26142000D02*
X76708000Y30988000D01*
X76708000Y30988000D02*
X76454000Y31242000D01*
X21463000Y13589000D02*
X21463000Y15621000D01*
X21844000Y13208000D02*
X21463000Y13589000D01*
D48*
X70866000Y88138000D02*
X71628000Y87376000D01*
X71628000Y87376000D02*
X71628000Y82840000D01*
D49*
X20320000Y22940000D02*
X22018000Y22940000D01*
X22018000Y22940000D02*
X22098000Y22860000D01*
X22098000Y22860000D02*
X22098000Y16256000D01*
X22098000Y16256000D02*
X21463000Y15621000D01*
X21002000Y15160000D02*
X20000000Y15160000D01*
X21463000Y15621000D02*
X21002000Y15160000D01*
X20254000Y25678000D02*
X20254000Y23006000D01*
X20254000Y23006000D02*
X20320000Y22940000D01*
D50*
X19050000Y15160000D02*
X20000000Y15160000D01*
D48*
X8890000Y82840000D02*
X4354000Y82840000D01*
X4354000Y82840000D02*
X4064000Y82550000D01*
X42890000Y86142000D02*
X42926000Y86106000D01*
X58638000Y83094000D02*
X58928000Y82804000D01*
X58638000Y83094000D02*
X55118000Y83094000D01*
D49*
X76708000Y20400000D02*
X79676000Y20400000D01*
X79676000Y20400000D02*
X85344000Y14732000D01*
X107950000Y22780000D02*
X106252000Y22780000D01*
X106252000Y22780000D02*
X106172000Y22860000D01*
X110236000Y22780000D02*
X107950000Y22780000D01*
X110490000Y20046000D02*
X110490000Y22526000D01*
X110490000Y22526000D02*
X110236000Y22780000D01*
X76708000Y20400000D02*
X75010000Y20400000D01*
X66548000Y13462000D02*
X68326000Y15240000D01*
X56388000Y13462000D02*
X66548000Y13462000D01*
X55626000Y12700000D02*
X56388000Y13462000D01*
X73152000Y15240000D02*
X68326000Y15240000D01*
X74676000Y16764000D02*
X73152000Y15240000D01*
X74676000Y20066000D02*
X74676000Y16764000D01*
X75010000Y20400000D02*
X74676000Y20066000D01*
X76708000Y23642000D02*
X76708000Y20400000D01*
X74168000Y23542000D02*
X76608000Y23542000D01*
X76608000Y23542000D02*
X76708000Y23642000D01*
X15748000Y17780000D02*
X15828000Y17860000D01*
X15828000Y17860000D02*
X15922000Y17860000D01*
X28448000Y22708000D02*
X23978000Y22708000D01*
X23978000Y22708000D02*
X23876000Y22606000D01*
X28448000Y16408000D02*
X28448000Y22708000D01*
D50*
X18100000Y17860000D02*
X15922000Y17860000D01*
X15922000Y17860000D02*
X15748000Y18034000D01*
D49*
X39660000Y29718000D02*
X38354000Y29718000D01*
X38354000Y29718000D02*
X33528000Y24892000D01*
X32918000Y16408000D02*
X30748000Y16408000D01*
X33528000Y17018000D02*
X32918000Y16408000D01*
X33528000Y24892000D02*
X33528000Y17018000D01*
X39116000Y35052000D02*
X39116000Y36068000D01*
X36068000Y39116000D02*
X31750000Y39116000D01*
X39116000Y36068000D02*
X36068000Y39116000D01*
X39660000Y29718000D02*
X39660000Y34508000D01*
X39660000Y34508000D02*
X39116000Y35052000D01*
X83312000Y12215998D02*
X80287998Y12215998D01*
X78994000Y8128000D02*
X77724000Y8128000D01*
X80264000Y9398000D02*
X78994000Y8128000D01*
X80264000Y12192000D02*
X80264000Y9398000D01*
X80287998Y12215998D02*
X80264000Y12192000D01*
X78232000Y82002000D02*
X78232000Y84152000D01*
X78232000Y84152000D02*
X80440000Y84152000D01*
X68834000Y38862000D02*
X61976000Y38862000D01*
X61976000Y38862000D02*
X62230000Y39116000D01*
X62992000Y39116000D02*
X62992000Y38862000D01*
X62230000Y39116000D02*
X62992000Y39116000D01*
X134389998Y12215998D02*
X135636000Y13462000D01*
X83081998Y12215998D02*
X83312000Y12215998D01*
X83312000Y12215998D02*
X134389998Y12215998D01*
X130302000Y27940000D02*
X130302000Y25480000D01*
X78232000Y84152000D02*
X78232000Y88138000D01*
X78232000Y88138000D02*
X84836000Y94742000D01*
X84836000Y94742000D02*
X88138000Y94742000D01*
X68834000Y38862000D02*
X62992000Y38862000D01*
X62992000Y38862000D02*
X61976000Y38862000D01*
X61976000Y38862000D02*
X61468000Y38354000D01*
X57484000Y26416000D02*
X57484000Y29342000D01*
X57484000Y29342000D02*
X57084000Y29742000D01*
D48*
X82804000Y44450000D02*
X67564000Y44450000D01*
X67564000Y44450000D02*
X61468000Y38354000D01*
X78232000Y84152000D02*
X80440000Y84152000D01*
X83566000Y45212000D02*
X82804000Y44450000D01*
X83566000Y81026000D02*
X83566000Y45212000D01*
X80440000Y84152000D02*
X83566000Y81026000D01*
X47056000Y38354000D02*
X44704000Y36002000D01*
X61468000Y38354000D02*
X47056000Y38354000D01*
D49*
X50734000Y29742000D02*
X50734000Y26816000D01*
X50734000Y26816000D02*
X51134000Y26416000D01*
X63180000Y29742000D02*
X63180000Y26910000D01*
X63180000Y26910000D02*
X63500000Y26590000D01*
X63500000Y26590000D02*
X63580000Y26670000D01*
X60960000Y6858000D02*
X62992000Y4826000D01*
X62992000Y4826000D02*
X74422000Y4826000D01*
X74422000Y4826000D02*
X77724000Y8128000D01*
X77724000Y16684000D02*
X76708000Y17700000D01*
X77724000Y8128000D02*
X77724000Y16684000D01*
X76708000Y17018000D02*
X75946000Y15494000D01*
X57484000Y26416000D02*
X57484000Y26496000D01*
X57484000Y26496000D02*
X59182000Y28194000D01*
X51134000Y26416000D02*
X51134000Y26496000D01*
X51134000Y26496000D02*
X52832000Y28194000D01*
X68834000Y38862000D02*
X68834000Y38100000D01*
X68834000Y38100000D02*
X65786000Y35052000D01*
X65786000Y28194000D02*
X64262000Y26670000D01*
X65786000Y35052000D02*
X65786000Y28194000D01*
X64262000Y26670000D02*
X63580000Y26670000D01*
X64516000Y26670000D02*
X63580000Y26670000D01*
X76708000Y17700000D02*
X76708000Y17018000D01*
X63500000Y23956000D02*
X63500000Y26590000D01*
X63500000Y26590000D02*
X63580000Y26670000D01*
X51562000Y23702000D02*
X51562000Y25988000D01*
X51562000Y25988000D02*
X51388000Y26162000D01*
X57404000Y23702000D02*
X57404000Y26336000D01*
X57404000Y26336000D02*
X57484000Y26416000D01*
X51388000Y23876000D02*
X51562000Y23702000D01*
X57404000Y26336000D02*
X57484000Y26416000D01*
X51562000Y18622000D02*
X51562000Y21002000D01*
X63500000Y18622000D02*
X63500000Y21256000D01*
X57404000Y21002000D02*
X57404000Y18622000D01*
D48*
X31242000Y55118000D02*
X31242000Y52578000D01*
X31242000Y52578000D02*
X27940000Y49276000D01*
X31750000Y62048000D02*
X31750000Y55626000D01*
X31750000Y55626000D02*
X31242000Y55118000D01*
D49*
X31242000Y55118000D02*
X31242000Y50800000D01*
X33655000Y59943000D02*
X33655000Y57531000D01*
X33655000Y57531000D02*
X31242000Y55118000D01*
X32385000Y59943000D02*
X32385000Y61413000D01*
X32385000Y61413000D02*
X31750000Y62048000D01*
X31115000Y59943000D02*
X29845000Y59943000D01*
X32385000Y59943000D02*
X31115000Y59943000D01*
X33655000Y59943000D02*
X32385000Y59943000D01*
D48*
X43434000Y49022000D02*
X52324000Y49022000D01*
X52324000Y49022000D02*
X52832000Y49530000D01*
X52832000Y49530000D02*
X52832000Y54864000D01*
X52832000Y54864000D02*
X52324000Y55372000D01*
X48006000Y61794000D02*
X48006000Y61722000D01*
X48006000Y61722000D02*
X35814000Y49530000D01*
X35814000Y49530000D02*
X35814000Y49022000D01*
D49*
X47371000Y59689000D02*
X47371000Y61159000D01*
X47371000Y61159000D02*
X48006000Y61794000D01*
X47371000Y59689000D02*
X46101000Y59689000D01*
X48641000Y59689000D02*
X47371000Y59689000D01*
X49911000Y59689000D02*
X48641000Y59689000D01*
D48*
X38354000Y16212000D02*
X38354000Y13716000D01*
X38354000Y13716000D02*
X38862000Y13208000D01*
D51*
X38862000Y13208000D02*
X38354000Y13716000D01*
D49*
X44704000Y16002000D02*
X48942000Y16002000D01*
X48942000Y16002000D02*
X49022000Y15922000D01*
D48*
X38354000Y23412000D02*
X40088000Y23412000D01*
X44704000Y18796000D02*
X44704000Y16002000D01*
X40088000Y23412000D02*
X44704000Y18796000D01*
D49*
X51562000Y15922000D02*
X49022000Y15922000D01*
X17018000Y73006000D02*
X17018000Y77256000D01*
X0Y73532000D02*
X0Y75866000D01*
D48*
X17018000Y75106000D02*
X9356000Y75106000D01*
X9356000Y75106000D02*
X8890000Y74640000D01*
D49*
X2286000Y68406000D02*
X2286000Y72898000D01*
X1652000Y73532000D02*
X0Y73532000D01*
X2286000Y72898000D02*
X1652000Y73532000D01*
X17526000Y67056000D02*
X18796000Y67056000D01*
X18796000Y67056000D02*
X18923000Y66929000D01*
X16256000Y67056000D02*
X17526000Y67056000D01*
X17526000Y67056000D02*
X17653000Y66929000D01*
X8128000Y67056000D02*
X16256000Y67056000D01*
D52*
X16383000Y66675000D02*
X16510000Y66802000D01*
X16383000Y66675000D02*
X16383000Y65408000D01*
D49*
X16256000Y67056000D02*
X16510000Y66802000D01*
X5762000Y68406000D02*
X5762000Y71512000D01*
X5762000Y71512000D02*
X8890000Y74640000D01*
X6604000Y67056000D02*
X8128000Y67056000D01*
X8128000Y67056000D02*
X8255000Y66929000D01*
X5842000Y67056000D02*
X6604000Y67056000D01*
X6604000Y67056000D02*
X6985000Y66675000D01*
X2286000Y68406000D02*
X5762000Y68406000D01*
D52*
X5715000Y66929000D02*
X5842000Y67056000D01*
X5715000Y66929000D02*
X5715000Y65408000D01*
D49*
X5842000Y68326000D02*
X5842000Y67056000D01*
X5762000Y68406000D02*
X5842000Y68326000D01*
D52*
X18923000Y65408000D02*
X18923000Y66929000D01*
X18923000Y66929000D02*
X18796000Y67056000D01*
X17653000Y65408000D02*
X17653000Y66929000D01*
X17653000Y66929000D02*
X17780000Y67056000D01*
X8255000Y65408000D02*
X8255000Y66929000D01*
X8255000Y66929000D02*
X8382000Y67056000D01*
X6985000Y65408000D02*
X6985000Y66675000D01*
X6985000Y66675000D02*
X6858000Y66802000D01*
X6985000Y65408000D02*
X8255000Y65408000D01*
X5715000Y65408000D02*
X6985000Y65408000D01*
D49*
X16383000Y65408000D02*
X17653000Y65408000D01*
X17653000Y65408000D02*
X18923000Y65408000D01*
X8890000Y74640000D02*
X16552000Y74640000D01*
X16552000Y74640000D02*
X17018000Y75106000D01*
X8255000Y74005000D02*
X8890000Y74640000D01*
X57658000Y68452000D02*
X57658000Y70232000D01*
X57658000Y70232000D02*
X57278000Y70612000D01*
X64008000Y73006000D02*
X64008000Y77256000D01*
D48*
X64008000Y75106000D02*
X71162000Y75106000D01*
X71162000Y75106000D02*
X71628000Y74640000D01*
D49*
X71162000Y75106000D02*
X71628000Y74640000D01*
X64516000Y66802000D02*
X64516000Y74598000D01*
X64516000Y74598000D02*
X64008000Y75106000D01*
X64516000Y66802000D02*
X65913000Y66802000D01*
X65913000Y66802000D02*
X65913000Y66929000D01*
X63373000Y66802000D02*
X64516000Y66802000D01*
X64516000Y66802000D02*
X64643000Y66802000D01*
X64643000Y66802000D02*
X63373000Y66802000D01*
X59944000Y68152000D02*
X62912000Y68152000D01*
X63373000Y67691000D02*
X63373000Y66802000D01*
X63373000Y66802000D02*
X63373000Y66675000D01*
X62912000Y68152000D02*
X63373000Y67691000D01*
D52*
X64643000Y65154000D02*
X65913000Y65154000D01*
X63373000Y65154000D02*
X64643000Y65154000D01*
X65913000Y65154000D02*
X65913000Y66929000D01*
X65913000Y66929000D02*
X65786000Y67056000D01*
X64643000Y65154000D02*
X64643000Y66929000D01*
X64643000Y66929000D02*
X64516000Y67056000D01*
X63373000Y65154000D02*
X63373000Y66675000D01*
X63373000Y66675000D02*
X63500000Y66802000D01*
D49*
X59944000Y68152000D02*
X59944000Y69978000D01*
X59944000Y69978000D02*
X60578000Y70612000D01*
X48260000Y72752000D02*
X48260000Y77002000D01*
X43560000Y70358000D02*
X43560000Y72344000D01*
X43560000Y72344000D02*
X43260000Y72644000D01*
D48*
X48260000Y74852000D02*
X55076000Y74852000D01*
X55076000Y74852000D02*
X55118000Y74894000D01*
D49*
X55076000Y74852000D02*
X55118000Y74894000D01*
X48641000Y66802000D02*
X48641000Y74471000D01*
X48641000Y74471000D02*
X48260000Y74852000D01*
X48641000Y66802000D02*
X49530000Y66802000D01*
X49530000Y66802000D02*
X49911000Y66421000D01*
X47498000Y66802000D02*
X48641000Y66802000D01*
X48641000Y66802000D02*
X48641000Y66929000D01*
X43434000Y67644000D02*
X43434000Y70232000D01*
X43434000Y70232000D02*
X43560000Y70358000D01*
X43434000Y67644000D02*
X46656000Y67644000D01*
D52*
X47371000Y66675000D02*
X47498000Y66802000D01*
X47371000Y66675000D02*
X47371000Y65154000D01*
D49*
X46656000Y67644000D02*
X47498000Y66802000D01*
D52*
X48641000Y65154000D02*
X48641000Y66929000D01*
X48641000Y66929000D02*
X48514000Y67056000D01*
X49911000Y65154000D02*
X49911000Y66421000D01*
X49911000Y66421000D02*
X50038000Y66548000D01*
X48641000Y65154000D02*
X49911000Y65154000D01*
X47371000Y65154000D02*
X48641000Y65154000D01*
D49*
X78232000Y72752000D02*
X78232000Y74852000D01*
X78232000Y72752000D02*
X78232000Y77002000D01*
X78740000Y63326000D02*
X78740000Y65786000D01*
X78740000Y65786000D02*
X78232000Y66294000D01*
D48*
X73660000Y61214000D02*
X73660000Y61722000D01*
X73660000Y61722000D02*
X78232000Y66294000D01*
X78232000Y66294000D02*
X78232000Y74852000D01*
X64008000Y61794000D02*
X64008000Y57404000D01*
X67818000Y53594000D02*
X67818000Y49530000D01*
X64008000Y57404000D02*
X67818000Y53594000D01*
X64008000Y61794000D02*
X73080000Y61794000D01*
X73080000Y61794000D02*
X73660000Y61214000D01*
D49*
X65913000Y59689000D02*
X65913000Y59055000D01*
X65913000Y59055000D02*
X69088000Y55880000D01*
X63373000Y59689000D02*
X63373000Y61159000D01*
X63373000Y61159000D02*
X64008000Y61794000D01*
X63373000Y59689000D02*
X62103000Y59689000D01*
X64643000Y59689000D02*
X63373000Y59689000D01*
X65913000Y59689000D02*
X64643000Y59689000D01*
X78740000Y57738000D02*
X78740000Y60626000D01*
X41148000Y68198000D02*
X41022000Y68198000D01*
X41022000Y68198000D02*
X40260000Y68960000D01*
X40260000Y68960000D02*
X40260000Y70358000D01*
X0Y70232000D02*
X0Y68706000D01*
X25146000Y68452000D02*
X25146000Y69978000D01*
D48*
X39116000Y76418000D02*
X33316000Y76418000D01*
X33316000Y76418000D02*
X31750000Y74852000D01*
D49*
X25400000Y75358000D02*
X31244000Y75358000D01*
X31244000Y75358000D02*
X31750000Y74852000D01*
X32004000Y68152000D02*
X32004000Y74598000D01*
X32004000Y74598000D02*
X32300000Y74894000D01*
D52*
X33655000Y65408000D02*
X33655000Y66675000D01*
X33528000Y66802000D02*
X32385000Y66802000D01*
X33655000Y66675000D02*
X33528000Y66802000D01*
X31115000Y65408000D02*
X31115000Y66675000D01*
X31115000Y66675000D02*
X31242000Y66802000D01*
X31242000Y66802000D02*
X32385000Y66802000D01*
X31115000Y65408000D02*
X32385000Y65408000D01*
X32385000Y65408000D02*
X32255000Y65278000D01*
X32255000Y65278000D02*
X32004000Y65278000D01*
X32004000Y65278000D02*
X32385000Y65278000D01*
X33655000Y65408000D02*
X32385000Y65408000D01*
D49*
X27432000Y68152000D02*
X32004000Y68152000D01*
X32004000Y68152000D02*
X32178000Y68152000D01*
X32385000Y67945000D02*
X32385000Y66802000D01*
X32178000Y68152000D02*
X32385000Y67945000D01*
X32385000Y66802000D02*
X32385000Y65278000D01*
X32385000Y65278000D02*
X32385000Y65408000D01*
X25146000Y73278000D02*
X27052000Y73278000D01*
X27432000Y72898000D02*
X27432000Y68152000D01*
X27052000Y73278000D02*
X27432000Y72898000D01*
X21336000Y32258000D02*
X23876000Y34798000D01*
X57658000Y64008000D02*
X57658000Y65152000D01*
X56896000Y63246000D02*
X57658000Y64008000D01*
X20908000Y32258000D02*
X21336000Y32258000D01*
X59944000Y65452000D02*
X57958000Y65452000D01*
X57958000Y65452000D02*
X57658000Y65152000D01*
D52*
X62103000Y65154000D02*
X60242000Y65154000D01*
X60242000Y65154000D02*
X59944000Y65452000D01*
D49*
X42164000Y64944000D02*
X42164000Y62992000D01*
X41656000Y62484000D02*
X42164000Y62992000D01*
X3744000Y23392000D02*
X3744000Y21910000D01*
X3744000Y21910000D02*
X4826000Y20828000D01*
X4826000Y34798000D02*
X5334000Y35306000D01*
X5334000Y35306000D02*
X21082000Y35306000D01*
X21082000Y35306000D02*
X21336000Y35306000D01*
X43434000Y64944000D02*
X42164000Y64944000D01*
X42164000Y64944000D02*
X41194000Y64944000D01*
X41194000Y64944000D02*
X41148000Y64898000D01*
D52*
X46101000Y65154000D02*
X43644000Y65154000D01*
X43644000Y65154000D02*
X43434000Y64944000D01*
D49*
X14412000Y23138000D02*
X14412000Y20894000D01*
X26670000Y62738000D02*
X26670000Y65452000D01*
X26162000Y62230000D02*
X26670000Y62738000D01*
X14412000Y20894000D02*
X14986000Y20320000D01*
X27432000Y65452000D02*
X26670000Y65452000D01*
X26670000Y65452000D02*
X25446000Y65452000D01*
X25446000Y65452000D02*
X25146000Y65152000D01*
D52*
X29845000Y65408000D02*
X27476000Y65408000D01*
X27476000Y65408000D02*
X27432000Y65452000D01*
D49*
X8824000Y21402000D02*
X8824000Y23392000D01*
X9906000Y20320000D02*
X8824000Y21402000D01*
X0Y65406000D02*
X1986000Y65406000D01*
X1986000Y65406000D02*
X2286000Y65706000D01*
X13078000Y65408000D02*
X13078000Y65148000D01*
X0Y64770000D02*
X0Y65406000D01*
X1524000Y63246000D02*
X0Y64770000D01*
X13078000Y65148000D02*
X12700000Y64770000D01*
D52*
X15113000Y65408000D02*
X13078000Y65408000D01*
X13078000Y65408000D02*
X12954000Y65532000D01*
X4445000Y65408000D02*
X2584000Y65408000D01*
X2584000Y65408000D02*
X2286000Y65706000D01*
D49*
X17018000Y84406000D02*
X17018000Y82256000D01*
X17018000Y84406000D02*
X17018000Y86506000D01*
X48260000Y84152000D02*
X48260000Y82002000D01*
X31750000Y84152000D02*
X31750000Y82002000D01*
X48260000Y84152000D02*
X48260000Y86252000D01*
X64008000Y84406000D02*
X64008000Y82256000D01*
X24384000Y84328000D02*
X17096000Y84328000D01*
X17096000Y84328000D02*
X17018000Y84406000D01*
D48*
X17018000Y84406000D02*
X31496000Y84406000D01*
X31496000Y84406000D02*
X31750000Y84152000D01*
X48260000Y89408000D02*
X48260000Y84152000D01*
X48260000Y89408000D02*
X49530000Y90678000D01*
X49530000Y90678000D02*
X61214000Y90678000D01*
X61214000Y90678000D02*
X64008000Y87884000D01*
X64008000Y87884000D02*
X64008000Y84406000D01*
X31750000Y84152000D02*
X17272000Y84152000D01*
X31750000Y84152000D02*
X32512000Y84914000D01*
X32512000Y84914000D02*
X32512000Y88392000D01*
X32512000Y88392000D02*
X34798000Y90678000D01*
X34798000Y90678000D02*
X46990000Y90678000D01*
X46990000Y90678000D02*
X48260000Y89408000D01*
X48260000Y89408000D02*
X48260000Y84152000D01*
D49*
X31750000Y84152000D02*
X31750000Y88392000D01*
X17018000Y89408000D02*
X17018000Y84406000D01*
X18288000Y90678000D02*
X17018000Y89408000D01*
X29464000Y90678000D02*
X18288000Y90678000D01*
X31750000Y88392000D02*
X29464000Y90678000D01*
X48260000Y84152000D02*
X48260000Y89408000D01*
X48260000Y89408000D02*
X46990000Y90678000D01*
X31750000Y89154000D02*
X31750000Y84152000D01*
X33274000Y90678000D02*
X31750000Y89154000D01*
X46990000Y90678000D02*
X33274000Y90678000D01*
X64008000Y84406000D02*
X64008000Y87884000D01*
X64008000Y87884000D02*
X61214000Y90678000D01*
X49530000Y90678000D02*
X48260000Y89408000D01*
X61214000Y90678000D02*
X49530000Y90678000D01*
X0Y81534000D02*
X0Y78566000D01*
X-254000Y81788000D02*
X0Y81534000D01*
X7366000Y16684000D02*
X7366000Y14478000D01*
X25400000Y79248000D02*
X25400000Y78058000D01*
X23876000Y80772000D02*
X25400000Y79248000D01*
X12446000Y14478000D02*
X12446000Y16430000D01*
X40560000Y72644000D02*
X38862000Y72644000D01*
X0Y34290000D02*
X3302000Y37592000D01*
X3302000Y37592000D02*
X20828000Y37592000D01*
X1096000Y16684000D02*
X2540000Y16684000D01*
X38100000Y67738000D02*
X38100000Y66040000D01*
X36576000Y64516000D02*
X38100000Y66040000D01*
X0Y17780000D02*
X0Y33528000D01*
X1096000Y16684000D02*
X0Y17780000D01*
X0Y33528000D02*
X0Y34290000D01*
X38100000Y71882000D02*
X38100000Y67738000D01*
X38862000Y72644000D02*
X38100000Y71882000D01*
X2540000Y16684000D02*
X2540000Y14732000D01*
D50*
X15494000Y14732000D02*
X16510000Y14732000D01*
X18034000Y13716000D02*
X18034000Y15094000D01*
X17780000Y13462000D02*
X18034000Y13716000D01*
X16510000Y14732000D02*
X17780000Y13462000D01*
X18034000Y15094000D02*
X18100000Y15160000D01*
D49*
X46482000Y12954000D02*
X46736000Y13208000D01*
X46736000Y13208000D02*
X53340000Y13208000D01*
X53340000Y13208000D02*
X54864000Y14732000D01*
X54864000Y14732000D02*
X54864000Y15922000D01*
X57404000Y15922000D02*
X54864000Y15922000D01*
X49784000Y32742000D02*
X45696000Y32742000D01*
X45696000Y32742000D02*
X43942000Y30988000D01*
X56134000Y32742000D02*
X49784000Y32742000D01*
X62230000Y32742000D02*
X56134000Y32742000D01*
D48*
X6350000Y62048000D02*
X6350000Y59182000D01*
X6350000Y59182000D02*
X10668000Y54864000D01*
X17018000Y62048000D02*
X17018000Y61214000D01*
X17018000Y61214000D02*
X10668000Y54864000D01*
D49*
X8255000Y59943000D02*
X8255000Y57277000D01*
X8255000Y57277000D02*
X10668000Y54864000D01*
X5715000Y59943000D02*
X5715000Y61413000D01*
X5715000Y61413000D02*
X6350000Y62048000D01*
X16383000Y59943000D02*
X16383000Y61413000D01*
X16383000Y61413000D02*
X17018000Y62048000D01*
X15113000Y59943000D02*
X8255000Y59943000D01*
X16383000Y59943000D02*
X15113000Y59943000D01*
X17653000Y59943000D02*
X16383000Y59943000D01*
X18923000Y59943000D02*
X17653000Y59943000D01*
X6985000Y59943000D02*
X8255000Y59943000D01*
X5715000Y59943000D02*
X6985000Y59943000D01*
X4445000Y59943000D02*
X5715000Y59943000D01*
X18034000Y20240000D02*
X20320000Y20240000D01*
D50*
X19050000Y17860000D02*
X19050000Y18796000D01*
X19050000Y18796000D02*
X18034000Y19812000D01*
X18034000Y19812000D02*
X18034000Y20240000D01*
D49*
X68580000Y21590000D02*
X70866000Y21590000D01*
X68326000Y21336000D02*
X68580000Y21590000D01*
X70866000Y20146000D02*
X70866000Y21590000D01*
X70866000Y21590000D02*
X70866000Y23034000D01*
X74168000Y26242000D02*
X74168000Y30988000D01*
X74168000Y30988000D02*
X73914000Y31242000D01*
X70946000Y27940000D02*
X70946000Y25814000D01*
X70946000Y25814000D02*
X70866000Y25734000D01*
X70946000Y27940000D02*
X70946000Y29290000D01*
X71374000Y29718000D02*
X71374000Y31242000D01*
X70946000Y29290000D02*
X71374000Y29718000D01*
X7620000Y32084000D02*
X2794000Y32084000D01*
X13462000Y32338000D02*
X7874000Y32338000D01*
X7874000Y32338000D02*
X7620000Y32084000D01*
X18208000Y32258000D02*
X13542000Y32258000D01*
X13542000Y32258000D02*
X13462000Y32338000D01*
X19304000Y28678000D02*
X19304000Y28702000D01*
X19304000Y28702000D02*
X18208000Y29798000D01*
X18208000Y29798000D02*
X18208000Y32258000D01*
X68246000Y27940000D02*
X68246000Y27606000D01*
X68246000Y27606000D02*
X66548000Y25908000D01*
X65198000Y15922000D02*
X63500000Y15922000D01*
X66548000Y17272000D02*
X65198000Y15922000D01*
X66548000Y25908000D02*
X66548000Y17272000D01*
X68834000Y31242000D02*
X68834000Y30988000D01*
X68834000Y30988000D02*
X68246000Y30400000D01*
X68246000Y30400000D02*
X68246000Y27940000D01*
X60960000Y15922000D02*
X63500000Y15922000D01*
X48834000Y29742000D02*
X48834000Y26816000D01*
X48834000Y26816000D02*
X48434000Y26416000D01*
X49022000Y18622000D02*
X49022000Y25828000D01*
X49022000Y25828000D02*
X48688000Y26162000D01*
X48688000Y18956000D02*
X49022000Y18622000D01*
X18354000Y25678000D02*
X18354000Y23260000D01*
X18354000Y23260000D02*
X18034000Y22940000D01*
X61280000Y29742000D02*
X61280000Y27070000D01*
X61280000Y27070000D02*
X60880000Y26670000D01*
X60880000Y26670000D02*
X60880000Y18702000D01*
X60880000Y18702000D02*
X60960000Y18622000D01*
X55184000Y29742000D02*
X55184000Y26816000D01*
X55184000Y26816000D02*
X54784000Y26416000D01*
X54864000Y18622000D02*
X54864000Y26336000D01*
X54864000Y26336000D02*
X54784000Y26416000D01*
X54784000Y18702000D02*
X54864000Y18622000D01*
X2540000Y19384000D02*
X2540000Y20574000D01*
X1844000Y21270000D02*
X1844000Y23392000D01*
X2540000Y20574000D02*
X1844000Y21270000D01*
X2794000Y29384000D02*
X2794000Y26392000D01*
X12446000Y19130000D02*
X12446000Y23072000D01*
X12446000Y23072000D02*
X12512000Y23138000D01*
X13462000Y26138000D02*
X13462000Y27686000D01*
X13462000Y27686000D02*
X13462000Y29638000D01*
X7366000Y19384000D02*
X7366000Y20828000D01*
X6924000Y21270000D02*
X6924000Y23392000D01*
X7366000Y20828000D02*
X6924000Y21270000D01*
X7874000Y26392000D02*
X7874000Y29130000D01*
X7874000Y29130000D02*
X7620000Y29384000D01*
X112776000Y15494000D02*
X112776000Y17546000D01*
X112776000Y20046000D02*
X112776000Y22780000D01*
X115062000Y15494000D02*
X115062000Y17546000D01*
X117602000Y20146000D02*
X115162000Y20146000D01*
X115162000Y20146000D02*
X115062000Y20046000D01*
X129112000Y22780000D02*
X127842000Y22780000D01*
X130302000Y22780000D02*
X129112000Y22780000D01*
X129309998Y31265998D02*
X132193322Y31265998D01*
X132193322Y31265998D02*
X133326002Y32398678D01*
X133326002Y32398678D02*
X133326002Y48537998D01*
X133326002Y48537998D02*
X132842000Y49022000D01*
X128016000Y29972000D02*
X129309998Y31265998D01*
X128016000Y22954000D02*
X128016000Y29972000D01*
X127842000Y22780000D02*
X128016000Y22954000D01*
X127508000Y19892000D02*
X130148000Y19892000D01*
X130148000Y19892000D02*
X130302000Y20046000D01*
X130302000Y20046000D02*
X130302000Y22780000D01*
X132588000Y20146000D02*
X132588000Y29539352D01*
X134826004Y46180004D02*
X135128000Y46482000D01*
X134826004Y31777356D02*
X134826004Y46180004D01*
X132588000Y29539352D02*
X134826004Y31777356D01*
X134874000Y20046000D02*
X132688000Y20046000D01*
X132688000Y20046000D02*
X132588000Y20146000D01*
X137414000Y20146000D02*
X134974000Y20146000D01*
X134974000Y20146000D02*
X134874000Y20046000D01*
X110490000Y93344000D02*
X109856000Y93344000D01*
X96520000Y95504000D02*
X95758000Y94742000D01*
X107696000Y95504000D02*
X96520000Y95504000D01*
X109856000Y93344000D02*
X107696000Y95504000D01*
X114805000Y92710000D02*
X111506000Y92710000D01*
X111506000Y92710000D02*
X110490000Y93726000D01*
X110490000Y93726000D02*
X110490000Y93344000D01*
X95758000Y94742000D02*
X94452000Y94742000D01*
X94452000Y94742000D02*
X88864000Y89154000D01*
X124968000Y19792000D02*
X124968000Y25146000D01*
X124968000Y25146000D02*
X122174000Y27940000D01*
X112265000Y85090000D02*
X114805000Y87630000D01*
X95504000Y85090000D02*
X112265000Y85090000D01*
X89154000Y78740000D02*
X95504000Y85090000D01*
X89154000Y57404000D02*
X89154000Y78740000D01*
X88392000Y56642000D02*
X89154000Y57404000D01*
X87630000Y25226000D02*
X87630000Y27432000D01*
X107950000Y27940000D02*
X107950000Y25480000D01*
X85344000Y22526000D02*
X85344000Y20046000D01*
X87630000Y22526000D02*
X85344000Y22526000D01*
X87630000Y19812000D02*
X87630000Y22526000D01*
X87884000Y19558000D02*
X87630000Y19812000D01*
X100330000Y24812000D02*
X102616000Y24812000D01*
X100330000Y22606000D02*
X100330000Y20046000D01*
X100330000Y22606000D02*
X100330000Y24812000D01*
X95504000Y22780000D02*
X95504000Y20046000D01*
X97790000Y22780000D02*
X95504000Y22780000D01*
X98044000Y19558000D02*
X97790000Y19812000D01*
X97790000Y19812000D02*
X97790000Y22780000D01*
X90678000Y20046000D02*
X90678000Y22780000D01*
X90678000Y22780000D02*
X92964000Y22780000D01*
X92964000Y22780000D02*
X92964000Y19304000D01*
X102870000Y20046000D02*
X102870000Y22098000D01*
X104671998Y23899998D02*
X104671998Y27178000D01*
X102870000Y22098000D02*
X104671998Y23899998D01*
X104671998Y27178000D02*
X104671998Y31472002D01*
X104671998Y31472002D02*
X103886000Y32258000D01*
X104671998Y27178000D02*
X104671998Y27686000D01*
X105410000Y20146000D02*
X107950000Y20146000D01*
X102870000Y20046000D02*
X105310000Y20046000D01*
X105310000Y20046000D02*
X105410000Y20146000D01*
X112776000Y30734000D02*
X112776000Y31242000D01*
X112776000Y25480000D02*
X112776000Y30734000D01*
X120142000Y22495000D02*
X117713000Y22495000D01*
X114728000Y25480000D02*
X112776000Y25480000D01*
X117713000Y22495000D02*
X114728000Y25480000D01*
X120142000Y20146000D02*
X120142000Y22495000D01*
X122682000Y20446000D02*
X120442000Y20446000D01*
X120442000Y20446000D02*
X120142000Y20146000D01*
X120142000Y25765000D02*
X120142000Y29718000D01*
X90678000Y30226000D02*
X90678000Y51905324D01*
X106910002Y57380002D02*
X107442000Y57912000D01*
X96152678Y57380002D02*
X106910002Y57380002D01*
X90678000Y51905324D02*
X96152678Y57380002D01*
X90678000Y30226000D02*
X90678000Y25480000D01*
X95504000Y29972000D02*
X95504000Y25480000D01*
X95758000Y30226000D02*
X95504000Y29972000D01*
X100330000Y30226000D02*
X100330000Y27512000D01*
X105410000Y15494000D02*
X105410000Y17446000D01*
X137414000Y17446000D02*
X137414000Y15240000D01*
X92964000Y25480000D02*
X92964000Y45720000D01*
X97790000Y25480000D02*
X97790000Y31496000D01*
X96774000Y55880000D02*
X109474000Y55880000D01*
X94742000Y53848000D02*
X96774000Y55880000D01*
X94742000Y32742002D02*
X94742000Y53848000D01*
X95226002Y32258000D02*
X94742000Y32742002D01*
X97028000Y32258000D02*
X95226002Y32258000D01*
X97790000Y31496000D02*
X97028000Y32258000D01*
X102616000Y27512000D02*
X102616000Y30988000D01*
X110998000Y54102000D02*
X112522000Y55626000D01*
X97790000Y54102000D02*
X110998000Y54102000D01*
X96520000Y52832000D02*
X97790000Y54102000D01*
X96520000Y35560000D02*
X96520000Y52832000D01*
X98321998Y33758002D02*
X96520000Y35560000D01*
X99845998Y33758002D02*
X98321998Y33758002D01*
X102616000Y30988000D02*
X99845998Y33758002D01*
X85344000Y25226000D02*
X85344000Y40616002D01*
X112268000Y59690000D02*
X115062000Y56896000D01*
X96341352Y59690000D02*
X112268000Y59690000D01*
X89177998Y52526646D02*
X96341352Y59690000D01*
X89177998Y44450000D02*
X89177998Y52526646D01*
X85344000Y40616002D02*
X89177998Y44450000D01*
X110236000Y30988000D02*
X110236000Y32004000D01*
X111760000Y33528000D02*
X131826000Y33528000D01*
X110236000Y32004000D02*
X111760000Y33528000D01*
X131826000Y33528000D02*
X131572000Y33528000D01*
X131572000Y33528000D02*
X131826000Y33528000D01*
X110236000Y25480000D02*
X110236000Y30988000D01*
X110236000Y30988000D02*
X110236000Y31242000D01*
X117348000Y48006000D02*
X117348000Y48260000D01*
X125984000Y39370000D02*
X117348000Y48006000D01*
X129540000Y39370000D02*
X125984000Y39370000D01*
X131826000Y37084000D02*
X129540000Y39370000D01*
X131826000Y33020000D02*
X131826000Y33528000D01*
X131572000Y32766000D02*
X131826000Y33020000D01*
X131826000Y33528000D02*
X131826000Y37084000D01*
X117094000Y66548000D02*
X107188000Y66548000D01*
X117348000Y66802000D02*
X117094000Y66548000D01*
X102870000Y64262000D02*
X102870000Y73660000D01*
X103124000Y64008000D02*
X102870000Y64262000D01*
D50*
G36*
X22338795Y63963626D02*
X22549158Y63858385D01*
X22716354Y63692940D01*
X22823801Y63483700D01*
X22864000Y63231609D01*
X22864000Y52635813D01*
X22784566Y52690088D01*
X22090380Y52830664D01*
X18549620Y52830664D01*
X17901109Y52708638D01*
X17305491Y52325369D01*
X16905912Y51740566D01*
X16765336Y51046380D01*
X16765336Y47505620D01*
X16887362Y46857109D01*
X17270631Y46261491D01*
X17855434Y45861912D01*
X18549620Y45721336D01*
X22090380Y45721336D01*
X22738891Y45843362D01*
X22864000Y45923867D01*
X22864000Y40648621D01*
X22802385Y40338861D01*
X22640867Y40097133D01*
X22399139Y39935615D01*
X22089379Y39874000D01*
X21851417Y39874000D01*
X21327462Y40091565D01*
X20332901Y40092433D01*
X19804252Y39874000D01*
X580000Y39874000D01*
X580000Y60931023D01*
X1024538Y60746435D01*
X2019099Y60745567D01*
X2938286Y61125367D01*
X3642161Y61828015D01*
X4023565Y62746538D01*
X4023797Y63012248D01*
X4140000Y62988716D01*
X4750000Y62988716D01*
X5092114Y63053089D01*
X5410000Y62988716D01*
X6020000Y62988716D01*
X6362114Y63053089D01*
X6680000Y62988716D01*
X7290000Y62988716D01*
X7632114Y63053089D01*
X7950000Y62988716D01*
X8560000Y62988716D01*
X9208511Y63110742D01*
X9804129Y63494011D01*
X10064188Y63874620D01*
X10363657Y63877772D01*
X10579367Y63355714D01*
X11282015Y62651839D01*
X12200538Y62270435D01*
X13195099Y62269567D01*
X14114286Y62649367D01*
X14513890Y63048275D01*
X14808000Y62988716D01*
X15418000Y62988716D01*
X15760114Y63053089D01*
X16078000Y62988716D01*
X16688000Y62988716D01*
X17030114Y63053089D01*
X17348000Y62988716D01*
X17958000Y62988716D01*
X18300114Y63053089D01*
X18618000Y62988716D01*
X19228000Y62988716D01*
X19876511Y63110742D01*
X20472129Y63494011D01*
X20809472Y63987729D01*
X22086300Y64001169D01*
X22338795Y63963626D01*
X22338795Y63963626D01*
G37*
X22338795Y63963626D02*
X22549158Y63858385D01*
X22716354Y63692940D01*
X22823801Y63483700D01*
X22864000Y63231609D01*
X22864000Y52635813D01*
X22784566Y52690088D01*
X22090380Y52830664D01*
X18549620Y52830664D01*
X17901109Y52708638D01*
X17305491Y52325369D01*
X16905912Y51740566D01*
X16765336Y51046380D01*
X16765336Y47505620D01*
X16887362Y46857109D01*
X17270631Y46261491D01*
X17855434Y45861912D01*
X18549620Y45721336D01*
X22090380Y45721336D01*
X22738891Y45843362D01*
X22864000Y45923867D01*
X22864000Y40648621D01*
X22802385Y40338861D01*
X22640867Y40097133D01*
X22399139Y39935615D01*
X22089379Y39874000D01*
X21851417Y39874000D01*
X21327462Y40091565D01*
X20332901Y40092433D01*
X19804252Y39874000D01*
X580000Y39874000D01*
X580000Y60931023D01*
X1024538Y60746435D01*
X2019099Y60745567D01*
X2938286Y61125367D01*
X3642161Y61828015D01*
X4023565Y62746538D01*
X4023797Y63012248D01*
X4140000Y62988716D01*
X4750000Y62988716D01*
X5092114Y63053089D01*
X5410000Y62988716D01*
X6020000Y62988716D01*
X6362114Y63053089D01*
X6680000Y62988716D01*
X7290000Y62988716D01*
X7632114Y63053089D01*
X7950000Y62988716D01*
X8560000Y62988716D01*
X9208511Y63110742D01*
X9804129Y63494011D01*
X10064188Y63874620D01*
X10363657Y63877772D01*
X10579367Y63355714D01*
X11282015Y62651839D01*
X12200538Y62270435D01*
X13195099Y62269567D01*
X14114286Y62649367D01*
X14513890Y63048275D01*
X14808000Y62988716D01*
X15418000Y62988716D01*
X15760114Y63053089D01*
X16078000Y62988716D01*
X16688000Y62988716D01*
X17030114Y63053089D01*
X17348000Y62988716D01*
X17958000Y62988716D01*
X18300114Y63053089D01*
X18618000Y62988716D01*
X19228000Y62988716D01*
X19876511Y63110742D01*
X20472129Y63494011D01*
X20809472Y63987729D01*
X22086300Y64001169D01*
X22338795Y63963626D01*
G36*
X29540000Y62988716D02*
X30150000Y62988716D01*
X30492114Y63053089D01*
X30810000Y62988716D01*
X31420000Y62988716D01*
X31762114Y63053089D01*
X32080000Y62988716D01*
X32690000Y62988716D01*
X33032114Y63053089D01*
X33350000Y62988716D01*
X33960000Y62988716D01*
X34471997Y63085055D01*
X35158015Y62397839D01*
X36076538Y62016435D01*
X37071099Y62015567D01*
X37990286Y62395367D01*
X38624448Y63028424D01*
X38678295Y57697596D01*
X33444662Y52463962D01*
X33395109Y52454638D01*
X32799491Y52071369D01*
X32399912Y51486566D01*
X32259336Y50792380D01*
X32259336Y50512020D01*
X32064000Y49530000D01*
X32064000Y49485217D01*
X31205492Y49485967D01*
X30194574Y49068264D01*
X29420455Y48295495D01*
X29000988Y47285307D01*
X29000033Y46191492D01*
X29417736Y45180574D01*
X30190505Y44406455D01*
X31200693Y43986988D01*
X32294508Y43986033D01*
X33305426Y44403736D01*
X34079545Y45176505D01*
X34200309Y45467336D01*
X34831980Y45467336D01*
X35814000Y45272000D01*
X36796020Y45467336D01*
X37584380Y45467336D01*
X38232891Y45589362D01*
X38796934Y45952313D01*
X38855436Y40160567D01*
X38816989Y39905584D01*
X38709565Y39693669D01*
X38690877Y39675103D01*
X37658990Y40706990D01*
X36929038Y41194729D01*
X36068000Y41366000D01*
X33388901Y41366000D01*
X33309495Y41445545D01*
X32299307Y41865012D01*
X31205492Y41865967D01*
X30194574Y41448264D01*
X29420455Y40675495D01*
X29000988Y39665307D01*
X29000874Y39534620D01*
X24887860Y39603170D01*
X24582237Y39668609D01*
X24344687Y39830940D01*
X24186336Y40071165D01*
X24126000Y40377830D01*
X24126000Y60730933D01*
X24744015Y60111839D01*
X25662538Y59730435D01*
X26657099Y59729567D01*
X27576286Y60109367D01*
X28280161Y60812015D01*
X28661565Y61730538D01*
X28661579Y61746533D01*
X28748729Y61876962D01*
X28776472Y62016435D01*
X28920000Y62738000D01*
X28920000Y63114269D01*
X29540000Y62988716D01*
X29540000Y62988716D01*
G37*
X29540000Y62988716D02*
X30150000Y62988716D01*
X30492114Y63053089D01*
X30810000Y62988716D01*
X31420000Y62988716D01*
X31762114Y63053089D01*
X32080000Y62988716D01*
X32690000Y62988716D01*
X33032114Y63053089D01*
X33350000Y62988716D01*
X33960000Y62988716D01*
X34471997Y63085055D01*
X35158015Y62397839D01*
X36076538Y62016435D01*
X37071099Y62015567D01*
X37990286Y62395367D01*
X38624448Y63028424D01*
X38678295Y57697596D01*
X33444662Y52463962D01*
X33395109Y52454638D01*
X32799491Y52071369D01*
X32399912Y51486566D01*
X32259336Y50792380D01*
X32259336Y50512020D01*
X32064000Y49530000D01*
X32064000Y49485217D01*
X31205492Y49485967D01*
X30194574Y49068264D01*
X29420455Y48295495D01*
X29000988Y47285307D01*
X29000033Y46191492D01*
X29417736Y45180574D01*
X30190505Y44406455D01*
X31200693Y43986988D01*
X32294508Y43986033D01*
X33305426Y44403736D01*
X34079545Y45176505D01*
X34200309Y45467336D01*
X34831980Y45467336D01*
X35814000Y45272000D01*
X36796020Y45467336D01*
X37584380Y45467336D01*
X38232891Y45589362D01*
X38796934Y45952313D01*
X38855436Y40160567D01*
X38816989Y39905584D01*
X38709565Y39693669D01*
X38690877Y39675103D01*
X37658990Y40706990D01*
X36929038Y41194729D01*
X36068000Y41366000D01*
X33388901Y41366000D01*
X33309495Y41445545D01*
X32299307Y41865012D01*
X31205492Y41865967D01*
X30194574Y41448264D01*
X29420455Y40675495D01*
X29000988Y39665307D01*
X29000874Y39534620D01*
X24887860Y39603170D01*
X24582237Y39668609D01*
X24344687Y39830940D01*
X24186336Y40071165D01*
X24126000Y40377830D01*
X24126000Y60730933D01*
X24744015Y60111839D01*
X25662538Y59730435D01*
X26657099Y59729567D01*
X27576286Y60109367D01*
X28280161Y60812015D01*
X28661565Y61730538D01*
X28661579Y61746533D01*
X28748729Y61876962D01*
X28776472Y62016435D01*
X28920000Y62738000D01*
X28920000Y63114269D01*
X29540000Y62988716D01*
G36*
X54157474Y63951161D02*
X54398293Y63791567D01*
X54409010Y63775745D01*
X54396435Y63745462D01*
X54395567Y62750901D01*
X54635107Y62171170D01*
X54670955Y58622170D01*
X54220371Y58622563D01*
X54219008Y58622000D01*
X54080157Y58622000D01*
X53759063Y58836548D01*
X52324000Y59121999D01*
X50888937Y58836548D01*
X50567843Y58622000D01*
X49785118Y58622000D01*
X49140371Y58622563D01*
X48607710Y58402472D01*
X48467630Y58374608D01*
X48349913Y58295952D01*
X47945428Y58128822D01*
X47632962Y57816901D01*
X47413254Y57670097D01*
X47267733Y57452309D01*
X47030391Y57215381D01*
X46900651Y56902931D01*
X46708743Y56615721D01*
X46641942Y56279892D01*
X46534566Y56021301D01*
X46534319Y55738836D01*
X46461351Y55372000D01*
X46533681Y55008371D01*
X46533437Y54728371D01*
X46641305Y54467310D01*
X46708743Y54128279D01*
X46899112Y53843372D01*
X47027178Y53533428D01*
X47266193Y53293995D01*
X47413254Y53073903D01*
X47631423Y52928127D01*
X47787278Y52772000D01*
X43434000Y52772000D01*
X41998937Y52486548D01*
X40782350Y51673650D01*
X39969452Y50457063D01*
X39874000Y49977194D01*
X39874000Y60730490D01*
X40238015Y60365839D01*
X41156538Y59984435D01*
X42151099Y59983567D01*
X43070286Y60363367D01*
X43774161Y61066015D01*
X44155565Y61984538D01*
X44155579Y62000533D01*
X44242729Y62130962D01*
X44269590Y62266000D01*
X44306504Y62451583D01*
X44732511Y62531742D01*
X45227006Y62849940D01*
X45796000Y62734716D01*
X46406000Y62734716D01*
X46748114Y62799089D01*
X47066000Y62734716D01*
X47676000Y62734716D01*
X48018114Y62799089D01*
X48336000Y62734716D01*
X48946000Y62734716D01*
X49288114Y62799089D01*
X49606000Y62734716D01*
X50216000Y62734716D01*
X50864511Y62856742D01*
X51460129Y63240011D01*
X51859708Y63824814D01*
X51897614Y64012000D01*
X53849585Y64012000D01*
X54157474Y63951161D01*
X54157474Y63951161D01*
G37*
X54157474Y63951161D02*
X54398293Y63791567D01*
X54409010Y63775745D01*
X54396435Y63745462D01*
X54395567Y62750901D01*
X54635107Y62171170D01*
X54670955Y58622170D01*
X54220371Y58622563D01*
X54219008Y58622000D01*
X54080157Y58622000D01*
X53759063Y58836548D01*
X52324000Y59121999D01*
X50888937Y58836548D01*
X50567843Y58622000D01*
X49785118Y58622000D01*
X49140371Y58622563D01*
X48607710Y58402472D01*
X48467630Y58374608D01*
X48349913Y58295952D01*
X47945428Y58128822D01*
X47632962Y57816901D01*
X47413254Y57670097D01*
X47267733Y57452309D01*
X47030391Y57215381D01*
X46900651Y56902931D01*
X46708743Y56615721D01*
X46641942Y56279892D01*
X46534566Y56021301D01*
X46534319Y55738836D01*
X46461351Y55372000D01*
X46533681Y55008371D01*
X46533437Y54728371D01*
X46641305Y54467310D01*
X46708743Y54128279D01*
X46899112Y53843372D01*
X47027178Y53533428D01*
X47266193Y53293995D01*
X47413254Y53073903D01*
X47631423Y52928127D01*
X47787278Y52772000D01*
X43434000Y52772000D01*
X41998937Y52486548D01*
X40782350Y51673650D01*
X39969452Y50457063D01*
X39874000Y49977194D01*
X39874000Y60730490D01*
X40238015Y60365839D01*
X41156538Y59984435D01*
X42151099Y59983567D01*
X43070286Y60363367D01*
X43774161Y61066015D01*
X44155565Y61984538D01*
X44155579Y62000533D01*
X44242729Y62130962D01*
X44269590Y62266000D01*
X44306504Y62451583D01*
X44732511Y62531742D01*
X45227006Y62849940D01*
X45796000Y62734716D01*
X46406000Y62734716D01*
X46748114Y62799089D01*
X47066000Y62734716D01*
X47676000Y62734716D01*
X48018114Y62799089D01*
X48336000Y62734716D01*
X48946000Y62734716D01*
X49288114Y62799089D01*
X49606000Y62734716D01*
X50216000Y62734716D01*
X50864511Y62856742D01*
X51460129Y63240011D01*
X51859708Y63824814D01*
X51897614Y64012000D01*
X53849585Y64012000D01*
X54157474Y63951161D01*
G36*
X76765555Y63942801D02*
X77008393Y63785652D01*
X77173094Y63547872D01*
X77240171Y63240896D01*
X77246666Y62912893D01*
X76845871Y62654989D01*
X76446292Y62070186D01*
X76305716Y61376000D01*
X76305716Y59876000D01*
X76427742Y59227489D01*
X76451752Y59190177D01*
X76446292Y59182186D01*
X76305716Y58488000D01*
X76305716Y56988000D01*
X76422759Y56365974D01*
X76305716Y55788000D01*
X76305716Y54288000D01*
X76427742Y53639489D01*
X76490000Y53542737D01*
X76490000Y53084664D01*
X73667620Y53084664D01*
X73019109Y52962638D01*
X72423491Y52579369D01*
X72023912Y51994566D01*
X71883336Y51300380D01*
X71883336Y48200000D01*
X67564000Y48200000D01*
X66128937Y47914548D01*
X64912350Y47101651D01*
X59914700Y42104000D01*
X55876000Y42104000D01*
X55876000Y47465542D01*
X56296548Y48094937D01*
X56480952Y49022000D01*
X56582000Y49530000D01*
X56582000Y51300380D01*
X56897336Y51300380D01*
X56897336Y47759620D01*
X57019362Y47111109D01*
X57402631Y46515491D01*
X57987434Y46115912D01*
X58681620Y45975336D01*
X62222380Y45975336D01*
X62870891Y46097362D01*
X63466509Y46480631D01*
X63866088Y47065434D01*
X64006664Y47759620D01*
X64006664Y51300380D01*
X63884638Y51948891D01*
X63501369Y52544509D01*
X62916566Y52944088D01*
X62222380Y53084664D01*
X58681620Y53084664D01*
X58033109Y52962638D01*
X57437491Y52579369D01*
X57037912Y51994566D01*
X56897336Y51300380D01*
X56582000Y51300380D01*
X56582000Y52565359D01*
X56702572Y52615178D01*
X57015038Y52927099D01*
X57234746Y53073903D01*
X57380267Y53291691D01*
X57617609Y53528619D01*
X57747349Y53841069D01*
X57939257Y54128279D01*
X58006058Y54464108D01*
X58113434Y54722699D01*
X58113681Y55005164D01*
X58186649Y55372000D01*
X58114319Y55735629D01*
X58114563Y56015629D01*
X58006695Y56276690D01*
X57939257Y56615721D01*
X57748888Y56900628D01*
X57620822Y57210572D01*
X57381807Y57450005D01*
X57234746Y57670097D01*
X57016577Y57815873D01*
X56707381Y58125609D01*
X56299627Y58294923D01*
X56180370Y58374608D01*
X56040926Y58402345D01*
X55876000Y58470828D01*
X55876000Y60962581D01*
X56396538Y60746435D01*
X57391099Y60745567D01*
X58310286Y61125367D01*
X59014161Y61828015D01*
X59274727Y62455529D01*
X59384710Y62620129D01*
X59583552Y62917716D01*
X60594000Y62917716D01*
X60945050Y62983771D01*
X61103814Y62875292D01*
X61798000Y62734716D01*
X62408000Y62734716D01*
X62750114Y62799089D01*
X63068000Y62734716D01*
X63678000Y62734716D01*
X64020114Y62799089D01*
X64338000Y62734716D01*
X64948000Y62734716D01*
X65290114Y62799089D01*
X65608000Y62734716D01*
X66218000Y62734716D01*
X66866511Y62856742D01*
X67462129Y63240011D01*
X67861708Y63824814D01*
X67877022Y63900437D01*
X76456618Y64000200D01*
X76765555Y63942801D01*
X76765555Y63942801D01*
G37*
X76765555Y63942801D02*
X77008393Y63785652D01*
X77173094Y63547872D01*
X77240171Y63240896D01*
X77246666Y62912893D01*
X76845871Y62654989D01*
X76446292Y62070186D01*
X76305716Y61376000D01*
X76305716Y59876000D01*
X76427742Y59227489D01*
X76451752Y59190177D01*
X76446292Y59182186D01*
X76305716Y58488000D01*
X76305716Y56988000D01*
X76422759Y56365974D01*
X76305716Y55788000D01*
X76305716Y54288000D01*
X76427742Y53639489D01*
X76490000Y53542737D01*
X76490000Y53084664D01*
X73667620Y53084664D01*
X73019109Y52962638D01*
X72423491Y52579369D01*
X72023912Y51994566D01*
X71883336Y51300380D01*
X71883336Y48200000D01*
X67564000Y48200000D01*
X66128937Y47914548D01*
X64912350Y47101651D01*
X59914700Y42104000D01*
X55876000Y42104000D01*
X55876000Y47465542D01*
X56296548Y48094937D01*
X56480952Y49022000D01*
X56582000Y49530000D01*
X56582000Y51300380D01*
X56897336Y51300380D01*
X56897336Y47759620D01*
X57019362Y47111109D01*
X57402631Y46515491D01*
X57987434Y46115912D01*
X58681620Y45975336D01*
X62222380Y45975336D01*
X62870891Y46097362D01*
X63466509Y46480631D01*
X63866088Y47065434D01*
X64006664Y47759620D01*
X64006664Y51300380D01*
X63884638Y51948891D01*
X63501369Y52544509D01*
X62916566Y52944088D01*
X62222380Y53084664D01*
X58681620Y53084664D01*
X58033109Y52962638D01*
X57437491Y52579369D01*
X57037912Y51994566D01*
X56897336Y51300380D01*
X56582000Y51300380D01*
X56582000Y52565359D01*
X56702572Y52615178D01*
X57015038Y52927099D01*
X57234746Y53073903D01*
X57380267Y53291691D01*
X57617609Y53528619D01*
X57747349Y53841069D01*
X57939257Y54128279D01*
X58006058Y54464108D01*
X58113434Y54722699D01*
X58113681Y55005164D01*
X58186649Y55372000D01*
X58114319Y55735629D01*
X58114563Y56015629D01*
X58006695Y56276690D01*
X57939257Y56615721D01*
X57748888Y56900628D01*
X57620822Y57210572D01*
X57381807Y57450005D01*
X57234746Y57670097D01*
X57016577Y57815873D01*
X56707381Y58125609D01*
X56299627Y58294923D01*
X56180370Y58374608D01*
X56040926Y58402345D01*
X55876000Y58470828D01*
X55876000Y60962581D01*
X56396538Y60746435D01*
X57391099Y60745567D01*
X58310286Y61125367D01*
X59014161Y61828015D01*
X59274727Y62455529D01*
X59384710Y62620129D01*
X59583552Y62917716D01*
X60594000Y62917716D01*
X60945050Y62983771D01*
X61103814Y62875292D01*
X61798000Y62734716D01*
X62408000Y62734716D01*
X62750114Y62799089D01*
X63068000Y62734716D01*
X63678000Y62734716D01*
X64020114Y62799089D01*
X64338000Y62734716D01*
X64948000Y62734716D01*
X65290114Y62799089D01*
X65608000Y62734716D01*
X66218000Y62734716D01*
X66866511Y62856742D01*
X67462129Y63240011D01*
X67861708Y63824814D01*
X67877022Y63900437D01*
X76456618Y64000200D01*
X76765555Y63942801D01*
G36*
X21069899Y78758255D02*
X21320559Y78714849D01*
X21527754Y78605231D01*
X21690765Y78436792D01*
X21793539Y78226117D01*
X21828713Y77974172D01*
X21613015Y66542171D01*
X21547080Y66237102D01*
X21384647Y66000103D01*
X21144623Y65842168D01*
X20838363Y65782000D01*
X16182693Y65782000D01*
X16182693Y66043000D01*
X16130396Y66320933D01*
X15966138Y66576198D01*
X15715508Y66747446D01*
X15418000Y66807693D01*
X14808000Y66807693D01*
X14530067Y66755396D01*
X14274802Y66591138D01*
X14235078Y66533000D01*
X13601026Y66533000D01*
X13556354Y66562849D01*
X13078000Y66658000D01*
X13013486Y66645167D01*
X12954000Y66657000D01*
X12523482Y66571364D01*
X12158505Y66327495D01*
X12012455Y66108915D01*
X11851428Y66042380D01*
X11590593Y65782000D01*
X5514693Y65782000D01*
X5514693Y66043000D01*
X5462396Y66320933D01*
X5298138Y66576198D01*
X5047508Y66747446D01*
X4750000Y66807693D01*
X4140000Y66807693D01*
X3862067Y66755396D01*
X3828296Y66733665D01*
X4041072Y78223613D01*
X4108041Y78531330D01*
X4273116Y78769627D01*
X4516639Y78926897D01*
X4826361Y78983860D01*
X21069899Y78758255D01*
X21069899Y78758255D01*
G37*
X21069899Y78758255D02*
X21320559Y78714849D01*
X21527754Y78605231D01*
X21690765Y78436792D01*
X21793539Y78226117D01*
X21828713Y77974172D01*
X21613015Y66542171D01*
X21547080Y66237102D01*
X21384647Y66000103D01*
X21144623Y65842168D01*
X20838363Y65782000D01*
X16182693Y65782000D01*
X16182693Y66043000D01*
X16130396Y66320933D01*
X15966138Y66576198D01*
X15715508Y66747446D01*
X15418000Y66807693D01*
X14808000Y66807693D01*
X14530067Y66755396D01*
X14274802Y66591138D01*
X14235078Y66533000D01*
X13601026Y66533000D01*
X13556354Y66562849D01*
X13078000Y66658000D01*
X13013486Y66645167D01*
X12954000Y66657000D01*
X12523482Y66571364D01*
X12158505Y66327495D01*
X12012455Y66108915D01*
X11851428Y66042380D01*
X11590593Y65782000D01*
X5514693Y65782000D01*
X5514693Y66043000D01*
X5462396Y66320933D01*
X5298138Y66576198D01*
X5047508Y66747446D01*
X4750000Y66807693D01*
X4140000Y66807693D01*
X3862067Y66755396D01*
X3828296Y66733665D01*
X4041072Y78223613D01*
X4108041Y78531330D01*
X4273116Y78769627D01*
X4516639Y78926897D01*
X4826361Y78983860D01*
X21069899Y78758255D01*
G36*
X36115139Y78682385D02*
X36356867Y78520867D01*
X36518385Y78279139D01*
X36580000Y77969379D01*
X36580000Y66302621D01*
X36576312Y66284078D01*
X36308468Y66016234D01*
X36278941Y66016260D01*
X35727428Y65788380D01*
X35466593Y65528000D01*
X30946130Y65528000D01*
X30914693Y65686046D01*
X30914693Y66043000D01*
X30862396Y66320933D01*
X30698138Y66576198D01*
X30447508Y66747446D01*
X30150000Y66807693D01*
X29540000Y66807693D01*
X29262067Y66755396D01*
X29006802Y66591138D01*
X28967078Y66533000D01*
X28952000Y66533000D01*
X28952000Y77969379D01*
X29013615Y78279139D01*
X29175133Y78520867D01*
X29416861Y78682385D01*
X29726621Y78744000D01*
X35805379Y78744000D01*
X36115139Y78682385D01*
X36115139Y78682385D01*
G37*
X36115139Y78682385D02*
X36356867Y78520867D01*
X36518385Y78279139D01*
X36580000Y77969379D01*
X36580000Y66302621D01*
X36576312Y66284078D01*
X36308468Y66016234D01*
X36278941Y66016260D01*
X35727428Y65788380D01*
X35466593Y65528000D01*
X30946130Y65528000D01*
X30914693Y65686046D01*
X30914693Y66043000D01*
X30862396Y66320933D01*
X30698138Y66576198D01*
X30447508Y66747446D01*
X30150000Y66807693D01*
X29540000Y66807693D01*
X29262067Y66755396D01*
X29006802Y66591138D01*
X28967078Y66533000D01*
X28952000Y66533000D01*
X28952000Y77969379D01*
X29013615Y78279139D01*
X29175133Y78520867D01*
X29416861Y78682385D01*
X29726621Y78744000D01*
X35805379Y78744000D01*
X36115139Y78682385D01*
G36*
X55094090Y78195362D02*
X55304180Y78086786D01*
X55469788Y77917962D01*
X55574305Y77705824D01*
X55610062Y77451668D01*
X55395375Y66287893D01*
X55329359Y65982916D01*
X55166909Y65746007D01*
X54926917Y65588141D01*
X54620726Y65528000D01*
X47170693Y65528000D01*
X47170693Y65789000D01*
X47118396Y66066933D01*
X46954138Y66322198D01*
X46703508Y66493446D01*
X46406000Y66553693D01*
X45796000Y66553693D01*
X45518067Y66501396D01*
X45262802Y66337138D01*
X45223078Y66279000D01*
X45212699Y66279000D01*
X45208000Y66302621D01*
X45208000Y77461379D01*
X45269615Y77771139D01*
X45431133Y78012867D01*
X45672861Y78174385D01*
X45982621Y78236000D01*
X54840670Y78236000D01*
X55094090Y78195362D01*
X55094090Y78195362D01*
G37*
X55094090Y78195362D02*
X55304180Y78086786D01*
X55469788Y77917962D01*
X55574305Y77705824D01*
X55610062Y77451668D01*
X55395375Y66287893D01*
X55329359Y65982916D01*
X55166909Y65746007D01*
X54926917Y65588141D01*
X54620726Y65528000D01*
X47170693Y65528000D01*
X47170693Y65789000D01*
X47118396Y66066933D01*
X46954138Y66322198D01*
X46703508Y66493446D01*
X46406000Y66553693D01*
X45796000Y66553693D01*
X45518067Y66501396D01*
X45262802Y66337138D01*
X45223078Y66279000D01*
X45212699Y66279000D01*
X45208000Y66302621D01*
X45208000Y77461379D01*
X45269615Y77771139D01*
X45431133Y78012867D01*
X45672861Y78174385D01*
X45982621Y78236000D01*
X54840670Y78236000D01*
X55094090Y78195362D01*
G36*
X72112407Y78449381D02*
X72322464Y78340849D01*
X72488064Y78172095D01*
X72592612Y77960032D01*
X72628444Y77705942D01*
X72413015Y66288171D01*
X72347080Y65983102D01*
X72184647Y65746103D01*
X71944623Y65588168D01*
X71638363Y65528000D01*
X63172693Y65528000D01*
X63172693Y65789000D01*
X63120396Y66066933D01*
X62956138Y66322198D01*
X62705508Y66493446D01*
X62408000Y66553693D01*
X61798000Y66553693D01*
X61520067Y66501396D01*
X61464000Y66465318D01*
X61464000Y77715379D01*
X61525615Y78025139D01*
X61687133Y78266867D01*
X61928861Y78428385D01*
X62238621Y78490000D01*
X71859041Y78490000D01*
X72112407Y78449381D01*
X72112407Y78449381D01*
G37*
X72112407Y78449381D02*
X72322464Y78340849D01*
X72488064Y78172095D01*
X72592612Y77960032D01*
X72628444Y77705942D01*
X72413015Y66288171D01*
X72347080Y65983102D01*
X72184647Y65746103D01*
X71944623Y65588168D01*
X71638363Y65528000D01*
X63172693Y65528000D01*
X63172693Y65789000D01*
X63120396Y66066933D01*
X62956138Y66322198D01*
X62705508Y66493446D01*
X62408000Y66553693D01*
X61798000Y66553693D01*
X61520067Y66501396D01*
X61464000Y66465318D01*
X61464000Y77715379D01*
X61525615Y78025139D01*
X61687133Y78266867D01*
X61928861Y78428385D01*
X62238621Y78490000D01*
X71859041Y78490000D01*
X72112407Y78449381D01*
G36*
X68838000Y91206360D02*
X68214350Y90789650D01*
X67401452Y89573063D01*
X67116001Y88138000D01*
X67401452Y86702937D01*
X67878000Y85989733D01*
X67878000Y82840000D01*
X68163452Y81404937D01*
X68243716Y81284814D01*
X68243716Y81040000D01*
X68365742Y80391489D01*
X68520083Y80151635D01*
X68316720Y80048671D01*
X68065540Y80009733D01*
X66410420Y80015774D01*
X66078259Y80348515D01*
X64737215Y80905365D01*
X63285155Y80906632D01*
X61943142Y80352124D01*
X61623704Y80033243D01*
X61402602Y80034050D01*
X61579650Y80152350D01*
X62392548Y81368937D01*
X62677999Y82804000D01*
X62392548Y84239063D01*
X61579650Y85455650D01*
X61289650Y85745650D01*
X60073063Y86558548D01*
X59914943Y86590000D01*
X58638000Y86844000D01*
X55118000Y86844000D01*
X54284890Y86678284D01*
X53518000Y86678284D01*
X52869489Y86556258D01*
X52273871Y86172989D01*
X51874292Y85588186D01*
X51733716Y84894000D01*
X51733716Y84649186D01*
X51653452Y84529063D01*
X51368000Y83094000D01*
X51653452Y81658937D01*
X51733716Y81538814D01*
X51733716Y81294000D01*
X51855742Y80645489D01*
X52227644Y80067535D01*
X50350352Y80074387D01*
X50330259Y80094515D01*
X48989215Y80651365D01*
X47537155Y80652632D01*
X46195142Y80098124D01*
X46186586Y80089583D01*
X39385441Y80114405D01*
X39116000Y80168000D01*
X33643287Y80168000D01*
X32479215Y80651365D01*
X31027155Y80652632D01*
X29809130Y80149355D01*
X27446028Y80157979D01*
X26990990Y80838991D01*
X26245149Y81584832D01*
X25996633Y82186286D01*
X25293985Y82890161D01*
X24375462Y83271565D01*
X23380901Y83272433D01*
X22461714Y82892633D01*
X21757839Y82189985D01*
X21376435Y81271462D01*
X21375567Y80276901D01*
X21415611Y80179988D01*
X19248597Y80187897D01*
X19088259Y80348515D01*
X17747215Y80905365D01*
X16295155Y80906632D01*
X14953142Y80352124D01*
X14804874Y80204115D01*
X12043774Y80214192D01*
X12133708Y80345814D01*
X12274284Y81040000D01*
X12274284Y81284814D01*
X12354548Y81404937D01*
X12640000Y82840000D01*
X12640000Y84618000D01*
X35366001Y84618000D01*
X35651452Y83182937D01*
X35731716Y83062814D01*
X35731716Y82818000D01*
X35853742Y82169489D01*
X36237011Y81573871D01*
X36821814Y81174292D01*
X37516000Y81033716D01*
X38282892Y81033716D01*
X39116000Y80868001D01*
X39949108Y81033716D01*
X40716000Y81033716D01*
X41364511Y81155742D01*
X41960129Y81539011D01*
X42359708Y82123814D01*
X42406727Y82356000D01*
X42926000Y82356000D01*
X44361063Y82641452D01*
X44372416Y82649038D01*
X45577651Y83454349D01*
X46390548Y84670937D01*
X46676000Y86106000D01*
X46612689Y86424284D01*
X46390548Y87541063D01*
X45934116Y88224161D01*
X45577651Y88757650D01*
X45541650Y88793650D01*
X44325063Y89606548D01*
X42890000Y89891999D01*
X42709020Y89856000D01*
X40604000Y89856000D01*
X39168937Y89570548D01*
X38681641Y89244947D01*
X37952350Y88757651D01*
X37369398Y88174699D01*
X36867489Y88080258D01*
X36271871Y87696989D01*
X35872292Y87112186D01*
X35731716Y86418000D01*
X35731716Y86173186D01*
X35651452Y86053063D01*
X35366001Y84618000D01*
X12640000Y84618000D01*
X12640000Y86868000D01*
X12354548Y88303063D01*
X12308120Y88372548D01*
X11541650Y89519651D01*
X10271650Y90789650D01*
X9055063Y91602548D01*
X8896943Y91634000D01*
X7647605Y91882509D01*
X8099342Y92970413D01*
X8100655Y94474986D01*
X7526093Y95865532D01*
X6944641Y96448000D01*
X68838000Y96448000D01*
X68838000Y91206360D01*
X68838000Y91206360D01*
G37*
X68838000Y91206360D02*
X68214350Y90789650D01*
X67401452Y89573063D01*
X67116001Y88138000D01*
X67401452Y86702937D01*
X67878000Y85989733D01*
X67878000Y82840000D01*
X68163452Y81404937D01*
X68243716Y81284814D01*
X68243716Y81040000D01*
X68365742Y80391489D01*
X68520083Y80151635D01*
X68316720Y80048671D01*
X68065540Y80009733D01*
X66410420Y80015774D01*
X66078259Y80348515D01*
X64737215Y80905365D01*
X63285155Y80906632D01*
X61943142Y80352124D01*
X61623704Y80033243D01*
X61402602Y80034050D01*
X61579650Y80152350D01*
X62392548Y81368937D01*
X62677999Y82804000D01*
X62392548Y84239063D01*
X61579650Y85455650D01*
X61289650Y85745650D01*
X60073063Y86558548D01*
X59914943Y86590000D01*
X58638000Y86844000D01*
X55118000Y86844000D01*
X54284890Y86678284D01*
X53518000Y86678284D01*
X52869489Y86556258D01*
X52273871Y86172989D01*
X51874292Y85588186D01*
X51733716Y84894000D01*
X51733716Y84649186D01*
X51653452Y84529063D01*
X51368000Y83094000D01*
X51653452Y81658937D01*
X51733716Y81538814D01*
X51733716Y81294000D01*
X51855742Y80645489D01*
X52227644Y80067535D01*
X50350352Y80074387D01*
X50330259Y80094515D01*
X48989215Y80651365D01*
X47537155Y80652632D01*
X46195142Y80098124D01*
X46186586Y80089583D01*
X39385441Y80114405D01*
X39116000Y80168000D01*
X33643287Y80168000D01*
X32479215Y80651365D01*
X31027155Y80652632D01*
X29809130Y80149355D01*
X27446028Y80157979D01*
X26990990Y80838991D01*
X26245149Y81584832D01*
X25996633Y82186286D01*
X25293985Y82890161D01*
X24375462Y83271565D01*
X23380901Y83272433D01*
X22461714Y82892633D01*
X21757839Y82189985D01*
X21376435Y81271462D01*
X21375567Y80276901D01*
X21415611Y80179988D01*
X19248597Y80187897D01*
X19088259Y80348515D01*
X17747215Y80905365D01*
X16295155Y80906632D01*
X14953142Y80352124D01*
X14804874Y80204115D01*
X12043774Y80214192D01*
X12133708Y80345814D01*
X12274284Y81040000D01*
X12274284Y81284814D01*
X12354548Y81404937D01*
X12640000Y82840000D01*
X12640000Y84618000D01*
X35366001Y84618000D01*
X35651452Y83182937D01*
X35731716Y83062814D01*
X35731716Y82818000D01*
X35853742Y82169489D01*
X36237011Y81573871D01*
X36821814Y81174292D01*
X37516000Y81033716D01*
X38282892Y81033716D01*
X39116000Y80868001D01*
X39949108Y81033716D01*
X40716000Y81033716D01*
X41364511Y81155742D01*
X41960129Y81539011D01*
X42359708Y82123814D01*
X42406727Y82356000D01*
X42926000Y82356000D01*
X44361063Y82641452D01*
X44372416Y82649038D01*
X45577651Y83454349D01*
X46390548Y84670937D01*
X46676000Y86106000D01*
X46612689Y86424284D01*
X46390548Y87541063D01*
X45934116Y88224161D01*
X45577651Y88757650D01*
X45541650Y88793650D01*
X44325063Y89606548D01*
X42890000Y89891999D01*
X42709020Y89856000D01*
X40604000Y89856000D01*
X39168937Y89570548D01*
X38681641Y89244947D01*
X37952350Y88757651D01*
X37369398Y88174699D01*
X36867489Y88080258D01*
X36271871Y87696989D01*
X35872292Y87112186D01*
X35731716Y86418000D01*
X35731716Y86173186D01*
X35651452Y86053063D01*
X35366001Y84618000D01*
X12640000Y84618000D01*
X12640000Y86868000D01*
X12354548Y88303063D01*
X12308120Y88372548D01*
X11541650Y89519651D01*
X10271650Y90789650D01*
X9055063Y91602548D01*
X8896943Y91634000D01*
X7647605Y91882509D01*
X8099342Y92970413D01*
X8100655Y94474986D01*
X7526093Y95865532D01*
X6944641Y96448000D01*
X68838000Y96448000D01*
X68838000Y91206360D01*
G36*
X147127062Y97220267D02*
X147368688Y97063216D01*
X147532659Y96826227D01*
X147599782Y96520452D01*
X147880000Y83490303D01*
X147880000Y74445334D01*
X147755609Y74319157D01*
X147543804Y74210869D01*
X147288629Y74171596D01*
X114309260Y74410577D01*
X114058501Y74452255D01*
X113850704Y74560332D01*
X113686601Y74727456D01*
X113582328Y74937191D01*
X113545232Y75188660D01*
X113649830Y84707063D01*
X115113074Y86170307D01*
X117105000Y86170307D01*
X117382933Y86222604D01*
X117638198Y86386862D01*
X117809446Y86637492D01*
X117869693Y86935000D01*
X117869693Y88325000D01*
X117817396Y88602933D01*
X117653138Y88858198D01*
X117402508Y89029446D01*
X117105000Y89089693D01*
X113697990Y89089693D01*
X113721733Y91250307D01*
X117105000Y91250307D01*
X117382933Y91302604D01*
X117638198Y91466862D01*
X117809446Y91717492D01*
X117869693Y92015000D01*
X117869693Y92921054D01*
X141743518Y92921054D01*
X142166160Y91898182D01*
X142948066Y91114910D01*
X143970198Y90690484D01*
X145076946Y90689518D01*
X146099818Y91112160D01*
X146883090Y91894066D01*
X147307516Y92916198D01*
X147308482Y94022946D01*
X146885840Y95045818D01*
X146103934Y95829090D01*
X145081802Y96253516D01*
X143975054Y96254482D01*
X142952182Y95831840D01*
X142168910Y95049934D01*
X141744484Y94027802D01*
X141743518Y92921054D01*
X117869693Y92921054D01*
X117869693Y93405000D01*
X117817396Y93682933D01*
X117653138Y93938198D01*
X117402508Y94109446D01*
X117105000Y94169693D01*
X113753814Y94169693D01*
X113776930Y96273212D01*
X113840495Y96578873D01*
X114001148Y96817190D01*
X114240038Y96976988D01*
X114545928Y97039459D01*
X146819476Y97278522D01*
X147127062Y97220267D01*
X147127062Y97220267D01*
G37*
X147127062Y97220267D02*
X147368688Y97063216D01*
X147532659Y96826227D01*
X147599782Y96520452D01*
X147880000Y83490303D01*
X147880000Y74445334D01*
X147755609Y74319157D01*
X147543804Y74210869D01*
X147288629Y74171596D01*
X114309260Y74410577D01*
X114058501Y74452255D01*
X113850704Y74560332D01*
X113686601Y74727456D01*
X113582328Y74937191D01*
X113545232Y75188660D01*
X113649830Y84707063D01*
X115113074Y86170307D01*
X117105000Y86170307D01*
X117382933Y86222604D01*
X117638198Y86386862D01*
X117809446Y86637492D01*
X117869693Y86935000D01*
X117869693Y88325000D01*
X117817396Y88602933D01*
X117653138Y88858198D01*
X117402508Y89029446D01*
X117105000Y89089693D01*
X113697990Y89089693D01*
X113721733Y91250307D01*
X117105000Y91250307D01*
X117382933Y91302604D01*
X117638198Y91466862D01*
X117809446Y91717492D01*
X117869693Y92015000D01*
X117869693Y92921054D01*
X141743518Y92921054D01*
X142166160Y91898182D01*
X142948066Y91114910D01*
X143970198Y90690484D01*
X145076946Y90689518D01*
X146099818Y91112160D01*
X146883090Y91894066D01*
X147307516Y92916198D01*
X147308482Y94022946D01*
X146885840Y95045818D01*
X146103934Y95829090D01*
X145081802Y96253516D01*
X143975054Y96254482D01*
X142952182Y95831840D01*
X142168910Y95049934D01*
X141744484Y94027802D01*
X141743518Y92921054D01*
X117869693Y92921054D01*
X117869693Y93405000D01*
X117817396Y93682933D01*
X117653138Y93938198D01*
X117402508Y94109446D01*
X117105000Y94169693D01*
X113753814Y94169693D01*
X113776930Y96273212D01*
X113840495Y96578873D01*
X114001148Y96817190D01*
X114240038Y96976988D01*
X114545928Y97039459D01*
X146819476Y97278522D01*
X147127062Y97220267D01*
M02*
