M48
METRIC,TZ
T1C0.700
T2C0.800
T3C1.001
T4C1.500
T5C1.524
T6C3.000
T7C3.048
%
G90
G05
T1
X21590Y30836
X24892Y40538
X27622Y40386
X28956Y48832
X30226Y46736
X32766Y46736
X36246Y58039
X36386Y41974
X38989Y35789
X39218Y48641
X44069Y34163
X46101Y29235
X48489Y33960
X57404Y49022
X57404Y45466
X70256Y13310
X82144Y14199
T2
X10795Y27559
X10875Y7399
X20955Y27559
X20955Y7239
X25400Y43942
X25717Y31687
X27940Y43942
X28258Y31687
X30480Y43942
X30798Y31687
X31496Y54158
X31496Y51618
X33020Y43942
X33338Y31687
X34036Y54158
X34036Y51618
X35560Y43942
X35878Y31687
X36576Y54158
X36576Y51618
X38100Y43942
X38417Y31687
X39116Y54158
X39116Y51618
X40957Y31687
X41656Y54158
X41656Y51618
X43498Y31687
X44196Y54158
X44196Y51618
X46038Y31687
X46736Y54158
X46736Y51618
X48578Y31687
X49276Y54158
X49276Y51618
X51816Y54158
X51816Y51618
X54356Y54158
X54356Y51618
X56896Y54158
X56896Y51618
X59436Y54158
X59436Y51618
X61976Y54158
X61976Y51618
X64516Y54158
X64516Y51618
X67056Y54158
X67056Y51618
X68152Y29972
X69596Y54158
X69596Y51618
X72136Y54158
X72136Y51618
X73152Y29972
X74676Y54158
X74676Y51618
X77216Y54158
X77216Y51618
X79756Y54158
X79756Y51618
T3
X4318Y3429
X11938Y3429
T4
X11557Y53363
X11557Y33363
T5
X4318Y13208
X4318Y8128
X33020Y8509
X38100Y8509
X43180Y8509
X48260Y8509
X53340Y8509
X58293Y8509
X63373Y8509
X68453Y8509
X73533Y8509
X78613Y8509
T6
X26626Y52888
X84626Y52888
X84626Y29888
T7
X26607Y4000
X84582Y52959
X84582Y3810
T0
M30
