G04 #@! TF.FileFunction,Copper,L2,Bot,Signal*
%FSLAX46Y46*%
G04 Gerber Fmt 4.6, Leading zero omitted, Abs format (unit mm)*
G04 Created by KiCad (PCBNEW 4.0.6) date Wednesday, 29 December 2021 'AMt' 09:41:43*
%MOMM*%
%LPD*%
G01*
G04 APERTURE LIST*
%ADD10C,0.100000*%
%ADD11O,1.200000X2.000000*%
%ADD12C,4.064000*%
%ADD13C,4.000000*%
%ADD14C,2.000000*%
%ADD15R,1.250000X1.500000*%
%ADD16R,3.600000X3.200000*%
%ADD17R,3.200000X3.600000*%
%ADD18C,3.810000*%
%ADD19R,3.810000X3.810000*%
%ADD20R,2.540000X2.540000*%
%ADD21C,2.540000*%
%ADD22R,1.300000X1.500000*%
%ADD23R,1.500000X1.300000*%
%ADD24R,2.500000X0.900000*%
%ADD25C,1.998980*%
%ADD26C,1.500000*%
%ADD27C,3.000000*%
%ADD28R,2.000000X2.500000*%
%ADD29C,1.200000*%
%ADD30C,0.700000*%
%ADD31C,1.000000*%
G04 APERTURE END LIST*
D10*
D11*
X48577500Y31686500D03*
X46037500Y31686500D03*
X43497500Y31686500D03*
X40957500Y31686500D03*
X38417500Y31686500D03*
X35877500Y31686500D03*
X33337500Y31686500D03*
X30797500Y31686500D03*
X28257500Y31686500D03*
X25717500Y31686500D03*
D12*
X26606500Y4000500D03*
X84582000Y3810000D03*
X84582000Y52959000D03*
D13*
X84626000Y29888000D03*
X26626000Y52888000D03*
D14*
X31496000Y54158000D03*
X31496000Y51618000D03*
X34036000Y54158000D03*
X34036000Y51618000D03*
X36576000Y54158000D03*
X36576000Y51618000D03*
X39116000Y54158000D03*
X39116000Y51618000D03*
X41656000Y54158000D03*
X41656000Y51618000D03*
X44196000Y54158000D03*
X44196000Y51618000D03*
X46736000Y54158000D03*
X46736000Y51618000D03*
X49276000Y54158000D03*
X49276000Y51618000D03*
X51816000Y54158000D03*
X51816000Y51618000D03*
X54356000Y54158000D03*
X54356000Y51618000D03*
X56896000Y54158000D03*
X56896000Y51618000D03*
X59436000Y54158000D03*
X59436000Y51618000D03*
X61976000Y54158000D03*
X61976000Y51618000D03*
X64516000Y54158000D03*
X64516000Y51618000D03*
X67056000Y54158000D03*
X67056000Y51618000D03*
X69596000Y54158000D03*
X69596000Y51618000D03*
X72136000Y54158000D03*
X72136000Y51618000D03*
X74676000Y54158000D03*
X74676000Y51618000D03*
X77216000Y54158000D03*
X77216000Y51618000D03*
X79756000Y54158000D03*
X79756000Y51618000D03*
D13*
X84626000Y52888000D03*
X11557000Y33363000D03*
X11557000Y53363000D03*
D15*
X34671000Y37318000D03*
X34671000Y34818000D03*
X32766000Y37318000D03*
X32766000Y34818000D03*
X27051000Y37318000D03*
X27051000Y34818000D03*
X25146000Y37318000D03*
X25146000Y34818000D03*
D16*
X73442000Y17653000D03*
X65242000Y17653000D03*
D17*
X79070200Y17693200D03*
X79070200Y25893200D03*
D16*
X19848000Y11430000D03*
X11648000Y11430000D03*
D18*
X38100000Y8509000D03*
X43180000Y8509000D03*
D19*
X33020000Y8509000D03*
D18*
X48260000Y8509000D03*
X53340000Y8509000D03*
D20*
X4318000Y13208000D03*
D21*
X4318000Y8128000D03*
D20*
X73533000Y8509000D03*
D21*
X78613000Y8509000D03*
D22*
X36576000Y37418000D03*
X36576000Y34718000D03*
X40957500Y25764500D03*
X40957500Y28464500D03*
X30861000Y37418000D03*
X30861000Y34718000D03*
X28956000Y37418000D03*
X28956000Y34718000D03*
X43497500Y25828000D03*
X43497500Y28528000D03*
X23241000Y37418000D03*
X23241000Y34718000D03*
X25781000Y25828000D03*
X25781000Y28528000D03*
X28321000Y25828000D03*
X28321000Y28528000D03*
X30861000Y25828000D03*
X30861000Y28528000D03*
X33401000Y25828000D03*
X33401000Y28528000D03*
D23*
X58162200Y13411200D03*
X60862200Y13411200D03*
D24*
X78867000Y11250000D03*
X78867000Y14150000D03*
D25*
X11938000Y3429000D03*
X4318000Y3429000D03*
D11*
X38100000Y43942000D03*
X35560000Y43942000D03*
X33020000Y43942000D03*
X30480000Y43942000D03*
X27940000Y43942000D03*
X25400000Y43942000D03*
D26*
X73152000Y29972000D03*
X68152000Y29972000D03*
D20*
X58293000Y8509000D03*
D21*
X63373000Y8509000D03*
X68453000Y8509000D03*
D24*
X73507600Y10869000D03*
X73507600Y13769000D03*
D27*
X10795000Y27559000D03*
X20955000Y7239000D03*
X20955000Y27559000D03*
X10875000Y7399000D03*
D28*
X17748000Y22225000D03*
X13748000Y22225000D03*
X17875000Y27432000D03*
X13875000Y27432000D03*
D16*
X19721000Y17145000D03*
X11521000Y17145000D03*
D29*
X24892000Y40538400D03*
X46101000Y29235400D03*
X36245800Y58039000D03*
X27622500Y40386000D03*
X36385500Y41973500D03*
X48488600Y33959800D03*
X28956000Y48831500D03*
X21590000Y30835600D03*
X70256400Y13309600D03*
X82143600Y14198600D03*
X39217600Y48641000D03*
X38989000Y35788600D03*
X30226000Y46736000D03*
X44069000Y34163000D03*
X32766000Y46736000D03*
X57404000Y49022000D03*
X57404000Y45466000D03*
D30*
X24892000Y40538400D02*
X18732400Y40538400D01*
X18732400Y40538400D02*
X11557000Y33363000D01*
X68021200Y4368800D02*
X79171800Y4368800D01*
X84582000Y20381400D02*
X79070200Y25893200D01*
X84582000Y9779000D02*
X84582000Y20381400D01*
X79171800Y4368800D02*
X84582000Y9779000D01*
X68453000Y8509000D02*
X68453000Y14442000D01*
X68453000Y14442000D02*
X65242000Y17653000D01*
D31*
X11557000Y53363000D02*
X11557000Y53797200D01*
X11557000Y53797200D02*
X16332200Y58572400D01*
X35712400Y58572400D02*
X36245800Y58039000D01*
X16332200Y58572400D02*
X35712400Y58572400D01*
X10795000Y27559000D02*
X6451600Y27559000D01*
X5410200Y47216200D02*
X11557000Y53363000D01*
X5410200Y28600400D02*
X5410200Y47216200D01*
X6451600Y27559000D02*
X5410200Y28600400D01*
X10795000Y27559000D02*
X13748000Y27559000D01*
X13748000Y27559000D02*
X13875000Y27432000D01*
X11521000Y19812000D02*
X11521000Y26833000D01*
X11521000Y26833000D02*
X10795000Y27559000D01*
X11521000Y17145000D02*
X11521000Y19812000D01*
X11521000Y19812000D02*
X11521000Y19998000D01*
X11521000Y19998000D02*
X13748000Y22225000D01*
X11648000Y11430000D02*
X11648000Y17018000D01*
X11648000Y17018000D02*
X11521000Y17145000D01*
X4318000Y13208000D02*
X9870000Y13208000D01*
X9870000Y13208000D02*
X11648000Y11430000D01*
X53314600Y5410200D02*
X53390800Y5410200D01*
X68453000Y4800600D02*
X68453000Y8509000D01*
X66294000Y2641600D02*
X68021200Y4368800D01*
X68021200Y4368800D02*
X68453000Y4800600D01*
X56159400Y2641600D02*
X66294000Y2641600D01*
X53390800Y5410200D02*
X56159400Y2641600D01*
X4318000Y13208000D02*
X3352800Y13208000D01*
X3352800Y13208000D02*
X1193800Y11049000D01*
X1193800Y11049000D02*
X1193800Y2616200D01*
X1193800Y2616200D02*
X2641600Y1168400D01*
X2641600Y1168400D02*
X19456400Y1168400D01*
X19456400Y1168400D02*
X23952200Y5664200D01*
X23952200Y5664200D02*
X23952200Y7010400D01*
X23952200Y7010400D02*
X24460200Y7518400D01*
X24460200Y7518400D02*
X28168600Y7518400D01*
X28168600Y7518400D02*
X33045400Y2641600D01*
X33045400Y2641600D02*
X50546000Y2641600D01*
X50546000Y2641600D02*
X53314600Y5410200D01*
X53314600Y5410200D02*
X53340000Y5435600D01*
X53340000Y5435600D02*
X53340000Y8509000D01*
D30*
X46037500Y29298900D02*
X46037500Y31686500D01*
X46101000Y29235400D02*
X46037500Y29298900D01*
X36385500Y41973500D02*
X43065700Y41973500D01*
X43065700Y41973500D02*
X46037500Y39001700D01*
X46037500Y39001700D02*
X46037500Y31686500D01*
D31*
X27622500Y40386000D02*
X27051000Y39814500D01*
D30*
X27051000Y39814500D02*
X27051000Y37318000D01*
X35560000Y43942000D02*
X35560000Y42799000D01*
X35560000Y42799000D02*
X36385500Y41973500D01*
X34671000Y37318000D02*
X36476000Y37318000D01*
D31*
X36476000Y37318000D02*
X36576000Y37418000D01*
D30*
X32766000Y37318000D02*
X34671000Y37318000D01*
X30861000Y37418000D02*
X32666000Y37418000D01*
D31*
X32666000Y37418000D02*
X32766000Y37318000D01*
D30*
X28956000Y37418000D02*
X30861000Y37418000D01*
X27051000Y37318000D02*
X28856000Y37318000D01*
D31*
X28856000Y37318000D02*
X28956000Y37418000D01*
D30*
X25146000Y37318000D02*
X27051000Y37318000D01*
X23241000Y37418000D02*
X25046000Y37418000D01*
D31*
X25046000Y37418000D02*
X25146000Y37318000D01*
D30*
X13995400Y27432000D02*
X13893800Y27533600D01*
X48357800Y25828000D02*
X48357800Y23215600D01*
X48357800Y23215600D02*
X58293000Y13280400D01*
X58293000Y13280400D02*
X58293000Y8509000D01*
X43497500Y25828000D02*
X48357800Y25828000D01*
X48577500Y26047700D02*
X48577500Y31686500D01*
X48357800Y25828000D02*
X48577500Y26047700D01*
X48488600Y33959800D02*
X48488600Y38247660D01*
X42794260Y43942000D02*
X38100000Y43942000D01*
X48488600Y38247660D02*
X42794260Y43942000D01*
X48577500Y31686500D02*
X48577500Y33870900D01*
X48577500Y33870900D02*
X48488600Y33959800D01*
X36576000Y48831500D02*
X28956000Y48831500D01*
X40957500Y25764500D02*
X43434000Y25764500D01*
D31*
X43434000Y25764500D02*
X43497500Y25828000D01*
D30*
X38100000Y43942000D02*
X38100000Y47307500D01*
X38100000Y47307500D02*
X36576000Y48831500D01*
X33337500Y31686500D02*
X33337500Y28591500D01*
X33337500Y28591500D02*
X33401000Y28528000D01*
X34671000Y34818000D02*
X34671000Y33909000D01*
X34671000Y33909000D02*
X33337500Y32575500D01*
X33337500Y32575500D02*
X33337500Y31686500D01*
X34671000Y34818000D02*
X36476000Y34818000D01*
D31*
X36476000Y34818000D02*
X36576000Y34718000D01*
D30*
X30797500Y31686500D02*
X30797500Y28591500D01*
X30797500Y28591500D02*
X30861000Y28528000D01*
X30861000Y34718000D02*
X30861000Y31750000D01*
D31*
X30861000Y31750000D02*
X30797500Y31686500D01*
D30*
X30861000Y34718000D02*
X32666000Y34718000D01*
X32666000Y34718000D02*
X32766000Y34818000D01*
X28257500Y31686500D02*
X28257500Y28591500D01*
X28257500Y28591500D02*
X28321000Y28528000D01*
X28257500Y31686500D02*
X28257500Y34019500D01*
X28257500Y34019500D02*
X28956000Y34718000D01*
X27051000Y34818000D02*
X28856000Y34818000D01*
D31*
X28856000Y34818000D02*
X28956000Y34718000D01*
D30*
X25717500Y31686500D02*
X25717500Y28591500D01*
X25717500Y28591500D02*
X25781000Y28528000D01*
X25717500Y31686500D02*
X25717500Y32766000D01*
X25146000Y33337500D02*
X25146000Y34818000D01*
X25717500Y32766000D02*
X25146000Y33337500D01*
X23241000Y34718000D02*
X25046000Y34718000D01*
D31*
X25046000Y34718000D02*
X25146000Y34818000D01*
X20955000Y27559000D02*
X20955000Y30200600D01*
X20955000Y30200600D02*
X21590000Y30835600D01*
X17875000Y27432000D02*
X20828000Y27432000D01*
X20828000Y27432000D02*
X20955000Y27559000D01*
X19721000Y17145000D02*
X19721000Y20252000D01*
X19721000Y20252000D02*
X17748000Y22225000D01*
X19848000Y11430000D02*
X19848000Y17018000D01*
X19848000Y17018000D02*
X19721000Y17145000D01*
X20955000Y7239000D02*
X20955000Y10323000D01*
X20955000Y10323000D02*
X19848000Y11430000D01*
X11938000Y3429000D02*
X17145000Y3429000D01*
X17145000Y3429000D02*
X20955000Y7239000D01*
D30*
X70715800Y13769000D02*
X70256400Y13309600D01*
X73507600Y13769000D02*
X70715800Y13769000D01*
X73442000Y17653000D02*
X73442000Y13834600D01*
X73442000Y13834600D02*
X73507600Y13769000D01*
X78867000Y14150000D02*
X82095000Y14150000D01*
X82095000Y14150000D02*
X82143600Y14198600D01*
X79070200Y17693200D02*
X79070200Y14353200D01*
X79070200Y14353200D02*
X78867000Y14150000D01*
X53229500Y31673800D02*
X53229500Y23173700D01*
X60862200Y15541000D02*
X60862200Y13788400D01*
X53229500Y23173700D02*
X60862200Y15541000D01*
X60862200Y13788400D02*
X63373000Y11277600D01*
X63373000Y11277600D02*
X63373000Y8509000D01*
X39217600Y48641000D02*
X39792320Y48641000D01*
X53229500Y35203820D02*
X53229500Y31673800D01*
X53229500Y31673800D02*
X53229500Y31512500D01*
X39792320Y48641000D02*
X53229500Y35203820D01*
X28321000Y25828000D02*
X28321000Y22982260D01*
X38100000Y13203260D02*
X38100000Y8509000D01*
X28321000Y22982260D02*
X38100000Y13203260D01*
X30861000Y25828000D02*
X30861000Y22139320D01*
X30861000Y22139320D02*
X43180000Y9820320D01*
X43180000Y9820320D02*
X43180000Y8509000D01*
X25781000Y25828000D02*
X25781000Y23825200D01*
X33020000Y16586200D02*
X33020000Y8509000D01*
X25781000Y23825200D02*
X33020000Y16586200D01*
X33401000Y25828000D02*
X33401000Y21296380D01*
X43815000Y12954000D02*
X48260000Y8509000D01*
X41743380Y12954000D02*
X43815000Y12954000D01*
X33401000Y21296380D02*
X41743380Y12954000D01*
D31*
X4318000Y3429000D02*
X4318000Y8128000D01*
D30*
X73507600Y10869000D02*
X73507600Y8534400D01*
X73507600Y8534400D02*
X73533000Y8509000D01*
X78867000Y11250000D02*
X78867000Y8763000D01*
X78867000Y8763000D02*
X78613000Y8509000D01*
X39547800Y35229800D02*
X40957500Y35229800D01*
X38989000Y35788600D02*
X39547800Y35229800D01*
X32448500Y39179500D02*
X40398700Y39179500D01*
X32448500Y39179500D02*
X30480000Y41148000D01*
X30480000Y43942000D02*
X30480000Y41148000D01*
X40957500Y38620700D02*
X40957500Y35229800D01*
X40957500Y35229800D02*
X40957500Y31686500D01*
X40398700Y39179500D02*
X40957500Y38620700D01*
X40957500Y28464500D02*
X40957500Y31686500D01*
D31*
X30226000Y46736000D02*
X30480000Y46482000D01*
D30*
X30480000Y46482000D02*
X30480000Y43942000D01*
X43497500Y33934400D02*
X43840400Y33934400D01*
X43840400Y33934400D02*
X44069000Y34163000D01*
X43497500Y31686500D02*
X43497500Y33934400D01*
X43497500Y33934400D02*
X43497500Y39382700D01*
X33020000Y40760502D02*
X33401000Y40379502D01*
X33020000Y42926000D02*
X33020000Y43942000D01*
X33020000Y42926000D02*
X33020000Y40760502D01*
X42500698Y40379502D02*
X33401000Y40379502D01*
X43497500Y39382700D02*
X42500698Y40379502D01*
D31*
X33020000Y46482000D02*
X33020000Y43942000D01*
X32766000Y46736000D02*
X33020000Y46482000D01*
D30*
X43454236Y31729764D02*
X43497500Y31686500D01*
X43497500Y28528000D02*
X43497500Y31686500D01*
X57404000Y49022000D02*
X57404000Y45466000D01*
D31*
G36*
X88170800Y31783505D02*
X88019013Y32150858D01*
X86894777Y33277058D01*
X85425140Y33887305D01*
X83833841Y33888693D01*
X82363142Y33281013D01*
X81236942Y32156777D01*
X80626695Y30687140D01*
X80625307Y29095841D01*
X81232987Y27625142D01*
X82357223Y26498942D01*
X83826860Y25888695D01*
X85148200Y25887542D01*
X85148200Y7841508D01*
X83783504Y7842699D01*
X82301039Y7230157D01*
X81165829Y6096927D01*
X80550701Y4615533D01*
X80549301Y3011504D01*
X81030547Y1846800D01*
X30077992Y1846800D01*
X30637799Y3194967D01*
X30639079Y4661195D01*
X31115000Y4564818D01*
X34925000Y4564818D01*
X35666156Y4704276D01*
X36220669Y5061095D01*
X37319840Y4604680D01*
X38873345Y4603324D01*
X40309115Y5196572D01*
X40639614Y5526495D01*
X40965107Y5200433D01*
X42399840Y4604680D01*
X43953345Y4603324D01*
X45389115Y5196572D01*
X45719614Y5526495D01*
X46045107Y5200433D01*
X47479840Y4604680D01*
X49033345Y4603324D01*
X50469115Y5196572D01*
X51568567Y6294107D01*
X52164320Y7728840D01*
X52165676Y9282345D01*
X51572428Y10718115D01*
X50474893Y11817567D01*
X49040160Y12413320D01*
X47677893Y12414509D01*
X45476701Y14615701D01*
X44714306Y15125117D01*
X43815000Y15304000D01*
X42716782Y15304000D01*
X35751000Y22269782D01*
X35751000Y24023367D01*
X35929523Y24284644D01*
X36090182Y25078000D01*
X36090182Y26578000D01*
X35973139Y27200028D01*
X36090182Y27778000D01*
X36090182Y28670032D01*
X36872477Y28825640D01*
X37147500Y29009404D01*
X37422523Y28825640D01*
X38268318Y28657401D01*
X38268318Y27714500D01*
X38385361Y27092472D01*
X38268318Y26514500D01*
X38268318Y25014500D01*
X38407776Y24273344D01*
X38845798Y23592638D01*
X39514144Y23135977D01*
X40307500Y22975318D01*
X41607500Y22975318D01*
X42348656Y23114776D01*
X42378279Y23133838D01*
X42847500Y23038818D01*
X44147500Y23038818D01*
X44888656Y23178276D01*
X45354441Y23478000D01*
X46007800Y23478000D01*
X46007800Y23215600D01*
X46186683Y22316294D01*
X46696099Y21553899D01*
X55373018Y12876980D01*
X55373018Y12761200D01*
X55512476Y12020044D01*
X55893083Y11428563D01*
X55601138Y11240702D01*
X55144477Y10572356D01*
X54983818Y9779000D01*
X54983818Y7239000D01*
X55123276Y6497844D01*
X55561298Y5817138D01*
X56229644Y5360477D01*
X57023000Y5199818D01*
X59563000Y5199818D01*
X60304156Y5339276D01*
X60984862Y5777298D01*
X61185849Y6071452D01*
X61518275Y5738445D01*
X62719703Y5239569D01*
X64020590Y5238434D01*
X65222886Y5735213D01*
X66143555Y6654275D01*
X66642431Y7855703D01*
X66643566Y9156590D01*
X66146787Y10358886D01*
X65723000Y10783414D01*
X65723000Y11277600D01*
X65544117Y12176906D01*
X65131323Y12794697D01*
X67655950Y12794697D01*
X68050942Y11838742D01*
X68781695Y11106713D01*
X69736959Y10710052D01*
X70218418Y10709632D01*
X70218418Y10419000D01*
X70283442Y10073429D01*
X70223818Y9779000D01*
X70223818Y7239000D01*
X70363276Y6497844D01*
X70801298Y5817138D01*
X71469644Y5360477D01*
X72263000Y5199818D01*
X74803000Y5199818D01*
X75544156Y5339276D01*
X76224862Y5777298D01*
X76425849Y6071452D01*
X76758275Y5738445D01*
X77959703Y5239569D01*
X79260590Y5238434D01*
X80462886Y5735213D01*
X81383555Y6654275D01*
X81882431Y7855703D01*
X81883566Y9156590D01*
X81706880Y9584201D01*
X81995523Y10006644D01*
X82156182Y10800000D01*
X82156182Y11598588D01*
X82658503Y11598150D01*
X83614458Y11993142D01*
X84346487Y12723895D01*
X84743148Y13679159D01*
X84744050Y14713503D01*
X84349058Y15669458D01*
X83618305Y16401487D01*
X82709382Y16778906D01*
X82709382Y19493200D01*
X82569924Y20234356D01*
X82131902Y20915062D01*
X81463556Y21371723D01*
X80670200Y21532382D01*
X77470200Y21532382D01*
X76729044Y21392924D01*
X76174775Y21036262D01*
X76035356Y21131523D01*
X75242000Y21292182D01*
X71642000Y21292182D01*
X70900844Y21152724D01*
X70220138Y20714702D01*
X69763477Y20046356D01*
X69602818Y19253000D01*
X69602818Y16053000D01*
X69637780Y15867195D01*
X68785542Y15515058D01*
X68053513Y14784305D01*
X67656852Y13829041D01*
X67655950Y12794697D01*
X65131323Y12794697D01*
X65034701Y12939301D01*
X63590792Y14383210D01*
X63511924Y14802356D01*
X63212200Y15268141D01*
X63212200Y15541000D01*
X63033317Y16440306D01*
X62523901Y17202701D01*
X55579500Y24147102D01*
X55579500Y32867600D01*
X63977900Y32867600D01*
X63977900Y26771600D01*
X64012463Y26588930D01*
X64120202Y26422241D01*
X64284304Y26310601D01*
X64478911Y26271601D01*
X77039211Y26297001D01*
X77219929Y26331195D01*
X77386835Y26438596D01*
X77498807Y26602472D01*
X77538200Y26797000D01*
X77538200Y32893000D01*
X77503637Y33075670D01*
X77395898Y33242359D01*
X77231796Y33353999D01*
X77037189Y33392999D01*
X64476889Y33367599D01*
X64296171Y33333405D01*
X64129265Y33226004D01*
X64017293Y33062128D01*
X63977900Y32867600D01*
X55579500Y32867600D01*
X55579500Y35203820D01*
X55400617Y36103126D01*
X54891201Y36865521D01*
X42812661Y48944061D01*
X43596645Y48618522D01*
X44790119Y48617481D01*
X45466301Y48896873D01*
X46136645Y48618522D01*
X47330119Y48617481D01*
X48006301Y48896873D01*
X48676645Y48618522D01*
X49870119Y48617481D01*
X50546301Y48896873D01*
X51216645Y48618522D01*
X52410119Y48617481D01*
X53086301Y48896873D01*
X53756645Y48618522D01*
X54803646Y48617609D01*
X54803550Y48507097D01*
X55054000Y47900961D01*
X55054000Y46586418D01*
X54804452Y45985441D01*
X54803550Y44951097D01*
X55198542Y43995142D01*
X55929295Y43263113D01*
X56884559Y42866452D01*
X57918903Y42865550D01*
X58874858Y43260542D01*
X59606887Y43991295D01*
X60003548Y44946559D01*
X60004450Y45980903D01*
X59754000Y46587039D01*
X59754000Y47901582D01*
X60003548Y48502559D01*
X60003648Y48617504D01*
X60030119Y48617481D01*
X60706301Y48896873D01*
X61376645Y48618522D01*
X62570119Y48617481D01*
X63246301Y48896873D01*
X63916645Y48618522D01*
X65110119Y48617481D01*
X65786301Y48896873D01*
X66456645Y48618522D01*
X67650119Y48617481D01*
X68326301Y48896873D01*
X68996645Y48618522D01*
X70190119Y48617481D01*
X70866301Y48896873D01*
X71536645Y48618522D01*
X72730119Y48617481D01*
X73406301Y48896873D01*
X74076645Y48618522D01*
X75270119Y48617481D01*
X75946301Y48896873D01*
X76616645Y48618522D01*
X77810119Y48617481D01*
X78486301Y48896873D01*
X79156645Y48618522D01*
X80350119Y48617481D01*
X81453143Y49073241D01*
X82109636Y49728590D01*
X82295073Y49542829D01*
X82326396Y49529822D01*
X82357223Y49498942D01*
X83826860Y48888695D01*
X85418159Y48887307D01*
X86888858Y49494987D01*
X88015058Y50619223D01*
X88170800Y50994291D01*
X88170800Y31783505D01*
X88170800Y31783505D01*
G37*
X88170800Y31783505D02*
X88019013Y32150858D01*
X86894777Y33277058D01*
X85425140Y33887305D01*
X83833841Y33888693D01*
X82363142Y33281013D01*
X81236942Y32156777D01*
X80626695Y30687140D01*
X80625307Y29095841D01*
X81232987Y27625142D01*
X82357223Y26498942D01*
X83826860Y25888695D01*
X85148200Y25887542D01*
X85148200Y7841508D01*
X83783504Y7842699D01*
X82301039Y7230157D01*
X81165829Y6096927D01*
X80550701Y4615533D01*
X80549301Y3011504D01*
X81030547Y1846800D01*
X30077992Y1846800D01*
X30637799Y3194967D01*
X30639079Y4661195D01*
X31115000Y4564818D01*
X34925000Y4564818D01*
X35666156Y4704276D01*
X36220669Y5061095D01*
X37319840Y4604680D01*
X38873345Y4603324D01*
X40309115Y5196572D01*
X40639614Y5526495D01*
X40965107Y5200433D01*
X42399840Y4604680D01*
X43953345Y4603324D01*
X45389115Y5196572D01*
X45719614Y5526495D01*
X46045107Y5200433D01*
X47479840Y4604680D01*
X49033345Y4603324D01*
X50469115Y5196572D01*
X51568567Y6294107D01*
X52164320Y7728840D01*
X52165676Y9282345D01*
X51572428Y10718115D01*
X50474893Y11817567D01*
X49040160Y12413320D01*
X47677893Y12414509D01*
X45476701Y14615701D01*
X44714306Y15125117D01*
X43815000Y15304000D01*
X42716782Y15304000D01*
X35751000Y22269782D01*
X35751000Y24023367D01*
X35929523Y24284644D01*
X36090182Y25078000D01*
X36090182Y26578000D01*
X35973139Y27200028D01*
X36090182Y27778000D01*
X36090182Y28670032D01*
X36872477Y28825640D01*
X37147500Y29009404D01*
X37422523Y28825640D01*
X38268318Y28657401D01*
X38268318Y27714500D01*
X38385361Y27092472D01*
X38268318Y26514500D01*
X38268318Y25014500D01*
X38407776Y24273344D01*
X38845798Y23592638D01*
X39514144Y23135977D01*
X40307500Y22975318D01*
X41607500Y22975318D01*
X42348656Y23114776D01*
X42378279Y23133838D01*
X42847500Y23038818D01*
X44147500Y23038818D01*
X44888656Y23178276D01*
X45354441Y23478000D01*
X46007800Y23478000D01*
X46007800Y23215600D01*
X46186683Y22316294D01*
X46696099Y21553899D01*
X55373018Y12876980D01*
X55373018Y12761200D01*
X55512476Y12020044D01*
X55893083Y11428563D01*
X55601138Y11240702D01*
X55144477Y10572356D01*
X54983818Y9779000D01*
X54983818Y7239000D01*
X55123276Y6497844D01*
X55561298Y5817138D01*
X56229644Y5360477D01*
X57023000Y5199818D01*
X59563000Y5199818D01*
X60304156Y5339276D01*
X60984862Y5777298D01*
X61185849Y6071452D01*
X61518275Y5738445D01*
X62719703Y5239569D01*
X64020590Y5238434D01*
X65222886Y5735213D01*
X66143555Y6654275D01*
X66642431Y7855703D01*
X66643566Y9156590D01*
X66146787Y10358886D01*
X65723000Y10783414D01*
X65723000Y11277600D01*
X65544117Y12176906D01*
X65131323Y12794697D01*
X67655950Y12794697D01*
X68050942Y11838742D01*
X68781695Y11106713D01*
X69736959Y10710052D01*
X70218418Y10709632D01*
X70218418Y10419000D01*
X70283442Y10073429D01*
X70223818Y9779000D01*
X70223818Y7239000D01*
X70363276Y6497844D01*
X70801298Y5817138D01*
X71469644Y5360477D01*
X72263000Y5199818D01*
X74803000Y5199818D01*
X75544156Y5339276D01*
X76224862Y5777298D01*
X76425849Y6071452D01*
X76758275Y5738445D01*
X77959703Y5239569D01*
X79260590Y5238434D01*
X80462886Y5735213D01*
X81383555Y6654275D01*
X81882431Y7855703D01*
X81883566Y9156590D01*
X81706880Y9584201D01*
X81995523Y10006644D01*
X82156182Y10800000D01*
X82156182Y11598588D01*
X82658503Y11598150D01*
X83614458Y11993142D01*
X84346487Y12723895D01*
X84743148Y13679159D01*
X84744050Y14713503D01*
X84349058Y15669458D01*
X83618305Y16401487D01*
X82709382Y16778906D01*
X82709382Y19493200D01*
X82569924Y20234356D01*
X82131902Y20915062D01*
X81463556Y21371723D01*
X80670200Y21532382D01*
X77470200Y21532382D01*
X76729044Y21392924D01*
X76174775Y21036262D01*
X76035356Y21131523D01*
X75242000Y21292182D01*
X71642000Y21292182D01*
X70900844Y21152724D01*
X70220138Y20714702D01*
X69763477Y20046356D01*
X69602818Y19253000D01*
X69602818Y16053000D01*
X69637780Y15867195D01*
X68785542Y15515058D01*
X68053513Y14784305D01*
X67656852Y13829041D01*
X67655950Y12794697D01*
X65131323Y12794697D01*
X65034701Y12939301D01*
X63590792Y14383210D01*
X63511924Y14802356D01*
X63212200Y15268141D01*
X63212200Y15541000D01*
X63033317Y16440306D01*
X62523901Y17202701D01*
X55579500Y24147102D01*
X55579500Y32867600D01*
X63977900Y32867600D01*
X63977900Y26771600D01*
X64012463Y26588930D01*
X64120202Y26422241D01*
X64284304Y26310601D01*
X64478911Y26271601D01*
X77039211Y26297001D01*
X77219929Y26331195D01*
X77386835Y26438596D01*
X77498807Y26602472D01*
X77538200Y26797000D01*
X77538200Y32893000D01*
X77503637Y33075670D01*
X77395898Y33242359D01*
X77231796Y33353999D01*
X77037189Y33392999D01*
X64476889Y33367599D01*
X64296171Y33333405D01*
X64129265Y33226004D01*
X64017293Y33062128D01*
X63977900Y32867600D01*
X55579500Y32867600D01*
X55579500Y35203820D01*
X55400617Y36103126D01*
X54891201Y36865521D01*
X42812661Y48944061D01*
X43596645Y48618522D01*
X44790119Y48617481D01*
X45466301Y48896873D01*
X46136645Y48618522D01*
X47330119Y48617481D01*
X48006301Y48896873D01*
X48676645Y48618522D01*
X49870119Y48617481D01*
X50546301Y48896873D01*
X51216645Y48618522D01*
X52410119Y48617481D01*
X53086301Y48896873D01*
X53756645Y48618522D01*
X54803646Y48617609D01*
X54803550Y48507097D01*
X55054000Y47900961D01*
X55054000Y46586418D01*
X54804452Y45985441D01*
X54803550Y44951097D01*
X55198542Y43995142D01*
X55929295Y43263113D01*
X56884559Y42866452D01*
X57918903Y42865550D01*
X58874858Y43260542D01*
X59606887Y43991295D01*
X60003548Y44946559D01*
X60004450Y45980903D01*
X59754000Y46587039D01*
X59754000Y47901582D01*
X60003548Y48502559D01*
X60003648Y48617504D01*
X60030119Y48617481D01*
X60706301Y48896873D01*
X61376645Y48618522D01*
X62570119Y48617481D01*
X63246301Y48896873D01*
X63916645Y48618522D01*
X65110119Y48617481D01*
X65786301Y48896873D01*
X66456645Y48618522D01*
X67650119Y48617481D01*
X68326301Y48896873D01*
X68996645Y48618522D01*
X70190119Y48617481D01*
X70866301Y48896873D01*
X71536645Y48618522D01*
X72730119Y48617481D01*
X73406301Y48896873D01*
X74076645Y48618522D01*
X75270119Y48617481D01*
X75946301Y48896873D01*
X76616645Y48618522D01*
X77810119Y48617481D01*
X78486301Y48896873D01*
X79156645Y48618522D01*
X80350119Y48617481D01*
X81453143Y49073241D01*
X82109636Y49728590D01*
X82295073Y49542829D01*
X82326396Y49529822D01*
X82357223Y49498942D01*
X83826860Y48888695D01*
X85418159Y48887307D01*
X86888858Y49494987D01*
X88015058Y50619223D01*
X88170800Y50994291D01*
X88170800Y31783505D01*
G36*
X88170800Y54831814D02*
X88002157Y55239961D01*
X86868927Y56375171D01*
X85387533Y56990299D01*
X83783504Y56991699D01*
X82301039Y56379157D01*
X82038892Y56117467D01*
X81457582Y56699793D01*
X80355355Y57157478D01*
X79161881Y57158519D01*
X78485699Y56879127D01*
X77815355Y57157478D01*
X76621881Y57158519D01*
X75945699Y56879127D01*
X75275355Y57157478D01*
X74081881Y57158519D01*
X73405699Y56879127D01*
X72735355Y57157478D01*
X71541881Y57158519D01*
X70865699Y56879127D01*
X70195355Y57157478D01*
X69001881Y57158519D01*
X68325699Y56879127D01*
X67655355Y57157478D01*
X66461881Y57158519D01*
X65785699Y56879127D01*
X65115355Y57157478D01*
X63921881Y57158519D01*
X63245699Y56879127D01*
X62575355Y57157478D01*
X61381881Y57158519D01*
X60705699Y56879127D01*
X60035355Y57157478D01*
X58841881Y57158519D01*
X58165699Y56879127D01*
X57495355Y57157478D01*
X56301881Y57158519D01*
X55198857Y56702759D01*
X54355269Y55860642D01*
X53517582Y56699793D01*
X52415355Y57157478D01*
X51221881Y57158519D01*
X50545699Y56879127D01*
X49875355Y57157478D01*
X48681881Y57158519D01*
X48005699Y56879127D01*
X47335355Y57157478D01*
X46141881Y57158519D01*
X45465699Y56879127D01*
X44795355Y57157478D01*
X43601881Y57158519D01*
X42925699Y56879127D01*
X42255355Y57157478D01*
X41061881Y57158519D01*
X40385699Y56879127D01*
X39715355Y57157478D01*
X38521881Y57158519D01*
X37418857Y56702759D01*
X36575269Y55860642D01*
X35737582Y56699793D01*
X34635355Y57157478D01*
X33441881Y57158519D01*
X32765699Y56879127D01*
X32095355Y57157478D01*
X30901881Y57158519D01*
X29798857Y56702759D01*
X29133178Y56038241D01*
X28894777Y56277058D01*
X27425140Y56887305D01*
X25833841Y56888693D01*
X24363142Y56281013D01*
X23236942Y55156777D01*
X22626695Y53687140D01*
X22625307Y52095841D01*
X23232987Y50625142D01*
X24357223Y49498942D01*
X25826860Y48888695D01*
X26356048Y48888233D01*
X26355550Y48316597D01*
X26750542Y47360642D01*
X27247325Y46862992D01*
X26945023Y46802860D01*
X26670000Y46619096D01*
X26394977Y46802860D01*
X25400000Y47000773D01*
X24405023Y46802860D01*
X23561522Y46239251D01*
X22997913Y45395750D01*
X22800000Y44400773D01*
X22800000Y43483227D01*
X22918318Y42888400D01*
X18732400Y42888400D01*
X17833094Y42709517D01*
X17070699Y42200101D01*
X12233010Y37362412D01*
X10764841Y37363693D01*
X9294142Y36756013D01*
X8167942Y35631777D01*
X7557695Y34162140D01*
X7556307Y32570841D01*
X8163987Y31100142D01*
X9288223Y29973942D01*
X10757860Y29363695D01*
X12349159Y29362307D01*
X13819858Y29969987D01*
X14946058Y31094223D01*
X15556305Y32563860D01*
X15557593Y34040191D01*
X19705802Y38188400D01*
X23771582Y38188400D01*
X24372559Y37938852D01*
X25406903Y37937950D01*
X26362858Y38332942D01*
X27094887Y39063695D01*
X27491548Y40018959D01*
X27492379Y40972264D01*
X27940000Y40883227D01*
X28173431Y40929659D01*
X28308883Y40248694D01*
X28818299Y39486299D01*
X30786799Y37517799D01*
X30802688Y37507182D01*
X30211000Y37507182D01*
X29897394Y37448173D01*
X29606000Y37507182D01*
X28306000Y37507182D01*
X28235407Y37493899D01*
X27676000Y37607182D01*
X26426000Y37607182D01*
X26086476Y37543296D01*
X25771000Y37607182D01*
X24521000Y37607182D01*
X23938464Y37497570D01*
X23891000Y37507182D01*
X22591000Y37507182D01*
X21849844Y37367724D01*
X21169138Y36929702D01*
X20712477Y36261356D01*
X20551818Y35468000D01*
X20551818Y33968000D01*
X20682439Y33273807D01*
X20119142Y33041058D01*
X19387113Y32310305D01*
X19286238Y32067372D01*
X19187233Y31968367D01*
X18645301Y31157309D01*
X18558550Y30721182D01*
X16875000Y30721182D01*
X16133844Y30581724D01*
X15453138Y30143702D01*
X14996477Y29475356D01*
X14835818Y28682000D01*
X14835818Y26182000D01*
X14975276Y25440844D01*
X15312513Y24916762D01*
X14869477Y24268356D01*
X14708818Y23475000D01*
X14708818Y20975000D01*
X14848276Y20233844D01*
X15286298Y19553138D01*
X15953195Y19097467D01*
X15881818Y18745000D01*
X15881818Y15545000D01*
X16021276Y14803844D01*
X16418078Y14187196D01*
X16169477Y13823356D01*
X16008818Y13030000D01*
X16008818Y9830000D01*
X16148276Y9088844D01*
X16586298Y8408138D01*
X17254644Y7951477D01*
X17455585Y7910785D01*
X17455030Y7274564D01*
X16109466Y5929000D01*
X13680582Y5929000D01*
X13639293Y5970361D01*
X12537253Y6427968D01*
X11343982Y6429009D01*
X10241145Y5973326D01*
X9396639Y5130293D01*
X8939032Y4028253D01*
X8937991Y2834982D01*
X9346300Y1846800D01*
X6908813Y1846800D01*
X7316968Y2829747D01*
X7318009Y4023018D01*
X6862326Y5125855D01*
X6818000Y5170258D01*
X6818000Y6003192D01*
X7088555Y6273275D01*
X7587431Y7474703D01*
X7588566Y8775590D01*
X7091787Y9977886D01*
X6172725Y10898555D01*
X4971297Y11397431D01*
X3670410Y11398566D01*
X2468114Y10901787D01*
X2202400Y10636537D01*
X2202400Y57411400D01*
X88170800Y57411400D01*
X88170800Y54831814D01*
X88170800Y54831814D01*
G37*
X88170800Y54831814D02*
X88002157Y55239961D01*
X86868927Y56375171D01*
X85387533Y56990299D01*
X83783504Y56991699D01*
X82301039Y56379157D01*
X82038892Y56117467D01*
X81457582Y56699793D01*
X80355355Y57157478D01*
X79161881Y57158519D01*
X78485699Y56879127D01*
X77815355Y57157478D01*
X76621881Y57158519D01*
X75945699Y56879127D01*
X75275355Y57157478D01*
X74081881Y57158519D01*
X73405699Y56879127D01*
X72735355Y57157478D01*
X71541881Y57158519D01*
X70865699Y56879127D01*
X70195355Y57157478D01*
X69001881Y57158519D01*
X68325699Y56879127D01*
X67655355Y57157478D01*
X66461881Y57158519D01*
X65785699Y56879127D01*
X65115355Y57157478D01*
X63921881Y57158519D01*
X63245699Y56879127D01*
X62575355Y57157478D01*
X61381881Y57158519D01*
X60705699Y56879127D01*
X60035355Y57157478D01*
X58841881Y57158519D01*
X58165699Y56879127D01*
X57495355Y57157478D01*
X56301881Y57158519D01*
X55198857Y56702759D01*
X54355269Y55860642D01*
X53517582Y56699793D01*
X52415355Y57157478D01*
X51221881Y57158519D01*
X50545699Y56879127D01*
X49875355Y57157478D01*
X48681881Y57158519D01*
X48005699Y56879127D01*
X47335355Y57157478D01*
X46141881Y57158519D01*
X45465699Y56879127D01*
X44795355Y57157478D01*
X43601881Y57158519D01*
X42925699Y56879127D01*
X42255355Y57157478D01*
X41061881Y57158519D01*
X40385699Y56879127D01*
X39715355Y57157478D01*
X38521881Y57158519D01*
X37418857Y56702759D01*
X36575269Y55860642D01*
X35737582Y56699793D01*
X34635355Y57157478D01*
X33441881Y57158519D01*
X32765699Y56879127D01*
X32095355Y57157478D01*
X30901881Y57158519D01*
X29798857Y56702759D01*
X29133178Y56038241D01*
X28894777Y56277058D01*
X27425140Y56887305D01*
X25833841Y56888693D01*
X24363142Y56281013D01*
X23236942Y55156777D01*
X22626695Y53687140D01*
X22625307Y52095841D01*
X23232987Y50625142D01*
X24357223Y49498942D01*
X25826860Y48888695D01*
X26356048Y48888233D01*
X26355550Y48316597D01*
X26750542Y47360642D01*
X27247325Y46862992D01*
X26945023Y46802860D01*
X26670000Y46619096D01*
X26394977Y46802860D01*
X25400000Y47000773D01*
X24405023Y46802860D01*
X23561522Y46239251D01*
X22997913Y45395750D01*
X22800000Y44400773D01*
X22800000Y43483227D01*
X22918318Y42888400D01*
X18732400Y42888400D01*
X17833094Y42709517D01*
X17070699Y42200101D01*
X12233010Y37362412D01*
X10764841Y37363693D01*
X9294142Y36756013D01*
X8167942Y35631777D01*
X7557695Y34162140D01*
X7556307Y32570841D01*
X8163987Y31100142D01*
X9288223Y29973942D01*
X10757860Y29363695D01*
X12349159Y29362307D01*
X13819858Y29969987D01*
X14946058Y31094223D01*
X15556305Y32563860D01*
X15557593Y34040191D01*
X19705802Y38188400D01*
X23771582Y38188400D01*
X24372559Y37938852D01*
X25406903Y37937950D01*
X26362858Y38332942D01*
X27094887Y39063695D01*
X27491548Y40018959D01*
X27492379Y40972264D01*
X27940000Y40883227D01*
X28173431Y40929659D01*
X28308883Y40248694D01*
X28818299Y39486299D01*
X30786799Y37517799D01*
X30802688Y37507182D01*
X30211000Y37507182D01*
X29897394Y37448173D01*
X29606000Y37507182D01*
X28306000Y37507182D01*
X28235407Y37493899D01*
X27676000Y37607182D01*
X26426000Y37607182D01*
X26086476Y37543296D01*
X25771000Y37607182D01*
X24521000Y37607182D01*
X23938464Y37497570D01*
X23891000Y37507182D01*
X22591000Y37507182D01*
X21849844Y37367724D01*
X21169138Y36929702D01*
X20712477Y36261356D01*
X20551818Y35468000D01*
X20551818Y33968000D01*
X20682439Y33273807D01*
X20119142Y33041058D01*
X19387113Y32310305D01*
X19286238Y32067372D01*
X19187233Y31968367D01*
X18645301Y31157309D01*
X18558550Y30721182D01*
X16875000Y30721182D01*
X16133844Y30581724D01*
X15453138Y30143702D01*
X14996477Y29475356D01*
X14835818Y28682000D01*
X14835818Y26182000D01*
X14975276Y25440844D01*
X15312513Y24916762D01*
X14869477Y24268356D01*
X14708818Y23475000D01*
X14708818Y20975000D01*
X14848276Y20233844D01*
X15286298Y19553138D01*
X15953195Y19097467D01*
X15881818Y18745000D01*
X15881818Y15545000D01*
X16021276Y14803844D01*
X16418078Y14187196D01*
X16169477Y13823356D01*
X16008818Y13030000D01*
X16008818Y9830000D01*
X16148276Y9088844D01*
X16586298Y8408138D01*
X17254644Y7951477D01*
X17455585Y7910785D01*
X17455030Y7274564D01*
X16109466Y5929000D01*
X13680582Y5929000D01*
X13639293Y5970361D01*
X12537253Y6427968D01*
X11343982Y6429009D01*
X10241145Y5973326D01*
X9396639Y5130293D01*
X8939032Y4028253D01*
X8937991Y2834982D01*
X9346300Y1846800D01*
X6908813Y1846800D01*
X7316968Y2829747D01*
X7318009Y4023018D01*
X6862326Y5125855D01*
X6818000Y5170258D01*
X6818000Y6003192D01*
X7088555Y6273275D01*
X7587431Y7474703D01*
X7588566Y8775590D01*
X7091787Y9977886D01*
X6172725Y10898555D01*
X4971297Y11397431D01*
X3670410Y11398566D01*
X2468114Y10901787D01*
X2202400Y10636537D01*
X2202400Y57411400D01*
X88170800Y57411400D01*
X88170800Y54831814D01*
G36*
X23231276Y24336844D02*
X23431000Y24026464D01*
X23431000Y23825200D01*
X23609883Y22925894D01*
X24119299Y22163499D01*
X30670000Y15612798D01*
X30670000Y12369450D01*
X30373844Y12313724D01*
X29693138Y11875702D01*
X29236477Y11207356D01*
X29075818Y10414000D01*
X29075818Y7233961D01*
X28893427Y7416671D01*
X27412033Y8031799D01*
X25808004Y8033199D01*
X24455206Y7474234D01*
X24455606Y7932139D01*
X23923886Y9219001D01*
X23624238Y9519172D01*
X23687182Y9830000D01*
X23687182Y13030000D01*
X23547724Y13771156D01*
X23150922Y14387804D01*
X23399523Y14751644D01*
X23560182Y15545000D01*
X23560182Y18745000D01*
X23420724Y19486156D01*
X22982702Y20166862D01*
X22314356Y20623523D01*
X22140080Y20658815D01*
X22030699Y21208709D01*
X21488767Y22019767D01*
X20787182Y22721352D01*
X20787182Y23475000D01*
X20677250Y24059241D01*
X21648139Y24058394D01*
X22935001Y24590114D01*
X23144305Y24799054D01*
X23231276Y24336844D01*
X23231276Y24336844D01*
G37*
X23231276Y24336844D02*
X23431000Y24026464D01*
X23431000Y23825200D01*
X23609883Y22925894D01*
X24119299Y22163499D01*
X30670000Y15612798D01*
X30670000Y12369450D01*
X30373844Y12313724D01*
X29693138Y11875702D01*
X29236477Y11207356D01*
X29075818Y10414000D01*
X29075818Y7233961D01*
X28893427Y7416671D01*
X27412033Y8031799D01*
X25808004Y8033199D01*
X24455206Y7474234D01*
X24455606Y7932139D01*
X23923886Y9219001D01*
X23624238Y9519172D01*
X23687182Y9830000D01*
X23687182Y13030000D01*
X23547724Y13771156D01*
X23150922Y14387804D01*
X23399523Y14751644D01*
X23560182Y15545000D01*
X23560182Y18745000D01*
X23420724Y19486156D01*
X22982702Y20166862D01*
X22314356Y20623523D01*
X22140080Y20658815D01*
X22030699Y21208709D01*
X21488767Y22019767D01*
X20787182Y22721352D01*
X20787182Y23475000D01*
X20677250Y24059241D01*
X21648139Y24058394D01*
X22935001Y24590114D01*
X23144305Y24799054D01*
X23231276Y24336844D01*
G36*
X35649925Y42729502D02*
X35470075Y42729502D01*
X35560000Y43181586D01*
X35649925Y42729502D01*
X35649925Y42729502D01*
G37*
X35649925Y42729502D02*
X35470075Y42729502D01*
X35560000Y43181586D01*
X35649925Y42729502D01*
M02*
