G04 #@! TF.FileFunction,Copper,L2,Bot,Signal*
%FSLAX46Y46*%
G04 Gerber Fmt 4.6, Leading zero omitted, Abs format (unit mm)*
G04 Created by KiCad (PCBNEW 4.0.6) date Saturday, 02 July 2022 'AMt' 09:59:54*
%MOMM*%
%LPD*%
G01*
G04 APERTURE LIST*
%ADD10C,0.100000*%
%ADD11C,1.300000*%
%ADD12R,1.300000X1.300000*%
%ADD13C,1.998980*%
%ADD14O,1.600000X2.300000*%
%ADD15O,8.000000X3.000000*%
%ADD16C,3.000000*%
%ADD17C,3.540760*%
%ADD18R,3.540760X3.540760*%
%ADD19O,3.000000X9.000000*%
%ADD20O,9.000000X3.000000*%
%ADD21C,3.810000*%
%ADD22R,3.810000X3.810000*%
%ADD23C,2.000000*%
%ADD24C,1.524000*%
%ADD25R,2.032000X2.032000*%
%ADD26O,2.032000X2.032000*%
%ADD27C,3.800000*%
%ADD28R,3.000000X3.500000*%
%ADD29R,2.540000X2.540000*%
%ADD30C,2.540000*%
%ADD31C,10.000000*%
%ADD32C,4.064000*%
%ADD33R,1.600000X1.000000*%
%ADD34R,2.500000X1.800000*%
%ADD35R,1.300000X1.500000*%
%ADD36C,1.000000*%
%ADD37C,1.000000*%
%ADD38C,4.000000*%
%ADD39C,2.000000*%
%ADD40C,6.000000*%
G04 APERTURE END LIST*
D10*
D11*
X63350000Y94700000D03*
D12*
X63350000Y98200000D03*
D13*
X71700000Y69700000D03*
X91700000Y69700000D03*
D14*
X60700000Y33700000D03*
X63240000Y33700000D03*
X65780000Y33700000D03*
X68320000Y33700000D03*
X68320000Y41320000D03*
X65780000Y41320000D03*
X63240000Y41320000D03*
X60700000Y41320000D03*
D15*
X11750000Y100350000D03*
D16*
X9210000Y100350000D03*
X14290000Y100350000D03*
D17*
X16702540Y71380000D03*
D18*
X16702540Y91700000D03*
D17*
X15397460Y28420000D03*
D18*
X15397460Y8100000D03*
D17*
X4197460Y28720000D03*
D18*
X4197460Y8400000D03*
D19*
X43600000Y106525000D03*
X26800000Y106525000D03*
X35200000Y116025000D03*
D20*
X35200000Y106125000D03*
X35200000Y98125000D03*
D19*
X43750000Y76825000D03*
X26950000Y76825000D03*
X35350000Y86325000D03*
D20*
X35350000Y76425000D03*
X35350000Y68425000D03*
D19*
X44375000Y17250000D03*
X27575000Y17250000D03*
X35975000Y26750000D03*
D20*
X35975000Y16850000D03*
X35975000Y8850000D03*
D19*
X44000000Y46800000D03*
X27200000Y46800000D03*
X35600000Y56300000D03*
D20*
X35600000Y46400000D03*
X35600000Y38400000D03*
D21*
X77700000Y82070000D03*
X77700000Y87150000D03*
D22*
X77700000Y76990000D03*
D21*
X77700000Y92230000D03*
X77700000Y97310000D03*
D15*
X11450000Y66900000D03*
D16*
X13990000Y66900000D03*
X8910000Y66900000D03*
D15*
X9700000Y28700000D03*
D16*
X12240000Y28700000D03*
X7160000Y28700000D03*
D23*
X97985000Y110675000D03*
X97985000Y113215000D03*
X97985000Y108135000D03*
D16*
X53535000Y110675000D03*
X53535000Y115755000D03*
X53535000Y105595000D03*
D24*
X63160000Y17700000D03*
X60620000Y17700000D03*
X65700000Y17700000D03*
D15*
X13200000Y46200000D03*
D16*
X10660000Y46200000D03*
X15740000Y46200000D03*
D25*
X82700000Y44200000D03*
D26*
X82700000Y46740000D03*
D25*
X82700000Y38200000D03*
D26*
X82700000Y35660000D03*
D27*
X4075000Y124475000D03*
X8325000Y124475000D03*
X13325000Y124475000D03*
X17575000Y124475000D03*
D28*
X15475000Y124475000D03*
X6175000Y124475000D03*
D27*
X4150000Y107000000D03*
X8400000Y107000000D03*
X13400000Y107000000D03*
X17650000Y107000000D03*
D28*
X15550000Y107000000D03*
X6250000Y107000000D03*
D27*
X3650000Y55550000D03*
X7900000Y55550000D03*
X12900000Y55550000D03*
X17150000Y55550000D03*
D28*
X15050000Y55550000D03*
X5750000Y55550000D03*
D27*
X3450000Y36200000D03*
X7700000Y36200000D03*
X12700000Y36200000D03*
X16950000Y36200000D03*
D28*
X14850000Y36200000D03*
X5550000Y36200000D03*
D21*
X88700000Y55740000D03*
X88700000Y50660000D03*
D22*
X88700000Y60820000D03*
D21*
X88700000Y45580000D03*
D29*
X88700000Y40280000D03*
D30*
X88700000Y35200000D03*
X88700000Y30120000D03*
D31*
X76200000Y10700000D03*
X6200000Y80200000D03*
D32*
X93700000Y7200000D03*
X10200000Y11200000D03*
X92700000Y123200000D03*
X13200000Y117700000D03*
D33*
X94510000Y107390000D03*
X94510000Y110390000D03*
X91840000Y110590000D03*
X91840000Y113590000D03*
D34*
X83440000Y113250000D03*
X87440000Y113250000D03*
D35*
X94510000Y102390000D03*
X94510000Y105090000D03*
D36*
X66200000Y22200000D03*
X72700000Y44700000D03*
X80200000Y43200000D03*
X62200000Y65700000D03*
X62200000Y75200000D03*
X62200000Y82700000D03*
D23*
X62700000Y90700000D03*
X63200000Y90700000D03*
D36*
X84200000Y63200000D03*
X72125000Y76975000D03*
X71675000Y81950000D03*
X53700000Y14700000D03*
X55200000Y53200000D03*
X71200000Y58200000D03*
X64700000Y63200000D03*
X15400000Y124375000D03*
X78200000Y45200000D03*
X71850000Y87150000D03*
X63200000Y21700000D03*
X79700000Y37700000D03*
X65700000Y20200000D03*
D37*
X91840000Y110590000D02*
X91840000Y110500000D01*
X91840000Y110500000D02*
X78650000Y97310000D01*
X78650000Y97310000D02*
X77700000Y97310000D01*
X94510000Y110390000D02*
X97700000Y110390000D01*
X97700000Y110390000D02*
X97985000Y110675000D01*
X91840000Y110590000D02*
X94310000Y110590000D01*
X94310000Y110590000D02*
X94510000Y110390000D01*
D38*
X16702540Y91700000D02*
X20200000Y91700000D01*
X26950000Y84950000D02*
X26950000Y76825000D01*
X20200000Y91700000D02*
X26950000Y84950000D01*
X4197460Y8400000D02*
X4197460Y6202540D01*
X88700000Y8700000D02*
X88700000Y30120000D01*
X82200000Y2200000D02*
X88700000Y8700000D01*
X8200000Y2200000D02*
X82200000Y2200000D01*
X4197460Y6202540D02*
X8200000Y2200000D01*
D37*
X78450000Y30450000D02*
X78450000Y30120000D01*
X74450000Y30450000D02*
X78450000Y30450000D01*
X66200000Y22200000D02*
X74450000Y30450000D01*
X68320000Y33700000D02*
X75200000Y33700000D01*
X78780000Y30120000D02*
X78450000Y30120000D01*
X78450000Y30120000D02*
X88700000Y30120000D01*
X75200000Y33700000D02*
X78780000Y30120000D01*
X71700000Y33700000D02*
X68320000Y33700000D01*
X72700000Y34700000D02*
X71700000Y33700000D01*
X72700000Y44700000D02*
X72700000Y34700000D01*
X68320000Y33580000D02*
X68320000Y33700000D01*
D39*
X63350000Y94700000D02*
X47200000Y94700000D01*
X30274998Y102625002D02*
X26800000Y106100000D01*
X39274998Y102625002D02*
X30274998Y102625002D01*
X47200000Y94700000D02*
X39274998Y102625002D01*
X26800000Y106100000D02*
X26800000Y106525000D01*
D38*
X63350000Y94700000D02*
X71575000Y94700000D01*
X71575000Y94700000D02*
X74185000Y97310000D01*
X74185000Y97310000D02*
X77700000Y97310000D01*
D37*
X26950000Y106375000D02*
X26800000Y106525000D01*
X27200000Y17625000D02*
X27575000Y17250000D01*
X74185000Y97310000D02*
X77700000Y97310000D01*
X71575000Y94700000D02*
X74185000Y97310000D01*
X81200000Y44200000D02*
X82700000Y44200000D01*
X80200000Y43200000D02*
X81200000Y44200000D01*
X88700000Y45580000D02*
X86580000Y45580000D01*
X86580000Y45580000D02*
X85200000Y44200000D01*
X85200000Y44200000D02*
X82700000Y44200000D01*
X82700000Y35660000D02*
X88240000Y35660000D01*
X88240000Y35660000D02*
X88700000Y35200000D01*
D38*
X88700000Y35200000D02*
X94700000Y35200000D01*
X93700000Y69700000D02*
X91700000Y69700000D01*
X95700000Y67700000D02*
X93700000Y69700000D01*
X95700000Y36200000D02*
X95700000Y67700000D01*
X94700000Y35200000D02*
X95700000Y36200000D01*
D39*
X62200000Y65700000D02*
X62200000Y75700000D01*
D37*
X62200000Y75200000D02*
X62200000Y75700000D01*
D39*
X62700000Y90700000D02*
X62200000Y90200000D01*
X62200000Y90200000D02*
X62200000Y82700000D01*
X62200000Y82700000D02*
X62200000Y75700000D01*
D38*
X43600000Y106525000D02*
X43875000Y106525000D01*
X43875000Y106525000D02*
X50380000Y100020000D01*
D37*
X61530000Y100020000D02*
X63600000Y97950000D01*
D38*
X50380000Y100020000D02*
X61530000Y100020000D01*
X43600000Y106525000D02*
X43600000Y106100000D01*
X53535000Y115755000D02*
X50680000Y115755000D01*
X50680000Y115755000D02*
X48625000Y113700000D01*
X48625000Y113700000D02*
X48625000Y111550000D01*
X48625000Y111550000D02*
X43600000Y106525000D01*
D37*
X63600000Y97950000D02*
X63350000Y98200000D01*
D38*
X88450000Y60675000D02*
X86725000Y60675000D01*
X86725000Y60675000D02*
X84200000Y63200000D01*
X88450000Y60675000D02*
X87725000Y60675000D01*
D37*
X72125000Y76975000D02*
X72140000Y76990000D01*
X72140000Y76990000D02*
X77700000Y76990000D01*
X94510000Y102390000D02*
X94490000Y102390000D01*
X94490000Y102390000D02*
X84330000Y92230000D01*
X84330000Y92230000D02*
X77700000Y92230000D01*
X71795000Y82070000D02*
X77700000Y82070000D01*
X71675000Y81950000D02*
X71795000Y82070000D01*
X55200000Y43200000D02*
X55200000Y53200000D01*
X53700000Y41700000D02*
X55200000Y43200000D01*
X53700000Y14700000D02*
X53700000Y41700000D01*
X55200000Y53200000D02*
X76200000Y53200000D01*
X78885000Y50515000D02*
X88450000Y50515000D01*
X71200000Y58200000D02*
X76200000Y53200000D01*
X76200000Y53200000D02*
X78885000Y50515000D01*
X87358200Y50515000D02*
X88450000Y50515000D01*
X88450000Y55595000D02*
X78305000Y55595000D01*
X70700000Y63200000D02*
X64700000Y63200000D01*
X78305000Y55595000D02*
X70700000Y63200000D01*
X88450000Y55595000D02*
X87424320Y55595000D01*
D38*
X11450000Y66900000D02*
X12222540Y66900000D01*
X12222540Y66900000D02*
X16702540Y71380000D01*
X11450000Y66900000D02*
X21400000Y66900000D01*
X21400000Y66900000D02*
X22925000Y68425000D01*
D40*
X22925000Y68425000D02*
X35350000Y68425000D01*
D37*
X21400000Y66900000D02*
X22925000Y68425000D01*
D40*
X9700000Y28700000D02*
X15117460Y28700000D01*
X15117460Y28700000D02*
X15397460Y28420000D01*
X4197460Y28720000D02*
X9680000Y28720000D01*
X9680000Y28720000D02*
X9700000Y28700000D01*
D37*
X4197460Y28720000D02*
X4197460Y29197460D01*
X15397460Y28420000D02*
X15397460Y28602540D01*
D40*
X15397460Y8100000D02*
X35225000Y8100000D01*
X35225000Y8100000D02*
X35975000Y8850000D01*
D37*
X83440000Y113250000D02*
X64675000Y113250000D01*
X64675000Y113250000D02*
X62425000Y115500000D01*
D38*
X13325000Y124475000D02*
X17575000Y124475000D01*
X57450000Y110525000D02*
X53685000Y110525000D01*
X53685000Y110525000D02*
X53535000Y110675000D01*
X58000000Y124200000D02*
X17400000Y124200000D01*
X62425000Y119775000D02*
X58000000Y124200000D01*
X62425000Y115500000D02*
X62425000Y119775000D01*
X57450000Y110525000D02*
X62425000Y115500000D01*
X6200000Y80200000D02*
X7200000Y80200000D01*
X7200000Y80200000D02*
X10700000Y76700000D01*
X6200000Y80200000D02*
X10200000Y84200000D01*
X6200000Y80200000D02*
X11700000Y80200000D01*
X11700000Y80200000D02*
X12700000Y79200000D01*
X6200000Y80200000D02*
X10200000Y80200000D01*
X10200000Y80200000D02*
X11700000Y81700000D01*
X7700000Y73200000D02*
X7700000Y92200000D01*
X7700000Y92200000D02*
X9200000Y93700000D01*
X6200000Y93700000D02*
X9200000Y93700000D01*
X7700000Y73200000D02*
X3700000Y69200000D01*
X7900000Y55550000D02*
X7900000Y52900000D01*
X7900000Y52900000D02*
X7700000Y52700000D01*
X8400000Y107000000D02*
X7350000Y107000000D01*
X7350000Y107000000D02*
X4700000Y104350000D01*
X4700000Y104350000D02*
X4700000Y95200000D01*
X4700000Y95200000D02*
X6200000Y93700000D01*
X6200000Y93700000D02*
X6200000Y75700000D01*
X6200000Y75700000D02*
X3700000Y73200000D01*
X3700000Y73200000D02*
X3700000Y69200000D01*
X3700000Y69200000D02*
X3700000Y65200000D01*
X3700000Y65200000D02*
X4200000Y64700000D01*
X4200000Y64700000D02*
X4200000Y63200000D01*
X4200000Y63200000D02*
X7900000Y59500000D01*
X7900000Y59500000D02*
X7900000Y55550000D01*
X8325000Y124475000D02*
X8325000Y107075000D01*
X8325000Y107075000D02*
X8400000Y107000000D01*
X4075000Y124475000D02*
X4075000Y124075000D01*
X4075000Y124075000D02*
X2200000Y122200000D01*
X2200000Y108950000D02*
X4150000Y107000000D01*
X2200000Y122200000D02*
X2200000Y108950000D01*
X3450000Y36200000D02*
X7700000Y36200000D01*
X4250000Y51250000D02*
X4250000Y54950000D01*
X4250000Y54950000D02*
X4850000Y55550000D01*
X4850000Y55550000D02*
X7900000Y55550000D01*
X4150000Y107000000D02*
X8400000Y107000000D01*
X4075000Y124475000D02*
X8325000Y124475000D01*
D40*
X4250000Y53800000D02*
X4250000Y51250000D01*
X2200000Y39800000D02*
X4050000Y37950000D01*
X2200000Y49200000D02*
X2200000Y39800000D01*
X4250000Y51250000D02*
X2200000Y49200000D01*
D37*
X4250000Y57300000D02*
X4250000Y53800000D01*
D38*
X6175000Y124475000D02*
X6175000Y123825000D01*
X6175000Y123825000D02*
X4575000Y122225000D01*
X4575000Y122225000D02*
X4575000Y108675000D01*
X4575000Y108675000D02*
X6250000Y107000000D01*
D40*
X4700000Y105375000D02*
X4700000Y104350000D01*
X4700000Y104350000D02*
X2750000Y102400000D01*
X2750000Y102400000D02*
X2750000Y58750000D01*
X2750000Y58750000D02*
X4150000Y57350000D01*
X17650000Y107000000D02*
X17650000Y112650000D01*
X21025000Y116025000D02*
X35200000Y116025000D01*
X17650000Y112650000D02*
X21025000Y116025000D01*
D38*
X13400000Y107000000D02*
X17650000Y107000000D01*
D37*
X17050000Y108750000D02*
X17050000Y105250000D01*
D38*
X12900000Y55550000D02*
X17150000Y55550000D01*
D40*
X35600000Y56300000D02*
X18900000Y56300000D01*
D37*
X18900000Y56300000D02*
X16450000Y53850000D01*
D38*
X14850000Y36200000D02*
X16950000Y36200000D01*
X16950000Y36200000D02*
X17200000Y36200000D01*
X17200000Y36200000D02*
X26650000Y26750000D01*
X26650000Y26750000D02*
X35975000Y26750000D01*
X12700000Y36200000D02*
X16950000Y36200000D01*
D37*
X79740000Y46740000D02*
X82700000Y46740000D01*
X78200000Y45200000D02*
X79740000Y46740000D01*
D38*
X11750000Y100350000D02*
X18025000Y100350000D01*
X18025000Y100350000D02*
X20250000Y98125000D01*
D40*
X35200000Y98125000D02*
X20250000Y98125000D01*
D37*
X20250000Y98125000D02*
X18025000Y100350000D01*
D40*
X35350000Y86325000D02*
X35350000Y97975000D01*
D37*
X35350000Y97975000D02*
X35200000Y98125000D01*
D38*
X13200000Y46200000D02*
X13200000Y43700000D01*
X21200000Y42200000D02*
X25200000Y38200000D01*
X14700000Y42200000D02*
X21200000Y42200000D01*
X13200000Y43700000D02*
X14700000Y42200000D01*
D40*
X25200000Y38200000D02*
X35400000Y38200000D01*
X13200000Y46200000D02*
X9700000Y46200000D01*
X35400000Y38200000D02*
X35600000Y38400000D01*
X17700000Y46200000D02*
X13200000Y46200000D01*
D37*
X71850000Y87150000D02*
X77700000Y87150000D01*
X63160000Y21660000D02*
X63160000Y17700000D01*
X63200000Y21700000D02*
X63160000Y21660000D01*
X82700000Y38200000D02*
X80200000Y38200000D01*
X80200000Y38200000D02*
X79700000Y37700000D01*
X65700000Y17700000D02*
X65700000Y20200000D01*
X82700000Y38200000D02*
X84700000Y40200000D01*
X84700000Y40200000D02*
X84700000Y40280000D01*
X88700000Y40280000D02*
X84700000Y40280000D01*
X94510000Y107390000D02*
X94510000Y105090000D01*
X94510000Y107390000D02*
X97240000Y107390000D01*
X97240000Y107390000D02*
X97985000Y108135000D01*
X91840000Y113590000D02*
X97610000Y113590000D01*
X97610000Y113590000D02*
X97985000Y113215000D01*
X87440000Y113250000D02*
X91500000Y113250000D01*
X91500000Y113250000D02*
X91840000Y113590000D01*
G36*
X63909633Y111402241D02*
X64036616Y111376982D01*
X64675000Y111249999D01*
X64675005Y111250000D01*
X81142905Y111250000D01*
X81594983Y110941108D01*
X82190000Y110820614D01*
X84690000Y110820614D01*
X85245867Y110925207D01*
X85437645Y111048613D01*
X85594983Y110941108D01*
X86190000Y110820614D01*
X88690000Y110820614D01*
X89245867Y110925207D01*
X89750609Y111250000D01*
X91499995Y111250000D01*
X91500000Y111249999D01*
X92265367Y111402241D01*
X92502389Y111560614D01*
X92640000Y111560614D01*
X92796174Y111590000D01*
X96074714Y111590000D01*
X96567015Y111096839D01*
X97485538Y110715435D01*
X98480099Y110714567D01*
X99350000Y111074002D01*
X99350000Y110275162D01*
X98484462Y110634565D01*
X97489901Y110635433D01*
X96570714Y110255633D01*
X95866839Y109552985D01*
X95799162Y109390000D01*
X95455112Y109390000D01*
X95310000Y109419386D01*
X93710000Y109419386D01*
X93154133Y109314793D01*
X92643604Y108986276D01*
X92301108Y108485017D01*
X92180614Y107890000D01*
X92180614Y106890000D01*
X92285207Y106334133D01*
X92395857Y106162179D01*
X92330614Y105840000D01*
X92330614Y104340000D01*
X92435207Y103784133D01*
X92459196Y103746854D01*
X92451108Y103735017D01*
X92330614Y103140000D01*
X92330614Y103059041D01*
X83501572Y94230000D01*
X80514689Y94230000D01*
X79631296Y95114935D01*
X78380268Y95634408D01*
X77025675Y95635590D01*
X75773742Y95118302D01*
X74815065Y94161296D01*
X74295592Y92910268D01*
X74294410Y91555675D01*
X74811698Y90303742D01*
X75424601Y89689769D01*
X74883889Y89150000D01*
X71850599Y89150000D01*
X71453921Y89150346D01*
X70718571Y88846506D01*
X70155471Y88284388D01*
X69850348Y87549570D01*
X69849654Y86753921D01*
X70153494Y86018571D01*
X70715612Y85455471D01*
X71450430Y85150348D01*
X72246079Y85149654D01*
X72246916Y85150000D01*
X74885311Y85150000D01*
X75424601Y84609769D01*
X74883889Y84070000D01*
X71795005Y84070000D01*
X71795000Y84070001D01*
X71193459Y83950346D01*
X71029633Y83917759D01*
X70753475Y83733236D01*
X70543571Y83646506D01*
X70381420Y83484637D01*
X70380786Y83484214D01*
X70380784Y83484211D01*
X70260875Y83364303D01*
X69980471Y83084388D01*
X69675348Y82349570D01*
X69674654Y81553921D01*
X69978494Y80818571D01*
X70540612Y80255471D01*
X71275430Y79950348D01*
X71674998Y79949999D01*
X71675002Y79949999D01*
X72071079Y79949654D01*
X72362339Y80070000D01*
X74850944Y80070000D01*
X74728604Y79991276D01*
X74386108Y79490017D01*
X74284852Y78990000D01*
X72140000Y78990000D01*
X72064856Y78975053D01*
X71728921Y78975346D01*
X71415709Y78845929D01*
X71374633Y78837759D01*
X71340115Y78814695D01*
X70993571Y78671506D01*
X70725865Y78404267D01*
X70725786Y78404214D01*
X70725784Y78404211D01*
X70710878Y78389306D01*
X70430471Y78109388D01*
X70125348Y77374570D01*
X70124654Y76578921D01*
X70428494Y75843571D01*
X70990612Y75280471D01*
X71725430Y74975348D01*
X72124998Y74974999D01*
X72125002Y74974999D01*
X72521079Y74974654D01*
X72558219Y74990000D01*
X74283489Y74990000D01*
X74370207Y74529133D01*
X74698724Y74018604D01*
X75199983Y73676108D01*
X75795000Y73555614D01*
X79605000Y73555614D01*
X80160867Y73660207D01*
X80671396Y73988724D01*
X81013892Y74489983D01*
X81134386Y75085000D01*
X81134386Y78895000D01*
X81029793Y79450867D01*
X80701276Y79961396D01*
X80526764Y80080635D01*
X80584935Y80138704D01*
X81104408Y81389732D01*
X81105590Y82744325D01*
X80588302Y83996258D01*
X79975399Y84610231D01*
X80584935Y85218704D01*
X81104408Y86469732D01*
X81105590Y87824325D01*
X80588302Y89076258D01*
X79975399Y89690231D01*
X80516111Y90230000D01*
X84329995Y90230000D01*
X84330000Y90229999D01*
X85095367Y90382241D01*
X85744214Y90815786D01*
X95039041Y100110614D01*
X95160000Y100110614D01*
X95715867Y100215207D01*
X96226396Y100543724D01*
X96568892Y101044983D01*
X96689386Y101640000D01*
X96689386Y103140000D01*
X96584793Y103695867D01*
X96560804Y103733146D01*
X96568892Y103744983D01*
X96689386Y104340000D01*
X96689386Y105390000D01*
X97239995Y105390000D01*
X97240000Y105389999D01*
X98005367Y105542241D01*
X98143982Y105634860D01*
X98480099Y105634567D01*
X99350000Y105994002D01*
X99350000Y1400000D01*
X52425000Y1400000D01*
X52425000Y6500524D01*
X90167388Y6500524D01*
X90703970Y5201896D01*
X91696670Y4207462D01*
X92994360Y3668614D01*
X94399476Y3667388D01*
X95698104Y4203970D01*
X96692538Y5196670D01*
X97231386Y6494360D01*
X97232612Y7899476D01*
X96696030Y9198104D01*
X95703330Y10192538D01*
X94405640Y10731386D01*
X93000524Y10732612D01*
X91701896Y10196030D01*
X90707462Y9203330D01*
X90168614Y7905640D01*
X90167388Y6500524D01*
X52425000Y6500524D01*
X52425000Y13146329D01*
X52565612Y13005471D01*
X53300430Y12700348D01*
X54096079Y12699654D01*
X54831429Y13003494D01*
X55394529Y13565612D01*
X55699652Y14300430D01*
X55700346Y15096079D01*
X55700000Y15096916D01*
X55700000Y17252034D01*
X58357608Y17252034D01*
X58701252Y16420354D01*
X59337007Y15783488D01*
X60168086Y15438394D01*
X61067966Y15437608D01*
X61890998Y15777679D01*
X62708086Y15438394D01*
X63607966Y15437608D01*
X64430998Y15777679D01*
X65248086Y15438394D01*
X66147966Y15437608D01*
X66979646Y15781252D01*
X67616512Y16417007D01*
X67961606Y17248086D01*
X67962392Y18147966D01*
X67700000Y18783002D01*
X67700000Y20199401D01*
X67700346Y20596079D01*
X67396506Y21331429D01*
X66834388Y21894529D01*
X66099570Y22199652D01*
X65303921Y22200346D01*
X65178651Y22148585D01*
X64896506Y22831429D01*
X64334388Y23394529D01*
X63599570Y23699652D01*
X63200002Y23700001D01*
X63199998Y23700001D01*
X62803921Y23700346D01*
X62068571Y23396506D01*
X61505471Y22834388D01*
X61374028Y22517838D01*
X61312241Y22425367D01*
X61290734Y22317243D01*
X61200348Y22099570D01*
X61200141Y21861804D01*
X61159999Y21660000D01*
X61160000Y21659995D01*
X61160000Y19925030D01*
X61071914Y19961606D01*
X60172034Y19962392D01*
X59340354Y19618748D01*
X58703488Y18982993D01*
X58358394Y18151914D01*
X58357608Y17252034D01*
X55700000Y17252034D01*
X55700000Y34101917D01*
X58400000Y34101917D01*
X58400000Y33298083D01*
X58575077Y32417911D01*
X59073654Y31671737D01*
X59819828Y31173160D01*
X60700000Y30998083D01*
X61580172Y31173160D01*
X61970000Y31433634D01*
X62359828Y31173160D01*
X63240000Y30998083D01*
X64120172Y31173160D01*
X64510000Y31433634D01*
X64899828Y31173160D01*
X65780000Y30998083D01*
X66660172Y31173160D01*
X67406346Y31671737D01*
X67904923Y32417911D01*
X68080000Y33298083D01*
X68080000Y34101917D01*
X67904923Y34982089D01*
X67406346Y35728263D01*
X66660172Y36226840D01*
X65780000Y36401917D01*
X64899828Y36226840D01*
X64510000Y35966366D01*
X64120172Y36226840D01*
X63240000Y36401917D01*
X62359828Y36226840D01*
X61970000Y35966366D01*
X61580172Y36226840D01*
X60700000Y36401917D01*
X59819828Y36226840D01*
X59073654Y35728263D01*
X58575077Y34982089D01*
X58400000Y34101917D01*
X55700000Y34101917D01*
X55700000Y40871572D01*
X56550344Y41721917D01*
X58400000Y41721917D01*
X58400000Y40918083D01*
X58575077Y40037911D01*
X59073654Y39291737D01*
X59819828Y38793160D01*
X60700000Y38618083D01*
X61580172Y38793160D01*
X61970000Y39053634D01*
X62359828Y38793160D01*
X63240000Y38618083D01*
X64120172Y38793160D01*
X64510000Y39053634D01*
X64899828Y38793160D01*
X65780000Y38618083D01*
X66660172Y38793160D01*
X67050000Y39053634D01*
X67439828Y38793160D01*
X68320000Y38618083D01*
X69200172Y38793160D01*
X69946346Y39291737D01*
X70444923Y40037911D01*
X70620000Y40918083D01*
X70620000Y41721917D01*
X70444923Y42602089D01*
X69946346Y43348263D01*
X69200172Y43846840D01*
X68320000Y44021917D01*
X67439828Y43846840D01*
X67050000Y43586366D01*
X66660172Y43846840D01*
X65780000Y44021917D01*
X64899828Y43846840D01*
X64510000Y43586366D01*
X64120172Y43846840D01*
X63240000Y44021917D01*
X62359828Y43846840D01*
X61970000Y43586366D01*
X61580172Y43846840D01*
X60700000Y44021917D01*
X59819828Y43846840D01*
X59073654Y43348263D01*
X58575077Y42602089D01*
X58400000Y41721917D01*
X56550344Y41721917D01*
X56614211Y41785784D01*
X56614214Y41785786D01*
X57047759Y42434633D01*
X57200000Y43200000D01*
X57200000Y51200000D01*
X75371572Y51200000D01*
X77470784Y49100789D01*
X77470786Y49100786D01*
X78020107Y48733742D01*
X78119633Y48667241D01*
X78870159Y48517952D01*
X78325786Y48154214D01*
X78325784Y48154211D01*
X76785874Y46614302D01*
X76505471Y46334388D01*
X76200348Y45599570D01*
X76199654Y44803921D01*
X76503494Y44068571D01*
X77065612Y43505471D01*
X77800430Y43200348D01*
X78199998Y43199999D01*
X78199999Y43199999D01*
X78199654Y42803921D01*
X78503494Y42068571D01*
X79065612Y41505471D01*
X79800430Y41200348D01*
X80199998Y41199999D01*
X80200002Y41199999D01*
X80596079Y41199654D01*
X81331429Y41503494D01*
X81516743Y41688484D01*
X81684000Y41654614D01*
X83259326Y41654614D01*
X83124691Y41453118D01*
X82416959Y40745386D01*
X81684000Y40745386D01*
X81128133Y40640793D01*
X80617604Y40312276D01*
X80540889Y40200000D01*
X80200005Y40200000D01*
X80200000Y40200001D01*
X79434633Y40047759D01*
X78785786Y39614214D01*
X78785784Y39614211D01*
X78285874Y39114302D01*
X78005471Y38834388D01*
X77700348Y38099570D01*
X77699654Y37303921D01*
X78003494Y36568571D01*
X78565612Y36005471D01*
X79300430Y35700348D01*
X79699998Y35699999D01*
X79700002Y35699999D01*
X80096079Y35699654D01*
X80146762Y35720596D01*
X80134709Y35660000D01*
X80326228Y34697168D01*
X80871628Y33880919D01*
X81687877Y33335519D01*
X82650709Y33144000D01*
X82749291Y33144000D01*
X83712123Y33335519D01*
X84197743Y33660000D01*
X85600464Y33660000D01*
X86225126Y32725126D01*
X87360608Y31966422D01*
X88700000Y31700000D01*
X94700000Y31700000D01*
X96039392Y31966422D01*
X97174874Y32725126D01*
X98174871Y33725124D01*
X98174874Y33725126D01*
X98933578Y34860608D01*
X99091516Y35654614D01*
X99200001Y36200000D01*
X99200000Y36200005D01*
X99200000Y67700000D01*
X98933578Y69039392D01*
X98174874Y70174874D01*
X96174874Y72174874D01*
X95039392Y72933578D01*
X93700000Y73200000D01*
X91700000Y73200000D01*
X90360608Y72933578D01*
X89225126Y72174874D01*
X88466422Y71039392D01*
X88200000Y69700000D01*
X88466422Y68360608D01*
X89225126Y67225126D01*
X90360608Y66466422D01*
X91700000Y66200000D01*
X92200000Y66200000D01*
X92200000Y38700000D01*
X91436609Y38700000D01*
X91499386Y39010000D01*
X91499386Y41550000D01*
X91394793Y42105867D01*
X91066276Y42616396D01*
X90760273Y42825479D01*
X91584935Y43648704D01*
X92104408Y44899732D01*
X92105590Y46254325D01*
X91588302Y47506258D01*
X90975399Y48120231D01*
X91584935Y48728704D01*
X92104408Y49979732D01*
X92105590Y51334325D01*
X91588302Y52586258D01*
X90975399Y53200231D01*
X91584935Y53808704D01*
X92104408Y55059732D01*
X92105590Y56414325D01*
X91588302Y57666258D01*
X91528130Y57726535D01*
X91671396Y57818724D01*
X92013892Y58319983D01*
X92134386Y58915000D01*
X92134386Y62725000D01*
X92029793Y63280867D01*
X91701276Y63791396D01*
X91200017Y64133892D01*
X90605000Y64254386D01*
X88095362Y64254386D01*
X86674874Y65674874D01*
X85539392Y66433578D01*
X84200000Y66700000D01*
X82860608Y66433578D01*
X81725126Y65674874D01*
X80966422Y64539392D01*
X80700000Y63200000D01*
X80966422Y61860608D01*
X81725126Y60725126D01*
X84250126Y58200126D01*
X85155762Y57595000D01*
X79133427Y57595000D01*
X72114214Y64614214D01*
X71465367Y65047759D01*
X70700000Y65200001D01*
X70699995Y65200000D01*
X64700599Y65200000D01*
X64600561Y65200087D01*
X64700000Y65700000D01*
X64700000Y69205002D01*
X69200077Y69205002D01*
X69579800Y68286002D01*
X70282304Y67582271D01*
X71200639Y67200945D01*
X72194998Y67200077D01*
X73113998Y67579800D01*
X73817729Y68282304D01*
X74199055Y69200639D01*
X74199923Y70194998D01*
X73820200Y71113998D01*
X73117696Y71817729D01*
X72199361Y72199055D01*
X71205002Y72199923D01*
X70286002Y71820200D01*
X69582271Y71117696D01*
X69200945Y70199361D01*
X69200077Y69205002D01*
X64700000Y69205002D01*
X64700000Y88664932D01*
X65318161Y89282015D01*
X65699565Y90200538D01*
X65700433Y91195099D01*
X65320633Y92114286D01*
X64617985Y92818161D01*
X63699462Y93199565D01*
X62704901Y93200433D01*
X62703847Y93199998D01*
X62204901Y93200433D01*
X61285714Y92820633D01*
X60581839Y92117985D01*
X60581404Y92116938D01*
X60432233Y91967767D01*
X59890301Y91156709D01*
X59700000Y90200000D01*
X59700000Y65700000D01*
X59890301Y64743291D01*
X60432233Y63932233D01*
X61243291Y63390301D01*
X62200000Y63200000D01*
X62700086Y63299473D01*
X62699654Y62803921D01*
X63003494Y62068571D01*
X63565612Y61505471D01*
X64300430Y61200348D01*
X65096079Y61199654D01*
X65096916Y61200000D01*
X69871572Y61200000D01*
X70871285Y60200287D01*
X70803921Y60200346D01*
X70068571Y59896506D01*
X69505471Y59334388D01*
X69200348Y58599570D01*
X69199654Y57803921D01*
X69503494Y57068571D01*
X70065612Y56505471D01*
X70066448Y56505124D01*
X71371572Y55200000D01*
X55200599Y55200000D01*
X54803921Y55200346D01*
X54068571Y54896506D01*
X53505471Y54334388D01*
X53200348Y53599570D01*
X53199654Y52803921D01*
X53200000Y52803084D01*
X53200000Y44028427D01*
X52425000Y43253428D01*
X52425000Y96520000D01*
X61530000Y96520000D01*
X61574596Y96528871D01*
X61603724Y96483604D01*
X62104983Y96141108D01*
X62700000Y96020614D01*
X63244997Y96020614D01*
X63600000Y95949999D01*
X63955003Y96020614D01*
X64000000Y96020614D01*
X64555867Y96125207D01*
X65066396Y96453724D01*
X65408892Y96954983D01*
X65529386Y97550000D01*
X65529386Y97594997D01*
X65600001Y97950000D01*
X65529386Y98305003D01*
X65529386Y98850000D01*
X65424793Y99405867D01*
X65096276Y99916396D01*
X65019788Y99968658D01*
X65030000Y100020000D01*
X64763578Y101359392D01*
X64004874Y102494874D01*
X62869392Y103253578D01*
X61530000Y103520000D01*
X55702723Y103520000D01*
X56076793Y103893418D01*
X56534478Y104995645D01*
X56535519Y106189119D01*
X56190140Y107025000D01*
X57450000Y107025000D01*
X58789392Y107291422D01*
X59924874Y108050126D01*
X63530390Y111655643D01*
X63909633Y111402241D01*
X63909633Y111402241D01*
G37*
X63909633Y111402241D02*
X64036616Y111376982D01*
X64675000Y111249999D01*
X64675005Y111250000D01*
X81142905Y111250000D01*
X81594983Y110941108D01*
X82190000Y110820614D01*
X84690000Y110820614D01*
X85245867Y110925207D01*
X85437645Y111048613D01*
X85594983Y110941108D01*
X86190000Y110820614D01*
X88690000Y110820614D01*
X89245867Y110925207D01*
X89750609Y111250000D01*
X91499995Y111250000D01*
X91500000Y111249999D01*
X92265367Y111402241D01*
X92502389Y111560614D01*
X92640000Y111560614D01*
X92796174Y111590000D01*
X96074714Y111590000D01*
X96567015Y111096839D01*
X97485538Y110715435D01*
X98480099Y110714567D01*
X99350000Y111074002D01*
X99350000Y110275162D01*
X98484462Y110634565D01*
X97489901Y110635433D01*
X96570714Y110255633D01*
X95866839Y109552985D01*
X95799162Y109390000D01*
X95455112Y109390000D01*
X95310000Y109419386D01*
X93710000Y109419386D01*
X93154133Y109314793D01*
X92643604Y108986276D01*
X92301108Y108485017D01*
X92180614Y107890000D01*
X92180614Y106890000D01*
X92285207Y106334133D01*
X92395857Y106162179D01*
X92330614Y105840000D01*
X92330614Y104340000D01*
X92435207Y103784133D01*
X92459196Y103746854D01*
X92451108Y103735017D01*
X92330614Y103140000D01*
X92330614Y103059041D01*
X83501572Y94230000D01*
X80514689Y94230000D01*
X79631296Y95114935D01*
X78380268Y95634408D01*
X77025675Y95635590D01*
X75773742Y95118302D01*
X74815065Y94161296D01*
X74295592Y92910268D01*
X74294410Y91555675D01*
X74811698Y90303742D01*
X75424601Y89689769D01*
X74883889Y89150000D01*
X71850599Y89150000D01*
X71453921Y89150346D01*
X70718571Y88846506D01*
X70155471Y88284388D01*
X69850348Y87549570D01*
X69849654Y86753921D01*
X70153494Y86018571D01*
X70715612Y85455471D01*
X71450430Y85150348D01*
X72246079Y85149654D01*
X72246916Y85150000D01*
X74885311Y85150000D01*
X75424601Y84609769D01*
X74883889Y84070000D01*
X71795005Y84070000D01*
X71795000Y84070001D01*
X71193459Y83950346D01*
X71029633Y83917759D01*
X70753475Y83733236D01*
X70543571Y83646506D01*
X70381420Y83484637D01*
X70380786Y83484214D01*
X70380784Y83484211D01*
X70260875Y83364303D01*
X69980471Y83084388D01*
X69675348Y82349570D01*
X69674654Y81553921D01*
X69978494Y80818571D01*
X70540612Y80255471D01*
X71275430Y79950348D01*
X71674998Y79949999D01*
X71675002Y79949999D01*
X72071079Y79949654D01*
X72362339Y80070000D01*
X74850944Y80070000D01*
X74728604Y79991276D01*
X74386108Y79490017D01*
X74284852Y78990000D01*
X72140000Y78990000D01*
X72064856Y78975053D01*
X71728921Y78975346D01*
X71415709Y78845929D01*
X71374633Y78837759D01*
X71340115Y78814695D01*
X70993571Y78671506D01*
X70725865Y78404267D01*
X70725786Y78404214D01*
X70725784Y78404211D01*
X70710878Y78389306D01*
X70430471Y78109388D01*
X70125348Y77374570D01*
X70124654Y76578921D01*
X70428494Y75843571D01*
X70990612Y75280471D01*
X71725430Y74975348D01*
X72124998Y74974999D01*
X72125002Y74974999D01*
X72521079Y74974654D01*
X72558219Y74990000D01*
X74283489Y74990000D01*
X74370207Y74529133D01*
X74698724Y74018604D01*
X75199983Y73676108D01*
X75795000Y73555614D01*
X79605000Y73555614D01*
X80160867Y73660207D01*
X80671396Y73988724D01*
X81013892Y74489983D01*
X81134386Y75085000D01*
X81134386Y78895000D01*
X81029793Y79450867D01*
X80701276Y79961396D01*
X80526764Y80080635D01*
X80584935Y80138704D01*
X81104408Y81389732D01*
X81105590Y82744325D01*
X80588302Y83996258D01*
X79975399Y84610231D01*
X80584935Y85218704D01*
X81104408Y86469732D01*
X81105590Y87824325D01*
X80588302Y89076258D01*
X79975399Y89690231D01*
X80516111Y90230000D01*
X84329995Y90230000D01*
X84330000Y90229999D01*
X85095367Y90382241D01*
X85744214Y90815786D01*
X95039041Y100110614D01*
X95160000Y100110614D01*
X95715867Y100215207D01*
X96226396Y100543724D01*
X96568892Y101044983D01*
X96689386Y101640000D01*
X96689386Y103140000D01*
X96584793Y103695867D01*
X96560804Y103733146D01*
X96568892Y103744983D01*
X96689386Y104340000D01*
X96689386Y105390000D01*
X97239995Y105390000D01*
X97240000Y105389999D01*
X98005367Y105542241D01*
X98143982Y105634860D01*
X98480099Y105634567D01*
X99350000Y105994002D01*
X99350000Y1400000D01*
X52425000Y1400000D01*
X52425000Y6500524D01*
X90167388Y6500524D01*
X90703970Y5201896D01*
X91696670Y4207462D01*
X92994360Y3668614D01*
X94399476Y3667388D01*
X95698104Y4203970D01*
X96692538Y5196670D01*
X97231386Y6494360D01*
X97232612Y7899476D01*
X96696030Y9198104D01*
X95703330Y10192538D01*
X94405640Y10731386D01*
X93000524Y10732612D01*
X91701896Y10196030D01*
X90707462Y9203330D01*
X90168614Y7905640D01*
X90167388Y6500524D01*
X52425000Y6500524D01*
X52425000Y13146329D01*
X52565612Y13005471D01*
X53300430Y12700348D01*
X54096079Y12699654D01*
X54831429Y13003494D01*
X55394529Y13565612D01*
X55699652Y14300430D01*
X55700346Y15096079D01*
X55700000Y15096916D01*
X55700000Y17252034D01*
X58357608Y17252034D01*
X58701252Y16420354D01*
X59337007Y15783488D01*
X60168086Y15438394D01*
X61067966Y15437608D01*
X61890998Y15777679D01*
X62708086Y15438394D01*
X63607966Y15437608D01*
X64430998Y15777679D01*
X65248086Y15438394D01*
X66147966Y15437608D01*
X66979646Y15781252D01*
X67616512Y16417007D01*
X67961606Y17248086D01*
X67962392Y18147966D01*
X67700000Y18783002D01*
X67700000Y20199401D01*
X67700346Y20596079D01*
X67396506Y21331429D01*
X66834388Y21894529D01*
X66099570Y22199652D01*
X65303921Y22200346D01*
X65178651Y22148585D01*
X64896506Y22831429D01*
X64334388Y23394529D01*
X63599570Y23699652D01*
X63200002Y23700001D01*
X63199998Y23700001D01*
X62803921Y23700346D01*
X62068571Y23396506D01*
X61505471Y22834388D01*
X61374028Y22517838D01*
X61312241Y22425367D01*
X61290734Y22317243D01*
X61200348Y22099570D01*
X61200141Y21861804D01*
X61159999Y21660000D01*
X61160000Y21659995D01*
X61160000Y19925030D01*
X61071914Y19961606D01*
X60172034Y19962392D01*
X59340354Y19618748D01*
X58703488Y18982993D01*
X58358394Y18151914D01*
X58357608Y17252034D01*
X55700000Y17252034D01*
X55700000Y34101917D01*
X58400000Y34101917D01*
X58400000Y33298083D01*
X58575077Y32417911D01*
X59073654Y31671737D01*
X59819828Y31173160D01*
X60700000Y30998083D01*
X61580172Y31173160D01*
X61970000Y31433634D01*
X62359828Y31173160D01*
X63240000Y30998083D01*
X64120172Y31173160D01*
X64510000Y31433634D01*
X64899828Y31173160D01*
X65780000Y30998083D01*
X66660172Y31173160D01*
X67406346Y31671737D01*
X67904923Y32417911D01*
X68080000Y33298083D01*
X68080000Y34101917D01*
X67904923Y34982089D01*
X67406346Y35728263D01*
X66660172Y36226840D01*
X65780000Y36401917D01*
X64899828Y36226840D01*
X64510000Y35966366D01*
X64120172Y36226840D01*
X63240000Y36401917D01*
X62359828Y36226840D01*
X61970000Y35966366D01*
X61580172Y36226840D01*
X60700000Y36401917D01*
X59819828Y36226840D01*
X59073654Y35728263D01*
X58575077Y34982089D01*
X58400000Y34101917D01*
X55700000Y34101917D01*
X55700000Y40871572D01*
X56550344Y41721917D01*
X58400000Y41721917D01*
X58400000Y40918083D01*
X58575077Y40037911D01*
X59073654Y39291737D01*
X59819828Y38793160D01*
X60700000Y38618083D01*
X61580172Y38793160D01*
X61970000Y39053634D01*
X62359828Y38793160D01*
X63240000Y38618083D01*
X64120172Y38793160D01*
X64510000Y39053634D01*
X64899828Y38793160D01*
X65780000Y38618083D01*
X66660172Y38793160D01*
X67050000Y39053634D01*
X67439828Y38793160D01*
X68320000Y38618083D01*
X69200172Y38793160D01*
X69946346Y39291737D01*
X70444923Y40037911D01*
X70620000Y40918083D01*
X70620000Y41721917D01*
X70444923Y42602089D01*
X69946346Y43348263D01*
X69200172Y43846840D01*
X68320000Y44021917D01*
X67439828Y43846840D01*
X67050000Y43586366D01*
X66660172Y43846840D01*
X65780000Y44021917D01*
X64899828Y43846840D01*
X64510000Y43586366D01*
X64120172Y43846840D01*
X63240000Y44021917D01*
X62359828Y43846840D01*
X61970000Y43586366D01*
X61580172Y43846840D01*
X60700000Y44021917D01*
X59819828Y43846840D01*
X59073654Y43348263D01*
X58575077Y42602089D01*
X58400000Y41721917D01*
X56550344Y41721917D01*
X56614211Y41785784D01*
X56614214Y41785786D01*
X57047759Y42434633D01*
X57200000Y43200000D01*
X57200000Y51200000D01*
X75371572Y51200000D01*
X77470784Y49100789D01*
X77470786Y49100786D01*
X78020107Y48733742D01*
X78119633Y48667241D01*
X78870159Y48517952D01*
X78325786Y48154214D01*
X78325784Y48154211D01*
X76785874Y46614302D01*
X76505471Y46334388D01*
X76200348Y45599570D01*
X76199654Y44803921D01*
X76503494Y44068571D01*
X77065612Y43505471D01*
X77800430Y43200348D01*
X78199998Y43199999D01*
X78199999Y43199999D01*
X78199654Y42803921D01*
X78503494Y42068571D01*
X79065612Y41505471D01*
X79800430Y41200348D01*
X80199998Y41199999D01*
X80200002Y41199999D01*
X80596079Y41199654D01*
X81331429Y41503494D01*
X81516743Y41688484D01*
X81684000Y41654614D01*
X83259326Y41654614D01*
X83124691Y41453118D01*
X82416959Y40745386D01*
X81684000Y40745386D01*
X81128133Y40640793D01*
X80617604Y40312276D01*
X80540889Y40200000D01*
X80200005Y40200000D01*
X80200000Y40200001D01*
X79434633Y40047759D01*
X78785786Y39614214D01*
X78785784Y39614211D01*
X78285874Y39114302D01*
X78005471Y38834388D01*
X77700348Y38099570D01*
X77699654Y37303921D01*
X78003494Y36568571D01*
X78565612Y36005471D01*
X79300430Y35700348D01*
X79699998Y35699999D01*
X79700002Y35699999D01*
X80096079Y35699654D01*
X80146762Y35720596D01*
X80134709Y35660000D01*
X80326228Y34697168D01*
X80871628Y33880919D01*
X81687877Y33335519D01*
X82650709Y33144000D01*
X82749291Y33144000D01*
X83712123Y33335519D01*
X84197743Y33660000D01*
X85600464Y33660000D01*
X86225126Y32725126D01*
X87360608Y31966422D01*
X88700000Y31700000D01*
X94700000Y31700000D01*
X96039392Y31966422D01*
X97174874Y32725126D01*
X98174871Y33725124D01*
X98174874Y33725126D01*
X98933578Y34860608D01*
X99091516Y35654614D01*
X99200001Y36200000D01*
X99200000Y36200005D01*
X99200000Y67700000D01*
X98933578Y69039392D01*
X98174874Y70174874D01*
X96174874Y72174874D01*
X95039392Y72933578D01*
X93700000Y73200000D01*
X91700000Y73200000D01*
X90360608Y72933578D01*
X89225126Y72174874D01*
X88466422Y71039392D01*
X88200000Y69700000D01*
X88466422Y68360608D01*
X89225126Y67225126D01*
X90360608Y66466422D01*
X91700000Y66200000D01*
X92200000Y66200000D01*
X92200000Y38700000D01*
X91436609Y38700000D01*
X91499386Y39010000D01*
X91499386Y41550000D01*
X91394793Y42105867D01*
X91066276Y42616396D01*
X90760273Y42825479D01*
X91584935Y43648704D01*
X92104408Y44899732D01*
X92105590Y46254325D01*
X91588302Y47506258D01*
X90975399Y48120231D01*
X91584935Y48728704D01*
X92104408Y49979732D01*
X92105590Y51334325D01*
X91588302Y52586258D01*
X90975399Y53200231D01*
X91584935Y53808704D01*
X92104408Y55059732D01*
X92105590Y56414325D01*
X91588302Y57666258D01*
X91528130Y57726535D01*
X91671396Y57818724D01*
X92013892Y58319983D01*
X92134386Y58915000D01*
X92134386Y62725000D01*
X92029793Y63280867D01*
X91701276Y63791396D01*
X91200017Y64133892D01*
X90605000Y64254386D01*
X88095362Y64254386D01*
X86674874Y65674874D01*
X85539392Y66433578D01*
X84200000Y66700000D01*
X82860608Y66433578D01*
X81725126Y65674874D01*
X80966422Y64539392D01*
X80700000Y63200000D01*
X80966422Y61860608D01*
X81725126Y60725126D01*
X84250126Y58200126D01*
X85155762Y57595000D01*
X79133427Y57595000D01*
X72114214Y64614214D01*
X71465367Y65047759D01*
X70700000Y65200001D01*
X70699995Y65200000D01*
X64700599Y65200000D01*
X64600561Y65200087D01*
X64700000Y65700000D01*
X64700000Y69205002D01*
X69200077Y69205002D01*
X69579800Y68286002D01*
X70282304Y67582271D01*
X71200639Y67200945D01*
X72194998Y67200077D01*
X73113998Y67579800D01*
X73817729Y68282304D01*
X74199055Y69200639D01*
X74199923Y70194998D01*
X73820200Y71113998D01*
X73117696Y71817729D01*
X72199361Y72199055D01*
X71205002Y72199923D01*
X70286002Y71820200D01*
X69582271Y71117696D01*
X69200945Y70199361D01*
X69200077Y69205002D01*
X64700000Y69205002D01*
X64700000Y88664932D01*
X65318161Y89282015D01*
X65699565Y90200538D01*
X65700433Y91195099D01*
X65320633Y92114286D01*
X64617985Y92818161D01*
X63699462Y93199565D01*
X62704901Y93200433D01*
X62703847Y93199998D01*
X62204901Y93200433D01*
X61285714Y92820633D01*
X60581839Y92117985D01*
X60581404Y92116938D01*
X60432233Y91967767D01*
X59890301Y91156709D01*
X59700000Y90200000D01*
X59700000Y65700000D01*
X59890301Y64743291D01*
X60432233Y63932233D01*
X61243291Y63390301D01*
X62200000Y63200000D01*
X62700086Y63299473D01*
X62699654Y62803921D01*
X63003494Y62068571D01*
X63565612Y61505471D01*
X64300430Y61200348D01*
X65096079Y61199654D01*
X65096916Y61200000D01*
X69871572Y61200000D01*
X70871285Y60200287D01*
X70803921Y60200346D01*
X70068571Y59896506D01*
X69505471Y59334388D01*
X69200348Y58599570D01*
X69199654Y57803921D01*
X69503494Y57068571D01*
X70065612Y56505471D01*
X70066448Y56505124D01*
X71371572Y55200000D01*
X55200599Y55200000D01*
X54803921Y55200346D01*
X54068571Y54896506D01*
X53505471Y54334388D01*
X53200348Y53599570D01*
X53199654Y52803921D01*
X53200000Y52803084D01*
X53200000Y44028427D01*
X52425000Y43253428D01*
X52425000Y96520000D01*
X61530000Y96520000D01*
X61574596Y96528871D01*
X61603724Y96483604D01*
X62104983Y96141108D01*
X62700000Y96020614D01*
X63244997Y96020614D01*
X63600000Y95949999D01*
X63955003Y96020614D01*
X64000000Y96020614D01*
X64555867Y96125207D01*
X65066396Y96453724D01*
X65408892Y96954983D01*
X65529386Y97550000D01*
X65529386Y97594997D01*
X65600001Y97950000D01*
X65529386Y98305003D01*
X65529386Y98850000D01*
X65424793Y99405867D01*
X65096276Y99916396D01*
X65019788Y99968658D01*
X65030000Y100020000D01*
X64763578Y101359392D01*
X64004874Y102494874D01*
X62869392Y103253578D01*
X61530000Y103520000D01*
X55702723Y103520000D01*
X56076793Y103893418D01*
X56534478Y104995645D01*
X56535519Y106189119D01*
X56190140Y107025000D01*
X57450000Y107025000D01*
X58789392Y107291422D01*
X59924874Y108050126D01*
X63530390Y111655643D01*
X63909633Y111402241D01*
M02*
