M48
METRIC,TZ
T1C0.700
T2C0.800
T3C0.813
T4C1.000
T5C1.001
T6C1.016
T7C1.500
T8C1.524
T9C1.600
T10C3.048
T11C5.000
%
G90
G05
T1
X9700Y28700
X11450Y66900
X11750Y100350
X13200Y46200
X15400Y124375
X53700Y14700
X55200Y53200
X62200Y82700
X62200Y75200
X62200Y65700
X62700Y90700
X63200Y90700
X63200Y21700
X64700Y63200
X65700Y20200
X66200Y22200
X71200Y58200
X71675Y81950
X71850Y87150
X72125Y76975
X72700Y44700
X78200Y45200
X79700Y37700
X80200Y43200
X84200Y63200
T2
X60700Y41320
X60700Y33700
X63240Y41320
X63240Y33700
X63350Y98200
X63350Y94700
X65780Y41320
X65780Y33700
X68320Y41320
X68320Y33700
T3
X60620Y17700
X63160Y17700
X65700Y17700
T4
X3450Y36200
X3650Y55550
X4075Y124475
X4150Y107000
X5550Y36200
X5750Y55550
X6175Y124475
X6250Y107000
X7700Y36200
X7900Y55550
X8325Y124475
X8400Y107000
X12700Y36200
X12900Y55550
X13325Y124475
X13400Y107000
X14850Y36200
X15050Y55550
X15475Y124475
X15550Y107000
X16950Y36200
X17150Y55550
X17575Y124475
X17650Y107000
X53535Y115755
X53535Y110675
X53535Y105595
X97985Y113215
X97985Y110675
X97985Y108135
T5
X71700Y69700
X91700Y69700
T6
X82700Y46740
X82700Y44200
X82700Y38200
X82700Y35660
T7
X7160Y28700
X8910Y66900
X9210Y100350
X10660Y46200
X12240Y28700
X13990Y66900
X14290Y100350
X15740Y46200
T8
X77700Y97310
X77700Y92230
X77700Y87150
X77700Y82070
X77700Y76990
X88700Y60820
X88700Y55740
X88700Y50660
X88700Y45580
X88700Y40280
X88700Y35200
X88700Y30120
T9
X4197Y28720
X4197Y8400
X15397Y28420
X15397Y8100
X16703Y91700
X16703Y71380
T10
X10200Y11200
X13200Y117700
X92700Y123200
X93700Y7200
T11
X6200Y80200
X76200Y10700
T4
X26800Y103525G85X26800Y109525
G05
X26950Y73825G85X26950Y79825
G05
X27200Y43800G85X27200Y49800
G05
X27575Y14250G85X27575Y20250
G05
X35200Y113025G85X35200Y119025
G05
X32200Y106125G85X38200Y106125
G05
X32200Y98125G85X38200Y98125
G05
X35350Y83325G85X35350Y89325
G05
X32350Y76425G85X38350Y76425
G05
X32350Y68425G85X38350Y68425
G05
X35600Y53300G85X35600Y59300
G05
X32600Y46400G85X38600Y46400
G05
X32600Y38400G85X38600Y38400
G05
X35975Y23750G85X35975Y29750
G05
X32975Y16850G85X38975Y16850
G05
X32975Y8850G85X38975Y8850
G05
X43600Y103525G85X43600Y109525
G05
X43750Y73825G85X43750Y79825
G05
X44000Y43800G85X44000Y49800
G05
X44375Y14250G85X44375Y20250
G05
T0
M30
