G04 #@! TF.FileFunction,Copper,L1,Top,Signal*
%FSLAX46Y46*%
G04 Gerber Fmt 4.6, Leading zero omitted, Abs format (unit mm)*
G04 Created by KiCad (PCBNEW 4.0.6) date Friday, 15 October 2021 'PMt' 16:37:06*
%MOMM*%
%LPD*%
G01*
G04 APERTURE LIST*
%ADD10C,0.100000*%
%ADD11C,0.500000*%
%ADD12C,4.064000*%
%ADD13C,3.000000*%
%ADD14C,2.000000*%
%ADD15C,1.300000*%
%ADD16R,1.300000X1.300000*%
%ADD17R,2.540000X2.540000*%
%ADD18C,2.540000*%
%ADD19C,1.998980*%
%ADD20R,1.390000X4.600000*%
%ADD21R,10.800000X9.400000*%
%ADD22C,2.100000*%
%ADD23O,2.300000X1.600000*%
%ADD24R,1.200000X0.900000*%
%ADD25R,2.000000X1.700000*%
%ADD26R,1.500000X1.250000*%
%ADD27R,1.300000X1.500000*%
%ADD28R,2.000000X0.600000*%
%ADD29R,1.550000X0.600000*%
%ADD30C,1.500000*%
%ADD31C,0.700000*%
%ADD32C,1.000000*%
G04 APERTURE END LIST*
D10*
D11*
X91233905Y7762857D02*
X90567238Y7762857D01*
X90567238Y6715238D02*
X90567238Y8715238D01*
X91519619Y8715238D01*
X92567239Y6715238D02*
X92376763Y6810476D01*
X92281524Y7000952D01*
X92281524Y8715238D01*
X93138667Y8048571D02*
X93614858Y6715238D01*
X94091048Y8048571D02*
X93614858Y6715238D01*
X93424382Y6239048D01*
X93329143Y6143810D01*
X93138667Y6048571D01*
X94852953Y7477143D02*
X96376763Y7477143D01*
X91233905Y12842857D02*
X90567238Y12842857D01*
X90567238Y11795238D02*
X90567238Y13795238D01*
X91519619Y13795238D01*
X92567239Y11795238D02*
X92376763Y11890476D01*
X92281524Y12080952D01*
X92281524Y13795238D01*
X93138667Y13128571D02*
X93614858Y11795238D01*
X94091048Y13128571D02*
X93614858Y11795238D01*
X93424382Y11319048D01*
X93329143Y11223810D01*
X93138667Y11128571D01*
X94852953Y12557143D02*
X96376763Y12557143D01*
X95614858Y11795238D02*
X95614858Y13319048D01*
X89662476Y17700667D02*
X90614857Y17700667D01*
X89472000Y17129238D02*
X90138667Y19129238D01*
X90805334Y17129238D01*
X91757715Y17129238D02*
X91567239Y17224476D01*
X91472000Y17414952D01*
X91472000Y19129238D01*
X92233905Y18462571D02*
X92995810Y18462571D01*
X92519619Y19129238D02*
X92519619Y17414952D01*
X92614858Y17224476D01*
X92805334Y17129238D01*
X92995810Y17129238D01*
X94329143Y18176857D02*
X94614857Y18081619D01*
X94710096Y17986381D01*
X94805334Y17795905D01*
X94805334Y17510190D01*
X94710096Y17319714D01*
X94614857Y17224476D01*
X94424381Y17129238D01*
X93662476Y17129238D01*
X93662476Y19129238D01*
X94329143Y19129238D01*
X94519619Y19034000D01*
X94614857Y18938762D01*
X94710096Y18748286D01*
X94710096Y18557810D01*
X94614857Y18367333D01*
X94519619Y18272095D01*
X94329143Y18176857D01*
X93662476Y18176857D01*
X95662476Y17891143D02*
X97186286Y17891143D01*
X96424381Y17129238D02*
X96424381Y18653048D01*
X3349524Y15146380D02*
X3444762Y15432095D01*
X3444762Y15908285D01*
X3349524Y16098761D01*
X3254286Y16193999D01*
X3063810Y16289238D01*
X2873333Y16289238D01*
X2682857Y16193999D01*
X2587619Y16098761D01*
X2492381Y15908285D01*
X2397143Y15527333D01*
X2301905Y15336857D01*
X2206667Y15241618D01*
X2016190Y15146380D01*
X1825714Y15146380D01*
X1635238Y15241618D01*
X1540000Y15336857D01*
X1444762Y15527333D01*
X1444762Y16003523D01*
X1540000Y16289238D01*
X3349524Y17908285D02*
X3444762Y17717809D01*
X3444762Y17336857D01*
X3349524Y17146380D01*
X3159048Y17051142D01*
X2397143Y17051142D01*
X2206667Y17146380D01*
X2111429Y17336857D01*
X2111429Y17717809D01*
X2206667Y17908285D01*
X2397143Y18003523D01*
X2587619Y18003523D01*
X2778095Y17051142D01*
X3444762Y18860666D02*
X2111429Y18860666D01*
X2492381Y18860666D02*
X2301905Y18955905D01*
X2206667Y19051143D01*
X2111429Y19241619D01*
X2111429Y19432095D01*
X2111429Y19908285D02*
X3444762Y20384476D01*
X2111429Y20860666D01*
X3444762Y21622571D02*
X2111429Y21622571D01*
X1444762Y21622571D02*
X1540000Y21527333D01*
X1635238Y21622571D01*
X1540000Y21717810D01*
X1444762Y21622571D01*
X1635238Y21622571D01*
X3349524Y23432095D02*
X3444762Y23241619D01*
X3444762Y22860667D01*
X3349524Y22670191D01*
X3254286Y22574952D01*
X3063810Y22479714D01*
X2492381Y22479714D01*
X2301905Y22574952D01*
X2206667Y22670191D01*
X2111429Y22860667D01*
X2111429Y23241619D01*
X2206667Y23432095D01*
X3349524Y25051143D02*
X3444762Y24860667D01*
X3444762Y24479715D01*
X3349524Y24289238D01*
X3159048Y24194000D01*
X2397143Y24194000D01*
X2206667Y24289238D01*
X2111429Y24479715D01*
X2111429Y24860667D01*
X2206667Y25051143D01*
X2397143Y25146381D01*
X2587619Y25146381D01*
X2778095Y24194000D01*
X2397143Y28194001D02*
X2492381Y28479715D01*
X2587619Y28574954D01*
X2778095Y28670192D01*
X3063810Y28670192D01*
X3254286Y28574954D01*
X3349524Y28479715D01*
X3444762Y28289239D01*
X3444762Y27527334D01*
X1444762Y27527334D01*
X1444762Y28194001D01*
X1540000Y28384477D01*
X1635238Y28479715D01*
X1825714Y28574954D01*
X2016190Y28574954D01*
X2206667Y28479715D01*
X2301905Y28384477D01*
X2397143Y28194001D01*
X2397143Y27527334D01*
X3444762Y30384477D02*
X2397143Y30384477D01*
X2206667Y30289239D01*
X2111429Y30098763D01*
X2111429Y29717811D01*
X2206667Y29527334D01*
X3349524Y30384477D02*
X3444762Y30194001D01*
X3444762Y29717811D01*
X3349524Y29527334D01*
X3159048Y29432096D01*
X2968571Y29432096D01*
X2778095Y29527334D01*
X2682857Y29717811D01*
X2682857Y30194001D01*
X2587619Y30384477D01*
X2111429Y31051144D02*
X2111429Y31813049D01*
X1444762Y31336858D02*
X3159048Y31336858D01*
X3349524Y31432097D01*
X3444762Y31622573D01*
X3444762Y31813049D01*
X2111429Y32194001D02*
X2111429Y32955906D01*
X1444762Y32479715D02*
X3159048Y32479715D01*
X3349524Y32574954D01*
X3444762Y32765430D01*
X3444762Y32955906D01*
X3349524Y34384477D02*
X3444762Y34194001D01*
X3444762Y33813049D01*
X3349524Y33622572D01*
X3159048Y33527334D01*
X2397143Y33527334D01*
X2206667Y33622572D01*
X2111429Y33813049D01*
X2111429Y34194001D01*
X2206667Y34384477D01*
X2397143Y34479715D01*
X2587619Y34479715D01*
X2778095Y33527334D01*
X3444762Y35336858D02*
X2111429Y35336858D01*
X2492381Y35336858D02*
X2301905Y35432097D01*
X2206667Y35527335D01*
X2111429Y35717811D01*
X2111429Y35908287D01*
X2111429Y36384477D02*
X3444762Y36860668D01*
X2111429Y37336858D02*
X3444762Y36860668D01*
X3920952Y36670192D01*
X4016190Y36574953D01*
X4111429Y36384477D01*
X2682857Y39622573D02*
X2682857Y41146383D01*
X3444762Y40384478D02*
X1920952Y40384478D01*
X3444762Y44323143D02*
X3444762Y43180285D01*
X3444762Y43751714D02*
X1444762Y43751714D01*
X1730476Y43561238D01*
X1920952Y43370762D01*
X2016190Y43180285D01*
X1635238Y45085047D02*
X1540000Y45180285D01*
X1444762Y45370762D01*
X1444762Y45846952D01*
X1540000Y46037428D01*
X1635238Y46132666D01*
X1825714Y46227905D01*
X2016190Y46227905D01*
X2301905Y46132666D01*
X3444762Y44989809D01*
X3444762Y46227905D01*
X2111429Y46894571D02*
X3444762Y47370762D01*
X2111429Y47846952D01*
X1190762Y49942857D02*
X1190762Y50133333D01*
X1286000Y50323809D01*
X1381238Y50419047D01*
X1571714Y50514285D01*
X1952667Y50609524D01*
X2428857Y50609524D01*
X2809810Y50514285D01*
X3000286Y50419047D01*
X3095524Y50323809D01*
X3190762Y50133333D01*
X3190762Y49942857D01*
X3095524Y49752381D01*
X3000286Y49657143D01*
X2809810Y49561904D01*
X2428857Y49466666D01*
X1952667Y49466666D01*
X1571714Y49561904D01*
X1381238Y49657143D01*
X1286000Y49752381D01*
X1190762Y49942857D01*
X1857429Y51276190D02*
X3190762Y51752381D01*
X1857429Y52228571D01*
X89932285Y47609238D02*
X89932285Y49609238D01*
X91075143Y47609238D01*
X91075143Y49609238D01*
X93170381Y47799714D02*
X93075143Y47704476D01*
X92789428Y47609238D01*
X92598952Y47609238D01*
X92313238Y47704476D01*
X92122762Y47894952D01*
X92027523Y48085429D01*
X91932285Y48466381D01*
X91932285Y48752095D01*
X92027523Y49133048D01*
X92122762Y49323524D01*
X92313238Y49514000D01*
X92598952Y49609238D01*
X92789428Y49609238D01*
X93075143Y49514000D01*
X93170381Y49418762D01*
X93741809Y49609238D02*
X94884666Y49609238D01*
X94313238Y47609238D02*
X94313238Y49609238D01*
X95360857Y49609238D02*
X96598953Y49609238D01*
X95932286Y48847333D01*
X96218000Y48847333D01*
X96408476Y48752095D01*
X96503714Y48656857D01*
X96598953Y48466381D01*
X96598953Y47990190D01*
X96503714Y47799714D01*
X96408476Y47704476D01*
X96218000Y47609238D01*
X95646572Y47609238D01*
X95456095Y47704476D01*
X95360857Y47799714D01*
X89932285Y42529238D02*
X89932285Y44529238D01*
X91075143Y42529238D01*
X91075143Y44529238D01*
X93170381Y42719714D02*
X93075143Y42624476D01*
X92789428Y42529238D01*
X92598952Y42529238D01*
X92313238Y42624476D01*
X92122762Y42814952D01*
X92027523Y43005429D01*
X91932285Y43386381D01*
X91932285Y43672095D01*
X92027523Y44053048D01*
X92122762Y44243524D01*
X92313238Y44434000D01*
X92598952Y44529238D01*
X92789428Y44529238D01*
X93075143Y44434000D01*
X93170381Y44338762D01*
X93741809Y44529238D02*
X94884666Y44529238D01*
X94313238Y42529238D02*
X94313238Y44529238D01*
X95456095Y44338762D02*
X95551333Y44434000D01*
X95741810Y44529238D01*
X96218000Y44529238D01*
X96408476Y44434000D01*
X96503714Y44338762D01*
X96598953Y44148286D01*
X96598953Y43957810D01*
X96503714Y43672095D01*
X95360857Y42529238D01*
X96598953Y42529238D01*
X89932285Y37195238D02*
X89932285Y39195238D01*
X91075143Y37195238D01*
X91075143Y39195238D01*
X93170381Y37385714D02*
X93075143Y37290476D01*
X92789428Y37195238D01*
X92598952Y37195238D01*
X92313238Y37290476D01*
X92122762Y37480952D01*
X92027523Y37671429D01*
X91932285Y38052381D01*
X91932285Y38338095D01*
X92027523Y38719048D01*
X92122762Y38909524D01*
X92313238Y39100000D01*
X92598952Y39195238D01*
X92789428Y39195238D01*
X93075143Y39100000D01*
X93170381Y39004762D01*
X93741809Y39195238D02*
X94884666Y39195238D01*
X94313238Y37195238D02*
X94313238Y39195238D01*
X96598953Y37195238D02*
X95456095Y37195238D01*
X96027524Y37195238D02*
X96027524Y39195238D01*
X95837048Y38909524D01*
X95646572Y38719048D01*
X95456095Y38623810D01*
X91598857Y24463238D02*
X91789333Y24463238D01*
X91979809Y24368000D01*
X92075047Y24272762D01*
X92170285Y24082286D01*
X92265524Y23701333D01*
X92265524Y23225143D01*
X92170285Y22844190D01*
X92075047Y22653714D01*
X91979809Y22558476D01*
X91789333Y22463238D01*
X91598857Y22463238D01*
X91408381Y22558476D01*
X91313143Y22653714D01*
X91217904Y22844190D01*
X91122666Y23225143D01*
X91122666Y23701333D01*
X91217904Y24082286D01*
X91313143Y24272762D01*
X91408381Y24368000D01*
X91598857Y24463238D01*
X92932190Y23796571D02*
X93408381Y22463238D01*
X93884571Y23796571D01*
X91726000Y28082857D02*
X91059333Y28082857D01*
X91059333Y27035238D02*
X91059333Y29035238D01*
X92011714Y29035238D01*
X93630762Y28368571D02*
X93630762Y27035238D01*
X92773619Y28368571D02*
X92773619Y27320952D01*
X92868858Y27130476D01*
X93059334Y27035238D01*
X93345048Y27035238D01*
X93535524Y27130476D01*
X93630762Y27225714D01*
X95345048Y27130476D02*
X95154572Y27035238D01*
X94773620Y27035238D01*
X94583143Y27130476D01*
X94487905Y27320952D01*
X94487905Y28082857D01*
X94583143Y28273333D01*
X94773620Y28368571D01*
X95154572Y28368571D01*
X95345048Y28273333D01*
X95440286Y28082857D01*
X95440286Y27892381D01*
X94487905Y27701905D01*
X96583144Y27035238D02*
X96392668Y27130476D01*
X96297429Y27320952D01*
X96297429Y29035238D01*
X90313333Y34369238D02*
X91456190Y34369238D01*
X90884762Y32369238D02*
X90884762Y34369238D01*
X92884762Y32464476D02*
X92694286Y32369238D01*
X92313334Y32369238D01*
X92122857Y32464476D01*
X92027619Y32654952D01*
X92027619Y33416857D01*
X92122857Y33607333D01*
X92313334Y33702571D01*
X92694286Y33702571D01*
X92884762Y33607333D01*
X92980000Y33416857D01*
X92980000Y33226381D01*
X92027619Y33035905D01*
X93837143Y32369238D02*
X93837143Y33702571D01*
X93837143Y33512095D02*
X93932382Y33607333D01*
X94122858Y33702571D01*
X94408572Y33702571D01*
X94599048Y33607333D01*
X94694286Y33416857D01*
X94694286Y32369238D01*
X94694286Y33416857D02*
X94789524Y33607333D01*
X94980001Y33702571D01*
X95265715Y33702571D01*
X95456191Y33607333D01*
X95551429Y33416857D01*
X95551429Y32369238D01*
X96503810Y33702571D02*
X96503810Y31702571D01*
X96503810Y33607333D02*
X96694287Y33702571D01*
X97075239Y33702571D01*
X97265715Y33607333D01*
X97360953Y33512095D01*
X97456191Y33321619D01*
X97456191Y32750190D01*
X97360953Y32559714D01*
X97265715Y32464476D01*
X97075239Y32369238D01*
X96694287Y32369238D01*
X96503810Y32464476D01*
D12*
X93980000Y4064000D03*
X94234000Y53340000D03*
X4064000Y53340000D03*
D13*
X9144000Y13208000D03*
X9144000Y18288000D03*
D14*
X44196000Y23368000D03*
X44196000Y20828000D03*
X44196000Y18288000D03*
X44196000Y8128000D03*
X44196000Y10668000D03*
X44196000Y13208000D03*
X44196000Y15748000D03*
D15*
X18344000Y39370000D03*
D16*
X21844000Y39370000D03*
D17*
X86106000Y48514000D03*
D18*
X86106000Y43434000D03*
X86106000Y38354000D03*
D17*
X86106000Y18034000D03*
D18*
X86106000Y12954000D03*
X86106000Y7874000D03*
D17*
X86106000Y33274000D03*
D18*
X86106000Y28194000D03*
X86106000Y23114000D03*
D17*
X7620000Y49022000D03*
D18*
X7620000Y43942000D03*
X7620000Y38862000D03*
D19*
X20574000Y50292000D03*
X12954000Y50292000D03*
D20*
X30480000Y36573000D03*
D21*
X30480000Y45723000D03*
D20*
X33020000Y36573000D03*
X27940000Y36573000D03*
D22*
X59436000Y33782000D03*
X64516000Y33782000D03*
X64516000Y49022000D03*
X56896000Y49022000D03*
X54356000Y49022000D03*
X51816000Y49022000D03*
X69596000Y33782000D03*
X67056000Y33782000D03*
X61976000Y33782000D03*
X56896000Y33782000D03*
X54356000Y33782000D03*
X51816000Y33782000D03*
X49276000Y33782000D03*
X46736000Y33782000D03*
X44196000Y33782000D03*
X41656000Y33782000D03*
X69596000Y49022000D03*
X67056000Y49022000D03*
X59436000Y49022000D03*
X49276000Y49022000D03*
X46736000Y49022000D03*
X44196000Y49022000D03*
X41656000Y49022000D03*
X41656000Y36322000D03*
X41656000Y38862000D03*
X41656000Y41402000D03*
X60706000Y36322000D03*
X58166000Y36322000D03*
X61976000Y49022000D03*
D23*
X72644000Y10160000D03*
X72644000Y12700000D03*
X72644000Y15240000D03*
X72644000Y17780000D03*
X65024000Y17780000D03*
X65024000Y15240000D03*
X65024000Y12700000D03*
X65024000Y10160000D03*
D19*
X30480000Y31750000D03*
X22860000Y31750000D03*
D24*
X24214000Y11684000D03*
X22014000Y11684000D03*
X24214000Y14224000D03*
X22014000Y14224000D03*
D25*
X37052000Y27686000D03*
X33052000Y27686000D03*
D26*
X21864000Y27686000D03*
X24364000Y27686000D03*
X36810000Y24892000D03*
X34310000Y24892000D03*
D27*
X41402000Y20240000D03*
X41402000Y22940000D03*
D28*
X29336000Y21082000D03*
X29336000Y19812000D03*
X29336000Y18542000D03*
X29336000Y17272000D03*
X29336000Y16002000D03*
X29336000Y14732000D03*
X29336000Y13462000D03*
X29336000Y12192000D03*
X29336000Y10922000D03*
X38736000Y10922000D03*
X38736000Y12192000D03*
X38736000Y13462000D03*
X38736000Y14732000D03*
X38736000Y16002000D03*
X38736000Y17272000D03*
X38736000Y18542000D03*
X38736000Y19812000D03*
X38736000Y21082000D03*
D29*
X25560000Y21463000D03*
X25560000Y22733000D03*
X25560000Y24003000D03*
X25560000Y25273000D03*
X20160000Y25273000D03*
X20160000Y24003000D03*
X20160000Y22733000D03*
X20160000Y21463000D03*
D30*
X24638000Y10414000D03*
X24638000Y15414000D03*
D17*
X13208000Y13462000D03*
D18*
X13208000Y18542000D03*
D12*
X4064000Y3810000D03*
D30*
X68834000Y31242000D03*
X74168000Y28956000D03*
X41656000Y28956000D03*
X46736000Y26162000D03*
X64008000Y38354000D03*
X46736000Y20574000D03*
X56134000Y20574000D03*
X74930000Y47752000D03*
X74930000Y43688000D03*
X61976000Y28702000D03*
X24130000Y53086000D03*
X13208000Y36068000D03*
X62230000Y42164000D03*
X79756000Y23622000D03*
X75184000Y24638000D03*
X76454000Y37084000D03*
X59436000Y46482000D03*
X17018000Y23876000D03*
X16510000Y13716000D03*
D31*
X41890000Y25908000D02*
X41890000Y26182000D01*
X41736000Y25754000D02*
X41890000Y25908000D01*
D32*
X68834000Y31242000D02*
X35814000Y31242000D01*
X33020000Y34036000D02*
X33020000Y36573000D01*
X35814000Y31242000D02*
X33020000Y34036000D01*
X71882000Y31242000D02*
X68834000Y31242000D01*
X74168000Y28956000D02*
X71882000Y31242000D01*
D31*
X44196000Y10668000D02*
X42418000Y10668000D01*
X40640000Y14732000D02*
X38736000Y14732000D01*
X41148000Y14224000D02*
X40640000Y14732000D01*
X41148000Y11938000D02*
X41148000Y14224000D01*
X42418000Y10668000D02*
X41148000Y11938000D01*
X44196000Y15748000D02*
X43018120Y15748000D01*
X41494120Y17272000D02*
X38736000Y17272000D01*
X43018120Y15748000D02*
X41494120Y17272000D01*
X44196000Y18288000D02*
X42672000Y18288000D01*
X42418000Y18542000D02*
X38736000Y18542000D01*
X42672000Y18288000D02*
X42418000Y18542000D01*
D32*
X43942000Y28956000D02*
X41656000Y28956000D01*
X46736000Y26162000D02*
X43942000Y28956000D01*
X22014000Y12954000D02*
X19558000Y12954000D01*
X19558000Y12954000D02*
X18669000Y13843000D01*
X22014000Y11684000D02*
X22014000Y12954000D01*
X22014000Y12954000D02*
X22014000Y14224000D01*
X41148000Y5334000D02*
X17526000Y5334000D01*
X11938000Y29464000D02*
X29718000Y29464000D01*
X5334000Y22860000D02*
X11938000Y29464000D01*
X5334000Y8890000D02*
X5334000Y22860000D01*
X8890000Y5334000D02*
X5334000Y8890000D01*
X17526000Y5334000D02*
X8890000Y5334000D01*
X29718000Y29464000D02*
X30480000Y30226000D01*
X30480000Y30226000D02*
X30480000Y31750000D01*
D31*
X21864000Y27686000D02*
X21864000Y26973998D01*
X22225000Y26612998D02*
X22225000Y21463000D01*
X21864000Y26973998D02*
X22225000Y26612998D01*
X21864000Y27686000D02*
X21864000Y28468000D01*
X21864000Y28468000D02*
X22860000Y29464000D01*
X22860000Y29464000D02*
X29718000Y29464000D01*
X30480000Y30226000D02*
X30480000Y31750000D01*
X29718000Y29464000D02*
X30480000Y30226000D01*
X37052000Y27686000D02*
X37052000Y27718000D01*
X37052000Y27718000D02*
X33020000Y31750000D01*
X33020000Y31750000D02*
X30480000Y31750000D01*
X36810000Y24892000D02*
X36810000Y27444000D01*
X36810000Y27444000D02*
X37052000Y27686000D01*
X20160000Y21463000D02*
X22225000Y21463000D01*
X23495000Y22733000D02*
X25560000Y22733000D01*
X22225000Y21463000D02*
X23495000Y22733000D01*
X18669000Y19685000D02*
X18669000Y13843000D01*
X19177000Y21463000D02*
X18542000Y20828000D01*
X18542000Y20828000D02*
X18542000Y19812000D01*
X18542000Y19812000D02*
X18669000Y19685000D01*
X20160000Y21463000D02*
X19177000Y21463000D01*
D32*
X30480000Y31750000D02*
X30766000Y31750000D01*
D31*
X29336000Y10922000D02*
X29336000Y8000000D01*
X29336000Y8000000D02*
X28448000Y7112000D01*
X28448000Y7112000D02*
X19558000Y7112000D01*
X19558000Y7112000D02*
X18288000Y8382000D01*
X18288000Y8382000D02*
X18288000Y13462000D01*
X18288000Y13462000D02*
X18669000Y13843000D01*
D32*
X56134000Y20574000D02*
X56134000Y11430000D01*
X50038000Y5334000D02*
X41148000Y5334000D01*
X41148000Y5334000D02*
X40894000Y5334000D01*
X56134000Y11430000D02*
X50038000Y5334000D01*
X44955000Y45723000D02*
X30480000Y45723000D01*
X51792002Y38885998D02*
X44955000Y45723000D01*
X63476002Y38885998D02*
X51792002Y38885998D01*
X64008000Y38354000D02*
X63476002Y38885998D01*
X30480000Y45723000D02*
X30480000Y36573000D01*
X46736000Y20574000D02*
X56134000Y20574000D01*
X30480000Y31750000D02*
X30480000Y36573000D01*
X46736000Y23368000D02*
X44196000Y23368000D01*
D31*
X33052000Y27686000D02*
X24364000Y27686000D01*
X34310000Y24892000D02*
X33528000Y24892000D01*
X33052000Y25368000D02*
X33052000Y27686000D01*
X33528000Y24892000D02*
X33052000Y25368000D01*
X38736000Y21082000D02*
X38736000Y22226000D01*
X38736000Y22226000D02*
X38102000Y22860000D01*
X34310000Y23348000D02*
X34310000Y24892000D01*
X34798000Y22860000D02*
X34310000Y23348000D01*
X38102000Y22860000D02*
X34798000Y22860000D01*
X41402000Y22940000D02*
X43768000Y22940000D01*
X43768000Y22940000D02*
X44196000Y23368000D01*
X39450000Y22940000D02*
X41402000Y22940000D01*
X38736000Y22226000D02*
X39450000Y22940000D01*
X25560000Y24003000D02*
X24003000Y24003000D01*
X24003000Y24003000D02*
X23622000Y24384000D01*
X23622000Y24384000D02*
X23622000Y26944000D01*
X23622000Y26944000D02*
X24364000Y27686000D01*
D32*
X56388000Y23114000D02*
X61976000Y28702000D01*
X46990000Y23114000D02*
X56388000Y23114000D01*
X46736000Y23368000D02*
X46990000Y23114000D01*
X74930000Y43688000D02*
X74930000Y47752000D01*
X65024000Y10160000D02*
X65786000Y10160000D01*
X65786000Y10160000D02*
X68072000Y7874000D01*
X78321324Y43688000D02*
X74930000Y43688000D01*
X81534000Y40475324D02*
X78321324Y43688000D01*
X81534000Y13970000D02*
X81534000Y40475324D01*
X75438000Y7874000D02*
X81534000Y13970000D01*
X68072000Y7874000D02*
X75438000Y7874000D01*
X62738000Y10160000D02*
X65024000Y10160000D01*
X61976000Y10922000D02*
X62738000Y10160000D01*
X61976000Y28702000D02*
X61976000Y10922000D01*
D31*
X44196000Y13208000D02*
X42602002Y13208000D01*
X41067060Y16002000D02*
X38736000Y16002000D01*
X42348002Y14721058D02*
X41067060Y16002000D01*
X42348002Y13462000D02*
X42348002Y14721058D01*
X42602002Y13208000D02*
X42348002Y13462000D01*
D32*
X11684000Y53340000D02*
X11176000Y53340000D01*
X24130000Y53086000D02*
X23876000Y53340000D01*
X23876000Y53340000D02*
X11684000Y53340000D01*
X10668000Y38608000D02*
X13208000Y36068000D01*
X10668000Y52832000D02*
X10668000Y38608000D01*
X11176000Y53340000D02*
X10668000Y52832000D01*
X22860000Y31750000D02*
X23371000Y31750000D01*
X23371000Y31750000D02*
X27940000Y36573000D01*
X78001998Y41886002D02*
X79756000Y40132000D01*
X62507998Y41886002D02*
X78001998Y41886002D01*
X62230000Y42164000D02*
X62507998Y41886002D01*
X79756000Y40132000D02*
X79756000Y23622000D01*
X78994000Y40894000D02*
X79756000Y40132000D01*
X76110676Y24638000D02*
X75184000Y24638000D01*
X76755996Y25283320D02*
X76110676Y24638000D01*
X76755996Y36782004D02*
X76755996Y25283320D01*
X76454000Y37084000D02*
X76755996Y36782004D01*
X78255998Y38608000D02*
X78255998Y24661998D01*
X78255998Y24661998D02*
X75946000Y22352000D01*
X77470000Y39393998D02*
X78255998Y38608000D01*
X75946000Y22352000D02*
X75946000Y11938000D01*
X75946000Y11938000D02*
X74168000Y10160000D01*
X74168000Y10160000D02*
X72644000Y10160000D01*
X76477998Y40386000D02*
X77470000Y39393998D01*
X59690000Y40386000D02*
X76477998Y40386000D01*
X59436000Y40640000D02*
X59690000Y40386000D01*
X59436000Y46482000D02*
X59436000Y40640000D01*
X24638000Y10414000D02*
X24638000Y11260000D01*
X24638000Y11260000D02*
X24214000Y11684000D01*
D31*
X29336000Y12192000D02*
X26416000Y12192000D01*
X26416000Y12192000D02*
X24638000Y10414000D01*
D32*
X24638000Y15414000D02*
X24638000Y14648000D01*
X24638000Y14648000D02*
X24214000Y14224000D01*
D31*
X29336000Y13462000D02*
X26590000Y13462000D01*
X26590000Y13462000D02*
X24638000Y15414000D01*
X38736000Y19812000D02*
X40974000Y19812000D01*
X40974000Y19812000D02*
X41402000Y20240000D01*
X29336000Y21082000D02*
X27940000Y21082000D01*
X27559000Y21463000D02*
X25560000Y21463000D01*
X27940000Y21082000D02*
X27559000Y21463000D01*
X29336000Y19812000D02*
X31242000Y19812000D01*
X31496000Y20066000D02*
X31496000Y22606000D01*
X31496000Y22606000D02*
X28829000Y25273000D01*
X28829000Y25273000D02*
X25560000Y25273000D01*
X31242000Y19812000D02*
X31496000Y20066000D01*
X17145000Y24003000D02*
X17018000Y23876000D01*
X17145000Y24003000D02*
X20160000Y24003000D01*
X20160000Y22733000D02*
X18161000Y22733000D01*
X18161000Y22733000D02*
X16510000Y21082000D01*
X16510000Y21082000D02*
X16510000Y13716000D01*
D32*
G36*
X90702614Y54045640D02*
X90701388Y52640524D01*
X91104879Y51664000D01*
X87956095Y51664000D01*
X87956095Y51195914D01*
X87376000Y51313386D01*
X84836000Y51313386D01*
X84280133Y51208793D01*
X83769604Y50880276D01*
X83427108Y50379017D01*
X83306614Y49784000D01*
X83306614Y47244000D01*
X83411207Y46688133D01*
X83739724Y46177604D01*
X84240983Y45835108D01*
X84531561Y45776264D01*
X83759077Y45005128D01*
X83336481Y43987404D01*
X83335520Y42885430D01*
X83756339Y41866971D01*
X84534872Y41087077D01*
X84999740Y40894047D01*
X84538971Y40703661D01*
X83759077Y39925128D01*
X83534000Y39383082D01*
X83534000Y40475319D01*
X83534001Y40475324D01*
X83381759Y41240691D01*
X82948214Y41889538D01*
X79735538Y45102214D01*
X79086691Y45535759D01*
X78321324Y45688001D01*
X78321319Y45688000D01*
X76930000Y45688000D01*
X76930000Y46701360D01*
X77179608Y47302484D01*
X77180390Y48197589D01*
X76838569Y49024858D01*
X76206187Y49658345D01*
X75379516Y50001608D01*
X74484411Y50002390D01*
X73657142Y49660569D01*
X73023655Y49028187D01*
X72680392Y48201516D01*
X72679610Y47306411D01*
X72930000Y46700422D01*
X72930000Y44738640D01*
X72680392Y44137516D01*
X72680172Y43886002D01*
X63690208Y43886002D01*
X63506187Y44070345D01*
X62679516Y44413608D01*
X61784411Y44414390D01*
X61436000Y44270429D01*
X61436000Y45431360D01*
X61685608Y46032484D01*
X61686390Y46927589D01*
X61470568Y47449918D01*
X61596524Y47575655D01*
X61976455Y48490630D01*
X62352955Y47579428D01*
X63069655Y46861476D01*
X64006548Y46472444D01*
X65021001Y46471559D01*
X65786726Y46787950D01*
X66546548Y46472444D01*
X67561001Y46471559D01*
X68326726Y46787950D01*
X69086548Y46472444D01*
X70101001Y46471559D01*
X71038572Y46858955D01*
X71756524Y47575655D01*
X72145556Y48512548D01*
X72146441Y49527001D01*
X71759045Y50464572D01*
X71042345Y51182524D01*
X70105452Y51571556D01*
X69090999Y51572441D01*
X68325274Y51256050D01*
X67565452Y51571556D01*
X66550999Y51572441D01*
X65785274Y51256050D01*
X65025452Y51571556D01*
X64010999Y51572441D01*
X63073428Y51185045D01*
X62355476Y50468345D01*
X61975545Y49553370D01*
X61599045Y50464572D01*
X60882345Y51182524D01*
X59945452Y51571556D01*
X58930999Y51572441D01*
X58165274Y51256050D01*
X57405452Y51571556D01*
X56390999Y51572441D01*
X55625274Y51256050D01*
X54865452Y51571556D01*
X53850999Y51572441D01*
X53085274Y51256050D01*
X52325452Y51571556D01*
X51310999Y51572441D01*
X50545274Y51256050D01*
X49785452Y51571556D01*
X48770999Y51572441D01*
X48005274Y51256050D01*
X47245452Y51571556D01*
X46230999Y51572441D01*
X45465274Y51256050D01*
X44705452Y51571556D01*
X43690999Y51572441D01*
X42925274Y51256050D01*
X42165452Y51571556D01*
X41150999Y51572441D01*
X40213428Y51185045D01*
X39495476Y50468345D01*
X39106444Y49531452D01*
X39105559Y48516999D01*
X39492955Y47579428D01*
X40209655Y46861476D01*
X41146548Y46472444D01*
X42161001Y46471559D01*
X42926726Y46787950D01*
X43686548Y46472444D01*
X44701001Y46471559D01*
X45466726Y46787950D01*
X46226548Y46472444D01*
X47241001Y46471559D01*
X48006726Y46787950D01*
X48766548Y46472444D01*
X49781001Y46471559D01*
X50546726Y46787950D01*
X51306548Y46472444D01*
X52321001Y46471559D01*
X53086726Y46787950D01*
X53846548Y46472444D01*
X54861001Y46471559D01*
X55626726Y46787950D01*
X56386548Y46472444D01*
X57185990Y46471747D01*
X57185610Y46036411D01*
X57436000Y45430422D01*
X57436000Y40640005D01*
X57435999Y40640000D01*
X57588241Y39874633D01*
X58021786Y39225786D01*
X58275784Y38971789D01*
X58275786Y38971786D01*
X58425465Y38871774D01*
X57660999Y38872441D01*
X56723428Y38485045D01*
X56005476Y37768345D01*
X55616444Y36831452D01*
X55615736Y36020011D01*
X54865452Y36331556D01*
X53850999Y36332441D01*
X53085274Y36016050D01*
X52325452Y36331556D01*
X51310999Y36332441D01*
X50545274Y36016050D01*
X49785452Y36331556D01*
X48770999Y36332441D01*
X48005274Y36016050D01*
X47245452Y36331556D01*
X46230999Y36332441D01*
X45465274Y36016050D01*
X44705452Y36331556D01*
X44206009Y36331992D01*
X44206441Y36827001D01*
X43890050Y37592726D01*
X44205556Y38352548D01*
X44206441Y39367001D01*
X43819045Y40304572D01*
X43102345Y41022524D01*
X42165452Y41411556D01*
X41150999Y41412441D01*
X40213428Y41025045D01*
X39495476Y40308345D01*
X39106444Y39371452D01*
X39105559Y38356999D01*
X39421950Y37591274D01*
X39106444Y36831452D01*
X39105559Y35816999D01*
X39421950Y35051274D01*
X39106444Y34291452D01*
X39105559Y33276999D01*
X39120020Y33242000D01*
X36642427Y33242000D01*
X35244386Y34640042D01*
X35244386Y38873000D01*
X35139793Y39428867D01*
X34811276Y39939396D01*
X34310017Y40281892D01*
X33715000Y40402386D01*
X32325000Y40402386D01*
X31769133Y40297793D01*
X31258604Y39969276D01*
X30916108Y39468017D01*
X30795614Y38873000D01*
X30795614Y34273000D01*
X30900207Y33717133D01*
X31165404Y33305006D01*
X31172241Y33270633D01*
X31605786Y32621786D01*
X34190166Y30037407D01*
X34052000Y30065386D01*
X32052000Y30065386D01*
X31496133Y29960793D01*
X30985604Y29632276D01*
X30919821Y29536000D01*
X25978152Y29536000D01*
X25709017Y29719892D01*
X25114000Y29840386D01*
X24484952Y29840386D01*
X24977729Y30332304D01*
X25129752Y30698416D01*
X27095853Y32773817D01*
X27245000Y32743614D01*
X28635000Y32743614D01*
X29190867Y32848207D01*
X29701396Y33176724D01*
X30043892Y33677983D01*
X30164386Y34273000D01*
X30164386Y38873000D01*
X30059793Y39428867D01*
X29731276Y39939396D01*
X29230017Y40281892D01*
X28635000Y40402386D01*
X27245000Y40402386D01*
X26689133Y40297793D01*
X26178604Y39969276D01*
X25836108Y39468017D01*
X25715614Y38873000D01*
X25715614Y37133065D01*
X22983799Y34249383D01*
X22365002Y34249923D01*
X21446002Y33870200D01*
X20742271Y33167696D01*
X20360945Y32249361D01*
X20360077Y31255002D01*
X20739800Y30336002D01*
X21442304Y29632271D01*
X22360639Y29250945D01*
X22440740Y29250875D01*
X22205108Y28906017D01*
X22084614Y28311000D01*
X22084614Y27909069D01*
X21912823Y27651965D01*
X21771999Y26944000D01*
X21772000Y26943995D01*
X21772000Y26816552D01*
X21530017Y26981892D01*
X20935000Y27102386D01*
X19385000Y27102386D01*
X18829133Y26997793D01*
X18318604Y26669276D01*
X17976108Y26168017D01*
X17928737Y25934093D01*
X17467516Y26125608D01*
X16572411Y26126390D01*
X15745142Y25784569D01*
X15111655Y25152187D01*
X14768392Y24325516D01*
X14767610Y23430411D01*
X15109431Y22603142D01*
X15262005Y22450301D01*
X15201852Y22390148D01*
X14800823Y21789965D01*
X14659999Y21082000D01*
X14660000Y21081995D01*
X14660000Y20938389D01*
X13761404Y21311519D01*
X12659430Y21312480D01*
X11640971Y20891661D01*
X11211648Y20463087D01*
X10845582Y20829793D01*
X9743355Y21287478D01*
X8549881Y21288519D01*
X7446857Y20832759D01*
X6602207Y19989582D01*
X6144522Y18887355D01*
X6143481Y17693881D01*
X6599241Y16590857D01*
X7441358Y15747269D01*
X6602207Y14909582D01*
X6144522Y13807355D01*
X6143481Y12613881D01*
X6599241Y11510857D01*
X7442418Y10666207D01*
X8544645Y10208522D01*
X9738119Y10207481D01*
X10841143Y10663241D01*
X11116345Y10937963D01*
X11342983Y10783108D01*
X11938000Y10662614D01*
X14478000Y10662614D01*
X15033867Y10767207D01*
X15544396Y11095724D01*
X15855750Y11551405D01*
X16060484Y11466392D01*
X16955589Y11465610D01*
X17782858Y11807431D01*
X18416345Y12439813D01*
X18759608Y13266484D01*
X18760390Y14161589D01*
X18418569Y14988858D01*
X18360000Y15047529D01*
X18360000Y20315704D01*
X18927295Y20883000D01*
X20160000Y20883000D01*
X20263633Y20903614D01*
X20935000Y20903614D01*
X21490867Y21008207D01*
X22001396Y21336724D01*
X22343892Y21837983D01*
X22464386Y22433000D01*
X22464386Y22925318D01*
X22694850Y22694855D01*
X22694852Y22694852D01*
X23018982Y22478276D01*
X23295035Y22293823D01*
X23360473Y22280807D01*
X23255614Y21763000D01*
X23255614Y21163000D01*
X23360207Y20607133D01*
X23688724Y20096604D01*
X24189983Y19754108D01*
X24785000Y19633614D01*
X25456367Y19633614D01*
X25560000Y19613000D01*
X26806614Y19613000D01*
X26806614Y19512000D01*
X26871963Y19164701D01*
X26806614Y18842000D01*
X26806614Y18242000D01*
X26871963Y17894701D01*
X26806614Y17572000D01*
X26806614Y16972000D01*
X26871963Y16624701D01*
X26806614Y16302000D01*
X26806614Y16057502D01*
X26546569Y16686858D01*
X25914187Y17320345D01*
X25087516Y17663608D01*
X24192411Y17664390D01*
X23365142Y17322569D01*
X22731655Y16690187D01*
X22388392Y15863516D01*
X22388107Y15536844D01*
X22205108Y15269017D01*
X22084614Y14674000D01*
X22084614Y13774000D01*
X22189207Y13218133D01*
X22359007Y12954256D01*
X22205108Y12729017D01*
X22084614Y12134000D01*
X22084614Y11234000D01*
X22189207Y10678133D01*
X22387960Y10369262D01*
X22387610Y9968411D01*
X22729431Y9141142D01*
X23361813Y8507655D01*
X24188484Y8164392D01*
X25083589Y8163610D01*
X25910858Y8505431D01*
X26544345Y9137813D01*
X26887608Y9964484D01*
X26887680Y10047385D01*
X27182295Y10342000D01*
X29336000Y10342000D01*
X29439633Y10362614D01*
X30336000Y10362614D01*
X30891867Y10467207D01*
X31402396Y10795724D01*
X31744892Y11296983D01*
X31865386Y11892000D01*
X31865386Y12492000D01*
X31800037Y12839299D01*
X31865386Y13162000D01*
X31865386Y13762000D01*
X31800037Y14109299D01*
X31865386Y14432000D01*
X31865386Y15032000D01*
X31800037Y15379299D01*
X31865386Y15702000D01*
X31865386Y16302000D01*
X31800037Y16649299D01*
X31865386Y16972000D01*
X31865386Y17572000D01*
X31800037Y17919299D01*
X31832469Y18079451D01*
X31949965Y18102823D01*
X32550148Y18503852D01*
X32804145Y18757850D01*
X32804148Y18757852D01*
X33132966Y19249964D01*
X33205177Y19358035D01*
X33346000Y20066000D01*
X33346000Y21695705D01*
X33489850Y21551855D01*
X33489852Y21551852D01*
X33755807Y21374147D01*
X34090035Y21150823D01*
X34798000Y21010000D01*
X36206614Y21010000D01*
X36206614Y20782000D01*
X36271963Y20434701D01*
X36206614Y20112000D01*
X36206614Y19512000D01*
X36271963Y19164701D01*
X36206614Y18842000D01*
X36206614Y18242000D01*
X36271963Y17894701D01*
X36206614Y17572000D01*
X36206614Y16972000D01*
X36271963Y16624701D01*
X36206614Y16302000D01*
X36206614Y15702000D01*
X36271963Y15354701D01*
X36206614Y15032000D01*
X36206614Y14432000D01*
X36271963Y14084701D01*
X36206614Y13762000D01*
X36206614Y13162000D01*
X36271963Y12814701D01*
X36206614Y12492000D01*
X36206614Y11892000D01*
X36271963Y11544701D01*
X36206614Y11222000D01*
X36206614Y10622000D01*
X36311207Y10066133D01*
X36639724Y9555604D01*
X37140983Y9213108D01*
X37736000Y9092614D01*
X39736000Y9092614D01*
X40291867Y9197207D01*
X40802396Y9525724D01*
X40859868Y9609837D01*
X41109850Y9359855D01*
X41109852Y9359852D01*
X41437176Y9141142D01*
X41710035Y8958823D01*
X41824568Y8936041D01*
X41696435Y8627462D01*
X41695567Y7632901D01*
X42075367Y6713714D01*
X42778015Y6009839D01*
X43696538Y5628435D01*
X44691099Y5627567D01*
X45610286Y6007367D01*
X46314161Y6710015D01*
X46695565Y7628538D01*
X46696433Y8623099D01*
X46375931Y9398774D01*
X46695565Y10168538D01*
X46696433Y11163099D01*
X46375931Y11938774D01*
X46695565Y12708538D01*
X46696433Y13703099D01*
X46375931Y14478774D01*
X46695565Y15248538D01*
X46696433Y16243099D01*
X46375931Y17018774D01*
X46695565Y17788538D01*
X46696433Y18783099D01*
X46316633Y19702286D01*
X45613985Y20406161D01*
X44695462Y20787565D01*
X43700901Y20788433D01*
X43581386Y20739050D01*
X43581386Y20916250D01*
X43696538Y20868435D01*
X44691099Y20867567D01*
X45610286Y21247367D01*
X45731130Y21368000D01*
X46072340Y21368000D01*
X46224633Y21266241D01*
X46990000Y21114000D01*
X56387995Y21114000D01*
X56388000Y21113999D01*
X57153367Y21266241D01*
X57802214Y21699786D01*
X59976000Y23873572D01*
X59976000Y10922005D01*
X59975999Y10922000D01*
X60128241Y10156633D01*
X60561786Y9507786D01*
X61323784Y8745789D01*
X61323786Y8745786D01*
X61800279Y8427404D01*
X61972633Y8312241D01*
X62738000Y8159999D01*
X62738005Y8160000D01*
X63554950Y8160000D01*
X63741911Y8035077D01*
X64622083Y7860000D01*
X65257572Y7860000D01*
X66657784Y6459789D01*
X66657786Y6459786D01*
X67306633Y6026241D01*
X68072000Y5874000D01*
X75437995Y5874000D01*
X75438000Y5873999D01*
X76203367Y6026241D01*
X76852214Y6459786D01*
X82948211Y12555784D01*
X82948214Y12555786D01*
X83336157Y13136385D01*
X83335520Y12405430D01*
X83756339Y11386971D01*
X84534872Y10607077D01*
X84999740Y10414047D01*
X84538971Y10223661D01*
X83759077Y9445128D01*
X83336481Y8427404D01*
X83335520Y7325430D01*
X83756339Y6306971D01*
X84534872Y5527077D01*
X85552596Y5104481D01*
X86654570Y5103520D01*
X87673029Y5524339D01*
X88452923Y6302872D01*
X88591048Y6635514D01*
X88591048Y4270000D01*
X90448178Y4270000D01*
X90447388Y3364524D01*
X90976903Y2083000D01*
X7171280Y2083000D01*
X7595386Y3104360D01*
X7596612Y4509476D01*
X7060030Y5808104D01*
X6067330Y6802538D01*
X4769640Y7341386D01*
X3364524Y7342612D01*
X2591000Y7022998D01*
X2591000Y13265428D01*
X5890000Y13265428D01*
X5890000Y36674227D01*
X6048872Y36515077D01*
X7066596Y36092481D01*
X8168570Y36091520D01*
X9187029Y36512339D01*
X9561458Y36886114D01*
X11050871Y35396701D01*
X11299431Y34795142D01*
X11931813Y34161655D01*
X12758484Y33818392D01*
X13653589Y33817610D01*
X14480858Y34159431D01*
X15114345Y34791813D01*
X15457608Y35618484D01*
X15458390Y36513589D01*
X15116569Y37340858D01*
X14484187Y37974345D01*
X13878636Y38225791D01*
X12668000Y39436428D01*
X12668000Y40020000D01*
X19664614Y40020000D01*
X19664614Y38720000D01*
X19769207Y38164133D01*
X20097724Y37653604D01*
X20598983Y37311108D01*
X21194000Y37190614D01*
X22494000Y37190614D01*
X23049867Y37295207D01*
X23560396Y37623724D01*
X23902892Y38124983D01*
X24023386Y38720000D01*
X24023386Y40020000D01*
X23918793Y40575867D01*
X23590276Y41086396D01*
X23089017Y41428892D01*
X22494000Y41549386D01*
X21194000Y41549386D01*
X20638133Y41444793D01*
X20127604Y41116276D01*
X19785108Y40615017D01*
X19664614Y40020000D01*
X12668000Y40020000D01*
X12668000Y47792759D01*
X13448998Y47792077D01*
X14367998Y48171800D01*
X15071729Y48874304D01*
X15453055Y49792639D01*
X15453923Y50786998D01*
X15225427Y51340000D01*
X18302760Y51340000D01*
X18074945Y50791361D01*
X18074077Y49797002D01*
X18453800Y48878002D01*
X19156304Y48174271D01*
X20074639Y47792945D01*
X21068998Y47792077D01*
X21987998Y48171800D01*
X22691729Y48874304D01*
X23073055Y49792639D01*
X23073923Y50786998D01*
X22923665Y51150650D01*
X23680484Y50836392D01*
X24575589Y50835610D01*
X25402858Y51177431D01*
X26036345Y51809813D01*
X26379608Y52636484D01*
X26380390Y53531589D01*
X26038569Y54358858D01*
X25585219Y54813000D01*
X91021250Y54813000D01*
X90702614Y54045640D01*
X90702614Y54045640D01*
G37*
X90702614Y54045640D02*
X90701388Y52640524D01*
X91104879Y51664000D01*
X87956095Y51664000D01*
X87956095Y51195914D01*
X87376000Y51313386D01*
X84836000Y51313386D01*
X84280133Y51208793D01*
X83769604Y50880276D01*
X83427108Y50379017D01*
X83306614Y49784000D01*
X83306614Y47244000D01*
X83411207Y46688133D01*
X83739724Y46177604D01*
X84240983Y45835108D01*
X84531561Y45776264D01*
X83759077Y45005128D01*
X83336481Y43987404D01*
X83335520Y42885430D01*
X83756339Y41866971D01*
X84534872Y41087077D01*
X84999740Y40894047D01*
X84538971Y40703661D01*
X83759077Y39925128D01*
X83534000Y39383082D01*
X83534000Y40475319D01*
X83534001Y40475324D01*
X83381759Y41240691D01*
X82948214Y41889538D01*
X79735538Y45102214D01*
X79086691Y45535759D01*
X78321324Y45688001D01*
X78321319Y45688000D01*
X76930000Y45688000D01*
X76930000Y46701360D01*
X77179608Y47302484D01*
X77180390Y48197589D01*
X76838569Y49024858D01*
X76206187Y49658345D01*
X75379516Y50001608D01*
X74484411Y50002390D01*
X73657142Y49660569D01*
X73023655Y49028187D01*
X72680392Y48201516D01*
X72679610Y47306411D01*
X72930000Y46700422D01*
X72930000Y44738640D01*
X72680392Y44137516D01*
X72680172Y43886002D01*
X63690208Y43886002D01*
X63506187Y44070345D01*
X62679516Y44413608D01*
X61784411Y44414390D01*
X61436000Y44270429D01*
X61436000Y45431360D01*
X61685608Y46032484D01*
X61686390Y46927589D01*
X61470568Y47449918D01*
X61596524Y47575655D01*
X61976455Y48490630D01*
X62352955Y47579428D01*
X63069655Y46861476D01*
X64006548Y46472444D01*
X65021001Y46471559D01*
X65786726Y46787950D01*
X66546548Y46472444D01*
X67561001Y46471559D01*
X68326726Y46787950D01*
X69086548Y46472444D01*
X70101001Y46471559D01*
X71038572Y46858955D01*
X71756524Y47575655D01*
X72145556Y48512548D01*
X72146441Y49527001D01*
X71759045Y50464572D01*
X71042345Y51182524D01*
X70105452Y51571556D01*
X69090999Y51572441D01*
X68325274Y51256050D01*
X67565452Y51571556D01*
X66550999Y51572441D01*
X65785274Y51256050D01*
X65025452Y51571556D01*
X64010999Y51572441D01*
X63073428Y51185045D01*
X62355476Y50468345D01*
X61975545Y49553370D01*
X61599045Y50464572D01*
X60882345Y51182524D01*
X59945452Y51571556D01*
X58930999Y51572441D01*
X58165274Y51256050D01*
X57405452Y51571556D01*
X56390999Y51572441D01*
X55625274Y51256050D01*
X54865452Y51571556D01*
X53850999Y51572441D01*
X53085274Y51256050D01*
X52325452Y51571556D01*
X51310999Y51572441D01*
X50545274Y51256050D01*
X49785452Y51571556D01*
X48770999Y51572441D01*
X48005274Y51256050D01*
X47245452Y51571556D01*
X46230999Y51572441D01*
X45465274Y51256050D01*
X44705452Y51571556D01*
X43690999Y51572441D01*
X42925274Y51256050D01*
X42165452Y51571556D01*
X41150999Y51572441D01*
X40213428Y51185045D01*
X39495476Y50468345D01*
X39106444Y49531452D01*
X39105559Y48516999D01*
X39492955Y47579428D01*
X40209655Y46861476D01*
X41146548Y46472444D01*
X42161001Y46471559D01*
X42926726Y46787950D01*
X43686548Y46472444D01*
X44701001Y46471559D01*
X45466726Y46787950D01*
X46226548Y46472444D01*
X47241001Y46471559D01*
X48006726Y46787950D01*
X48766548Y46472444D01*
X49781001Y46471559D01*
X50546726Y46787950D01*
X51306548Y46472444D01*
X52321001Y46471559D01*
X53086726Y46787950D01*
X53846548Y46472444D01*
X54861001Y46471559D01*
X55626726Y46787950D01*
X56386548Y46472444D01*
X57185990Y46471747D01*
X57185610Y46036411D01*
X57436000Y45430422D01*
X57436000Y40640005D01*
X57435999Y40640000D01*
X57588241Y39874633D01*
X58021786Y39225786D01*
X58275784Y38971789D01*
X58275786Y38971786D01*
X58425465Y38871774D01*
X57660999Y38872441D01*
X56723428Y38485045D01*
X56005476Y37768345D01*
X55616444Y36831452D01*
X55615736Y36020011D01*
X54865452Y36331556D01*
X53850999Y36332441D01*
X53085274Y36016050D01*
X52325452Y36331556D01*
X51310999Y36332441D01*
X50545274Y36016050D01*
X49785452Y36331556D01*
X48770999Y36332441D01*
X48005274Y36016050D01*
X47245452Y36331556D01*
X46230999Y36332441D01*
X45465274Y36016050D01*
X44705452Y36331556D01*
X44206009Y36331992D01*
X44206441Y36827001D01*
X43890050Y37592726D01*
X44205556Y38352548D01*
X44206441Y39367001D01*
X43819045Y40304572D01*
X43102345Y41022524D01*
X42165452Y41411556D01*
X41150999Y41412441D01*
X40213428Y41025045D01*
X39495476Y40308345D01*
X39106444Y39371452D01*
X39105559Y38356999D01*
X39421950Y37591274D01*
X39106444Y36831452D01*
X39105559Y35816999D01*
X39421950Y35051274D01*
X39106444Y34291452D01*
X39105559Y33276999D01*
X39120020Y33242000D01*
X36642427Y33242000D01*
X35244386Y34640042D01*
X35244386Y38873000D01*
X35139793Y39428867D01*
X34811276Y39939396D01*
X34310017Y40281892D01*
X33715000Y40402386D01*
X32325000Y40402386D01*
X31769133Y40297793D01*
X31258604Y39969276D01*
X30916108Y39468017D01*
X30795614Y38873000D01*
X30795614Y34273000D01*
X30900207Y33717133D01*
X31165404Y33305006D01*
X31172241Y33270633D01*
X31605786Y32621786D01*
X34190166Y30037407D01*
X34052000Y30065386D01*
X32052000Y30065386D01*
X31496133Y29960793D01*
X30985604Y29632276D01*
X30919821Y29536000D01*
X25978152Y29536000D01*
X25709017Y29719892D01*
X25114000Y29840386D01*
X24484952Y29840386D01*
X24977729Y30332304D01*
X25129752Y30698416D01*
X27095853Y32773817D01*
X27245000Y32743614D01*
X28635000Y32743614D01*
X29190867Y32848207D01*
X29701396Y33176724D01*
X30043892Y33677983D01*
X30164386Y34273000D01*
X30164386Y38873000D01*
X30059793Y39428867D01*
X29731276Y39939396D01*
X29230017Y40281892D01*
X28635000Y40402386D01*
X27245000Y40402386D01*
X26689133Y40297793D01*
X26178604Y39969276D01*
X25836108Y39468017D01*
X25715614Y38873000D01*
X25715614Y37133065D01*
X22983799Y34249383D01*
X22365002Y34249923D01*
X21446002Y33870200D01*
X20742271Y33167696D01*
X20360945Y32249361D01*
X20360077Y31255002D01*
X20739800Y30336002D01*
X21442304Y29632271D01*
X22360639Y29250945D01*
X22440740Y29250875D01*
X22205108Y28906017D01*
X22084614Y28311000D01*
X22084614Y27909069D01*
X21912823Y27651965D01*
X21771999Y26944000D01*
X21772000Y26943995D01*
X21772000Y26816552D01*
X21530017Y26981892D01*
X20935000Y27102386D01*
X19385000Y27102386D01*
X18829133Y26997793D01*
X18318604Y26669276D01*
X17976108Y26168017D01*
X17928737Y25934093D01*
X17467516Y26125608D01*
X16572411Y26126390D01*
X15745142Y25784569D01*
X15111655Y25152187D01*
X14768392Y24325516D01*
X14767610Y23430411D01*
X15109431Y22603142D01*
X15262005Y22450301D01*
X15201852Y22390148D01*
X14800823Y21789965D01*
X14659999Y21082000D01*
X14660000Y21081995D01*
X14660000Y20938389D01*
X13761404Y21311519D01*
X12659430Y21312480D01*
X11640971Y20891661D01*
X11211648Y20463087D01*
X10845582Y20829793D01*
X9743355Y21287478D01*
X8549881Y21288519D01*
X7446857Y20832759D01*
X6602207Y19989582D01*
X6144522Y18887355D01*
X6143481Y17693881D01*
X6599241Y16590857D01*
X7441358Y15747269D01*
X6602207Y14909582D01*
X6144522Y13807355D01*
X6143481Y12613881D01*
X6599241Y11510857D01*
X7442418Y10666207D01*
X8544645Y10208522D01*
X9738119Y10207481D01*
X10841143Y10663241D01*
X11116345Y10937963D01*
X11342983Y10783108D01*
X11938000Y10662614D01*
X14478000Y10662614D01*
X15033867Y10767207D01*
X15544396Y11095724D01*
X15855750Y11551405D01*
X16060484Y11466392D01*
X16955589Y11465610D01*
X17782858Y11807431D01*
X18416345Y12439813D01*
X18759608Y13266484D01*
X18760390Y14161589D01*
X18418569Y14988858D01*
X18360000Y15047529D01*
X18360000Y20315704D01*
X18927295Y20883000D01*
X20160000Y20883000D01*
X20263633Y20903614D01*
X20935000Y20903614D01*
X21490867Y21008207D01*
X22001396Y21336724D01*
X22343892Y21837983D01*
X22464386Y22433000D01*
X22464386Y22925318D01*
X22694850Y22694855D01*
X22694852Y22694852D01*
X23018982Y22478276D01*
X23295035Y22293823D01*
X23360473Y22280807D01*
X23255614Y21763000D01*
X23255614Y21163000D01*
X23360207Y20607133D01*
X23688724Y20096604D01*
X24189983Y19754108D01*
X24785000Y19633614D01*
X25456367Y19633614D01*
X25560000Y19613000D01*
X26806614Y19613000D01*
X26806614Y19512000D01*
X26871963Y19164701D01*
X26806614Y18842000D01*
X26806614Y18242000D01*
X26871963Y17894701D01*
X26806614Y17572000D01*
X26806614Y16972000D01*
X26871963Y16624701D01*
X26806614Y16302000D01*
X26806614Y16057502D01*
X26546569Y16686858D01*
X25914187Y17320345D01*
X25087516Y17663608D01*
X24192411Y17664390D01*
X23365142Y17322569D01*
X22731655Y16690187D01*
X22388392Y15863516D01*
X22388107Y15536844D01*
X22205108Y15269017D01*
X22084614Y14674000D01*
X22084614Y13774000D01*
X22189207Y13218133D01*
X22359007Y12954256D01*
X22205108Y12729017D01*
X22084614Y12134000D01*
X22084614Y11234000D01*
X22189207Y10678133D01*
X22387960Y10369262D01*
X22387610Y9968411D01*
X22729431Y9141142D01*
X23361813Y8507655D01*
X24188484Y8164392D01*
X25083589Y8163610D01*
X25910858Y8505431D01*
X26544345Y9137813D01*
X26887608Y9964484D01*
X26887680Y10047385D01*
X27182295Y10342000D01*
X29336000Y10342000D01*
X29439633Y10362614D01*
X30336000Y10362614D01*
X30891867Y10467207D01*
X31402396Y10795724D01*
X31744892Y11296983D01*
X31865386Y11892000D01*
X31865386Y12492000D01*
X31800037Y12839299D01*
X31865386Y13162000D01*
X31865386Y13762000D01*
X31800037Y14109299D01*
X31865386Y14432000D01*
X31865386Y15032000D01*
X31800037Y15379299D01*
X31865386Y15702000D01*
X31865386Y16302000D01*
X31800037Y16649299D01*
X31865386Y16972000D01*
X31865386Y17572000D01*
X31800037Y17919299D01*
X31832469Y18079451D01*
X31949965Y18102823D01*
X32550148Y18503852D01*
X32804145Y18757850D01*
X32804148Y18757852D01*
X33132966Y19249964D01*
X33205177Y19358035D01*
X33346000Y20066000D01*
X33346000Y21695705D01*
X33489850Y21551855D01*
X33489852Y21551852D01*
X33755807Y21374147D01*
X34090035Y21150823D01*
X34798000Y21010000D01*
X36206614Y21010000D01*
X36206614Y20782000D01*
X36271963Y20434701D01*
X36206614Y20112000D01*
X36206614Y19512000D01*
X36271963Y19164701D01*
X36206614Y18842000D01*
X36206614Y18242000D01*
X36271963Y17894701D01*
X36206614Y17572000D01*
X36206614Y16972000D01*
X36271963Y16624701D01*
X36206614Y16302000D01*
X36206614Y15702000D01*
X36271963Y15354701D01*
X36206614Y15032000D01*
X36206614Y14432000D01*
X36271963Y14084701D01*
X36206614Y13762000D01*
X36206614Y13162000D01*
X36271963Y12814701D01*
X36206614Y12492000D01*
X36206614Y11892000D01*
X36271963Y11544701D01*
X36206614Y11222000D01*
X36206614Y10622000D01*
X36311207Y10066133D01*
X36639724Y9555604D01*
X37140983Y9213108D01*
X37736000Y9092614D01*
X39736000Y9092614D01*
X40291867Y9197207D01*
X40802396Y9525724D01*
X40859868Y9609837D01*
X41109850Y9359855D01*
X41109852Y9359852D01*
X41437176Y9141142D01*
X41710035Y8958823D01*
X41824568Y8936041D01*
X41696435Y8627462D01*
X41695567Y7632901D01*
X42075367Y6713714D01*
X42778015Y6009839D01*
X43696538Y5628435D01*
X44691099Y5627567D01*
X45610286Y6007367D01*
X46314161Y6710015D01*
X46695565Y7628538D01*
X46696433Y8623099D01*
X46375931Y9398774D01*
X46695565Y10168538D01*
X46696433Y11163099D01*
X46375931Y11938774D01*
X46695565Y12708538D01*
X46696433Y13703099D01*
X46375931Y14478774D01*
X46695565Y15248538D01*
X46696433Y16243099D01*
X46375931Y17018774D01*
X46695565Y17788538D01*
X46696433Y18783099D01*
X46316633Y19702286D01*
X45613985Y20406161D01*
X44695462Y20787565D01*
X43700901Y20788433D01*
X43581386Y20739050D01*
X43581386Y20916250D01*
X43696538Y20868435D01*
X44691099Y20867567D01*
X45610286Y21247367D01*
X45731130Y21368000D01*
X46072340Y21368000D01*
X46224633Y21266241D01*
X46990000Y21114000D01*
X56387995Y21114000D01*
X56388000Y21113999D01*
X57153367Y21266241D01*
X57802214Y21699786D01*
X59976000Y23873572D01*
X59976000Y10922005D01*
X59975999Y10922000D01*
X60128241Y10156633D01*
X60561786Y9507786D01*
X61323784Y8745789D01*
X61323786Y8745786D01*
X61800279Y8427404D01*
X61972633Y8312241D01*
X62738000Y8159999D01*
X62738005Y8160000D01*
X63554950Y8160000D01*
X63741911Y8035077D01*
X64622083Y7860000D01*
X65257572Y7860000D01*
X66657784Y6459789D01*
X66657786Y6459786D01*
X67306633Y6026241D01*
X68072000Y5874000D01*
X75437995Y5874000D01*
X75438000Y5873999D01*
X76203367Y6026241D01*
X76852214Y6459786D01*
X82948211Y12555784D01*
X82948214Y12555786D01*
X83336157Y13136385D01*
X83335520Y12405430D01*
X83756339Y11386971D01*
X84534872Y10607077D01*
X84999740Y10414047D01*
X84538971Y10223661D01*
X83759077Y9445128D01*
X83336481Y8427404D01*
X83335520Y7325430D01*
X83756339Y6306971D01*
X84534872Y5527077D01*
X85552596Y5104481D01*
X86654570Y5103520D01*
X87673029Y5524339D01*
X88452923Y6302872D01*
X88591048Y6635514D01*
X88591048Y4270000D01*
X90448178Y4270000D01*
X90447388Y3364524D01*
X90976903Y2083000D01*
X7171280Y2083000D01*
X7595386Y3104360D01*
X7596612Y4509476D01*
X7060030Y5808104D01*
X6067330Y6802538D01*
X4769640Y7341386D01*
X3364524Y7342612D01*
X2591000Y7022998D01*
X2591000Y13265428D01*
X5890000Y13265428D01*
X5890000Y36674227D01*
X6048872Y36515077D01*
X7066596Y36092481D01*
X8168570Y36091520D01*
X9187029Y36512339D01*
X9561458Y36886114D01*
X11050871Y35396701D01*
X11299431Y34795142D01*
X11931813Y34161655D01*
X12758484Y33818392D01*
X13653589Y33817610D01*
X14480858Y34159431D01*
X15114345Y34791813D01*
X15457608Y35618484D01*
X15458390Y36513589D01*
X15116569Y37340858D01*
X14484187Y37974345D01*
X13878636Y38225791D01*
X12668000Y39436428D01*
X12668000Y40020000D01*
X19664614Y40020000D01*
X19664614Y38720000D01*
X19769207Y38164133D01*
X20097724Y37653604D01*
X20598983Y37311108D01*
X21194000Y37190614D01*
X22494000Y37190614D01*
X23049867Y37295207D01*
X23560396Y37623724D01*
X23902892Y38124983D01*
X24023386Y38720000D01*
X24023386Y40020000D01*
X23918793Y40575867D01*
X23590276Y41086396D01*
X23089017Y41428892D01*
X22494000Y41549386D01*
X21194000Y41549386D01*
X20638133Y41444793D01*
X20127604Y41116276D01*
X19785108Y40615017D01*
X19664614Y40020000D01*
X12668000Y40020000D01*
X12668000Y47792759D01*
X13448998Y47792077D01*
X14367998Y48171800D01*
X15071729Y48874304D01*
X15453055Y49792639D01*
X15453923Y50786998D01*
X15225427Y51340000D01*
X18302760Y51340000D01*
X18074945Y50791361D01*
X18074077Y49797002D01*
X18453800Y48878002D01*
X19156304Y48174271D01*
X20074639Y47792945D01*
X21068998Y47792077D01*
X21987998Y48171800D01*
X22691729Y48874304D01*
X23073055Y49792639D01*
X23073923Y50786998D01*
X22923665Y51150650D01*
X23680484Y50836392D01*
X24575589Y50835610D01*
X25402858Y51177431D01*
X26036345Y51809813D01*
X26379608Y52636484D01*
X26380390Y53531589D01*
X26038569Y54358858D01*
X25585219Y54813000D01*
X91021250Y54813000D01*
X90702614Y54045640D01*
G36*
X68384484Y28992392D02*
X69279589Y28991610D01*
X69885578Y29242000D01*
X71053572Y29242000D01*
X72010872Y28284701D01*
X72259431Y27683142D01*
X72891813Y27049655D01*
X73718484Y26706392D01*
X74296720Y26705887D01*
X73911142Y26546569D01*
X73277655Y25914187D01*
X72934392Y25087516D01*
X72933610Y24192411D01*
X73275431Y23365142D01*
X73907813Y22731655D01*
X74012843Y22688043D01*
X73945999Y22352000D01*
X73946000Y22351995D01*
X73946000Y17351619D01*
X73926089Y17364923D01*
X73045917Y17540000D01*
X72242083Y17540000D01*
X71361911Y17364923D01*
X70615737Y16866346D01*
X70117160Y16120172D01*
X69942083Y15240000D01*
X70117160Y14359828D01*
X70377634Y13970000D01*
X70117160Y13580172D01*
X69942083Y12700000D01*
X70117160Y11819828D01*
X70377634Y11430000D01*
X70117160Y11040172D01*
X69942083Y10160000D01*
X69998972Y9874000D01*
X68900427Y9874000D01*
X67312020Y11462408D01*
X67550840Y11819828D01*
X67725917Y12700000D01*
X67550840Y13580172D01*
X67290366Y13970000D01*
X67550840Y14359828D01*
X67725917Y15240000D01*
X67550840Y16120172D01*
X67290366Y16510000D01*
X67550840Y16899828D01*
X67725917Y17780000D01*
X67550840Y18660172D01*
X67052263Y19406346D01*
X66306089Y19904923D01*
X65425917Y20080000D01*
X64622083Y20080000D01*
X63976000Y19951486D01*
X63976000Y27651360D01*
X64225608Y28252484D01*
X64226390Y29147589D01*
X64187380Y29242000D01*
X67783360Y29242000D01*
X68384484Y28992392D01*
X68384484Y28992392D01*
G37*
X68384484Y28992392D02*
X69279589Y28991610D01*
X69885578Y29242000D01*
X71053572Y29242000D01*
X72010872Y28284701D01*
X72259431Y27683142D01*
X72891813Y27049655D01*
X73718484Y26706392D01*
X74296720Y26705887D01*
X73911142Y26546569D01*
X73277655Y25914187D01*
X72934392Y25087516D01*
X72933610Y24192411D01*
X73275431Y23365142D01*
X73907813Y22731655D01*
X74012843Y22688043D01*
X73945999Y22352000D01*
X73946000Y22351995D01*
X73946000Y17351619D01*
X73926089Y17364923D01*
X73045917Y17540000D01*
X72242083Y17540000D01*
X71361911Y17364923D01*
X70615737Y16866346D01*
X70117160Y16120172D01*
X69942083Y15240000D01*
X70117160Y14359828D01*
X70377634Y13970000D01*
X70117160Y13580172D01*
X69942083Y12700000D01*
X70117160Y11819828D01*
X70377634Y11430000D01*
X70117160Y11040172D01*
X69942083Y10160000D01*
X69998972Y9874000D01*
X68900427Y9874000D01*
X67312020Y11462408D01*
X67550840Y11819828D01*
X67725917Y12700000D01*
X67550840Y13580172D01*
X67290366Y13970000D01*
X67550840Y14359828D01*
X67725917Y15240000D01*
X67550840Y16120172D01*
X67290366Y16510000D01*
X67550840Y16899828D01*
X67725917Y17780000D01*
X67550840Y18660172D01*
X67052263Y19406346D01*
X66306089Y19904923D01*
X65425917Y20080000D01*
X64622083Y20080000D01*
X63976000Y19951486D01*
X63976000Y27651360D01*
X64225608Y28252484D01*
X64226390Y29147589D01*
X64187380Y29242000D01*
X67783360Y29242000D01*
X68384484Y28992392D01*
G36*
X88622857Y29924000D02*
X89083143Y29924000D01*
X89083143Y24590000D01*
X89241714Y24590000D01*
X89241714Y21184000D01*
X87781524Y21184000D01*
X87781524Y20751265D01*
X87376000Y20833386D01*
X84836000Y20833386D01*
X84280133Y20728793D01*
X83769604Y20400276D01*
X83534000Y20055458D01*
X83534000Y27165072D01*
X83756339Y26626971D01*
X84534872Y25847077D01*
X85552596Y25424481D01*
X86654570Y25423520D01*
X87673029Y25844339D01*
X88452923Y26622872D01*
X88875519Y27640596D01*
X88876480Y28742570D01*
X88455661Y29761029D01*
X87685236Y30532800D01*
X87931867Y30579207D01*
X88442396Y30907724D01*
X88622857Y31171837D01*
X88622857Y29924000D01*
X88622857Y29924000D01*
G37*
X88622857Y29924000D02*
X89083143Y29924000D01*
X89083143Y24590000D01*
X89241714Y24590000D01*
X89241714Y21184000D01*
X87781524Y21184000D01*
X87781524Y20751265D01*
X87376000Y20833386D01*
X84836000Y20833386D01*
X84280133Y20728793D01*
X83769604Y20400276D01*
X83534000Y20055458D01*
X83534000Y27165072D01*
X83756339Y26626971D01*
X84534872Y25847077D01*
X85552596Y25424481D01*
X86654570Y25423520D01*
X87673029Y25844339D01*
X88452923Y26622872D01*
X88875519Y27640596D01*
X88876480Y28742570D01*
X88455661Y29761029D01*
X87685236Y30532800D01*
X87931867Y30579207D01*
X88442396Y30907724D01*
X88622857Y31171837D01*
X88622857Y29924000D01*
G36*
X35814000Y29241999D02*
X35814005Y29242000D01*
X39406249Y29242000D01*
X39405610Y28510411D01*
X39747431Y27683142D01*
X40324529Y27105036D01*
X40180823Y26889964D01*
X40124879Y26608717D01*
X40026823Y26461965D01*
X39885999Y25754000D01*
X40026823Y25046035D01*
X40045603Y25017929D01*
X39691391Y24790000D01*
X39450000Y24790000D01*
X38742036Y24649177D01*
X38665357Y24597942D01*
X38102000Y24710001D01*
X38101995Y24710000D01*
X36589386Y24710000D01*
X36589386Y25517000D01*
X36484793Y26072867D01*
X36156276Y26583396D01*
X35655017Y26925892D01*
X35581386Y26940803D01*
X35581386Y28536000D01*
X35476793Y29091867D01*
X35316508Y29340957D01*
X35814000Y29241999D01*
X35814000Y29241999D01*
G37*
X35814000Y29241999D02*
X35814005Y29242000D01*
X39406249Y29242000D01*
X39405610Y28510411D01*
X39747431Y27683142D01*
X40324529Y27105036D01*
X40180823Y26889964D01*
X40124879Y26608717D01*
X40026823Y26461965D01*
X39885999Y25754000D01*
X40026823Y25046035D01*
X40045603Y25017929D01*
X39691391Y24790000D01*
X39450000Y24790000D01*
X38742036Y24649177D01*
X38665357Y24597942D01*
X38102000Y24710001D01*
X38101995Y24710000D01*
X36589386Y24710000D01*
X36589386Y25517000D01*
X36484793Y26072867D01*
X36156276Y26583396D01*
X35655017Y26925892D01*
X35581386Y26940803D01*
X35581386Y28536000D01*
X35476793Y29091867D01*
X35316508Y29340957D01*
X35814000Y29241999D01*
G36*
X74547655Y38360187D02*
X74204392Y37533516D01*
X74203610Y36638411D01*
X74545431Y35811142D01*
X74755996Y35600209D01*
X74755996Y31196431D01*
X73296214Y32656214D01*
X72647367Y33089759D01*
X72113732Y33195906D01*
X72145556Y33272548D01*
X72146441Y34287001D01*
X71759045Y35224572D01*
X71042345Y35942524D01*
X70105452Y36331556D01*
X69090999Y36332441D01*
X68153428Y35945045D01*
X67435476Y35228345D01*
X67055545Y34313370D01*
X66679045Y35224572D01*
X65962345Y35942524D01*
X65025452Y36331556D01*
X64010999Y36332441D01*
X63255737Y36020374D01*
X63256441Y36827001D01*
X62869045Y37764572D01*
X62248701Y38386000D01*
X74573513Y38386000D01*
X74547655Y38360187D01*
X74547655Y38360187D01*
G37*
X74547655Y38360187D02*
X74204392Y37533516D01*
X74203610Y36638411D01*
X74545431Y35811142D01*
X74755996Y35600209D01*
X74755996Y31196431D01*
X73296214Y32656214D01*
X72647367Y33089759D01*
X72113732Y33195906D01*
X72145556Y33272548D01*
X72146441Y34287001D01*
X71759045Y35224572D01*
X71042345Y35942524D01*
X70105452Y36331556D01*
X69090999Y36332441D01*
X68153428Y35945045D01*
X67435476Y35228345D01*
X67055545Y34313370D01*
X66679045Y35224572D01*
X65962345Y35942524D01*
X65025452Y36331556D01*
X64010999Y36332441D01*
X63255737Y36020374D01*
X63256441Y36827001D01*
X62869045Y37764572D01*
X62248701Y38386000D01*
X74573513Y38386000D01*
X74547655Y38360187D01*
G36*
X9761786Y54754214D02*
X9761784Y54754211D01*
X9253786Y54246214D01*
X8820241Y53597367D01*
X8667999Y52832000D01*
X8668000Y52831995D01*
X8668000Y46506145D01*
X8173404Y46711519D01*
X7071430Y46712480D01*
X6052971Y46291661D01*
X5890000Y46128974D01*
X5890000Y49632667D01*
X5636000Y49632667D01*
X5636000Y50167907D01*
X6062104Y50343970D01*
X7056538Y51336670D01*
X7595386Y52634360D01*
X7596612Y54039476D01*
X7276998Y54813000D01*
X9849766Y54813000D01*
X9761786Y54754214D01*
X9761786Y54754214D01*
G37*
X9761786Y54754214D02*
X9761784Y54754211D01*
X9253786Y54246214D01*
X8820241Y53597367D01*
X8667999Y52832000D01*
X8668000Y52831995D01*
X8668000Y46506145D01*
X8173404Y46711519D01*
X7071430Y46712480D01*
X6052971Y46291661D01*
X5890000Y46128974D01*
X5890000Y49632667D01*
X5636000Y49632667D01*
X5636000Y50167907D01*
X6062104Y50343970D01*
X7056538Y51336670D01*
X7595386Y52634360D01*
X7596612Y54039476D01*
X7276998Y54813000D01*
X9849766Y54813000D01*
X9761786Y54754214D01*
M02*
