G04 #@! TF.FileFunction,Copper,L2,Bot,Signal*
%FSLAX46Y46*%
G04 Gerber Fmt 4.6, Leading zero omitted, Abs format (unit mm)*
G04 Created by KiCad (PCBNEW 4.0.6) date Friday, 15 October 2021 'PMt' 16:37:06*
%MOMM*%
%LPD*%
G01*
G04 APERTURE LIST*
%ADD10C,0.100000*%
%ADD11C,4.064000*%
%ADD12C,2.000000*%
%ADD13R,1.500000X1.250000*%
%ADD14R,1.250000X1.500000*%
%ADD15C,1.300000*%
%ADD16R,1.300000X1.300000*%
%ADD17R,1.200000X0.900000*%
%ADD18R,3.600000X3.200000*%
%ADD19R,2.540000X2.540000*%
%ADD20C,2.540000*%
%ADD21R,1.300000X1.500000*%
%ADD22R,1.500000X1.300000*%
%ADD23C,1.998980*%
%ADD24C,2.100000*%
%ADD25O,2.300000X1.600000*%
%ADD26R,2.500000X1.000000*%
%ADD27C,1.500000*%
%ADD28C,1.000000*%
G04 APERTURE END LIST*
D10*
D11*
X93980000Y4064000D03*
X94234000Y53340000D03*
X4064000Y53340000D03*
D12*
X44196000Y23368000D03*
X44196000Y20828000D03*
X44196000Y18288000D03*
X44196000Y8128000D03*
X44196000Y10668000D03*
X44196000Y13208000D03*
X44196000Y15748000D03*
D13*
X13950000Y43434000D03*
X11450000Y43434000D03*
D14*
X7112000Y35286000D03*
X7112000Y32786000D03*
D15*
X18344000Y39370000D03*
D16*
X21844000Y39370000D03*
D13*
X69576000Y36576000D03*
X67076000Y36576000D03*
D14*
X89154000Y33254000D03*
X89154000Y30754000D03*
X89154000Y28174000D03*
X89154000Y25674000D03*
X88900000Y39096000D03*
X88900000Y36596000D03*
X88900000Y43922000D03*
X88900000Y41422000D03*
X88646000Y48280000D03*
X88646000Y50780000D03*
D13*
X78212000Y20574000D03*
X75712000Y20574000D03*
D17*
X78232000Y15114000D03*
X78232000Y18414000D03*
X78232000Y9780000D03*
X78232000Y13080000D03*
D18*
X19086000Y31242000D03*
X10886000Y31242000D03*
D19*
X86106000Y48514000D03*
D20*
X86106000Y43434000D03*
X86106000Y38354000D03*
D19*
X86106000Y18034000D03*
D20*
X86106000Y12954000D03*
X86106000Y7874000D03*
D19*
X86106000Y33274000D03*
D20*
X86106000Y28194000D03*
X86106000Y23114000D03*
D19*
X7620000Y49022000D03*
D20*
X7620000Y43942000D03*
X7620000Y38862000D03*
D21*
X80518000Y10334000D03*
X80518000Y13034000D03*
D22*
X79836000Y6858000D03*
X77136000Y6858000D03*
X14050000Y38608000D03*
X11350000Y38608000D03*
X14050000Y45974000D03*
X11350000Y45974000D03*
D21*
X16510000Y40560000D03*
X16510000Y43260000D03*
X75692000Y15414000D03*
X75692000Y18114000D03*
D22*
X11350000Y40894000D03*
X14050000Y40894000D03*
X77390000Y53340000D03*
X80090000Y53340000D03*
X77390000Y45466000D03*
X80090000Y45466000D03*
X77390000Y39624000D03*
X80090000Y39624000D03*
X77136000Y26670000D03*
X79836000Y26670000D03*
X77136000Y34798000D03*
X79836000Y34798000D03*
X77136000Y32258000D03*
X79836000Y32258000D03*
X77136000Y28956000D03*
X79836000Y28956000D03*
X77390000Y41910000D03*
X80090000Y41910000D03*
X77390000Y47752000D03*
X80090000Y47752000D03*
X77390000Y51054000D03*
X80090000Y51054000D03*
D21*
X80518000Y18208000D03*
X80518000Y20908000D03*
X83058000Y18208000D03*
X83058000Y20908000D03*
X75692000Y10080000D03*
X75692000Y12780000D03*
D22*
X74502000Y6858000D03*
X71802000Y6858000D03*
D21*
X69088000Y12366000D03*
X69088000Y15066000D03*
D23*
X20574000Y50292000D03*
X12954000Y50292000D03*
D24*
X59436000Y33782000D03*
X64516000Y33782000D03*
X64516000Y49022000D03*
X56896000Y49022000D03*
X54356000Y49022000D03*
X51816000Y49022000D03*
X69596000Y33782000D03*
X67056000Y33782000D03*
X61976000Y33782000D03*
X56896000Y33782000D03*
X54356000Y33782000D03*
X51816000Y33782000D03*
X49276000Y33782000D03*
X46736000Y33782000D03*
X44196000Y33782000D03*
X41656000Y33782000D03*
X69596000Y49022000D03*
X67056000Y49022000D03*
X59436000Y49022000D03*
X49276000Y49022000D03*
X46736000Y49022000D03*
X44196000Y49022000D03*
X41656000Y49022000D03*
X41656000Y36322000D03*
X41656000Y38862000D03*
X41656000Y41402000D03*
X60706000Y36322000D03*
X58166000Y36322000D03*
X61976000Y49022000D03*
D25*
X72644000Y10160000D03*
X72644000Y12700000D03*
X72644000Y15240000D03*
X72644000Y17780000D03*
X65024000Y17780000D03*
X65024000Y15240000D03*
X65024000Y12700000D03*
X65024000Y10160000D03*
D26*
X69088000Y17296000D03*
X69088000Y20296000D03*
X68834000Y9882000D03*
X68834000Y6882000D03*
D23*
X30480000Y31750000D03*
X22860000Y31750000D03*
D27*
X24638000Y10414000D03*
X24638000Y15414000D03*
D19*
X13208000Y13462000D03*
D20*
X13208000Y18542000D03*
D18*
X13244000Y24384000D03*
X5044000Y24384000D03*
X12990000Y8890000D03*
X4790000Y8890000D03*
D11*
X4064000Y3810000D03*
D27*
X68834000Y31242000D03*
X74168000Y28956000D03*
X41656000Y28956000D03*
X46736000Y26162000D03*
X64008000Y38354000D03*
X46736000Y20574000D03*
X56134000Y20574000D03*
X74930000Y47752000D03*
X74930000Y43688000D03*
X61976000Y28702000D03*
X24130000Y53086000D03*
X13208000Y36068000D03*
X62230000Y42164000D03*
X79756000Y23622000D03*
X75184000Y24638000D03*
X76454000Y37084000D03*
X59436000Y46482000D03*
X17018000Y23876000D03*
X16510000Y13716000D03*
D28*
X77136000Y32258000D02*
X77136000Y31924000D01*
X77136000Y31924000D02*
X74168000Y28956000D01*
X69596000Y32004000D02*
X69596000Y33782000D01*
X68834000Y31242000D02*
X69596000Y32004000D01*
X69596000Y33274000D02*
X69596000Y33782000D01*
X77136000Y28956000D02*
X77136000Y32258000D01*
X69576000Y36576000D02*
X69576000Y33802000D01*
X69576000Y33802000D02*
X69596000Y33782000D01*
X86106000Y28194000D02*
X80598000Y28194000D01*
X80598000Y28194000D02*
X79836000Y28956000D01*
X86106000Y28194000D02*
X89134000Y28194000D01*
X89134000Y28194000D02*
X89154000Y28174000D01*
X79836000Y28956000D02*
X79836000Y26670000D01*
X80344000Y28448000D02*
X79836000Y28956000D01*
X86106000Y33274000D02*
X81360000Y33274000D01*
X81106000Y33528000D02*
X79836000Y34798000D01*
X81360000Y33274000D02*
X81106000Y33528000D01*
X86106000Y33274000D02*
X89134000Y33274000D01*
X89134000Y33274000D02*
X89154000Y33254000D01*
X79836000Y34798000D02*
X79836000Y32258000D01*
X86106000Y18034000D02*
X83232000Y18034000D01*
X83232000Y18034000D02*
X83058000Y18208000D01*
X11350000Y38608000D02*
X7874000Y38608000D01*
X7874000Y38608000D02*
X7620000Y38862000D01*
X80518000Y10334000D02*
X83486000Y10334000D01*
X83486000Y10334000D02*
X86106000Y12954000D01*
X79836000Y6858000D02*
X85090000Y6858000D01*
X85090000Y6858000D02*
X86106000Y7874000D01*
X49276000Y33782000D02*
X49276000Y28358676D01*
X50800000Y10668000D02*
X44196000Y10668000D01*
X54102000Y13970000D02*
X50800000Y10668000D01*
X54102000Y23532676D02*
X54102000Y13970000D01*
X49276000Y28358676D02*
X54102000Y23532676D01*
X44196000Y15748000D02*
X51331998Y15748000D01*
X46736000Y28777352D02*
X46736000Y33782000D01*
X52601998Y22911354D02*
X46736000Y28777352D01*
X52601998Y17018000D02*
X52601998Y22911354D01*
X51331998Y15748000D02*
X52601998Y17018000D01*
X44196000Y18288000D02*
X49784000Y18288000D01*
X41656000Y29718000D02*
X41656000Y33782000D01*
X41656000Y29972000D02*
X41656000Y29718000D01*
X41656000Y28956000D02*
X41656000Y29972000D01*
X47230028Y26162000D02*
X46736000Y26162000D01*
X51101996Y22290032D02*
X47230028Y26162000D01*
X51101996Y19605996D02*
X51101996Y22290032D01*
X49784000Y18288000D02*
X51101996Y19605996D01*
X5044000Y24384000D02*
X5044000Y9144000D01*
X5044000Y9144000D02*
X4790000Y8890000D01*
X10886000Y31242000D02*
X10886000Y30226000D01*
X10886000Y30226000D02*
X5044000Y24384000D01*
X11350000Y40894000D02*
X9398000Y40894000D01*
X4572000Y41402000D02*
X4064000Y40894000D01*
X8890000Y41402000D02*
X4572000Y41402000D01*
X9398000Y40894000D02*
X8890000Y41402000D01*
X16510000Y40560000D02*
X17154000Y40560000D01*
X17154000Y40560000D02*
X18344000Y39370000D01*
X7620000Y49022000D02*
X7620000Y54102000D01*
X28194000Y55118000D02*
X8636000Y55118000D01*
X8636000Y55118000D02*
X7620000Y54102000D01*
X28194000Y55118000D02*
X41656000Y41656000D01*
X7112000Y48514000D02*
X4064000Y48514000D01*
X4064000Y48514000D02*
X4064000Y40894000D01*
X7112000Y48514000D02*
X7620000Y49022000D01*
X89154000Y30754000D02*
X90404000Y30754000D01*
X90404000Y30754000D02*
X91186000Y29972000D01*
X88900000Y36596000D02*
X90150000Y36596000D01*
X90150000Y36596000D02*
X91186000Y35560000D01*
X88900000Y41422000D02*
X90404000Y41422000D01*
X90404000Y41422000D02*
X91186000Y40640000D01*
X89154000Y25674000D02*
X91166000Y25674000D01*
X90444000Y50780000D02*
X88646000Y50780000D01*
X91186000Y50038000D02*
X90444000Y50780000D01*
X91186000Y25694000D02*
X91186000Y29972000D01*
X91186000Y29972000D02*
X91186000Y35560000D01*
X91186000Y35560000D02*
X91186000Y40640000D01*
X91186000Y40640000D02*
X91186000Y50038000D01*
X91166000Y25674000D02*
X91186000Y25694000D01*
X56134000Y20574000D02*
X56134000Y9906000D01*
X59158000Y6882000D02*
X68834000Y6882000D01*
X56134000Y9906000D02*
X59158000Y6882000D01*
X10886000Y31242000D02*
X10886000Y30262000D01*
X10886000Y30262000D02*
X13970000Y28448000D01*
X13970000Y28448000D02*
X26924000Y28448000D01*
X26924000Y28448000D02*
X30480000Y31750000D01*
X41656000Y41402000D02*
X41656000Y41656000D01*
X61976000Y49022000D02*
X61976000Y51562000D01*
X38354000Y44704000D02*
X41656000Y41402000D01*
X38354000Y50546000D02*
X38354000Y44704000D01*
X40894000Y53086000D02*
X38354000Y50546000D01*
X60452000Y53086000D02*
X40894000Y53086000D01*
X61976000Y51562000D02*
X60452000Y53086000D01*
X67076000Y36576000D02*
X65786000Y36576000D01*
X65786000Y36576000D02*
X64008000Y38354000D01*
X68810000Y20574000D02*
X56134000Y20574000D01*
X46482000Y20828000D02*
X46736000Y20574000D01*
X46482000Y20828000D02*
X44196000Y20828000D01*
X68810000Y20574000D02*
X69088000Y20296000D01*
X80518000Y18208000D02*
X80518000Y16510000D01*
X89408000Y19812000D02*
X86106000Y23114000D01*
X89408000Y16256000D02*
X89408000Y19812000D01*
X88646000Y15494000D02*
X89408000Y16256000D01*
X81534000Y15494000D02*
X88646000Y15494000D01*
X80518000Y16510000D02*
X81534000Y15494000D01*
X89154000Y25674000D02*
X88666000Y25674000D01*
X88666000Y25674000D02*
X86106000Y23114000D01*
X67076000Y36576000D02*
X67076000Y33802000D01*
X67076000Y33802000D02*
X67056000Y33782000D01*
X7112000Y32786000D02*
X5314000Y32786000D01*
X4064000Y34036000D02*
X4064000Y40894000D01*
X5314000Y32786000D02*
X4064000Y34036000D01*
X10886000Y31242000D02*
X7386000Y32512000D01*
X7386000Y32512000D02*
X7112000Y32786000D01*
X18344000Y39370000D02*
X18344000Y39742000D01*
X16002000Y36322000D02*
X16002000Y37028000D01*
X12192000Y31242000D02*
X16002000Y36322000D01*
X16002000Y37028000D02*
X18344000Y39370000D01*
X11096000Y41148000D02*
X11350000Y40894000D01*
X12192000Y31242000D02*
X10886000Y31242000D01*
X10942000Y31298000D02*
X10886000Y31242000D01*
X11350000Y40894000D02*
X11350000Y43334000D01*
X11350000Y43334000D02*
X11450000Y43434000D01*
X75712000Y20574000D02*
X75712000Y18134000D01*
X75712000Y18134000D02*
X75692000Y18114000D01*
X80518000Y18208000D02*
X78438000Y18208000D01*
X78438000Y18208000D02*
X78232000Y18414000D01*
X72644000Y17780000D02*
X72644000Y20066000D01*
X72414000Y20296000D02*
X69088000Y20296000D01*
X72644000Y20066000D02*
X72414000Y20296000D01*
X74502000Y6858000D02*
X74502000Y6684000D01*
X74502000Y6684000D02*
X72898000Y5080000D01*
X72898000Y5080000D02*
X69596000Y5080000D01*
X69596000Y5080000D02*
X68834000Y5842000D01*
X68834000Y5842000D02*
X68834000Y6882000D01*
X75692000Y18114000D02*
X77932000Y18114000D01*
X77932000Y18114000D02*
X78232000Y18414000D01*
X72644000Y17780000D02*
X75358000Y17780000D01*
X75358000Y17780000D02*
X75692000Y18114000D01*
X77136000Y6858000D02*
X77136000Y8048000D01*
X78232000Y9144000D02*
X78232000Y9780000D01*
X77136000Y8048000D02*
X78232000Y9144000D01*
X77136000Y6858000D02*
X74502000Y6858000D01*
X86106000Y48514000D02*
X87122000Y48514000D01*
X87122000Y48514000D02*
X87356000Y48280000D01*
X87356000Y48280000D02*
X88646000Y48280000D01*
X80090000Y51054000D02*
X83566000Y51054000D01*
X83566000Y51054000D02*
X86106000Y48514000D01*
X80090000Y51054000D02*
X80090000Y53340000D01*
X80344000Y51308000D02*
X80090000Y51054000D01*
X86106000Y38354000D02*
X86614000Y38354000D01*
X86614000Y38354000D02*
X87356000Y39096000D01*
X87356000Y39096000D02*
X88900000Y39096000D01*
X80090000Y39624000D02*
X84836000Y39624000D01*
X84836000Y39624000D02*
X86106000Y38354000D01*
X80090000Y39624000D02*
X80090000Y41910000D01*
X80772000Y39624000D02*
X80090000Y39624000D01*
X86106000Y43434000D02*
X86868000Y43434000D01*
X86868000Y43434000D02*
X87356000Y43922000D01*
X87356000Y43922000D02*
X88900000Y43922000D01*
X81280000Y45466000D02*
X84074000Y45466000D01*
X80090000Y45466000D02*
X81280000Y45466000D01*
X84074000Y45466000D02*
X86106000Y43434000D01*
X80090000Y45466000D02*
X80090000Y47752000D01*
X77390000Y47752000D02*
X77390000Y51054000D01*
X74930000Y47752000D02*
X77390000Y47752000D01*
X74930000Y43688000D02*
X76708000Y41910000D01*
X76708000Y41910000D02*
X77390000Y41910000D01*
X61976000Y33782000D02*
X61976000Y28702000D01*
X44196000Y29972000D02*
X44196000Y28194000D01*
X41910000Y13208000D02*
X44196000Y13208000D01*
X40894000Y14224000D02*
X41910000Y13208000D01*
X40894000Y24892000D02*
X40894000Y14224000D01*
X44196000Y28194000D02*
X40894000Y24892000D01*
X44196000Y29718000D02*
X44196000Y29972000D01*
X44196000Y29972000D02*
X44196000Y33782000D01*
X78232000Y13080000D02*
X80472000Y13080000D01*
X80472000Y13080000D02*
X80518000Y13034000D01*
X75692000Y12780000D02*
X77932000Y12780000D01*
X77932000Y12780000D02*
X78232000Y13080000D01*
X75692000Y15414000D02*
X77932000Y15414000D01*
X77932000Y15414000D02*
X78232000Y15114000D01*
X75692000Y15414000D02*
X75692000Y12780000D01*
X72644000Y15240000D02*
X75518000Y15240000D01*
X75518000Y15240000D02*
X75692000Y15414000D01*
X69088000Y15066000D02*
X72470000Y15066000D01*
X72470000Y15066000D02*
X72644000Y15240000D01*
X69088000Y17296000D02*
X69088000Y15066000D01*
X69088000Y12366000D02*
X69088000Y10136000D01*
X69088000Y10136000D02*
X68834000Y9882000D01*
X69088000Y12366000D02*
X72310000Y12366000D01*
X72310000Y12366000D02*
X72644000Y12700000D01*
X16002000Y49784000D02*
X16002000Y47926000D01*
X16002000Y49784000D02*
X19304000Y53086000D01*
X19304000Y53086000D02*
X21336000Y53086000D01*
X21336000Y53086000D02*
X24892000Y49530000D01*
X24892000Y49530000D02*
X24892000Y36068000D01*
X24892000Y36068000D02*
X25146000Y36322000D01*
X41656000Y36322000D02*
X25146000Y36322000D01*
X16002000Y47926000D02*
X14050000Y45974000D01*
X13950000Y43434000D02*
X16336000Y43434000D01*
X16336000Y43434000D02*
X16510000Y43260000D01*
X14050000Y45974000D02*
X14050000Y43534000D01*
X14050000Y43534000D02*
X13950000Y43434000D01*
X14130000Y46054000D02*
X14050000Y45974000D01*
X30226000Y38862000D02*
X26670000Y42418000D01*
X26670000Y42418000D02*
X26670000Y50546000D01*
X26670000Y50546000D02*
X24130000Y53086000D01*
X41656000Y38862000D02*
X30226000Y38862000D01*
X14050000Y36910000D02*
X14050000Y37418000D01*
X13208000Y36068000D02*
X14050000Y36910000D01*
X14050000Y38608000D02*
X14050000Y37418000D01*
X11918000Y35286000D02*
X7112000Y35286000D01*
X14050000Y37418000D02*
X11918000Y35286000D01*
X14050000Y38608000D02*
X14050000Y40894000D01*
X21844000Y39370000D02*
X21844000Y36576000D01*
X22098000Y36322000D02*
X19086000Y32040000D01*
X21844000Y36576000D02*
X22098000Y36322000D01*
X20574000Y50292000D02*
X20574000Y43688000D01*
X21844000Y42418000D02*
X21844000Y39370000D01*
X20574000Y43688000D02*
X21844000Y42418000D01*
X19086000Y31242000D02*
X19086000Y32040000D01*
X19086000Y31242000D02*
X22352000Y32258000D01*
X22352000Y32258000D02*
X22860000Y31750000D01*
X60706000Y36322000D02*
X60706000Y40640000D01*
X60706000Y40640000D02*
X62230000Y42164000D01*
X80518000Y22860000D02*
X80518000Y20908000D01*
X79756000Y23622000D02*
X80518000Y22860000D01*
X78212000Y20574000D02*
X80184000Y20574000D01*
X80184000Y20574000D02*
X80518000Y20908000D01*
X83058000Y20908000D02*
X80518000Y20908000D01*
X11350000Y45974000D02*
X11350000Y48688000D01*
X11350000Y48688000D02*
X12954000Y50292000D01*
X11350000Y45974000D02*
X9652000Y45974000D01*
X9652000Y45974000D02*
X7620000Y43942000D01*
X11350000Y45974000D02*
X11350000Y46656000D01*
X58166000Y38354000D02*
X58166000Y41148000D01*
X58166000Y36322000D02*
X58166000Y38354000D01*
X69342000Y44450000D02*
X73152000Y48260000D01*
X61468000Y44450000D02*
X69342000Y44450000D01*
X58166000Y41148000D02*
X61468000Y44450000D01*
X77390000Y53340000D02*
X75692000Y53340000D01*
X73152000Y50800000D02*
X73152000Y48260000D01*
X73152000Y48260000D02*
X73152000Y47841324D01*
X75692000Y53340000D02*
X73152000Y50800000D01*
X72136000Y32004000D02*
X70104000Y29972000D01*
X72136000Y32004000D02*
X72136000Y44704000D01*
X72136000Y44704000D02*
X72898000Y45466000D01*
X77390000Y45466000D02*
X72898000Y45466000D01*
X59436000Y30226000D02*
X59436000Y33782000D01*
X59436000Y28194000D02*
X59436000Y30226000D01*
X61055992Y26574008D02*
X59436000Y28194000D01*
X66802000Y26574008D02*
X61055992Y26574008D01*
X70104000Y29876008D02*
X66802000Y26574008D01*
X70104000Y29972000D02*
X70104000Y29876008D01*
X56896000Y30226000D02*
X56896000Y27102648D01*
X74676000Y39624000D02*
X73636002Y38584002D01*
X73636002Y38584002D02*
X73636002Y31382678D01*
X74676000Y39624000D02*
X77390000Y39624000D01*
X72390000Y30136676D02*
X73636002Y31382678D01*
X72390000Y28880648D02*
X72390000Y30136676D01*
X68583358Y25074006D02*
X72390000Y28880648D01*
X58924642Y25074006D02*
X68583358Y25074006D01*
X56896000Y27102648D02*
X58924642Y25074006D01*
X56896000Y29972000D02*
X56896000Y30226000D01*
X56896000Y30226000D02*
X56896000Y33782000D01*
X54356000Y30480000D02*
X54356000Y27521324D01*
X72300676Y26670000D02*
X77136000Y26670000D01*
X69204680Y23574004D02*
X72300676Y26670000D01*
X58303320Y23574004D02*
X69204680Y23574004D01*
X54356000Y27521324D02*
X58303320Y23574004D01*
X54356000Y33782000D02*
X54356000Y30480000D01*
X54356000Y30480000D02*
X54356000Y30390676D01*
X76929996Y26463996D02*
X77136000Y26670000D01*
X75184000Y24638000D02*
X72390000Y24638000D01*
X51816000Y30809352D02*
X51816000Y33782000D01*
X51816000Y27940000D02*
X51816000Y30809352D01*
X57681998Y22074002D02*
X51816000Y27940000D01*
X69826002Y22074002D02*
X57681998Y22074002D01*
X72390000Y24638000D02*
X69826002Y22074002D01*
X77136000Y34798000D02*
X77136000Y36402000D01*
X75184000Y24638000D02*
X74858006Y24963994D01*
X77136000Y36402000D02*
X76454000Y37084000D01*
X77136000Y35386000D02*
X77136000Y34798000D01*
X59436000Y49022000D02*
X59436000Y46482000D01*
X72644000Y10160000D02*
X72644000Y9652000D01*
X72644000Y9652000D02*
X71802000Y8810000D01*
X71802000Y8810000D02*
X71802000Y6858000D01*
X75692000Y10080000D02*
X72724000Y10080000D01*
X72724000Y10080000D02*
X72644000Y10160000D01*
X13244000Y24384000D02*
X13244000Y18578000D01*
X13244000Y18578000D02*
X13208000Y18542000D01*
X13752000Y23876000D02*
X17018000Y23876000D01*
X13752000Y23876000D02*
X13244000Y24384000D01*
X12990000Y8890000D02*
X12990000Y13244000D01*
X12990000Y13244000D02*
X13208000Y13462000D01*
X16510000Y13716000D02*
X16510000Y10414000D01*
X14986000Y8890000D02*
X12990000Y8890000D01*
X16510000Y10414000D02*
X14986000Y8890000D01*
G36*
X17889786Y54500214D02*
X17889784Y54500211D01*
X15080448Y51690876D01*
X15074200Y51705998D01*
X14371696Y52409729D01*
X13453361Y52791055D01*
X12459002Y52791923D01*
X11540002Y52412200D01*
X10836271Y51709696D01*
X10454945Y50791361D01*
X10454796Y50621224D01*
X9935786Y50102214D01*
X9502241Y49453367D01*
X9349999Y48688000D01*
X9350000Y48687995D01*
X9350000Y47913929D01*
X8886633Y47821759D01*
X8237786Y47388214D01*
X7561625Y46712053D01*
X7071430Y46712480D01*
X6052971Y46291661D01*
X5273077Y45513128D01*
X4850481Y44495404D01*
X4849520Y43393430D01*
X5270339Y42374971D01*
X6048872Y41595077D01*
X6513740Y41402047D01*
X6052971Y41211661D01*
X5273077Y40433128D01*
X4850481Y39415404D01*
X4849520Y38313430D01*
X5270339Y37294971D01*
X5428000Y37137035D01*
X5420604Y37132276D01*
X5078108Y36631017D01*
X4957614Y36036000D01*
X4957614Y34536000D01*
X5062207Y33980133D01*
X5390724Y33469604D01*
X5891983Y33127108D01*
X6487000Y33006614D01*
X7737000Y33006614D01*
X8292867Y33111207D01*
X8564503Y33286000D01*
X11917995Y33286000D01*
X11918000Y33285999D01*
X12683367Y33438241D01*
X13251659Y33817961D01*
X13653589Y33817610D01*
X14480858Y34159431D01*
X15114345Y34791813D01*
X15365791Y35397364D01*
X15464211Y35495784D01*
X15464214Y35495786D01*
X15897759Y36144633D01*
X15932370Y36318633D01*
X16050001Y36910000D01*
X16050000Y36910005D01*
X16050000Y37130437D01*
X16208892Y37362983D01*
X16329386Y37958000D01*
X16329386Y39258000D01*
X16233216Y39769100D01*
X16329386Y40244000D01*
X16329386Y40980614D01*
X17160000Y40980614D01*
X17715867Y41085207D01*
X18226396Y41413724D01*
X18568892Y41914983D01*
X18689386Y42510000D01*
X18689386Y43107914D01*
X18726241Y42922633D01*
X19159786Y42273786D01*
X19844000Y41589573D01*
X19844000Y40701208D01*
X19785108Y40615017D01*
X19664614Y40020000D01*
X19664614Y38720000D01*
X19769207Y38164133D01*
X19844000Y38047902D01*
X19844000Y36593858D01*
X18280692Y34371386D01*
X17286000Y34371386D01*
X16730133Y34266793D01*
X16219604Y33938276D01*
X15877108Y33437017D01*
X15756614Y32842000D01*
X15756614Y29642000D01*
X15861207Y29086133D01*
X16189724Y28575604D01*
X16690983Y28233108D01*
X17286000Y28112614D01*
X20886000Y28112614D01*
X21441867Y28217207D01*
X21952396Y28545724D01*
X22294892Y29046983D01*
X22338091Y29260308D01*
X22360639Y29250945D01*
X23354998Y29250077D01*
X24273998Y29629800D01*
X24977729Y30332304D01*
X25359055Y31250639D01*
X25359923Y32244998D01*
X24980200Y33163998D01*
X24277696Y33867729D01*
X23359361Y34249055D01*
X23085267Y34249294D01*
X23425175Y34732524D01*
X23477786Y34653786D01*
X24126633Y34220241D01*
X24892000Y34067999D01*
X25657367Y34220241D01*
X25809660Y34322000D01*
X39119129Y34322000D01*
X39106444Y34291452D01*
X39105559Y33276999D01*
X39492955Y32339428D01*
X39656000Y32176098D01*
X39656000Y30006640D01*
X39406392Y29405516D01*
X39405610Y28510411D01*
X39747431Y27683142D01*
X40301588Y27128016D01*
X39479786Y26306214D01*
X39046241Y25657367D01*
X38893999Y24892000D01*
X38894000Y24891995D01*
X38894000Y14224005D01*
X38893999Y14224000D01*
X39046241Y13458633D01*
X39479786Y12809786D01*
X40495786Y11793786D01*
X41144633Y11360241D01*
X41728277Y11244146D01*
X41696435Y11167462D01*
X41695567Y10172901D01*
X42016069Y9397226D01*
X41696435Y8627462D01*
X41695567Y7632901D01*
X42075367Y6713714D01*
X42778015Y6009839D01*
X43696538Y5628435D01*
X44691099Y5627567D01*
X45610286Y6007367D01*
X46314161Y6710015D01*
X46695565Y7628538D01*
X46696433Y8623099D01*
X46677880Y8668000D01*
X50799995Y8668000D01*
X50800000Y8667999D01*
X51565367Y8820241D01*
X52214214Y9253786D01*
X55516211Y12555784D01*
X55516214Y12555786D01*
X55949759Y13204633D01*
X56102000Y13970000D01*
X56102000Y20825572D01*
X56267784Y20659788D01*
X56916631Y20226243D01*
X57681998Y20074001D01*
X57682003Y20074002D01*
X64591929Y20074002D01*
X63741911Y19904923D01*
X62995737Y19406346D01*
X62497160Y18660172D01*
X62322083Y17780000D01*
X62497160Y16899828D01*
X62757634Y16510000D01*
X62497160Y16120172D01*
X62322083Y15240000D01*
X62497160Y14359828D01*
X62757634Y13970000D01*
X62497160Y13580172D01*
X62322083Y12700000D01*
X62497160Y11819828D01*
X62757634Y11430000D01*
X62497160Y11040172D01*
X62322083Y10160000D01*
X62497160Y9279828D01*
X62995737Y8533654D01*
X63741911Y8035077D01*
X64622083Y7860000D01*
X65425917Y7860000D01*
X66306089Y8035077D01*
X66605496Y8235134D01*
X66988983Y7973108D01*
X67584000Y7852614D01*
X69592400Y7852614D01*
X69522614Y7508000D01*
X69522614Y6208000D01*
X69627207Y5652133D01*
X69955724Y5141604D01*
X70456983Y4799108D01*
X71052000Y4678614D01*
X72552000Y4678614D01*
X73107867Y4783207D01*
X73618396Y5111724D01*
X73960892Y5612983D01*
X74081386Y6208000D01*
X74081386Y7508000D01*
X73976793Y8063867D01*
X73974503Y8067426D01*
X73993321Y8080000D01*
X74214437Y8080000D01*
X74446983Y7921108D01*
X75042000Y7800614D01*
X76342000Y7800614D01*
X76897867Y7905207D01*
X77408396Y8233724D01*
X77750892Y8734983D01*
X77871386Y9330000D01*
X77871386Y10780000D01*
X77931995Y10780000D01*
X77932000Y10779999D01*
X78338614Y10860880D01*
X78338614Y9584000D01*
X78443207Y9028133D01*
X78512046Y8921154D01*
X78019604Y8604276D01*
X77677108Y8103017D01*
X77556614Y7508000D01*
X77556614Y6208000D01*
X77661207Y5652133D01*
X77989724Y5141604D01*
X78490983Y4799108D01*
X79086000Y4678614D01*
X80586000Y4678614D01*
X81141867Y4783207D01*
X81258098Y4858000D01*
X85089995Y4858000D01*
X85090000Y4857999D01*
X85855367Y5010241D01*
X85995829Y5104094D01*
X86654570Y5103520D01*
X87673029Y5524339D01*
X88452923Y6302872D01*
X88875519Y7320596D01*
X88876480Y8422570D01*
X88455661Y9441029D01*
X87677128Y10220923D01*
X87212260Y10413953D01*
X87673029Y10604339D01*
X88452923Y11382872D01*
X88875519Y12400596D01*
X88876480Y13502570D01*
X88455661Y14521029D01*
X87685236Y15292800D01*
X87931867Y15339207D01*
X88442396Y15667724D01*
X88784892Y16168983D01*
X88905386Y16764000D01*
X88905386Y19304000D01*
X88800793Y19859867D01*
X88472276Y20370396D01*
X87971017Y20712892D01*
X87376000Y20833386D01*
X85237386Y20833386D01*
X85237386Y21658000D01*
X85132793Y22213867D01*
X84804276Y22724396D01*
X84303017Y23066892D01*
X83708000Y23187386D01*
X82452879Y23187386D01*
X82365759Y23625367D01*
X82268052Y23771596D01*
X81932214Y24274214D01*
X81932211Y24274216D01*
X81913129Y24293298D01*
X81664569Y24894858D01*
X81642263Y24917203D01*
X81652396Y24923724D01*
X81994892Y25424983D01*
X82115386Y26020000D01*
X82115386Y26194000D01*
X84188554Y26194000D01*
X84534872Y25847077D01*
X85552596Y25424481D01*
X86654570Y25423520D01*
X87673029Y25844339D01*
X87880621Y26051569D01*
X87933983Y26015108D01*
X88529000Y25894614D01*
X89779000Y25894614D01*
X90334867Y25999207D01*
X90845396Y26327724D01*
X91187892Y26828983D01*
X91308386Y27424000D01*
X91308386Y28924000D01*
X91203793Y29479867D01*
X90875276Y29990396D01*
X90374017Y30332892D01*
X89779000Y30453386D01*
X88529000Y30453386D01*
X87973133Y30348793D01*
X87909681Y30307963D01*
X87685236Y30532800D01*
X87931867Y30579207D01*
X88442396Y30907724D01*
X88493071Y30981890D01*
X88529000Y30974614D01*
X89779000Y30974614D01*
X90334867Y31079207D01*
X90845396Y31407724D01*
X91187892Y31908983D01*
X91308386Y32504000D01*
X91308386Y34004000D01*
X91203793Y34559867D01*
X90875276Y35070396D01*
X90374017Y35412892D01*
X89779000Y35533386D01*
X88529000Y35533386D01*
X88522605Y35532183D01*
X88472276Y35610396D01*
X87971017Y35952892D01*
X87680439Y36011736D01*
X88452923Y36782872D01*
X88466934Y36816614D01*
X89525000Y36816614D01*
X90080867Y36921207D01*
X90591396Y37249724D01*
X90933892Y37750983D01*
X91054386Y38346000D01*
X91054386Y39846000D01*
X90949793Y40401867D01*
X90621276Y40912396D01*
X90120017Y41254892D01*
X89525000Y41375386D01*
X88275000Y41375386D01*
X87892484Y41303411D01*
X88239485Y41649806D01*
X88275000Y41642614D01*
X89525000Y41642614D01*
X90080867Y41747207D01*
X90591396Y42075724D01*
X90933892Y42576983D01*
X91054386Y43172000D01*
X91054386Y44672000D01*
X90949793Y45227867D01*
X90621276Y45738396D01*
X90120017Y46080892D01*
X89868297Y46131867D01*
X90337396Y46433724D01*
X90679892Y46934983D01*
X90800386Y47530000D01*
X90800386Y49030000D01*
X90695793Y49585867D01*
X90367276Y50096396D01*
X89866017Y50438892D01*
X89271000Y50559386D01*
X88659536Y50559386D01*
X88472276Y50850396D01*
X87971017Y51192892D01*
X87376000Y51313386D01*
X86135042Y51313386D01*
X84980214Y52468214D01*
X84331367Y52901759D01*
X83566000Y53054001D01*
X83565995Y53054000D01*
X82369386Y53054000D01*
X82369386Y53990000D01*
X82264793Y54545867D01*
X82092897Y54813000D01*
X91021250Y54813000D01*
X90702614Y54045640D01*
X90701388Y52640524D01*
X91237970Y51341896D01*
X92230670Y50347462D01*
X93528360Y49808614D01*
X94933476Y49807388D01*
X95707000Y50127002D01*
X95707000Y7171280D01*
X94685640Y7595386D01*
X93280524Y7596612D01*
X91981896Y7060030D01*
X90987462Y6067330D01*
X90448614Y4769640D01*
X90447388Y3364524D01*
X90976903Y2083000D01*
X7171280Y2083000D01*
X7595386Y3104360D01*
X7596612Y4509476D01*
X7060030Y5808104D01*
X6067330Y6802538D01*
X4769640Y7341386D01*
X3364524Y7342612D01*
X2591000Y7022998D01*
X2591000Y10490000D01*
X9660614Y10490000D01*
X9660614Y7290000D01*
X9765207Y6734133D01*
X10093724Y6223604D01*
X10594983Y5881108D01*
X11190000Y5760614D01*
X14790000Y5760614D01*
X15345867Y5865207D01*
X15856396Y6193724D01*
X16198892Y6694983D01*
X16319386Y7290000D01*
X16319386Y7421779D01*
X16400214Y7475786D01*
X17924211Y8999784D01*
X17924214Y8999786D01*
X18357759Y9648633D01*
X18510000Y10414000D01*
X18510000Y12665360D01*
X18759608Y13266484D01*
X18760390Y14161589D01*
X18418569Y14988858D01*
X17786187Y15622345D01*
X16959516Y15965608D01*
X16064411Y15966390D01*
X15591826Y15771122D01*
X15574276Y15798396D01*
X15073017Y16140892D01*
X14782439Y16199736D01*
X15554923Y16970872D01*
X15574492Y17018000D01*
X21598000Y17018000D01*
X21598000Y9144000D01*
X21632195Y8962271D01*
X21739596Y8795365D01*
X21903472Y8683393D01*
X22098000Y8644000D01*
X23225706Y8644000D01*
X23361813Y8507655D01*
X24188484Y8164392D01*
X25083589Y8163610D01*
X25910858Y8505431D01*
X26049669Y8644000D01*
X27178000Y8644000D01*
X27359729Y8678195D01*
X27526635Y8785596D01*
X27638607Y8949472D01*
X27678000Y9144000D01*
X27678000Y10422000D01*
X31242000Y10422000D01*
X31423729Y10456195D01*
X31590635Y10563596D01*
X31702607Y10727472D01*
X31742000Y10922000D01*
X31742000Y14732000D01*
X31707805Y14913729D01*
X31600404Y15080635D01*
X31436528Y15192607D01*
X31242000Y15232000D01*
X27678000Y15232000D01*
X27678000Y17018000D01*
X27643805Y17199729D01*
X27536404Y17366635D01*
X27372528Y17478607D01*
X27178000Y17518000D01*
X25438180Y17518000D01*
X25087516Y17663608D01*
X24192411Y17664390D01*
X23838121Y17518000D01*
X22098000Y17518000D01*
X21916271Y17483805D01*
X21749365Y17376404D01*
X21637393Y17212528D01*
X21598000Y17018000D01*
X15574492Y17018000D01*
X15977519Y17988596D01*
X15978480Y19090570D01*
X15557661Y20109029D01*
X15244000Y20423238D01*
X15244000Y21292246D01*
X15599867Y21359207D01*
X16110396Y21687724D01*
X16178995Y21788122D01*
X16568484Y21626392D01*
X17463589Y21625610D01*
X18290858Y21967431D01*
X18924345Y22599813D01*
X19267608Y23426484D01*
X19268390Y24321589D01*
X18926569Y25148858D01*
X18294187Y25782345D01*
X17467516Y26125608D01*
X16572411Y26126390D01*
X16548456Y26116492D01*
X16468793Y26539867D01*
X16140276Y27050396D01*
X15639017Y27392892D01*
X15044000Y27513386D01*
X11444000Y27513386D01*
X10888133Y27408793D01*
X10377604Y27080276D01*
X10035108Y26579017D01*
X9914614Y25984000D01*
X9914614Y22784000D01*
X10019207Y22228133D01*
X10347724Y21717604D01*
X10848983Y21375108D01*
X11244000Y21295115D01*
X11244000Y20495383D01*
X10861077Y20113128D01*
X10438481Y19095404D01*
X10437520Y17993430D01*
X10858339Y16974971D01*
X11628764Y16203200D01*
X11382133Y16156793D01*
X10871604Y15828276D01*
X10529108Y15327017D01*
X10408614Y14732000D01*
X10408614Y12192000D01*
X10479497Y11815287D01*
X10123604Y11586276D01*
X9781108Y11085017D01*
X9660614Y10490000D01*
X2591000Y10490000D01*
X2591000Y50127250D01*
X3358360Y49808614D01*
X4763476Y49807388D01*
X6062104Y50343970D01*
X7056538Y51336670D01*
X7595386Y52634360D01*
X7596612Y54039476D01*
X7276998Y54813000D01*
X18357904Y54813000D01*
X17889786Y54500214D01*
X17889786Y54500214D01*
G37*
X17889786Y54500214D02*
X17889784Y54500211D01*
X15080448Y51690876D01*
X15074200Y51705998D01*
X14371696Y52409729D01*
X13453361Y52791055D01*
X12459002Y52791923D01*
X11540002Y52412200D01*
X10836271Y51709696D01*
X10454945Y50791361D01*
X10454796Y50621224D01*
X9935786Y50102214D01*
X9502241Y49453367D01*
X9349999Y48688000D01*
X9350000Y48687995D01*
X9350000Y47913929D01*
X8886633Y47821759D01*
X8237786Y47388214D01*
X7561625Y46712053D01*
X7071430Y46712480D01*
X6052971Y46291661D01*
X5273077Y45513128D01*
X4850481Y44495404D01*
X4849520Y43393430D01*
X5270339Y42374971D01*
X6048872Y41595077D01*
X6513740Y41402047D01*
X6052971Y41211661D01*
X5273077Y40433128D01*
X4850481Y39415404D01*
X4849520Y38313430D01*
X5270339Y37294971D01*
X5428000Y37137035D01*
X5420604Y37132276D01*
X5078108Y36631017D01*
X4957614Y36036000D01*
X4957614Y34536000D01*
X5062207Y33980133D01*
X5390724Y33469604D01*
X5891983Y33127108D01*
X6487000Y33006614D01*
X7737000Y33006614D01*
X8292867Y33111207D01*
X8564503Y33286000D01*
X11917995Y33286000D01*
X11918000Y33285999D01*
X12683367Y33438241D01*
X13251659Y33817961D01*
X13653589Y33817610D01*
X14480858Y34159431D01*
X15114345Y34791813D01*
X15365791Y35397364D01*
X15464211Y35495784D01*
X15464214Y35495786D01*
X15897759Y36144633D01*
X15932370Y36318633D01*
X16050001Y36910000D01*
X16050000Y36910005D01*
X16050000Y37130437D01*
X16208892Y37362983D01*
X16329386Y37958000D01*
X16329386Y39258000D01*
X16233216Y39769100D01*
X16329386Y40244000D01*
X16329386Y40980614D01*
X17160000Y40980614D01*
X17715867Y41085207D01*
X18226396Y41413724D01*
X18568892Y41914983D01*
X18689386Y42510000D01*
X18689386Y43107914D01*
X18726241Y42922633D01*
X19159786Y42273786D01*
X19844000Y41589573D01*
X19844000Y40701208D01*
X19785108Y40615017D01*
X19664614Y40020000D01*
X19664614Y38720000D01*
X19769207Y38164133D01*
X19844000Y38047902D01*
X19844000Y36593858D01*
X18280692Y34371386D01*
X17286000Y34371386D01*
X16730133Y34266793D01*
X16219604Y33938276D01*
X15877108Y33437017D01*
X15756614Y32842000D01*
X15756614Y29642000D01*
X15861207Y29086133D01*
X16189724Y28575604D01*
X16690983Y28233108D01*
X17286000Y28112614D01*
X20886000Y28112614D01*
X21441867Y28217207D01*
X21952396Y28545724D01*
X22294892Y29046983D01*
X22338091Y29260308D01*
X22360639Y29250945D01*
X23354998Y29250077D01*
X24273998Y29629800D01*
X24977729Y30332304D01*
X25359055Y31250639D01*
X25359923Y32244998D01*
X24980200Y33163998D01*
X24277696Y33867729D01*
X23359361Y34249055D01*
X23085267Y34249294D01*
X23425175Y34732524D01*
X23477786Y34653786D01*
X24126633Y34220241D01*
X24892000Y34067999D01*
X25657367Y34220241D01*
X25809660Y34322000D01*
X39119129Y34322000D01*
X39106444Y34291452D01*
X39105559Y33276999D01*
X39492955Y32339428D01*
X39656000Y32176098D01*
X39656000Y30006640D01*
X39406392Y29405516D01*
X39405610Y28510411D01*
X39747431Y27683142D01*
X40301588Y27128016D01*
X39479786Y26306214D01*
X39046241Y25657367D01*
X38893999Y24892000D01*
X38894000Y24891995D01*
X38894000Y14224005D01*
X38893999Y14224000D01*
X39046241Y13458633D01*
X39479786Y12809786D01*
X40495786Y11793786D01*
X41144633Y11360241D01*
X41728277Y11244146D01*
X41696435Y11167462D01*
X41695567Y10172901D01*
X42016069Y9397226D01*
X41696435Y8627462D01*
X41695567Y7632901D01*
X42075367Y6713714D01*
X42778015Y6009839D01*
X43696538Y5628435D01*
X44691099Y5627567D01*
X45610286Y6007367D01*
X46314161Y6710015D01*
X46695565Y7628538D01*
X46696433Y8623099D01*
X46677880Y8668000D01*
X50799995Y8668000D01*
X50800000Y8667999D01*
X51565367Y8820241D01*
X52214214Y9253786D01*
X55516211Y12555784D01*
X55516214Y12555786D01*
X55949759Y13204633D01*
X56102000Y13970000D01*
X56102000Y20825572D01*
X56267784Y20659788D01*
X56916631Y20226243D01*
X57681998Y20074001D01*
X57682003Y20074002D01*
X64591929Y20074002D01*
X63741911Y19904923D01*
X62995737Y19406346D01*
X62497160Y18660172D01*
X62322083Y17780000D01*
X62497160Y16899828D01*
X62757634Y16510000D01*
X62497160Y16120172D01*
X62322083Y15240000D01*
X62497160Y14359828D01*
X62757634Y13970000D01*
X62497160Y13580172D01*
X62322083Y12700000D01*
X62497160Y11819828D01*
X62757634Y11430000D01*
X62497160Y11040172D01*
X62322083Y10160000D01*
X62497160Y9279828D01*
X62995737Y8533654D01*
X63741911Y8035077D01*
X64622083Y7860000D01*
X65425917Y7860000D01*
X66306089Y8035077D01*
X66605496Y8235134D01*
X66988983Y7973108D01*
X67584000Y7852614D01*
X69592400Y7852614D01*
X69522614Y7508000D01*
X69522614Y6208000D01*
X69627207Y5652133D01*
X69955724Y5141604D01*
X70456983Y4799108D01*
X71052000Y4678614D01*
X72552000Y4678614D01*
X73107867Y4783207D01*
X73618396Y5111724D01*
X73960892Y5612983D01*
X74081386Y6208000D01*
X74081386Y7508000D01*
X73976793Y8063867D01*
X73974503Y8067426D01*
X73993321Y8080000D01*
X74214437Y8080000D01*
X74446983Y7921108D01*
X75042000Y7800614D01*
X76342000Y7800614D01*
X76897867Y7905207D01*
X77408396Y8233724D01*
X77750892Y8734983D01*
X77871386Y9330000D01*
X77871386Y10780000D01*
X77931995Y10780000D01*
X77932000Y10779999D01*
X78338614Y10860880D01*
X78338614Y9584000D01*
X78443207Y9028133D01*
X78512046Y8921154D01*
X78019604Y8604276D01*
X77677108Y8103017D01*
X77556614Y7508000D01*
X77556614Y6208000D01*
X77661207Y5652133D01*
X77989724Y5141604D01*
X78490983Y4799108D01*
X79086000Y4678614D01*
X80586000Y4678614D01*
X81141867Y4783207D01*
X81258098Y4858000D01*
X85089995Y4858000D01*
X85090000Y4857999D01*
X85855367Y5010241D01*
X85995829Y5104094D01*
X86654570Y5103520D01*
X87673029Y5524339D01*
X88452923Y6302872D01*
X88875519Y7320596D01*
X88876480Y8422570D01*
X88455661Y9441029D01*
X87677128Y10220923D01*
X87212260Y10413953D01*
X87673029Y10604339D01*
X88452923Y11382872D01*
X88875519Y12400596D01*
X88876480Y13502570D01*
X88455661Y14521029D01*
X87685236Y15292800D01*
X87931867Y15339207D01*
X88442396Y15667724D01*
X88784892Y16168983D01*
X88905386Y16764000D01*
X88905386Y19304000D01*
X88800793Y19859867D01*
X88472276Y20370396D01*
X87971017Y20712892D01*
X87376000Y20833386D01*
X85237386Y20833386D01*
X85237386Y21658000D01*
X85132793Y22213867D01*
X84804276Y22724396D01*
X84303017Y23066892D01*
X83708000Y23187386D01*
X82452879Y23187386D01*
X82365759Y23625367D01*
X82268052Y23771596D01*
X81932214Y24274214D01*
X81932211Y24274216D01*
X81913129Y24293298D01*
X81664569Y24894858D01*
X81642263Y24917203D01*
X81652396Y24923724D01*
X81994892Y25424983D01*
X82115386Y26020000D01*
X82115386Y26194000D01*
X84188554Y26194000D01*
X84534872Y25847077D01*
X85552596Y25424481D01*
X86654570Y25423520D01*
X87673029Y25844339D01*
X87880621Y26051569D01*
X87933983Y26015108D01*
X88529000Y25894614D01*
X89779000Y25894614D01*
X90334867Y25999207D01*
X90845396Y26327724D01*
X91187892Y26828983D01*
X91308386Y27424000D01*
X91308386Y28924000D01*
X91203793Y29479867D01*
X90875276Y29990396D01*
X90374017Y30332892D01*
X89779000Y30453386D01*
X88529000Y30453386D01*
X87973133Y30348793D01*
X87909681Y30307963D01*
X87685236Y30532800D01*
X87931867Y30579207D01*
X88442396Y30907724D01*
X88493071Y30981890D01*
X88529000Y30974614D01*
X89779000Y30974614D01*
X90334867Y31079207D01*
X90845396Y31407724D01*
X91187892Y31908983D01*
X91308386Y32504000D01*
X91308386Y34004000D01*
X91203793Y34559867D01*
X90875276Y35070396D01*
X90374017Y35412892D01*
X89779000Y35533386D01*
X88529000Y35533386D01*
X88522605Y35532183D01*
X88472276Y35610396D01*
X87971017Y35952892D01*
X87680439Y36011736D01*
X88452923Y36782872D01*
X88466934Y36816614D01*
X89525000Y36816614D01*
X90080867Y36921207D01*
X90591396Y37249724D01*
X90933892Y37750983D01*
X91054386Y38346000D01*
X91054386Y39846000D01*
X90949793Y40401867D01*
X90621276Y40912396D01*
X90120017Y41254892D01*
X89525000Y41375386D01*
X88275000Y41375386D01*
X87892484Y41303411D01*
X88239485Y41649806D01*
X88275000Y41642614D01*
X89525000Y41642614D01*
X90080867Y41747207D01*
X90591396Y42075724D01*
X90933892Y42576983D01*
X91054386Y43172000D01*
X91054386Y44672000D01*
X90949793Y45227867D01*
X90621276Y45738396D01*
X90120017Y46080892D01*
X89868297Y46131867D01*
X90337396Y46433724D01*
X90679892Y46934983D01*
X90800386Y47530000D01*
X90800386Y49030000D01*
X90695793Y49585867D01*
X90367276Y50096396D01*
X89866017Y50438892D01*
X89271000Y50559386D01*
X88659536Y50559386D01*
X88472276Y50850396D01*
X87971017Y51192892D01*
X87376000Y51313386D01*
X86135042Y51313386D01*
X84980214Y52468214D01*
X84331367Y52901759D01*
X83566000Y53054001D01*
X83565995Y53054000D01*
X82369386Y53054000D01*
X82369386Y53990000D01*
X82264793Y54545867D01*
X82092897Y54813000D01*
X91021250Y54813000D01*
X90702614Y54045640D01*
X90701388Y52640524D01*
X91237970Y51341896D01*
X92230670Y50347462D01*
X93528360Y49808614D01*
X94933476Y49807388D01*
X95707000Y50127002D01*
X95707000Y7171280D01*
X94685640Y7595386D01*
X93280524Y7596612D01*
X91981896Y7060030D01*
X90987462Y6067330D01*
X90448614Y4769640D01*
X90447388Y3364524D01*
X90976903Y2083000D01*
X7171280Y2083000D01*
X7595386Y3104360D01*
X7596612Y4509476D01*
X7060030Y5808104D01*
X6067330Y6802538D01*
X4769640Y7341386D01*
X3364524Y7342612D01*
X2591000Y7022998D01*
X2591000Y10490000D01*
X9660614Y10490000D01*
X9660614Y7290000D01*
X9765207Y6734133D01*
X10093724Y6223604D01*
X10594983Y5881108D01*
X11190000Y5760614D01*
X14790000Y5760614D01*
X15345867Y5865207D01*
X15856396Y6193724D01*
X16198892Y6694983D01*
X16319386Y7290000D01*
X16319386Y7421779D01*
X16400214Y7475786D01*
X17924211Y8999784D01*
X17924214Y8999786D01*
X18357759Y9648633D01*
X18510000Y10414000D01*
X18510000Y12665360D01*
X18759608Y13266484D01*
X18760390Y14161589D01*
X18418569Y14988858D01*
X17786187Y15622345D01*
X16959516Y15965608D01*
X16064411Y15966390D01*
X15591826Y15771122D01*
X15574276Y15798396D01*
X15073017Y16140892D01*
X14782439Y16199736D01*
X15554923Y16970872D01*
X15574492Y17018000D01*
X21598000Y17018000D01*
X21598000Y9144000D01*
X21632195Y8962271D01*
X21739596Y8795365D01*
X21903472Y8683393D01*
X22098000Y8644000D01*
X23225706Y8644000D01*
X23361813Y8507655D01*
X24188484Y8164392D01*
X25083589Y8163610D01*
X25910858Y8505431D01*
X26049669Y8644000D01*
X27178000Y8644000D01*
X27359729Y8678195D01*
X27526635Y8785596D01*
X27638607Y8949472D01*
X27678000Y9144000D01*
X27678000Y10422000D01*
X31242000Y10422000D01*
X31423729Y10456195D01*
X31590635Y10563596D01*
X31702607Y10727472D01*
X31742000Y10922000D01*
X31742000Y14732000D01*
X31707805Y14913729D01*
X31600404Y15080635D01*
X31436528Y15192607D01*
X31242000Y15232000D01*
X27678000Y15232000D01*
X27678000Y17018000D01*
X27643805Y17199729D01*
X27536404Y17366635D01*
X27372528Y17478607D01*
X27178000Y17518000D01*
X25438180Y17518000D01*
X25087516Y17663608D01*
X24192411Y17664390D01*
X23838121Y17518000D01*
X22098000Y17518000D01*
X21916271Y17483805D01*
X21749365Y17376404D01*
X21637393Y17212528D01*
X21598000Y17018000D01*
X15574492Y17018000D01*
X15977519Y17988596D01*
X15978480Y19090570D01*
X15557661Y20109029D01*
X15244000Y20423238D01*
X15244000Y21292246D01*
X15599867Y21359207D01*
X16110396Y21687724D01*
X16178995Y21788122D01*
X16568484Y21626392D01*
X17463589Y21625610D01*
X18290858Y21967431D01*
X18924345Y22599813D01*
X19267608Y23426484D01*
X19268390Y24321589D01*
X18926569Y25148858D01*
X18294187Y25782345D01*
X17467516Y26125608D01*
X16572411Y26126390D01*
X16548456Y26116492D01*
X16468793Y26539867D01*
X16140276Y27050396D01*
X15639017Y27392892D01*
X15044000Y27513386D01*
X11444000Y27513386D01*
X10888133Y27408793D01*
X10377604Y27080276D01*
X10035108Y26579017D01*
X9914614Y25984000D01*
X9914614Y22784000D01*
X10019207Y22228133D01*
X10347724Y21717604D01*
X10848983Y21375108D01*
X11244000Y21295115D01*
X11244000Y20495383D01*
X10861077Y20113128D01*
X10438481Y19095404D01*
X10437520Y17993430D01*
X10858339Y16974971D01*
X11628764Y16203200D01*
X11382133Y16156793D01*
X10871604Y15828276D01*
X10529108Y15327017D01*
X10408614Y14732000D01*
X10408614Y12192000D01*
X10479497Y11815287D01*
X10123604Y11586276D01*
X9781108Y11085017D01*
X9660614Y10490000D01*
X2591000Y10490000D01*
X2591000Y50127250D01*
X3358360Y49808614D01*
X4763476Y49807388D01*
X6062104Y50343970D01*
X7056538Y51336670D01*
X7595386Y52634360D01*
X7596612Y54039476D01*
X7276998Y54813000D01*
X18357904Y54813000D01*
X17889786Y54500214D01*
G36*
X77506392Y24071516D02*
X77505610Y23176411D01*
X77690730Y22728386D01*
X77462000Y22728386D01*
X76906133Y22623793D01*
X76395604Y22295276D01*
X76053108Y21794017D01*
X75932614Y21199000D01*
X75932614Y19949000D01*
X76037207Y19393133D01*
X76365724Y18882604D01*
X76866983Y18540108D01*
X77462000Y18419614D01*
X78962000Y18419614D01*
X79517867Y18524207D01*
X79595247Y18574000D01*
X80183995Y18574000D01*
X80184000Y18573999D01*
X80458566Y18628614D01*
X80878614Y18628614D01*
X80878614Y17458000D01*
X80983207Y16902133D01*
X81311724Y16391604D01*
X81812983Y16049108D01*
X82408000Y15928614D01*
X83591073Y15928614D01*
X83739724Y15697604D01*
X84240983Y15355108D01*
X84531561Y15296264D01*
X83759077Y14525128D01*
X83336481Y13507404D01*
X83336049Y13012477D01*
X82697386Y12373814D01*
X82697386Y13784000D01*
X82592793Y14339867D01*
X82264276Y14850396D01*
X81763017Y15192892D01*
X81168000Y15313386D01*
X80361386Y15313386D01*
X80361386Y15564000D01*
X80256793Y16119867D01*
X79928276Y16630396D01*
X79427017Y16972892D01*
X79000389Y17059286D01*
X78697367Y17261759D01*
X77932000Y17414001D01*
X77931995Y17414000D01*
X77169563Y17414000D01*
X76937017Y17572892D01*
X76342000Y17693386D01*
X75042000Y17693386D01*
X74486133Y17588793D01*
X74030162Y17295383D01*
X73926089Y17364923D01*
X73045917Y17540000D01*
X72242083Y17540000D01*
X71867386Y17465468D01*
X71867386Y17796000D01*
X71762793Y18351867D01*
X71434276Y18862396D01*
X70933017Y19204892D01*
X70338000Y19325386D01*
X67838000Y19325386D01*
X67282133Y19220793D01*
X67208084Y19173144D01*
X67052263Y19406346D01*
X66306089Y19904923D01*
X65456071Y20074002D01*
X69825997Y20074002D01*
X69826002Y20074001D01*
X70591369Y20226243D01*
X71240216Y20659788D01*
X73218427Y22638000D01*
X74133360Y22638000D01*
X74734484Y22388392D01*
X75629589Y22387610D01*
X76456858Y22729431D01*
X77090345Y23361813D01*
X77433608Y24188484D01*
X77433872Y24490614D01*
X77680416Y24490614D01*
X77506392Y24071516D01*
X77506392Y24071516D01*
G37*
X77506392Y24071516D02*
X77505610Y23176411D01*
X77690730Y22728386D01*
X77462000Y22728386D01*
X76906133Y22623793D01*
X76395604Y22295276D01*
X76053108Y21794017D01*
X75932614Y21199000D01*
X75932614Y19949000D01*
X76037207Y19393133D01*
X76365724Y18882604D01*
X76866983Y18540108D01*
X77462000Y18419614D01*
X78962000Y18419614D01*
X79517867Y18524207D01*
X79595247Y18574000D01*
X80183995Y18574000D01*
X80184000Y18573999D01*
X80458566Y18628614D01*
X80878614Y18628614D01*
X80878614Y17458000D01*
X80983207Y16902133D01*
X81311724Y16391604D01*
X81812983Y16049108D01*
X82408000Y15928614D01*
X83591073Y15928614D01*
X83739724Y15697604D01*
X84240983Y15355108D01*
X84531561Y15296264D01*
X83759077Y14525128D01*
X83336481Y13507404D01*
X83336049Y13012477D01*
X82697386Y12373814D01*
X82697386Y13784000D01*
X82592793Y14339867D01*
X82264276Y14850396D01*
X81763017Y15192892D01*
X81168000Y15313386D01*
X80361386Y15313386D01*
X80361386Y15564000D01*
X80256793Y16119867D01*
X79928276Y16630396D01*
X79427017Y16972892D01*
X79000389Y17059286D01*
X78697367Y17261759D01*
X77932000Y17414001D01*
X77931995Y17414000D01*
X77169563Y17414000D01*
X76937017Y17572892D01*
X76342000Y17693386D01*
X75042000Y17693386D01*
X74486133Y17588793D01*
X74030162Y17295383D01*
X73926089Y17364923D01*
X73045917Y17540000D01*
X72242083Y17540000D01*
X71867386Y17465468D01*
X71867386Y17796000D01*
X71762793Y18351867D01*
X71434276Y18862396D01*
X70933017Y19204892D01*
X70338000Y19325386D01*
X67838000Y19325386D01*
X67282133Y19220793D01*
X67208084Y19173144D01*
X67052263Y19406346D01*
X66306089Y19904923D01*
X65456071Y20074002D01*
X69825997Y20074002D01*
X69826002Y20074001D01*
X70591369Y20226243D01*
X71240216Y20659788D01*
X73218427Y22638000D01*
X74133360Y22638000D01*
X74734484Y22388392D01*
X75629589Y22387610D01*
X76456858Y22729431D01*
X77090345Y23361813D01*
X77433608Y24188484D01*
X77433872Y24490614D01*
X77680416Y24490614D01*
X77506392Y24071516D01*
G36*
X49101996Y21461605D02*
X49101996Y20434423D01*
X48955572Y20288000D01*
X45731940Y20288000D01*
X45613985Y20406161D01*
X44695462Y20787565D01*
X43700901Y20788433D01*
X42894000Y20455029D01*
X42894000Y21201678D01*
X43696538Y20868435D01*
X44691099Y20867567D01*
X45610286Y21247367D01*
X46314161Y21950015D01*
X46695565Y22868538D01*
X46696433Y23863099D01*
X46693568Y23870032D01*
X49101996Y21461605D01*
X49101996Y21461605D01*
G37*
X49101996Y21461605D02*
X49101996Y20434423D01*
X48955572Y20288000D01*
X45731940Y20288000D01*
X45613985Y20406161D01*
X44695462Y20787565D01*
X43700901Y20788433D01*
X42894000Y20455029D01*
X42894000Y21201678D01*
X43696538Y20868435D01*
X44691099Y20867567D01*
X45610286Y21247367D01*
X46314161Y21950015D01*
X46695565Y22868538D01*
X46696433Y23863099D01*
X46693568Y23870032D01*
X49101996Y21461605D01*
G36*
X70136000Y38730386D02*
X68826000Y38730386D01*
X68270133Y38625793D01*
X67759604Y38297276D01*
X67417108Y37796017D01*
X67296614Y37201000D01*
X67296614Y35951000D01*
X67401207Y35395133D01*
X67479958Y35272750D01*
X67435476Y35228345D01*
X67055545Y34313370D01*
X66679045Y35224572D01*
X65962345Y35942524D01*
X65025452Y36331556D01*
X64010999Y36332441D01*
X63255737Y36020374D01*
X63256441Y36827001D01*
X62869045Y37764572D01*
X62706000Y37927902D01*
X62706000Y39811572D01*
X62901299Y40006872D01*
X63502858Y40255431D01*
X64136345Y40887813D01*
X64479608Y41714484D01*
X64480251Y42450000D01*
X69341995Y42450000D01*
X69342000Y42449999D01*
X70107367Y42602241D01*
X70136000Y42621373D01*
X70136000Y38730386D01*
X70136000Y38730386D01*
G37*
X70136000Y38730386D02*
X68826000Y38730386D01*
X68270133Y38625793D01*
X67759604Y38297276D01*
X67417108Y37796017D01*
X67296614Y37201000D01*
X67296614Y35951000D01*
X67401207Y35395133D01*
X67479958Y35272750D01*
X67435476Y35228345D01*
X67055545Y34313370D01*
X66679045Y35224572D01*
X65962345Y35942524D01*
X65025452Y36331556D01*
X64010999Y36332441D01*
X63255737Y36020374D01*
X63256441Y36827001D01*
X62869045Y37764572D01*
X62706000Y37927902D01*
X62706000Y39811572D01*
X62901299Y40006872D01*
X63502858Y40255431D01*
X64136345Y40887813D01*
X64479608Y41714484D01*
X64480251Y42450000D01*
X69341995Y42450000D01*
X69342000Y42449999D01*
X70107367Y42602241D01*
X70136000Y42621373D01*
X70136000Y38730386D01*
G36*
X74277786Y54754214D02*
X74277784Y54754211D01*
X71737786Y52214214D01*
X71304241Y51565367D01*
X71197226Y51027372D01*
X71042345Y51182524D01*
X70105452Y51571556D01*
X69090999Y51572441D01*
X68325274Y51256050D01*
X67565452Y51571556D01*
X66550999Y51572441D01*
X65785274Y51256050D01*
X65025452Y51571556D01*
X64010999Y51572441D01*
X63073428Y51185045D01*
X62355476Y50468345D01*
X61975545Y49553370D01*
X61599045Y50464572D01*
X60882345Y51182524D01*
X59945452Y51571556D01*
X58930999Y51572441D01*
X58165274Y51256050D01*
X57405452Y51571556D01*
X56390999Y51572441D01*
X55625274Y51256050D01*
X54865452Y51571556D01*
X53850999Y51572441D01*
X53085274Y51256050D01*
X52325452Y51571556D01*
X51310999Y51572441D01*
X50545274Y51256050D01*
X49785452Y51571556D01*
X48770999Y51572441D01*
X48005274Y51256050D01*
X47245452Y51571556D01*
X46230999Y51572441D01*
X45465274Y51256050D01*
X44705452Y51571556D01*
X43690999Y51572441D01*
X42925274Y51256050D01*
X42165452Y51571556D01*
X41150999Y51572441D01*
X40213428Y51185045D01*
X39495476Y50468345D01*
X39106444Y49531452D01*
X39105559Y48516999D01*
X39492955Y47579428D01*
X40209655Y46861476D01*
X41146548Y46472444D01*
X42161001Y46471559D01*
X42926726Y46787950D01*
X43686548Y46472444D01*
X44701001Y46471559D01*
X45466726Y46787950D01*
X46226548Y46472444D01*
X47241001Y46471559D01*
X48006726Y46787950D01*
X48766548Y46472444D01*
X49781001Y46471559D01*
X50546726Y46787950D01*
X51306548Y46472444D01*
X52321001Y46471559D01*
X53086726Y46787950D01*
X53846548Y46472444D01*
X54861001Y46471559D01*
X55626726Y46787950D01*
X56386548Y46472444D01*
X57185990Y46471747D01*
X57185610Y46036411D01*
X57527431Y45209142D01*
X58159813Y44575655D01*
X58587597Y44398024D01*
X56751786Y42562214D01*
X56318241Y41913367D01*
X56165999Y41148000D01*
X56166000Y41147995D01*
X56166000Y37928589D01*
X56005476Y37768345D01*
X55616444Y36831452D01*
X55615736Y36020011D01*
X54865452Y36331556D01*
X53850999Y36332441D01*
X53085274Y36016050D01*
X52325452Y36331556D01*
X51310999Y36332441D01*
X50545274Y36016050D01*
X49785452Y36331556D01*
X48770999Y36332441D01*
X48005274Y36016050D01*
X47245452Y36331556D01*
X46230999Y36332441D01*
X45465274Y36016050D01*
X44705452Y36331556D01*
X44206009Y36331992D01*
X44206441Y36827001D01*
X43890050Y37592726D01*
X44205556Y38352548D01*
X44206441Y39367001D01*
X43819045Y40304572D01*
X43102345Y41022524D01*
X42165452Y41411556D01*
X41150999Y41412441D01*
X40213428Y41025045D01*
X40050098Y40862000D01*
X31054427Y40862000D01*
X28670000Y43246428D01*
X28670000Y50546000D01*
X28517759Y51311367D01*
X28084214Y51960214D01*
X28084211Y51960216D01*
X26287128Y53757299D01*
X26038569Y54358858D01*
X25585219Y54813000D01*
X74365766Y54813000D01*
X74277786Y54754214D01*
X74277786Y54754214D01*
G37*
X74277786Y54754214D02*
X74277784Y54754211D01*
X71737786Y52214214D01*
X71304241Y51565367D01*
X71197226Y51027372D01*
X71042345Y51182524D01*
X70105452Y51571556D01*
X69090999Y51572441D01*
X68325274Y51256050D01*
X67565452Y51571556D01*
X66550999Y51572441D01*
X65785274Y51256050D01*
X65025452Y51571556D01*
X64010999Y51572441D01*
X63073428Y51185045D01*
X62355476Y50468345D01*
X61975545Y49553370D01*
X61599045Y50464572D01*
X60882345Y51182524D01*
X59945452Y51571556D01*
X58930999Y51572441D01*
X58165274Y51256050D01*
X57405452Y51571556D01*
X56390999Y51572441D01*
X55625274Y51256050D01*
X54865452Y51571556D01*
X53850999Y51572441D01*
X53085274Y51256050D01*
X52325452Y51571556D01*
X51310999Y51572441D01*
X50545274Y51256050D01*
X49785452Y51571556D01*
X48770999Y51572441D01*
X48005274Y51256050D01*
X47245452Y51571556D01*
X46230999Y51572441D01*
X45465274Y51256050D01*
X44705452Y51571556D01*
X43690999Y51572441D01*
X42925274Y51256050D01*
X42165452Y51571556D01*
X41150999Y51572441D01*
X40213428Y51185045D01*
X39495476Y50468345D01*
X39106444Y49531452D01*
X39105559Y48516999D01*
X39492955Y47579428D01*
X40209655Y46861476D01*
X41146548Y46472444D01*
X42161001Y46471559D01*
X42926726Y46787950D01*
X43686548Y46472444D01*
X44701001Y46471559D01*
X45466726Y46787950D01*
X46226548Y46472444D01*
X47241001Y46471559D01*
X48006726Y46787950D01*
X48766548Y46472444D01*
X49781001Y46471559D01*
X50546726Y46787950D01*
X51306548Y46472444D01*
X52321001Y46471559D01*
X53086726Y46787950D01*
X53846548Y46472444D01*
X54861001Y46471559D01*
X55626726Y46787950D01*
X56386548Y46472444D01*
X57185990Y46471747D01*
X57185610Y46036411D01*
X57527431Y45209142D01*
X58159813Y44575655D01*
X58587597Y44398024D01*
X56751786Y42562214D01*
X56318241Y41913367D01*
X56165999Y41148000D01*
X56166000Y41147995D01*
X56166000Y37928589D01*
X56005476Y37768345D01*
X55616444Y36831452D01*
X55615736Y36020011D01*
X54865452Y36331556D01*
X53850999Y36332441D01*
X53085274Y36016050D01*
X52325452Y36331556D01*
X51310999Y36332441D01*
X50545274Y36016050D01*
X49785452Y36331556D01*
X48770999Y36332441D01*
X48005274Y36016050D01*
X47245452Y36331556D01*
X46230999Y36332441D01*
X45465274Y36016050D01*
X44705452Y36331556D01*
X44206009Y36331992D01*
X44206441Y36827001D01*
X43890050Y37592726D01*
X44205556Y38352548D01*
X44206441Y39367001D01*
X43819045Y40304572D01*
X43102345Y41022524D01*
X42165452Y41411556D01*
X41150999Y41412441D01*
X40213428Y41025045D01*
X40050098Y40862000D01*
X31054427Y40862000D01*
X28670000Y43246428D01*
X28670000Y50546000D01*
X28517759Y51311367D01*
X28084214Y51960214D01*
X28084211Y51960216D01*
X26287128Y53757299D01*
X26038569Y54358858D01*
X25585219Y54813000D01*
X74365766Y54813000D01*
X74277786Y54754214D01*
G36*
X10600000Y43794614D02*
X11670614Y43794614D01*
X11670614Y42809000D01*
X11775207Y42253133D01*
X11880942Y42088816D01*
X11770614Y41544000D01*
X11770614Y40787386D01*
X10600000Y40787386D01*
X10044133Y40682793D01*
X9927902Y40608000D01*
X9791002Y40608000D01*
X9191128Y41208923D01*
X8726260Y41401953D01*
X9187029Y41592339D01*
X9966923Y42370872D01*
X10389519Y43388596D01*
X10389910Y43837158D01*
X10600000Y43794614D01*
X10600000Y43794614D01*
G37*
X10600000Y43794614D02*
X11670614Y43794614D01*
X11670614Y42809000D01*
X11775207Y42253133D01*
X11880942Y42088816D01*
X11770614Y41544000D01*
X11770614Y40787386D01*
X10600000Y40787386D01*
X10044133Y40682793D01*
X9927902Y40608000D01*
X9791002Y40608000D01*
X9191128Y41208923D01*
X8726260Y41401953D01*
X9187029Y41592339D01*
X9966923Y42370872D01*
X10389519Y43388596D01*
X10389910Y43837158D01*
X10600000Y43794614D01*
M02*
